<?xml version="1.0" encoding="iso-8859-1"?>
<!-- Generator: Adobe Illustrator 19.0.0, SVG Export Plug-In . SVG Version: 6.00 Build 0)  -->
<svg version="1.1" id="Capa_1" xmlns="http://www.w3.org/2000/svg" xmlns:xlink="http://www.w3.org/1999/xlink" x="0px" y="0px"
	 viewBox="0 0 512 512" style="enable-background:new 0 0 512 512;" xml:space="preserve">
<circle style="fill:#F43380;" cx="256" cy="256" r="256"/>
<g>
	<path style="fill:#F43380;" d="M17.523,190.38c-1.003-4.42-2.873-8.589-5.454-12.257c-5.047,15.788-8.589,32.235-10.47,49.194
		C15.036,218.875,20.72,204.424,17.523,190.38z M170.099,168.427c-8.965-16.185-25.778-25.328-43.092-25.328
		c-8.056,0-16.217,1.975-23.74,6.144c-19.435,10.762-26.624,34.628-16.363,54.324c4.211,8.077,11.4,13.991,20.24,16.645
		c8.934,2.696,18.725,1.651,26.864-2.863c7.743-4.284,13.27-11.421,15.485-20.01c2.121-8.202,0.648-16.927-3.459-24.346
		l-0.784-1.411c-1.546-2.779-4.827-4.284-7.847-3.302c-4.065,1.327-5.726,5.904-3.762,9.446l1.097,1.996
		c5.078,9.153,2.142,20.961-6.99,26.081c-5.078,2.853-11.222,3.521-16.823,1.839c-5.423-1.63-9.822-5.235-12.372-10.146
		c-6.949-13.322-2.079-29.477,11.076-36.76c17.377-9.634,39.351-3.323,48.974,14.054c12.476,22.518,4.305,50.981-18.213,63.457
		c-16.238,8.997-35.819,9.028-52.506,1.975c-16.886-7.126-28.139-23.552-29.497-41.838c-1.62-21.734-12.884-42.465-32.172-55.38
		c-1.964,3.992-3.824,8.046-5.59,12.152c0.669,0.439,1.306,0.909,1.912,1.379c10.616,8.296,18.087,19.853,21.285,33.155
		c1.337,5.538,1.818,11.348,1.452,17.209c-0.94,14.984-9.373,28.296-21.504,37.146c-9.947,7.262-18.004,16.98-23.259,28.254
		c1.745,27.867,7.962,54.512,17.92,79.256c9.853,7.158,21.974,11.389,35.067,11.389c27.115,0,49.173-22.058,49.173-49.162
		c0-22.215-17.398-40.061-39.591-40.636c-9.08-0.272-17.763,3.187-24.377,9.634c-6.552,6.395-10.365,15.245-10.512,24.367
		c-0.272,17.899,15.13,32.538,33.029,32.538h1.432c3.438,0,6.572-2.476,6.907-5.893c0.397-3.929-2.675-7.241-6.531-7.241h-2.111
		c-10.407,0-19.613-8.505-19.592-18.913c0.01-5.778,2.393-11.41,6.552-15.454c4.044-3.95,9.3-6.019,14.869-5.904
		c15.015,0.376,26.791,12.466,26.791,27.502c0,19.864-16.165,36.028-36.039,36.028c-25.736,0-46.686-20.94-46.686-46.676
		c0-15.318,5.768-29.309,15.245-39.915c14.723-16.478,38.734-20.167,58.838-10.992c20.396,9.31,44.795,9.185,65.86-2.487
		C175.606,233.754,186.075,197.277,170.099,168.427z"/>
	<path style="fill:#F43380;" d="M491.541,252.228c6.489,2.968,13.385,4.974,20.449,5.945C512,257.452,512,256.721,512,256
		c0-3.96-0.094-7.889-0.272-11.807c-4.524-0.846-8.955-2.173-13.197-3.971c-16.886-7.126-28.139-23.552-29.497-41.838
		c-1.693-22.685-13.887-44.272-34.732-57.031c-9.519-5.82-20.219-8.808-31.107-8.808c-4.692,0-9.425,0.554-14.117,1.682
		c-12.57,3.03-23.573,9.874-31.734,19.602c-10.094,12.016-14.723,28.003-11.4,43.353c1.943,9.007,6.259,17.095,12.445,23.562
		c13.437,14.064,34.116,17.209,51.284,8.056c15.276-8.14,21.891-23.51,18.495-38.421c-2.027-8.923-7.586-16.792-15.287-21.682
		c-15.12-9.571-35.652-4.086-44.993,11.18l-0.763,1.243c-1.787,2.926-1.317,6.886,1.432,8.955c3.145,2.393,7.576,1.494,9.582-1.787
		l1.191-1.954c5.465-8.923,17.178-12.194,26.133-6.771c4.995,3.009,8.6,8.025,9.906,13.73c1.254,5.517,0.282,11.118-2.727,15.768
		c-8.161,12.612-24.607,16.353-37.439,8.495c-10.574-6.468-17.084-17.732-17.283-30.689c-0.094-6.907,2.058-13.688,5.757-19.519
		c6.959-10.951,17.941-18.422,30.824-20.856c11.776-2.226,29.236,2.654,38.682,10.041c10.616,8.296,18.087,19.853,21.285,33.155
		c1.337,5.538,1.818,11.348,1.452,17.209c-0.94,14.984-9.373,28.296-21.504,37.146c-18.223,13.312-30.083,34.837-30.083,59.089
		c0,32.977,26.833,59.81,59.81,59.81c10.616,0,20.459-3.385,28.505-9.132c7.649-18.484,13.197-38.055,16.342-58.42
		c-6.499-12.946-19.707-21.838-35.265-22.246c-9.08-0.272-17.763,3.187-24.377,9.634c-6.551,6.395-10.365,15.245-10.512,24.367
		c-0.272,17.899,15.13,32.538,33.029,32.538h1.432c3.438,0,6.572-2.476,6.907-5.893c0.397-3.929-2.675-7.241-6.531-7.241h-2.111
		c-10.407,0-19.613-8.505-19.592-18.913c0.01-5.778,2.393-11.41,6.552-15.454c4.044-3.95,9.3-6.019,14.869-5.904
		c15.015,0.376,26.791,12.466,26.791,27.502c0,19.864-16.165,36.028-36.039,36.028c-25.736,0-46.686-20.94-46.686-46.676
		c0-15.318,5.768-29.309,15.245-39.915C447.425,246.742,471.437,243.054,491.541,252.228z M508.907,216.095
		c-2.602-16.614-6.792-32.684-12.424-48.076c-4.963,10.951-4.963,23.97,1.066,35.547
		C500.234,208.718,504.142,213.002,508.907,216.095z"/>
	<path style="fill:#F43380;" d="M372.809,293.815c-8.965-16.185-25.778-25.328-43.092-25.328c-8.056,0-16.217,1.975-23.74,6.144
		c-19.435,10.762-26.624,34.628-16.363,54.324c4.211,8.077,11.4,13.991,20.24,16.645c8.934,2.696,18.725,1.651,26.864-2.863
		c7.743-4.284,13.27-11.421,15.485-20.01c2.121-8.202,0.648-16.927-3.459-24.346l-0.784-1.411c-1.546-2.779-4.827-4.284-7.847-3.302
		c-4.065,1.327-5.726,5.904-3.762,9.446l1.097,1.996c5.078,9.153,2.142,20.961-6.99,26.081c-5.078,2.853-11.222,3.521-16.823,1.839
		c-5.423-1.63-9.822-5.235-12.372-10.146c-6.949-13.322-2.079-29.477,11.076-36.76c17.377-9.634,39.351-3.323,48.974,14.054
		c12.476,22.518,4.305,50.981-18.213,63.457c-16.238,8.997-35.819,9.028-52.506,1.975c-16.886-7.126-28.139-23.552-29.497-41.838
		c-1.693-22.685-13.887-44.272-34.732-57.031c-9.519-5.82-20.219-8.809-31.107-8.809c-4.692,0-9.425,0.554-14.117,1.682
		c-12.57,3.03-23.573,9.874-31.734,19.602c-10.094,12.016-14.723,28.003-11.4,43.353c1.944,9.007,6.259,17.095,12.445,23.562
		c13.437,14.064,34.116,17.209,51.284,8.056c15.276-8.14,21.891-23.51,18.495-38.421c-2.027-8.923-7.586-16.792-15.287-21.682
		c-15.12-9.571-35.652-4.086-44.993,11.18l-0.763,1.243c-1.787,2.926-1.317,6.886,1.432,8.955c3.145,2.393,7.576,1.494,9.582-1.787
		l1.191-1.954c5.465-8.923,17.178-12.194,26.133-6.771c4.995,3.009,8.6,8.025,9.906,13.73c1.254,5.517,0.282,11.118-2.727,15.768
		c-8.161,12.612-24.607,16.353-37.439,8.495c-10.574-6.468-17.084-17.732-17.283-30.689c-0.094-6.907,2.058-13.688,5.757-19.519
		c6.959-10.951,17.941-18.422,30.824-20.856c11.776-2.226,29.236,2.654,38.682,10.041c10.616,8.297,18.087,19.853,21.285,33.155
		c1.337,5.538,1.818,11.348,1.452,17.209c-0.94,14.984-9.373,28.296-21.504,37.146c-18.223,13.312-30.083,34.837-30.083,59.089
		c0,32.977,26.833,59.81,59.81,59.81c27.115,0,49.173-22.058,49.173-49.162c0-22.215-17.398-40.061-39.591-40.636
		c-9.08-0.272-17.763,3.187-24.377,9.634c-6.552,6.395-10.365,15.245-10.512,24.367c-0.272,17.899,15.13,32.538,33.029,32.538h1.431
		c3.438,0,6.572-2.476,6.907-5.893c0.397-3.929-2.675-7.241-6.531-7.241h-2.111c-10.407,0-19.613-8.505-19.592-18.913
		c0.01-5.778,2.393-11.41,6.552-15.454c4.044-3.95,9.3-6.019,14.869-5.904c15.015,0.376,26.791,12.466,26.791,27.502
		c0,19.864-16.165,36.028-36.039,36.028c-25.736,0-46.686-20.94-46.686-46.676c0-15.318,5.768-29.309,15.245-39.915
		c14.723-16.478,38.734-20.167,58.838-10.992c20.396,9.31,44.795,9.185,65.86-2.487
		C378.316,359.142,388.786,322.664,372.809,293.815z"/>
	<path style="fill:#F43380;" d="M220.233,29.738c-2.027-8.923-7.586-16.792-15.287-21.682c-1.296-0.815-2.623-1.526-3.992-2.121
		c-13.949,3.051-27.481,7.252-40.479,12.487c-0.178,0.272-0.355,0.543-0.522,0.815l-0.763,1.243
		c-1.787,2.926-1.317,6.886,1.432,8.955c3.145,2.393,7.576,1.494,9.582-1.787l1.191-1.954c5.465-8.923,17.178-12.194,26.133-6.771
		c4.995,3.009,8.6,8.025,9.906,13.73c1.254,5.517,0.282,11.118-2.727,15.768c-8.161,12.612-24.607,16.353-37.439,8.495
		c-10.574-6.468-17.084-17.732-17.283-30.689c-0.01-1.128,0.031-2.257,0.136-3.375c-4.441,2.017-8.808,4.159-13.103,6.416
		c0.146,2.435,0.47,4.859,0.993,7.272c1.944,9.007,6.259,17.095,12.445,23.562c13.437,14.064,34.116,17.209,51.284,8.056
		C217.015,60.019,223.629,44.649,220.233,29.738z M380.103,32.037c-4.765-2.644-9.624-5.141-14.566-7.481
		c5.496,20.25-3.281,42.433-22.434,53.049c-16.238,8.997-35.819,9.028-52.506,1.975c-16.886-7.126-28.139-23.552-29.497-41.838
		c-1.003-13.458-5.705-26.53-13.72-37.595c-5.454,0.178-10.856,0.522-16.206,1.045c7.481,7.638,12.8,17.189,15.36,27.857
		c1.337,5.538,1.818,11.348,1.452,17.209c-0.94,14.984-9.373,28.296-21.504,37.146c-18.223,13.312-30.083,34.837-30.083,59.089
		c0,32.977,26.833,59.81,59.81,59.81c27.115,0,49.173-22.058,49.173-49.162c0-22.215-17.398-40.061-39.591-40.636
		c-9.08-0.272-17.763,3.187-24.377,9.634c-6.552,6.395-10.365,15.245-10.512,24.367c-0.272,17.899,15.13,32.538,33.029,32.538h1.431
		c3.438,0,6.572-2.476,6.907-5.893c0.397-3.929-2.675-7.241-6.531-7.241h-2.111c-10.407,0-19.613-8.505-19.592-18.913
		c0.01-5.778,2.393-11.41,6.552-15.454c4.044-3.95,9.3-6.019,14.869-5.904c15.015,0.376,26.791,12.466,26.791,27.502
		c0,19.863-16.165,36.028-36.039,36.028c-25.736,0-46.686-20.94-46.686-46.676c0-15.318,5.768-29.309,15.245-39.915
		c14.723-16.478,38.734-20.167,58.838-10.992c20.396,9.31,44.795,9.185,65.86-2.487C370.594,77.385,381.868,54.68,380.103,32.037z
		 M351.389,18.369c0,0,0,0,0-0.01c-5.162-2.069-10.407-3.981-15.736-5.716c-0.293,1.463-0.084,3.03,0.7,4.441l1.097,1.996
		c5.078,9.153,2.142,20.961-6.99,26.081c-5.078,2.853-11.222,3.521-16.823,1.839c-5.423-1.63-9.822-5.235-12.372-10.146
		c-5.684-10.898-3.459-23.688,4.744-31.963c-4.869-0.972-9.791-1.797-14.764-2.476c-7.513,11.818-8.6,27.126-1.63,40.511
		c4.211,8.077,11.4,13.991,20.24,16.645c8.934,2.696,18.725,1.651,26.864-2.863c7.743-4.284,13.27-11.41,15.485-20.01
		C353.771,30.626,353.374,24.273,351.389,18.369z"/>
</g>
<path style="fill:#E6DFE1;" d="M424.542,448.7c-11.139,9.749-23.134,18.547-35.85,26.269
	c-22.016,13.375-46.216,23.521-71.931,29.769c-3.281,0.805-6.604,1.546-9.937,2.215C290.398,510.265,273.408,512,256.01,512
	c-0.763,0-1.526,0-2.288-0.021h-0.01c-20.125-0.178-39.696-2.675-58.452-7.241c-25.725-6.259-49.915-16.394-71.931-29.769
	c-12.716-7.722-24.712-16.52-35.85-26.269c6.196-17.074,16.05-32.402,28.62-45.014c17.993-18.066,41.545-30.595,67.877-34.795h0.01
	c3.699-0.585,7.461-1.014,11.274-1.264c2.748-0.188,5.527-0.282,8.317-0.282h104.866c2.8,0,5.569,0.094,8.317,0.282
	c3.814,0.251,7.576,0.679,11.285,1.264c26.331,4.2,49.883,16.718,67.877,34.785C408.492,416.287,418.356,431.626,424.542,448.7z"/>
<g>
	<path style="fill:#CCC6C7;" d="M114.682,448.701c15.067-41.535,51.785-72.673,96.507-79.809c6.374-1.014,12.925-1.546,19.592-1.546
		h-27.209c-6.666,0-13.218,0.533-19.592,1.546c-44.722,7.137-81.439,38.275-96.507,79.809c6.864,6.008,14.055,11.651,21.536,16.908
		C111.09,459.782,113.032,454.108,114.682,448.701z"/>
	<path style="fill:#CCC6C7;" d="M319.787,309.149v63.07c0,35.235-28.551,63.786-63.772,63.786c-10.912,0-21.178-2.739-30.152-7.569
		c-5.533-2.949-10.561-6.712-14.957-11.108c-10.238-10.238-17.007-23.93-18.411-39.182c-0.168-1.952-0.266-3.932-0.266-5.927v-63.07
		H319.787z"/>
</g>
<path style="fill:#E5B59C;" d="M308.419,320.453v51.829c0,28.955-23.462,52.418-52.407,52.418c-8.967,0-17.404-2.251-24.778-6.22
	c-4.547-2.423-8.679-5.516-12.291-9.128c-8.414-8.414-13.976-19.665-15.13-32.199c-0.139-1.604-0.219-3.232-0.219-4.87v-51.829
	h104.825V320.453z"/>
<path style="fill:#F9CCB2;" d="M372.718,174.184v73.08c0,32.235-13.061,61.409-34.189,82.526c-3.605,3.605-7.44,6.969-11.483,10.073
	c-15.433,11.86-33.917,19.937-54.073,22.873c-5.538,0.815-11.201,1.233-16.969,1.233h-0.199c-5.684-0.01-11.285-0.428-16.76-1.233
	c-56.414-8.202-99.746-56.769-99.746-115.472v-73.08c0-64.46,52.255-116.705,116.705-116.705
	C320.463,57.48,372.718,109.725,372.718,174.184z"/>
<g>
	<path style="fill:#E5B59C;" d="M372.718,156.17v91.094c0,32.235-13.061,61.409-34.189,82.526
		c-17.345,17.345-40.114,29.247-65.557,32.946V257.849h46.919v-2.56c0-28.369,5.796-53.509-21.194-62.245
		c-2.56-0.825-5.12-1.212-7.628-1.212c-13.113,0-24.618,10.616-24.618,24.67v54.93h-20.898v-54.93
		c0-16.739-16.311-28.609-32.235-23.458c-13.5,4.368-14.377,12.831-22.318,23.761c-7.941,10.919-12.518,24.304-12.518,38.484v2.56
		h60.561v104.887c-56.414-8.202-99.746-56.769-99.746-115.472V156.17c0-64.449,52.255-116.705,116.705-116.705
		c32.235,0,61.409,13.061,82.526,34.189C359.657,94.772,372.718,123.946,372.718,156.17z"/>
	<path style="fill:#E5B59C;" d="M230.677,222.562c0,0,2.398,11.746-19.065,20.075c-0.963,0.374-2.059,0.155-2.79-0.576l0,0
		c-1.138-1.138-0.984-3.038,0.343-3.948c2.915-1.998,6.932-5.945,5.537-11.975"/>
	<path style="fill:#E5B59C;" d="M232.498,219.012c-2.078,5.004-7.714,7.524-12.932,6.063l-27.112-7.6
		c-2.832-0.794-5.074-2.657-6.411-5.035c-1.528-2.728-1.871-6.128-0.535-9.347c2.078-5.004,7.714-7.524,12.932-6.063l27.112,7.6
		c2.832,0.794,5.074,2.657,6.411,5.035C233.491,212.393,233.835,215.794,232.498,219.012z"/>
</g>
<path style="fill:#FFFFFF;" d="M230.483,226.204c-2.078,5.004-7.714,7.524-12.932,6.063l-27.112-7.6
	c-2.832-0.794-5.074-2.657-6.411-5.035c-1.528-2.728-1.871-6.128-0.535-9.347c2.078-5.004,7.714-7.524,12.932-6.063l27.112,7.6
	c2.832,0.794,5.074,2.657,6.411,5.035C231.475,219.584,231.819,222.985,230.483,226.204z"/>
<g>
	<path style="fill:#E5B59C;" d="M327.046,339.864c-15.433,11.86-33.917,19.937-54.073,22.873
		c-5.538,0.815-11.201,1.233-16.969,1.233h-0.199v-97.238h38.316L327.046,339.864z"/>
	<path style="fill:#E5B59C;" d="M282.998,222.562c0,0-2.398,11.746,19.065,20.075c0.963,0.374,2.059,0.155,2.79-0.576l0,0
		c1.138-1.138,0.984-3.038-0.343-3.948c-2.915-1.998-6.932-5.945-5.537-11.975"/>
	<path style="fill:#E5B59C;" d="M281.177,219.012c2.078,5.004,7.714,7.524,12.932,6.063l27.112-7.6
		c2.832-0.794,5.074-2.657,6.411-5.035c1.528-2.728,1.871-6.128,0.535-9.347c-2.078-5.004-7.714-7.524-12.932-6.063l-27.112,7.6
		c-2.832,0.794-5.074,2.657-6.411,5.035C280.183,212.393,279.84,215.794,281.177,219.012z"/>
</g>
<path style="fill:#FFFFFF;" d="M283.192,226.204c2.078,5.004,7.714,7.524,12.932,6.063l27.112-7.6
	c2.832-0.794,5.074-2.657,6.411-5.035c1.528-2.728,1.871-6.128,0.535-9.347c-2.078-5.004-7.714-7.524-12.932-6.063l-27.112,7.6
	c-2.832,0.794-5.074,2.657-6.411,5.035C282.2,219.584,281.856,222.985,283.192,226.204z"/>
<g>
	<path style="fill:#8C4314;" d="M292.099,218.683c2.111,7.532,9.931,11.928,17.462,9.817c7.532-2.111,11.928-9.931,9.817-17.462
		c-0.702-2.507-2.039-4.664-3.789-6.349l-23.553,6.602C291.416,213.638,291.396,216.176,292.099,218.683z"/>
	<path style="fill:#8C4314;" d="M221.576,218.683c-2.111,7.532-9.931,11.928-17.462,9.817c-7.532-2.111-11.928-9.931-9.817-17.462
		c0.702-2.507,2.039-4.664,3.789-6.349l23.553,6.602C222.258,213.638,222.279,216.176,221.576,218.683z"/>
</g>
<path style="fill:#E5B59C;" d="M260.548,293.898h-9.082c-3.263,0-5.909-2.646-5.909-5.909v-20.214h20.899v20.214
	C266.457,291.253,263.812,293.898,260.548,293.898z"/>
<g>
	<path style="fill:#B3AEAF;" d="M397.573,387.385l-1.651,16.29l-7.231,71.293c-22.016,13.375-46.216,23.521-71.931,29.769V359.727
		l65.4,8.276C391.701,369.215,398.545,377.814,397.573,387.385z"/>
	<path style="fill:#B3AEAF;" d="M195.26,359.727v145.011c-25.725-6.259-49.915-16.394-71.931-29.769l-7.231-71.283l-1.651-16.3
		c-0.972-9.571,5.872-18.171,15.412-19.383L195.26,359.727z"/>
</g>
<path style="fill:#E5B59C;" d="M161.228,247.267v-73.084c0-60.758,46.43-110.663,105.744-116.191
	c-3.61-0.336-7.265-0.516-10.964-0.516l0,0c-64.456,0-116.707,52.251-116.707,116.707v73.084
	c0,64.456,52.251,116.707,116.707,116.707l0,0c3.698,0,7.354-0.18,10.964-0.516C207.658,357.93,161.228,308.024,161.228,247.267z"/>
<path style="fill:#E6DFE1;" d="M372.715,145.201v161.373c0,14.626-6.989,28.371-18.808,36.988l-65.298,47.607
	c-6.501,4.741-15.635,0.096-15.635-7.95V259.797c0-7.135,5.785-12.919,12.919-12.919h58.088v-2.559
	c0-28.373-18.29-53.512-45.286-62.245l0,0c-15.922-5.15-32.239,6.721-32.239,23.455v74.263l-2.036,1.934
	c-4.715,4.478-12.112,4.478-16.827,0l-2.037-1.934v-74.263c0-16.734-16.317-28.605-32.239-23.455l0,0
	c-26.996,8.732-45.286,33.871-45.286,62.245v2.559h58.088c7.135,0,12.919,5.785,12.919,12.919v123.421
	c0,8.047-9.133,12.69-15.635,7.95l-65.295-47.606c-11.819-8.616-18.808-22.362-18.808-36.988V145.201
	c0-64.456,52.251-116.707,116.707-116.707l0,0C320.463,28.494,372.715,80.746,372.715,145.201z"/>
<path style="fill:#CCC6C7;" d="M197.113,343.562l38.724,46.937c-3.239,2.926-8.349,3.647-12.434,0.669l-65.296-47.606
	c-11.818-8.62-18.808-22.361-18.808-36.989V145.199c0-64.449,52.255-116.705,116.705-116.705
	c-38.776,0-70.207,52.255-70.207,116.705v54.303c-1.881,1.996-3.636,4.117-5.245,6.332c-7.941,10.919-12.518,24.304-12.518,38.484
	v2.56h17.763v59.695C185.796,321.202,189.997,334.942,197.113,343.562z"/>
<path style="fill:#B3AEAF;" d="M270.26,0.001h-28.504c-7.134,0-12.916,5.782-12.916,12.916v66.401
	c0,7.134,5.782,12.916,12.916,12.916h28.504c7.134,0,12.916-5.782,12.916-12.916V12.917C283.175,5.784,277.392,0.001,270.26,0.001z"
	/>
<circle style="fill:#F2EBEC;" cx="320.585" cy="102.682" r="18.808"/>
<path style="fill:#E6DFE1;" d="M266.776,71.335L266.776,71.335c-3.174,0-5.747-2.573-5.747-5.747V15.433
	c0-3.174,2.573-5.747,5.747-5.747l0,0c3.174,0,5.747,2.573,5.747,5.747v50.155C272.523,68.763,269.95,71.335,266.776,71.335z"/>
<g>
	<path style="fill:#CCC6C7;" d="M353.186,421.375L353.186,421.375c-5.194,0-9.404-4.21-9.404-9.404v-24.033
		c0-5.194,4.21-9.404,9.404-9.404l0,0c5.194,0,9.404,4.21,9.404,9.404v24.033C362.59,417.165,358.379,421.375,353.186,421.375z"/>
	<path style="fill:#CCC6C7;" d="M158.835,421.375L158.835,421.375c-5.194,0-9.404-4.21-9.404-9.404v-24.033
		c0-5.194,4.21-9.404,9.404-9.404l0,0c5.194,0,9.404,4.21,9.404,9.404v24.033C168.239,417.165,164.029,421.375,158.835,421.375z"/>
</g>
<g>
</g>
<g>
</g>
<g>
</g>
<g>
</g>
<g>
</g>
<g>
</g>
<g>
</g>
<g>
</g>
<g>
</g>
<g>
</g>
<g>
</g>
<g>
</g>
<g>
</g>
<g>
</g>
<g>
</g>
</svg>
