<?xml version="1.0" encoding="iso-8859-1"?>
<!-- Generator: Adobe Illustrator 23.0.6, SVG Export Plug-In . SVG Version: 6.00 Build 0)  -->
<svg version="1.1" id="Capa_1" xmlns="http://www.w3.org/2000/svg" xmlns:xlink="http://www.w3.org/1999/xlink" x="0px" y="0px"
	 viewBox="0 0 512 512" style="enable-background:new 0 0 512 512;" xml:space="preserve">
<g>
	<path style="fill:#6EC17D;" d="M512,256c0,63.8-23.34,122.15-61.95,166.97c-24.08,27.96-54.1,50.66-88.1,66.13
		C329.66,503.81,293.79,512,256,512s-73.67-8.19-105.96-22.9c-34-15.47-64.02-38.18-88.1-66.14l-0.01-0.01
		C23.34,378.13,0,319.79,0,256C0,114.62,114.62,0,256,0S512,114.62,512,256z"/>
	<g>
		<path style="fill:#F6F1F1;" d="M450.05,422.97c-24.08,27.96-54.1,50.66-88.1,66.13C329.66,503.81,293.79,512,256,512
			s-73.67-8.19-105.96-22.9c-34-15.47-64.02-38.18-88.1-66.14l-0.01-0.01c10.73-9.99,22.6-18.79,35.4-26.16
			c15.68-9.02,32.74-15.89,50.77-20.21c2.78-0.68,5.59-1.29,8.42-1.83c5.34-1.04,10.76-1.84,16.25-2.41
			c1.58-0.17,3.15-0.32,4.75-0.45c5.19-0.43,10.45-0.64,15.77-0.64H318.7c6.95,0,13.79,0.37,20.52,1.07
			c5.49,0.57,10.9,1.39,16.25,2.4c2.13,0.42,4.26,0.86,6.36,1.34c0.69,0.18,1.4,0.32,2.08,0.51c4.18,0.99,8.31,2.13,12.37,3.42
			c13.5,4.21,26.35,9.87,38.4,16.8C427.47,404.17,439.33,412.96,450.05,422.97z"/>
		<path style="fill:#D0E2E7;" d="M450.05,422.97c-24.08,27.96-54.1,50.66-88.1,66.13c-2.8-29.65,2.3-92.48,14.33-109.11
			c13.5,4.21,26.35,9.87,38.4,16.8C427.47,404.17,439.33,412.96,450.05,422.97z"/>
		<path style="fill:#D0E2E7;" d="M150.04,489.1c-34-15.47-64.02-38.18-88.1-66.14c10.72-10,22.58-18.79,35.37-26.17
			c12.05-6.93,24.9-12.59,38.4-16.8C147.74,396.62,152.84,459.45,150.04,489.1z"/>
		<g>
			<path style="fill:#EFB29A;" d="M132.54,278.153c0,20.497-14.973,37.492-34.579,40.646c-3.562-12.95-5.464-26.579-5.464-40.646
				c0-14.067,1.902-27.696,5.464-40.646C117.567,240.661,132.54,257.657,132.54,278.153z"/>
			<path style="fill:#EFB29A;" d="M379.449,278.153c0,20.497,14.973,37.492,34.579,40.646c3.562-12.95,5.464-26.579,5.464-40.646
				c0-14.067-1.902-27.696-5.464-40.646C394.422,240.661,379.449,257.657,379.449,278.153z"/>
		</g>
		<path style="fill:#F9C5AC;" d="M410.696,256.511c0,76.985-56.241,140.847-129.873,152.705c-7.865,1.291-15.932,1.961-24.16,1.995
			c-85.454,0.358-155.37-70.641-155.37-156.095V148.532c0-27.349,22.171-49.52,49.52-49.52h210.364
			c27.349,0,49.52,22.171,49.52,49.52V256.511z"/>
		<path style="fill:#EFB29A;" d="M283.243,408.81c-0.8,0.14-1.61,0.28-2.42,0.41c-7.811,1.276-15.818,1.945-23.986,1.988
			c-85.549,0.451-155.544-70.539-155.544-156.089V142.454c0-23.994,19.451-43.444,43.444-43.444h11.106v157.5
			C155.843,332.65,210.823,395.92,283.243,408.81z"/>
		<path style="fill:#D9723E;" d="M410.69,177.202V289.37c0,63.84-33.84,122.9-88.93,155.17c-20.31,11.9-43.04,17.84-65.77,17.84
			c-3.45,0-6.91-0.14-10.36-0.42c-19.22-1.52-38.19-7.33-55.41-17.42c-27.54-16.14-49.78-38.97-65.12-65.75
			c-15.35-26.77-23.81-57.5-23.81-89.42v-62.52c6,0,31.89-40.79,31.89-40.79s-1.51,76.88,0,86.75c4.94,32.34,18.2,53.18,30.42,61.79
			c10.51,7.41,20.25,5.78,23.28-5.35c3.17-11.64,9.13-18.88,17.9-23.36c11.89-6.08,28.94-7.07,51.21-7.07
			c38.68,0,61.63,2.99,69.11,30.43c3.03,11.13,12.77,12.76,23.28,5.35c12.22-8.61,25.48-29.45,30.42-61.79
			c1.51-9.87,0-86.75,0-86.75S404.69,177.202,410.69,177.202z"/>
		<path style="fill:#BD5423;" d="M255.995,337.93c-12.954,0-25.908-3.246-37.716-9.737c-3.331-1.831-4.547-6.015-2.715-9.346
			c1.831-3.331,6.016-4.545,9.346-2.715c19.465,10.701,42.707,10.7,62.17,0c3.329-1.831,7.514-0.616,9.346,2.715
			c1.831,3.331,0.616,7.515-2.715,9.346C281.903,334.685,268.949,337.93,255.995,337.93z"/>
		<path style="fill:#EFB29A;" d="M273.544,291.694h-35.098c-4.181,0-7.57-3.389-7.57-7.57v0c0-4.181,3.389-7.57,7.57-7.57h35.098
			c4.181,0,7.57,3.389,7.57,7.57v0C281.114,288.304,277.725,291.694,273.544,291.694z"/>
		<g>
			<path style="fill:#EFB29A;" d="M281.34,249.161c0,17.165,13.915,31.08,31.08,31.08s31.08-13.915,31.08-31.08"/>
			<circle style="fill:#2F373B;" cx="312.42" cy="249.161" r="22.287"/>
			<circle style="fill:#FFFFFF;" cx="321.708" cy="245.228" r="9.55"/>
			<path style="fill:#EFB29A;" d="M168.49,249.161c0,17.165,13.915,31.08,31.08,31.08s31.08-13.915,31.08-31.08"/>
			<circle style="fill:#2F373B;" cx="199.57" cy="249.161" r="22.287"/>
			<path style="fill:#181E21;" d="M204.782,270.831c-1.67,0.41-3.42,0.62-5.21,0.62c-12.31,0-22.29-9.98-22.29-22.29
				c0-12.31,9.98-22.29,22.29-22.29c1.79,0,3.54,0.21,5.21,0.62c-9.8,2.34-17.07,11.16-17.07,21.67
				C187.712,259.671,194.982,268.491,204.782,270.831z"/>
			<path style="fill:#181E21;" d="M317.632,270.831c-1.67,0.41-3.42,0.62-5.21,0.62c-12.31,0-22.29-9.98-22.29-22.29
				c0-12.31,9.98-22.29,22.29-22.29c1.79,0,3.54,0.21,5.21,0.62c-9.8,2.34-17.07,11.16-17.07,21.67
				C300.562,259.671,307.832,268.491,317.632,270.831z"/>
			<circle style="fill:#FFFFFF;" cx="208.858" cy="245.228" r="9.55"/>
		</g>
		<path style="fill:#BD5423;" d="M245.63,461.96c-19.22-1.52-38.19-7.33-55.41-17.42c-27.54-16.14-49.78-38.97-65.12-65.75
			c-15.35-26.77-23.81-57.5-23.81-89.42V169.35c6,0,31.89,16.71,31.89,16.71s-1.51,76.88,0,86.75c4.94,32.34,18.2,53.18,30.42,61.79
			c10.51,7.41,20.25,5.78,23.28-5.35c3.17-11.64,9.13-18.88,17.9-23.36C204.78,305.89,187.72,420.84,245.63,461.96z"/>
		<g>
			<path style="fill:#D0E2E7;" d="M123.092,146.903H92.068v175.343c0,11.442,7.314,21.602,18.165,25.233l31.203,10.441
				c11.632,3.892,23.657-4.764,23.657-17.03v-47.324c0-5.911-2.909-11.443-7.778-14.794l-34.222-23.548V146.903z"/>
			<path style="fill:#F6F1F1;" d="M388.897,146.903v108.319l-34.222,23.548c-4.869,3.351-7.778,8.883-7.778,14.794v47.324
				c0,12.266,12.024,20.922,23.657,17.03l31.203-10.441c10.85-3.631,18.165-13.791,18.165-25.233V146.903H388.897z"/>
		</g>
		<path style="fill:#F6F1F1;" d="M258.07,0h-3.72C164.961,0,92.497,72.464,92.497,161.852v29.038h327.425v-29.038
			C419.922,72.464,347.458,0,258.07,0z"/>
		<path style="fill:#D0E2E7;" d="M254.35,0c-42.05,0-76.14,72.46-76.14,161.85v29.04h-86.7v-29.04C91.509,72.46,163.969,0,253.36,0
			H254.35z"/>
		<rect x="222.946" style="fill:#FFBB16;" width="66.528" height="146.903"/>
		<path style="fill:#FFBB16;" d="M412.465,221.424H99.955c-14.844,0-26.878-12.034-26.878-26.878v-34.324
			c0-14.844,12.034-26.878,26.878-26.878h312.51c14.844,0,26.878,12.034,26.878,26.878v34.324
			C439.342,209.39,427.309,221.424,412.465,221.424z"/>
		<path style="fill:#FF931F;" d="M191.377,221.416h-91.43c-14.84,0-26.87-12.03-26.87-26.87v-34.33c0-14.84,12.03-26.88,26.87-26.88
			h91.43c-14.85,0-26.88,12.04-26.88,26.88v34.33C164.497,209.386,176.527,221.416,191.377,221.416z"/>
		<g>
			<path style="fill:#EA7F13;" d="M140.116,167.144h-0.343c-5.46,0-9.887-4.426-9.887-9.887v0c0-5.332-4.024-9.987-9.344-10.332
				c-5.83-0.377-10.677,4.24-10.677,9.989v0.343c0,5.46-4.426,9.887-9.887,9.887h-0.343c-5.529,0-10.011,4.482-10.011,10.011v0
				c0,5.529,4.482,10.011,10.011,10.011h0.343c5.46,0,9.887,4.426,9.887,9.887v0c0,5.332,4.024,9.987,9.344,10.332
				c5.83,0.377,10.677-4.24,10.677-9.989v-0.343c0-5.46,4.426-9.887,9.887-9.887h0.343c5.529,0,10.011-4.482,10.011-10.011v0
				C150.126,171.626,145.644,167.144,140.116,167.144z"/>
			<path style="fill:#FF931F;" d="M231.005,167.144h-0.343c-5.46,0-9.887-4.426-9.887-9.887v0c0-5.332-4.024-9.987-9.344-10.332
				c-5.83-0.377-10.677,4.24-10.677,9.989v0.343c0,5.46-4.426,9.887-9.887,9.887h-0.343c-5.529,0-10.011,4.482-10.011,10.011v0
				c0,5.529,4.482,10.011,10.011,10.011h0.343c5.46,0,9.887,4.426,9.887,9.887v0c0,5.332,4.024,9.987,9.344,10.332
				c5.83,0.377,10.677-4.24,10.677-9.989v-0.343c0-5.46,4.426-9.887,9.887-9.887h0.343c5.529,0,10.011-4.482,10.011-10.011v0
				C241.016,171.626,236.534,167.144,231.005,167.144z"/>
			<path style="fill:#FF931F;" d="M321.895,167.144h-0.343c-5.46,0-9.887-4.426-9.887-9.887v0c0-5.332-4.024-9.987-9.344-10.332
				c-5.83-0.377-10.677,4.24-10.677,9.989v0.343c0,5.46-4.426,9.887-9.887,9.887h-0.343c-5.529,0-10.011,4.482-10.011,10.011v0
				c0,5.529,4.482,10.011,10.011,10.011h0.343c5.46,0,9.887,4.426,9.887,9.887v0c0,5.332,4.024,9.987,9.344,10.332
				c5.83,0.377,10.677-4.24,10.677-9.989v-0.343c0-5.46,4.426-9.887,9.887-9.887h0.343c5.529,0,10.011-4.482,10.011-10.011v0
				C331.905,171.626,327.423,167.144,321.895,167.144z"/>
			<path style="fill:#FF931F;" d="M412.784,167.144h-0.343c-5.46,0-9.887-4.426-9.887-9.887v0c0-5.332-4.024-9.987-9.344-10.332
				c-5.83-0.377-10.677,4.24-10.677,9.989v0.343c0,5.46-4.426,9.887-9.887,9.887h-0.343c-5.529,0-10.011,4.482-10.011,10.011v0
				c0,5.529,4.482,10.011,10.011,10.011h0.343c5.46,0,9.887,4.426,9.887,9.887v0c0,5.332,4.024,9.987,9.344,10.332
				c5.83,0.377,10.677-4.24,10.677-9.989v-0.343c0-5.46,4.426-9.887,9.887-9.887h0.343c5.529,0,10.011-4.482,10.011-10.011v0
				C422.795,171.626,418.313,167.144,412.784,167.144z"/>
		</g>
		<g>
			<path style="fill:#B2AEA8;" d="M161.11,73.902c0,11.02-3.61,21.71-10.16,30.44c-4.44,5.92-10.23,10.94-17.17,14.55
				c-50.54-12.95-75.81-107.59-50.54-117.78c3.86-1.56,7.29-1.4,10.48-0.01c17.12,7.41,27.41,50.05,59.98,53.01
				c2.23,0.2,4.13,1.72,4.83,3.85C160.28,63.232,161.11,68.602,161.11,73.902z"/>
			<path style="fill:#B2AEA8;" d="M378.64,118.892c-15.24-7.92-24.95-22.65-26.94-38.79c-0.26-2.05-0.39-4.12-0.39-6.2
				c0-5.3,0.83-10.67,2.58-15.94c0.7-2.13,2.6-3.65,4.83-3.85c38.64-3.51,45.93-62.89,70.46-53c2.21,0.89,4.03,2.42,5.47,4.49
				c0.23,0.31,0.44,0.63,0.64,0.97c0.03,0.05,0.06,0.09,0.08,0.14C449.02,29.812,424.01,107.262,378.64,118.892z"/>
			<path style="fill:#96928D;" d="M150.95,104.342c-4.44,5.92-10.23,10.94-17.17,14.55c-50.54-12.95-75.81-107.59-50.54-117.78
				c3.86-1.56,7.29-1.4,10.48-0.01C73.87-3.168,94.72,84.172,150.95,104.342z"/>
			<path style="fill:#96928D;" d="M434.65,5.602c-6.43-7.04-19.16,54.65-42.11,66.16c-13.58,6.82-29.6,8.31-40.84,8.34
				c-0.26-2.05-0.39-4.12-0.39-6.2c0-5.3,0.83-10.67,2.58-15.94c0.7-2.13,2.6-3.65,4.83-3.85c38.64-3.51,45.93-62.89,70.46-53
				C431.39,2.002,433.21,3.532,434.65,5.602z"/>
		</g>
	</g>
</g>
<g>
</g>
<g>
</g>
<g>
</g>
<g>
</g>
<g>
</g>
<g>
</g>
<g>
</g>
<g>
</g>
<g>
</g>
<g>
</g>
<g>
</g>
<g>
</g>
<g>
</g>
<g>
</g>
<g>
</g>
</svg>
