<svg id="Capa_1" enable-background="new 0 0 512 512" height="512" viewBox="0 0 512 512" width="512" xmlns="http://www.w3.org/2000/svg"><g><g><path d="m512 256.356c-.118 86.454-43.09 162.867-108.82 209.124l-.03.01c-96.211 30.262-199.435 29.971-295.475-.832l-.025-.008h-.01c-65.15-46.41-107.64-122.57-107.64-208.65 0-141.38 114.619-256 255.999-256 141.173 0 256.193 115.183 256.001 256.356z" fill="#65b2fe"/><path d="m512 256c0 86.59-43 163.15-108.82 209.48h-.01l-.045.014c-96.208 30.259-199.429 29.968-295.465-.834l-.02-.01c-65.15-46.41-107.64-122.58-107.64-208.65 0-46.22 12.25-89.57 33.68-127 44.12 77.07 127.16 129 222.32 129s178.21-51.93 222.32-129c21.43 37.43 33.68 80.78 33.68 127z" fill="#159de4"/></g><g><g><path d="m451.372 282.673-17.139 17.023c-7.813 7.76-18.728 11.549-29.67 10.3l-11.384-1.302-1.223-11.391c-1.175-10.95 2.688-21.84 10.501-29.6l17.139-17.023c2.952-2.932 7.982-1.146 8.426 2.989l1.979 18.451 18.439 2.106c4.131.472 5.883 5.515 2.932 8.447z" fill="#ffe400"/><path d="m451.372 282.673-17.139 17.023c-7.813 7.76-18.728 11.549-29.67 10.3l-11.384-1.302 36.822-36.573 18.439 2.106c4.131.471 5.883 5.514 2.932 8.446z" fill="#ffc300"/><path d="m422.367 288.417-105.6 104.887c-2.424 2.407-6.337 2.392-8.743-.03s-2.394-6.336.03-8.743l105.6-104.887c2.422-2.406 6.337-2.392 8.743.03 1.203 1.211 1.803 2.795 1.796 4.378-.008 1.582-.615 3.162-1.826 4.365z" fill="#c55732"/><path d="m422.367 288.417-105.6 104.887c-2.424 2.407-6.337 2.392-8.743-.03l114.372-113.6c1.203 1.211 1.803 2.795 1.796 4.378-.007 1.582-.614 3.162-1.825 4.365z" fill="#a63917"/></g><g><path d="m496 283.972-17.139 17.023c-7.813 7.76-18.729 11.549-29.67 10.3l-11.384-1.302-1.223-11.391c-1.175-10.95 2.688-21.84 10.501-29.6l17.139-17.023c2.952-2.932 7.982-1.145 8.426 2.989l1.979 18.451 18.439 2.106c4.132.473 5.884 5.516 2.932 8.447z" fill="#ffe400"/><path d="m496 283.972-17.139 17.023c-7.813 7.76-18.729 11.549-29.67 10.3l-11.384-1.302 36.822-36.573 18.439 2.106c4.132.472 5.884 5.515 2.932 8.446z" fill="#ffc300"/><path d="m466.995 289.717-105.6 104.887c-2.424 2.407-6.337 2.392-8.743-.03s-2.394-6.336.03-8.743l105.6-104.887c2.422-2.405 6.337-2.392 8.743.03 1.203 1.211 1.803 2.795 1.796 4.378-.008 1.582-.615 3.162-1.826 4.365z" fill="#c55732"/><path d="m466.995 289.717-105.6 104.887c-2.424 2.407-6.337 2.392-8.743-.03l114.372-113.6c1.203 1.211 1.803 2.795 1.796 4.378-.007 1.582-.614 3.162-1.825 4.365z" fill="#a63917"/></g><g><path d="m497.317 335.034-17.139 17.023c-7.813 7.76-18.728 11.549-29.67 10.3l-11.384-1.302-1.223-11.391c-1.175-10.95 2.688-21.84 10.501-29.6l17.139-17.023c2.952-2.932 7.982-1.146 8.426 2.989l1.979 18.451 18.439 2.106c4.132.472 5.884 5.515 2.932 8.447z" fill="#ffe400"/><path d="m497.317 335.034-17.139 17.023c-7.813 7.76-18.728 11.549-29.67 10.3l-11.384-1.302 36.822-36.573 18.439 2.106c4.132.471 5.884 5.514 2.932 8.446z" fill="#ffc300"/><path d="m468.312 340.778-105.6 104.887c-2.424 2.407-6.337 2.392-8.743-.03s-2.394-6.336.03-8.743l105.6-104.887c2.422-2.406 6.337-2.392 8.743.03 1.203 1.211 1.803 2.795 1.795 4.378-.007 1.582-.614 3.162-1.825 4.365z" fill="#c55732"/><path d="m468.312 340.778-105.6 104.887c-2.424 2.407-6.337 2.392-8.743-.03l114.372-113.6c1.203 1.211 1.803 2.795 1.795 4.378-.006 1.582-.613 3.162-1.824 4.365z" fill="#a63917"/></g><g><path d="m451.66 382.33-131.55 121.57h-.01c-19.58 5.06-40.07 7.85-61.18 8.08h-.01l-42-42.29 156.06-166.59z" fill="#f79f63"/><path d="m451.66 382.33-131.55 121.57h-.01c-19.58 5.06-40.07 7.85-61.18 8.08h-.01l-24.46-24.62 159.09-163.55z" fill="#f4863d"/><path d="m451.66 382.33-131.56 121.57c-19.58 5.06-40.07 7.85-61.18 8.08l-8.46-8.51 161.86-160.76z" fill="#c55732"/></g><path d="m403.18 465.48c-41.64 29.31-92.4 46.52-147.18 46.52h-.73c-55.02-.16-105.96-17.67-147.63-47.35 5.39-34.92 22.85-65.84 47.99-88.36.22-.21.45-.41.67-.61l.15-.12c3.78-3.34 7.73-6.49 11.83-9.43.67-.48 1.34-.96 2.02-1.43.32-.22.64-.45.96-.65 3.25-2.22 6.59-4.32 10.02-6.28 3.12-1.79 6.32-3.47 9.58-5.03 8.51-4.07 17.45-7.37 26.75-9.78 12.21-3.18 25.03-4.85 38.25-4.81 23.28.08 45.29 5.47 64.9 15.03 3.25 1.58 6.43 3.28 9.54 5.1 11.42 6.62 21.86 14.71 31.1 24.01 21.93 22.09 37 50.96 41.78 83.19z" fill="#b6e337"/><path d="m403.18 465.48c-41.64 29.31-92.4 46.52-147.18 46.52h-.73l.59-173.85c23.28.08 45.29 5.47 64.9 15.03 15.17 7.39 28.88 17.27 40.64 29.11 21.93 22.09 37 50.96 41.78 83.19z" fill="#6cdc2d"/><path d="m330.304 358.284-74.753 71.487-74.277-72.002c3.126-1.789 6.322-3.469 9.587-5.028 8.504-4.071 17.445-7.371 26.743-9.779 12.211-3.179 25.037-4.855 38.257-4.811 23.28.079 45.292 5.473 64.9 15.03 3.245 1.581 6.429 3.282 9.543 5.103z" fill="#fff"/><path d="m330.304 358.284-74.753 71.487.31-91.62c23.28.079 45.292 5.473 64.9 15.03 3.245 1.581 6.429 3.282 9.543 5.103z" fill="#d1f6ff"/><g><path d="m294.222 311.579-.165 48.755c-.069 20.445-16.04 37.688-36.472 38.436-.637.023-1.276.034-1.918.032h-.011c-.632-.002-1.262-.017-1.891-.044-20.428-.875-36.284-18.235-36.215-38.682l.165-48.756z" fill="#6cdc2d"/><path d="m294.222 311.579-.165 48.755c-.069 20.445-16.04 37.688-36.472 38.436-.637.023-1.276.034-1.918.032l.296-87.352z" fill="#53af17"/></g><path d="m351.68 493.52c-8.03 3.23-16.25 6.08-24.66 8.49l-71.55-47.45-115.59-76.65c-6.06-4.02-6.2-12.87-.27-17.07l.01-.01c3.49-2.48 8.14-2.54 11.71-.18l104.22 69.12z" fill="#c55732"/><path d="m351.68 493.52c-8.03 3.23-16.25 6.08-24.66 8.49l-71.55-47.45.08-24.79z" fill="#a63917"/><path d="m351.868 162.226-190.819-.646c8.766-48.931 44.997-90.718 95.8-115.136 50.637 24.761 86.585 66.793 95.019 115.782z" fill="#b6e337"/><path d="m351.868 162.226-95.409-.323.391-115.459c50.636 24.761 86.584 66.793 95.018 115.782z" fill="#6cdc2d"/><path d="m355.771 128.869c-16.721 26.884-39.698 46.576-63.864 57.104-1.241-26.334 6.258-55.649 22.98-82.533 16.731-26.884 39.708-46.566 63.874-57.094 1.23 26.324-6.269 55.639-22.99 82.523z" fill="#fe3345"/><path d="m355.771 128.869c-16.721 26.884-39.698 46.576-63.864 57.104l86.853-139.627c1.231 26.324-6.268 55.639-22.989 82.523z" fill="#de1263"/><g><g><g><g><g><g><g><g><g><g><g><g><g><g><g><g><g><g><g><g><g><path d="m139.57 196.345c-14.362-.049-26.044 11.555-26.093 25.917-.089 26.16 21.046 47.438 47.205 47.526l.249-73.427z" fill="#ffa87a"/><path d="m373.111 197.135c14.362.049 25.965 11.731 25.917 26.093-.089 26.16-21.367 47.294-47.526 47.205l.249-73.427z" fill="#e3835a"/></g><g><g><path d="m358.099 170.622-.267 78.909c-.19 56.11-45.839 101.482-101.981 101.303h-.021c-56.131-.19-101.482-45.85-101.292-101.981l.267-78.92z" fill="#ffc0a4"/></g><path d="m358.099 170.622-.267 78.909c-.19 56.11-45.839 101.482-101.981 101.303l.611-180.556z" fill="#ffa87a"/></g></g></g></g></g></g></g></g></g></g></g></g></g></g></g></g></g></g><g><g fill="#323b5a"><ellipse cx="224.261" cy="253.953" rx="12.514" ry="12.514" transform="matrix(.945 -.328 .328 .945 -70.911 87.644)"/><path d="m300.546 254.212c-.023 6.911-5.645 12.495-12.556 12.471-6.911-.023-12.495-5.645-12.471-12.556.023-6.911 5.645-12.495 12.556-12.472s12.494 5.645 12.471 12.557z"/></g><path d="m285.907 305.112c8.845.03 13.519 10.659 7.414 17.059-3.826 4.011-8.291 7.403-13.23 10.014-7.225 3.839-15.473 5.993-24.228 5.964-8.755-.03-16.988-2.24-24.187-6.128-4.922-2.644-9.364-6.066-13.162-10.103-6.062-6.442-1.316-17.038 7.529-17.008z" fill="#323b5a"/><path d="m280.09 332.185c-7.225 3.839-15.473 5.993-24.228 5.964-8.755-.03-16.988-2.24-24.187-6.128 6.043-6.502 14.673-10.562 24.243-10.529 9.57.032 18.173 4.151 24.172 10.693z" fill="#e32644"/></g><path d="m256.045 283.848c-4.265-.014-7.711-3.484-7.696-7.749l.112-33.155c.014-4.265 3.484-7.711 7.749-7.696 4.266.014 7.711 3.484 7.697 7.749l-.112 33.155c-.015 4.265-3.484 7.71-7.75 7.696z" fill="#e3835a"/><g fill="#a63917"><g><path d="m241.949 228.963c-2.877-6.867-9.65-11.701-17.564-11.727-7.913-.027-14.719 4.761-17.643 11.608z"/><path d="m305.72 229.179c-2.877-6.867-9.65-11.701-17.564-11.727-7.913-.027-14.719 4.761-17.643 11.608z"/></g><g><path d="m193.389 170.064c-.036 10.609-4.285 20.77-11.812 28.247l-6.265 6.223c-.034 10.145-8.287 18.342-18.432 18.308l-2.255-.008.179-52.9z"/><path d="m358.099 170.622-.179 52.9-2.297-.008c-10.145-.034-18.342-8.287-18.308-18.432l-6.223-6.265c-7.477-7.527-11.657-17.716-11.621-28.326z"/></g></g></g><path d="m280.076 332.189c-7.222 3.837-15.464 5.99-24.213 5.96l.056-16.657c9.566.032 18.16 4.156 24.157 10.697z" fill="#bc0e5c"/></g></g><path d="m368.16 197.101-223.639-.757 9.123-42.149c2.327-10.762 13.169-17.395 23.81-14.57l79.009 21.028.03.01 79.12-20.492c10.659-2.764 21.457 3.943 23.71 14.72z" fill="#fff"/><path d="m368.16 197.101-111.819-.379.122-36.07.03.01 79.12-20.492c10.659-2.764 21.457 3.943 23.71 14.72z" fill="#d1f6ff"/></g></g></svg>