<svg height="512pt" viewBox="0 0 512 512" width="512pt" xmlns="http://www.w3.org/2000/svg"><path d="m512 256c0 141.386719-114.613281 256-256 256s-256-114.613281-256-256 114.613281-256 256-256 256 114.613281 256 256zm0 0" fill="#ffe955"/><path d="m512 256c0 141.378906-114.621094 256-256 256s-256-114.621094-256-256c0-46.21875 12.25-89.570312 33.679688-127 44.121093 77.070312 127.160156 129 222.320312 129s178.210938-51.929688 222.320312-129c21.429688 37.429688 33.679688 80.78125 33.679688 127zm0 0" fill="#ffd112"/><path d="m481.261719 377.699219v.011719c-43.292969 79.96875-127.941407 134.289062-225.261719 134.289062s-181.96875-54.320312-225.261719-134.289062v-.011719zm0 0" fill="#ff9f00"/><path d="m373.453125 313.226562v126.664063l-36.09375-51.125c-1.128906-1.601563-2.234375-3.226563-3.289063-4.863281-14.75-22.851563-22.632812-49.5-22.632812-76.753906v-120.828126l10.722656 15.574219 12.746094 18.507813 17.613281 25.558594c13.632813 19.78125 20.933594 43.238281 20.933594 67.265624zm0 0" fill="#545d7a"/><path d="m123.507812 359.042969c0-43.242188 19.5625-84.164063 53.222657-111.316407l35.109375-28.320312c0 43.246094-19.566406 84.167969-53.226563 111.316406zm0 0" fill="#545d7a"/><path d="m346.609375 300.761719c0 28.949219-4.390625 56.867187-12.539063 83.136719-7.058593 22.742187-16.929687 44.25-29.21875 64.089843-11.671874 18.863281-16.042968 40.652344-13.441406 61.582031-10.398437 1.441407-21 2.25-31.761718 2.398438-1.21875.019531-2.429688.03125-3.648438.03125-9.789062 0-19.460938-.550781-28.96875-1.621094 2.808594-21.167968-1.519531-43.289062-13.339844-62.390625-23.640625-38.199219-38.351562-82.519531-41.210937-130.039062-.371094-5.679688-.539063-11.417969-.539063-17.1875 0-18.210938 1.738282-36 5.046875-53.242188 3.261719-16.929687 8.042969-33.308593 14.203125-49.019531 6.160156-15.730469 13.71875-30.761719 22.5-44.960938 9.148438-14.789062 19.628906-28.648437 31.277344-41.449218 2.679688-2.949219 5.441406-5.828125 8.25-8.660156.042969-.050782.070312-.078126.121094-.128907.050781-.050781.101562-.101562.148437-.152343 1.453125-1.449219 3.890625.050781 3.230469 2.023437l-14.660156 44.167969 17.589844-23.589844 8.652343-11.601562c.210938-.289063.46875-.546876.738281-.769532.261719-.230468.550782-.410156.871094-.558594 1.578125-.761718 3.53125-.558593 4.898438.679688.121094.101562.242187.21875.351562.339844v.011718c.019532.019532.050782.046876.070313.070313 1.179687 1.328125 2.339843 2.648437 3.5 3.988281 20.488281 23.78125 37.050781 51.019532 48.679687 80.730469v.019531c2.789063 7.101563 5.289063 14.359375 7.5 21.738282 7.621094 25.453124 11.699219 52.429687 11.699219 80.363281zm0 0" fill="#d0f6ff"/><path d="m213.691406 153.535156v294.457032c-23.640625-38.207032-38.351562-82.523438-41.214844-130.046876-.363281-5.675781-.535156-11.414062-.535156-17.1875 0-18.203124 1.734375-35.996093 5.046875-53.234374 3.265625-16.929688 8.042969-33.316407 14.203125-49.023438 6.160156-15.730469 13.71875-30.761719 22.5-44.964844zm0 0" fill="#fff"/><path d="m346.609375 300.761719c0 28.949219-4.390625 56.867187-12.539063 83.136719-7.058593 22.742187-16.929687 44.25-29.21875 64.089843-11.671874 18.863281-16.042968 40.652344-13.441406 61.582031-10.398437 1.441407-21 2.25-31.761718 2.398438v-386.21875l8.652343-11.601562c.210938-.289063.46875-.546876.738281-.769532.261719-.230468.550782-.410156.871094-.558594 1.578125-.761718 3.53125-.558593 4.898438.679688.121094.101562.242187.21875.351562.339844v.011718c.019532.019532.050782.046876.070313.070313 1.179687 1.328125 2.339843 2.648437 3.5 3.988281 20.488281 23.78125 37.050781 51.019532 48.679687 80.730469v.019531c2.789063 7.101563 5.289063 14.359375 7.5 21.738282 7.621094 25.453124 11.699219 52.429687 11.699219 80.363281zm0 0" fill="#8fc9f7"/><path d="m327.421875 198.640625v.019531c-1.730469 1.109375-3.472656 2.191406-5.261719 3.230469-3.460937 2.019531-7.039062 3.890625-10.71875 5.558594-15.351562 7.0625-32.390625 11.089843-50.351562 11.320312-.480469.019531-.949219.019531-1.441406.019531h-.226563c-25.183594 0-48.613281-7.460937-68.222656-20.289062 12.589843-32.121094 30.941406-61.339844 53.78125-86.410156 2.679687-2.949219 5.429687-5.828125 8.238281-8.660156.042969-.050782.082031-.078126.121094-.128907l.148437-.152343c1.460938-1.449219 3.890625.050781 3.242188 2.023437l-14.671875 44.167969 17.363281-23.28125.226563-.308594 1.441406-1.941406 7.210937-9.660156c.21875-.289063.46875-.546876.738281-.769532.269532-.230468.5625-.410156.871094-.558594 1.578125-.761718 3.53125-.558593 4.898438.679688.121094.101562.25.21875.351562.339844v.011718c.03125.019532.050782.046876.078125.070313 1.171875 1.328125 2.339844 2.648437 3.492188 3.988281 20.5 23.78125 37.050781 51.019532 48.691406 80.730469zm0 0" fill="#8a97a0"/><path d="m327.421875 198.640625v.019531c-1.730469 1.109375-3.472656 2.191406-5.261719 3.230469-3.460937 2.019531-7.039062 3.890625-10.71875 5.558594-15.351562 7.0625-32.390625 11.089843-50.351562 11.320312-.480469.019531-.949219.019531-1.441406.019531h-.226563v-92.730468l.226563-.308594 1.441406-1.941406 7.210937-9.660156c.21875-.289063.46875-.546876.738281-.769532.269532-.230468.5625-.410156.871094-.558594 1.578125-.761718 3.53125-.558593 4.898438.679688.121094.101562.25.21875.351562.339844v.011718c.03125.019532.050782.046876.078125.070313 1.171875 1.328125 2.339844 2.648437 3.492188 3.988281 20.5 23.78125 37.050781 51.019532 48.691406 80.730469zm0 0" fill="#545d7a"/><path d="m291.410156 509.570312c-10.398437 1.441407-21 2.25-31.761718 2.398438-1.21875.019531-2.429688.03125-3.648438.03125-9.789062 0-19.460938-.550781-28.96875-1.621094 2.808594-21.167968-1.519531-43.289062-13.339844-62.390625l45.730469 61.8125.226563-.3125 45.203124-61.5c-11.671874 18.863281-16.042968 40.652344-13.441406 61.582031zm0 0" fill="#e0e1e2"/><path d="m291.410156 509.570312c-10.398437 1.441407-21 2.25-31.761718 2.398438v-2.480469l45.203124-61.5c-11.671874 18.863281-16.042968 40.652344-13.441406 61.582031zm0 0" fill="#8a97a0"/><path d="m274.734375 121.335938-15.085937 12.929687-17.589844 15.074219 17.589844-23.589844 8.648437-11.597656c.214844-.289063.472656-.554688.738281-.773438s.558594-.414062.871094-.558594c1.578125-.765624 3.53125-.558593 4.902344.679688.121094.109375.242187.230469.351562.351562.023438.023438.050782.046876.074219.074219 1.941406 2.167969 1.710937 5.515625-.5 7.410157zm0 0" fill="#545d7a"/><path d="m242.058594 149.34375 2.023437-25.902344c.59375-7.597656 3.882813-14.730468 9.257813-20.136718.046875-.050782.09375-.097657.144531-.148438 1.453125-1.460938 3.894531.046875 3.242187 2.003906zm0 0" fill="#545d7a"/><path d="m298.664062 160.050781c0 8.933594-7.238281 16.171875-16.171874 16.171875-8.929688 0-16.171876-7.238281-16.171876-16.171875 0-8.929687 7.242188-16.171875 16.171876-16.171875 8.933593 0 16.171874 7.242188 16.171874 16.171875zm0 0" fill="#fff"/><path d="m292.027344 160.050781c0 5.265625-4.269532 9.535157-9.535156 9.535157-5.265626 0-9.535157-4.269532-9.535157-9.535157s4.269531-9.535156 9.535157-9.535156c5.265624 0 9.535156 4.269531 9.535156 9.535156zm0 0" fill="#323b5a"/></svg>