<svg height="512pt" viewBox="0 0 512 512" width="512pt" xmlns="http://www.w3.org/2000/svg"><path d="m512 256c0 141.386719-114.613281 256-256 256s-256-114.613281-256-256 114.613281-256 256-256 256 114.613281 256 256zm0 0" fill="#b5e237"/><path d="m512 256c0 141.378906-114.621094 256-256 256s-256-114.621094-256-256c0-46.21875 12.25-89.570312 33.679688-127 44.121093 77.070312 127.160156 129 222.320312 129s178.210938-51.929688 222.320312-129c21.429688 37.429688 33.679688 80.78125 33.679688 127zm0 0" fill="#95d600"/><path d="m481.261719 377.699219v.011719c-43.292969 79.96875-127.941407 134.289062-225.261719 134.289062s-181.96875-54.320312-225.261719-134.289062v-.011719zm0 0" fill="#85af12"/><path d="m375.828125 482.269531c-35.75 18.980469-76.527344 29.730469-119.828125 29.730469s-84.078125-10.75-119.828125-29.730469c13.296875-53.820312 61.898437-93.710937 119.828125-93.710937s106.53125 39.890625 119.828125 93.710937zm0 0" fill="#a63914"/><path d="m375.828125 482.269531c-35.75 18.980469-76.527344 29.730469-119.828125 29.730469v-123.441406c57.929688 0 106.53125 39.890625 119.828125 93.710937zm0 0" fill="#82240b"/><path d="m482.125 279.820312c0 45.1875-36.632812 81.816407-81.820312 81.816407v-83.441407c0-52.832031 79.039062-55.347656 81.710937-2.585937.074219 1.394531.109375 2.796875.109375 4.210937zm0 0" fill="#e3835a"/><path d="m440.996094 258.738281c-3.214844.078125-19.242188 1.402344-19.242188 19.457031v58.058594c22.730469-8.667968 38.921875-30.695312 38.921875-56.433594 0-1.042968-.023437-2.089843-.078125-3.125-.832031-16.417968-14.089844-17.964843-19.027344-17.964843-.207031 0-.398437 0-.574218.007812zm0 0" fill="#c55835"/><path d="m400.875 282.730469v66.726562c0 79.84375-64.730469 81.023438-144.570312 81.023438h-.304688c-79.703125 0-144.269531-1.277344-144.269531-81.023438v-66.726562c0-79.742188 64.566406-144.40625 144.269531-144.570313h.304688c79.839843 0 144.570312 64.726563 144.570312 144.570313zm0 0" fill="#c55835"/><path d="m400.875 282.730469v66.726562c0 79.84375-64.730469 81.023438-144.570312 81.023438h-.304688v-292.320313h.304688c79.839843 0 144.570312 64.726563 144.570312 144.570313zm0 0" fill="#a63914"/><path d="m318.304688 325.769531c3.144531 7.761719 4.878906 16.238281 4.878906 25.121094 0 36.9375-29.945313 66.882813-66.878906 66.882813-.101563 0-.207032 0-.304688-.007813-36.796875-.15625-66.578125-30.035156-66.578125-66.875 0-8.882813 1.734375-17.359375 4.878906-25.121094-29.574219-6.910156-51.59375-33.441406-51.59375-65.121093 0-36.9375 29.945313-66.882813 66.882813-66.882813 18.027344 0 34.390625 7.132813 46.410156 18.738281.105469.089844.203125.1875.304688.285156 12.050781-11.765624 28.535156-19.019531 46.710937-19.019531 36.9375 0 66.882813 29.941407 66.882813 66.878907 0 31.679687-22.027344 58.210937-51.59375 65.121093zm0 0" fill="#ffc0a4"/><path d="m318.304688 325.769531c3.144531 7.761719 4.878906 16.238281 4.878906 25.121094 0 36.9375-29.945313 66.882813-66.878906 66.882813-.101563 0-.207032 0-.304688-.007813v-205.265625c.105469.089844.203125.1875.304688.289062 12.050781-11.765624 28.535156-19.023437 46.710937-19.023437 36.9375 0 66.882813 29.945313 66.882813 66.882813 0 31.679687-22.027344 58.210937-51.59375 65.121093zm0 0" fill="#ffa87a"/><path d="m323.339844 350.734375c0 37.027344-30.019532 67.039063-67.035156 67.039063-.101563 0-.207032 0-.304688-.007813-36.886719-.15625-66.734375-30.101563-66.734375-67.03125 0-5.363281.621094-10.578125 1.820313-15.574219 7-29.410156 33.382812-33.339844 64.914062-33.367187h.304688c31.65625 0 58.199218 3.859375 65.21875 33.367187 1.195312 4.996094 1.816406 10.210938 1.816406 15.574219zm0 0" fill="#ffa87a"/><path d="m323.339844 350.734375c0 37.027344-30.019532 67.039063-67.035156 67.039063-.101563 0-.207032 0-.304688-.007813v-115.972656h.304688c31.65625 0 58.199218 3.859375 65.21875 33.367187 1.195312 4.996094 1.816406 10.210938 1.816406 15.574219zm0 0" fill="#e3835a"/><path d="m249.105469 322.582031c0-5.921875-4.800781-10.722656-10.722657-10.722656-5.921874 0-10.722656 4.800781-10.722656 10.722656s4.800782 10.722657 10.722656 10.722657h10.722657zm0 0" fill="#c55835"/><path d="m263.496094 322.582031c0-5.921875 4.800781-10.722656 10.722656-10.722656s10.722656 4.800781 10.722656 10.722656-4.800781 10.722657-10.722656 10.722657h-10.722656zm0 0" fill="#a63914"/><path d="m301.820312 374.433594c0 3.394531-2.742187 6.140625-6.140624 6.140625h-79.359376c-3.398437 0-6.140624-2.746094-6.140624-6.140625 0-3.390625 2.742187-6.144532 6.140624-6.144532h33.539063v-18.699218c0-3.390625 2.75-6.140625 6.140625-6.140625s6.140625 2.75 6.140625 6.140625v18.699218h33.539063c3.398437 0 6.140624 2.753907 6.140624 6.144532zm0 0" fill="#c55835"/><path d="m301.820312 374.433594c0 3.394531-2.742187 6.140625-6.140624 6.140625h-39.679688v-37.125c3.390625 0 6.140625 2.75 6.140625 6.140625v18.699218h33.539063c3.398437 0 6.140624 2.753907 6.140624 6.144532zm0 0" fill="#a63914"/><path d="m236.863281 279.671875c0 7.960937-6.457031 14.417969-14.417969 14.417969-7.960937 0-14.414062-6.457032-14.414062-14.417969s6.453125-14.414063 14.414062-14.414063c7.960938 0 14.417969 6.453126 14.417969 14.414063zm0 0" fill="#20273a"/><path d="m304.574219 279.671875c0 7.960937-6.457031 14.417969-14.417969 14.417969s-14.414062-6.457032-14.414062-14.417969 6.453124-14.414063 14.414062-14.414063 14.417969 6.453126 14.417969 14.414063zm0 0" fill="#20273a"/><path d="m339.117188 260.492188c0 4.519531-3.65625 8.1875-8.1875 8.1875h-151.449219c-4.527344 0-8.1875-3.667969-8.1875-8.1875 0-4.527344 3.660156-8.1875 8.1875-8.1875h151.449219c4.53125 0 8.1875 3.660156 8.1875 8.1875zm0 0" fill="#e3835a"/><path d="m307.882812 235.066406c0 4.53125-3.667968 8.191406-8.191406 8.191406h-88.972656c-4.519531 0-8.1875-3.660156-8.1875-8.191406 0-4.519531 3.667969-8.1875 8.1875-8.1875h88.972656c4.519532 0 8.191406 3.667969 8.191406 8.1875zm0 0" fill="#e3835a"/><path d="m299.691406 243.257812h-43.691406v-16.378906h43.691406c4.519532 0 8.1875 3.667969 8.1875 8.1875.003906 4.53125-3.667968 8.191406-8.1875 8.191406zm0 0" fill="#c55835"/><path d="m339.117188 260.492188c0 4.519531-3.65625 8.1875-8.1875 8.1875h-74.929688v-16.375h74.929688c4.53125 0 8.1875 3.660156 8.1875 8.1875zm0 0" fill="#c55835"/><path d="m29.875 279.820312c0 45.1875 36.632812 81.816407 81.820312 81.816407v-83.441407c0-52.832031-79.039062-55.347656-81.710937-2.585937-.074219 1.394531-.109375 2.796875-.109375 4.210937zm0 0" fill="#ffa87a"/><path d="m70.429688 258.730469c-4.9375 0-18.195313 1.546875-19.027344 17.964843-.054688 1.035157-.078125 2.082032-.078125 3.125 0 25.738282 16.191406 47.765626 38.921875 56.433594v-58.058594c0-18.058593-16.03125-19.378906-19.242188-19.457031-.175781-.007812-.367187-.007812-.574218-.007812zm0 0" fill="#e3835a"/></svg>