<svg height="512pt" viewBox="0 0 512 512" width="512pt" xmlns="http://www.w3.org/2000/svg"><path d="m512 256c0 141.386719-114.613281 256-256 256s-256-114.613281-256-256 114.613281-256 256-256 256 114.613281 256 256zm0 0" fill="#ffe955"/><path d="m512 256c0 141.378906-114.621094 256-256 256s-256-114.621094-256-256c0-46.21875 12.25-89.570312 33.679688-127 44.121093 77.070312 127.160156 129 222.320312 129s178.210938-51.929688 222.320312-129c21.429688 37.429688 33.679688 80.78125 33.679688 127zm0 0" fill="#ffd112"/><path d="m481.261719 377.699219v.011719c-43.292969 79.96875-127.941407 134.289062-225.261719 134.289062s-181.96875-54.320312-225.261719-134.289062v-.011719zm0 0" fill="#ff9f00"/><path d="m420.371094 452.261719c-44.082032 36.957031-100.792969 59.339843-162.710938 59.726562-.550781.011719-1.109375.011719-1.660156.011719-62.828125 0-120.378906-22.640625-164.929688-60.210938l49.589844-24.867187.058594-.042969 32.929688-16.507812h165.160156l32.660156 16.777344.332031.160156zm0 0" fill="#313b5a"/><path d="m420.371094 452.261719c-44.082032 36.957031-100.792969 59.339843-162.710938 59.726562h-1.429687v-101.617187h82.578125l32.660156 16.777344.332031.160156zm0 0" fill="#20273a"/><path d="m377.96875 481.128906c-32.46875 17.632813-69.1875 28.441406-108.21875 30.5h-27.601562c-38.820313-2.070312-75.339844-12.789062-107.679688-30.269531l6.242188-54.410156.007812-.070313 4.152344-36.21875h222.71875l4.160156 36.289063.050781.359375zm0 0" fill="#474f6f"/><path d="m377.96875 481.128906c-32.46875 17.632813-69.1875 28.441406-108.21875 30.5h-13.519531v-120.96875h111.359375l4.160156 36.289063.050781.359375zm0 0" fill="#313b5a"/><path d="m380.09375 410.367188c0 6.792968-3.273438 12.808593-8.339844 16.582031-.089844.066406-.1875.132812-.289062.199219-3.386719 2.433593-7.535156 3.863281-12.015625 3.863281-11.40625 0-20.644531-9.238281-20.644531-20.644531 0 11.40625-9.246094 20.644531-20.644532 20.644531-11.402344 0-20.640625-9.238281-20.640625-20.644531 0 11.40625-9.25 20.644531-20.644531 20.644531-11.40625 0-20.644531-9.238281-20.644531-20.644531 0 11.40625-9.238281 20.644531-20.644531 20.644531-11.394532 0-20.644532-9.238281-20.644532-20.644531 0 11.40625-9.238281 20.644531-20.644531 20.644531-11.394531 0-20.644531-9.238281-20.644531-20.644531 0 11.40625-9.238282 20.644531-20.640625 20.644531-4.613281 0-8.875-1.519531-12.304688-4.0625-.019531-.019531-.03125-.019531-.042969-.03125-5.035156-3.773438-8.296874-9.78125-8.296874-16.550781l25.675781-180.730469c1.449219-10.269531 2.445312-20.578125 3.496093-30.890625 3.21875-31.730469 22.027344-58.847656 48.636719-73.59375 13.640625-7.554688 29.339844-11.859375 46.046875-11.859375h.007813c7.613281 0 15.015625.894531 22.105469 2.589843 38.867187 9.234376 68.484374 42.304688 72.589843 82.90625 1.039063 10.289063 2.023438 20.578126 3.484375 30.824219l25.644532 180.753907zm0 0" fill="#c55835"/><path d="m380.09375 410.367188c0 6.792968-3.273438 12.808593-8.339844 16.582031-.089844.066406-.1875.132812-.289062.199219-3.386719 2.433593-7.535156 3.863281-12.015625 3.863281-11.40625 0-20.644531-9.238281-20.644531-20.644531 0 11.40625-9.246094 20.644531-20.644532 20.644531-11.402344 0-20.640625-9.238281-20.640625-20.644531 0 11.40625-9.25 20.644531-20.644531 20.644531-11.40625 0-20.644531-9.238281-20.644531-20.644531v-297.074219c7.613281 0 15.011719.894531 22.105469 2.589843 38.863281 9.234376 68.480468 42.304688 72.585937 82.90625 1.039063 10.289063 2.023437 20.578126 3.484375 30.824219l25.644531 180.753907zm0 0" fill="#a63914"/><path d="m246.652344 216.007812c0 9.160157-7.425782 16.589844-16.585938 16.589844-9.164062 0-16.589844-7.429687-16.589844-16.589844 0-9.160156 7.425782-16.585937 16.589844-16.585937 9.160156 0 16.585938 7.425781 16.585938 16.585937zm0 0" fill="#390007"/><path d="m302.15625 216.007812c0 9.160157-7.425781 16.589844-16.585938 16.589844-9.160156 0-16.589843-7.429687-16.589843-16.589844 0-9.160156 7.429687-16.585937 16.589843-16.585937 9.160157 0 16.585938 7.425781 16.585938 16.585937zm0 0" fill="#390007"/><path d="m278.6875 123.007812v13.21875c0 13.320313-10.851562 22.503907-22.457031 22.613282h-.210938c-4.679687 0-9.46875-1.46875-13.707031-4.746094-1.804688-1.394531-3.230469-3.171875-4.214844-5.175781-.988281-2.003907-1.519531-4.226563-1.519531-6.507813 0-8.152344-6.601563-14.769531-14.757813-14.769531h-2.464843c-3.351563 0-6.496094-.90625-9.183594-2.488281-1.351563-.785156-2.578125-1.746094-3.671875-2.832032-3.285156-3.285156-5.320312-7.832031-5.320312-12.855468 0-10.046875-8.144532-18.1875-18.191407-18.1875h-1.4375c-5.417969 0-10.320312-2.191406-13.871093-5.742188-3.539063-3.550781-5.742188-8.464844-5.742188-13.875 0-10.828125 8.785156-19.613281 19.613281-19.613281h26.175781c18.765626 0 35.8125 7.28125 48.503907 19.171875 12.203125 11.417969 20.355469 27.105469 22.105469 44.664062.230468 2.34375.351562 4.722657.351562 7.125zm0 0" fill="#ff3445"/><path d="m275.148438 254.265625v49.390625c0 15.566406 18.820312 23.363281 29.828124 12.355469 4.808594-4.808594 6.390626-11.972657 4.054688-18.359375l-11.679688-31.917969c-2.519531-6.886719-9.074218-11.46875-16.40625-11.46875zm0 0" fill="#ff3445"/><path d="m286.675781 264.894531-26.507812 24.835938c-1.105469 1.039062-2.511719 1.558593-3.9375 1.558593-1.417969 0-2.84375-.519531-3.960938-1.558593l-26.507812-24.835938c-4.0625-3.808593-1.375-10.632812 4.203125-10.632812h8.21875c2.667968 0 5.210937-1.128907 6.992187-3.121094l9.105469-10.15625c.519531-.574219 1.226562-.863281 1.945312-.863281s1.417969.289062 1.9375.863281l9.105469 10.15625c1.78125 1.992187 4.324219 3.121094 6.992188 3.121094h8.21875c5.566406 0 8.265625 6.824219 4.195312 10.632812zm0 0" fill="#ffd112"/><path d="m286.675781 264.894531-26.507812 24.835938c-1.105469 1.039062-2.511719 1.558593-3.9375 1.558593v-51.167968c.71875 0 1.414062.289062 1.933593.863281l9.105469 10.15625c1.78125 1.992187 4.328125 3.121094 6.992188 3.121094h8.21875c5.566406 0 8.265625 6.824219 4.195312 10.632812zm0 0" fill="#ed771b"/><path d="m278.6875 123.007812v13.21875c0 13.320313-10.851562 22.503907-22.457031 22.613282v-87.621094c12.203125 11.417969 20.355469 27.105469 22.105469 44.664062.230468 2.34375.351562 4.722657.351562 7.125zm0 0" fill="#dd1265"/></svg>