<svg id="Capa_1" enable-background="new 0 0 512 512" height="512" viewBox="0 0 512 512" width="512" xmlns="http://www.w3.org/2000/svg"><g><g><circle cx="256" cy="256" fill="#b6e337" r="256"/><path d="m512 256c0 87.11-43.52 164.07-110 210.31-41.41 28.8-91.73 45.69-146 45.69s-104.59-16.89-146-45.69c-66.48-46.24-110-123.2-110-210.31 0-46.22 12.25-89.57 33.68-127 44.12 77.07 127.16 129 222.32 129s178.21-51.93 222.32-129c21.43 37.43 33.68 80.78 33.68 127z" fill="#6cdc2d"/></g><g><g><path d="m437.03 437.01c-44.32 44.32-104.81 72.47-171.86 74.82-3.04.12-6.1.17-9.17.17s-6.12-.05-9.17-.17c-67.06-2.36-127.54-30.51-171.86-74.83 5.75-60.45 56.67-107.73 118.63-107.73h124.8c61.96 0 112.88 47.29 118.63 107.74z" fill="#fe3345"/><path d="m437.03 437.01c-46.33 46.33-110.33 74.99-181.03 74.99v-182.73h62.4c61.96 0 112.88 47.29 118.63 107.74z" fill="#de1263"/><g><g><path d="m332.079 349.885h94.07c9.273 9.84 16.988 21.164 22.723 33.586 1.701 3.685-1.031 7.893-5.089 7.893h-73.136c-21.3 0-38.568-17.267-38.568-38.568z" fill="#f4863d"/><path d="m442.438 349.884c0 5.462-2.213 10.407-5.797 13.991-3.573 3.573-8.518 5.786-13.98 5.786h-70.808c-10.925 0-19.777-8.852-19.777-19.777 0-5.462 2.213-10.396 5.786-13.98 3.584-3.573 8.528-5.786 13.991-5.786h70.808c10.925-.001 19.777 8.852 19.777 19.766z" fill="#ffc300"/><path d="m442.438 349.884c0 5.462-2.213 10.407-5.797 13.991-3.573 3.573-8.518 5.786-13.98 5.786h-70.808c-10.925 0-19.777-8.852-19.777-19.777z" fill="#ff9f00"/></g><g><path d="m179.899 349.885h-94.069c-9.253 9.819-16.955 21.116-22.686 33.507-1.72 3.719.955 7.972 5.052 7.972h73.136c21.3 0 38.568-17.267 38.568-38.568v-2.911z" fill="#ff9f00"/><path d="m69.541 349.884c0 5.462 2.213 10.407 5.797 13.991 3.573 3.573 8.518 5.786 13.98 5.786h70.329c10.502 0 19.541-7.991 20.213-18.471.384-5.979-1.888-11.419-5.744-15.287-3.584-3.573-8.529-5.786-13.991-5.786h-70.807c-10.925 0-19.777 8.853-19.777 19.767z" fill="#ffe400"/><path d="m69.541 349.884c0 5.462 2.213 10.407 5.797 13.991 3.573 3.573 8.518 5.786 13.98 5.786h70.808c10.925 0 19.777-8.852 19.777-19.777z" fill="#ffc300"/></g></g><path d="m316.89 455.91c0 5.06-4.11 9.16-9.17 9.16h-42.55v46.76c-3.04.12-6.1.17-9.17.17s-6.12-.05-9.17-.17v-46.76h-42.55c-5.06 0-9.17-4.1-9.17-9.16 0-5.07 4.11-9.17 9.17-9.17h42.55v-31.01h-42.55c-5.06 0-9.17-4.1-9.17-9.17 0-5.06 4.11-9.17 9.17-9.17h42.55v-35.79c0-5.07 4.1-9.17 9.17-9.17s9.17 4.1 9.17 9.17v35.79h42.55c5.06 0 9.17 4.11 9.17 9.17 0 5.07-4.11 9.17-9.17 9.17h-42.55v31.01h42.55c5.06 0 9.17 4.1 9.17 9.17z" fill="#bc0e5c"/><path d="m316.89 455.91c0 5.06-4.11 9.16-9.17 9.16h-42.55v46.76c-3.04.12-6.1.17-9.17.17v-159.57c5.07 0 9.17 4.1 9.17 9.17v35.79h42.55c5.06 0 9.17 4.11 9.17 9.17 0 5.07-4.11 9.17-9.17 9.17h-42.55v31.01h42.55c5.06 0 9.17 4.1 9.17 9.17z" fill="#a50555"/><g><g><ellipse cx="201.752" cy="406.563" fill="#ffe400" rx="18.925" ry="18.925" transform="matrix(.735 -.678 .678 .735 -222.264 244.675)"/><path d="m201.752 387.638v37.85c10.452 0 18.925-8.473 18.925-18.925s-8.473-18.925-18.925-18.925z" fill="#ffc300"/><path d="m210.87 406.558c0 5.041-4.083 9.124-9.112 9.124-5.041 0-9.124-4.083-9.124-9.124 0-5.029 4.083-9.112 9.124-9.112 5.029.001 9.112 4.084 9.112 9.112z" fill="#ffc300"/><path d="m210.87 406.558c0 5.041-4.083 9.124-9.112 9.124v-18.236c5.029.001 9.112 4.084 9.112 9.112z" fill="#ff9f00"/></g><g><ellipse cx="310.248" cy="406.563" fill="#ffe400" rx="18.925" ry="18.925" transform="matrix(.198 -.98 .98 .198 -149.763 630.031)"/><path d="m310.248 387.638v37.85c10.452 0 18.925-8.473 18.925-18.925-.001-10.452-8.473-18.925-18.925-18.925z" fill="#ffc300"/><path d="m319.366 406.558c0 5.041-4.083 9.124-9.112 9.124-5.041 0-9.124-4.083-9.124-9.124 0-5.029 4.083-9.112 9.124-9.112 5.028.001 9.112 4.084 9.112 9.112z" fill="#ffc300"/><path d="m319.366 406.558c0 5.041-4.083 9.124-9.112 9.124v-18.236c5.028.001 9.112 4.084 9.112 9.112z" fill="#ff9f00"/></g></g><g><g><g><ellipse cx="201.752" cy="455.906" fill="#ffe400" rx="18.925" ry="18.925" transform="matrix(.735 -.678 .678 .735 -255.733 257.761)"/><path d="m201.752 436.981v37.85c10.452 0 18.925-8.473 18.925-18.925s-8.473-18.925-18.925-18.925z" fill="#ffc300"/><path d="m210.87 455.901c0 5.041-4.083 9.124-9.112 9.124-5.041 0-9.124-4.083-9.124-9.124 0-5.029 4.083-9.112 9.124-9.112 5.029 0 9.112 4.083 9.112 9.112z" fill="#ffc300"/><path d="m210.87 455.901c0 5.041-4.083 9.124-9.112 9.124v-18.236c5.029 0 9.112 4.083 9.112 9.112z" fill="#ff9f00"/></g><g><ellipse cx="310.248" cy="455.906" fill="#ffe400" rx="18.925" ry="18.925" transform="matrix(.198 -.98 .98 .198 -198.125 669.589)"/><path d="m310.248 436.981v37.85c10.452 0 18.925-8.473 18.925-18.925-.001-10.452-8.473-18.925-18.925-18.925z" fill="#ffc300"/><path d="m319.366 455.901c0 5.041-4.083 9.124-9.112 9.124-5.041 0-9.124-4.083-9.124-9.124 0-5.029 4.083-9.112 9.124-9.112 5.028 0 9.112 4.083 9.112 9.112z" fill="#ffc300"/><path d="m319.366 455.901c0 5.041-4.083 9.124-9.112 9.124v-18.236c5.028 0 9.112 4.083 9.112 9.112z" fill="#ff9f00"/></g></g></g></g><g><path d="m401.49 211.57c12.7 15.46 17.68 38.23 16.45 58.65-6.29-5.48-13.91-10.1-20.21-15.59 7.42 26.61 5.23 58.01-7.39 82.33-3.25-8.39-6.39-17.19-9.64-25.57-13.05 30.83-34.91 57.09-64.26 70.51 2.72-8.1 5.21-15.87 7.93-23.97-25.39 12.87-53.25 33.9-68.37 58.98-15.12-25.08-42.98-46.11-68.37-58.98 2.72 8.1 5.21 15.87 7.93 23.97-29.35-13.42-51.21-39.68-64.26-70.51-3.25 8.38-6.39 17.18-9.64 25.57-12.62-24.32-14.81-55.72-7.39-82.33-6.3 5.49-13.92 10.11-20.21 15.59-1.23-20.42 3.75-43.19 16.45-58.65-12.09-6.35-21.75-17.72-26.42-31.1 21.75-5.75 40.45-20.28 57.23-35.98 16.79-15.69 23.09-26.57 39.55-42.64.06-.07.13-.13.19-.19 9.52-9.25 22.34-14.3 35.6-14.3h78.68c13.26 0 26.08 5.05 35.6 14.3.06.06.13.12.19.19 16.46 16.07 22.76 26.95 39.55 42.64 16.78 15.7 35.48 30.23 57.23 35.98-4.67 13.38-14.33 24.75-26.42 31.1z" fill="#c55732"/><path d="m401.49 211.57c12.7 15.46 17.68 38.23 16.45 58.65-6.29-5.48-13.91-10.1-20.21-15.59 7.42 26.61 5.23 58.01-7.39 82.33-3.25-8.39-6.39-17.19-9.64-25.57-13.05 30.83-34.91 57.09-64.26 70.51 2.72-8.1 5.21-15.87 7.93-23.97-25.39 12.87-53.25 33.9-68.37 58.98v-329.55h39.34c13.26 0 26.08 5.05 35.6 14.3.06.06.13.12.19.19 16.46 16.07 22.76 26.95 39.55 42.64 16.78 15.7 35.48 30.23 57.23 35.98-4.67 13.38-14.33 24.75-26.42 31.1z" fill="#a63917"/><g><g><path d="m193.041 281.505c-34.914-3.811-64.135-29.085-71.724-63.377-.178-.806-.345-1.616-.501-2.431l-4.221-22.009c-1.38-7.223 6.979-12.261 12.716-7.661l31.242 25.031c.641.513 1.289 1.016 1.945 1.506 21.581 16.15 33.468 42.145 30.543 68.941z" fill="#ffc0a4"/><path d="m158.792 257.691c9.349 11.64 27.403-1.765 18.65-13.859-.293-.405-.599-.806-.915-1.2-6.081-7.571-15.124-11.359-24.135-11.042-5.837.206-8.878 7.078-5.221 11.632z" fill="#ffa87a"/></g><g><path d="m320.684 281.505c34.914-3.811 64.135-29.085 71.724-63.377.178-.806.346-1.616.501-2.431l4.221-22.009c1.38-7.223-6.979-12.261-12.716-7.661l-31.242 25.031c-.641.513-1.289 1.016-1.945 1.506-21.582 16.15-33.468 42.145-30.543 68.941z" fill="#ffa87a"/><path d="m354.932 257.691c-9.349 11.64-27.403-1.765-18.65-13.859.293-.405.599-.806.915-1.2 6.081-7.571 15.124-11.359 24.135-11.042 5.837.206 8.879 7.078 5.221 11.632z" fill="#f4863d"/></g></g><path d="m345.89 219.02v75.58c0 9.9-4.35 19.3-11.91 25.7l-41.84 35.44.17.13c-10.43 8.36-23.05 12.59-35.69 12.69h-.62c-12.63-.06-25.25-4.24-35.72-12.57-.72-.57-1.48-1.11-2.25-1.6l-40.25-34.09c-7.55-6.4-11.91-15.8-11.91-25.7v-75.24c0-14.58 8.85-27.74 22.4-33.14 19.68-7.84 36.56-21.21 48.73-38.19 2.21-3.09 5.08-5.57 8.36-7.27 3.24-1.69 6.88-2.61 10.64-2.63h.1c7.56 0 14.61 3.69 19.04 9.81 12.17 16.82 29 30.11 48.51 38 13.46 5.45 22.24 18.56 22.24 33.08z" fill="#f4863d"/><path d="m345.89 219.02v75.58c0 9.9-4.35 19.3-11.91 25.7l-41.84 35.44.17.13c-10.43 8.36-23.05 12.59-35.69 12.69h-.62v-230.43h.1c7.56 0 14.61 3.69 19.04 9.81 12.17 16.82 29 30.11 48.51 38 13.46 5.45 22.24 18.56 22.24 33.08z" fill="#ec781b"/><path d="m310.53 307.85v10.99c0 14.33-6.7 27.79-18.01 36.59-.13.1-.25.21-.38.31-10.55 8.51-23.33 12.79-36.14 12.82h-.12c-12.84 0-25.67-4.28-36.25-12.82-.06-.04-.11-.08-.16-.12-11.16-8.89-17.94-22.16-17.99-36.42l-.01-11.31c-.02-30.13 24.4-54.57 54.53-54.57 30.12 0 54.53 24.41 54.53 54.53z" fill="#ffc0a4"/><path d="m310.53 307.85v10.99c0 14.33-6.7 27.79-18.01 36.59-.13.1-.25.21-.38.31-10.55 8.51-23.33 12.79-36.14 12.82v-115.24c30.12 0 54.53 24.41 54.53 54.53z" fill="#ffa87a"/><path d="m251.017 264.152h9.966v51.994h-9.966z" fill="#a63917"/><g><path d="m302.461 331.97c-1.846 1.551-4.212-2.461-6.898-2.357-.156.017-.312 5.017-.477 5.017l-77.749-5c-.165 0-.321 5-.477 4.983-.659-.026-1.309-.104-1.924-.225-1.898-.399-3.588-1.248-4.974-2.418-1.82-1.517-3.137-3.57-3.761-5.841-.797-2.851-.503-6.031 1.248-8.908 2.704-4.454 6.005-8.501 9.784-12.037.91-.858 1.837-1.681 2.799-2.47 9.844-8.094 22.444-4.91 36.179-4.91s26.335-3.184 36.179 4.91c4.965 4.082 9.229 8.986 12.583 14.506 3.138 5.166 1.596 11.319-2.512 14.75z" fill="#234177"/><path d="m302.46 331.97c-1.84 1.55-4.21 2.54-6.89 2.64-.16.02-.31-3.98-.48-3.98l-26.001 4h-25.503l-26.246-5c-.16 0-.32 1-.47.98-2.69-.1-5.06 2.91-6.9 1.36 8.29-12.84 25.78-21.7 46.03-21.76h.22c20.33 0 37.92 8.87 46.24 21.76z" fill="#fe3345"/><path d="m302.46 331.97c-1.84 1.55-4.21 2.54-6.89 2.64-.16.02-.31.02-.48.02l-14.471-4-11.875 4h-12.744v-24.42h.22c20.33 0 37.92 8.87 46.24 21.76z" fill="#de1263"/><path d="m292.395 302.715h-72.359c9.844-8.094 22.444-12.955 36.179-12.955 13.736-.001 26.336 4.861 36.18 12.955z" fill="#fff"/><path d="m243.711 334.63h-29.117c-.165 0-.321 0-.477-.017-.007 0-.013 0-.02-.001-1.16-.048-2.253-.554-3.097-1.352l-4.952-4.679c-.927-.763-1.794-1.586-2.591-2.452-8.848-9.55-9.662-24.585-1.092-34.784 1.802-2.149 3.891-3.934 6.144-5.347.988-.615 2.244.182 2.08 1.335-.875 6.161.468 12.53 3.899 17.851 1.43 2.218 3.224 4.255 5.373 6.023z" fill="#fff"/><path d="m268.603 334.63h29.117c.165 0 .321 0 .477-.017.007 0 .013 0 .02-.001 1.16-.048 2.253-.554 3.097-1.352l4.951-4.679c.927-.763 1.794-1.586 2.591-2.452 8.848-9.55 9.662-24.585 1.092-34.784-1.803-2.149-3.891-3.934-6.144-5.347-.988-.615-2.244.182-2.08 1.335.875 6.161-.468 12.53-3.9 17.851-1.43 2.218-3.224 4.255-5.373 6.023z" fill="#d0f6ff"/></g><path d="m240.164 261.119c-4.981 0-7.064 6.314-3.1 9.33 5.258 4 11.819 6.375 18.936 6.375s13.678-2.375 18.936-6.375c3.964-3.015 1.881-9.33-3.1-9.33z" fill="#234177"/><g><g><path d="m194.943 220.246c0 13.959 11.316 25.275 25.275 25.275s25.275-11.316 25.275-25.275z" fill="#ffe400"/><path d="m245.493 220.246h-49.178c-5.225 0-9.46-4.235-9.46-9.46 0-5.225 4.235-9.46 9.46-9.46h30.258c10.449 0 18.92 8.47 18.92 18.92z" fill="#a63917"/></g><g><path d="m317.057 220.246c0 13.959-11.316 25.275-25.275 25.275s-25.275-11.316-25.275-25.275z" fill="#ffc300"/><path d="m266.507 220.246h49.178c5.225 0 9.46-4.235 9.46-9.46 0-5.225-4.235-9.46-9.46-9.46h-30.258c-10.45 0-18.92 8.47-18.92 18.92z" fill="#a63917"/></g></g><g><g><path d="m389.975 73.594c-6.161 6.95-10.156 15.832-10.745 24.819-.832 12.808-2.86 26.153-8.094 38.051-1.62 3.683-3.553 7.218-5.841 10.564-9.385 13.683-30.633 26.118-47.297 17.886-5.122-2.53-7.712-6.629-8.328-11.066-1.196-8.57 4.965-18.38 14.411-20.477 3.596-.797 7.366-.693 10.954-1.551 8.666-2.08 15.096-9.524 19.082-17.496 3.995-7.972 6.127-16.751 9.844-24.853 3.371-7.34 8.05-13.267 14.94-17.505 2.704-1.664 5.433-2.556 8.224-3.198 1.837-.425 3.319.849 3.57 2.392.138.805-.061 1.689-.72 2.434z" fill="#374c81"/><path d="m389.975 73.594c-6.161 6.95-10.156 15.832-10.745 24.819-.832 12.808-2.86 26.153-8.094 38.051-1.62 3.683-3.553 7.218-5.841 10.564-9.385 13.683-30.633 26.118-47.297 17.886-5.122-2.53-7.712-6.629-8.328-11.066 6.88-.425 13.718-1.309 20.356-3.154 11.508-3.206 22.54-9.636 29.013-19.689 6.413-9.939 7.747-22.184 11.014-33.553 3.198-11.162 9.628-22.826 20.642-26.292.138.805-.061 1.689-.72 2.434z" fill="#234177"/></g><g><path d="m122.025 73.594c6.161 6.95 10.156 15.832 10.745 24.819.832 12.808 2.86 26.153 8.094 38.051 1.62 3.683 3.553 7.218 5.841 10.564 9.385 13.683 30.633 26.118 47.297 17.886 5.122-2.53 7.712-6.629 8.328-11.066 1.196-8.57-4.965-18.38-14.411-20.477-3.596-.797-7.366-.693-10.954-1.551-8.666-2.08-15.096-9.524-19.082-17.496-3.995-7.972-6.127-16.751-9.844-24.853-3.371-7.34-8.05-13.267-14.94-17.505-2.704-1.664-5.433-2.556-8.224-3.198-1.837-.425-3.319.849-3.57 2.392-.138.805.061 1.689.72 2.434z" fill="#374c81"/><path d="m122.025 73.594c6.161 6.95 10.156 15.832 10.745 24.819.832 12.808 2.86 26.153 8.094 38.051 1.62 3.683 3.553 7.218 5.841 10.564 9.385 13.683 30.633 26.118 47.297 17.886 5.122-2.53 7.712-6.629 8.328-11.066-6.88-.425-13.718-1.309-20.356-3.154-11.508-3.206-22.54-9.636-29.013-19.689-6.413-9.939-7.747-22.184-11.014-33.553-3.198-11.162-9.628-22.826-20.642-26.292-.138.805.061 1.689.72 2.434z" fill="#234177"/></g></g></g></g></g></svg>