<svg id="Capa_1" enable-background="new 0 0 512 512" height="512" viewBox="0 0 512 512" width="512" xmlns="http://www.w3.org/2000/svg"><g><g><path d="m512 256c0 36.97-7.84 72.1-21.95 103.84v.01l-49.58 73.65c-46.57 48.39-112.01 78.5-184.47 78.5s-137.9-30.11-184.47-78.5l-49.58-73.66c-14.11-31.74-21.95-66.87-21.95-103.84 0-25.58 3.75-50.28 10.74-73.59l15.52-39.46c41.74-84.69 128.94-142.95 229.74-142.95s188 58.26 229.74 142.95l15.52 39.46c6.99 23.31 10.74 48.01 10.74 73.59z" fill="#65b2fe"/><path d="m512 256c0 36.97-7.84 72.11-21.95 103.84v.01l-49.56 73.61c-11.69 12.17-24.59 23.18-38.49 32.85-41.41 28.8-91.73 45.69-146 45.69s-104.59-16.89-146-45.69c-13.9-9.67-26.8-20.68-38.49-32.85l-49.56-73.62h-.01c-14.1-31.73-21.94-66.87-21.94-103.84 0-25.58 3.75-50.28 10.74-73.59l.01-.02 15.51-39.44c2.33-4.73 4.81-9.39 7.42-13.95 44.12 77.07 127.16 129 222.32 129s178.21-51.93 222.32-129c2.61 4.56 5.09 9.22 7.42 13.95l15.51 39.44.01.02c6.99 23.31 10.74 48.01 10.74 73.59z" fill="#159de4"/></g><g><g><path d="m440.46 433.5c-46.57 48.39-112 78.5-184.46 78.5s-137.89-30.11-184.46-78.5z" fill="#374c81"/><path d="m440.46 433.5c-46.57 48.39-112 78.5-184.46 78.5v-78.5z" fill="#234177"/></g><g><g><g><path d="m490.05 203.1v156.74c-2.44 5.5-5.07 10.89-7.88 16.18-3.66 6.87-7.62 13.56-11.87 20.04h-428.6c-4.25-6.48-8.21-13.17-11.87-20.04-2.81-5.29-5.44-10.68-7.88-16.18v-156.74h16.61c0 26.59 21.56 48.12 48.13 48.12 26.59 0 48.12-21.53 48.12-48.12h16.62c0 26.59 21.56 48.12 48.13 48.12 26.59 0 48.12-21.53 48.12-48.12h16.64c0 26.59 21.53 48.12 48.12 48.12 26.57 0 48.13-21.53 48.13-48.12h16.62c0 26.59 21.53 48.12 48.12 48.12 26.57 0 48.13-21.53 48.13-48.12z" fill="#ffe400"/><path d="m490.05 203.1v156.74c-2.44 5.5-5.07 10.89-7.88 16.18-3.66 6.87-7.62 13.56-11.87 20.04h-214.23v-192.96h8.25c0 26.59 21.53 48.12 48.12 48.12 26.57 0 48.13-21.53 48.13-48.12h16.62c0 26.59 21.53 48.12 48.12 48.12 26.57 0 48.13-21.53 48.13-48.12z" fill="#ffc300"/><path d="m482.17 376.02c-11.21 21.09-25.28 40.42-41.7 57.48h-368.94c-16.42-17.06-30.49-36.39-41.7-57.48z" fill="#ffc300"/><path d="m482.17 376.02c-11.21 21.09-25.28 40.42-41.7 57.48h-184.4v-57.48z" fill="#ff9f00"/><g fill="#ffc300"><path d="m501.26 182.41c-6.65 3.33-11.21 10.21-11.21 18.16v42.24c0 3.74-.75 7.39-2.15 10.79-1.43 3.38-3.49 6.49-6.17 9.11-7.7 7.3-16.86 13.15-26.97 17.05-.75.3-1.52.57-2.31.86-.07 0-.14.03-.23.07-1.7.61-3.42 1.16-5.19 1.61-.05.02-.09.02-.14.05-.84.22-1.68.43-2.51.63-6.12 1.47-12.52 2.24-19.07 2.24-21.83 0-41.71-8.56-56.44-22.51-14.72 13.95-34.6 22.51-56.43 22.51s-41.64-8.54-56.37-22.44l-.07-.07c-14.73 13.95-34.59 22.51-56.44 22.51-21.83 0-41.71-8.56-56.43-22.51-14.73 13.95-34.61 22.51-56.44 22.51-3.04 0-6.03-.15-8.98-.49-2.29-.23-4.53-.57-6.75-1.02-.07-.03-.12-.03-.16-.03-1.07-.22-2.13-.45-3.18-.7-7.11-1.7-13.87-4.33-20.15-7.75s-12.06-7.64-17.2-12.52c-5.33-5.25-8.32-12.42-8.32-19.9v-42.24c0-7.95-4.56-14.83-11.21-18.16 4.09-13.67 9.3-26.86 15.52-39.46h12.3v2.53c0 11.22 9.09 20.31 20.31 20.31h2.53v14.47h-2.53c-11.22 0-20.31 9.09-20.31 20.31v2.53c0 26.59 21.56 48.12 48.13 48.12 26.59 0 48.12-21.53 48.12-48.12v-2.53c0-11.22-9.09-20.31-20.3-20.31h-2.53v-14.47h2.53c11.21 0 20.3-9.09 20.3-20.31v-2.53h16.62v2.53c0 11.22 9.09 20.31 20.31 20.31h2.53v14.47h-2.53c-11.22 0-20.31 9.09-20.31 20.31v2.53c0 26.59 21.56 48.12 48.13 48.12 26.59 0 48.12-21.53 48.12-48.12v-2.53c0-11.22-9.09-20.31-20.3-20.31h-2.54v-14.47h2.54c11.21 0 20.3-9.09 20.3-20.31v-2.53h16.62v2.53c0 11.22 9.09 20.31 20.3 20.31h2.53v14.47h-2.53c-11.21 0-20.3 9.09-20.3 20.31v2.53h.02c0 26.59 21.53 48.12 48.12 48.12 26.57 0 48.13-21.53 48.13-48.12v-2.53c0-11.22-9.09-20.31-20.3-20.31h-2.54v-14.47h2.54c11.21 0 20.3-9.09 20.3-20.31v-2.53h16.62v2.53c0 11.22 9.09 20.31 20.3 20.31h2.53v14.47h-2.53c-11.21 0-20.3 9.09-20.3 20.31v2.53c0 26.59 21.53 48.12 48.12 48.12 26.57 0 48.13-21.53 48.13-48.12v-2.53c0-11.22-9.09-20.31-20.31-20.31h-2.53v-14.47h2.53c11.22 0 20.31-9.09 20.31-20.31v-2.53h12.3c6.22 12.6 11.43 25.79 15.52 39.46z"/><path d="m447.028 282.301c1.745-.476 3.491-1.02 5.191-1.609-1.7.611-3.423 1.155-5.191 1.609z"/><path d="m77.712 284.726c-2.289-.227-4.534-.567-6.755-1.02 2.221.431 4.466.771 6.755 1.02z"/></g></g><g><path d="m281.86 311.389v29.86l-25.79 14.89-.07.04-25.86-14.93v-29.86l25.86-14.93.07.04z" fill="#de1263"/><path d="m281.86 311.389v29.86l-25.79 14.89v-59.64z" fill="#bc0e5c"/><path d="m268.64 319.019v14.6l-12.57 7.26-.07.04-12.64-7.3v-14.6l12.64-7.3.07.04z" fill="#fe3345"/><path d="m268.64 319.019v14.6l-12.57 7.26v-29.12z" fill="#de1263"/></g><g><g><path d="m396.614 311.389v29.86l-25.79 14.89-.07.04-25.86-14.93v-29.86l25.86-14.93.07.04z" fill="#de1263"/><path d="m396.614 311.389v29.86l-25.79 14.89v-59.64z" fill="#bc0e5c"/><path d="m383.394 319.019v14.6l-12.57 7.26-.07.04-12.64-7.3v-14.6l12.64-7.3.07.04z" fill="#fe3345"/><path d="m383.394 319.019v14.6l-12.57 7.26v-29.12z" fill="#de1263"/></g><g><path d="m167.106 311.389v29.86l-25.79 14.89-.07.04-25.86-14.93v-29.86l25.86-14.93.07.04z" fill="#de1263"/><path d="m167.106 311.389v29.86l-25.79 14.89v-59.64z" fill="#bc0e5c"/><path d="m153.886 319.019v14.6l-12.57 7.26-.07.04-12.64-7.3v-14.6l12.64-7.3.07.04z" fill="#fe3345"/><path d="m153.886 319.019v14.6l-12.57 7.26v-29.12z" fill="#de1263"/></g></g><path d="m501.26 182.41c-6.65 3.33-11.21 10.21-11.21 18.16v42.24c0 3.74-.75 7.39-2.15 10.79-1.43 3.38-3.49 6.49-6.17 9.11-7.7 7.3-16.86 13.15-26.97 17.05-.75.3-1.52.57-2.31.86-.07 0-.14.03-.23.07-1.7.61-3.42 1.16-5.19 1.61-.05.02-.09.02-.14.05-.84.22-1.68.43-2.51.63-6.12 1.47-12.52 2.24-19.07 2.24-21.83 0-41.71-8.56-56.44-22.51-14.72 13.95-34.6 22.51-56.43 22.51s-41.64-8.54-56.37-22.44v-119.83h8.23v2.53c0 11.22 9.09 20.31 20.3 20.31h2.53v14.47h-2.53c-11.21 0-20.3 9.09-20.3 20.31v2.53h.02c0 26.59 21.53 48.12 48.12 48.12 26.57 0 48.13-21.53 48.13-48.12v-2.53c0-11.22-9.09-20.31-20.3-20.31h-2.54v-14.47h2.54c11.21 0 20.3-9.09 20.3-20.31v-2.53h16.62v2.53c0 11.22 9.09 20.31 20.3 20.31h2.53v14.47h-2.53c-11.21 0-20.3 9.09-20.3 20.31v2.53c0 26.59 21.53 48.12 48.12 48.12 26.57 0 48.13-21.53 48.13-48.12v-2.53c0-11.22-9.09-20.31-20.31-20.31h-2.53v-14.47h2.53c11.22 0 20.31-9.09 20.31-20.31v-2.53h12.3c6.22 12.6 11.43 25.79 15.52 39.46z" fill="#ff9f00"/></g><g><g><g><path d="m237.891 53.244h1.524c6.753 0 12.227 5.474 12.227 12.227v1.524h8.716v-1.524c0-6.753 5.474-12.227 12.227-12.227h1.525v-8.716h-1.525c-6.753 0-12.227-5.474-12.227-12.227v-1.525h-8.716v1.525c0 6.753-5.474 12.227-12.227 12.227h-1.524z" fill="#fff"/></g></g><g><g><path d="m86.592 115.249h1.524c6.753 0 12.227 5.474 12.227 12.227v1.524h8.716v-1.524c0-6.753 5.474-12.227 12.227-12.227h1.525v-8.716h-1.525c-6.753 0-12.227-5.474-12.227-12.227v-1.525h-8.716v1.525c0 6.753-5.474 12.227-12.227 12.227h-1.524z" fill="#fff"/></g></g><g><g><path d="m389.19 115.249h1.524c6.753 0 12.227 5.474 12.227 12.227v1.524h8.716v-1.524c0-6.753 5.474-12.227 12.227-12.227h1.525v-8.716h-1.525c-6.753 0-12.227-5.474-12.227-12.227v-1.525h-8.716v1.525c0 6.753-5.474 12.227-12.227 12.227h-1.524z" fill="#fff"/></g></g></g></g></g></g></svg>