<svg id="Capa_1" enable-background="new 0 0 512 512" height="512" viewBox="0 0 512 512" width="512" xmlns="http://www.w3.org/2000/svg"><g><g><circle cx="256" cy="256" fill="#4e689b" r="256"/><path d="m512 256c0 87.11-43.52 164.07-110 210.31-41.41 28.8-91.73 45.69-146 45.69s-104.59-16.89-146-45.69c-66.48-46.24-110-123.2-110-210.31 0-46.22 12.25-89.57 33.68-127 44.12 77.07 127.16 129 222.32 129s178.21-51.93 222.32-129c21.43 37.43 33.68 80.78 33.68 127z" fill="#374c81"/></g><g><g><g><path d="m282.86 58.16v110.16h-53.72v-110.16c0-14.83 12.03-26.86 26.86-26.86 7.42 0 14.13 3.01 18.99 7.87 4.87 4.86 7.87 11.58 7.87 18.99z" fill="#c55732"/><path d="m282.86 58.16v110.16h-26.86v-137.02c7.42 0 14.13 3.01 18.99 7.87 4.87 4.86 7.87 11.58 7.87 18.99z" fill="#a63917"/><g><g><path d="m217.358 194.391h77.284v264.503h-77.284z" fill="#fff"/><path d="m256 194.391h38.642v264.503h-38.642z" fill="#d1f6ff"/><g><path d="m236.679 194.391h38.642v264.503h-38.642z" fill="#d1f6ff"/><path d="m256 194.391h19.321v264.503h-19.321z" fill="#8fc8f5"/></g></g><g><path d="m291.826 170.041v24.347h-71.652v-24.347c0-3.328 2.698-6.026 6.026-6.026h59.6c3.328.001 6.026 2.698 6.026 6.026z" fill="#ffc300"/><path d="m291.826 170.041v24.347h-35.826v-30.372h29.8c3.328 0 6.026 2.697 6.026 6.025z" fill="#ff9f00"/></g><g><path d="m347.81 205.03c0 7.614-6.179 13.785-13.793 13.785-5.523 0-10.293-3.256-12.489-7.947h-131.055c-2.197 4.691-6.967 7.947-12.489 7.947-7.614 0-13.793-6.17-13.793-13.785 0-7.614 6.179-13.793 13.793-13.793h156.033c7.614-.001 13.793 6.178 13.793 13.793z" fill="#ffe400"/></g></g></g><path d="m282.86 58.16h-.16c-6.35 0-12.17-3.16-16.06-8.19-.35-.46-.73-.89-1.14-1.3-2.43-2.43-5.79-3.93-9.5-3.93-4.33 0-8.18 2.04-10.64 5.22-3.89 5.03-9.7 8.2-16.07 8.2h-.15c0-14.83 12.03-26.86 26.86-26.86 7.42 0 14.13 3.01 18.99 7.87 4.87 4.86 7.87 11.58 7.87 18.99z" fill="#ffc300"/><path d="m282.86 58.16h-.16c-6.35 0-12.17-3.16-16.06-8.19-.35-.46-.73-.89-1.14-1.3-2.43-2.43-5.79-3.93-9.5-3.93v-13.44c7.42 0 14.13 3.01 18.99 7.87 4.87 4.86 7.87 11.58 7.87 18.99z" fill="#ff9f00"/><g fill="#ffc300"><path d="m347.81 205.03c0 7.614-6.179 13.785-13.793 13.785-5.523 0-10.293-3.256-12.489-7.947h-65.528v-19.631h78.017c7.614-.001 13.793 6.178 13.793 13.793z"/><path d="m248.185 65.027h15.631v15.631h-15.631z" transform="matrix(.707 -.707 .707 .707 23.532 202.46)"/><path d="m248.186 87.136h15.627v15.627h-15.627z" transform="matrix(.707 -.707 .707 .707 7.841 208.83)"/><path d="m248.185 109.242h15.631v15.631h-15.631z" transform="matrix(.707 -.707 .707 .707 -7.792 215.305)"/><path d="m248.185 131.347h15.631v15.631h-15.631z" transform="matrix(.707 -.707 .707 .707 -23.385 221.906)"/></g><path d="m256 150.22v-22.11l11.05 11.05z" fill="#ff9f00"/><path d="m256 128.11v-22.11l11.05 11.06z" fill="#ff9f00"/><path d="m267.05 94.95-11.05 11.05v-22.1z" fill="#ff9f00"/><path d="m267.05 72.84-11.05 11.06v-22.11z" fill="#ff9f00"/></g><g><path d="m440.46 433.5c-46.57 48.39-112 78.5-184.46 78.5s-137.89-30.11-184.46-78.5z" fill="#adb6bc"/><path d="m440.46 433.5c-46.57 48.39-112 78.5-184.46 78.5v-78.5z" fill="#8b969f"/></g></g></g></svg>