<svg id="Capa_1" enable-background="new 0 0 512 512" height="512" viewBox="0 0 512 512" width="512" xmlns="http://www.w3.org/2000/svg"><g><g><circle cx="256" cy="256" fill="#b6e337" r="256"/><path d="m512 256c0 87.11-43.52 164.07-110 210.31-41.41 28.8-91.73 45.69-146 45.69s-104.59-16.89-146-45.69c-66.48-46.24-110-123.2-110-210.31 0-46.22 12.25-89.57 33.68-127 44.12 77.07 127.16 129 222.32 129s178.21-51.93 222.32-129c21.43 37.43 33.68 80.78 33.68 127z" fill="#6cdc2d"/></g><g><path d="m352.51 493.17c-29.78 12.14-62.36 18.83-96.51 18.83-34.05 0-66.54-6.65-96.25-18.72l1.27-16.52 4.55-59.31 1.41-18.36 4.57-59.58 1.4-18.25 5.9-76.8h154.55l5.89 76.72 1.41 18.26 4.57 59.56 1.41 18.37 4.56 59.29z" fill="#de1263"/><path d="m352.51 493.17c-29.78 12.14-62.36 18.83-96.51 18.83v-267.54h77.4l5.89 76.72 1.41 18.26 4.57 59.56 1.41 18.37 4.56 59.29z" fill="#bc0e5c"/><g><g fill="#bc0e5c"><path d="m340.7 339.44c-26.86 8.42-55.53 12.78-84.7 12.78-29.08 0-57.67-4.34-84.45-12.71l1.4-18.25c26.18 8.66 54.34 13.15 83.05 13.15 28.8 0 57.04-4.52 83.29-13.23z"/><path d="m346.68 417.37c-28.55 9.7-59.33 14.74-90.68 14.74-31.26 0-61.95-5.01-90.43-14.66l1.41-18.36c27.85 10 58.12 15.21 89.02 15.21 30.99 0 61.36-5.24 89.27-15.3z"/><path d="m352.51 493.17c-17.18 7-35.29 12.19-54.09 15.32-12.07 2.02-24.42 3.19-37.01 3.45-.76.02-1.51.03-2.27.04-1.04.01-2.09.02-3.14.02-1.04 0-2.09-.01-3.13-.02-.76-.01-1.52-.02-2.27-.04-12.59-.26-24.95-1.43-37.02-3.44-18.71-3.12-36.73-8.27-53.83-15.22l1.27-16.52c29.46 11.45 61.86 17.43 94.98 17.43 33.22 0 65.71-6.02 95.24-17.53z"/></g><path d="m340.7 339.44c-26.86 8.42-55.53 12.78-84.7 12.78v-17.81c28.8 0 57.04-4.52 83.29-13.23z" fill="#a50555"/><path d="m346.68 417.37c-28.55 9.7-59.33 14.74-90.68 14.74v-17.81c30.99 0 61.36-5.24 89.27-15.3z" fill="#a50555"/><path d="m352.51 493.17c-17.18 7-35.29 12.19-54.09 15.32-12.07 2.02-24.42 3.19-37.01 3.45-.76.02-1.51.03-2.27.04-1.04.01-2.09.02-3.14.02v-17.81c33.22 0 65.71-6.02 95.24-17.53z" fill="#a50555"/></g><path d="m298.42 508.49c-13.79 2.31-27.96 3.51-42.42 3.51-14.45 0-28.63-1.2-42.42-3.5l.59-17.54 2.06-61.58.6-17.91 2.05-61.64.6-17.87 2.92-87.5h67.2l2.92 87.49.6 17.89 2.05 61.62.6 17.91 2.06 61.59z" fill="#ffe400"/><path d="m298.42 508.49c-13.79 2.31-27.96 3.51-42.42 3.51v-267.54h33.6l2.92 87.49.6 17.89 2.05 61.62.6 17.91 2.06 61.59z" fill="#ffc300"/><g><g fill="#ffc300"><path d="m293.12 349.84c-12.22 1.58-24.63 2.38-37.12 2.38-12.5 0-24.91-.8-37.12-2.39l.6-17.87c11.99 1.63 24.2 2.45 36.52 2.45 12.31 0 24.52-.83 36.52-2.46z"/><path d="m295.77 429.37c-13.06 1.82-26.36 2.74-39.77 2.74-13.4 0-26.7-.92-39.77-2.73l.6-17.91c12.85 1.88 25.95 2.83 39.17 2.83s26.32-.95 39.17-2.84z"/><path d="m298.42 508.49c-10.92 1.83-22.07 2.96-33.42 3.35-1.09.04-2.19.07-3.28.09-.1.01-.21.01-.31.01-.76.02-1.51.03-2.27.04-1.04.01-2.09.02-3.14.02-1.04 0-2.09-.01-3.13-.02-.76-.01-1.52-.02-2.27-.04-12.59-.26-24.95-1.43-37.02-3.44l.59-17.54c13.7 2.14 27.7 3.23 41.83 3.23s28.14-1.09 41.83-3.23z"/></g><path d="m293.12 349.84c-12.22 1.58-24.63 2.38-37.12 2.38v-17.81c12.31 0 24.52-.83 36.52-2.46z" fill="#ff9f00"/><path d="m295.77 429.37c-13.06 1.82-26.36 2.74-39.77 2.74v-17.81c13.22 0 26.32-.95 39.17-2.84z" fill="#ff9f00"/><path d="m298.42 508.49c-12.07 2.02-24.42 3.19-37.01 3.45-.76.02-1.51.03-2.27.04-1.04.01-2.09.02-3.14.02v-17.81c14.13 0 28.14-1.09 41.83-3.23z" fill="#ff9f00"/></g><g><g><path d="m175.409 144.411-35.273-48.493c-3.564-4.899-11.325-2.126-10.979 3.923 4.842 84.717 40.636 164.989 100.962 225.315l3.792 3.792z" fill="#fe3345"/><path d="m336.591 144.411 35.273-48.493c3.564-4.899 11.325-2.126 10.979 3.923-4.842 84.717-40.636 164.989-100.962 225.315l-3.792 3.792z" fill="#de1263"/></g><g><path d="m321.65 67.41v93.28h-131.3v-93.28c0-5.74 7.23-8.28 10.82-3.79l54.83 68.57 54.83-68.57c3.59-4.49 10.82-1.95 10.82 3.79z" fill="#fe3345"/><path d="m321.65 67.41v93.28h-65.65v-28.5l54.83-68.57c3.59-4.49 10.82-1.95 10.82 3.79z" fill="#de1263"/><path d="m336.41 279.48c-14.06 8.36-25.2 20.87-32.92 35.29-1.33 2.49-2.62 4.77-3.78 6.67-.17.28-.34.55-.53.84-12.12 19.55-26.72 36.04-43.17 46.67 0 0-.01 0-.01-.01-16.46-10.62-31.06-27.08-43.17-46.65-.18-.28-.35-.55-.52-.84-1.17-1.9-2.46-4.19-3.8-6.69-7.72-14.41-18.86-26.92-32.91-35.27-11.71-6.96-19.03-20.39-17.29-35.03l14.14-119.16c.76-6.41 8.69-8.97 13.05-4.22l16.43 17.88c9.32 10.14 26.22 5.24 28.67-8.32l17.49-97.07c.79-4.41 4.35-6.61 7.91-6.61 3.55 0 7.1 2.2 7.9 6.61l17.5 97.07c2.45 13.56 19.35 18.47 28.67 8.32l16.43-17.88c4.36-4.75 12.29-2.19 13.05 4.22l14.14 119.16c1.74 14.64-5.57 28.06-17.28 35.02z" fill="#ff6477"/><path d="m336.41 279.48c-14.06 8.36-25.2 20.87-32.92 35.29-1.33 2.49-2.62 4.77-3.78 6.67-.17.28-.34.55-.53.84-12.12 19.55-26.72 36.04-43.17 46.67 0 0-.01 0-.01-.01v-341.98c3.55 0 7.1 2.2 7.9 6.61l17.5 97.07c2.45 13.56 19.35 18.47 28.67 8.32l16.43-17.88c4.36-4.75 12.29-2.19 13.05 4.22l14.14 119.16c1.74 14.64-5.57 28.06-17.28 35.02z" fill="#fe3345"/><path d="m282.08 345.75c-8.02 9.27-16.74 17.18-26.07 23.2 0 0-.01 0-.01-.01-9.33-6.02-18.05-13.91-26.08-23.19-18.56-21.47-4.32-55.54 24.04-56.76.68-.03 1.36-.05 2.04-.05s1.35.02 2.03.05c28.36 1.2 42.61 35.28 24.05 56.76z" fill="#de1263"/><path d="m282.08 345.75c-8.02 9.27-16.74 17.18-26.07 23.2 0 0-.01 0-.01-.01v-80c.68 0 1.35.02 2.03.05 28.36 1.2 42.61 35.28 24.05 56.76z" fill="#bc0e5c"/><g fill="#374c81"><path d="m247.873 322.296c2.738 6.116 3.178 12.678 1.695 18.721-5.502-2.916-10.103-7.615-12.841-13.731-.196-.437-.379-.876-.552-1.317-2.746-7.03 7.669-11.692 11.083-4.962.214.423.419.852.615 1.289z"/><path d="m264.127 322.296c-2.738 6.116-3.178 12.678-1.695 18.721 5.501-2.916 10.103-7.615 12.841-13.731.196-.437.379-.876.552-1.317 2.746-7.03-7.669-11.692-11.083-4.962-.214.423-.419.852-.615 1.289z"/></g><g><g><path d="m219.893 225.133c-10.447-10.447-26.877 4.583-17.061 15.624.385.433.786.858 1.201 1.273 9.969 9.97 25.312 11.28 36.702 3.944z" fill="#ffe400"/><path d="m240.736 245.975c0-12.179-4.838-23.859-13.45-32.471l-21.297-21.296v1.502c0 12.779 5.325 24.981 14.695 33.671z" fill="#de1263"/></g><g><g><path d="m292.107 225.133c10.447-10.447 26.878 4.583 17.061 15.624-.385.433-.786.858-1.201 1.273-9.969 9.97-25.312 11.28-36.702 3.944z" fill="#ffc300"/></g><path d="m271.264 245.975c0-12.179 4.838-23.859 13.45-32.471l21.297-21.296v1.502c0 12.779-5.325 24.981-14.695 33.671z" fill="#bc0e5c"/></g></g></g></g></g></g></svg>