<svg id="Capa_1" enable-background="new 0 0 512 512" height="512" viewBox="0 0 512 512" width="512" xmlns="http://www.w3.org/2000/svg"><g><g><path d="m511.987 258.591c-.868 87.47-45.615 164.448-113.277 209.969l-.015.005c-92.992 28.306-192.333 28.092-285.202-.615l-1.973-.61-.01.01c-67.33-46.12-111.51-123.58-111.51-211.35 0-141.38 114.619-255.999 255.999-256 141.405-.001 257.391 117.194 255.988 258.591z" fill="#9e68e0"/><path d="m512 256c0 87.11-43.52 164.07-110 210.31-1.09.76-2.18 1.51-3.29 2.25l-.02.01c-92.988 28.302-192.325 28.087-285.19-.618l-1.98-.612-.01.01c-.51-.34-1.01-.69-1.51-1.04-66.48-46.24-110-123.2-110-210.31 0-46.22 12.25-89.57 33.68-127 44.12 77.07 127.16 129 222.32 129s178.21-51.93 222.32-129c21.43 37.43 33.68 80.78 33.68 127z" fill="#8e4dd3"/></g><g><path d="m370.945 464.07c-29.1 29.43-69.55 47.93-114.94 47.93h-.99c-99.51-.6-174.99-90.12-158.58-188.4l19.4-116.23c5.72-34.25 23.4-63.93 48.33-85.04 24.69-20.92 56.5-33.43 90.85-33.66.32-.01.64-.01.96-.01h.03c69.45 0 128.73 50.21 140.16 118.71l19.4 116.23c8.99 53.85-9.609 105.06-44.62 140.47z" fill="#c55732"/><path d="m370.945 464.07c-29.1 29.43-69.55 47.93-114.94 47.93h-.99v-423.33c.32-.01.64-.01.96-.01h.03c69.45 0 128.73 50.21 140.16 118.71l19.4 116.23c8.99 53.85-9.609 105.06-44.62 140.47z" fill="#a63917"/><g><g><g><g><g><g><path d="m177.48 416.41v83.32c-8.27-2.66-16.35-5.73-24.23-9.19-14.68-6.44-28.64-14.22-41.73-23.2l11.08-50.93z" fill="#ffc300"/><path d="m398.71 468.56c-20.22 13.6-42.48 24.39-66.23 31.82v-83.97h54.88z" fill="#ff9f00"/></g><g><g><g><g><g><g><g><g><g><g><g><g><g><g><g><g><g><g><path d="m403.98 440.37c0 15.76-12.78 28.53-28.54 28.53h-18.79v22.54c-7.86 3.37-15.92 6.36-24.17 8.94-24.15 7.55-49.84 11.62-76.48 11.62-.34 0-.68 0-1.02-.01-36.17-.14-70.57-7.78-101.73-21.45l-.05-21.64h-18.68c-7.88 0-15.02-3.19-20.18-8.36-5.16-5.16-8.36-12.29-8.36-20.17 0-25.47 11.08-48.36 28.68-64.1 15.21-13.62 35.29-21.89 57.31-21.89h126.02c22.02 0 42.1 8.27 57.31 21.89 1.19 1.07 2.36 2.17 3.49 3.3 15.57 15.56 25.19 37.05 25.19 60.8z" fill="#ffe400"/><path d="m403.98 440.37c0 15.76-12.78 28.53-28.54 28.53h-18.79v22.54c-7.86 3.37-15.92 6.36-24.17 8.94-24.15 7.55-49.84 11.62-76.48 11.62h-1.02v-157.62h63.01c22.02 0 42.1 8.27 57.31 21.89 1.19 1.07 2.36 2.17 3.49 3.3 15.57 15.56 25.19 37.05 25.19 60.8z" fill="#ffc300"/><path d="m375.299 376.27-120.32 60.12-120.32-60.12c15.21-13.62 35.29-21.89 57.31-21.89h126.02c22.02 0 42.1 8.27 57.31 21.89z" fill="#ffc0a4"/><path d="m293.249 311.608v48.755c0 20.445-15.913 37.742-36.341 38.559-.637.025-1.276.038-1.918.038h-.011c-.632 0-1.262-.013-1.891-.037-20.431-.806-36.346-18.112-36.346-38.559v-48.756z" fill="#ffa87a"/><path d="m293.249 311.608v48.755c0 20.445-15.913 37.742-36.341 38.559-.637.025-1.276.038-1.918.038v-87.353h38.259z" fill="#e3835a"/></g><g><path d="m167.615 239.24c-6.836-6.9-12.155-15.068-16.439-23.784-3.478-7.078-10.768-11.943-19.188-11.921-14.036 0-25.755 11.132-25.998 25.165-.459 26.544 20.92 48.206 47.359 48.206h17.084v-34.822z" fill="#ffa87a"/></g><g><path d="m342.383 239.24c6.836-6.9 12.155-15.068 16.439-23.784 3.478-7.078 10.768-11.943 19.188-11.921 14.036 0 25.755 11.132 25.998 25.165.459 26.544-20.92 48.206-47.359 48.206h-17.084v-34.822z" fill="#e3835a"/></g><g><g><path d="m307.264 203.535c27.275 0 49.385 22.11 49.385 49.385 0 56.11-45.5 101.64-101.64 101.65h-.02c-56.134 0-101.64-45.506-101.64-101.64v-.01c0-27.275 22.11-49.385 49.385-49.385h1.445c28.07 0 50.83-22.76 50.83-50.83 0 28.07 22.76 50.83 50.83 50.83z" fill="#ffc0a4"/></g><path d="m307.264 203.535c27.275 0 49.385 22.11 49.385 49.385 0 56.11-45.5 101.64-101.64 101.65v-201.865c0 28.07 22.76 50.83 50.83 50.83z" fill="#ffa87a"/></g></g></g></g></g></g></g></g></g></g></g></g></g></g></g></g></g></g><g><g fill="#323b5a"><path d="m235.607 257.796c0 6.911-5.603 12.514-12.514 12.514s-12.514-5.603-12.514-12.514 5.603-12.514 12.514-12.514c6.912 0 12.514 5.603 12.514 12.514z"/><path d="m299.378 257.796c0 6.911-5.603 12.514-12.514 12.514s-12.514-5.603-12.514-12.514 5.603-12.514 12.514-12.514c6.912 0 12.514 5.603 12.514 12.514z"/></g><path d="m284.912 308.746c8.845 0 13.555 10.613 7.471 17.034-3.812 4.024-8.266 7.432-13.196 10.059-7.212 3.863-15.453 6.046-24.208 6.046s-16.995-2.182-24.208-6.046c-4.931-2.627-9.384-6.034-13.196-10.059-6.083-6.421-1.374-17.034 7.471-17.034z" fill="#323b5a"/><path d="m279.187 335.839c-7.212 3.863-15.453 6.046-24.208 6.046s-16.995-2.182-24.208-6.046c6.021-6.522 14.637-10.611 24.208-10.611 9.57 0 18.187 4.089 24.208 10.611z" fill="#e32644"/></g><path d="m254.979 287.583c-4.265 0-7.723-3.458-7.723-7.723v-33.155c0-4.265 3.458-7.723 7.723-7.723 4.266 0 7.723 3.458 7.723 7.723v33.155c0 4.266-3.458 7.723-7.723 7.723z" fill="#e3835a"/><g fill="#c55732"><path d="m240.697 232.706c-2.9-6.857-9.69-11.668-17.603-11.668s-14.703 4.811-17.603 11.668z"/><path d="m304.468 232.706c-2.9-6.857-9.69-11.668-17.603-11.668s-14.703 4.811-17.603 11.668z"/></g></g><path d="m279.173 335.842c-7.209 3.861-15.444 6.042-24.192 6.042v-16.657c9.565.001 18.173 4.095 24.192 10.615z" fill="#bc0e5c"/></g></g></g></g><g><path d="m378.986 100.112v52.593h-248.013v-52.593h8.803c0 14.088 11.422 25.498 25.498 25.498 14.088 0 25.498-11.41 25.498-25.498h8.804c0 14.088 11.422 25.498 25.498 25.498 14.088 0 25.498-11.41 25.498-25.498h8.816c0 14.088 11.41 25.498 25.498 25.498 14.076 0 25.498-11.41 25.498-25.498h8.804c0 14.088 11.41 25.498 25.498 25.498 14.076 0 25.498-11.41 25.498-25.498z" fill="#ffe400"/><path d="m378.986 100.112v52.593h-123.97v-52.593h4.372c0 14.088 11.41 25.498 25.498 25.498 14.076 0 25.498-11.41 25.498-25.498h8.804c0 14.088 11.41 25.498 25.498 25.498 14.076 0 25.498-11.41 25.498-25.498z" fill="#ffc300"/><path d="m370.182 100.112c0 14.088-11.422 25.498-25.498 25.498-14.088 0-25.498-11.41-25.498-25.498h-8.804c0 14.088-11.422 25.498-25.498 25.498-14.088 0-25.498-11.41-25.498-25.498h-8.816c0 14.088-11.41 25.498-25.498 25.498-14.076 0-25.498-11.41-25.498-25.498h-8.804c0 14.088-11.41 25.498-25.498 25.498-14.076 0-25.498-11.41-25.498-25.498h-8.803v21.042c0 3.963 1.585 7.759 4.408 10.545 2.726 2.582 5.789 4.816 9.116 6.63s6.906 3.207 10.677 4.108c.552.132 1.117.252 1.681.372.024 0 .048 0 .084.012 1.177.24 2.366.42 3.579.541 1.561.18 3.147.264 4.756.264 11.566 0 22.099-4.54 29.906-11.926 7.795 7.386 18.328 11.926 29.894 11.926 11.578 0 22.099-4.54 29.906-11.926l.036.036c7.807 7.362 18.304 11.89 29.87 11.89s22.099-4.54 29.894-11.926c7.807 7.386 18.34 11.926 29.906 11.926 3.471 0 6.858-.408 10.101-1.189.444-.108.889-.216 1.333-.336.024-.012.048-.012.072-.024.937-.24 1.85-.528 2.75-.853.048-.024.084-.036.12-.036.42-.156.829-.3 1.225-.456 5.357-2.066 10.209-5.164 14.292-9.032 1.417-1.393 2.51-3.039 3.267-4.828.745-1.802 1.141-3.735 1.141-5.717v-21.042h-8.803z" fill="#ffc300"/><path d="m378.986 100.112v21.042c0 1.982-.396 3.915-1.141 5.717-.757 1.79-1.85 3.435-3.267 4.828-4.084 3.867-8.936 6.966-14.292 9.032-.396.156-.805.3-1.225.456-.036 0-.072.012-.12.036-.901.324-1.814.613-2.75.853-.024.012-.048.012-.072.024-.444.12-.889.228-1.333.336-3.243.781-6.63 1.189-10.101 1.189-11.566 0-22.099-4.54-29.906-11.926-7.795 7.386-18.328 11.926-29.894 11.926s-22.063-4.528-29.87-11.89v-31.623h4.372c0 14.088 11.41 25.498 25.498 25.498 14.076 0 25.498-11.41 25.498-25.498h8.804c0 14.088 11.41 25.498 25.498 25.498 14.076 0 25.498-11.41 25.498-25.498z" fill="#ff9f00"/></g></g></g></svg>