<svg id="Capa_1" enable-background="new 0 0 512 512" height="512" viewBox="0 0 512 512" width="512" xmlns="http://www.w3.org/2000/svg"><g><g><path d="m512 256c0 141.38-114.62 256-256 256-63.09 0-120.84-22.83-165.47-60.66l-.01-.01-31.55-31.88-.03-.03c-36.8-44.34-58.94-101.29-58.94-163.42 0-141.38 114.62-256 256-256s256 114.62 256 256z" fill="#4e689b"/><path d="m512 256c0 87.11-43.52 164.07-110 210.31-41.41 28.8-91.73 45.69-146 45.69s-104.59-16.89-146-45.69c-6.76-4.7-13.29-9.73-19.55-15.05l-31.44-31.77c-36.85-44.35-59.01-101.33-59.01-163.49 0-46.22 12.25-89.57 33.68-127 44.12 77.07 127.16 129 222.32 129s178.21-51.93 222.32-129c21.43 37.43 33.68 80.78 33.68 127z" fill="#374c81"/></g><g><g><g><path d="m237.891 53.244h1.524c6.753 0 12.227 5.474 12.227 12.227v1.524h8.716v-1.524c0-6.753 5.474-12.227 12.227-12.227h1.525v-8.716h-1.525c-6.753 0-12.227-5.474-12.227-12.227v-1.525h-8.716v1.525c0 6.753-5.474 12.227-12.227 12.227h-1.524z" fill="#fff"/></g></g><g><g><g><path d="m104.701 121.935h1.524c6.753 0 12.227 5.474 12.227 12.227v1.524h8.716v-1.524c0-6.753 5.474-12.227 12.227-12.227h1.525v-8.716h-1.525c-6.753 0-12.227-5.474-12.227-12.227v-1.525h-8.716v1.525c0 6.753-5.474 12.227-12.227 12.227h-1.524z" fill="#fff"/></g></g><g><g><path d="m383.218 115.249h1.524c6.753 0 12.227 5.474 12.227 12.227v1.524h8.716v-1.524c0-6.753 5.474-12.227 12.227-12.227h1.525v-8.716h-1.525c-6.753 0-12.227-5.474-12.227-12.227v-1.525h-8.716v1.525c0 6.753-5.474 12.227-12.227 12.227h-1.524z" fill="#fff"/></g></g><g><g><path d="m446.136 242.249h1.524c6.753 0 12.227 5.474 12.227 12.227v1.524h8.716v-1.524c0-6.753 5.474-12.227 12.227-12.227h1.525v-8.716h-1.525c-6.753 0-12.227-5.474-12.227-12.227v-1.525h-8.716v1.525c0 6.753-5.474 12.227-12.227 12.227h-1.524z" fill="#fff"/></g></g><g><g><path d="m386.412 398.2h1.524c6.753 0 12.227 5.474 12.227 12.227v1.524h8.716v-1.524c0-6.753 5.474-12.227 12.227-12.227h1.525v-8.716h-1.525c-6.753 0-12.227-5.474-12.227-12.227v-1.525h-8.716v1.525c0 6.753-5.474 12.227-12.227 12.227h-1.524z" fill="#fff"/></g></g><g><g><path d="m237.891 445.972h1.524c6.753 0 12.227 5.474 12.227 12.227v1.524h8.716v-1.524c0-6.753 5.474-12.227 12.227-12.227h1.525v-8.716h-1.525c-6.753 0-12.227-5.474-12.227-12.227v-1.525h-8.716v1.525c0 6.753-5.474 12.227-12.227 12.227h-1.524z" fill="#fff"/></g></g><g><g><path d="m55.597 242.249h1.524c6.753 0 12.227 5.474 12.227 12.227v1.524h8.716v-1.524c0-6.753 5.474-12.227 12.227-12.227h1.525v-8.716h-1.525c-6.753 0-12.227-5.474-12.227-12.227v-1.525h-8.716v1.525c0 6.753-5.474 12.227-12.227 12.227h-1.524z" fill="#fff"/></g></g></g><g><g><path d="m274.56 258.01c0 5.75-2.18 11.48-6.57 15.87l-177.46 177.46c-11.43-9.7-22.01-20.38-31.59-31.92l177.3-177.29c8.76-8.77 22.98-8.76 31.74.01.09.08.18.17.26.27 4.21 4.34 6.32 9.96 6.32 15.6z" fill="#c55732"/><path d="m274.56 258.01c0 5.75-2.18 11.48-6.57 15.87l-177.46 177.46c-5.61-4.77-11.03-9.77-16.22-15l193.93-193.93c4.21 4.34 6.32 9.96 6.32 15.6z" fill="#a63917"/><path d="m311.34 319.147c-5.065-.064-9.835 2.373-12.759 6.512l-40.523 57.301c-7.374 10.41-23.489 7.862-27.268-4.322l-20.837-67.016c-.743-2.421-2.07-4.578-3.811-6.32-1.742-1.742-3.899-3.068-6.32-3.811l-67.016-20.837c-12.184-3.779-14.733-19.894-4.322-27.268l57.301-40.523c4.139-2.924 6.576-7.694 6.512-12.759l-.895-70.18c-.168-12.759 14.365-20.166 24.592-12.527l56.246 41.977c4.059 3.02 9.356 3.859 14.15 2.229l66.465-22.538c6.04-2.045 11.944-.184 15.827 3.699s5.745 9.787 3.699 15.827l-22.539 66.465c-1.63 4.794-.791 10.091 2.229 14.15l41.977 56.246c7.638 10.227.232 24.76-12.527 24.592z" fill="#ffc300"/><g fill="#ff9f00"><path d="m311.34 319.147c-5.065-.064-9.835 2.373-12.759 6.512l-40.523 57.301c-7.374 10.41-23.489 7.862-27.268-4.322l-20.837-67.016c-.743-2.421-2.07-4.578-3.811-6.32l162.539-162.539c3.883 3.883 5.745 9.787 3.699 15.827l-22.539 66.465c-1.63 4.794-.791 10.091 2.229 14.15l41.977 56.246c7.638 10.227.232 24.76-12.527 24.592z"/><path d="m288.218 277.969c-3.771-.048-7.318 1.758-9.5 4.834l-11.161 15.795c-5.481 7.75-17.465 5.848-20.285-3.22l-5.745-18.464c-.527-1.678-1.414-3.172-2.581-4.418-1.334-1.43-3.028-2.517-4.954-3.116l-18.464-5.744c-9.06-2.812-10.962-14.797-3.212-20.278l15.787-11.169c3.084-2.173 4.889-5.72 4.842-9.491l-.248-19.343c-.12-9.484 10.69-14.988 18.296-9.316l15.5 11.569c3.02 2.253 6.951 2.876 10.522 1.67l18.312-6.216c4.634-1.566 9.164-.056 12.032 3.02 2.708 2.884 3.979 7.143 2.485 11.497l-6.208 18.32c-1.206 3.571-.583 7.502 1.67 10.522l11.569 15.5c5.673 7.606.168 18.416-9.324 18.288z"/></g></g><path d="m288.218 277.969c-3.771-.048-7.318 1.758-9.5 4.834l-11.161 15.795c-5.481 7.75-17.465 5.848-20.285-3.22l-5.745-18.464c-.527-1.678-1.414-3.172-2.581-4.418l68.414-68.414c2.708 2.884 3.979 7.143 2.485 11.497l-6.208 18.32c-1.206 3.571-.583 7.502 1.67 10.522l11.569 15.5c5.673 7.606.168 18.416-9.324 18.288z" fill="#ec781b"/></g></g></g></svg>