<svg id="Capa_1" enable-background="new 0 0 512 512" height="512" viewBox="0 0 512 512" width="512" xmlns="http://www.w3.org/2000/svg"><g><g><path d="m511.976 252.485c1.06 78.983-33.664 149.897-88.986 197.545-107.737 39.981-226.243 39.981-333.98 0-54.5-46.94-89.01-116.46-89.01-194.03 0-141.181 114.298-255.678 255.404-255.999 140.708-.321 254.684 111.788 256.572 252.484z" fill="#4e689b"/><path d="m512 256c0 77.56-34.5 147.08-89 194.03l-.019.007c-107.732 39.977-226.23 39.977-333.962 0l-.019-.007c-54.5-46.95-89-116.47-89-194.03 0-46.22 12.25-89.57 33.68-127 44.12 77.07 127.16 129 222.32 129s178.21-51.93 222.32-129c21.43 37.43 33.68 80.78 33.68 127z" fill="#374c81"/></g><g><g><g><g><g><path d="m86.592 115.249h1.524c6.753 0 12.227 5.474 12.227 12.227v1.524h8.716v-1.524c0-6.753 5.474-12.227 12.227-12.227h1.525v-8.716h-1.525c-6.753 0-12.227-5.474-12.227-12.227v-1.525h-8.716v1.525c0 6.753-5.474 12.227-12.227 12.227h-1.524z" fill="#fff"/></g></g><g><g><path d="m389.19 115.249h1.524c6.753 0 12.227 5.474 12.227 12.227v1.524h8.716v-1.524c0-6.753 5.474-12.227 12.227-12.227h1.525v-8.716h-1.525c-6.753 0-12.227-5.474-12.227-12.227v-1.525h-8.716v1.525c0 6.753-5.474 12.227-12.227 12.227h-1.524z" fill="#fff"/></g></g><g><g><g><path d="m424.371 348.568h1.524c6.753 0 12.227 5.474 12.227 12.227v1.524h8.716v-1.524c0-6.753 5.474-12.227 12.227-12.227h1.525v-8.716h-1.525c-6.753 0-12.227-5.474-12.227-12.227v-1.525h-8.716v1.525c0 6.753-5.474 12.227-12.227 12.227h-1.524z" fill="#fff"/></g></g><g><g><path d="m51.411 348.568h1.524c6.753 0 12.227 5.474 12.227 12.227v1.524h8.716v-1.524c0-6.753 5.474-12.227 12.227-12.227h1.525v-8.716h-1.525c-6.753 0-12.227-5.474-12.227-12.227v-1.525h-8.716v1.525c0 6.753-5.474 12.227-12.227 12.227h-1.524z" fill="#fff"/></g></g></g><g><g><path d="m443.745 234.549h1.524c6.753 0 12.227 5.474 12.227 12.227v1.524h8.716v-1.524c0-6.753 5.474-12.227 12.227-12.227h1.525v-8.716h-1.525c-6.753 0-12.227-5.474-12.227-12.227v-1.525h-8.716v1.525c0 6.753-5.474 12.227-12.227 12.227h-1.524z" fill="#fff"/></g></g><g><g><path d="m30.381 234.549h1.524c6.753 0 12.227 5.474 12.227 12.227v1.524h8.716v-1.524c0-6.753 5.474-12.227 12.227-12.227h1.525v-8.716h-1.525c-6.753 0-12.227-5.474-12.227-12.227v-1.525h-8.716v1.525c0 6.753-5.474 12.227-12.227 12.227h-1.524z" fill="#fff"/></g></g></g></g><g><g><g><path d="m405.44 287.83v-45.74c0-82.4-67.04-149.44-149.44-149.44-.46 0-.92 0-1.38.01-81.77.74-148.06 67.49-148.06 149.43v45.74c0 26.43 21.42 47.85 47.85 47.85-26.43 0-47.85 21.43-47.85 47.85v80.34c42.05 30.29 93.66 48.13 149.44 48.13s107.39-17.84 149.44-48.13v-80.34c0-26.42-21.42-47.85-47.85-47.85 26.43 0 47.85-21.42 47.85-47.85z" fill="#ffe400"/><g fill="#ffc300"><path d="m357.59 335.68c26.43 0 47.85 21.43 47.85 47.85v80.34c-42.05 30.29-93.66 48.13-149.44 48.13v-419.35c82.4 0 149.44 67.04 149.44 149.44v45.74c0 26.43-21.42 47.85-47.85 47.85z"/><path d="m166.336 221.748-57.981-21.648c-5.672-2.118-8.381-8.582-5.913-14.11l3.152-7.062c2.468-5.528 9.089-7.828 14.452-5.02l54.829 28.709c4.909 2.571 6.974 8.515 4.715 13.576-2.258 5.061-8.062 7.493-13.254 5.555z"/><path d="m180.198 187.319-46.146-41.243c-4.514-4.035-4.688-11.041-.379-15.294l5.504-5.433c4.309-4.253 11.312-3.989 15.288.577l40.642 46.676c3.639 4.179 3.402 10.468-.542 14.361-3.944 3.893-10.235 4.049-14.367.356z"/></g><path d="m346.378 221.748 57.982-21.647c5.672-2.118 8.381-8.582 5.913-14.11l-3.152-7.062c-2.468-5.528-9.089-7.828-14.452-5.02l-54.829 28.709c-4.909 2.571-6.974 8.515-4.715 13.576 2.257 5.06 8.061 7.492 13.253 5.554z" fill="#ff9f00"/><g><path d="m423.02 450.02c-5.65 4.86-11.51 9.48-17.58 13.85-1.23.89-2.46 1.76-3.71 2.62l-51.45-2.53c-5.53-.27-9.9-4.8-9.98-10.34v-.14c0-5.48 4.22-10.05 9.7-10.47l61.71-4.69c6.04-.46 11.21 4.27 11.29 10.32z" fill="#ff9f00"/><path d="m349.999 389.678 61.712-4.696c6.037-.459 11.209 4.27 11.29 10.324l.104 7.733c.081 6.054-4.962 10.921-11.009 10.623l-61.816-3.036c-5.535-.272-9.905-4.8-9.979-10.341-.074-5.543 4.173-10.187 9.698-10.607z" fill="#ff9f00"/><g fill="#ffc300"><path d="m171.7 453.48v.14c-.08 5.54-4.45 10.07-9.98 10.34l-51.45 2.53c-1.25-.86-2.48-1.73-3.71-2.62-6.07-4.37-11.93-8.99-17.58-13.85l.02-1.38c.08-6.05 5.25-10.78 11.29-10.32l61.71 4.69c5.48.42 9.7 4.99 9.7 10.47z"/><path d="m162.001 389.678-61.712-4.696c-6.037-.459-11.209 4.27-11.29 10.324l-.104 7.733c-.081 6.054 4.962 10.921 11.009 10.623l61.816-3.036c5.535-.272 9.905-4.8 9.979-10.341.074-5.543-4.173-10.187-9.698-10.607z"/></g></g><path d="m332.516 187.319 46.146-41.243c4.514-4.035 4.688-11.041.379-15.294l-5.504-5.433c-4.309-4.253-11.312-3.989-15.288.577l-40.642 46.676c-3.639 4.179-3.402 10.468.542 14.361 3.944 3.893 10.235 4.049 14.367.356z" fill="#ff9f00"/><path d="m363.107 249.313v206.275c0 5.222-4.234 9.456-9.456 9.456h-195.302c-5.222 0-9.456-4.234-9.456-9.456v-207.435c0-59.154 47.953-107.107 107.107-107.107h.387c59.194.209 106.72 49.073 106.72 108.267z" fill="#fff"/><path d="m363.107 249.313v206.275c0 5.222-4.234 9.456-9.456 9.456h-97.651v-323.998h.387c59.194.209 106.72 49.073 106.72 108.267z" fill="#d1f6ff"/></g><path d="m304.028 121.352c-14.028 14.029-32.026 20.818-48.028 19.69-16.002 1.128-34-5.661-48.028-19.689-14.049-14.049-20.828-32.036-19.7-48.038 15.856-1.128 33.697 5.536 47.683 19.345.136-19.658 8.032-36.987 20.045-47.401 12.012 10.435 19.898 27.753 20.034 47.412 13.986-13.809 31.827-20.483 47.694-19.355 1.128 16-5.651 33.987-19.7 48.036z" fill="#ffc300"/><path d="m304.028 121.352c-14.028 14.029-32.026 20.818-48.028 19.69v-95.784c12.012 10.435 19.898 27.753 20.034 47.412 13.986-13.809 31.827-20.483 47.694-19.355 1.128 16.001-5.651 33.988-19.7 48.037z" fill="#ff9f00"/></g><ellipse cx="149.046" cy="314.739" fill="#ffe400" rx="20.943" ry="20.943" transform="matrix(.707 -.707 .707 .707 -178.9 197.577)"/><ellipse cx="149.046" cy="356.624" fill="#ffe400" rx="20.943" ry="20.943" transform="matrix(.707 -.707 .707 .707 -208.517 209.845)"/><ellipse cx="363.173" cy="314.739" fill="#ffc300" rx="20.943" ry="20.943" transform="matrix(.568 -.823 .823 .568 -102.18 434.749)"/><ellipse cx="363.173" cy="356.624" fill="#ffc300" rx="20.943" ry="20.943" transform="matrix(.568 -.823 .823 .568 -136.646 452.834)"/><circle cx="363.173" cy="314.739" fill="#ff9f00" r="7.247"/><circle cx="363.173" cy="356.624" fill="#ff9f00" r="7.247"/><g fill="#ffc300"><circle cx="149.046" cy="314.739" r="7.247"/><circle cx="149.046" cy="356.624" r="7.247"/></g></g></g></g></svg>