<svg id="Capa_1" enable-background="new 0 0 512.001 512.001" height="512" viewBox="0 0 512.001 512.001" width="512" xmlns="http://www.w3.org/2000/svg"><g><g><path d="m511.997 254.773c.265 56.531-17.794 108.83-48.587 151.308l-16.467 7.997c-126.374 61.373-274.517 58.408-398.334-7.973l-.008-.005-.01-.01c-30.561-42.169-48.591-94.019-48.591-150.089 0-139.814 112.094-253.457 251.31-255.958 143.176-2.573 260.016 111.532 260.687 254.73z" fill="#65b2fe"/><path d="m512 256.001c0 56.06-18.02 107.91-48.59 150.08l-.01.01-16.455 7.991c-126.376 61.371-274.519 58.402-398.335-7.981-30.58-42.17-48.61-94.03-48.61-150.1 0-46.22 12.25-89.57 33.68-127 44.12 77.07 127.16 129 222.32 129s178.21-51.93 222.32-129c21.43 37.43 33.68 80.78 33.68 127z" fill="#159de4"/></g><g><g><g><g><g><path d="m147.17 201.731v286.04c-39.39-18.52-73.28-46.78-98.58-81.68v-204.36z" fill="#fff"/><path d="m147.17 201.731v286.04c-28.8-13.54-54.67-32.29-76.36-55.04v-231z" fill="#d3edf7"/><path d="m147.17 201.731v286.04c-17.62-8.28-34.15-18.52-49.29-30.44v-255.6z" fill="#bae4f1"/><path d="m160.312 215.107h-124.865l62.436-141.378z" fill="#4e689a"/><path d="m160.312 215.107h-92.509l30.08-141.378z" fill="#384c81"/><path d="m160.312 215.107-13.145 17.058h-98.575l-13.145-17.058z" fill="#384c81"/><path d="m160.312 215.107-13.145 17.058h-76.356l-3.008-17.058z" fill="#224278"/><path d="m160.313 215.107h-62.428v-141.378z" fill="#224278"/><g><path d="m160.313 215.107-13.144 17.058h-49.284v-17.058z" fill="#1a3863"/></g></g><path d="m122.68 279.951v34.06c0 6.02-4.87 10.89-10.89 10.89h-27.82c-6.01 0-10.89-4.87-10.89-10.89v-34.06c0-13.69 11.1-24.8 24.8-24.8 6.85 0 13.05 2.78 17.54 7.27 4.48 4.48 7.26 10.68 7.26 17.53z" fill="#384c81"/><path d="m122.68 279.951v34.06c0 6.02-4.87 10.89-10.89 10.89h-13.91v-69.75c6.85 0 13.05 2.78 17.54 7.27 4.48 4.48 7.26 10.68 7.26 17.53z" fill="#224278"/><path d="m130.001 316.997v10.869c0 2.785-2.262 5.047-5.047 5.047h-54.142c-2.792 0-5.047-2.262-5.047-5.047v-10.869c0-2.785 2.255-5.047 5.047-5.047h54.141c2.786 0 5.048 2.262 5.048 5.047z" fill="#92c6eb"/><path d="m130.001 316.997v10.869c0 2.785-2.262 5.047-5.047 5.047h-27.07v-20.963h27.07c2.785 0 5.047 2.262 5.047 5.047z" fill="#75addd"/></g><g><g><path d="m463.41 201.731v204.35c-13.98 19.29-30.58 36.55-49.29 51.26-8.59 6.76-17.63 12.98-27.07 18.62-7.19 4.29-14.6 8.24-22.22 11.82v-286.05z" fill="#fff"/><path d="m463.41 201.731v204.35c-13.98 19.29-30.58 36.55-49.29 51.26-8.59 6.76-17.63 12.98-27.07 18.62v-274.23z" fill="#d3edf7"/><path d="m463.41 201.731v204.35c-13.98 19.29-30.58 36.55-49.29 51.26v-255.61z" fill="#bae4f1"/><path d="m476.551 215.107h-124.864l62.436-141.378z" fill="#4e689a"/><path d="m476.551 215.107h-92.508l30.08-141.378z" fill="#384c81"/><path d="m476.551 215.107-13.144 17.058h-98.575l-13.145-17.058z" fill="#384c81"/><path d="m476.551 215.107-13.144 17.058h-76.356l-3.008-17.058z" fill="#224278"/><path d="m476.553 215.107h-62.429v-141.378z" fill="#224278"/><path d="m476.553 215.107-13.144 17.058h-49.285v-17.058z" fill="#1a3863"/></g><path d="m438.92 279.951v34.06c0 6.02-4.87 10.89-10.89 10.89h-27.82c-6.02 0-10.89-4.87-10.89-10.89v-34.06c0-13.69 11.1-24.8 24.8-24.8 6.85 0 13.05 2.78 17.54 7.27 4.48 4.48 7.26 10.68 7.26 17.53z" fill="#384c81"/><path d="m438.92 279.951v34.06c0 6.02-4.87 10.89-10.89 10.89h-13.91v-69.75c6.85 0 13.05 2.78 17.54 7.27 4.48 4.48 7.26 10.68 7.26 17.53z" fill="#224278"/><path d="m446.24 316.997v10.869c0 2.785-2.262 5.047-5.047 5.047h-54.141c-2.792 0-5.047-2.262-5.047-5.047v-10.869c0-2.785 2.255-5.047 5.047-5.047h54.141c2.785 0 5.047 2.262 5.047 5.047z" fill="#92c6eb"/><path d="m446.24 316.997v10.869c0 2.785-2.262 5.047-5.047 5.047h-27.071v-20.963h27.071c2.785 0 5.047 2.262 5.047 5.047z" fill="#75addd"/></g><g><path d="m377.21 239.501v56.47c0 3.31-1.16 6.33-3.08 8.64-6.24 7.48-9.3 17.36-9.3 27.33v155.84c-18.72 8.8-38.68 15.41-59.55 19.47-7.76 1.52-15.64 2.69-23.63 3.48-1.96.19-3.92.37-5.89.51-6.52.51-13.11.76-19.76.76-3.44 0-6.85-.07-10.26-.21v-179.85c0-9.97-3.06-19.85-9.3-27.33-1.92-2.31-3.09-5.33-3.09-8.64v-56.47c0-4.05 3.11-7.34 6.95-7.34h14.88c3.83 0 6.94 3.29 6.94 7.34v22.77h28.78v-22.77c0-4.05 3.11-7.34 6.94-7.34h14.88c3.84 0 6.95 3.29 6.95 7.34v22.77h28.77v-22.77c0-4.05 3.11-7.34 6.95-7.34h14.87c3.84 0 6.95 3.29 6.95 7.34z" fill="#fff"/><path d="m377.21 239.871v59.31c0 3.48-1.16 6.65-3.08 9.07-6.24 7.87-9.3 18.24-9.3 28.71v150.82c-18.72 8.8-38.68 15.41-59.55 19.47-7.76 1.52-15.64 2.69-23.63 3.48-1.96.19-3.92.37-5.89.51v-247.46h15.14v-23.91c0-4.26 3.11-7.71 6.94-7.71h14.88c3.84 0 6.95 3.45 6.95 7.71v23.91h28.77v-23.91c0-4.26 3.11-7.71 6.95-7.71h14.87c3.84 0 6.95 3.45 6.95 7.71z" fill="#d3edf7"/><path d="m377.21 239.111v53.46c0 3.14-1.16 6-3.08 8.18-6.24 7.09-9.3 16.44-9.3 25.88v161.15c-18.72 8.8-38.68 15.41-59.55 19.47v-275.09h7.44c3.84 0 6.95 3.11 6.95 6.95v21.55h28.77v-21.55c0-3.84 3.11-6.95 6.95-6.95h14.87c3.84 0 6.95 3.11 6.95 6.95z" fill="#bae4f1"/><path d="m377.214 239.115v53.46c0 3.14-1.16 6-3.08 8.18-6.24 7.09-9.3 16.44-9.3 25.88h-119.09c0-9.44-3.06-18.79-9.3-25.88-1.92-2.18-3.09-5.04-3.09-8.18v-53.46c0-3.84 3.11-6.95 6.95-6.95h14.88c3.83 0 6.94 3.11 6.94 6.95v21.55h28.78v-21.55c0-3.84 3.11-6.95 6.94-6.95h14.88c3.84 0 6.95 3.11 6.95 6.95v21.55h28.77v-21.55c0-3.84 3.11-6.95 6.95-6.95h14.87c3.84 0 6.95 3.11 6.95 6.95z" fill="#4e689a"/><path d="m377.214 239.115v53.46c0 3.14-1.16 6-3.08 8.18-6.24 7.09-9.3 16.44-9.3 25.88h-89.07v-65.97h15.14v-21.55c0-3.84 3.11-6.95 6.94-6.95h14.88c3.84 0 6.95 3.11 6.95 6.95v21.55h28.77v-21.55c0-3.84 3.11-6.95 6.95-6.95h14.87c3.84 0 6.95 3.11 6.95 6.95z" fill="#384c81"/><path d="m330.09 392.141v34.05c0 6.02-4.88 10.9-10.9 10.9h-27.82c-6.01 0-10.89-4.88-10.89-10.9v-34.05c0-13.7 11.1-24.81 24.8-24.81 6.85 0 13.05 2.78 17.54 7.27s7.27 10.69 7.27 17.54z" fill="#384c81"/><path d="m330.09 392.141v34.05c0 6.02-4.88 10.9-10.9 10.9h-13.91v-69.76c6.85 0 13.05 2.78 17.54 7.27s7.27 10.69 7.27 17.54z" fill="#224278"/><path d="m337.402 429.181v10.869c0 2.785-2.262 5.047-5.047 5.047h-54.141c-2.792 0-5.047-2.262-5.047-5.047v-10.869c0-2.785 2.255-5.047 5.047-5.047h54.141c2.784 0 5.047 2.262 5.047 5.047z" fill="#92c6eb"/><path d="m337.402 429.181v10.869c0 2.785-2.262 5.047-5.047 5.047h-27.071v-20.964h27.071c2.784.001 5.047 2.263 5.047 5.048z" fill="#75addd"/><path d="m377.214 239.115v53.46c0 3.14-1.16 6-3.08 8.18-6.24 7.09-9.3 16.44-9.3 25.88h-59.55v-94.47h7.44c3.84 0 6.95 3.11 6.95 6.95v21.55h28.77v-21.55c0-3.84 3.11-6.95 6.95-6.95h14.87c3.84 0 6.95 3.11 6.95 6.95z" fill="#224278"/></g><g><g><path d="m245.74 313.531v198.26c-35.14-1.38-68.46-9.85-98.57-24.02v-174.24z" fill="#fff"/><path d="m245.74 313.531v198.26c-26.7-1.05-52.36-6.19-76.35-14.82v-183.44z" fill="#d3edf7"/><path d="m245.74 313.531v198.26c-16.9-.66-33.38-2.97-49.28-6.76v-191.5z" fill="#bae4f1"/><path d="m258.887 326.902h-124.865l62.436-141.378z" fill="#4e689a"/><path d="m258.887 326.902h-92.509l30.08-141.378z" fill="#384c81"/><path d="m258.887 326.902-13.145 17.058h-98.575l-13.145-17.058z" fill="#384c81"/><path d="m258.887 326.902-13.145 17.058h-76.356l-3.008-17.058z" fill="#224278"/><path d="m258.888 326.902h-62.428v-141.378z" fill="#224278"/><path d="m258.888 326.902-13.144 17.058h-49.284v-17.058z" fill="#1a3863"/></g><path d="m221.26 391.751v34.05c0 6.02-4.88 10.9-10.89 10.9h-27.82c-6.02 0-10.9-4.88-10.9-10.9v-34.05c0-13.7 11.11-24.8 24.81-24.8 6.84 0 13.04 2.77 17.53 7.26s7.27 10.69 7.27 17.54z" fill="#384c81"/><path d="m221.26 391.751v34.05c0 6.02-4.88 10.9-10.89 10.9h-13.91v-69.75c6.84 0 13.04 2.77 17.53 7.26s7.27 10.69 7.27 17.54z" fill="#224278"/><path d="m228.576 428.792v10.869c0 2.785-2.262 5.047-5.047 5.047h-54.141c-2.792 0-5.047-2.262-5.047-5.047v-10.869c0-2.785 2.255-5.047 5.047-5.047h54.141c2.785 0 5.047 2.262 5.047 5.047z" fill="#92c6eb"/><path d="m228.576 428.792v10.869c0 2.785-2.262 5.047-5.047 5.047h-27.07v-20.964h27.07c2.785.001 5.047 2.263 5.047 5.048z" fill="#75addd"/></g></g><g fill="#92c6eb"><path d="m132 265.641h15.17v14.6h-15.17z"/><path d="m48.59 340.211h22.22v14.6h-22.22z"/><path d="m83.444 382.867h29.03v14.6h-29.03z"/><path d="m124.77 415.931h22.4v14.6h-22.4z"/><path d="m83.444 425.826h29.03v14.6h-29.03z"/><path d="m56.297 238.374h29.03v14.6h-29.03z"/><path d="m124.77 349.801h22.4v14.6h-22.4z"/><path d="m207.721 349.803h29.03v14.6h-29.03z"/><path d="m180.979 465.451h29.03v14.6h-29.03z"/><path d="m226.97 490.381h18.77v14.6h-18.77z"/><path d="m231.5 401.331h14.24v14.6h-14.24z"/><path d="m147.167 390.168h14.24v14.6h-14.24z"/><path d="m347.99 342.501h16.84v14.6h-16.84z"/><path d="m441.37 370.101h22.04v14.6h-22.04z"/><path d="m399.604 401.332h29.03v14.6h-29.03z"/><path d="m399.673 342.503h29.03v14.6h-29.03z"/><path d="m364.83 380.551h14.52v14.6h-14.52z"/><path d="m445 238.371h18.41v14.6h-18.41z"/><path d="m291.333 465.451h29.03v14.6h-29.03z"/><path d="m347.99 444.551h16.84v14.6h-16.84z"/><path d="m260.533 340.214h29.03v14.6h-29.03z"/></g></g><g><g><path d="m211.378 83.109c0-.066.005-.132.005-.199 0-12.17-9.866-22.036-22.037-22.036-2.891 0-5.65.563-8.18 1.575-4.887-8.754-14.237-14.678-24.975-14.678-13.944 0-25.55 9.986-28.073 23.196-.752-.108-1.52-.167-2.301-.167-7.582 0-13.934 5.248-15.632 12.309z" fill="#fff"/><path d="m189.877 83.109c0-.038.003-.076.003-.114 0-6.998-5.673-12.671-12.672-12.671-1.663 0-3.249.323-4.703.906-2.81-5.034-8.186-8.44-14.361-8.44-8.018 0-14.692 5.742-16.143 13.338-.432-.062-.874-.096-1.323-.096-4.36 0-8.012 3.018-8.989 7.078h58.188z" fill="#d0f6ff"/></g><g><path d="m317.667 177.93c0-.066.005-.132.005-.199 0-12.171-9.866-22.036-22.037-22.036-2.891 0-5.65.563-8.18 1.575-4.887-8.754-14.237-14.678-24.975-14.678-13.944 0-25.55 9.986-28.073 23.196-.752-.108-1.52-.167-2.302-.167-7.581 0-13.934 5.248-15.631 12.309z" fill="#fff"/><path d="m296.166 177.93c0-.038.003-.076.003-.114 0-6.998-5.673-12.671-12.671-12.671-1.663 0-3.249.323-4.703.906-2.81-5.034-8.187-8.44-14.361-8.44-8.018 0-14.692 5.742-16.143 13.338-.432-.062-.874-.096-1.323-.096-4.36 0-8.012 3.018-8.989 7.078h58.187z" fill="#d0f6ff"/></g><g><path d="m398.639 82.911c0-.066.005-.132.005-.199 0-12.17-9.866-22.036-22.037-22.036-2.891 0-5.65.563-8.18 1.575-4.887-8.754-14.237-14.678-24.974-14.678-13.944 0-25.551 9.986-28.073 23.196-.752-.108-1.52-.167-2.302-.167-7.582 0-13.934 5.248-15.632 12.309z" fill="#fff"/><path d="m377.138 82.911c0-.038.003-.076.003-.114 0-6.998-5.673-12.672-12.671-12.672-1.663 0-3.249.323-4.703.906-2.81-5.034-8.186-8.44-14.361-8.44-8.018 0-14.692 5.742-16.143 13.338-.432-.062-.874-.096-1.323-.096-4.36 0-8.012 3.018-8.988 7.078z" fill="#d0f6ff"/></g></g></g></g></svg>