<svg id="Capa_1" enable-background="new 0 0 512 512" height="512" viewBox="0 0 512 512" width="512" xmlns="http://www.w3.org/2000/svg"><g><g><path d="m440.46 433.51v-.01c-117.859 50.157-251.061 50.157-368.92 0v.01c-43.998-45.716-71.168-107.738-71.536-176.102-.76-141.026 111.526-255.526 252.542-257.385 142.962-1.885 259.454 113.447 259.454 255.977 0 68.92-27.24 131.48-71.54 177.51z" fill="#9e68e0"/><path d="m512 256c0 68.91-27.24 131.48-71.54 177.5-117.859 50.157-251.061 50.157-368.92 0-44.3-46.02-71.54-108.59-71.54-177.5 0-46.22 12.25-89.57 33.68-127 44.12 77.07 127.16 129 222.32 129s178.21-51.93 222.32-129c21.43 37.43 33.68 80.78 33.68 127z" fill="#8e4dd3"/></g><g><g><path d="m256 433.5h-143.572c-8.936 0-11.324-12.324-3.035-15.662l37.179-14.972-26.414-22.342c-8.951-7.571-14.114-18.699-14.114-30.423 0-22.007 17.84-39.846 39.846-39.846h110.11z" fill="#6cdc2d"/><path d="m256 433.5h143.572c8.936 0 11.324-12.324 3.035-15.662l-37.18-14.972 26.414-22.342c8.951-7.571 14.114-18.699 14.114-30.423 0-22.007-17.84-39.846-39.846-39.846h-110.109z" fill="#53af17"/><path d="m256 433.5c-58.71 0-102.32-54.38-89.56-111.69l14.89-66.89h149.34l14.89 66.89c12.76 57.31-30.85 111.69-89.56 111.69z" fill="#b6e337"/><path d="m256 433.5v-178.58h74.67l14.89 66.89c12.76 57.31-30.85 111.69-89.56 111.69z" fill="#6cdc2d"/><path d="m256 405.84c-40.53 0-70.62-37.53-61.82-77.09l10.28-46.17h103.08l10.28 46.17c8.8 39.56-21.29 77.09-61.82 77.09z" fill="#d2f279"/><path d="m256 405.84v-123.26h51.54l10.28 46.17c8.8 39.56-21.29 77.09-61.82 77.09z" fill="#b6e337"/><g><path d="m383.86 225.54c0 43.26-57.24 78.33-127.86 78.33h-.01c-70.61 0-127.85-35.07-127.85-78.33 0-43.25 57.24-78.31 127.85-78.31h.01c70.62 0 127.86 35.06 127.86 78.31z" fill="#6cdc2d"/><path d="m383.86 225.54c0 43.26-57.24 78.33-127.86 78.33v-156.64c70.62 0 127.86 35.06 127.86 78.31z" fill="#53af17"/><g><path d="m321.85 56.25-12.81 82.53h-106.08l-12.81-82.53h8.16l38.6 55.22 15.01-55.22h8.16l15.01 55.22 38.6-55.22z" fill="#ffe400"/><path d="m321.85 56.25-12.81 82.53h-53.04v-82.53h4.08l15.01 55.22 38.6-55.22z" fill="#ffc300"/><circle cx="256" cy="55.35" fill="#ffc300" r="10.09"/><path d="m266.09 55.35c0 5.57-4.52 10.09-10.09 10.09v-20.18c5.57 0 10.09 4.52 10.09 10.09z" fill="#ff9f00"/><g><circle cx="194.01" cy="55.349" fill="#ffc300" r="10.091"/><circle cx="317.99" cy="55.349" fill="#ff9f00" r="10.091"/></g><path d="m194.01 128.46h123.98v18.77h-123.98z" fill="#ffc300"/><path d="m256 128.46h61.99v18.77h-61.99z" fill="#ff9f00"/></g><path d="m383.86 225.54-18.84 7.77c-34.92 14.41-71.96 21.61-109.02 21.61s-74.12-7.2-109.04-21.61l-18.82-7.77c0-8.95 2.45-17.54 6.96-25.55 5.76-10.21 9.21-21.62 9.07-33.34 0-.52 0-1.05.01-1.58.53-23.43 19.36-42.83 42.77-44 12.96-.65 24.79 4.17 33.39 12.35 9.24 8.79 21.34 13.91 34.09 13.81h3.14c12.75.1 24.85-5.02 34.09-13.81 8.61-8.18 20.43-13 33.39-12.35 23.41 1.17 42.24 20.57 42.77 44 .01.53.01 1.06.01 1.58-.14 11.72 3.31 23.13 9.07 33.34 4.51 8.01 6.96 16.6 6.96 25.55z" fill="#b6e337"/><path d="m383.86 225.54-18.84 7.77c-34.92 14.41-71.96 21.61-109.02 21.61v-107.69h1.57c12.75.1 24.85-5.02 34.09-13.81 8.61-8.18 20.43-13 33.39-12.35 23.41 1.17 42.24 20.57 42.77 44 .01.53.01 1.06.01 1.58-.14 11.72 3.31 23.13 9.07 33.34 4.51 8.01 6.96 16.6 6.96 25.55z" fill="#6cdc2d"/><g><g><circle cx="189.271" cy="166.109" fill="#fff" r="29.217"/><g><circle cx="322.728" cy="166.109" fill="#fff" r="29.217"/></g></g><g fill="#374c81"><circle cx="189.271" cy="166.109" r="19.414"/><circle cx="322.728" cy="166.109" r="19.414"/></g></g><g><path d="m231.865 220.901c-2.575 0-4.905 1.048-6.588 2.74-2.398 2.412-.523 6.55 2.878 6.55h13c0-5.13-4.159-9.29-9.29-9.29z" fill="#6cdc2d"/><path d="m280.135 220.901c2.575 0 4.905 1.048 6.588 2.74 2.398 2.412.523 6.55-2.878 6.55h-13c0-5.13 4.159-9.29 9.29-9.29z" fill="#53af17"/></g></g></g><g><path d="m440.46 433.5c-46.57 48.39-112 78.5-184.46 78.5s-137.89-30.11-184.46-78.5z" fill="#d1f6ff"/><path d="m440.46 433.5c-46.57 48.39-112 78.5-184.46 78.5v-78.5z" fill="#8fc8f5"/></g></g></g></svg>