<svg id="Capa_1" enable-background="new 0 0 512 512" height="512" viewBox="0 0 512 512" width="512" xmlns="http://www.w3.org/2000/svg"><g><g><circle cx="256" cy="256" fill="#b6e337" r="256"/><path d="m512 256c0 87.11-43.52 164.07-110 210.31-41.41 28.8-91.73 45.69-146 45.69s-104.59-16.89-146-45.69c-66.48-46.24-110-123.2-110-210.31 0-46.22 12.25-89.57 33.68-127 44.12 77.07 127.16 129 222.32 129s178.21-51.93 222.32-129c21.43 37.43 33.68 80.78 33.68 127z" fill="#6cdc2d"/></g><g><path d="m400.49 467.35c-6.77 4.64-13.78 8.96-21 12.94h-246.97c-7.15-3.93-14.09-8.21-20.79-12.8l23.95-82.78 74.17-256.37c8.52-20.55 27.33-30.82 46.15-30.82h87.51c17.42 0 27.04 20.21 16.05 33.74l-37.21 45.79 55.89 207.66z" fill="#4e689b"/><path d="m400.49 467.35c-6.77 4.64-13.78 8.96-21 12.94h-197.47l13.82-95.58 37.09-256.37c4.25-20.55 13.66-30.82 23.07-30.82h87.51c17.42 0 27.04 20.21 16.05 33.74l-37.21 45.79 55.89 207.66z" fill="#374c81"/><path d="m400.49 467.35c-6.77 4.64-13.78 8.96-21 12.94h-123.49v-382.77h87.51c17.42 0 27.04 20.21 16.05 33.74l-37.21 45.79 55.89 207.66z" fill="#234177"/><path d="m400.49 467.35c-6.77 4.64-13.78 8.96-21 12.94h-246.97c-7.15-3.93-14.09-8.21-20.79-12.8l23.95-82.78h242.56z" fill="#ffe400"/><path d="m400.49 467.35c-6.77 4.64-13.78 8.96-21 12.94h-197.47l13.82-95.58h182.4z" fill="#ffc300"/><path d="m400.49 467.35c-6.77 4.64-13.78 8.96-21 12.94h-123.49v-95.58h122.24z" fill="#ff9f00"/><path d="m419.49 453c-44.35 36.84-101.33 59-163.49 59-43.11 0-83.72-10.66-119.36-29.48-15.75-8.31-30.52-18.22-44.11-29.52z" fill="#4e689b"/><path d="m419.49 453c-44.35 36.84-101.33 59-163.49 59-43.11 0-83.72-10.66-119.36-29.48 0-.01 0-.01 0-.02 0-8.14 3.3-15.52 8.64-20.86s12.71-8.64 20.86-8.64z" fill="#374c81"/><path d="m419.49 453c-44.35 36.84-101.33 59-163.49 59v-59z" fill="#234177"/></g></g></svg>