<svg id="Capa_1" enable-background="new 0 0 512 512" height="512" viewBox="0 0 512 512" width="512" xmlns="http://www.w3.org/2000/svg"><g><g><path d="m512 256.001c0 65.62-24.7 125.479-65.3 170.779l-26.843 8.629c-106.553 34.251-221.161 34.251-327.714 0l-26.843-8.629c-40.6-45.3-65.3-105.16-65.3-170.78 0-141.425 114.692-256.072 256.134-256 141.033.072 255.866 114.968 255.866 256.001z" fill="#65b2fe"/><path d="m512 256c0 65.62-24.69 125.48-65.3 170.78l-26.843 8.629c-106.553 34.251-221.161 34.251-327.714 0l-26.843-8.629c-40.61-45.3-65.3-105.16-65.3-170.78 0-46.22 12.25-89.57 33.68-127 44.12 77.07 127.16 129 222.32 129s178.21-51.93 222.32-129c21.43 37.43 33.68 80.78 33.68 127z" fill="#159de4"/></g><g><g><g><g><path d="m446.7 301.35v125.43c-7.14 7.97-14.77 15.49-22.85 22.51-14.06 12.23-29.47 15.94-45.98 24.89-36.23 19.66-77.75 30.82-121.87 30.82-37.19 0-72.53-7.93-104.41-22.2-5.95-2.65-11.77-5.53-17.46-8.62-16.51-8.95-31.92-12.66-45.98-24.89-8.08-7.02-15.71-14.54-22.85-22.51v-125.43z" fill="#c55732"/><path d="m446.7 301.35v125.43c-7.14 7.97-14.77 15.49-22.85 22.51-14.06 12.23-29.47 14.94-45.98 23.89-36.23 19.66-77.75 30.82-121.87 30.82-37.19 0-72.53-7.93-104.41-22.2v-180.45z" fill="#a63917"/><path d="m446.7 301.35v125.43c-7.14 7.97-14.77 15.49-22.85 22.51-14.06 12.23-29.47 8.843-45.98 17.793-36.23 19.66-77.75 37.917-121.87 37.917v-203.65z" fill="#83250d"/><path d="m446.697 301.348v62.714h-381.394v-62.714c0-37.108 2.802-72.127 7.771-103.074 4.149-25.884 26.535-44.88 52.744-44.88h35.069l92.542 27.943 100.228-27.943h32.524c.542 0 1.084.016 1.626.046 25.513.743 47.063 19.491 51.119 44.833 4.474 27.897 7.199 59.107 7.694 92.16.046 3.778.077 7.432.077 10.915z" fill="#ec781b"/><path d="m446.697 301.348v62.714h-295.102v-62.714c0-37.108 2.802-93.801 7.772-124.747 1.393-8.654 38.703-16.549 43.641-23.206h88.852l35.664 17 34.742-17h23.915c.542 0 1.084.016 1.626.046 25.513.743 47.063 19.491 51.119 44.833 4.474 27.897 7.199 59.107 7.694 92.16.046 3.777.077 7.431.077 10.914z" fill="#c55732"/><path d="m446.697 301.348v62.714h-190.697v-210.668h130.181c26.21 0 48.595 18.995 52.744 44.88 4.97 30.947 7.772 65.966 7.772 103.074z" fill="#a63917"/><path d="m459.704 311.063v43.284c0 5.365-4.349 9.715-9.715 9.715h-387.978c-5.365 0-9.715-4.35-9.715-9.715v-43.284c0-5.366 4.35-9.715 9.715-9.715h387.979c5.365 0 9.714 4.349 9.714 9.715z" fill="#ec781b"/><path d="m459.704 311.063v22.176h-407.408v-22.176c0-5.366 4.35-9.715 9.715-9.715h387.979c5.365 0 9.714 4.349 9.714 9.715z" fill="#ff9f00"/><g><path d="m423.85 449.29c-14.06 12.23-29.47 22.94-45.98 31.89-36.23 19.66-77.75 30.82-121.87 30.82s-85.64-11.16-121.87-30.82c-16.51-8.95-31.92-19.66-45.98-31.89z" fill="#ec781b"/><path d="m423.85 449.29c-14.06 12.23-29.47 22.94-45.98 31.89h-243.74c-16.51-8.95-31.92-19.66-45.98-31.89z" fill="#ff9f00"/></g></g><g><g><g><path d="m161.35 153.39c-11.5 0-21.51 8.22-23.35 19.56-.01.07-.01.14-.03.21-5.34 33.26-8.05 90.75-8.05 128.19v177.49c1.39.79 2.8 1.57 4.21 2.34 5.69 3.09 11.51 5.97 17.46 8.62 7.06 3.16 14.3 6.01 21.68 8.53v-196.98c0-35.13 2.52-90.33 7.49-121.31 2.48-15.44 15.67-26.65 31.35-26.65z" fill="#ffe400"/></g><path d="m212.11 153.39c-15.68 0-28.87 11.21-31.35 26.65-4.97 30.98-7.49 86.18-7.49 121.31v196.98c-7.38-2.52-14.62-5.37-21.68-8.53v-188.45c0-37.11 2.81-93.8 7.78-124.75.01-.09.03-.17.04-.26 2.22-13.32 14-22.95 27.5-22.95z" fill="#ffc300"/></g></g><g><g><g><path d="m374.03 173.16c-.02-.07-.02-.14-.03-.21-1.84-11.34-11.85-19.56-23.35-19.56h-50.76c15.68 0 28.87 11.21 31.35 26.65 4.97 30.98 7.49 86.18 7.49 121.31v196.98c7.39-2.51 14.62-5.36 21.68-8.53 5.95-2.65 11.77-5.53 17.46-8.62 1.41-.77 2.82-1.55 4.21-2.34v-177.49c0-37.44-2.71-94.93-8.05-128.19z" fill="#ffc300"/></g><path d="m360.41 301.35v188.45c-7.06 3.17-14.29 6.02-21.68 8.53v-196.98c0-35.13-2.52-90.33-7.49-121.31-2.48-15.44-15.67-26.65-31.35-26.65h25.2c13.5 0 25.28 9.63 27.5 22.95.01.09.03.17.04.26 4.97 30.95 7.78 87.64 7.78 124.75z" fill="#ffe400"/></g></g><path d="m281.683 303.159v69.062c0 9.49-7.694 17.184-17.184 17.184h-16.998c-9.49 0-17.184-7.694-17.184-17.184v-69.062c0-9.49 7.694-17.184 17.184-17.184h16.998c9.49 0 17.184 7.694 17.184 17.184z" fill="#ffe853"/></g><path d="m281.683 303.159v69.062c0 9.49-7.694 17.184-17.184 17.184h-8.499v-103.43h8.499c9.49 0 17.184 7.694 17.184 17.184z" fill="#fed110"/><path d="m269.825 338.611h-27.649c-3.437 0-6.208 2.787-6.208 6.208v50.066h40.065v-50.066c0-3.421-2.771-6.208-6.208-6.208zm-6.177 43.889h-15.295v-31.504h15.295z" fill="#fff"/><path d="m276.033 344.819v50.066h-20.033v-12.385h7.648v-31.504h-7.648v-12.385h13.825c3.437 0 6.208 2.787 6.208 6.208z" fill="#d1f6ff"/><path d="m268.586 329.88v17.478c0 6.951-5.635 12.586-12.586 12.586s-12.586-5.635-12.586-12.586v-17.478c0-6.951 5.635-12.586 12.586-12.586 3.468 0 6.626 1.409 8.902 3.684 2.276 2.276 3.684 5.434 3.684 8.902z" fill="#4e689b"/><path d="m268.586 329.88v17.478c0 6.951-5.635 12.586-12.586 12.586v-42.65c3.468 0 6.626 1.409 8.902 3.684 2.276 2.276 3.684 5.434 3.684 8.902z" fill="#374c81"/><path d="m288.867 386.68v33.517c0 6.811-5.527 12.354-12.354 12.354h-41.025c-6.827 0-12.354-5.542-12.354-12.354v-33.517c0-6.812 5.527-12.354 12.354-12.354h41.025c6.827 0 12.354 5.542 12.354 12.354z" fill="#d1f6ff"/><path d="m288.867 386.68v33.517c0 6.811-5.527 12.354-12.354 12.354h-20.513v-58.225h20.513c6.827 0 12.354 5.542 12.354 12.354z" fill="#8fc8f5"/></g><g><g><g><path d="m237.891 53.244h1.524c6.753 0 12.227 5.474 12.227 12.227v1.524h8.716v-1.524c0-6.753 5.474-12.227 12.227-12.227h1.525v-8.716h-1.525c-6.753 0-12.227-5.474-12.227-12.227v-1.525h-8.716v1.525c0 6.753-5.474 12.227-12.227 12.227h-1.524z" fill="#fff"/></g></g><g><g><g><path d="m86.592 115.249h1.524c6.753 0 12.227 5.474 12.227 12.227v1.524h8.716v-1.524c0-6.753 5.474-12.227 12.227-12.227h1.525v-8.716h-1.525c-6.753 0-12.227-5.474-12.227-12.227v-1.525h-8.716v1.525c0 6.753-5.474 12.227-12.227 12.227h-1.524z" fill="#fff"/></g></g><g><g><path d="m389.19 115.249h1.524c6.753 0 12.227 5.474 12.227 12.227v1.524h8.716v-1.524c0-6.753 5.474-12.227 12.227-12.227h1.525v-8.716h-1.525c-6.753 0-12.227-5.474-12.227-12.227v-1.525h-8.716v1.525c0 6.753-5.474 12.227-12.227 12.227h-1.524z" fill="#fff"/></g></g><g><g><path d="m461.854 242.249h1.524c6.753 0 12.227 5.474 12.227 12.227v1.524h8.716v-1.524c0-6.753 5.474-12.227 12.227-12.227h1.525v-8.716h-1.525c-6.753 0-12.227-5.474-12.227-12.227v-1.525h-8.716v1.525c0 6.753-5.474 12.227-12.227 12.227h-1.524z" fill="#fff"/></g></g><g><g><path d="m16.445 242.249h1.524c6.753 0 12.227 5.474 12.227 12.227v1.524h8.716v-1.524c0-6.753 5.474-12.227 12.227-12.227h1.525v-8.716h-1.525c-6.753 0-12.227-5.474-12.227-12.227v-1.525h-8.716v1.525c0 6.753-5.474 12.227-12.227 12.227h-1.524z" fill="#fff"/></g></g></g></g></g></g></svg>