<svg id="Capa_1" enable-background="new 0 0 512 512" height="512" viewBox="0 0 512 512" width="512" xmlns="http://www.w3.org/2000/svg"><g><g><path d="m511.993 257.863c-.644 90.417-48.162 169.696-119.473 214.737l-.02.01h-.001c-89.18 25.735-183.818 25.73-272.995-.013l-.024-.007c-71.8-45.34-119.48-125.4-119.48-216.59 0-141.38 114.619-255.999 255.999-256 141.76 0 257.005 116.107 255.994 257.863z" fill="#9e68e0"/><path d="m512 256c0 87.11-43.52 164.07-110 210.31-3.11 2.16-6.27 4.26-9.48 6.29h-.01c-89.186 25.741-183.833 25.739-273.018-.007l-.012-.004c-3.21-2.02-6.37-4.12-9.48-6.28-66.48-46.239-110-123.199-110-210.309 0-46.22 12.25-89.57 33.68-127 44.12 77.07 127.16 129 222.32 129s178.21-51.93 222.32-129c21.43 37.43 33.68 80.78 33.68 127z" fill="#8e4dd3"/></g><g><path d="m392.52 472.6c-39.51 24.95-86.33 39.4-136.52 39.4s-97.01-14.45-136.52-39.41c14.39-32.22 39.86-58.41 71.57-73.74 8.49-4.1 17.42-7.43 26.71-9.87 12.2-3.22 25.02-4.94 38.24-4.94 23.28 0 45.31 5.32 64.95 14.81 15.19 7.34 28.94 17.17 40.74 28.97 12.83 12.83 23.34 27.99 30.83 44.78z" fill="#fff"/><path d="m392.52 472.6c-39.51 24.95-86.33 39.4-136.52 39.4v-127.96c23.28 0 45.31 5.32 64.95 14.81 15.19 7.34 28.94 17.17 40.74 28.97 12.83 12.83 23.34 27.99 30.83 44.78z" fill="#d1f6ff"/><g><path d="m444.22 304.18c0 68.99-84.27 124.91-188.22 124.91s-188.22-55.92-188.22-124.91c0-28.12 14.01-54.07 37.65-74.94 16.99-15.02 31.48-32.63 43.1-52.1 24-40.23 63.19-66.43 107.47-66.43s83.47 26.2 107.47 66.43c11.62 19.47 26.11 37.08 43.1 52.1 23.64 20.87 37.65 46.82 37.65 74.94z" fill="#ffc0a4"/><path d="m444.22 304.18c0 68.99-84.27 124.91-188.22 124.91v-318.38c44.28 0 83.47 26.2 107.47 66.43 11.62 19.47 26.11 37.08 43.1 52.1 23.64 20.87 37.65 46.82 37.65 74.94z" fill="#ffa87a"/><path d="m276.46 313.16h-40.92c-24.45 0-35.37-30.85-16.26-46.09 10.07-8.04 22.84-12.84 36.72-12.84s26.65 4.8 36.72 12.84c19.11 15.24 8.19 46.09-16.26 46.09z" fill="#ffa87a"/><path d="m276.46 313.16h-20.46v-58.93c13.88 0 26.65 4.8 36.72 12.84 19.11 15.24 8.19 46.09-16.26 46.09z" fill="#e3835a"/><g><path d="m402.48 137.44c-8.611-8.611-15.054-19.067-19.429-30.433-5.425-14.095-19.095-24.097-35.101-24.097-20.765 0-37.598 16.833-37.598 37.598v37.598c0 41.529 33.666 75.196 75.196 75.196h37.598c20.765 0 37.598-16.833 37.598-37.598 0-16.006-10.002-29.676-24.097-35.101-11.366-4.374-21.822-10.817-30.433-19.429z" fill="#e3835a"/><path d="m109.52 137.44c8.611-8.611 15.054-19.067 19.429-30.433 5.425-14.095 19.095-24.097 35.101-24.097 20.765 0 37.598 16.833 37.598 37.598v37.598c0 41.529-33.666 75.196-75.196 75.196h-37.598c-20.765 0-37.598-16.833-37.598-37.598 0-16.006 10.002-29.676 24.097-35.101 11.366-4.374 21.822-10.817 30.433-19.429z" fill="#ffa87a"/></g><g><path d="m240.259 300.543c-4.681 0-8.476-3.795-8.476-8.476v-14.53c0-4.681 3.795-8.476 8.476-8.476 4.681 0 8.476 3.795 8.476 8.476v14.53c0 4.681-3.795 8.476-8.476 8.476z" fill="#e3835a"/><path d="m271.741 300.543c-4.681 0-8.476-3.795-8.476-8.476v-14.53c0-4.681 3.795-8.476 8.476-8.476 4.681 0 8.476 3.795 8.476 8.476v14.53c0 4.681-3.795 8.476-8.476 8.476z" fill="#c55732"/></g><g><path d="m307.008 327.566c15.073 0 23.098 18.085 12.732 29.027-6.496 6.857-14.085 12.664-22.488 17.141-12.29 6.583-26.333 10.302-41.252 10.302s-28.962-3.719-41.252-10.302c-8.403-4.477-15.992-10.283-22.488-17.141-10.366-10.942-2.341-29.027 12.732-29.027z" fill="#323b5a"/><path d="m297.252 373.734c-12.29 6.583-26.333 10.302-41.252 10.302s-28.962-3.719-41.252-10.302c10.26-11.115 24.943-18.082 41.252-18.082s30.992 6.968 41.252 18.082z" fill="#e32644"/><path d="m297.228 373.74c-12.284 6.579-26.317 10.297-41.225 10.297v-28.385c16.299 0 30.968 6.977 41.225 18.088z" fill="#bc0e5c"/></g><g fill="#323b5a"><ellipse cx="212.724" cy="232.201" rx="15.951" ry="15.951" transform="matrix(.707 -.707 .707 .707 -101.886 218.429)"/><ellipse cx="297.252" cy="232.201" rx="15.951" ry="15.951" transform="matrix(.707 -.707 .707 .707 -77.128 278.199)"/></g></g><g><g><path d="m197.723 394.123c-6.437 6.437-6.437 16.874 0 23.311l11.656 11.656-11.656 11.656c-6.437 6.437-6.437 16.874 0 23.311 6.437 6.437 16.874 6.437 23.311 0l34.966-34.967-34.967-34.967c-6.437-6.437-16.873-6.437-23.31 0z" fill="#fe3345"/><path d="m314.278 394.123c6.437 6.437 6.437 16.874 0 23.311l-11.656 11.656 11.656 11.656c6.437 6.437 6.437 16.874 0 23.311-6.437 6.437-16.874 6.437-23.311 0l-34.967-34.967 34.967-34.967c6.437-6.437 16.874-6.437 23.311 0z" fill="#de1263"/></g><path d="m256 453.829c-8.885 0-16.088-7.203-16.088-16.088v-17.302c0-8.885 7.203-16.088 16.088-16.088 8.885 0 16.088 7.203 16.088 16.088v17.302c0 8.885-7.203 16.088-16.088 16.088z" fill="#de1263"/><path d="m256 404.351v49.478c8.885 0 16.088-7.203 16.088-16.088v-17.302c0-8.885-7.203-16.088-16.088-16.088z" fill="#bc0e5c"/><g fill="#de1263"><path d=""/><path d=""/></g></g><g><ellipse cx="152.513" cy="277.99" fill="#fd7db9" rx="35.071" ry="15.926"/><ellipse cx="359.487" cy="277.99" fill="#fc5e98" rx="35.071" ry="15.926"/></g></g></g></svg>