<svg id="Capa_1" enable-background="new 0 0 512 512" height="512" viewBox="0 0 512 512" width="512" xmlns="http://www.w3.org/2000/svg"><g><g><path d="m256.001 0c-141.411-.001-256.521 115.556-255.999 256.966.358 97.083 54.763 181.427 134.688 224.514 0 0 .01 0 .02.01 1.045.263 38.791 9.765 71.897 18.095 16.133 4.059 32.703 6.112 49.339 6.112 16.671 0 33.276-2.061 49.441-6.137 33.645-8.484 72.113-18.189 72.113-18.189v.01c80.09-43.261 134.5-127.971 134.5-225.381 0-141.38-114.62-255.999-255.999-256z" fill="#9e68e0"/><path d="m478.32 129c-44.11 77.07-127.16 129-222.32 129s-178.2-51.93-222.32-129c-21.43 37.43-33.68 80.78-33.68 127 0 87.11 43.52 164.07 110 210.31 7.91 5.51 16.16 10.58 24.69 15.17 0 0 .01 0 .02.01 1.045.263 38.791 9.765 71.897 18.095 16.133 4.059 32.703 6.112 49.339 6.112 16.671 0 33.276-2.061 49.441-6.137 33.645-8.484 72.113-18.189 72.113-18.189v.01c8.47-4.57 16.64-9.61 24.5-15.07 66.48-46.24 110-123.2 110-210.31 0-46.221-12.25-89.571-33.68-127.001z" fill="#8e4dd3"/></g><g><g><path d="m377.5 469.76v11.61c0 .01-.01.01-.01.01-36.12 19.52-77.47 30.6-121.4 30.62h-.09c-43.89 0-85.2-11.05-121.31-30.52v-11.72c0-22.12 5.93-42.86 16.27-60.73 12.16-21.02 30.43-38.04 52.38-48.64 6.89-3.34 14.15-6.04 21.7-8.02 9.9-2.61 20.32-4.01 31.05-4.01 18.91 0 36.81 4.31 52.76 12.03 12.34 5.96 23.51 13.94 33.08 23.53 7.48 7.47 13.99 15.92 19.31 25.13 10.34 17.86 16.26 38.6 16.26 60.71z" fill="#b6e337"/><path d="m377.49 469.77v11.61c-36.12 19.52-77.47 30.6-121.4 30.62v-163.64c18.91 0 36.81 4.32 52.76 12.03 12.33 5.96 23.5 13.94 33.09 23.53 21.97 21.97 35.55 52.32 35.55 85.85z" fill="#6cdc2d"/><path d="m361.24 409.053c-21.83 31.968-57.534 53.668-98.735 55.317-2.134.084-4.267.13-6.41.13h-.037c-2.115 0-4.221-.037-6.317-.121-41.22-1.621-76.942-23.349-98.782-55.354 12.159-21.01 30.43-38.033 52.382-48.636 6.895-3.336 14.153-6.038 21.7-8.022 9.904-2.609 20.321-4.006 31.055-4.006 18.905 0 36.803 4.314 52.754 12.029 12.336 5.963 23.508 13.939 33.086 23.526 7.471 7.472 13.984 15.922 19.304 25.137z" fill="#6cdc2d"/><path d="m361.24 409.053c-21.83 31.968-57.534 53.668-98.735 55.317-2.134.084-4.267.13-6.41.13v-116.14c18.905 0 36.803 4.314 52.754 12.029 12.336 5.963 23.508 13.939 33.086 23.526 7.472 7.473 13.985 15.923 19.305 25.138z" fill="#53af17"/><g><g><g><g><path d="m299.183 333.195v27.447c0 23.019-17.916 42.493-40.917 43.414-.717.029-1.437.043-2.159.043h-.013c-.712 0-1.422-.014-2.129-.042-23.003-.908-40.922-20.393-40.922-43.414v-27.448z" fill="#ffa87a"/><path d="m299.183 333.195v27.447c0 23.019-17.916 42.493-40.917 43.414-.717.029-1.437.043-2.159.043v-70.904z" fill="#e3835a"/></g><g><g><g><g><g><g><g><g><g><g><g><g><g><g><g><g><g><g><path d="m287.671 65.054c0 17.442-14.134 31.586-31.576 31.586s-31.576-14.144-31.576-31.586c0-17.433 14.134-31.576 31.576-31.576s31.576 14.143 31.576 31.576z" fill="#fff"/><path d="m287.671 65.054c0 17.442-14.134 31.586-31.576 31.586v-63.162c17.442 0 31.576 14.143 31.576 31.576z" fill="#d1f6ff"/><path d="m343.332 247.389h-174.475c-14.181 0-24.765-13.128-21.663-26.964 14.572-65.025 54.525-120.463 108.9-155.366 54.376 34.903 94.328 90.34 108.901 155.366 3.103 13.836-7.482 26.964-21.663 26.964z" fill="#b6e337"/><path d="m343.332 247.389h-87.238v-182.33c54.376 34.903 94.328 90.34 108.901 155.366 3.103 13.836-7.482 26.964-21.663 26.964z" fill="#6cdc2d"/><path d="m370.567 236.208v30.915c0 63.171-51.227 114.435-114.435 114.444h-.028c-34.586 0-65.594-15.355-86.576-39.608-.699-.801-1.388-1.621-2.059-2.441-.242-.298-.485-.596-.727-.904-11.386-14.218-19.445-31.213-23.014-49.81-.689-.214-1.379-.438-2.059-.671-24.141-8.171-43.605-27.495-51.394-52.848l-6.196-20.181c-2.031-6.615 5.283-12.178 11.116-8.46l46.475 29.573 2.059-1.044 23.74-12.019 2.059-1.044 86.604-43.838z" fill="#ffc0a4"/><path d="m419.578 205.026-49.011 31.193v-.01l-114.435-57.935v203.294c56.116-.008 102.782-40.415 112.55-93.685 26.174-7.219 47.557-27.332 55.814-54.215l6.196-20.174c2.033-6.618-5.274-12.184-11.114-8.468z" fill="#ffa87a"/></g></g></g></g></g></g></g></g></g></g></g></g></g></g></g></g></g></g><g><g fill="#323b5a"><circle cx="220.195" cy="272.608" r="14.09"/><circle cx="291.995" cy="272.608" r="14.09"/></g><path d="m289.796 329.973c9.959 0 15.261 11.949 8.412 19.179-4.292 4.531-9.306 8.367-14.858 11.325-8.12 4.35-17.398 6.807-27.256 6.807-9.857 0-19.135-2.457-27.256-6.807-5.552-2.958-10.566-6.794-14.858-11.325-6.849-7.23-1.547-19.179 8.412-19.179z" fill="#323b5a"/><path d="m283.35 360.477c-8.12 4.35-17.398 6.807-27.256 6.807-9.857 0-19.135-2.457-27.256-6.807 6.779-7.344 16.48-11.947 27.256-11.947s20.478 4.603 27.256 11.947z" fill="#e32644"/></g><path d="m256.094 306.146c-4.802 0-8.695-3.893-8.695-8.695v-37.329c0-4.802 3.893-8.695 8.695-8.695 4.803 0 8.696 3.893 8.696 8.695v37.329c0 4.802-3.893 8.695-8.696 8.695z" fill="#e3835a"/><g><path d="m240.014 244.404c-3.266-7.72-10.91-13.137-19.82-13.137s-16.554 5.417-19.82 13.137z" fill="#234177"/><path d="m311.814 244.404c-3.266-7.72-10.91-13.137-19.82-13.137s-16.554 5.417-19.82 13.137z" fill="#323b5a"/></g></g><path d="m283.335 360.481c-8.116 4.347-17.388 6.803-27.238 6.803v-18.754c10.769 0 20.461 4.609 27.238 11.951z" fill="#bc0e5c"/></g></g></g><path d="m169.528 222.111-25.8 66.693v-53.63l23.741-12.019z" fill="#fff"/><path d="m342.883 222.111 25.799 66.693v-53.63l-23.74-12.019z" fill="#fff"/><path d="m370.539 220.443v33.607l-25.79-13.063-72.237-36.561c-5.152-2.618-10.799-3.923-16.417-3.923-5.646 0-11.293 1.304-16.464 3.923l-72.181 36.542-25.799 13.063v-33.598c0-4.51 2.534-8.637 6.55-10.668l19.25-9.746 47.658-24.132c12.886-6.522 26.936-9.783 40.987-9.783 14.032 0 28.073 3.261 40.94 9.783l47.714 24.15 19.231 9.737c4.024 2.032 6.558 6.16 6.558 10.669z" fill="#6cdc2d"/><path d="m370.539 220.443v33.607l-25.79-13.063-72.237-36.561c-5.152-2.618-10.799-3.923-16.417-3.923v-34.399c14.032 0 28.073 3.261 40.94 9.783l47.714 24.15 19.231 9.737c4.025 2.032 6.559 6.16 6.559 10.669z" fill="#53af17"/></g></g></svg>