<svg id="Capa_1" enable-background="new 0 0 512 512" height="512" viewBox="0 0 512 512" width="512" xmlns="http://www.w3.org/2000/svg"><g><g><path d="m512 256c0 74.27-31.63 141.15-82.15 187.91l-.019.007c-111.755 43.77-235.908 43.77-347.662 0l-.019-.007c-50.52-46.76-82.15-113.64-82.15-187.91 0-65.57 24.66-125.38 65.19-170.67 46.88-52.37 115-85.33 190.81-85.33s143.93 32.96 190.81 85.33c40.53 45.29 65.19 105.1 65.19 170.67z" fill="#4e689b"/><path d="m512 256c0 74.26-31.63 141.14-82.15 187.91h-.01c-111.76 43.774-235.92 43.774-347.68 0h-.01c-50.52-46.77-82.15-113.65-82.15-187.91 0-46.22 12.25-89.57 33.68-127 44.12 77.07 127.16 129 222.32 129s178.21-51.93 222.32-129c21.43 37.43 33.68 80.78 33.68 127z" fill="#374c81"/></g><g><g><path d="m130.38 153.82h251.23v316.89h-251.23z" fill="#fff"/><path d="m256 153.82h125.61v316.89h-125.61z" fill="#d1f6ff"/><path d="m103.355 140.07-52.621-5.081c-11.044-1.066-20.605 7.612-20.611 18.707-.006 11.095 9.546 19.783 20.591 18.728l52.64-5.028v-27.326z" fill="#ff9f00"/><path d="m109.087 181.941h-20.89c-8.025 0-14.531-6.506-14.531-14.531v-27.188c0-8.025 6.506-14.531 14.531-14.531h20.89z" fill="#ffc300"/><path d="m109.09 112.53h293.81v82.57h-293.81z" fill="#d1f6ff"/><path d="m256 112.53h146.9v82.57h-146.9z" fill="#b3f4ff"/><path d="m109.087 210.447c-11.767 0-21.305-9.539-21.305-21.305v-70.654c0-11.767 9.539-21.305 21.305-21.305 11.767 0 21.305 9.539 21.305 21.305v70.654c.001 11.767-9.538 21.305-21.305 21.305z" fill="#ffe400"/><g><path d="m408.645 140.07 52.621-5.081c11.044-1.066 20.605 7.612 20.611 18.707.006 11.095-9.547 19.783-20.591 18.728l-52.64-5.028v-27.326z" fill="#f4863d"/></g><path d="m402.913 181.941h20.89c8.025 0 14.531-6.506 14.531-14.531v-27.188c0-8.025-6.506-14.531-14.531-14.531h-20.89z" fill="#ff9f00"/><path d="m402.913 210.447c11.767 0 21.305-9.539 21.305-21.305v-70.654c0-11.767-9.539-21.305-21.305-21.305-11.767 0-21.305 9.539-21.305 21.305v70.654c-.001 11.767 9.538 21.305 21.305 21.305z" fill="#ffc300"/><path d="m109.09 442.59v23.08c-7.4-5.19-14.51-10.77-21.31-16.7-1.9-1.66-3.78-3.35-5.63-5.06 1.84-.85 3.89-1.32 6.05-1.32z" fill="#ffc300"/><path d="m402.9 429.42v36.26c-6.86 4.81-13.96 9.3-21.29 13.43-37.11 20.94-79.97 32.89-125.61 32.89s-88.5-11.95-125.61-32.89c-7.33-4.13-14.44-8.62-21.3-13.44v-36.25z" fill="#d1f6ff"/><path d="m402.9 430.42v35.26c-6.86 4.81-13.96 9.3-21.29 13.43-37.11 20.94-79.97 32.89-125.61 32.89v-81.58z" fill="#b3f4ff"/><path d="m130.39 435.38v43.73c-15.24-8.59-29.51-18.71-42.61-30.14v-13.59c0-11.76 9.54-21.3 21.31-21.3 5.88 0 11.21 2.38 15.06 6.24s6.24 9.18 6.24 15.06z" fill="#ffe400"/><path d="m429.85 443.91c-1.85 1.71-3.73 3.4-5.63 5.06-6.8 5.93-13.91 11.51-21.31 16.7v-23.08h20.89c2.16 0 4.21.47 6.05 1.32z" fill="#ff9f00"/><path d="m424.22 435.38v13.59c-13.1 11.43-27.37 21.55-42.61 30.14v-43.73c0-5.88 2.39-11.2 6.24-15.06s9.18-6.24 15.06-6.24c11.77 0 21.31 9.54 21.31 21.3z" fill="#ffc300"/></g><g fill="#4e689b"><path d="m355.41 258.64c0 3.64-1.47 6.93-3.86 9.31-2.38 2.39-5.67 3.86-9.31 3.86h-172.48c-7.27 0-13.17-5.9-13.17-13.17 0-3.64 1.47-6.92 3.86-9.31 2.38-2.38 5.67-3.85 9.31-3.85h172.48c7.27 0 13.17 5.89 13.17 13.16z"/><path d="m355.41 311.29c0 3.63-1.47 6.93-3.86 9.31-2.38 2.38-5.67 3.86-9.31 3.86h-172.48c-7.27 0-13.17-5.9-13.17-13.17 0-3.63 1.47-6.92 3.86-9.3 2.38-2.39 5.67-3.86 9.31-3.86h172.48c7.27 0 13.17 5.9 13.17 13.16z"/><path d="m355.41 363.95c0 3.63-1.47 6.93-3.86 9.31-2.38 2.38-5.67 3.85-9.31 3.85h-172.48c-7.27 0-13.17-5.89-13.17-13.16 0-3.63 1.47-6.93 3.86-9.31 2.38-2.38 5.67-3.86 9.31-3.86h172.48c7.27 0 13.17 5.9 13.17 13.17z"/></g><g fill="#374c81"><path d="m355.41 363.95c0 3.63-1.47 6.93-3.86 9.31-2.38 2.38-5.67 3.85-9.31 3.85h-86.24v-26.33h86.24c7.27 0 13.17 5.9 13.17 13.17z"/><path d="m355.41 311.29c0 3.63-1.47 6.93-3.86 9.31-2.38 2.38-5.67 3.86-9.31 3.86h-86.24v-26.33h86.24c7.27 0 13.17 5.9 13.17 13.16z"/><path d="m342.24 271.81h-86.24v-26.33h86.24c7.27 0 13.17 5.89 13.17 13.16 0 3.64-1.47 6.93-3.86 9.31-2.38 2.39-5.67 3.86-9.31 3.86z"/></g></g></g></svg>