<svg id="Capa_1" enable-background="new 0 0 512 512" height="512" viewBox="0 0 512 512" width="512" xmlns="http://www.w3.org/2000/svg"><g><g><path d="m512 256c0 123.65-87.67 226.83-204.24 250.76l-43.78 5.11c-2.65.09-5.31.13-7.98.13s-5.33-.04-7.98-.13l-43.78-5.11c-116.57-23.93-204.24-127.11-204.24-250.76 0-141.38 114.62-256 256-256s256 114.62 256 256z" fill="#4e689b"/><path d="m512 256c0 87.11-43.52 164.07-110 210.31-27.88 19.39-59.8 33.38-94.24 40.45l-43.78 5.11v.01c-2.65.08-5.31.12-7.98.12s-5.33-.04-7.99-.12l.01-.01-43.78-5.11c-34.44-7.07-66.36-21.06-94.24-40.45-66.48-46.24-110-123.2-110-210.31 0-46.22 12.25-89.57 33.68-127 44.12 77.07 127.16 129 222.32 129s178.21-51.93 222.32-129c21.43 37.43 33.68 80.78 33.68 127z" fill="#374c81"/></g><g><g><path d="m237.891 41.481h1.524c6.753 0 12.227 5.474 12.227 12.227v1.524h8.716v-1.524c0-6.753 5.474-12.227 12.227-12.227h1.525v-8.716h-1.525c-6.753 0-12.227-5.474-12.227-12.227v-1.525h-8.716v1.525c0 6.753-5.474 12.227-12.227 12.227h-1.524z" fill="#fff"/></g></g><g><g><g><path d="m95.921 137.685h1.524c6.753 0 12.227 5.474 12.227 12.227v1.524h8.716v-1.524c0-6.753 5.474-12.227 12.227-12.227h1.525v-8.716h-1.525c-6.753 0-12.227-5.474-12.227-12.227v-1.525h-8.716v1.525c0 6.753-5.474 12.227-12.227 12.227h-1.524z" fill="#fff"/></g></g><g><g><path d="m379.861 137.685h1.524c6.753 0 12.227 5.474 12.227 12.227v1.524h8.716v-1.524c0-6.753 5.474-12.227 12.227-12.227h1.525v-8.716h-1.525c-6.753 0-12.227-5.474-12.227-12.227v-1.525h-8.716v1.525c0 6.753-5.474 12.227-12.227 12.227h-1.524z" fill="#fff"/></g></g></g><g><g><g><path d="m85.729 384.419h1.524c6.753 0 12.227 5.474 12.227 12.227v1.524h8.716v-1.524c0-6.753 5.474-12.227 12.227-12.227h1.525v-8.716h-1.525c-6.753 0-12.227-5.474-12.227-12.227v-1.525h-8.716v1.525c0 6.753-5.474 12.227-12.227 12.227h-1.524z" fill="#fff"/></g></g><g><g><path d="m390.053 384.419h1.524c6.753 0 12.227 5.474 12.227 12.227v1.524h8.716v-1.524c0-6.753 5.474-12.227 12.227-12.227h1.525v-8.716h-1.525c-6.753 0-12.227-5.474-12.227-12.227v-1.525h-8.716v1.525c0 6.753-5.474 12.227-12.227 12.227h-1.524z" fill="#fff"/></g></g></g><g><g><g><path d="m28.859 260.358h1.524c6.753 0 12.227 5.474 12.227 12.227v1.524h8.716v-1.524c0-6.753 5.474-12.227 12.227-12.227h1.525v-8.716h-1.525c-6.753 0-12.227-5.474-12.227-12.227v-1.525h-8.716v1.525c0 6.753-5.474 12.227-12.227 12.227h-1.524z" fill="#fff"/></g></g><g><g><path d="m447.59 260.358h1.524c6.753 0 12.227 5.474 12.227 12.227v1.524h8.716v-1.524c0-6.753 5.474-12.227 12.227-12.227h1.525v-8.716h-1.525c-6.753 0-12.227-5.474-12.227-12.227v-1.525h-8.716v1.525c0 6.753-5.474 12.227-12.227 12.227h-1.524z" fill="#fff"/></g></g></g><g><g><g><path d="m203.288 489.432.019.354c.565 10.335 9.11 18.425 19.461 18.425h6.59c10.488 0 19.095-8.299 19.477-18.78l3.442-94.47c.261-7.123-5.45-13.04-12.573-13.04h-29.022c-7.22 0-12.964 6.058-12.562 13.268z" fill="#ffc0a4"/><path d="m282.643 508.211h6.59c10.35 0 18.895-8.09 19.461-18.425l.019-.354 5.136-93.59c.413-7.557-5.602-13.919-13.17-13.919h-27.741c-7.481 0-13.463 6.21-13.192 13.68l3.42 93.829c.382 10.48 8.989 18.779 19.477 18.779z" fill="#ffa87a"/></g><g><path d="m321.906 163.538c0 17.341-6.703 33.121-17.647 44.889 13.731 24.532-.306 62.316-36.156 62.316h-24.158c-26.791 0-41.298-20.845-41.298-41.643 0-7.134 1.714-14.267 5.218-20.539-11.021-11.777-17.772-27.605-17.772-45.023v-15.914c0-36.424 29.243-66.5 65.676-66.624h.231c36.395 0 65.906 29.511 65.906 65.906z" fill="#f4863d"/><path d="m321.906 163.538c0 17.341-6.703 33.121-17.647 44.889 13.731 24.532-.306 62.316-36.156 62.316h-12.103v-189.743c36.395 0 65.906 29.511 65.906 65.906z" fill="#c55732"/><path d="m345.243 206.002c-13.717 0-27.239 3.246-39.461 9.474l-17.483 8.908c-19.827 10.102-32.311 30.474-32.311 52.726 0 17.947 10.068 34.377 26.059 42.525l14.101 7.185c9.857 5.023 20.763 7.641 31.827 7.641 15.837 0 28.676-12.839 28.676-28.676 0-15.837-12.839-28.676-28.676-28.676h17.268c19.636 0 35.554-15.918 35.554-35.554 0-19.635-15.918-35.553-35.554-35.553z" fill="#d1f6ff"/><path d="m166.742 206.002c13.717 0 27.239 3.246 39.461 9.474l17.483 8.908c19.827 10.102 32.311 30.474 32.311 52.726 0 17.947-10.068 34.377-26.06 42.525l-14.101 7.185c-9.857 5.023-20.764 7.641-31.827 7.641-15.837 0-28.676-12.839-28.676-28.676 0-15.837 12.839-28.676 28.676-28.676h-17.268c-19.636 0-35.554-15.918-35.554-35.554.001-19.635 15.92-35.553 35.555-35.553z" fill="#fff"/></g><path d="m430.623 257.261c0 9.432-7.641 17.073-17.073 17.073-5.745 0-11.145 2.231-15.215 6.3l-7.201 7.201c-9.422 9.422-21.937 15.158-35.227 16.144-1.379.105-2.758.153-4.127.153-11.883 0-23.498-3.801-33.111-10.916l-25.097-18.576-37.572 29.166-.01.01-37.564-29.176-25.097 18.576c-9.604 7.114-21.228 10.916-33.111 10.916-1.379 0-2.748-.048-4.127-.153-13.29-.986-25.805-6.722-35.227-16.144l-7.201-7.201c-4.069-4.069-9.47-6.3-15.215-6.3-9.432 0-17.073-7.641-17.073-17.073 0-9.422 7.641-17.073 17.073-17.073 14.861 0 28.84 5.793 39.354 16.307l7.201 7.201c7.478 7.469 19.514 8.369 28.017 2.078l44.64-33.035c.824-.603 1.676-1.111 2.557-1.551 7.421-6.186 16.967-9.91 27.385-9.91h16.795c10.418 0 19.964 3.725 27.385 9.91.881.441 1.733.948 2.557 1.551l44.64 33.035c8.493 6.291 20.539 5.4 28.017-2.078l7.201-7.201c10.514-10.514 24.493-16.307 39.354-16.307 9.431 0 17.072 7.651 17.072 17.073z" fill="#ffc0a4"/><path d="m430.623 257.261c0 9.432-7.641 17.073-17.073 17.073-5.745 0-11.145 2.231-15.215 6.3l-7.201 7.201c-9.422 9.422-21.937 15.158-35.227 16.144-1.379.105-2.758.153-4.127.153-11.883 0-23.498-3.801-33.111-10.916l-25.097-18.576-37.572 29.166v-82.529h8.397c10.418 0 19.964 3.725 27.385 9.91.881.441 1.733.948 2.557 1.551l44.64 33.035c8.493 6.291 20.539 5.4 28.017-2.078l7.201-7.201c10.514-10.514 24.493-16.307 39.354-16.307 9.431.001 17.072 7.652 17.072 17.074z" fill="#ffa87a"/><g><g><g><g><g><g><path d="m277.936 204.72v13.985c0 11.729-9.128 21.651-20.848 22.121-.366.015-.732.022-1.1.022h-.007c-.363 0-.724-.007-1.085-.021-11.721-.463-20.851-10.391-20.851-22.12v-13.987z" fill="#ffa87a"/><path d="m277.936 204.72v13.985c0 11.729-9.128 21.651-20.848 22.121-.366.015-.732.022-1.1.022v-36.128z" fill="#e3835a"/></g><path d="m339.281 132.832-24.972 15.892v-.005c-11.067 0-21.573-3.225-30.464-8.927-1.502-.963-2.958-1.997-4.362-3.099-6.687-5.248-14.986-8.019-23.487-8.019-8.612 0-16.935 2.943-23.743 8.218-9.67 7.492-21.739 11.827-34.559 11.827v.005l-24.972-15.892c-2.976-1.89-6.7.943-5.666 4.316l3.159 10.277c4.209 13.701 15.102 23.948 28.437 27.626 4.978 27.137 28.752 47.722 57.337 47.732h.01c28.594-.005 52.369-20.59 57.347-47.732 13.339-3.679 24.233-13.925 28.442-27.626l3.154-10.277c1.039-3.373-2.686-6.206-5.661-4.316z" fill="#ffc0a4"/><path d="m344.941 137.148-3.154 10.277c-4.209 13.701-15.102 23.948-28.442 27.626-4.978 27.142-28.752 47.727-57.347 47.732-.005 0-.005 0-.01 0v-94.109h.003c8.491 0 16.784 2.761 23.465 8.001 1.413 1.108 2.877 2.148 4.388 3.116 8.891 5.702 19.398 8.927 30.464 8.927v.005l24.972-15.892c2.976-1.889 6.701.944 5.661 4.317z" fill="#ffa87a"/><g><g fill="#323b5a"><path d="m244.869 167.268c0 3.965-3.214 7.179-7.179 7.179s-7.179-3.214-7.179-7.179 3.214-7.179 7.179-7.179c3.964 0 7.179 3.214 7.179 7.179z"/><path d="m281.452 167.268c0 3.965-3.214 7.179-7.179 7.179s-7.179-3.214-7.179-7.179 3.214-7.179 7.179-7.179 7.179 3.214 7.179 7.179z"/></g></g><g><path d="m247.788 152.897c-1.664-3.934-5.559-6.694-10.098-6.694-4.54 0-8.435 2.76-10.099 6.694z" fill="#234177"/><path d="m284.372 152.897c-1.664-3.934-5.559-6.694-10.099-6.694s-8.435 2.76-10.099 6.694z" fill="#323b5a"/></g></g></g></g></g></g><g><path d="m273.172 186.991c5.074 0 7.776 6.088 4.286 9.772-2.187 2.308-4.742 4.263-7.57 5.77-4.137 2.216-8.865 3.468-13.887 3.468-5.023 0-9.75-1.252-13.887-3.468-2.829-1.507-5.383-3.462-7.57-5.77-3.49-3.684-.788-9.772 4.286-9.772z" fill="#323b5a"/><path d="m269.887 202.534c-4.137 2.216-8.865 3.468-13.887 3.468-5.023 0-9.75-1.252-13.887-3.468 3.454-3.742 8.397-6.087 13.887-6.087s10.434 2.345 13.887 6.087z" fill="#e32644"/><path d="m269.879 202.536c-4.135 2.215-8.86 3.466-13.879 3.466v-9.556c5.488 0 10.426 2.349 13.879 6.09z" fill="#bc0e5c"/></g><g><g fill="#b6e337"><path d="m200.47 130.208c-.721-2.023-1.894-3.924-3.516-5.549-3.22-3.22-7.542-4.669-11.751-4.345-.323 4.213 1.126 8.531 4.346 11.751.456.456.935.877 1.431 1.265-.496.384-.976.806-1.431 1.262-3.22 3.22-4.669 7.542-4.346 11.751 4.21.323 8.531-1.126 11.751-4.345 1.622-1.622 2.795-3.523 3.516-5.546.004-.01.007-.02.011-.031.709-1.994.709-4.188 0-6.182-.004-.011-.007-.021-.011-.031z"/><path d="m218.799 130.208c-.721-2.023-1.894-3.924-3.516-5.549-3.22-3.22-7.542-4.669-11.751-4.345-.323 4.213 1.126 8.531 4.345 11.751.456.456.935.877 1.431 1.265-.496.384-.976.806-1.431 1.262-3.22 3.22-4.668 7.542-4.345 11.751 4.21.323 8.531-1.126 11.751-4.345 1.622-1.622 2.795-3.523 3.516-5.546.004-.01.007-.02.011-.031.709-1.994.709-4.188 0-6.182-.003-.011-.007-.021-.011-.031z"/><path d="m237.128 125.555c-.721-2.023-1.894-3.924-3.516-5.549-3.22-3.22-7.542-4.669-11.751-4.345-.323 4.213 1.126 8.531 4.345 11.751.456.456.935 5.531 1.432 5.918-.496.384-.976-3.847-1.432-3.392-3.22 3.22-4.668 7.542-4.345 11.751 4.209.323 8.531-1.126 11.751-4.346 1.622-1.622 2.795-3.523 3.516-5.546.004-.01.007-.02.011-.03.709-1.994.709-4.188 0-6.182-.003-.01-.007-.02-.011-.03z"/><path d="m255.458 130.208c-.721-2.023-1.894-3.924-3.516-5.549-3.22-3.22-7.542-4.669-11.751-4.345-.323 4.213 1.125 8.531 4.345 11.751.456.456.935.877 1.432 1.265-.496.384-.976.806-1.432 1.262-3.22 3.22-4.668 7.542-4.345 11.751 4.209.323 8.531-1.126 11.751-4.345 1.622-1.622 2.795-3.523 3.516-5.546.004-.01.007-.02.011-.031.708-1.994.708-4.188 0-6.182-.004-.011-.008-.021-.011-.031z"/></g><g fill="#6cdc2d"><path d="m311.53 130.208c.721-2.023 1.894-3.924 3.516-5.549 3.22-3.22 7.542-4.669 11.751-4.345.323 4.213-1.126 8.531-4.346 11.751-.456.456-.935.877-1.431 1.265.496.384.976.806 1.431 1.262 3.22 3.22 4.669 7.542 4.346 11.751-4.21.323-8.531-1.126-11.751-4.345-1.622-1.622-2.795-3.523-3.516-5.546-.004-.01-.007-.02-.011-.031-.709-1.994-.709-4.188 0-6.182.004-.011.007-.021.011-.031z"/><path d="m293.201 130.208c.721-2.023 1.894-3.924 3.516-5.549 3.22-3.22 7.542-4.669 11.751-4.345.323 4.213-1.125 8.531-4.345 11.751-.456.456-.935.877-1.431 1.265.496.384.976.806 1.431 1.262 3.22 3.22 4.668 7.542 4.345 11.751-4.21.323-8.531-1.126-11.751-4.345-1.622-1.622-2.795-3.523-3.516-5.546-.004-.01-.007-.02-.011-.031-.709-1.994-.709-4.188 0-6.182.003-.011.007-.021.011-.031z"/><path d="m274.871 130.208c.721-2.023 1.894-3.924 3.516-5.549 3.22-3.22 7.542-4.669 11.751-4.345.323 4.213-1.125 8.531-4.345 11.751-.456.456-.935.877-1.431 1.265.496.384.976.806 1.431 1.262 3.22 3.22 4.668 7.542 4.345 11.751-4.209.323-8.531-1.126-11.751-4.345-1.622-1.622-2.795-3.523-3.516-5.546-.004-.01-.007-.02-.011-.031-.709-1.994-.709-4.188 0-6.182.004-.011.008-.021.011-.031z"/><path d="m256.542 130.208c.721-2.023 1.894-3.924 3.516-5.549 3.22-3.22 7.542-4.669 11.751-4.345.323 4.213-1.125 8.531-4.345 11.751-.456.456-.935.877-1.432 1.265.496.384.976.806 1.432 1.262 3.22 3.22 4.668 7.542 4.345 11.751-4.209.323-8.531-1.126-11.751-4.345-1.622-1.622-2.795-3.523-3.516-5.546-.004-.01-.007-.02-.011-.031-.708-1.994-.708-4.188 0-6.182.004-.011.008-.021.011-.031z"/></g></g><path d="m315.596 368.936v12.984h-119.192v-12.984c0-7.909.756-15.78 2.241-23.517 1.494-7.727 3.715-15.32 6.655-22.664 4.041-10.092 3.821-21.382-.584-31.321-2.576-5.793-3.84-11.969-3.84-18.116v-.766c0-7.201 2.921-13.731 7.641-18.451 4.721-4.721 11.251-7.641 18.451-7.641 9.317 0 17.934 4.969 22.598 13.041l6.434 11.146 6.435-11.146c2.336-4.031 5.649-7.296 9.547-9.546 3.907-2.25 8.388-3.495 13.051-3.495 14.411 0 26.092 11.682 26.092 26.092v.756c0 6.157-1.264 12.333-3.84 18.135-4.405 9.93-4.615 21.219-.584 31.301l.01.01c5.869 14.69 8.885 30.364 8.885 46.182z" fill="#b6e337"/><path d="m315.596 368.936v12.984h-59.596v-111.273l6.435-11.146c2.336-4.031 5.649-7.296 9.547-9.546 3.907-2.25 8.388-3.495 13.051-3.495 14.411 0 26.092 11.682 26.092 26.092v.756c0 6.157-1.264 12.333-3.84 18.135-4.405 9.93-4.615 21.219-.584 31.301l.01.01c5.869 14.69 8.885 30.364 8.885 46.182z" fill="#6cdc2d"/><path d="m310.704 397.776h-109.406c-7.551 0-13.672-6.121-13.672-13.672v-4.362c0-7.551 6.121-13.672 13.672-13.672h109.405c7.551 0 13.672 6.121 13.672 13.672v4.362c0 7.551-6.121 13.672-13.671 13.672z" fill="#fff"/></g><path d="m248.83 489.43-.81 22.44c-14.95-.45-29.58-2.19-43.78-5.11l-.95-17.33z" fill="#6cdc2d"/><path d="m308.71 489.43-.95 17.33c-14.2 2.92-28.83 4.66-43.78 5.11l-.81-22.44z" fill="#53af17"/></g></g></svg>