<svg id="Capa_1" enable-background="new 0 0 512 512" height="512" viewBox="0 0 512 512" width="512" xmlns="http://www.w3.org/2000/svg"><g><g><path d="m512 256c0 41.24-9.75 80.2-27.09 114.71l-17.66 29.92c-46.12 67.25-123.54 111.37-211.25 111.37s-165.13-44.12-211.25-111.37h.01l-17.67-29.92c-17.34-34.51-27.09-73.47-27.09-114.71 0-141.38 114.62-256 256-256s256 114.62 256 256z" fill="#65b2fe"/><path d="m512 256c0 41.24-9.75 80.2-27.09 114.71l-17.64 29.89-.02.03c-17.59 25.65-39.73 47.93-65.25 65.68-41.41 28.8-91.73 45.69-146 45.69s-104.59-16.89-146-45.69c-25.52-17.75-47.66-40.03-65.24-65.68l-17.67-29.92c-17.34-34.51-27.09-73.47-27.09-114.71 0-46.22 12.25-89.57 33.68-127 44.12 77.07 127.16 129 222.32 129s178.21-51.93 222.32-129c21.43 37.43 33.68 80.78 33.68 127z" fill="#159de4"/></g><g><g><path d="m496.8 343.07c-3.43 9.49-7.4 18.71-11.89 27.64l-17.18 29.1h-81.93c0-71.69-58.11-129.8-129.79-129.8h-.01c-71.69.01-129.8 58.11-129.8 129.8l-66.903-15.017-32.207-14.083c-4.5-8.93-8.47-18.15-11.89-27.64 25.64-109.25 123.71-190.6 240.8-190.61h.01c117.08 0 215.15 81.35 240.79 190.61z" fill="#de1263"/><path d="m496.76 343.03c-3.43 9.49-7.4 18.71-11.89 27.64l-24.315 21.965-74.795 7.135c0-71.69-58.11-129.8-129.79-129.8h-.01v-117.55h.01c117.08 0 215.15 81.35 240.79 190.61z" fill="#bc0e5c"/><path d="m465.29 399.81h-79.49c0-71.69-58.11-129.8-129.79-129.8h-.01c-71.69.01-129.8 58.11-129.8 129.8h-79.49c0-115.58 93.69-209.28 209.29-209.29h.01c115.58 0 209.28 93.71 209.28 209.29z" fill="#ffe400"/><path d="m465.29 399.81h-79.49c0-71.69-58.11-129.8-129.79-129.8h-.01v-79.49h.01c115.58 0 209.28 93.71 209.28 209.29z" fill="#ffc300"/><path d="m426.36 399.81h-40.56c0-71.69-58.11-129.8-129.79-129.8h-.01c-71.69.01-129.8 58.11-129.8 129.8h-40.56c0-94.08 76.26-170.34 170.36-170.35h.01c94.08 0 170.35 76.27 170.35 170.35z" fill="#b6e337"/><path d="m426.36 399.81h-40.56c0-71.69-58.11-129.8-129.79-129.8h-.01v-40.55h.01c94.08 0 170.35 76.27 170.35 170.35z" fill="#6cdc2d"/></g><g><g><path d="m170.24 400.28c0 .12-.01.23-.01.35h-125.47c-.2-.27-.38-.55-.57-.82-6.32-9.28-12.04-19-17.1-29.1 7.25-18.67 25.38-31.89 46.61-31.89 18.78 0 35.14 10.36 43.68 25.67 4.43-1.77 9.26-2.75 14.31-2.75 21.29 0 38.55 17.25 38.55 38.54z" fill="#fff"/><path d="m132.63 400.43c0 .07-.01.13-.01.2h-87.86c-.2-.27-.38-.55-.57-.82-2.06-3.03-4.06-6.11-5.99-9.23 2.43-1.48 5.29-2.33 8.36-2.33.79 0 1.56.06 2.31.17 2.54-13.29 14.22-23.34 28.24-23.34 10.8 0 20.21 5.96 25.12 14.77 2.55-1.02 5.32-1.59 8.23-1.59 12.24 0 22.17 9.93 22.17 22.17z" fill="#d0f6ff"/></g><g><path d="m484.91 370.71c-5.21 10.4-11.12 20.39-17.66 29.92h-125.48c0-.12-.01-.23-.01-.35 0-21.29 17.26-38.54 38.55-38.54 5.05 0 9.88.98 14.31 2.75 8.54-15.31 24.9-25.67 43.68-25.67 21.23 0 39.36 13.22 46.61 31.89z" fill="#fff"/><path d="m473.8 390.58c-2.1 3.4-4.29 6.75-6.55 10.05h-87.87c0-.07-.01-.13-.01-.2 0-12.24 9.93-22.17 22.17-22.17 2.91 0 5.68.57 8.23 1.59 4.91-8.81 14.32-14.77 25.12-14.77 14.02 0 25.7 10.05 28.24 23.34.75-.11 1.52-.17 2.31-.17 3.07 0 5.93.85 8.36 2.33z" fill="#d0f6ff"/></g></g><g><g><path d="m218.182 116.816c.001-.092.007-.182.007-.273 0-16.765-13.591-30.356-30.356-30.356-3.983 0-7.783.775-11.268 2.17-6.731-12.06-19.612-20.22-34.404-20.22-19.209 0-35.197 13.757-38.672 31.953-1.036-.148-2.094-.229-3.17-.229-10.444 0-19.194 7.23-21.533 16.956h139.396z" fill="#fff"/><path d="m188.563 116.816c0-.053.004-.104.004-.157 0-9.641-7.815-17.456-17.456-17.456-2.29 0-4.475.446-6.479 1.247-3.871-6.935-11.277-11.627-19.783-11.627-11.046 0-20.239 7.91-22.237 18.374-.596-.085-1.204-.132-1.823-.132-6.006 0-11.037 4.157-12.382 9.75h80.156z" fill="#d0f6ff"/></g><g><path d="m293.819 116.816c-.001-.092-.007-.182-.007-.273 0-16.765 13.591-30.356 30.357-30.356 3.983 0 7.783.775 11.268 2.17 6.732-12.06 19.612-20.22 34.404-20.22 19.209 0 35.197 13.757 38.672 31.953 1.036-.148 2.094-.229 3.171-.229 10.444 0 19.194 7.23 21.533 16.956h-139.398z" fill="#fff"/><path d="m323.437 116.816c0-.053-.004-.104-.004-.157 0-9.641 7.815-17.456 17.456-17.456 2.29 0 4.475.446 6.479 1.247 3.871-6.935 11.277-11.627 19.783-11.627 11.046 0 20.239 7.91 22.237 18.374.596-.085 1.204-.132 1.823-.132 6.006 0 11.037 4.157 12.382 9.75h-80.156z" fill="#d0f6ff"/></g></g><g><path d="m202.235 460.043c0-.071-.005-.14-.005-.211 0-12.933 10.485-23.418 23.418-23.418 3.072 0 6.004.598 8.692 1.674 5.193-9.303 15.129-15.598 26.54-15.598 14.819 0 27.152 10.612 29.833 24.65.799-.115 1.615-.177 2.446-.177 8.057 0 14.807 5.577 16.611 13.08z" fill="#fff"/><path d="m225.084 460.043c0-.041-.003-.081-.003-.121 0-7.437 6.029-13.466 13.466-13.466 1.767 0 3.452.344 4.998.962 2.986-5.35 8.7-8.969 15.261-8.969 8.521 0 15.613 6.102 17.155 14.174.459-.066.929-.102 1.406-.102 4.633 0 8.514 3.207 9.552 7.522z" fill="#d0f6ff"/></g></g></g></svg>