<svg id="Capa_1" enable-background="new 0 0 512 512" height="512" viewBox="0 0 512 512" width="512" xmlns="http://www.w3.org/2000/svg"><g><g><path d="m512 256c0 86.79-43.19 163.49-109.25 209.78l-55.8 29.59c-28.26 10.75-58.92 16.63-90.95 16.63s-62.69-5.88-90.95-16.63l-41.96-20.54h-.01c-73.8-44.93-123.08-126.12-123.08-218.83 0-141.38 114.62-256 256-256s256 114.62 256 256z" fill="#65b2fe"/><path d="m512 256c0 86.78-43.19 163.49-109.25 209.78l-55.79 29.59h-.01c-28.26 10.75-58.92 16.63-90.95 16.63s-62.69-5.88-90.95-16.63h-.01l-41.93-20.53-.03-.01c-4.45-2.71-8.81-5.55-13.08-8.52-66.48-46.24-110-123.2-110-210.31 0-46.22 12.25-89.57 33.68-127 44.12 77.07 127.16 129 222.32 129s178.21-51.93 222.32-129c21.43 37.43 33.68 80.78 33.68 127z" fill="#159de4"/></g><g><g><g><path d="m406.75 128.19v334.74c-1.32.96-2.66 1.92-4 2.85-17.17 12.04-35.89 22.02-55.8 29.59-12.38 4.7-25.22 8.48-38.43 11.24-16.95 3.53-34.52 5.39-52.52 5.39s-35.57-1.86-52.52-5.39c-13.21-2.76-26.05-6.54-38.43-11.24l-41.97-20.54c-4.37-2.66-8.64-5.45-12.83-8.36-.39-.26-.78-.53-1.16-.8-1.29-.9-2.57-1.82-3.84-2.75v-319.94c0-17.35 14.07-31.42 31.42-31.42h253.45c9.19 0 16.63 7.45 16.63 16.63z" fill="#234177"/><path d="m396.836 139.358v297.402h-250.247v-312.812h234.838c8.51 0 15.409 6.9 15.409 15.41z" fill="#f4863d"/><path d="m376.998 149.423v270.331h-158.844v-284.339h144.836c7.737 0 14.008 6.272 14.008 14.008z" fill="#c55732"/><path d="m394.19 139.971v291.111h-122.477v-306.195h107.393c8.33 0 15.084 6.753 15.084 15.084z" fill="#a63917"/><path d="m339.232 284.501c0 37.297-30.235 67.521-67.521 67.521s-67.521-30.224-67.521-67.521c0-37.286 30.235-67.51 67.521-67.51s67.521 30.224 67.521 67.51z" fill="#ffc300"/><path d="m339.232 284.501c0 37.297-30.235 67.521-67.521 67.521v-135.031c37.286 0 67.521 30.224 67.521 67.51z" fill="#ff9f00"/><path d="m390.123 111.563h-253.443v337.584h270.074v-320.965c0-9.18-7.451-16.619-16.631-16.619zm-17.185 303.768h-202.442v-269.952h202.442z" fill="#4e689b"/><path d="m406.754 128.182v320.964h-188.594v-33.816h154.778v-269.951h-154.778v-33.816h171.963c9.18 0 16.631 7.439 16.631 16.619z" fill="#374c81"/><path d="m271.711 230.218c-29.525 0-53.551 24.026-53.551 53.562 0 29.525 24.026 53.551 53.551 53.551 29.536 0 53.562-24.026 53.562-53.551 0-29.536-24.026-53.562-53.562-53.562zm31.078 29.803h-17.085l-8.67-15.012c10.465 1.43 19.623 6.996 25.755 15.012zm-36.4-15.013-8.67 15.012h-17.085c6.142-8.015 15.289-13.581 25.755-15.012zm-33.816 38.772c0-4.9.909-9.59 2.561-13.914l8.449 14.635-8.116 14.048c-1.863-4.557-2.894-9.546-2.894-14.769zm9.225 25.213h15.921l7.75 13.427c-9.435-1.519-17.751-6.431-23.671-13.427zm24.248-14.414-5.821-10.078 5.821-10.067h11.342l5.81 10.067-5.81 10.078zm11.907 27.84 7.75-13.427h15.921c-5.909 6.997-14.236 11.909-23.671 13.427zm30.002-23.87-8.116-14.048 8.46-14.635c1.641 4.324 2.561 9.014 2.561 13.914 0 5.223-1.042 10.212-2.905 14.769z" fill="#ffe400"/><g><g><g><path d="m142.861 216.253c-11.2 0-21.353-4.479-28.766-11.744 7.413-7.267 17.567-11.744 28.766-11.744 10.199 0 19.531 3.712 26.715 9.865.575.494.863 1.186.863 1.879s-.288 1.385-.863 1.879c-7.184 6.151-16.516 9.865-26.715 9.865z" fill="#ffc300"/><path d="m142.861 216.253c-11.2 0-21.353-4.479-28.766-11.744h56.344c0 .693-.288 1.385-.863 1.879-7.184 6.151-16.516 9.865-26.715 9.865z" fill="#ff9f00"/><path d="m141.417 243.044v-.315c-.072-12.784-10.507-23.088-23.291-23.088h-12.878v-30.265h12.878c12.784 0 23.219-10.304 23.291-23.088v-.317c-.002-2.574 2.982-3.97 4.953-2.312 6.03 5.075 9.865 12.681 9.865 21.183 0 7.689-3.146 14.65-8.217 19.666 5.071 5.019 8.217 11.978 8.217 19.666 0 7.643-3.098 14.56-8.104 19.568-.564.564-1.149 1.101-1.759 1.615-1.973 1.66-4.957.266-4.955-2.313z" fill="#ffe400"/></g><path d="m141.417 243.044v-.315c-.072-12.784-10.507-23.088-23.291-23.088h-12.878v-15.133h42.77c5.071 5.019 8.217 11.978 8.217 19.666 0 7.643-3.098 14.56-8.104 19.568-.564.564-1.149 1.101-1.759 1.615-1.973 1.66-4.957.266-4.955-2.313z" fill="#ffc300"/></g><g><g><path d="m143.486 364.798c-11.2 0-21.353-4.479-28.766-11.744 7.413-7.267 17.567-11.744 28.766-11.744 10.199 0 19.531 3.712 26.715 9.865.575.494.863 1.186.863 1.879s-.288 1.385-.863 1.879c-7.184 6.151-16.515 9.865-26.715 9.865z" fill="#ffc300"/><path d="m143.486 364.798c-11.2 0-21.353-4.479-28.766-11.744h56.344c0 .693-.288 1.385-.863 1.879-7.184 6.151-16.515 9.865-26.715 9.865z" fill="#ff9f00"/><path d="m142.042 391.59v-.315c-.072-12.784-10.507-23.088-23.291-23.088h-13.5v-30.265h13.5c12.784 0 23.219-10.304 23.291-23.088v-.317c-.002-2.574 2.982-3.97 4.953-2.312 6.03 5.076 9.865 12.681 9.865 21.183 0 7.689-3.146 14.65-8.217 19.666 5.071 5.019 8.217 11.978 8.217 19.666 0 7.643-3.098 14.56-8.104 19.568-.564.564-1.149 1.101-1.759 1.615-1.972 1.659-4.957.265-4.955-2.313z" fill="#ffe400"/></g><path d="m142.042 391.59v-.315c-.072-12.784-10.507-23.088-23.291-23.088h-13.5v-15.133h43.391c5.071 5.019 8.217 11.978 8.217 19.666 0 7.643-3.098 14.56-8.104 19.568-.564.564-1.149 1.101-1.759 1.615-1.971 1.659-4.956.265-4.954-2.313z" fill="#ffc300"/></g></g></g><path d="m271.711 230.218v44.216h5.677l5.81 10.067-5.81 10.078h-5.677v42.753c29.536 0 53.562-24.026 53.562-53.551 0-29.537-24.026-53.563-53.562-53.563zm5.322 14.79c10.466 1.43 19.624 6.996 25.756 15.012h-17.085zm.92 77.411 7.75-13.427h15.921c-5.909 6.997-14.236 11.909-23.671 13.427zm30.002-23.87-8.116-14.048 8.46-14.635c1.641 4.324 2.561 9.014 2.561 13.914 0 5.223-1.042 10.212-2.905 14.769z" fill="#ffc300"/><path d="m406.75 454.53v8.4c-1.32.96-2.66 1.92-4 2.85-17.17 12.04-35.89 22.02-55.8 29.59-12.38 4.7-25.22 8.48-38.43 11.24h-105.04c-13.21-2.76-26.05-6.54-38.43-11.24-14.69-5.58-28.73-12.48-41.97-20.54-4.37-2.66-8.64-5.45-12.83-8.36 5.6-7.18 15.35-11.94 26.43-11.94z" fill="#fff"/><path d="m406.75 454.53v8.4c-1.32.96-2.66 1.92-4 2.85-17.17 12.04-35.89 22.02-55.8 29.59-12.38 4.7-25.22 8.48-38.43 11.24h-90.36v-52.08z" fill="#d1f6ff"/><path d="m406.75 454.53v8.4c-1.32.96-2.66 1.92-4 2.85-17.17 12.04-35.89 22.02-55.8 29.59-12.38 4.7-25.22 8.48-38.43 11.24h-36.81v-52.08z" fill="#8fc8f5"/><path d="m137.33 449.15c-12.03 0-22.76 6.63-28.24 16.52.38.27.77.54 1.16.8.05.03.1.07.15.1.93.65 1.87 1.29 2.81 1.93.28.18.56.37.84.55.84.57 1.69 1.13 2.54 1.69 2.14 1.39 4.3 2.76 6.49 4.09 2.33-5.37 7.85-9.05 14.03-9.05h265.64c1.34-.93 2.68-1.89 4-2.85v-13.78zm27.72 46.22c28.26 10.75 58.92 16.63 90.95 16.63s62.69-5.88 90.95-16.63z" fill="#374c81"/><path d="m346.95 495.37c-12.38 4.7-25.22 8.48-38.43 11.24-16.95 3.53-34.52 5.39-52.52 5.39-12.86 0-25.49-.95-37.84-2.79v-13.84z" fill="#234177"/><path d="m406.75 449.15v13.78c-1.32.96-2.66 1.92-4 2.85h-184.59v-16.63z" fill="#234177"/><path d="m406.754 128.182v320.964h-135.043v-33.816h101.226v-269.951h-101.226v-33.816h118.412c9.18 0 16.631 7.439 16.631 16.619z" fill="#234177"/><path d="m346.95 495.37c-12.38 4.7-25.22 8.48-38.43 11.24-11.98 2.5-24.27 4.16-36.81 4.91v-16.15z" fill="#323b5a"/><path d="m406.75 449.15v13.78c-1.32.96-2.66 1.92-4 2.85h-131.04v-16.63z" fill="#323b5a"/><g fill="#f4863d"><path d="m122.811 204.51c0 2.869-2.326 5.195-5.195 5.195s-5.195-2.326-5.195-5.195 2.326-5.195 5.195-5.195c2.87 0 5.195 2.326 5.195 5.195z"/><path d="m142.892 204.51c0 2.869-2.326 5.195-5.195 5.195s-5.195-2.326-5.195-5.195 2.326-5.195 5.195-5.195 5.195 2.326 5.195 5.195z"/><path d="m122.811 353.055c0 2.869-2.326 5.195-5.195 5.195s-5.195-2.326-5.195-5.195 2.326-5.195 5.195-5.195c2.87 0 5.195 2.325 5.195 5.195z"/><path d="m142.892 353.055c0 2.869-2.326 5.195-5.195 5.195s-5.195-2.326-5.195-5.195 2.326-5.195 5.195-5.195 5.195 2.325 5.195 5.195z"/></g></g><g><g><path d="m237.891 43.954h1.524c6.753 0 12.227 5.474 12.227 12.227v1.524h8.716v-1.524c0-6.753 5.474-12.227 12.227-12.227h1.525v-8.716h-1.525c-6.753 0-12.227-5.474-12.227-12.227v-1.525h-8.716v1.525c0 6.753-5.474 12.227-12.227 12.227h-1.524z" fill="#fff"/></g></g><g><g><g><g><path d="m95.921 89.462h1.524c6.753 0 12.227 5.474 12.227 12.227v1.524h8.716v-1.524c0-6.753 5.474-12.227 12.227-12.227h1.525v-8.716h-1.525c-6.753 0-12.227-5.474-12.227-12.227v-1.525h-8.716v1.525c0 6.753-5.474 12.227-12.227 12.227h-1.524z" fill="#fff"/></g></g><g><g><path d="m379.861 89.462h1.524c6.753 0 12.227 5.474 12.227 12.227v1.524h8.716v-1.524c0-6.753 5.474-12.227 12.227-12.227h1.525v-8.716h-1.525c-6.753 0-12.227-5.474-12.227-12.227v-1.525h-8.716v1.525c0 6.753-5.474 12.227-12.227 12.227h-1.524z" fill="#fff"/></g></g></g><g><g><g><path d="m440.591 242.249h1.524c6.753 0 12.227 5.474 12.227 12.227v1.524h8.716v-1.524c0-6.753 5.474-12.227 12.227-12.227h1.525v-8.716h-1.525c-6.753 0-12.227-5.474-12.227-12.227v-1.525h-8.716v1.525c0 6.753-5.474 12.227-12.227 12.227h-1.524z" fill="#fff"/></g></g><g><g><path d="m35.191 242.249h1.524c6.753 0 12.227 5.474 12.227 12.227v1.524h8.716v-1.524c0-6.753 5.474-12.227 12.227-12.227h1.525v-8.716h-1.525c-6.753 0-12.227-5.474-12.227-12.227v-1.525h-8.716v1.525c0 6.753-5.474 12.227-12.227 12.227h-1.524z" fill="#fff"/></g></g></g></g></g></g></svg>