<svg id="Capa_1" enable-background="new 0 0 512 512" height="512" viewBox="0 0 512 512" width="512" xmlns="http://www.w3.org/2000/svg"><g><g><path d="m512 256.001c0 86.59-43 163.149-108.81 209.479l-.02.01-.009.003c-96.219 30.26-199.451 29.968-295.497-.835l-.024-.008c-65.15-46.41-107.64-122.57-107.64-208.65 0-141.444 114.713-256.103 256.191-256 141.023.103 255.809 114.978 255.809 256.001z" fill="#9e68e0"/><path d="m512 256c0 86.6-43.01 163.17-108.84 209.49-96.219 30.262-199.449 29.972-295.496-.829l-.004-.001-.02-.01c-65.15-46.41-107.64-122.58-107.64-208.65 0-46.22 12.25-89.57 33.68-127 44.12 77.07 127.16 129 222.32 129s178.21-51.93 222.32-129c21.43 37.43 33.68 80.78 33.68 127z" fill="#8e4dd3"/></g><g><g><path d="m403.19 465.48h-.01c-7.79 5.48-15.9 10.54-24.29 15.15-36.48 20-78.36 31.37-122.89 31.37h-.73c-55.02-.16-105.96-17.67-147.63-47.35 1.39-9.02 3.59-17.77 6.52-26.18 8.4-24.15 22.83-45.47 41.47-62.18.22-.21.45-.41.67-.61.05-.04.1-.08.15-.12 1.42-1.26 2.87-2.49 4.34-3.67 2.44-2.01 4.93-3.93 7.49-5.76.67-.48 1.34-.96 2.02-1.43.32-.22.64-.45.96-.65 3.25-2.22 6.59-4.32 10.02-6.28 3.12-1.79 6.32-3.47 9.58-5.03 8.51-4.07 17.45-7.37 26.75-9.78 12.21-3.18 25.03-4.85 38.25-4.81 23.28.08 45.29 5.47 64.9 15.03 3.25 1.58 6.43 3.28 9.54 5.1 11.42 6.62 21.86 14.71 31.1 24.01 15.83 15.94 28.08 35.42 35.48 57.14 2.85 8.37 4.98 17.08 6.31 26.05z" fill="#d1f6ff"/><path d="m403.18 465.48c-41.64 29.31-92.4 46.52-147.18 46.52h-.73l.59-173.85c23.28.08 45.29 5.47 64.9 15.03 15.17 7.39 28.88 17.27 40.64 29.11 21.93 22.09 37 50.96 41.78 83.19z" fill="#b3f4ff"/><path d="m396.88 439.43c-32.47 32.46-76.5 50.7-122.42 50.7h-36.92c-45.92 0-89.95-18.24-122.42-50.7l-.96-.96c8.4-24.15 22.83-45.47 41.47-62.18.22-.21.45-.41.67-.61l.15-.12c1.42-1.26 2.87-2.49 4.34-3.67 2.44-2.01 4.93-3.93 7.49-5.76.67-.48 1.34-.96 2.02-1.43.32-.22.64-.45.96-.65 3.25-2.22 6.59-4.32 10.02-6.28 3.12-1.79 6.32-3.47 9.58-5.03 8.51-4.07 17.45-7.37 26.75-9.78 12.21-3.18 25.03-4.85 38.25-4.81 23.28.08 45.29 5.47 64.9 15.03 3.25 1.58 6.43 3.28 9.54 5.1 11.42 6.62 21.86 14.71 31.1 24.01 15.83 15.94 28.08 35.42 35.48 57.14z" fill="#fff"/><path d="m396.88 439.43c-32.47 32.46-76.5 50.7-122.42 50.7h-19.11l.51-151.98c23.28.08 45.29 5.47 64.9 15.03 3.25 1.58 6.43 3.28 9.54 5.1 11.42 6.62 21.86 14.71 31.1 24.01 15.83 15.94 28.08 35.42 35.48 57.14z" fill="#d1f6ff"/><path d="m330.304 358.284-74.753 71.487-74.277-72.002c3.126-1.789 6.322-3.469 9.587-5.028 8.504-4.071 17.445-7.371 26.743-9.779 12.211-3.179 25.037-4.855 38.257-4.811 23.28.079 45.292 5.473 64.899 15.03 3.246 1.581 6.43 3.282 9.544 5.103z" fill="#b3f4ff"/><path d="m330.304 358.284-74.753 71.487.31-91.62c23.28.079 45.292 5.473 64.899 15.03 3.246 1.581 6.43 3.282 9.544 5.103z" fill="#8fc8f5"/><g><path d="m294.222 311.579-.165 48.755c-.069 20.445-16.04 37.688-36.472 38.436-.637.023-1.276.034-1.918.032h-.011c-.632-.002-1.262-.017-1.891-.044-20.428-.875-36.284-18.235-36.215-38.682l.165-48.756z" fill="#8fc8f5"/><path d="m294.222 311.579-.165 48.755c-.069 20.445-16.04 37.688-36.472 38.436-.637.023-1.276.034-1.918.032l.296-87.352z" fill="#65b2fe"/></g><g><g><g><g><g><g><g><g><g><g><g><g><g><g><g><g><g><g><g><g><g><g><path d="m358.099 170.622-.267 78.909c-.19 56.11-45.839 101.482-101.981 101.303h-.021c-56.131-.19-101.482-45.85-101.292-101.981l.267-78.92z" fill="#ffc0a4"/></g><path d="m358.099 170.622-.267 78.909c-.19 56.11-45.839 101.482-101.981 101.303l.611-180.556z" fill="#ffa87a"/><path d="m351.21 167.5v48l-55.88 6.02-10.5 1.13-12.22 1.31-10.5 1.13-5.84.63-.27.03-6.11-.66-10.5-1.13-12.22-1.31-10.5-1.13-55.88-6.02v-48l95.21-22.5.55.13z" fill="#b3f4ff"/><path d="m351.21 167.5v48l-94.94 10.22.28-80.59z" fill="#8fc8f5"/></g></g></g></g></g></g></g></g></g></g></g></g></g></g></g></g></g></g><g><g fill="#323b5a"><ellipse cx="224.261" cy="253.953" rx="12.514" ry="12.514" transform="matrix(.948 -.317 .317 .948 -68.953 84.217)"/><path d="m300.546 254.211c-.023 6.911-5.645 12.495-12.556 12.471-6.911-.023-12.495-5.645-12.471-12.556.023-6.911 5.645-12.495 12.556-12.472 6.91.024 12.494 5.646 12.471 12.557z"/></g><path d="m285.907 305.112c8.845.03 13.519 10.659 7.414 17.059-3.826 4.011-8.291 7.404-13.23 10.014-7.225 3.839-15.473 5.993-24.228 5.964-8.755-.03-16.988-2.24-24.187-6.128-4.922-2.644-9.364-6.066-13.162-10.103-6.062-6.442-1.316-17.038 7.529-17.008z" fill="#323b5a"/><path d="m280.09 332.185c-7.225 3.839-15.473 5.993-24.228 5.964-8.755-.03-16.988-2.24-24.187-6.128 6.043-6.502 14.673-10.562 24.243-10.529 9.57.032 18.173 4.15 24.172 10.693z" fill="#e32644"/></g><path d="m256.046 283.848c-4.265-.014-7.711-3.484-7.696-7.749l.112-33.155c.014-4.265 3.484-7.711 7.749-7.696 4.266.014 7.711 3.484 7.697 7.749l-.112 33.155c-.016 4.264-3.485 7.71-7.75 7.696z" fill="#e3835a"/></g><path d="m280.076 332.188c-7.222 3.837-15.464 5.99-24.212 5.96l.056-16.657c9.565.033 18.159 4.157 24.156 10.697z" fill="#bc0e5c"/></g></g></g><path d="m362.32 44.23c0 15.65-6.34 29.81-16.59 40.05-10.25 10.25-24.41 16.59-40.05 16.59h-15.46c-11.28 0-22.1 4.47-30.09 12.43l-4.13 4.12c0-.15 0-.31.01-.46.24-31.08 25.5-56.18 56.63-56.18 5.66 0 11.2-1.12 16.32-3.25 5.12-2.12 9.84-5.25 13.83-9.24l8.59-8.59c2.39-2.39 5.78-2.37 8.15-.76 1.64 1.1 2.79 2.96 2.79 5.29z" fill="#ffe400"/><path d="m362.32 44.23c0 15.65-6.34 29.81-16.59 40.05-10.25 10.25-24.41 16.59-40.05 16.59h-15.46c-11.28 0-22.1 4.47-30.09 12.43l-4.13 4.12c0-.15 0-.31.01-.46 8.01-14.98 22.07-28.04 36.87-33.27 10.57-3.74 22.03-4.5 32.53-8.45 16.1-6.06 28.94-19.95 34.12-36.3 1.64 1.1 2.79 2.96 2.79 5.29z" fill="#ffc300"/><path d="m382.8 232.19v45.09c0 16.81-6.82 32.03-17.83 43.04-11.02 11.02-26.24 17.83-43.05 17.83v-67.15c7.68-7.68 13.68-16.74 17.76-26.58 4.08-9.85 6.24-20.5 6.24-31.36 0-9.53-6.25-17.93-15.38-20.66l-35.21-10.51-10.5-3.14-12.22-3.65-10.5-3.13-5.65-1.69-.46.14-6.11 1.82-10.5 3.14-12.22 3.65-10.5 3.13-34.28 10.24c-4.57 1.36-8.41 4.15-11.12 7.78s-4.27 8.12-4.27 12.88c0 10.86 2.16 21.51 6.24 31.36 4.08 9.84 10.08 18.9 17.76 26.58v67.15c-33.62 0-60.87-27.25-60.87-60.87v-45.09c0-34.89 14.14-66.47 37-89.34 22.76-22.76 54.17-36.88 88.87-37h.46c69.78 0 126.34 56.56 126.34 126.34z" fill="#fff"/><path d="m382.8 232.19v45.09c0 16.81-6.82 32.03-17.83 43.04-11.02 11.02-26.24 17.83-43.05 17.83v-67.15c7.68-7.68 13.68-16.74 17.76-26.58 4.08-9.85 6.24-20.5 6.24-31.36 0-9.53-6.25-17.93-15.38-20.66l-74.08-22.12-.46.14v-64.57h.46c69.78 0 126.34 56.56 126.34 126.34z" fill="#d1f6ff"/><g><path d="m272.61 186.504v27.435l-10.5 1.13v-31.695z" fill="#65b2fe"/><path d="m249.89 183.644v31.425l-10.5-1.13v-27.155z" fill="#8fc8f5"/><path d="m227.17 190.434v22.195l-10.5-1.13v-17.935z" fill="#8fc8f5"/><path d="m295.33 193.294v18.205l-10.5 1.13v-22.475z" fill="#65b2fe"/></g><path d="m160.79 371.89v60.33c0 20.68-11.43 38.69-28.32 48.05-8.59-4.74-16.88-9.96-24.83-15.62 2.13-13.8 6.15-26.97 11.77-39.25 8.62-18.79 21.01-35.48 36.22-49.11.22-.21.45-.41.67-.61.05-.04.1-.08.15-.12 1.42-1.26 2.87-2.49 4.34-3.67z" fill="#8fc8f5"/><path d="m403.18 465.48c-7.79 5.48-15.9 10.54-24.29 15.15-17.24-9.27-28.97-27.47-28.97-48.41v-60.33c1.47 1.18 2.92 2.41 4.34 3.67.05.04.1.08.15.12.22.2.45.4.67.61 15.2 13.63 27.6 30.32 36.22 49.11 5.74 12.52 9.79 25.98 11.88 40.08z" fill="#65b2fe"/></g></g></svg>