<svg id="Capa_1" enable-background="new 0 0 512 512" height="512" viewBox="0 0 512 512" width="512" xmlns="http://www.w3.org/2000/svg"><g><g><path d="m512 256c0 113.09-73.33 209.05-175.04 242.93h-.01l-68.28 12.76c-4.2.21-8.42.31-12.67.31-4.29 0-8.56-.11-12.8-.31l-.03-.01-68.27-12.8c-101.63-33.92-174.9-129.84-174.9-242.88 0-141.38 114.62-256 256-256s256 114.62 256 256z" fill="#b6e337"/><path d="m512 256c0 87.11-43.52 164.07-110 210.31-19.81 13.78-41.68 24.84-65.04 32.62l-68.28 12.76h-.01c-4.2.21-8.42.31-12.67.31-4.31 0-8.6-.11-12.86-.32l-68.24-12.8-.01.01c-23.3-7.79-45.12-18.83-64.89-32.58-66.48-46.24-110-123.2-110-210.31 0-46.22 12.25-89.57 33.68-127 44.12 77.07 127.16 129 222.32 129s178.21-51.93 222.32-129c21.43 37.43 33.68 80.78 33.68 127z" fill="#6cdc2d"/></g><g><g><g><path d="m434.39 340.09c0 7.11-2.7 14.21-8.12 19.63-10.85 10.85-28.43 10.85-39.28 0l-3.59-3.42-6.372-11.05-7.848-2.45-19.36-18.39c-4.85-4.61-12.86-1.17-12.86 5.51v115.115l-7 13.727 7 13.225v26.943c-21.62 7.21-44.53 11.6-68.29 12.76-1.32-3.69-2.04-7.67-2.04-11.82v-28.553l6-11.885-6-13.559v-38.763c0-2.96-1.2-5.63-3.13-7.57-1.92-1.91-4.58-3.11-7.5-3.13h-.07c-5.91 0-10.7 4.79-10.7 10.7v36.921l-7 11.885 7 14.899v29.055c0 4.14-.72 8.12-2.03 11.82-23.76-1.18-46.67-5.59-68.3-12.81v-27.898l9-13.225-9-13.894v-110.783c0-6.79-8.2-10.18-13-5.38l-15.38 15.37-6.862 1.862-6.998 11.998-7.65 7.66c-5.42 5.42-12.53 8.13-19.63 8.13-7.11 0-14.22-2.71-19.64-8.13-10.85-10.85-10.85-28.43 0-39.27l7.66-7.65 6.191.804 7.659-14.664 17.12-17.13c19.07-19.07 41.79-33.65 66.52-43.07 9.31-3.55 11.75-15.46 4.63-22.44-16.14-15.84-26.15-37.9-26.15-62.31 0-47.86 38.51-86.74 86.25-87.31h.38c47.83-.37 87.38 38.27 88.01 86.15.32 24.49-9.45 46.71-25.42 62.76-6.97 7-4.31 18.85 4.97 22.24 25.66 9.39 49.24 24.3 68.94 43.98l17.631 21.631 12.629 8.629 3.5 3.51c5.43 5.42 8.13 12.53 8.13 19.64z" fill="#c55732"/><path d="m434.39 340.09c0 7.11-2.7 14.21-8.12 19.63-10.85 10.85-28.43 10.85-39.28 0l-3.59-3.42-7.55-13.167-6.671-.333-19.36-18.39c-4.85-4.61-12.86-1.17-12.86 5.51v115.897l-8 13.726 8 11.494v27.892c-21.62 7.21-44.53 11.6-68.29 12.76-1.32-3.69-2.04-7.67-2.04-11.82v-29.056l6-11.048-6-13.838v-38.817c0-2.96-1.2-5.63-3.13-7.57-1.92-1.91-4.58-3.11-7.5-3.13v-324.86c47.83-.37 87.38 38.27 88.01 86.15.32 24.49-9.45 46.71-25.42 62.76-6.97 7-4.31 18.85 4.97 22.24 25.66 9.39 49.24 24.3 68.94 43.98l16.679 16.679 7.409 12.409 6.172 1.172 3.5 3.51c5.431 5.42 8.131 12.53 8.131 19.64z" fill="#a63917"/><g fill="#ffe400"><ellipse cx="256" cy="288.215" rx="12.47" ry="12.47" transform="matrix(.16 -.987 .987 .16 -69.501 494.743)"/><circle cx="256" cy="326.366" r="12.47"/><circle cx="256" cy="364.516" r="12.47"/></g><path d="m293.63 194.465c-1.7-5.74-6.86-9.59-12.84-9.59h-49.57c-5.99 0-11.15 3.85-12.84 9.59-1.7 5.74.54 11.79 5.57 15.05 9.55 6.19 20.63 9.45 32.05 9.45s22.5-3.26 32.05-9.45c5.03-3.26 7.27-9.309 5.58-15.05zm-11.73 5.56c-7.71 4.99-16.66 7.63-25.9 7.63-9.23 0-18.19-2.64-25.9-7.63-1.14-.74-1.04-1.8-.87-2.36.2-.67.71-1.48 1.99-1.48h49.57c1.28 0 1.79.81 1.99 1.48.16.56.27 1.621-.88 2.36z" fill="#ffe400"/><g><circle cx="233.458" cy="156.605" fill="#fff" r="13.696"/><circle cx="278.545" cy="156.605" fill="#d0f6ff" r="13.696"/></g><path d="m110.158 302.602h19.599v55.53h-19.599z" fill="#fff" transform="matrix(.707 -.707 .707 .707 -198.47 181.586)"/><path d="m422.757 316.939-39.361 39.354-14.215-13.502 39.717-39.711z" fill="#d0f6ff"/><path d="m174.895 443.765h70.338v27.235h-70.338z" fill="#ffe400"/><path d="m266.626 445.693h70.337v25.307h-70.337z" fill="#ffc300"/><path d="m243.077 132.755c3.426 0 5.125-4.211 2.618-6.546-3.688-3.435-8.632-5.537-14.07-5.537s-10.383 2.102-14.07 5.537c-2.507 2.336-.809 6.546 2.618 6.546z" fill="#ffe400"/><path d="m289.333 132.755c3.427 0 5.125-4.211 2.618-6.546-3.688-3.435-8.632-5.537-14.07-5.537s-10.383 2.102-14.07 5.537c-2.507 2.336-.809 6.546 2.618 6.546z" fill="#ffc300"/></g><g><path d="m285.27 255.105c1.95 1.94 2.93 4.5 2.93 7.05s-.98 5.11-2.93 7.06c-3.9 3.9-10.22 3.9-14.12 0l-7.05-7.06-8.1-8.09-8.1 8.09-7.05 7.06c-1.95 1.95-4.51 2.93-7.06 2.93s-5.11-.98-7.06-2.93-2.93-4.51-2.93-7.06.98-5.11 2.93-7.05c1.95-1.95 2.93-4.5 2.93-7.06s-.98-5.11-2.93-7.06-2.93-4.5-2.93-7.06.98-5.11 2.93-7.06c3.9-3.9 10.22-3.9 14.12 0l7.05 7.06 8.1 8.09 8.1-8.09 7.05-7.06c1.95-1.95 4.51-2.92 7.06-2.92s5.11.97 7.06 2.92 2.93 4.5 2.93 7.06-.98 5.11-2.93 7.06c-3.9 3.9-3.9 10.221 0 14.12z" fill="#fe3345"/><g fill="#de1263"><path d="m285.27 255.105c1.95 1.94 2.93 4.5 2.93 7.05s-.98 5.11-2.93 7.06c-3.9 3.9-10.22 3.9-14.12 0l-7.05-7.06-8.1-8.09v-12.05l8.1-8.09 7.05-7.06c1.95-1.95 4.51-2.92 7.06-2.92s5.11.97 7.06 2.92 2.93 4.5 2.93 7.06-.98 5.11-2.93 7.06c-3.9 3.9-3.9 10.221 0 14.12z"/><path d="m264.35 241.656v12.77c0 4.61-3.74 8.35-8.35 8.35s-8.35-3.74-8.35-8.35v-12.77c0-4.61 3.74-8.35 8.35-8.35 2.3 0 4.39.94 5.9 2.45 1.52 1.51 2.45 3.59 2.45 5.9z"/></g></g></g><g fill="#ffc300"><path d="m268.47 364.516c0 6.89-5.58 12.47-12.47 12.47v-24.94c6.89 0 12.47 5.589 12.47 12.47z"/><path d="m268.47 326.366c0 6.89-5.58 12.47-12.47 12.47v-24.94c6.89 0 12.47 5.579 12.47 12.47z"/><path d="m256 300.685v-24.94c6.89 0 12.47 5.58 12.47 12.47s-5.58 12.47-12.47 12.47z"/><path d="m288.05 209.516c-9.55 6.19-20.63 9.45-32.05 9.45v-11.31c9.24 0 18.19-2.64 25.9-7.63 1.15-.74 1.04-1.8.88-2.36-.2-.67-.71-1.48-1.99-1.48h-24.79v-11.31h24.79c5.98 0 11.14 3.85 12.84 9.59 1.69 5.74-.55 11.789-5.58 15.05z"/></g><path d="m264.35 241.656v12.77c0 4.61-3.74 8.35-8.35 8.35v-29.47c2.3 0 4.39.94 5.9 2.45 1.52 1.51 2.45 3.59 2.45 5.9z" fill="#bc0e5c"/></g></g></svg>