<svg id="Capa_1" enable-background="new 0 0 512 512" height="512" viewBox="0 0 512 512" width="512" xmlns="http://www.w3.org/2000/svg"><g><g><path d="m512 256c0 86.21-42.62 162.48-107.95 208.87l-.016.005c-93.966 30.639-195.128 31.347-289.514 2.026l-6.571-2.041h-.01c-65.319-46.39-107.939-122.65-107.939-208.86 0-141.32 114.522-255.902 255.819-256 141.073-.098 256.181 114.927 256.181 256z" fill="#4e689b"/><path d="m512 256c0 86.21-42.63 162.48-107.95 208.87l-.02.01c-93.964 30.636-195.121 31.343-289.504 2.023l-6.576-2.043c-65.32-46.38-107.95-122.65-107.95-208.86 0-46.22 12.25-89.57 33.68-127 44.12 77.07 127.16 129 222.32 129s178.21-51.93 222.32-129c21.43 37.43 33.68 80.78 33.68 127z" fill="#374c81"/></g><g><g><path d="m413.631 268.522c0 85.846-68.629 155.677-154.028 157.587-.574.015-1.156.022-1.738.03-.619.007-1.238.015-1.865.015-87.055 0-157.631-70.576-157.631-157.631 0-87.062 70.576-157.631 157.631-157.631.627 0 1.253.007 1.872.015.582.007 1.156.015 1.731.03 85.399 1.908 154.028 71.731 154.028 157.585z" fill="#fff"/><path d="m413.631 268.522c0 85.846-68.629 155.677-154.028 157.587-.574.015-1.156.022-1.738.03-.008-.008-.015-.022-.022-.03-.612.03-1.223.045-1.843.045-44.52 0-80.617-70.576-80.617-157.631 0-87.062 36.098-157.631 80.617-157.631.619 0 1.231.015 1.843.045.007-.007.022-.022.03-.03.582.007 1.156.015 1.731.03 85.398 1.908 154.027 71.731 154.027 157.585z" fill="#d1f6ff"/><path d="m413.631 268.522c0 85.846-68.629 155.677-154.028 157.587v-315.174c85.399 1.91 154.028 71.733 154.028 157.587z" fill="#8fc8f5"/><path d="m404.046 455.918h-296.092l24.774-54.493c2.447-5.393 7.825-8.855 13.748-8.855h219.047c5.923 0 11.301 3.461 13.756 8.855z" fill="#ffe400"/><path d="m404.046 455.918h-212.983l10.869-54.493c1.074-5.393 3.432-8.855 6.028-8.855h157.564c5.923 0 11.301 3.461 13.756 8.855z" fill="#ffc300"/><path d="m404.05 455.92v8.95c-40.88 29.03-90.66 46.36-144.45 47.1-1.2.02-2.4.03-3.6.03-22.44 0-44.2-2.89-64.94-8.31-30.25-7.91-58.31-21.21-83.11-38.83v-8.94z" fill="#ffc300"/><path d="m404.05 455.92v8.95c-40.88 29.03-90.66 46.36-144.45 47.1-1.2.02-2.4.03-3.6.03-22.44 0-44.2-2.89-64.94-8.31v-47.77z" fill="#ff9f00"/><path d="m404.05 455.92v8.95c-40.88 29.03-90.66 46.36-144.45 47.1v-56.05z" fill="#ec781b"/><circle cx="342.224" cy="213.815" fill="#fff" r="36.721"/><ellipse cx="370.994" cy="317.508" fill="#fff" rx="12.264" ry="12.264" transform="matrix(.218 -.976 .976 .218 -19.724 610.402)"/><circle cx="148.026" cy="296.961" fill="#d1f6ff" r="12.264"/><path d="m404.046 455.918h-144.443v-63.348h105.921c5.923 0 11.301 3.461 13.756 8.855z" fill="#ff9f00"/></g><g><g><path d="m237.891 53.244h1.524c6.753 0 12.227 5.474 12.227 12.227v1.524h8.716v-1.524c0-6.753 5.474-12.227 12.227-12.227h1.525v-8.716h-1.525c-6.753 0-12.227-5.474-12.227-12.227v-1.525h-8.716v1.525c0 6.753-5.474 12.227-12.227 12.227h-1.524z" fill="#fff"/></g></g><g><g><g><path d="m86.592 115.249h1.524c6.753 0 12.227 5.474 12.227 12.227v1.524h8.716v-1.524c0-6.753 5.474-12.227 12.227-12.227h1.525v-8.716h-1.525c-6.753 0-12.227-5.474-12.227-12.227v-1.525h-8.716v1.525c0 6.753-5.474 12.227-12.227 12.227h-1.524z" fill="#fff"/></g></g><g><g><path d="m389.19 115.249h1.524c6.753 0 12.227 5.474 12.227 12.227v1.524h8.716v-1.524c0-6.753 5.474-12.227 12.227-12.227h1.525v-8.716h-1.525c-6.753 0-12.227-5.474-12.227-12.227v-1.525h-8.716v1.525c0 6.753-5.474 12.227-12.227 12.227h-1.524z" fill="#fff"/></g></g><g><g><path d="m461.854 242.249h1.524c6.753 0 12.227 5.474 12.227 12.227v1.524h8.716v-1.524c0-6.753 5.474-12.227 12.227-12.227h1.525v-8.716h-1.525c-6.753 0-12.227-5.474-12.227-12.227v-1.525h-8.716v1.525c0 6.753-5.474 12.227-12.227 12.227h-1.524z" fill="#fff"/></g></g><g><g><path d="m16.445 242.249h1.524c6.753 0 12.227 5.474 12.227 12.227v1.524h8.716v-1.524c0-6.753 5.474-12.227 12.227-12.227h1.525v-8.716h-1.525c-6.753 0-12.227-5.474-12.227-12.227v-1.525h-8.716v1.525c0 6.753-5.474 12.227-12.227 12.227h-1.524z" fill="#fff"/></g></g></g></g></g></svg>