<svg id="Capa_1" enable-background="new 0 0 508.06 508.06" height="512" viewBox="0 0 508.06 508.06" width="512" xmlns="http://www.w3.org/2000/svg"><g><g><path d="m506.6 254.03c0 134.48-103.9 244.56-235.37 253.44l-146.975-48.173c-20.975-6.875-38.621-21.345-49.47-40.568l-70.135-124.269v.02c-2.1-13.17-3.19-26.68-3.19-40.45 0-140.3 113.08-254.03 252.57-254.03s252.57 113.73 252.57 254.03z" fill="#65b2fe"/><path d="m506.6 254.03c0 86.44-42.94 162.81-108.52 208.69-36.45 25.49-79.89 41.58-126.85 44.75l-146.959-48.168c-20.971-6.874-38.613-21.339-49.463-40.556-25.306-44.824-70.158-124.286-70.158-124.286-2.1-13.16-3.19-26.67-3.19-40.43 0-45.87 12.09-88.88 33.23-126.02 29.3 51.47 75.99 91.64 132.02 112.41 27.21 10.08 56.63 15.59 87.32 15.59 48.75 0 94.28-13.89 132.88-37.96 35.74-22.28 65.54-53.28 86.46-90.04 21.15 37.14 33.23 80.15 33.23 126.02z" fill="#159de4"/></g><g><g><path d="m425.989 189.961-65.027 65.028-75.69-75.69 65.027-65.027c11.424-11.424 29.937-11.415 41.361.009l34.328 34.328c11.416 11.415 11.425 29.928.001 41.352z" fill="#c55732"/><path d="m425.989 189.961-65.027 65.028-37.845-37.845 85.704-85.703 17.169 17.169c11.414 11.414 11.423 29.927-.001 41.351z" fill="#a63917"/><path d="m425.989 189.961-11.744 11.744-75.69-75.69 11.744-11.744c11.424-11.424 29.937-11.415 41.361.009l34.328 34.328c11.416 11.416 11.425 29.929.001 41.353z" fill="#f4863d"/><path d="m425.989 189.961-11.744 11.744-37.845-37.845 32.42-32.42 17.169 17.169c11.415 11.415 11.424 29.928 0 41.352z" fill="#c55732"/></g><g><g><path d="m411.54 257.42c0 9.11-3.47 18.22-10.43 25.17-6.95 6.95-16.06 10.42-25.16 10.42-9.12 0-18.22-3.48-25.17-10.42-5.91-5.91-15.48-5.91-21.39 0l-21.97 21.97c-13.38 13.39-17.96 33.12-12.21 51.16 16.13 50.57 8.14 107.16-23.98 151.75-5.68.39-11.42.59-17.2.59-53.54 0-103.19-16.76-144.04-45.34-55.15-38.58-94.28-98.71-105.34-168.26 1.73-1.95 3.51-3.87 5.35-5.76 42.21-43.39 101.69-59.49 156.71-48.28 5.91 1.19 11.78 2.71 17.56 4.55 18.23 5.78 38.17 1.13 51.7-12.4l21.7-21.7c2.95-2.95 4.43-6.82 4.43-10.7 0-3.86-1.47-7.74-4.43-10.7-6.95-6.95-10.43-16.05-10.42-25.16-.01-9.11 3.47-18.21 10.42-25.16 13.9-13.91 36.43-13.91 50.33-.01l93.11 93.11c6.95 6.95 10.43 16.05 10.43 25.17z" fill="#fff"/><path d="m411.54 257.42c0 9.11-3.47 18.22-10.43 25.17-6.95 6.95-16.06 10.42-25.16 10.42-9.12 0-18.22-3.48-25.17-10.42-5.91-5.91-15.48-5.91-21.39 0l-21.97 21.97c-13.38 13.39-17.96 33.12-12.21 51.16 16.13 50.57 8.14 107.16-23.98 151.75-5.68.39-11.42.59-17.2.59-88.32 0-166.05-45.59-211.19-114.65 9.83-12.84 21.05-25.76 33.51-38.36 47.14-47.67 99.17-78.14 135.37-82.64 11.07-1.37 26.45-10.58 39.98-24.11l21.7-21.7c2.95-2.95 5.15-6.11 6.31-8.83 1.14-2.7 1.27-4.99.07-6.18-2.81-2.81-2.54-8.16.18-14.57 2.71-6.39 7.87-13.81 14.82-20.76 13.9-13.9 29.72-20.62 35.33-15l71 70.99c6.95 6.95 10.43 16.05 10.43 25.17z" fill="#d1f6ff"/><path d="m411.54 257.42c0 9.11-3.47 18.22-10.43 25.17-6.95 6.95-16.06 10.42-25.16 10.42-9.12 0-18.22-3.48-25.17-10.42-5.91-5.91-15.48-5.91-21.39 0l-21.97 21.97c-13.38 13.39-17.96 33.12-12.21 51.16 16.13 50.57 8.14 107.16-23.98 151.75-5.68.39-11.42.59-17.2.59-61.83 0-118.48-22.35-162.38-59.45l262.91-262.91 46.55 46.55c6.95 6.95 10.43 16.05 10.43 25.17z" fill="#b3f4ff"/><path d="m350.779 282.585c-5.905-5.905-15.476-5.905-21.391.009l-21.381 21.381-71.722-71.722 21.381-21.381c2.952-2.952 4.438-6.826 4.438-10.7-.01-3.864-1.476-7.738-4.438-10.7z" fill="#d0f6ff"/><path d="m350.779 282.585c-5.905-5.905-15.476-5.905-21.391.009l-21.381 21.381-55.992-55.992 21.381-21.381c2.952-2.952 5.153-6.112 6.309-8.829 1.147-2.708 1.269-4.993.075-6.187z" fill="#b3f4ff"/><path d="m245.65 410.84c-.73 28.49-12.25 56.07-33.15 76.97-5.07 5.07-10.53 9.6-16.33 13.55-39.13-9.22-74.76-27.6-104.52-52.75-18.8-15.89-35.27-34.49-48.81-55.2-5.72-8.75-10.92-17.88-15.55-27.34 5.41-13.79 13.53-26.38 24.04-37.17 14.97-15.38 33.8-26.15 54.49-31.13 7.79-1.87 15.71-2.91 23.64-3.11z" fill="#b6e337"/></g><path d="m350.779 282.585c-5.905-5.905-15.476-5.905-21.391.009l-21.381 21.381-35.861-35.861 32.081-32.081z" fill="#8fc8f5"/><path d="m245.65 410.84c-.73 28.49-12.25 56.07-33.15 76.97-5.07 5.07-10.53 9.6-16.33 13.55-39.13-9.22-74.76-27.6-104.52-52.75l95.88-95.88z" fill="#6cdc2d"/><g fill="#b6e337"><path d="m198.699 283.162c-3.446 3.446-9.033 3.446-12.479 0s-3.446-9.033 0-12.479 9.033-3.446 12.479 0 3.446 9.033 0 12.479z"/><path d="m246.119 384.241c-3.446 3.446-9.033 3.446-12.479 0s-3.446-9.033 0-12.479 9.033-3.446 12.479 0 3.446 9.032 0 12.479z"/><circle cx="196.226" cy="323.718" r="15.457"/><circle cx="257.974" cy="343.684" r="15.457"/></g></g></g></g></svg>