<svg id="Capa_1" enable-background="new 0 0 512 512" height="512" viewBox="0 0 512 512" width="512" xmlns="http://www.w3.org/2000/svg"><g><g><path d="m511.999 256.697c-.182 68.125-26.978 129.989-70.529 175.763l-49.137 21.073c-86.995 37.308-185.54 37.006-272.305-.836l-51.648-22.527c-42.43-45.69-68.38-106.9-68.38-174.17 0-142.537 116.504-257.874 259.477-255.977 140.729 1.868 252.897 115.933 252.522 256.674z" fill="#65b2fe"/><path d="m512 256c0 68.4-26.84 130.55-70.55 176.47l-49.119 21.065c-86.994 37.307-185.538 37.004-272.301-.836l-51.63-22.519c-42.44-45.69-68.4-106.91-68.4-174.18 0-46.22 12.25-89.57 33.68-127 44.12 77.07 127.16 129 222.32 129s178.21-51.93 222.32-129c21.43 37.43 33.68 80.78 33.68 127z" fill="#159de4"/></g><g><g><g><path d="m352.61 246.89c-17.85 40.43-51.15 71.38-85.07 98.5-20.13 16.09-40.18 32.88-54.83 54.06-8.89 12.86-13.93 25.86-16.81 39.55h-118.92c-2.93-2.88-5.8-5.82-8.6-8.83.73-3.76 1.57-7.56 2.44-11.5 7.47-33.89 21.29-60.73 47.45-84.4 26.52-23.99 58.56-40.79 89.23-59.18 32.78-19.65 67.29-44.29 84.21-76.52 3.39-6.46 1.26-14.38-4.84-18.36-10.64-6.92-19.9-16.31-26.85-27.93-14.29-23.9-15.67-51.93-6.16-75.95 36.27-9.74 76.04 5.2 96.26 39.03 26.41 39.99 22.05 87.21 2.49 131.53z" fill="#de1263"/><path d="m316.37 239.44c-16.92 25.47-41.68 44.91-64.91 62.62-26.42 20.14-58.02 38.63-78.05 65.02-17.14 22.58-30.67 44.2-33.5 71.92h-62.93c-2.93-2.88-5.8-5.82-8.6-8.83.73-3.76 1.57-7.56 2.44-11.5 7.47-33.89 21.29-60.73 47.45-84.4 26.52-23.99 58.56-40.79 89.23-59.18 32.78-19.65 67.29-44.29 84.21-76.52 3.39-6.46 1.26-14.38-4.84-18.36-10.64-6.92-19.9-16.31-26.85-27.93-14.29-23.9-15.67-51.93-6.16-75.95 5.32.11 10.72 1.17 15.87 2.42 15.03 3.64 31.75 12.41 42.73 24.13 24.75 26.39 43.7 76.66 3.91 136.56z" fill="#fe3345"/><g><ellipse cx="285.562" cy="156.962" fill="#ff9cad" rx="10.342" ry="10.342" transform="matrix(.226 -.974 .974 .226 68.203 399.734)"/></g><g><ellipse cx="299.721" cy="120.928" fill="#ff9cad" rx="13.302" ry="13.302" transform="matrix(.772 -.635 .635 .772 -8.583 217.908)"/></g><g><path d="m277.306 119.253c-.607 6.227-6.146 10.782-12.373 10.175s-10.782-6.146-10.175-12.373c.607-6.226 6.146-10.782 12.373-10.175 6.226.607 10.782 6.146 10.175 12.373z" fill="#ff9cad"/></g><g><ellipse cx="320.87" cy="155.919" fill="#ff9cad" rx="13.295" ry="13.295" transform="matrix(.154 -.988 .988 .154 117.391 448.945)"/></g><g><circle cx="317.69" cy="195.013" fill="#ff9cad" r="13.295"/></g><g><ellipse cx="297.406" cy="228.353" fill="#ff9cad" rx="13.295" ry="13.295" transform="matrix(.661 -.75 .75 .661 -70.526 300.612)"/></g><g><ellipse cx="268.738" cy="258.523" fill="#ff9cad" rx="13.295" ry="13.295" transform="matrix(.951 -.309 .309 .951 -66.808 95.848)"/></g><g><path d="m231.845 295.271c-.778 7.981-7.878 13.821-15.86 13.043-7.981-.778-13.821-7.878-13.043-15.86.778-7.981 7.878-13.821 15.86-13.043s13.821 7.879 13.043 15.86z" fill="#ff9cad"/></g><g><ellipse cx="166.341" cy="334.328" fill="#ff9cad" rx="19.91" ry="19.91" transform="matrix(.903 -.429 .429 .903 -127.45 103.825)"/></g><g><ellipse cx="120.242" cy="386.378" fill="#ff9cad" rx="19.91" ry="19.91" transform="matrix(.282 -.96 .96 .282 -284.361 392.917)"/></g></g><g><path d="m355.986 439c2.702-5.208 6.136-10.157 10.642-14.898 10.968-11.536 24.815-19.872 38.64-27.773 23.306-13.321 46.597-29.041 61.356-52.029 16.175-25.191 23.349-53.611 11.041-80.553-9.119-22.588-31.975-35.509-55.056-33.024-8.098 13.757-9.934 31.007-3.491 46.962 3.136 7.763 7.895 14.381 13.726 19.623 3.348 3.012 3.894 8.055 1.205 11.672-13.409 18.068-36.839 29.814-58.73 38.687-20.483 8.299-41.653 15.498-60.138 27.616-18.237 11.956-29.241 27.022-37.036 47.005-2.241 5.739-4.287 10.98-5.587 16.711h83.428z" fill="#de1263"/><path d="m319.065 439c4.693-15.46 14.621-26.834 26.651-38.415 14.752-14.202 35.818-22.475 53.873-32.254 15.874-8.597 32.854-18.099 45.616-32.037 30.016-32.782 23.246-65.283 10.652-83.767-5.588-8.201-14.956-15.157-23.79-18.815-3.025-1.253-6.22-2.414-9.458-2.99-8.098 13.757-9.934 31.007-3.491 46.962 3.136 7.763 7.895 14.381 13.726 19.623 3.348 3.012 3.894 8.055 1.205 11.672-13.409 18.068-36.839 29.814-58.73 38.687-20.483 8.299-41.653 15.498-60.138 27.616-18.237 11.956-29.241 27.022-37.036 47.005-2.241 5.739-4.287 10.98-5.587 16.711h46.507z" fill="#fe3345"/><g><path d="m440.459 284.582c-.881 3.419-4.367 5.475-7.785 4.594s-5.475-4.367-4.594-7.785c.881-3.419 4.367-5.475 7.785-4.594 3.418.88 5.475 4.366 4.594 7.785z" fill="#ff9cad"/></g><g><path d="m454.317 264.386c-1.133 4.397-5.616 7.042-10.013 5.909s-7.042-5.616-5.909-10.013 5.616-7.042 10.013-5.909 7.042 5.617 5.909 10.013z" fill="#ff9cad"/></g><g><path d="m432.828 259.171c-.965 3.744-4.783 5.997-8.527 5.032s-5.997-4.783-5.032-8.527 4.783-5.997 8.527-5.032c3.745.965 5.998 4.782 5.032 8.527z" fill="#ff9cad"/></g><g><path d="m463.886 287.772c-1.133 4.395-5.614 7.039-10.008 5.906-4.395-1.133-7.039-5.614-5.906-10.008 1.133-4.395 5.614-7.039 10.008-5.906 4.395 1.132 7.039 5.613 5.906 10.008z" fill="#ff9cad"/></g><g><path d="m458.211 311.34c-1.133 4.395-5.614 7.039-10.008 5.906-4.395-1.133-7.039-5.614-5.906-10.008 1.133-4.395 5.614-7.039 10.008-5.906s7.039 5.614 5.906 10.008z" fill="#ff9cad"/></g><g><ellipse cx="433.367" cy="328.422" fill="#ff9cad" rx="8.217" ry="8.217" transform="matrix(.996 -.093 .093 .996 -28.695 41.774)"/></g><g><ellipse cx="412.25" cy="344.15" fill="#ff9cad" rx="8.217" ry="8.217" transform="matrix(.996 -.093 .093 .996 -30.251 39.876)"/></g><g><path d="m388.259 362.313c-1.237 4.799-6.131 7.687-10.93 6.45s-7.687-6.131-6.45-10.93 6.131-7.687 10.93-6.45 7.687 6.131 6.45 10.93z" fill="#ff9cad"/></g><g><path d="m356.445 382.979c-1.696 6.581-8.407 10.541-14.988 8.845s-10.541-8.407-8.844-14.988c1.696-6.581 8.406-10.541 14.988-8.845 6.581 1.697 10.541 8.407 8.844 14.988z" fill="#ff9cad"/></g><g><path d="m323.325 410.361c-1.696 6.581-8.407 10.541-14.988 8.845s-10.541-8.407-8.844-14.988c1.696-6.581 8.407-10.541 14.988-8.845 6.58 1.697 10.54 8.407 8.844 14.988z" fill="#ff9cad"/></g></g><g><path d="m441.47 432.46c-2.11 2.21-4.27 4.4-6.45 6.54h-133.19c-6.68-7.64-14.51-14.47-24.16-20.42-21.92-13.51-47.03-20.82-71.92-27.46-41.97-11.2-84.9-26.16-117.49-56.02-35.72-32.71-58.69-74.2-50.58-121.44 4.92-39.1 35.33-68.76 72.46-74.42 18.36 18.17 28.36 44.4 24.88 72.02-1.69 13.44-6.4 25.76-13.35 36.37-4 6.09-2.76 14.21 2.94 18.75 28.44 22.72 69.95 31.41 107.86 36.24 35.47 4.51 71.56 7.01 105.49 18.33 33.47 11.16 56.91 30.17 77.37 58.21 8.34 11.43 15.7 21.4 20.65 35.12.84 2.34 3.35 9.92 5.49 18.18z" fill="#fe3345"/><path d="m441.47 432.46c-2.11 2.21-4.27 4.4-6.45 6.54h-68.32c-.46-1.1-.93-2.21-1.4-3.29-13.27-30.61-36.59-46.95-64.64-62.56-28.95-16.12-65.32-20.35-97.61-28.18-28.38-6.88-58.87-14.72-84.6-31.25-60.51-38.86-63.35-92.5-51.3-126.62 5.35-15.14 17.13-29.9 29.43-39.27 4.22-3.21 8.74-6.35 13.56-8.59 18.36 18.17 28.36 44.4 24.88 72.02-1.69 13.44-6.4 25.76-13.35 36.37-4 6.09-2.76 14.21 2.94 18.75 28.44 22.72 69.95 31.41 107.86 36.24 35.47 4.51 71.56 7.01 105.49 18.33 33.47 11.16 56.91 30.17 77.37 58.21 8.34 11.43 15.7 21.4 20.65 35.12.84 2.34 3.35 9.92 5.49 18.18z" fill="#ff6477"/><g><path d="m104.493 230.87c2.792 4.983 9.095 6.759 14.078 3.967s6.759-9.095 3.967-14.078-9.095-6.759-14.078-3.967c-4.983 2.793-6.759 9.095-3.967 14.078z" fill="#ff9cad"/></g><g><ellipse cx="86.069" cy="198.509" fill="#ff9cad" rx="13.302" ry="13.302" transform="matrix(.167 -.986 .986 .167 -124.032 250.193)"/></g><g><circle cx="115.803" cy="182.43" fill="#ff9cad" r="11.327"/></g><g><ellipse cx="80.765" cy="239.049" fill="#ff9cad" rx="13.295" ry="13.295" transform="matrix(.698 -.716 .716 .698 -146.76 129.962)"/></g><g><path d="m87.789 280.067c3.589 6.406 11.692 8.689 18.097 5.1 6.406-3.589 8.689-11.691 5.1-18.097s-11.692-8.689-18.097-5.1-8.689 11.691-5.1 18.097z" fill="#ff9cad"/></g><g><path d="m119.762 302.445c3.589 6.406 11.691 8.689 18.097 5.1s8.689-11.691 5.1-18.097-11.691-8.689-18.097-5.1-8.689 11.692-5.1 18.097z" fill="#ff9cad"/></g><g><path d="m166.797 321.011c3.589 6.406 11.691 8.689 18.097 5.1s8.689-11.691 5.1-18.097-11.692-8.689-18.097-5.1-8.689 11.691-5.1 18.097z" fill="#ff9cad"/></g><g><ellipse cx="230.954" cy="323.779" fill="#ff9cad" rx="14.52" ry="14.52" transform="matrix(1 -.024 .024 1 -7.623 5.575)"/></g><g><ellipse cx="293.965" cy="340.316" fill="#ff9cad" rx="19.91" ry="19.91" transform="matrix(.271 -.963 .963 .271 -113.33 530.95)"/></g><g><ellipse cx="357.095" cy="369.452" fill="#ff9cad" rx="19.91" ry="19.91" transform="matrix(.985 -.173 .173 .985 -58.56 67.389)"/></g></g></g><g><path d="m437.86 436.18c-13.52 13.64-28.56 25.77-44.85 36.1-39.61 25.15-86.61 39.72-137.01 39.72s-97.4-14.57-137.02-39.72c-16.28-10.34-31.32-22.46-44.84-36.1 3.39.29 7.09.46 11.19.46 42.67 0 42.67-17.94 85.33-17.94 42.67 0 42.67 17.94 85.34 17.94 42.66 0 42.66-17.94 85.33-17.94s42.67 17.94 85.33 17.94c4.1 0 7.81-.17 11.2-.46z" fill="#d1f6ff"/><path d="m437.86 436.18c-13.52 13.64-28.56 25.77-44.85 36.1-39.61 25.15-86.61 39.72-137.01 39.72v-75.36c42.66 0 42.66-17.94 85.33-17.94s42.67 17.94 85.33 17.94c4.1 0 7.81-.17 11.2-.46z" fill="#b3f4ff"/><path d="m393.01 472.28c-39.61 25.15-86.61 39.72-137.01 39.72s-97.4-14.57-137.02-39.72c14.63-5.29 24.49-12.57 51.68-12.57 42.67 0 42.67 17.93 85.34 17.93 42.66 0 42.66-17.93 85.33-17.93 27.2 0 37.06 7.28 51.68 12.57z" fill="#b3f4ff"/><path d="m393.01 472.28c-39.61 25.15-86.61 39.72-137.01 39.72v-34.36c42.66 0 42.66-17.93 85.33-17.93 27.2 0 37.06 7.28 51.68 12.57z" fill="#8fc8f5"/></g><g fill="#de1263"><path d="m46.93 441c-.23.08-.31.07-.19-.05.04-.04.11-.03.19.05z"/><path d="m46.93 441c-.23.08-.31.07-.19-.05.04-.04.11-.03.19.05z"/></g></g></g></svg>