<svg id="Capa_1" enable-background="new 0 0 512 512" height="512" viewBox="0 0 512 512" width="512" xmlns="http://www.w3.org/2000/svg"><g><g><path d="m511.999 255.138c.233 70.601-28.131 134.593-74.139 181.042l-.01.01-21.351 8.901c-102.715 42.82-218.282 42.82-320.997 0l-21.352-8.901-.01-.01c-45.82-46.26-74.14-109.92-74.14-180.18 0-141.188 114.309-255.689 255.425-255.999 140.824-.31 256.109 114.313 256.574 255.137z" fill="#9e68e0"/><path d="m512 256c0 70.27-28.32 133.93-74.17 180.19l-21.316 8.888c-102.724 42.828-218.303 42.828-321.027 0l-21.317-8.888c-45.85-46.26-74.17-109.92-74.17-180.19 0-46.22 12.25-89.57 33.68-127 44.12 77.07 127.16 129 222.32 129s178.21-51.93 222.32-129c21.43 37.43 33.68 80.78 33.68 127z" fill="#8e4dd3"/></g><g><g><path d="m211.448 277.489h8.043c91.486 0 174.903 52.35 214.689 134.731 5.457 11.3-2.776 24.419-15.325 24.419h-124.231z" fill="#fff"/><path d="m83.417 178.398c0 4.655 3.77 8.437 8.437 8.437h51.482v-31.331l-53.711 14.753c-1.836.503-3.388 1.585-4.481 3.016-1.093 1.443-1.727 3.224-1.727 5.125z" fill="#ffce00"/><path d="m83.417 178.398c0 4.655 3.77 8.437 8.437 8.437h51.482v-8.437z" fill="#ffb600"/><path d="m64.653 310.712c0 69.546 56.378 125.925 125.924 125.925h104.046c84.813 0 154.731-66.508 158.949-151.212l1.661-33.221c.645-12.873-12.283-21.987-24.238-17.179-5.311 2.142-10.655 4.185-16.021 6.163-13.223 4.874-26.621 9.267-40.15 13.169-16.971 4.918-34.161 9.048-51.504 12.414-22.348 4.316-44.947 7.344-67.689 9.048-14.676 1.115-29.408 1.672-44.182 1.672-30.839 0-53.657 16.622-65.481 38.893-7.715 14.513-29.823 9.147-29.954-7.289v-.612c0-15.682 9.387-29.845 23.834-35.964l65.208-27.594c11.584-4.907 21.135-13.026 27.79-23.08 6.655-10.043 10.415-22.009 10.415-34.588 0-34.576-28.031-62.607-62.607-62.607h-3.005c-22.272 0-41.822 11.715-52.794 29.32-2.24 3.585-3.246 7.431-3.246 11.19 0 1.016.076 2.022.229 3.016 1.443 10.032 9.999 18.654 21.495 18.654 14.862 0 19.004 20.392 5.322 26.184l-26.763 11.333c-17.354 7.344-31.659 19.518-41.636 34.554-9.964 15.06-15.603 32.982-15.603 51.811z" fill="#b3f4ff"/><path d="m64.653 310.712c0 69.546 56.378 125.925 125.924 125.925h65.055v-160.819c-14.676 1.115-29.408 1.672-44.182 1.672-30.839 0-53.657 16.622-65.481 38.893-7.715 14.513-29.823 9.147-29.954-7.289v-.612c0-15.682 9.387-29.845 23.834-35.964l65.208-27.594c11.584-4.907 21.135-13.026 27.79-23.08 6.655-10.043 10.415-22.009 10.415-34.588 0-34.576-28.031-62.607-62.607-62.607h-3.005c-22.272 0-41.822 11.715-52.794 29.32-2.24 3.585-3.246 7.431-3.246 11.19 0 1.016.076 2.022.229 3.016 1.443 10.032 9.999 18.654 21.495 18.654 14.862 0 19.004 20.392 5.322 26.184l-26.763 11.333c-17.354 7.344-31.659 19.518-41.636 34.554-9.965 15.061-15.604 32.983-15.604 51.812z" fill="#d1f6ff"/><path d="m64.653 310.716c0 69.547 56.378 125.924 125.924 125.924h104.046c84.813 0 154.731-66.508 158.949-151.212l1.661-33.221c.645-12.873-12.283-21.987-24.238-17.179-5.311 2.142-10.655 4.186-16.02 6.164-4.229 49.657-22.611 98.67-62.913 125.881-38.15 25.747-69.929 33.888-96.43 36.248-19.048 1.694-35.363.404-49.351.525-47.1.383-69.044-8.141-92.911-30.293-18.075-16.785-24.676-37.079-22.272-63.623 1.901-20.895 12.414-40.183 28.162-52.302 12.163-9.365 26.107-15.966 40.15-21.965 11.671-4.994 25.419-9.802 33.069-20.61 7.376-10.436 7.333-25.266.743-36.216-15.791-26.216-47.318-17.452-71.382-10.655 1.442 10.032 9.999 18.654 21.495 18.654 14.862 0 19.004 20.392 5.322 26.184l-26.763 11.332c-17.354 7.344-31.659 19.518-41.636 34.555-9.966 15.058-15.605 32.98-15.605 51.809z" fill="#d1f6ff"/><path d="m64.653 310.716c0 69.547 56.378 125.924 125.924 125.924h65.055v-33.32c-19.048 1.694-35.363.404-49.351.525-47.1.383-69.044-8.141-92.911-30.293-18.075-16.785-24.676-37.079-22.272-63.623 1.901-20.895 12.414-40.183 28.162-52.302 12.163-9.365 26.107-15.966 40.15-21.965 11.671-4.994 25.419-9.802 33.069-20.61 7.376-10.436 7.333-25.266.743-36.216-15.791-26.216-47.318-17.452-71.382-10.655 1.442 10.032 9.999 18.654 21.495 18.654 14.862 0 19.004 20.392 5.322 26.184l-26.763 11.332c-17.354 7.344-31.659 19.518-41.636 34.555-9.966 15.059-15.605 32.981-15.605 51.81z" fill="#fff"/><path d="m145.969 316.387c0 31.571 25.594 57.165 57.165 57.165h52.499c65.831 0 119.193-53.362 119.193-119.193-16.971 4.918-34.161 9.048-51.504 12.414-22.348 4.317-44.947 7.344-67.689 9.048-14.676 1.115-29.407 1.672-44.182 1.672-30.84.001-53.657 16.623-65.482 38.894z" fill="#d1f6ff"/><ellipse cx="175.173" cy="158.746" fill="#374c81" rx="12.421" ry="12.421" transform="matrix(.707 -.707 .707 .707 -60.943 170.362)"/><path d="m122.252 171.167c3.497 0 6.331-2.835 6.331-6.331v-7.518c0-6.22-6.96-9.904-12.104-6.407-2.989 2.032-4.175 5.86-2.86 9.226l2.736 7.003c.948 2.429 3.289 4.027 5.897 4.027z" fill="#ffb600"/><path d="m145.969 316.387c0 31.571 25.594 57.165 57.165 57.165h52.499v-97.73c-14.676 1.115-29.407 1.672-44.182 1.672-30.84 0-53.657 16.622-65.482 38.893z" fill="#fff"/></g><g><path d="m437.86 436.18c-13.52 13.64-28.56 25.77-44.85 36.1-39.61 25.15-86.61 39.72-137.01 39.72s-97.4-14.57-137.02-39.72c-16.28-10.34-31.32-22.46-44.84-36.1 3.39.29 7.09.46 11.19.46 42.67 0 42.67-17.94 85.33-17.94 42.67 0 42.67 17.94 85.34 17.94 42.66 0 42.66-17.94 85.33-17.94s42.67 17.94 85.33 17.94c4.1 0 7.81-.17 11.2-.46z" fill="#b3f4ff"/><path d="m437.86 436.18c-13.52 13.64-28.56 25.77-44.85 36.1-39.61 25.15-86.61 39.72-137.01 39.72v-75.36c42.66 0 42.66-17.94 85.33-17.94s42.67 17.94 85.33 17.94c4.1 0 7.81-.17 11.2-.46z" fill="#8fc8f5"/><path d="m393.01 472.28c-39.61 25.15-86.61 39.72-137.01 39.72s-97.4-14.57-137.02-39.72c14.63-5.29 24.49-12.57 51.68-12.57 42.67 0 42.67 17.93 85.34 17.93 42.66 0 42.66-17.93 85.33-17.93 27.2 0 37.06 7.28 51.68 12.57z" fill="#fff"/><path d="m393.01 472.28c-39.61 25.15-86.61 39.72-137.01 39.72v-34.36c42.66 0 42.66-17.93 85.33-17.93 27.2 0 37.06 7.28 51.68 12.57z" fill="#d1f6ff"/></g></g></g></svg>