<svg id="Capa_1" enable-background="new 0 0 512 512" height="512" viewBox="0 0 512 512" width="512" xmlns="http://www.w3.org/2000/svg"><g><g><path d="m440.46 433.51v-.01c-117.859 50.157-251.061 50.157-368.92 0v.01c-44.3-46.03-71.54-108.59-71.54-177.51 0-51.03 14.94-98.58 40.67-138.51l.01-.01 85.9-82.39c37.97-22.3 82.199-35.09 129.419-35.09 141.309-.001 256.205 115.068 256.001 256.377-.099 68.771-27.321 131.187-71.54 177.133z" fill="#65b2fe"/><path d="m512 256c0 68.91-27.24 131.48-71.54 177.5-117.859 50.157-251.061 50.157-368.92 0-44.3-46.02-71.54-108.59-71.54-177.5 0-46.22 12.25-89.57 33.68-127 44.12 77.07 127.16 129 222.32 129s178.21-51.93 222.32-129c21.43 37.43 33.68 80.78 33.68 127z" fill="#159de4"/></g><g><g><path d="m440.46 433.5c-46.57 48.39-112 78.5-184.46 78.5s-137.89-30.11-184.46-78.5z" fill="#b6e337"/><path d="m440.46 433.5c-46.57 48.39-112 78.5-184.46 78.5v-78.5z" fill="#6cdc2d"/></g><g><g><g><path d="m402.225 321.87v111.63h-158.719v-111.63l39.68-39.68 39.68-39.68z" fill="#f4863d"/><path d="m402.226 321.87v111.63h-119.039v-151.31l39.68-39.68z" fill="#c55732"/><path d="m402.225 321.87v111.63h-79.359v-190.99z" fill="#a63917"/><path d="m439.773 345.401h-28.62l-88.287-88.289-88.288 88.289h-28.62l116.908-116.909z" fill="#83250d"/></g><path d="m348.615 364.783v68.717h-51.498v-68.717c0-1.703 1.38-3.083 3.083-3.083h45.333c1.702.001 3.082 1.381 3.082 3.083z" fill="#83250d"/><g fill="#541c10"><path d="m348.615 364.783v68.717h-25.747v-71.799h22.665c1.702 0 3.082 1.38 3.082 3.082z"/><path d="m439.772 345.401h-28.618l-88.287-88.289v-28.62z"/></g></g><g><g><g><path d="m280.465 390.343h-23.197c-1.504 0-2.723-1.219-2.723-2.723v-23.197c0-1.504 1.219-2.723 2.723-2.723h23.197c1.504 0 2.723 1.219 2.723 2.723v23.197c-.001 1.504-1.22 2.723-2.723 2.723z" fill="#541c10"/></g><path d="m278.054 433.5h-56.366c-2.835 0-5.133-2.298-5.133-5.133v-20.98c0-2.835 2.298-5.133 5.133-5.133h56.366c2.835 0 5.133 2.298 5.133 5.133v20.98c0 2.835-2.298 5.133-5.133 5.133z" fill="#fff"/></g></g><g><g><path d="m365.267 390.343h23.197c1.504 0 2.723-1.219 2.723-2.723v-23.197c0-1.504-1.219-2.723-2.723-2.723h-23.197c-1.504 0-2.723 1.219-2.723 2.723v23.197c0 1.504 1.219 2.723 2.723 2.723z" fill="#541c10"/></g><path d="m367.677 433.5h56.366c2.835 0 5.133-2.298 5.133-5.133v-20.98c0-2.835-2.298-5.133-5.133-5.133h-56.366c-2.835 0-5.133 2.298-5.133 5.133v20.98c0 2.835 2.298 5.133 5.133 5.133z" fill="#d1f6ff"/></g></g><g><g><path d="m323.51 187.44-15.95 9.16-31.21 17.93c-13.96 8.02-28.38 15.13-43.17 21.31-7.35 3.07-14.8 5.91-22.32 8.52-2.66.92-5.33 1.82-8 2.68-12.92 4.15-23.99 12.52-31.87 23.57-3.5 4.91-8.1 9.15-13.71 12.31-20.11 11.32-46.46 3.94-57.76-16.18-4.05-7.2-5.77-15.09-5.39-22.78.21-4.41.12-8.73-.23-12.97-.47-5.65-1.41-11.15-2.74-16.53-2.86-11.55-7.49-22.56-13.06-33.35-1.94-3.77-3.99-7.5-6.13-11.23-5.6-9.79-11.73-19.49-17.75-29.36-.82-1.34-1.65-2.66-2.51-3.98-4.01-6.17-7.7-12.53-11.04-19.05 21.75-33.74 51.22-62.05 85.91-82.4l32.66 83.24 5.15 13.14 2.02 5.14c3.27 8.34 8.11 15.86 14.15 22.17 3.86 4.03 8.23 7.58 12.99 10.52 5.44 3.37 11.39 5.96 17.73 7.62 10.25 2.68 21.21 2.95 32.03.45.17-.05.34-.08.51-.12l15.17-2.85 2.67-.5c5.29-1 11.42-2.84 17.67-5.14 10.68-3.93 21.75-9.17 29.71-13.75l8.34-4.78c5.28-3.04 12.02-1.23 15.07 4.04l.02.03c1.16 2.03 2 4.16 2.53 6.31 2.51 10.24-1.9 21.32-11.49 26.83z" fill="#ffc0a4"/><path d="m335 160.61c-33.06 19.37-68.02 35.92-103.83 49.52-23.33 8.85-49.29 22.39-74.64 13.8-16.78-5.69-17.96-14.9-24.75-30.51-18.61-42.78-33.38-83.98-48.77-126.12 13.31-12.21 27.91-23.02 43.57-32.21h.01l39.82 101.52c7.75 19.76 24.32 34.94 44.87 40.31 10.25 2.68 21.21 2.95 32.03.45.17-.05.34-.08.51-.12l17.84-3.35c14.32-2.69 34.75-11.63 47.38-18.89l8.34-4.78c5.28-3.04 12.02-1.23 15.07 4.04l.02.03c1.16 2.03 2 4.16 2.53 6.31z" fill="#ffa87a"/><path d="m279.33 168.758-46.147 67.081c-7.353 3.071-14.802 5.915-22.327 8.526l48.134-69.966 2.671-.502c5.292-.993 11.415-2.841 17.669-5.139z" fill="#541c10"/><path d="m193.545 169.303-60.324 6.169-39.321 55.52c-.471-5.651-1.413-11.149-2.743-16.533l26.482-37.389-39.535 4.039c-1.94-3.766-3.997-7.501-6.129-11.23l54.718-5.593 32.545-45.955 5.154 13.136-22.119 31.228 38.288-3.918c3.863 4.037 8.224 7.583 12.984 10.526z" fill="#541c10"/><path d="m346.426 160.56 10.702 18.487c.761 1.315.315 2.999-1 3.76l-230.38 133.36c-1.314.761-2.997.309-3.758-1.006l-10.701-18.487c-.761-1.315-.315-2.999.999-3.76l230.38-133.36c1.314-.761 2.997-.309 3.758 1.006z" fill="#c55732"/><path d="m346.426 160.56 10.702 18.487c.761 1.315.315 2.999-1 3.76l-115.19 66.68-13.46-23.253 115.19-66.68c1.314-.761 2.997-.309 3.758 1.006z" fill="#a63917"/><path d="m159.095 90.822 9.198 19.833c1.592 3.435.302 7.515-2.973 9.41l-94.88 54.923c-3.725 2.156-8.494.649-10.302-3.251l-9.194-19.835c-1.595-3.433-.306-7.512 2.969-9.408l94.88-54.923c3.724-2.156 8.493-.649 10.302 3.251z" fill="#c55732"/></g><path d="m159.095 90.822 9.198 19.833c1.592 3.435.302 7.515-2.973 9.41l-51.501 29.812c-4.531-11.518-8.88-22.984-13.154-34.446l48.129-27.86c3.723-2.156 8.492-.649 10.301 3.251z" fill="#a63917"/></g><g><path d="m222.793 108.135c-.001-.092-.007-.182-.007-.274 0-16.765 13.591-30.356 30.357-30.356 3.983 0 7.783.775 11.268 2.17 6.731-12.06 19.612-20.219 34.404-20.219 19.209 0 35.197 13.757 38.672 31.953 1.036-.148 2.094-.229 3.171-.229 10.444 0 19.194 7.23 21.533 16.956h-139.398z" fill="#fff"/><path d="m252.412 108.135c0-.053-.004-.104-.004-.157 0-9.641 7.815-17.456 17.456-17.456 2.29 0 4.475.446 6.479 1.248 3.871-6.935 11.277-11.627 19.783-11.627 11.046 0 20.239 7.91 22.237 18.374.596-.085 1.204-.132 1.823-.132 6.006 0 11.037 4.157 12.382 9.75z" fill="#d0f6ff"/></g><g><path d="m376.449 240.544c-.001-.075-.006-.149-.006-.225 0-13.794 11.183-24.977 24.977-24.977 3.277 0 6.404.637 9.271 1.785 5.539-9.923 16.136-16.636 28.307-16.636 15.805 0 28.96 11.319 31.819 26.291.852-.122 1.723-.189 2.609-.189 8.593 0 15.793 5.949 17.717 13.951z" fill="#fff"/><path d="m400.819 240.544c0-.043-.003-.086-.003-.13 0-7.932 6.43-14.362 14.362-14.362 1.884 0 3.682.367 5.331 1.026 3.185-5.706 9.279-9.566 16.277-9.566 9.088 0 16.653 6.509 18.297 15.118.49-.07.991-.109 1.5-.109 4.941 0 9.081 3.421 10.188 8.022h-65.952z" fill="#d0f6ff"/></g><g><path d="m36.662 368.432c0-.075-.006-.149-.006-.225 0-13.795 11.183-24.977 24.977-24.977 3.277 0 6.404.638 9.271 1.785 5.539-9.922 16.136-16.636 28.307-16.636 15.805 0 28.96 11.319 31.819 26.291.852-.122 1.723-.189 2.609-.189 8.593 0 15.793 5.949 17.717 13.951z" fill="#fff"/><path d="m61.033 368.432c0-.043-.003-.086-.003-.129 0-7.932 6.43-14.362 14.362-14.362 1.884 0 3.682.367 5.331 1.026 3.185-5.706 9.279-9.566 16.277-9.566 9.088 0 16.653 6.509 18.297 15.118.49-.07.99-.109 1.5-.109 4.941 0 9.081 3.421 10.188 8.022z" fill="#d0f6ff"/></g></g></g></svg>