<svg id="Capa_1" enable-background="new 0 0 512 512" height="512" viewBox="0 0 512 512" width="512" xmlns="http://www.w3.org/2000/svg"><g><g><path d="m512 256c0 51.15-15 98.79-40.85 138.77-134.124 73.081-296.175 73.081-430.299 0-25.851-39.98-40.851-87.62-40.851-138.77 0-65.57 24.66-125.38 65.19-170.67 46.88-52.37 115-85.33 190.81-85.33s143.93 32.96 190.81 85.33c40.53 45.29 65.19 105.1 65.19 170.67z" fill="#4e689b"/><path d="m512 256c0 51.14-15 98.79-40.85 138.77-134.124 73.081-296.175 73.081-430.299 0-25.851-39.98-40.851-87.63-40.851-138.77 0-46.22 12.25-89.57 33.68-127 44.12 77.07 127.16 129 222.32 129s178.21-51.93 222.32-129c21.43 37.43 33.68 80.78 33.68 127z" fill="#374c81"/></g><g><path d="m452.427 340.86c-.119.401-.238.802-.347 1.203l-8.653 29.482-5.183 17.62c-.976 3.329-4.034 5.606-7.492 5.606h-9.032c-4.326 0-7.818-3.491-7.818-7.807v-117.829c0-10.572-12.783-15.863-20.265-8.392l-124.42 124.431c-3.73 3.73-8.273 6.473-13.217 8.045-3.188 1.019-6.549 1.551-9.975 1.551h-202.749c0-8.327 2.06-16.242 5.768-23.225 6.495-12.361 18.108-21.783 32.398-25.35 27.41-6.863 52.707-21.035 73.026-41.344l25.014-25.036c2.581-2.581 6.018-3.947 9.531-3.947 1.702 0 3.448.325 5.096 1.009 28.332 11.602 44.043 25.741 61.891 21.36 6.831-1.67 13.976-6.061 22.26-14.345l152.894-152.894c3.155-3.155 8.457-2.483 10.712 1.377 36.996 62.932 31.011 138.386 10.561 208.485z" fill="#d1f6ff"/><path d="m452.427 340.86c-.119.401-.238.802-.347 1.203l-8.653 29.482-5.183 17.62c-.976 3.329-4.034 5.606-7.492 5.606h-9.032c-4.326 0-7.818-3.491-7.818-7.807v-117.829c0-10.572-12.783-15.863-20.265-8.392l-124.42 124.431c-3.73 3.73-8.273 6.473-13.217 8.045v-94.982c6.831-1.67 13.976-6.061 22.26-14.345l152.894-152.894c3.155-3.155 8.457-2.483 10.712 1.377 36.996 62.932 31.011 138.386 10.561 208.485z" fill="#b3f4ff"/><path d="m445.64 250.767-19.68 144.003h-4.239c-4.326 0-7.818-3.491-7.818-7.807v-117.828c0-10.572-12.783-15.863-20.265-8.392l-124.421 124.431c-3.73 3.73-8.273 6.473-13.217 8.045-3.188 1.019-6.549 1.551-9.975 1.551h-202.749c0-8.327 2.06-16.242 5.768-23.225 6.495-12.361 18.108-21.783 32.398-25.35h132.217c14.638 0 28.983-2.787 42.341-8.078 14.551-5.725 27.92-14.432 39.197-25.697l91.09-91.101c23.68-23.671 63.885-3.72 59.353 29.448z" fill="#8fc8f5"/><path d="m445.64 250.767-19.68 144.003h-4.239c-4.326 0-7.818-3.491-7.818-7.807v-117.828c0-10.572-12.783-15.863-20.265-8.392l-124.421 124.431c-3.73 3.73-8.273 6.473-13.217 8.045v-55.103c14.551-5.725 27.92-14.432 39.197-25.697l91.09-91.101c23.68-23.67 63.885-3.719 59.353 29.449z" fill="#65b2fe"/><path d="m282.836 371.545-13.619 13.629c-3.73 3.73-8.273 6.473-13.217 8.045-3.188 1.019-6.549 1.551-9.975 1.551h-202.749c0-8.327 2.06-16.242 5.768-23.225z" fill="#d1f6ff"/><path d="m280.75 373.35-12.56 12.57c-3.44 3.44-7.63 5.97-12.19 7.42v-19.99z" fill="#b3f4ff"/><path d="m443.428 371.545-5.183 17.62c-.976 3.329-4.034 5.606-7.492 5.606h-9.032c-4.326 0-7.818-3.491-7.818-7.807v-15.418h29.525z" fill="#65b2fe"/><path d="m429.137 371.545-3.177 23.225h-4.239c-4.326 0-7.818-3.491-7.818-7.807v-15.418z" fill="#8fc8f5"/></g><g><path d="m471.15 394.77c-18.17 28.12-41.7 52.45-69.15 71.54-40.63 28.26-89.84 45.05-142.94 45.67-1.02.02-2.04.02-3.06.02s-2.04 0-3.06-.02c-53.1-.62-102.31-17.41-142.94-45.67-27.45-19.09-50.98-43.42-69.15-71.54z" fill="#b6e337"/><path d="m471.15 394.77c-18.17 28.12-41.7 52.45-69.15 71.54-40.63 28.26-89.84 45.05-142.94 45.67-1.02.02-2.04.02-3.06.02v-117.23z" fill="#6cdc2d"/></g><g><g><path d="m237.891 211.506h1.524c6.753 0 12.227 5.474 12.227 12.227v1.524h8.716v-1.524c0-6.753 5.474-12.227 12.227-12.227h1.525v-8.716h-1.525c-6.753 0-12.227-5.474-12.227-12.227v-1.525h-8.716v1.525c0 6.753-5.474 12.227-12.227 12.227h-1.524z" fill="#fff"/></g></g><g><g><g><path d="m144.947 94.384h1.524c6.753 0 12.227 5.474 12.227 12.227v1.524h8.716v-1.524c0-6.753 5.474-12.227 12.227-12.227h1.525v-8.716h-1.525c-6.753 0-12.227-5.474-12.227-12.227v-1.525h-8.716v1.525c0 6.753-5.474 12.227-12.227 12.227h-1.524z" fill="#fff"/></g></g><g><g><path d="m369.861 91.428h1.524c6.753 0 12.227 5.474 12.227 12.227v1.524h8.716v-1.524c0-6.753 5.474-12.227 12.227-12.227h1.525v-8.716h-1.525c-6.753 0-12.227-5.474-12.227-12.227v-1.525h-8.716v1.525c0 6.753-5.474 12.227-12.227 12.227h-1.524z" fill="#fff"/></g></g></g><g><g><g><path d="m40.85 224.14h1.524c6.753 0 12.227 5.474 12.227 12.227v1.524h8.716v-1.524c0-6.753 5.474-12.227 12.227-12.227h1.525v-8.716h-1.525c-6.753 0-12.227-5.474-12.227-12.227v-1.525h-8.716v1.525c0 6.753-5.474 12.227-12.227 12.227h-1.524z" fill="#fff"/></g></g></g></g></svg>