<svg id="Capa_1" enable-background="new 0 0 512.17 512.17" height="512" viewBox="0 0 512.17 512.17" width="512" xmlns="http://www.w3.org/2000/svg"><g><g><path d="m512.17 256.085c0 102.73-60.52 191.33-147.84 232.09l-95.99 23.62c-4.03.19-8.09.29-12.17.29-4.07 0-8.11-.09-12.13-.29 0 0 0 0-.01 0l-96.01-23.62c-87.33-40.75-147.85-129.36-147.85-232.09 0-131.88 99.74-240.48 227.9-254.47h56.24c128.14 14.01 227.86 122.6 227.86 254.47z" fill="#4e689b"/><path d="m512 256.085c0 87.11-43.52 164.07-110 210.31-11.91 8.29-24.57 15.59-37.84 21.78h-.01l-95.97 23.62c-4.04.19-8.1.29-12.18.29-4.07 0-8.11-.09-12.13-.29l-96.02-23.62c-13.28-6.19-25.93-13.49-37.85-21.78-66.48-46.24-110-123.2-110-210.31 0-46.22 12.25-89.57 33.68-127 44.12 77.07 127.16 129 222.32 129s178.21-51.93 222.32-129c21.43 37.43 33.68 80.78 33.68 127z" fill="#374c81"/></g><g><g><g><path d="m294.4 324.515c-12.92 32.2-29.3 63.06-39.85 96.11-9.1 28.54-16.3 61.6-10.68 91.17-1.22-.06-2.44-.12-3.66-.2-1.59-.09-3.17-.2-4.75-.33-4.58-.36-9.13-.85-13.64-1.45-.84-.11-1.68-.22-2.51-.35-.24-.03-.49-.06-.73-.1-1.04-.15-2.08-.31-3.11-.48-2.07-.33-4.13-.68-6.18-1.06-1.61-.29-3.21-.61-4.8-.93-.45-.09-.89-.18-1.33-.28-.3-.06-.6-.12-.9-.19-1.65-.35-3.3-.72-4.94-1.11-1-.23-2-.47-3-.72-.45-.11-.9-.22-1.34-.34-.64-.15-1.28-.32-1.92-.49-2-.52-3.98-1.06-5.96-1.63-.99-.29-1.98-.58-2.96-.87-.99-.3-1.97-.6-2.95-.91-10.77-3.38-21.23-7.46-31.34-12.18-3.82-23.04-.52-47.78 7.05-70.12 11.93-35.21 33.2-66.34 51.59-98.65 18.42-32.31 34.46-67.61 34.21-104.79-.17-25.43-7.98-50.12-15.8-74.33-7.82-24.2-15.81-48.8-16.37-74.23-.48-21.89 5.34-47.27 19.34-64.44 4.14-.45 8.3-.81 12.49-1.06 1.67-.1 3.35-.18 5.03-.24 3.52-.16 7.06-.23 10.61-.23 1.08 0 2.16.01 3.24.02 4.16.05 8.3.2 12.41.45-13.54 19.85-16.64 46.02-12.8 70.01 4.27 26.74 16.13 51.56 27.63 76.08s22.92 49.64 26.18 76.52c4.19 34.44-5.36 69.14-18.26 101.35z" fill="#6cdc2d"/><path d="m294.4 324.515c-12.92 32.2-29.3 63.06-39.85 96.11-9.1 28.54-16.3 61.6-10.68 91.17-17-.79-33.57-3.24-49.55-7.2-3.11-32.16.96-65.03 12.16-95.34 11.76-31.76 30.82-60.21 46.43-90.27 19.95-38.49 27.19-81.34 19.46-124.23-5.19-28.79-22.83-54.78-30.48-83.1-9.84-36.38-8.54-75.65 3.5-111.34 3.52-.16 7.06-.23 10.61-.23 1.08 0 2.16.01 3.24.02 4.16.05 8.3.2 12.41.45-13.54 19.85-16.64 46.02-12.8 70.01 4.27 26.74 16.13 51.56 27.63 76.08s22.92 49.64 26.18 76.52c4.19 34.44-5.36 69.14-18.26 101.35z" fill="#53af17"/><path d="m364.16 488.175h-.01c-14.74 6.89-30.23 12.4-46.33 16.39-16.02 3.97-32.63 6.44-49.68 7.24 5.62-29.57-1.59-62.63-10.68-91.18-10.55-33.05-26.93-63.91-39.86-96.11-12.9-32.21-22.44-66.91-18.25-101.35 3.26-26.88 14.68-52 26.17-76.52 11.5-24.52 23.37-49.34 27.65-76.08 3.84-23.99.73-50.16-12.81-70.01 1.67-.1 3.35-.18 5.03-.24 3.52-.16 7.06-.23 10.61-.23 1.08 0 2.16.01 3.24.02 4.16.05 8.3.2 12.41.45 4.19.25 8.36.61 12.49 1.06 13.99 17.17 19.82 42.55 19.34 64.44-.56 25.43-8.56 50.03-16.38 74.23-7.81 24.21-15.62 48.9-15.78 74.33-.27 37.18 15.78 72.48 34.19 104.79 18.4 32.31 39.66 63.44 51.59 98.65 7.57 22.34 10.87 47.08 7.06 70.12z" fill="#b6e337"/><path d="m364.15 488.175c-14.74 6.89-30.23 12.4-46.33 16.39 2.25-24.49-1.8-50.22-9.4-73.73-13.64-42.24-37.33-80.52-53.41-121.9-22.12-56.95-17.47-112.03 4.15-168.16 10.52-27.35 19.63-49.05 17.45-79.32-1.52-21.34-7.42-42.41-17.37-61.35 4.16.05 8.3.2 12.41.45 4.19.25 8.36.61 12.49 1.06 13.99 17.17 19.82 42.55 19.34 64.44-.56 25.43-8.56 50.03-16.38 74.23-7.81 24.21-15.62 48.9-15.78 74.33-.27 37.18 15.78 72.48 34.19 104.79 18.4 32.31 39.66 63.44 51.59 98.65 7.57 22.34 10.87 47.08 7.05 70.12z" fill="#6cdc2d"/></g><g><path d="m342.497 133.734c-2.173 11.18-8.623 21.522-18.832 28.362s-22.227 8.871-33.393 6.628c2.169-11.177 8.62-21.525 18.83-28.366 10.209-6.84 22.233-8.87 33.395-6.624z" fill="#6cdc2d"/><path d="m290.272 168.724c11.166 2.243 23.184.212 33.393-6.628 10.21-6.84 16.659-17.182 18.832-28.362z" fill="#53af17"/></g><g><path d="m348.34 51.794c-3.207 10.345-10.371 19.456-20.728 24.869s-21.927 6.094-32.252 2.822c3.204-10.343 10.369-19.46 20.726-24.873 10.357-5.414 21.933-6.092 32.254-2.818z" fill="#b6e337"/><path d="m295.359 79.485c10.325 3.272 21.895 2.591 32.252-2.822s17.521-14.525 20.728-24.869z" fill="#6cdc2d"/></g><g><path d="m324.653 201.571c-3.765 12.144-12.175 22.84-24.333 29.195-12.159 6.355-25.741 7.154-37.861 3.313 3.761-12.142 12.173-22.844 24.331-29.199 12.158-6.356 25.747-7.152 37.863-3.309z" fill="#b6e337"/><path d="m262.458 234.078c12.12 3.841 25.703 3.042 37.861-3.313 12.159-6.355 20.568-17.05 24.333-29.195z" fill="#6cdc2d"/></g><g><path d="m368.864 318.198c-3.765 12.144-12.175 22.84-24.333 29.195s-25.741 7.154-37.861 3.313c3.761-12.142 12.173-22.844 24.331-29.199s25.747-7.152 37.863-3.309z" fill="#b6e337"/><path d="m306.669 350.706c12.12 3.841 25.703 3.042 37.861-3.313 12.159-6.355 20.568-17.051 24.333-29.195z" fill="#6cdc2d"/></g><g><path d="m171.07 126.82c1.293 12.648 7.425 24.794 18.089 33.425s23.821 12.096 36.461 10.724c-1.289-12.645-7.422-24.798-18.086-33.429-10.663-8.631-23.828-12.096-36.464-10.72z" fill="#b6e337"/><path d="m225.621 170.968c-12.64 1.372-25.797-2.093-36.461-10.724s-16.796-20.776-18.089-33.425z" fill="#6cdc2d"/></g><g><path d="m154.563 39.932c6.112 11.593 16.656 20.84 30.178 24.98s27.436 2.38 38.99-3.804c-6.107-11.591-16.655-20.845-30.176-24.985-13.522-4.14-27.443-2.377-38.992 3.809z" fill="#6cdc2d"/><path d="m223.731 61.107c-11.555 6.184-25.468 7.944-38.99 3.804s-24.066-13.387-30.178-24.98z" fill="#53af17"/></g><g><path d="m125.75 223.838c6.988 13.254 19.043 23.826 34.502 28.558 15.459 4.733 31.366 2.721 44.576-4.349-6.982-13.252-19.041-23.832-34.5-28.564-15.459-4.733-31.374-2.717-44.578 4.355z" fill="#b6e337"/><path d="m204.828 248.047c-13.21 7.071-29.117 9.082-44.576 4.349s-27.514-15.305-34.502-28.559z" fill="#6cdc2d"/></g><g><path d="m127.73 315.094c4.173 14.39 13.85 27.175 28.037 34.926 14.188 7.751 30.174 8.988 44.538 4.725-4.168-14.387-13.847-27.18-28.034-34.932-14.188-7.751-30.182-8.985-44.541-4.719z" fill="#6cdc2d"/><path d="m200.305 354.745c-14.364 4.263-30.35 3.027-44.538-4.725-14.188-7.751-23.864-20.536-28.037-34.926z" fill="#53af17"/></g><g><path d="m88.435 412.979c7.884 12.741 20.638 22.458 36.386 26.115s31.479.555 44.171-7.408c-7.878-12.74-20.636-22.464-36.385-26.121-15.747-3.657-31.485-.551-44.172 7.414z" fill="#6cdc2d"/><path d="m168.992 431.686c-12.692 7.963-28.423 11.065-44.171 7.408s-28.502-13.374-36.386-26.115z" fill="#53af17"/></g><g><path d="m364.442 262.019c-8.108 9.763-19.947 16.417-33.586 17.637s-26.471-3.228-36.183-11.397c8.103-9.762 19.946-16.422 33.585-17.642 13.64-1.22 26.477 3.232 36.184 11.402z" fill="#6cdc2d"/><path d="m294.674 268.259c9.712 8.169 22.544 12.617 36.183 11.397s25.478-7.874 33.586-17.637z" fill="#53af17"/></g><g><path d="m433.147 384.909c-4.893 17.629-16.527 33.374-33.741 43.038s-36.715 11.398-54.313 6.395c4.886-17.625 16.524-33.381 33.737-43.045 17.214-9.663 36.725-11.394 54.317-6.388z" fill="#b6e337"/><path d="m345.093 434.343c17.598 5.003 37.099 3.268 54.313-6.395 17.214-9.664 28.849-25.41 33.741-43.038z" fill="#6cdc2d"/></g><g><path d="m190.704 433.571c6.676 13.414 18.481 24.264 33.825 29.356s31.294 3.453 44.666-3.307c-6.671-13.412-18.479-24.27-33.823-29.362-15.345-5.093-31.302-3.449-44.668 3.313z" fill="#b6e337"/><path d="m269.195 459.62c-13.372 6.76-29.321 8.4-44.666 3.307-15.344-5.092-27.149-15.943-33.825-29.356z" fill="#6cdc2d"/></g></g><g><path d="m42.667 179.22c-.001-.092-.007-.182-.007-.274 0-16.765 13.591-30.356 30.356-30.356 3.983 0 7.783.775 11.268 2.17 6.731-12.06 19.612-20.219 34.404-20.219 19.209 0 35.197 13.757 38.672 31.953 1.036-.148 2.094-.23 3.171-.23 10.444 0 19.194 7.23 21.533 16.956z" fill="#fff"/><path d="m72.286 179.22c0-.053-.004-.105-.004-.157 0-9.641 7.815-17.456 17.456-17.456 2.29 0 4.476.446 6.479 1.247 3.871-6.934 11.277-11.627 19.783-11.627 11.046 0 20.239 7.91 22.237 18.374.596-.085 1.204-.132 1.823-.132 6.006 0 11.037 4.157 12.382 9.75h-80.156z" fill="#d0f6ff"/></g><g><path d="m479.578 338.147c.001-.092.007-.182.007-.274 0-16.765-13.591-30.356-30.357-30.356-3.983 0-7.783.775-11.268 2.17-6.732-12.06-19.612-20.219-34.404-20.219-19.209 0-35.197 13.757-38.672 31.953-1.036-.148-2.094-.229-3.171-.229-10.444 0-19.194 7.23-21.533 16.956h139.398z" fill="#fff"/><path d="m449.959 338.147c0-.053.004-.104.004-.157 0-9.641-7.815-17.456-17.456-17.456-2.29 0-4.475.446-6.479 1.247-3.871-6.935-11.277-11.627-19.783-11.627-11.046 0-20.239 7.91-22.237 18.374-.596-.085-1.204-.132-1.823-.132-6.006 0-11.037 4.157-12.382 9.75h80.156z" fill="#d0f6ff"/></g><g><path d="m354.667 193.216c-.001-.092-.007-.182-.007-.273 0-16.765 13.591-30.356 30.357-30.356 3.983 0 7.783.775 11.268 2.17 6.732-12.06 19.612-20.219 34.404-20.219 19.209 0 35.197 13.757 38.672 31.953 1.036-.148 2.094-.229 3.171-.229 10.444 0 19.194 7.23 21.533 16.956h-139.398z" fill="#fff"/><path d="m384.286 193.216c0-.053-.004-.104-.004-.157 0-9.641 7.815-17.456 17.456-17.456 2.29 0 4.475.446 6.479 1.248 3.871-6.935 11.277-11.627 19.783-11.627 11.046 0 20.239 7.91 22.237 18.374.596-.085 1.204-.132 1.823-.132 6.006 0 11.037 4.157 12.382 9.75z" fill="#d0f6ff"/></g><g><path d="m46.383 331.482c-.001-.092-.007-.182-.007-.273 0-16.766 13.591-30.356 30.356-30.356 3.983 0 7.783.775 11.268 2.169 6.731-12.06 19.612-20.219 34.404-20.219 19.209 0 35.197 13.757 38.672 31.953 1.036-.148 2.094-.229 3.171-.229 10.444 0 19.194 7.23 21.533 16.956h-139.397z" fill="#fff"/><path d="m76.001 331.482c0-.053-.004-.104-.004-.157 0-9.641 7.815-17.456 17.456-17.456 2.29 0 4.475.445 6.479 1.247 3.871-6.935 11.277-11.627 19.783-11.627 11.046 0 20.239 7.91 22.237 18.374.596-.085 1.204-.132 1.823-.132 6.006 0 11.037 4.157 12.382 9.75h-80.156z" fill="#d0f6ff"/></g></g></g></svg>