<svg id="Capa_1" enable-background="new 0 0 512 512" height="512" viewBox="0 0 512 512" width="512" xmlns="http://www.w3.org/2000/svg"><g><g><path d="m512 256c0 58.03-19.31 111.55-51.86 154.49l-.121.06c-128.511 63.903-279.536 63.923-408.064.052l-.005-.002c-32.6-42.96-51.95-96.52-51.95-154.6 0-141.38 114.62-256 256-256s256 114.62 256 256z" fill="#9e68e0"/><path d="m512 256c0 58.03-19.31 111.55-51.86 154.49h-.01l-.108.054c-128.513 63.907-279.541 63.928-408.072.056-32.6-42.96-51.95-96.52-51.95-154.6 0-46.22 12.25-89.57 33.68-127 44.12 77.07 127.16 129 222.32 129s178.21-51.93 222.32-129c21.43 37.43 33.68 80.78 33.68 127z" fill="#8e4dd3"/></g><g><g><path d="m197.32 176.71h117.46v172.75h-117.46z" fill="#fff"/><path d="m256 176.71h58.78v172.75h-58.78z" fill="#d3edf7"/><path d="m314.77 176.71h-117.46l58.69-115.16.04-.08z" fill="#b3f4ff"/><path d="m314.77 176.71h-89.11l30.36-115.16.02-.08z" fill="#8fc8f5"/><path d="m314.77 176.71h-58.77v-115.16l.04-.08z" fill="#65b2fe"/><path d="m287.41 260.96v24.89h-62.73v-24.89c0-17.31 14.02-31.34 31.32-31.36h.04c17.33 0 31.37 14.04 31.37 31.36z" fill="#4e689a"/><path d="m287.41 260.96v24.89h-31.41v-56.25h.04c17.33 0 31.37 14.04 31.37 31.36z" fill="#384c81"/><path d="m374.02 326.55v156.68c-35.31 18.38-75.45 28.77-118.02 28.77-42.53 0-82.64-10.37-117.93-28.73v-156.72c0-1.82 1.48-3.3 3.31-3.3h19.59c1.84 0 3.32 1.48 3.32 3.3v22.91h26.22v-22.91c0-1.82 1.47-3.3 3.3-3.3h19.61c1.81 0 3.29 1.48 3.29 3.3v22.91h26.23v-22.91c0-1.82 1.48-3.3 3.29-3.3h19.62c1.83 0 3.31 1.48 3.31 3.3v22.91h26.21v-22.91c0-1.82 1.48-3.3 3.31-3.3h19.6c1.83 0 3.31 1.48 3.31 3.3v22.91h26.22v-22.91c0-1.82 1.48-3.3 3.3-3.3h19.6c1.83 0 3.31 1.48 3.31 3.3z" fill="#fff"/><path d="m374.02 326.55v156.68c-35.31 18.38-75.45 28.77-118.02 28.77v-188.75h9.85c1.83 0 3.31 1.48 3.31 3.3v22.91h26.21v-22.91c0-1.82 1.48-3.3 3.31-3.3h19.6c1.83 0 3.31 1.48 3.31 3.3v22.91h26.22v-22.91c0-1.82 1.48-3.3 3.3-3.3h19.6c1.83 0 3.31 1.48 3.31 3.3z" fill="#d3edf7"/><path d="m294.79 279.24v13.22c0 2.09-1.7 3.79-3.79 3.79h-69.91c-2.1 0-3.79-1.7-3.79-3.79v-13.22c0-2.09 1.69-3.79 3.79-3.79h69.91c2.09 0 3.79 1.7 3.79 3.79z" fill="#8fc8f5"/><path d="m294.79 279.24v13.22c0 2.09-1.7 3.79-3.79 3.79h-35v-20.8h35c2.09 0 3.79 1.7 3.79 3.79z" fill="#65b2fe"/><path d="m326.38 180.99v17.33c0 2.36-1.91 4.27-4.27 4.27h-132.13c-2.36 0-4.28-1.91-4.28-4.27v-17.33c0-2.36 1.92-4.28 4.28-4.28h132.13c2.36 0 4.27 1.92 4.27 4.28z" fill="#b3f4ff"/><path d="m374.02 326.55v49.13h-235.95v-49.13c0-1.82 1.48-3.3 3.31-3.3h19.59c1.84 0 3.32 1.48 3.32 3.3v22.91h26.22v-22.91c0-1.82 1.47-3.3 3.3-3.3h19.61c1.81 0 3.29 1.48 3.29 3.3v22.91h26.23v-22.91c0-1.82 1.48-3.3 3.29-3.3h19.62c1.83 0 3.31 1.48 3.31 3.3v22.91h26.21v-22.91c0-1.82 1.48-3.3 3.31-3.3h19.6c1.83 0 3.31 1.48 3.31 3.3v22.91h26.22v-22.91c0-1.82 1.48-3.3 3.3-3.3h19.6c1.83 0 3.31 1.48 3.31 3.3z" fill="#8fc8f5"/><path d="m287.41 444.45v65.64c-10.29 1.26-20.78 1.91-31.41 1.91-10.6 0-21.06-.64-31.32-1.9v-65.65c0-17.31 14-31.34 31.32-31.37h.05c17.32 0 31.36 14.04 31.36 31.37z" fill="#4e689a"/><path d="m148.96 198.72v65.35l-10.89 28.13v191.07c-33.84-17.59-63.25-42.52-86.12-72.67v-117.99l-10.99-28.54v-65.35c0-1.08.88-1.95 1.96-1.95h11.53c1.09 0 1.96.87 1.96 1.95v13.47h15.42v-13.47c0-1.08.88-1.95 1.94-1.95h11.55c1.07 0 1.94.87 1.94 1.95v13.47h15.42v-13.47c0-1.08.88-1.95 1.94-1.95h11.55c1.07 0 1.94.87 1.94 1.95v13.47h15.44v-13.47c0-1.08.87-1.95 1.93-1.95h11.54c1.08 0 1.94.87 1.94 1.95z" fill="#fff"/><path d="m148.97 198.72v65.35l-2.17 5.6-5.66 14.6-3.07 7.93v191.07c-15.35-7.97-29.78-17.47-43.1-28.27v-242.81h7.7v-13.47c0-1.08.89-1.95 1.96-1.95h11.53c1.09 0 1.95.87 1.95 1.95v13.47h15.44v-13.47c0-1.08.86-1.95 1.94-1.95h11.53c1.08 0 1.95.87 1.95 1.95z" fill="#d3edf7"/><path d="m471.04 198.72v65.35l-2.17 5.6-5.66 14.6-3.07 7.93v118.29c-3.75 4.95-7.69 9.77-11.79 14.43-9.56 10.89-20.04 20.96-31.31 30.09-13.31 10.78-27.71 20.25-43.02 28.22v-190.62l-10.97-28.54v-65.35c0-1.08.86-1.95 1.93-1.95h11.54c1.09 0 1.95.87 1.95 1.95v13.47h15.43v-13.47c0-1.08.88-1.95 1.94-1.95h11.55c1.07 0 1.94.87 1.94 1.95v13.47h15.41v-13.47c0-1.08.89-1.95 1.96-1.95h11.53c1.09 0 1.95.87 1.95 1.95v13.47h15.44v-13.47c0-1.08.86-1.95 1.94-1.95h11.53c1.08 0 1.95.87 1.95 1.95z" fill="#fff"/><path d="m471.04 198.72v65.35l-2.17 5.6-5.66 14.6-3.07 7.93v118.29c-12.52 16.52-27 31.48-43.1 44.52v-242.82h7.7v-13.47c0-1.08.89-1.95 1.96-1.95h11.53c1.09 0 1.95.87 1.95 1.95v13.47h15.44v-13.47c0-1.08.86-1.95 1.94-1.95h11.53c1.08 0 1.95.87 1.95 1.95z" fill="#d3edf7"/><path d="m148.96 198.72v37.37h-108v-37.37c0-1.08.88-1.95 1.96-1.95h11.53c1.09 0 1.96.87 1.96 1.95v13.47h15.42v-13.47c0-1.08.88-1.95 1.94-1.95h11.55c1.07 0 1.94.87 1.94 1.95v13.47h15.42v-13.47c0-.4.12-.78.33-1.09.07-.11.15-.2.24-.29.35-.35.85-.57 1.38-.57h11.53c.82 0 1.51.49 1.8 1.19.05.12.09.24.11.37.03.12.04.25.04.39v13.47h15.44v-13.47c0-.14.01-.27.04-.39.02-.13.06-.25.11-.37.29-.7.98-1.19 1.79-1.19h11.53c.61 0 1.15.28 1.5.71.08.09.15.2.21.31.14.27.23.59.23.93z" fill="#8fc8f5"/><path d="m471.04 198.72v37.37h-107.99v-37.37c0-1.08.86-1.95 1.93-1.95h11.54c1.09 0 1.95.87 1.95 1.95v13.47h15.43v-13.47c0-1.08.88-1.95 1.94-1.95h11.55c1.07 0 1.94.87 1.94 1.95v13.47h15.41v-13.47c0-1.08.89-1.95 1.96-1.95h11.53c1.09 0 1.95.87 1.95 1.95v13.47h15.44v-13.47c0-1.08.86-1.95 1.94-1.95h11.53c1.08 0 1.95.87 1.95 1.95z" fill="#8fc8f5"/><g><path d="m117.23 345.52v38.92h-44.53v-38.92c0-12.3 9.97-22.27 22.27-22.27 12.29 0 22.26 9.97 22.26 22.27z" fill="#4e689a"/><path d="m117.23 345.52v38.92h-22.26v-61.19c12.29 0 22.26 9.97 22.26 22.27z" fill="#384c81"/><path d="m122.47 379.75v9.38c0 1.48-1.2 2.69-2.69 2.69h-49.63c-1.49 0-2.69-1.21-2.69-2.69v-9.38c0-1.49 1.2-2.69 2.69-2.69h49.63c1.49 0 2.69 1.2 2.69 2.69z" fill="#8fc8f5"/><path d="m122.47 379.75v9.38c0 1.48-1.2 2.69-2.69 2.69h-24.81v-14.76h24.81c1.49 0 2.69 1.2 2.69 2.69z" fill="#65b2fe"/></g><path d="m439.31 345.52v38.92h-44.54v-38.92c0-12.3 9.97-22.27 22.27-22.27s22.27 9.97 22.27 22.27z" fill="#4e689a"/><path d="m439.31 345.52v38.92h-22.27v-61.19c12.3 0 22.27 9.97 22.27 22.27z" fill="#384c81"/><path d="m444.54 379.75v9.38c0 1.48-1.2 2.69-2.69 2.69h-49.62c-1.49 0-2.69-1.21-2.69-2.69v-9.38c0-1.49 1.2-2.69 2.69-2.69h49.62c1.49 0 2.69 1.2 2.69 2.69z" fill="#8fc8f5"/><path d="m444.54 379.75v9.38c0 1.48-1.2 2.69-2.69 2.69h-24.81v-14.76h24.81c1.49 0 2.69 1.2 2.69 2.69z" fill="#65b2fe"/><path d="m460.14 410.33v.16c-3.75 4.95-7.69 9.77-11.79 14.43h-19.07v-14.59z" fill="#bae4f1"/><path d="m374.015 301.69h30.86v14.6h-30.86z" fill="#d3edf7"/><path d="m468.865 269.67-5.66 14.6h-31.38v-14.6z" fill="#bae4f1"/><path d="m363.045 243.12h30.57v14.6h-30.57z" fill="#d3edf7"/><path d="m197.315 214.98h29.03v14.6h-29.03z" fill="#d3edf7"/><path d="m297.205 250.42h17.57v14.6h-17.57z" fill="#bae4f1"/><path d="m268.011 208.796h41.618v14.6h-41.618z" fill="#bae4f1"/><path d="m268.011 302.448h41.618v14.6h-41.618z" fill="#bae4f1"/><path d="m197.315 301.69h27.36v14.6h-27.36z" fill="#d3edf7"/><g fill="#bae4f1"><path d="m178.66 391.816h42.711v14.6h-42.711z"/><path d="m146.785 441.595h42.711v14.6h-42.711z"/><path d="m314.771 441.595h42.711v14.6h-42.711z"/><path d="m293.415 388.228h42.711v14.6h-42.711z"/><path d="m444.545 327.23h15.59v14.6h-15.59z"/></g><path d="m374.015 441.6h28.32v14.59h-28.32z" fill="#d3edf7"/><path d="m107.195 410.33h30.86v14.59h-30.86z" fill="#bae4f1"/><path d="m51.935 301.69h30.86v14.6h-30.86z" fill="#d3edf7"/><path d="m146.785 269.67-5.66 14.6h-31.38v-14.6z" fill="#bae4f1"/><path d="m40.965 243.12h30.57v14.6h-30.57z" fill="#d3edf7"/><path d="m122.465 327.23h15.59v14.6h-15.59z" fill="#bae4f1"/></g><path d="m326.38 180.99v17.33c0 2.36-1.91 4.27-4.27 4.27h-66.11v-25.88h66.11c2.36 0 4.27 1.92 4.27 4.28z" fill="#8fc8f5"/><path d="m374.02 326.55v49.13h-118.02v-52.43h9.85c1.83 0 3.31 1.48 3.31 3.3v22.91h26.21v-22.91c0-1.82 1.48-3.3 3.31-3.3h19.6c1.83 0 3.31 1.48 3.31 3.3v22.91h26.22v-22.91c0-1.82 1.48-3.3 3.3-3.3h19.6c1.83 0 3.31 1.48 3.31 3.3z" fill="#65b2fe"/><path d="m287.41 444.45v65.64c-10.29 1.26-20.78 1.91-31.41 1.91v-98.92h.05c17.32 0 31.36 14.04 31.36 31.37z" fill="#384c81"/><g fill="#65b2fe"><path d="m471.04 198.72v37.37h-54v-23.9h7.7v-13.47c0-1.08.89-1.95 1.96-1.95h11.53c1.09 0 1.95.87 1.95 1.95v13.47h15.44v-13.47c0-1.08.86-1.95 1.94-1.95h11.53c1.08 0 1.95.87 1.95 1.95z"/><path d="m148.96 198.72v37.37h-53.99v-23.9h7.7v-13.47c0-.4.12-.78.34-1.09.07-.11.15-.2.24-.29.35-.35.85-.57 1.38-.57h11.53c.82 0 1.51.49 1.8 1.19.05.12.09.24.11.37.03.12.04.25.04.39v13.47h15.44v-13.47c0-.14.01-.27.04-.39.02-.13.06-.25.11-.37.29-.7.98-1.19 1.79-1.19h11.53c.61 0 1.15.28 1.5.71.08.09.15.2.21.31.14.27.23.59.23.93z"/></g></g></g></svg>