<svg id="Capa_1" enable-background="new 0 0 512 512" height="512" viewBox="0 0 512 512" width="512" xmlns="http://www.w3.org/2000/svg"><g><g><circle cx="256" cy="256" fill="#4e689b" r="256"/><path d="m512 256c0 87.11-43.52 164.07-110 210.31-41.41 28.8-91.73 45.69-146 45.69s-104.59-16.89-146-45.69c-66.48-46.24-110-123.2-110-210.31 0-46.22 12.25-89.57 33.68-127 44.12 77.07 127.16 129 222.32 129s178.21-51.93 222.32-129c21.43 37.43 33.68 80.78 33.68 127z" fill="#374c81"/></g><g><g><path d="m440.46 433.5c-46.57 48.39-112 78.5-184.46 78.5s-137.89-30.11-184.46-78.5z" fill="#f4863d"/><path d="m440.46 433.5c-46.57 48.39-112 78.5-184.46 78.5v-78.5z" fill="#c55732"/></g><g><path d="m347.35 190.07c-21.35.55-42.97-6.38-60.63-21.16-16.1-13.46-25.25-31.31-29.38-50.34-.4-1.86-.75-3.72-1.03-5.6-.01.09-.03.17-.04.26-.14.87-.29 1.74-.45 2.6-3.72 20.05-15.29 38.98-32.15 53.08-17.67 14.78-39.29 21.71-60.63 21.16 3.11-20.41 13.16-39.83 29.77-54.45-22.12-.55-42.29-9-57.77-22.65 16.02-14.12 37.05-22.68 60.08-22.68 21.65 0 41.52 7.56 57.13 20.2-4.59-11.44-5.34-23.77-1.99-35.22 5.1-17.39 19.28-32.96 20.89-50.58.25-2.7 2.96-4.69 6.24-4.69.14 0 .29 0 .44.02.11-.01.23 0 .35.01 3.63.36 6.33 3.03 6.01 5.94-1.2 10.72-4.52 19.19-9.39 28.55-5.65 10.87-12.1 16.64-14.08 32.76-.93 7.58-.59 14.34.89 20.53 15.04-11.02 33.59-17.52 53.66-17.52 23.02 0 44.06 8.56 60.07 22.68-15.48 13.65-35.64 22.1-57.77 22.65 16.62 14.62 26.66 34.04 29.78 54.45z" fill="#b6e337"/><path d="m347.35 190.07c-21.35.55-42.97-6.38-60.63-21.16-16.1-13.46-25.25-31.31-29.38-50.34-.4-1.86-.75-3.72-1.03-5.6-.01.09-.03.17-.04.26-2.65-16-3.56-32.49 4.43-47.65 7.42-14.07 17.35-29.06 17.13-45.56.11-.01.23 0 .35.01 3.63.36 6.33 3.03 6.01 5.94-1.2 10.72-4.52 19.19-9.39 28.55-5.65 10.87-12.1 16.64-14.08 32.76-.93 7.58-.59 14.34.89 20.53 15.04-11.02 33.59-17.52 53.66-17.52 23.02 0 44.06 8.56 60.07 22.68-15.48 13.65-35.64 22.1-57.77 22.65 16.62 14.62 26.66 34.04 29.78 54.45z" fill="#6cdc2d"/><path d="m414.29 265.12v29.88c0 44.23-36.19 80.42-80.42 80.42h-157.35c-44.24 0-80.42-36.19-80.42-80.42v-29.88c0-83.68 68.46-152.15 152.14-152.15h13.9c83.68 0 152.15 68.47 152.15 152.15z" fill="#ec781b"/><path d="m414.29 265.12v29.88c0 44.23-36.19 80.42-80.42 80.42h-77.87v-262.45h6.14c83.68 0 152.15 68.47 152.15 152.15z" fill="#c55732"/><g><path d="m320.88 178.66v144.563c0 19.1-15.62 34.72-34.72 34.72h-61.94c-19.09 0-34.72-15.62-34.72-34.72v-144.563c0-36.13 29.56-65.69 65.69-65.69.27 0 .54 0 .81.01 17.75.21 33.86 7.56 45.58 19.29 11.91 11.9 19.3 28.33 19.3 46.39z" fill="#f4863d"/><path d="m320.88 178.66v144.563c0 19.1-15.62 34.72-34.72 34.72h-30.16v-244.963c17.75.21 33.86 7.56 45.58 19.29 11.91 11.9 19.3 28.33 19.3 46.39z" fill="#ec781b"/></g><g><g><path d="m189.5 173.389v66.036c0 6.598-5.349 11.947-11.947 11.947h-7.06c-33.057 0-51.188-38.714-29.821-63.938 8.671-10.236 19.382-18.686 31.507-24.721 7.964-3.964 17.321 1.78 17.321 10.676z" fill="#374c81"/><path d="m339.889 251.372h-7.059c-6.598 0-11.947-5.349-11.947-11.947v-66.036c0-8.896 9.357-14.64 17.321-10.676 12.126 6.035 22.84 14.486 31.51 24.721 21.363 25.225 3.232 63.938-29.825 63.938z" fill="#224278"/></g><path d="m301.69 167.97v64.56c0 10.4-8.44 18.84-18.85 18.84h-55.3c-10.41 0-18.85-8.44-18.85-18.84v-64.56c0-9.72 7.4-17.83 17.07-18.76 3.18-.31 6.4-.47 9.66-.47h39.54c3.26 0 6.48.16 9.66.47 9.68.93 17.07 9.04 17.07 18.76z" fill="#374c81"/><path d="m301.69 167.97v64.56c0 10.4-8.44 18.84-18.85 18.84h-26.84v-102.63h18.96c3.26 0 6.48.16 9.66.47 9.68.93 17.07 9.04 17.07 18.76z" fill="#224278"/></g><path d="m219.026 316.177c-5.706 0-10.333-4.626-10.333-10.332v-22.148c0-5.706 4.626-10.332 10.333-10.332 5.706 0 10.333 4.626 10.333 10.332v22.148c0 5.707-4.626 10.332-10.333 10.332z" fill="#ffe400"/><path d="m229.359 283.696v22.147c0 5.707-4.628 10.335-10.331 10.335v-42.813c2.852 0 5.436 1.155 7.304 3.027 1.868 1.868 3.027 4.453 3.027 7.304z" fill="#ffc300"/><path d="m242.358 282.84c0 1.103-.446 2.099-1.167 2.816-.721.721-1.716 1.167-2.816 1.167h-20.498c-2.198 0-3.983-1.78-3.983-3.983 0-2.198 1.784-3.983 3.983-3.983h20.498c2.199 0 3.983 1.785 3.983 3.983z" fill="#ffc300"/><g><path d="m165.24 292.12c-15.64-15.64-36.43-24.25-58.56-24.25-22.12 0-42.91 8.61-58.56 24.25-15.64 15.65-24.25 36.44-24.25 58.56 0 5.8.59 11.52 1.76 17.07 8.52 17.57 19.01 34.01 31.17 49.05 14.3 10.84 31.64 16.7 49.88 16.7 22.13 0 42.92-8.61 58.56-24.25 15.65-15.65 24.26-36.44 24.26-58.57 0-22.12-8.61-42.91-24.26-58.56zm-58.56 121.18c-34.52 0-62.61-28.09-62.61-62.62 0-34.52 28.09-62.61 62.61-62.61 34.53 0 62.62 28.09 62.62 62.61 0 34.53-28.09 62.62-62.62 62.62z" fill="#224278"/><path d="m189.501 350.683c0 22.123-8.614 42.92-24.258 58.563-15.639 15.64-36.436 24.254-58.559 24.254v-20.199c34.529 0 62.618-28.089 62.618-62.618 0-34.525-28.089-62.614-62.618-62.614v-20.2c22.123 0 42.92 8.614 58.559 24.254 15.644 15.644 24.258 36.441 24.258 58.56z" fill="#1a3863"/><path d="m155.295 302.072c-12.983-12.983-30.248-20.136-48.611-20.136s-35.628 7.153-48.611 20.136-20.14 30.248-20.14 48.611 7.157 35.632 20.14 48.615 30.248 20.136 48.611 20.136 35.628-7.153 48.611-20.136c12.987-12.983 20.14-30.251 20.14-48.615s-7.153-35.628-20.14-48.611zm-109.64 34.576c1.589-6.898 4.317-13.361 7.977-19.188 1.286-2.043 4.15-2.35 5.858-.641l24.445 24.441h-34.592c-2.421 0-4.23-2.25-3.688-4.612zm7.977 47.261c-3.66-5.827-6.388-12.29-7.973-19.188-.546-2.362 1.262-4.612 3.684-4.612h34.592l-24.444 24.441c-1.709 1.709-4.572 1.402-5.859-.641zm43.629 24.119c0 2.421-2.25 4.23-4.612 3.684-6.898-1.585-13.366-4.313-19.188-7.977-2.047-1.286-2.354-4.15-.645-5.858l24.445-24.441zm0-80.094-24.441-24.444c-1.708-1.705-1.406-4.572.641-5.854 5.822-3.664 12.29-6.392 19.188-7.977 2.362-.546 4.612 1.263 4.612 3.684zm62.475-10.474c3.664 5.823 6.392 12.29 7.981 19.188.542 2.362-1.266 4.612-3.688 4.612h-34.592l24.441-24.445c1.708-1.708 4.571-1.402 5.858.645zm-43.629-24.118c0-2.421 2.254-4.229 4.612-3.684 6.898 1.585 13.365 4.313 19.192 7.973 2.043 1.286 2.35 4.15.641 5.858l-24.445 24.445zm23.803 110.392c-5.827 3.664-12.29 6.392-19.192 7.977-2.358.546-4.612-1.262-4.612-3.684v-34.592l24.445 24.445c1.709 1.709 1.403 4.572-.641 5.854zm27.803-39.013c-1.585 6.898-4.313 13.365-7.977 19.188-1.286 2.047-4.15 2.35-5.858.641l-24.441-24.441h34.592c2.421 0 4.229 2.251 3.684 4.612z" fill="#ffe400"/><path d="m155.295 302.072c-12.983-12.983-30.248-20.136-48.611-20.136v137.498c18.364 0 35.628-7.153 48.611-20.136 12.987-12.983 20.14-30.251 20.14-48.615s-7.153-35.628-20.14-48.611zm4.441 15.388c3.664 5.823 6.392 12.29 7.981 19.188.542 2.362-1.266 4.612-3.688 4.612h-34.592l24.441-24.445c1.708-1.708 4.571-1.402 5.858.645zm-43.629-24.118c0-2.421 2.254-4.229 4.612-3.684 6.898 1.585 13.365 4.313 19.192 7.973 2.043 1.286 2.35 4.15.641 5.858l-24.445 24.445zm23.803 110.392c-5.827 3.664-12.29 6.392-19.192 7.977-2.358.546-4.612-1.262-4.612-3.684v-34.592l24.445 24.445c1.709 1.709 1.403 4.572-.641 5.854zm27.803-39.013c-1.585 6.898-4.313 13.365-7.977 19.188-1.286 2.047-4.15 2.35-5.858.641l-24.441-24.441h34.592c2.421 0 4.229 2.251 3.684 4.612z" fill="#ffc300"/><ellipse cx="106.684" cy="351.117" fill="#ffc300" rx="21.224" ry="21.224" transform="matrix(.16 -.987 .987 .16 -256.989 400.181)"/><path d="m106.684 329.893v42.449c11.722 0 21.224-9.502 21.224-21.224 0-11.723-9.502-21.225-21.224-21.225z" fill="#ff9f00"/><ellipse cx="106.684" cy="351.117" fill="#ffe400" rx="12.525" ry="12.525" transform="matrix(.16 -.987 .987 .16 -256.989 400.181)"/><path d="m106.684 338.592v25.05c6.918 0 12.525-5.607 12.525-12.525 0-6.917-5.607-12.525-12.525-12.525z" fill="#ffc300"/></g><g><path d="m405.316 413.301c-34.525 0-62.614-28.089-62.614-62.618 0-34.525 28.089-62.614 62.614-62.614 34.529 0 62.618 28.089 62.618 62.614 0 34.528-28.089 62.618-62.618 62.618zm58.564-121.181c-15.64-15.64-36.44-24.25-58.56-24.25s-42.92 8.61-58.56 24.25c-15.65 15.65-24.26 36.44-24.26 58.56 0 22.13 8.61 42.92 24.26 58.57 15.64 15.64 36.44 24.25 58.56 24.25 18.24 0 35.57-5.85 49.86-16.68l.01-.01c12.17-15.04 22.65-31.49 31.18-49.06 0-.01.01-.01.01-.02 1.16-5.55 1.75-11.25 1.75-17.05 0-22.12-8.61-42.91-24.25-58.56z" fill="#224278"/><path d="m488.13 350.68c0 5.8-.59 11.52-1.76 17.07-8.53 17.57-19.01 34.02-31.18 49.06-14.29 10.84-31.63 16.69-49.87 16.69v-20.2c34.52 0 62.61-28.09 62.61-62.62 0-34.52-28.09-62.61-62.61-62.61v-20.2c22.12 0 42.92 8.61 58.56 24.25 15.64 15.65 24.25 36.44 24.25 58.56z" fill="#1a3863"/><path d="m453.927 302.072c-12.983-12.983-30.248-20.136-48.611-20.136s-35.628 7.153-48.611 20.136-20.14 30.248-20.14 48.611 7.157 35.632 20.14 48.615 30.248 20.136 48.611 20.136 35.628-7.153 48.611-20.136c12.987-12.983 20.14-30.251 20.14-48.615s-7.153-35.628-20.14-48.611zm-109.64 34.576c1.589-6.898 4.317-13.361 7.977-19.188 1.286-2.043 4.15-2.35 5.858-.641l24.445 24.441h-34.592c-2.421 0-4.229-2.25-3.688-4.612zm7.977 47.261c-3.66-5.827-6.388-12.29-7.973-19.188-.546-2.362 1.262-4.612 3.684-4.612h34.592l-24.445 24.441c-1.708 1.709-4.571 1.402-5.858-.641zm43.629 24.119c0 2.421-2.25 4.23-4.612 3.684-6.898-1.585-13.365-4.313-19.188-7.977-2.047-1.286-2.354-4.15-.645-5.858l24.445-24.441zm0-80.094-24.441-24.445c-1.708-1.705-1.406-4.572.641-5.854 5.823-3.664 12.29-6.392 19.188-7.977 2.362-.546 4.612 1.263 4.612 3.684zm62.475-10.474c3.664 5.823 6.392 12.29 7.981 19.188.542 2.362-1.266 4.612-3.688 4.612h-34.592l24.441-24.445c1.708-1.708 4.571-1.402 5.858.645zm-43.629-24.118c0-2.421 2.254-4.229 4.612-3.684 6.898 1.585 13.366 4.313 19.192 7.973 2.043 1.286 2.35 4.15.641 5.858l-24.445 24.445zm23.804 110.392c-5.826 3.664-12.29 6.392-19.192 7.977-2.358.546-4.612-1.262-4.612-3.684v-34.592l24.445 24.445c1.708 1.709 1.402 4.572-.641 5.854zm27.802-39.013c-1.585 6.898-4.313 13.365-7.977 19.188-1.286 2.047-4.15 2.35-5.858.641l-24.441-24.441h34.592c2.421 0 4.229 2.251 3.684 4.612z" fill="#ffe400"/><path d="m453.927 302.072c-12.983-12.983-30.248-20.136-48.611-20.136v137.498c18.363 0 35.628-7.153 48.611-20.136 12.987-12.983 20.14-30.251 20.14-48.615s-7.153-35.628-20.14-48.611zm4.441 15.388c3.664 5.823 6.392 12.29 7.981 19.188.542 2.362-1.266 4.612-3.688 4.612h-34.592l24.441-24.445c1.708-1.708 4.571-1.402 5.858.645zm-43.629-24.118c0-2.421 2.254-4.229 4.612-3.684 6.898 1.585 13.366 4.313 19.192 7.973 2.043 1.286 2.35 4.15.641 5.858l-24.445 24.445zm23.804 110.392c-5.826 3.664-12.29 6.392-19.192 7.977-2.358.546-4.612-1.262-4.612-3.684v-34.592l24.445 24.445c1.708 1.709 1.402 4.572-.641 5.854zm27.802-39.013c-1.585 6.898-4.313 13.365-7.977 19.188-1.286 2.047-4.15 2.35-5.858.641l-24.441-24.441h34.592c2.421 0 4.229 2.251 3.684 4.612z" fill="#ffc300"/><ellipse cx="405.224" cy="351.117" fill="#ffc300" rx="21.224" ry="21.224" transform="matrix(.23 -.973 .973 .23 -29.602 664.831)"/><path d="m405.224 329.893v42.449c11.722 0 21.224-9.502 21.224-21.224 0-11.723-9.501-21.225-21.224-21.225z" fill="#ff9f00"/><ellipse cx="405.316" cy="351.449" fill="#ffe400" rx="12.525" ry="12.525" transform="matrix(.16 -.987 .987 .16 -6.519 695.236)"/><path d="m405.316 338.924v25.05c6.918 0 12.525-5.608 12.525-12.525s-5.607-12.525-12.525-12.525z" fill="#ffc300"/></g><path d="m242.358 282.84c0 1.103-.446 2.099-1.167 2.816-.721.721-1.716 1.167-2.816 1.167h-20.498c-2.198 0-3.983-1.78-3.983-3.983z" fill="#ff9f00"/></g><g><g><g><path d="m28.859 260.358h1.524c6.753 0 12.227 5.474 12.227 12.227v1.524h8.716v-1.524c0-6.753 5.474-12.227 12.227-12.227h1.525v-8.716h-1.525c-6.753 0-12.227-5.474-12.227-12.227v-1.525h-8.716v1.525c0 6.753-5.474 12.227-12.227 12.227h-1.524z" fill="#fff"/></g></g><g><g><path d="m447.59 260.358h1.524c6.753 0 12.227 5.474 12.227 12.227v1.524h8.716v-1.524c0-6.753 5.474-12.227 12.227-12.227h1.525v-8.716h-1.525c-6.753 0-12.227-5.474-12.227-12.227v-1.525h-8.716v1.525c0 6.753-5.474 12.227-12.227 12.227h-1.524z" fill="#fff"/></g></g><g><g><g><path d="m96.683 151.981c7.174 0 12.989 5.815 12.989 12.989 0 .421.341.762.762.762h7.191c.421 0 .762-.341.762-.762 0-7.174 5.815-12.989 12.989-12.989.421 0 .762-.341.762-.762v-7.191c0-.421-.341-.762-.762-.762-7.174 0-12.989-5.815-12.989-12.989 0-.421-.341-.762-.762-.762h-7.191c-.421 0-.762.341-.762.762 0 7.174-5.815 12.989-12.989 12.989-.421 0-.762.341-.762.762v7.191c0 .421.341.762.762.762z" fill="#fff"/></g></g><g><g><path d="m380.623 151.981c7.174 0 12.989 5.815 12.989 12.989 0 .421.341.762.762.762h7.191c.421 0 .762-.341.762-.762 0-7.174 5.815-12.989 12.989-12.989.421 0 .762-.341.762-.762v-7.191c0-.421-.341-.762-.762-.762-7.174 0-12.989-5.815-12.989-12.989 0-.421-.341-.762-.762-.762h-7.191c-.421 0-.762.341-.762.762 0 7.174-5.815 12.989-12.989 12.989-.421 0-.762.341-.762.762v7.191c0 .421.341.762.762.762z" fill="#fff"/></g></g></g></g></g></g></svg>