<svg id="Capa_1" enable-background="new 0 0 512 512" height="512" viewBox="0 0 512 512" width="512" xmlns="http://www.w3.org/2000/svg"><g><g><path d="m511.971 252.073c1.266 84.436-38.368 159.689-100.361 207.217h-.01c-100.917 34.186-210.283 34.186-311.2 0h-.01c-61.03-46.79-100.39-120.45-100.39-203.29 0-141.274 114.448-255.828 255.682-256 139.58-.169 254.196 112.509 256.289 252.073z" fill="#9e68e0"/><path d="m512 256c0 87.11-43.52 164.07-110 210.31-41.41 28.8-91.73 45.69-146 45.69s-104.59-16.89-146-45.69c-66.48-46.24-110-123.2-110-210.31 0-46.22 12.25-89.57 33.68-127 44.12 77.07 127.16 129 222.32 129s178.21-51.93 222.32-129c21.43 37.43 33.68 80.78 33.68 127z" fill="#8e4dd3"/></g><g><g><g><path d="m297.563 140.425v26.977c0 16.079-9.012 30.254-22.31 37.354v.165c-4.907 2.549-10.394 4.121-16.203 4.527-.141.008-.29.025-.43.033-.389.017-.778.033-1.159.042-.298.008-.596.033-.894.033-.157.008-.315-.008-.48-.008s-.323.017-.48.008c-.298 0-.596-.025-.894-.033-.381-.008-.77-.025-1.158-.042-.141-.008-.29-.025-.43-.033-5.809-.406-11.296-1.978-16.203-4.527v-.174c-13.298-7.092-22.31-21.267-22.31-37.346v-26.977c0-4.452 3.947-7.828 8.35-7.224 12.727 1.754 24.189 7.473 33.126 15.855 8.937-8.383 20.398-14.101 33.126-15.855 4.402-.604 8.349 2.772 8.349 7.225z" fill="#bc0e5c"/><path d="m297.563 140.425v26.977c0 16.079-9.012 30.254-22.31 37.354v.165c-4.907 2.549-10.394 4.121-16.203 4.527-.141.008-.29.025-.43.033-.389.017-.778.033-1.159.042-.298.008-.596.033-.894.033-.157.008-.315-.008-.48-.008v-60.492c8.937-8.383 20.398-14.101 33.126-15.855 4.403-.605 8.35 2.771 8.35 7.224z" fill="#a50555"/><path d="m322.405 156.148v60.831c0 25.703-14.415 48.377-35.674 59.722v.273c-8.921 4.626-19.025 7.274-29.741 7.406h-.132c-.257.008-.513 0-.77 0s-.513.008-.77 0h-.132c-10.716-.132-20.82-2.78-29.741-7.406v-.273c-21.259-11.345-35.674-34.019-35.674-59.722v-60.831c0-4.278 3.658-7.621 7.919-7.274 22.517 1.812 42.857 11.329 58.398 25.91 15.541-14.581 35.881-24.097 58.398-25.91 4.262-.348 7.919 2.995 7.919 7.274z" fill="#de1263"/><path d="m322.405 156.148v60.831c0 25.703-14.415 48.377-35.674 59.722v.273c-8.921 4.626-19.025 7.274-29.741 7.406h-.132c-.257.008-.513 0-.77 0v-109.597c15.541-14.581 35.881-24.097 58.398-25.91 4.262-.347 7.919 2.996 7.919 7.275z" fill="#bc0e5c"/><path d="m336.664 180.485v29.071c0 17.949-5.784 34.681-15.599 48.286-7.274 10.063-16.757 18.412-27.747 24.28v.339c-10.84 5.611-23.113 8.838-36.138 8.995-.05 0-.099.008-.157.008-.306 0-.621-.008-.935-.008s-.629.008-.935.008c-.058 0-.108-.008-.157-.008-13.025-.157-25.297-3.385-36.138-8.995v-.339c-10.99-5.867-20.473-14.217-27.747-24.28-9.814-13.604-15.599-30.337-15.599-48.286v-29.071c0-4.204 3.55-7.563 7.737-7.29 28.103 1.821 53.524 13.497 72.838 31.62 19.314-18.123 44.736-29.799 72.839-31.62 4.187-.274 7.738 3.086 7.738 7.29z" fill="#fe3345"/><path d="m336.664 180.485v29.071c0 17.949-5.784 34.681-15.599 48.286-7.274 10.063-16.757 18.412-27.747 24.28v.339c-10.84 5.611-23.113 8.838-36.138 8.995-.05 0-.099.008-.157.008-.306 0-.621-.008-.935-.008v-86.642c19.314-18.123 44.736-29.799 72.839-31.62 4.186-.273 7.737 3.087 7.737 7.291z" fill="#de1263"/></g><path d="m328.05 262.74c-8.05 11.14-18.56 20.39-30.73 26.89v.38c-.1.05-.2.1-.3.15-19.93 10.22-32.68 30.49-32.68 52.89v168.81c-2.74.09-5.49.14-8.25.14h-.09c-2.73 0-5.45-.04-8.16-.13v-168.82c0-22.4-12.75-42.67-32.68-52.89-.1-.05-.21-.1-.31-.15v-.38c-12.17-6.5-22.67-15.75-30.73-26.89 14.48 0 54.76 9.16 71.97 25.3 17.21-16.14 48.65-25.3 71.96-25.3z" fill="#6cdc2d"/><path d="m328.05 262.74c-8.05 11.14-18.56 20.39-30.73 26.89v.38c-.1.05-.2.1-.3.15-19.93 10.22-32.68 30.49-32.68 52.89v168.81c-2.74.09-5.49.14-8.25.14v-223.96c17.21-16.14 48.65-25.3 71.96-25.3z" fill="#53af17"/><g><path d="m380.838 359.396c-6.621 23.857-22.367 45.166-45.662 58.244-23.296 13.078-49.686 15.425-73.502 8.655 6.612-23.853 22.362-45.175 45.657-58.253s49.7-15.421 73.507-8.646z" fill="#6cdc2d"/><path d="m261.674 426.295c23.815 6.77 50.206 4.423 73.502-8.655s39.041-34.387 45.662-58.244z" fill="#53af17"/></g><g><path d="m133.265 359.396c6.621 23.857 22.367 45.166 45.662 58.244 23.296 13.078 49.686 15.425 73.502 8.655-6.613-23.853-22.362-45.175-45.657-58.253s-49.7-15.421-73.507-8.646z" fill="#6cdc2d"/><path d="m252.43 426.295c-23.816 6.77-50.206 4.423-73.502-8.655s-39.041-34.387-45.662-58.244z" fill="#53af17"/></g></g></g></g></svg>