<svg id="Capa_1" enable-background="new 0 0 512 512" height="512" viewBox="0 0 512 512" width="512" xmlns="http://www.w3.org/2000/svg"><g><g><path d="m511.996 257.445c-.378 68.349-27.546 130.347-71.526 176.055l-48.179 20.502c-87.082 37.057-185.5 37.057-272.582 0l-48.179-20.502c-44.29-46.03-71.53-108.58-71.53-177.5 0-142.54 116.508-257.879 259.485-255.977 141.018 1.876 253.291 116.394 252.511 257.422z" fill="#65b2fe"/><path d="m512 256c0 68.92-27.24 131.48-71.55 177.51l-48.161 20.494c-87.081 37.056-185.497 37.056-272.578 0l-48.161-20.494c-44.31-46.03-71.55-108.59-71.55-177.51 0-46.22 12.25-89.57 33.68-127 44.12 77.07 127.16 129 222.32 129s178.21-51.93 222.32-129c21.43 37.43 33.68 80.78 33.68 127z" fill="#159de4"/></g><g><g><path d="m440.46 433.5c-46.57 48.39-112 78.5-184.46 78.5s-137.89-30.11-184.46-78.5z" fill="#b6e337"/><path d="m440.46 433.5c-46.57 48.39-112 78.5-184.46 78.5v-78.5z" fill="#6cdc2d"/></g><path d="m506.27 310.12v.01c-10.19 47.31-33.44 89.74-65.8 123.37h-368.94c-23.07-23.97-41.51-52.42-53.88-83.92l75.63-107.21 16.4-23.24c1.44-2.03 3.32-3.66 5.47-4.77 2.15-1.12 4.56-1.72 7.05-1.72h56.53c4.29 0 8.38 1.8 11.28 4.95l1.42 1.54 8.44 9.17 4.65 5.05 17.44 18.96 5.24 5.69 28.57-39.38.23-.32 49.38-68.05c3.63-4.99 9.42-7.95 15.59-7.95h51.96c6.13 0 11.88 2.91 15.51 7.84z" fill="#4e689b"/><path d="m506.27 310.12c-10.19 47.31-33.44 89.75-65.8 123.38h-184.47v-215.2l16.62-22.91 32.76-45.14c3.63-5 9.42-7.95 15.59-7.95h51.97c6.12 0 11.87 2.91 15.5 7.84l31.07 42.18z" fill="#384c81"/><path d="m311.02 341.83-55.02-55.03-28.8-28.8 28.57-39.38.23.51z" fill="#224278"/><path d="m311.02 341.83-55.02-55.03v-67.67z" fill="#1a3863"/><path d="m116.98 138.02c-.15-.29-.14-.42.06-.37.05.01.03.14-.06.37z" fill="#384c81"/><path d="m63.95 336.73 45.73-32.52-45.51 121.31c-19.65-22.22-35.5-47.87-46.52-75.94l92.03-130.45c2.87-4.07 7.54-6.49 12.52-6.49h1.77z" fill="#384c81"/><path d="m506.27 310.12c-10.19 47.31-33.44 89.75-65.8 123.38h-3.05l-65.56-181.05 49.77 19.25-52.62-129.4h3.93c6.12 0 11.88 2.91 15.51 7.84z" fill="#1a3863"/><path d="m209.91 252.31c-3.31 0-6.32-1.35-8.49-3.52-2.18-2.17-3.52-5.17-3.52-8.49 0-1.92-.78-3.66-2.03-4.92-1.26-1.25-2.99-2.03-4.91-2.03-3.84 0-6.95 3.11-6.95 6.95v16.25c0 2.13-.87 4.07-2.26 5.47-1.4 1.4-3.33 2.26-5.47 2.26-4.27 0-7.73-3.46-7.73-7.73v-2.58c0-3.48-2.85-6.29-6.35-6.23-3.39.06-6.11-2.84-6.11-6.23v-3.2c0-3.39-2.79-6.12-6.2-6.02-3.29.1-5.83 2.97-5.83 6.27v18.42c0 4.11-3.39 7.42-7.52 7.3-4-.12-7.08-3.61-7.08-7.61v-16.98c0-4.96-4.25-8.92-9.31-8.44-3.03.29-5.55 2.33-6.94 5.04-.93 1.81-2.33 3.33-4.04 4.39-1.71 1.07-3.73 1.69-5.9 1.69-4.2 0-6.65-4.73-4.23-8.16l5.86-8.3 4.78-6.78c2.87-4.07 7.54-6.49 12.52-6.49h56.53c4.29 0 8.38 1.8 11.28 4.95l1.42 1.54 6.24 6.78 16.13 17.54c3.12 3.38.72 8.86-3.89 8.86z" fill="#de1263"/><path d="m399.73 192.32c-3.55 0-6.75-1.44-9.07-3.76s-3.76-5.52-3.76-9.07v-6.67c0-.29-.01-.58-.03-.87-.55-8.12-12.8-7.49-12.8.64v12.62c0 4.89-3.96 8.85-8.85 8.85-2.44 0-4.66-.99-6.26-2.59s-2.59-3.81-2.59-6.26v-.01c0-4.88-3.96-8.84-8.85-8.84-2.44 0-4.65.99-6.25 2.59s-2.59 3.81-2.59 6.25v21.7c0 6.47-5.25 11.72-11.73 11.72-3.23 0-6.17-1.31-8.29-3.43-2.12-2.13-3.43-5.05-3.43-8.29v-23.28c0-4.01-3.25-7.26-7.26-7.26h-.65c-3.29 0-6.08 2.24-7.02 5.4-2.33 7.88-9.62 13.63-18.25 13.63-2.84 0-4.82-2.33-4.82-4.82 0-.95.29-1.93.93-2.81l23-31.69 4.22-5.82c3.63-5 9.42-7.95 15.59-7.95h51.97c6.12 0 11.87 2.91 15.5 7.84l4.37 5.93 14.97 20.32c4.86 6.61.15 15.93-8.05 15.93z" fill="#de1263"/><path d="m197.67 225.91h-92.77l4.78-6.78c2.87-4.07 7.54-6.49 12.52-6.49h56.53c4.29 0 8.38 1.8 11.28 4.95l1.42 1.54z" fill="#bc0e5c"/><path d="m392.81 156.07h-91.65l4.22-5.82c3.63-5 9.42-7.95 15.59-7.95h51.97c6.12 0 11.87 2.91 15.5 7.84z" fill="#bc0e5c"/><g fill="#fff"><path d="m266.262 83.555 11.361 2.444c9.462 2.035 15.483 11.356 13.448 20.819-4.413 20.518-24.624 33.573-45.142 29.159-9.972-2.145-19.796 4.2-21.941 14.173-3.735 17.363-20.839 28.412-38.202 24.677-15.447-3.323-31.338 3.268-39.899 16.548-2.267 3.517-7.721 1.261-6.841-2.83l3.249-15.106c3.364-15.637 15.909-26.936 30.77-29.461 9.048-1.538 16.228-8.468 18.159-17.441l2.941-13.674c2.145-9.972 11.968-16.318 21.941-14.173 8.742 1.881 17.401-.994 23.282-6.884 7.071-7.082 17.092-10.355 26.874-8.251z"/><path d="m414.371 73.493 5.747 1.236c4.787 1.03 7.833 5.745 6.803 10.532-2.233 10.379-12.457 16.984-22.837 14.751-5.045-1.085-10.014 2.125-11.099 7.17-1.889 8.784-10.542 14.373-19.326 12.483-7.815-1.681-15.853 1.653-20.185 8.371-1.147 1.779-3.906.638-3.461-1.432l1.644-7.642c1.702-7.91 8.048-13.626 15.566-14.904 4.577-.778 8.21-4.284 9.186-8.823l1.488-6.918c1.085-5.045 6.055-8.255 11.099-7.17 4.423.951 8.803-.503 11.778-3.483 3.579-3.58 8.648-5.236 13.597-4.171z"/></g></g></g></svg>