<svg id="Capa_1" enable-background="new 0 0 512 512" height="512" viewBox="0 0 512 512" width="512" xmlns="http://www.w3.org/2000/svg"><g><g><path d="m511.999 256.565c-.201 93.315-50.34 174.905-125.099 219.475h-.01c-85.673 23.537-176.107 23.537-261.78 0h-.01c-74.91-44.66-125.1-126.49-125.1-220.04 0-141.38 114.619-255.999 255.999-256 141.26 0 256.305 115.305 256 256.565z" fill="#4e689b"/><path d="m512 256c0 87.11-43.52 164.07-110 210.31-4.91 3.41-9.94 6.66-15.1 9.73l-.019.005c-85.667 23.534-176.094 23.534-261.761 0l-.019-.005c-5.16-3.07-10.19-6.32-15.1-9.73-66.481-46.24-110.001-123.2-110.001-210.31 0-46.22 12.25-89.57 33.68-127 44.12 77.07 127.16 129 222.32 129s178.21-51.93 222.32-129c21.43 37.43 33.68 80.78 33.68 127z" fill="#374c81"/></g><g><g><path d="m295.6 299.73c40.02 25.83 66.52 70.82 66.52 122.01v52.8c0 6.9-5.59 12.49-12.49 12.49h-187.26c-6.9 0-12.49-5.59-12.49-12.49v-51.02c0-51.86 26.84-97.64 67.21-123.8 4.75-3.08 4.75-9.96 0-13.04-40.37-26.16-67.21-71.95-67.21-123.8v-51.02c0-6.9 5.59-12.49 12.49-12.49h187.26c6.9 0 12.49 5.59 12.49 12.49v52.8c0 51.18-26.5 96.17-66.52 122.01-4.77 3.08-4.77 9.98 0 13.06z" fill="#fff"/><path d="m295.6 299.73c40.02 25.83 66.52 70.82 66.52 122.01v52.8c0 6.9-5.59 12.49-12.49 12.49h-136.25c-3.14 0-5.68-5.59-5.68-12.49v-51.02c0-51.86 12.21-97.64 30.59-123.8 2.16-3.08 2.16-9.96 0-13.04-18.38-26.16-30.59-71.95-30.59-123.8v-51.02c0-6.9 2.54-12.49 5.68-12.49h136.25c6.9 0 12.49 5.59 12.49 12.49v52.8c0 51.18-26.5 96.17-66.52 122.01-4.77 3.08-4.77 9.98 0 13.06z" fill="#d3edf7"/><path d="m295.6 299.73c40.02 25.83 66.52 70.82 66.52 122.01v52.8c0 6.9-5.59 12.49-12.49 12.49h-93.63v-387.66h93.63c6.9 0 12.49 5.59 12.49 12.49v52.8c0 51.18-26.5 96.17-66.52 122.01-4.77 3.08-4.77 9.98 0 13.06z" fill="#bae4f1"/><path d="m313.59 204.75c-8 19.32-21.76 36.06-39.99 47.83-7.56 4.88-13.46 11.61-17.26 19.4-.11-.22-.22-.44-.34-.66-3.79-7.48-9.54-13.95-16.85-18.69-18.22-11.81-32.06-28.54-40.24-47.88z" fill="#f4863d"/><path d="m314.92 431.83h-117.36c7.96-20.75 22.32-38.76 41.6-51.25 7.3-4.73 13.05-11.21 16.84-18.68.12-.22.23-.44.34-.66 3.8 7.78 9.7 14.52 17.26 19.39 19.28 12.45 33.56 30.46 41.32 51.2z" fill="#f4863d"/><path d="m389.44 100.19c0 6.89-2.8 13.14-7.31 17.66-4.52 4.51-10.77 7.31-17.66 7.31h-216.94c-13.79 0-24.97-11.18-24.97-24.97 0-6.9 2.8-13.15 7.31-17.67 4.52-4.52 10.77-7.31 17.66-7.31h216.94c13.79 0 24.97 11.18 24.97 24.98z" fill="#ffe400"/><path d="m389.44 100.19c0 6.89-2.8 13.14-7.31 17.66-4.52 4.51-10.77 7.31-17.66 7.31h-162.7c-6.9 0-12.49-11.18-12.49-24.97 0-6.9 1.4-13.15 3.65-17.67 2.27-4.52 5.39-7.31 8.84-7.31h162.7c13.79 0 24.97 11.18 24.97 24.98z" fill="#ffc300"/><path d="m386.9 476.04c-38.3 22.84-83.07 35.96-130.9 35.96-21.86 0-43.08-2.74-63.34-7.9-24.06-6.13-46.76-15.66-67.56-28.06 1.22-2.48 2.84-4.73 4.77-6.67 4.52-4.51 10.77-7.31 17.66-7.31h216.94c9.85 0 18.36 5.7 22.43 13.98z" fill="#ffe400"/><g><path d="m386.9 476.04c-38.3 22.84-83.07 35.96-130.9 35.96-21.86 0-43.08-2.74-63.34-7.9-2.1-4.47-3.38-10.47-3.38-17.07 0-6.89 1.4-13.14 3.65-17.66 2.27-4.51 5.39-7.31 8.84-7.31h162.7c9.85 0 18.36 5.7 22.43 13.98z" fill="#ffc300"/></g></g><path d="m313.59 204.75c-8 19.32-21.76 36.06-39.99 47.83-7.56 4.88-13.46 11.61-17.26 19.4-.11-.22-.22-.44-.34-.66v-66.57z" fill="#ec781b"/><path d="m314.92 431.83h-58.92v-69.93c.12-.22.23-.44.34-.66 3.8 7.78 9.7 14.52 17.26 19.39 19.28 12.45 33.56 30.46 41.32 51.2z" fill="#ec781b"/><g fill="#ff9f00"><path d="m386.9 476.04c-38.3 22.84-83.07 35.96-130.9 35.96v-49.94h108.47c9.85 0 18.36 5.7 22.43 13.98z"/><path d="m364.47 125.16h-108.47v-49.95h108.47c13.79 0 24.97 11.18 24.97 24.98 0 6.89-2.8 13.14-7.31 17.66-4.52 4.51-10.77 7.31-17.66 7.31z"/></g></g></g></svg>