<svg id="Capa_1" enable-background="new 0 0 512 512" height="512" viewBox="0 0 512 512" width="512" xmlns="http://www.w3.org/2000/svg"><g><g><path d="m511.99 258.343c-1.042 116.222-79.537 213.959-186.38 244.077l-.02.003c-46.176 6.355-93.004 6.355-139.18 0l-.02-.003c-107.56-30.32-186.39-129.17-186.39-246.42 0-141.38 114.619-255.999 255.999-256 141.251-.001 257.257 117.098 255.991 258.343z" fill="#65b2fe"/><path d="m512 256c0 87.11-43.52 164.07-110 210.31-23 15.99-48.74 28.32-76.39 36.11h-.01c-46.182 6.357-93.018 6.357-139.2 0h-.01c-27.65-7.79-53.39-20.12-76.39-36.11-66.48-46.24-110-123.2-110-210.31 0-46.22 12.25-89.57 33.68-127 44.12 77.07 127.16 129 222.32 129s178.21-51.93 222.32-129c21.43 37.43 33.68 80.78 33.68 127z" fill="#159de4"/></g><g><g><g><path d="m294.844 143.621c0 45.562-5.991 115.637-16.71 173.56-1.692 9.156-8.808 16.143-17.656 17.934-1.453.299-2.946.448-4.479.448-1.523 0-3.025-.149-4.479-.448-3.702-.747-7.096-2.398-9.913-4.747-3.941-3.264-6.758-7.862-7.743-13.187-10.719-57.923-16.71-127.998-16.71-173.56 0-16.65.587-30.674 1.841-42.736 4.1-39.342 15.387-57.883 37.003-79.52 20.721 20.721 32.485 39.76 36.854 79.4v.01c1.345 12.143 1.992 26.206 1.992 42.846z" fill="#fff"/><g fill="#d3edf7"><path d="m294.844 143.621c0 45.562-5.991 115.637-16.71 173.56-1.971 10.659-11.286 18.382-22.134 18.382v-314.198c27.071 27.071 38.844 51.265 38.844 122.256z"/><path d="m260.479 335.116v114.821c0 1.234-.498 2.349-1.314 3.165-.806.816-1.931 1.314-3.165 1.314-2.478 0-4.479-2.01-4.479-4.479v-114.821c1.453.299 2.956.448 4.479.448 1.533 0 3.026-.15 4.479-.448z"/><path d="m260.479 145.97v189.146c-1.453.299-2.946.448-4.479.448-1.523 0-3.025-.149-4.479-.448v-189.146c0-11.635.319-23.259.965-34.873l1.264-22.97c.08-1.413 1.165-2.13 2.249-2.13 1.085 0 2.17.717 2.249 2.13l1.264 22.97c.648 11.614.967 23.238.967 34.873z"/></g><path d="m260.479 335.116v114.821c0 1.234-.498 2.349-1.314 3.165-.806.816-1.931 1.314-3.165 1.314v-118.852c1.533 0 3.026-.15 4.479-.448z" fill="#bae4f1"/><path d="m260.479 145.97v189.146c-1.453.299-2.946.448-4.479.448v-249.568c1.085 0 2.17.717 2.249 2.13l1.264 22.97c.647 11.615.966 23.239.966 34.874z" fill="#bae4f1"/><path d="m278.751 351.208c0 12.56-10.191 22.741-22.751 22.741s-22.751-10.181-22.751-22.741c0-12.57 10.191-22.751 22.751-22.751s22.751 10.182 22.751 22.751z" fill="#fff"/><path d="m278.751 351.208c0 12.56-10.191 22.741-22.751 22.741v-45.492c12.56 0 22.751 10.182 22.751 22.751z" fill="#d3edf7"/></g><path d="m292.854 100.766-36.854-28.414-37.003 28.534c4.1-39.342 15.387-57.883 37.003-79.52 20.721 20.72 32.485 39.759 36.854 79.4z" fill="#4e689b"/><path d="m292.854 100.766-36.854-28.414v-50.987c20.721 20.721 32.485 39.76 36.854 79.401z" fill="#384c81"/></g><g><g><g><path d="m325.61 463.98v38.44c-22.13 6.24-45.48 9.58-69.61 9.58-12.82 0-25.42-.94-37.74-2.77-10.86-1.6-21.5-3.89-31.87-6.81v-38.44c0-21.15 17.14-38.31 38.3-38.31h2.63c0-6.56-3.5-12.65-9.24-15.82-2.95-1.63-5.43-4.02-7.17-6.9-.01-.03-.03-.06-.05-.09-2.57-4.31.63-9.79 5.66-9.79h78.96c5.02 0 8.23 5.48 5.65 9.79-1.74 2.93-4.23 5.34-7.21 6.99-5.74 3.17-9.24 9.26-9.24 15.82h2.63c21.16 0 38.3 17.16 38.3 38.31z" fill="#4e689b"/><path d="m325.61 463.98v38.44c-22.13 6.24-45.48 9.58-69.61 9.58-12.82 0-25.42-.94-37.74-2.77v-45.25c0-21.15 9.3-38.31 20.77-38.31h1.43c0-6.56-1.9-12.65-5.01-15.82-1.61-1.63-2.95-4.02-3.89-6.9-.95-2.89-1.48-6.27-1.48-9.88h65.4c5.02 0 8.23 5.48 5.65 9.8-1.74 2.92-4.23 5.33-7.21 6.98-5.74 3.17-9.24 9.26-9.24 15.82h2.63c21.16 0 38.3 17.16 38.3 38.31z" fill="#384c81"/><path d="m325.61 463.98v38.44c-22.13 6.24-45.48 9.58-69.61 9.58v-118.93h39.48c5.02 0 8.23 5.48 5.65 9.8-1.74 2.92-4.23 5.33-7.21 6.98-5.74 3.17-9.24 9.26-9.24 15.82h2.63c21.16 0 38.3 17.16 38.3 38.31z" fill="#224278"/><path d="m295.478 393.073c5.026 0 8.229 5.478 5.655 9.794-1.741 2.918-4.235 5.334-7.216 6.978-5.737 3.173-9.237 9.268-9.237 15.825h-57.358c0-6.558-3.501-12.652-9.237-15.825-2.956-1.627-5.435-4.014-7.172-6.895-.017-.029-.035-.058-.052-.087-2.569-4.318.633-9.79 5.657-9.79z" fill="#384c81"/><path d="m295.478 393.073c5.026 0 8.229 5.478 5.655 9.794-1.741 2.918-4.235 5.334-7.216 6.978-5.737 3.173-9.237 9.268-9.237 15.825h-44.222c0-6.558-1.899-12.652-5.012-15.825-1.602-1.627-2.941-4.014-3.888-6.895-.942-2.886-1.481-6.266-1.481-9.877z" fill="#224278"/></g><path d="m295.478 393.073c5.026 0 8.229 5.478 5.655 9.794-1.741 2.918-4.235 5.334-7.216 6.978-5.737 3.173-9.237 9.268-9.237 15.825h-28.68v-32.598h39.478z" fill="#1a3863"/><path d="m301.133 402.867c-1.741 2.918-4.235 5.334-7.216 6.978h-75.833c-2.956-1.627-5.435-4.014-7.172-6.895-.017-.029-.035-.058-.052-.087-2.569-4.318.633-9.79 5.657-9.79h78.962c5.025 0 8.228 5.478 5.654 9.794z" fill="#4e689b"/><path d="m301.133 402.867c-1.741 2.918-4.235 5.334-7.216 6.978h-58.471c-1.602-1.627-2.941-4.014-3.888-6.895-.942-2.886-1.481-6.266-1.481-9.877h65.402c5.025 0 8.228 5.478 5.654 9.794z" fill="#384c81"/><path d="m301.133 402.867c-1.741 2.918-4.235 5.334-7.216 6.978h-37.917v-16.772h39.478c5.026 0 8.229 5.478 5.655 9.794z" fill="#224278"/></g><path d="m325.61 466.72v35.7c-22.13 6.24-45.48 9.58-69.61 9.58-12.82 0-25.42-.94-37.74-2.77-10.86-1.6-21.5-3.89-31.87-6.81v-35.7z" fill="#fff"/><path d="m325.61 466.72v35.7c-22.13 6.24-45.48 9.58-69.61 9.58-12.82 0-25.42-.94-37.74-2.77v-42.51z" fill="#d3edf7"/><path d="m325.61 466.72v35.7c-22.13 6.24-45.48 9.58-69.61 9.58v-45.28z" fill="#bae4f1"/></g></g></g></svg>