<svg id="Capa_1" enable-background="new 0 0 512 512" height="512" viewBox="0 0 512 512" width="512" xmlns="http://www.w3.org/2000/svg"><g><g><path d="m512 256c0 58.48-19.61 112.38-52.61 155.48h-.01l-2.223 1.098c-126.785 62.663-275.53 62.663-402.315 0l-2.223-1.098h-.01c-32.999-43.1-52.609-97-52.609-155.48 0-141.38 114.62-256 256-256s256 114.62 256 256z" fill="#9e68e0"/><path d="m512 256c0 58.47-19.61 112.37-52.61 155.48l-2.241 1.107c-126.78 62.658-275.518 62.658-402.299 0l-2.241-1.107c-32.999-43.11-52.609-97.01-52.609-155.48 0-46.22 12.25-89.57 33.68-127 44.12 77.07 127.16 129 222.32 129s178.21-51.93 222.32-129c21.43 37.43 33.68 80.78 33.68 127z" fill="#8e4dd3"/></g><g><g><g><g><path d="m406.156 285.86c-8.596 8.539-19.337 12.448-29.897 12.448-11.206 0-22.231-4.403-30.305-12.344-5.902-5.807-10.238-13.502-11.917-22.753-3.046-16.737 4.127-33.721 18.303-43.133 36.188-24.033 59.5-64.367 61.416-108.648.085-1.983 1.309-3.387 2.846-3.985 1.774-.693 3.956-.294 5.266 1.575 11.13 15.817 19.081 34.242 22.762 54.519 8.426 46.331-7.419 91.456-38.474 122.321z" fill="#fff"/><path d="m406.156 285.86c-8.596 8.539-19.337 12.448-29.897 12.448-11.206 0-22.231-4.403-30.305-12.344 27.117-17.657 49.841-42.07 65.496-70.402 17.249-31.197 16.405-73.381 5.152-108.117 1.774-.693 3.956-.294 5.266 1.575 11.13 15.817 19.081 34.242 22.762 54.519 8.426 46.331-7.419 91.456-38.474 122.321z" fill="#b3f4ff"/></g><g><path d="m105.844 285.86c8.596 8.539 19.337 12.448 29.897 12.448 11.206 0 22.231-4.403 30.305-12.344 5.902-5.807 10.237-13.502 11.917-22.753 3.046-16.737-4.127-33.721-18.303-43.133-36.188-24.033-59.5-64.367-61.416-108.648-.085-1.983-1.309-3.387-2.846-3.985-1.774-.693-3.956-.294-5.266 1.575-11.13 15.817-19.081 34.242-22.762 54.519-8.426 46.331 7.419 91.456 38.474 122.321z" fill="#fff"/><path d="m105.844 285.86c8.596 8.539 19.337 12.448 29.897 12.448 11.206 0 22.231-4.403 30.305-12.344-27.117-17.657-49.841-42.07-65.496-70.402-17.25-31.197-16.405-73.381-5.152-108.117-1.774-.693-3.956-.294-5.266 1.575-11.13 15.817-19.081 34.242-22.762 54.519-8.426 46.331 7.419 91.456 38.474 122.321z" fill="#b3f4ff"/></g></g><path d="m435.467 353.733v64.405h-358.934v-64.405c0-85.412 59.671-156.885 139.589-175.017 12.828-2.913 26.178-4.45 39.878-4.45s27.051 1.537 39.879 4.45c79.918 18.132 139.588 89.606 139.588 175.017z" fill="#c55732"/><path d="m435.467 353.733v64.405h-281.16v-64.405c0-85.412 33.816-156.885 79.093-175.017 7.277-2.913 14.839-4.45 22.601-4.45 13.701 0 27.051 1.537 39.879 4.45 79.917 18.132 139.587 89.606 139.587 175.017z" fill="#a63917"/><path d="m435.467 353.733v64.405h-179.467v-243.872c13.701 0 27.051 1.537 39.879 4.45 79.918 18.132 139.588 89.606 139.588 175.017z" fill="#83250d"/><path d="m295.879 180.045v238.094h-79.757v-238.094c0-8.293 6.101-15.304 14.308-16.471 8.359-1.196 16.889-1.812 25.57-1.812 8.682 0 17.211.617 25.57 1.812 8.208 1.166 14.309 8.178 14.309 16.471z" fill="#ffe400"/><path d="m295.879 180.045v238.094h-39.879v-256.378c8.682 0 17.211.617 25.57 1.812 8.208 1.167 14.309 8.179 14.309 16.472z" fill="#ffc300"/><path d="m459.39 368.05v43.43c-5.89 7.7-12.21 15.05-18.92 22.02h-368.94c-6.71-6.97-13.03-14.32-18.92-22.02v-43.43c0-7.9 6.41-14.32 14.31-14.32h378.16c7.9 0 14.31 6.42 14.31 14.32z" fill="#ffe400"/><path d="m459.39 368.04v43.44c-5.89 7.7-12.21 15.05-18.92 22.02h-274.58c-6.4 0-11.58-5.18-11.58-11.58v-56.61c0-6.39 5.18-11.58 11.58-11.58h279.19c7.9 0 14.31 6.41 14.31 14.31z" fill="#ffc300"/><path d="m459.39 368.05v43.43c-5.89 7.7-12.21 15.05-18.92 22.02h-184.47v-79.77h189.08c7.9 0 14.31 6.42 14.31 14.32z" fill="#ff9f00"/></g><g><path d="m440.46 433.5c-46.57 48.39-112 78.5-184.46 78.5s-137.89-30.11-184.46-78.5z" fill="#4e689b"/><path d="m440.46 433.5c-46.57 48.39-112 78.5-184.46 78.5v-78.5z" fill="#384c81"/></g></g></g></svg>