<svg id="Capa_1" enable-background="new 0 0 512 512" height="512" viewBox="0 0 512 512" width="512" xmlns="http://www.w3.org/2000/svg"><g><g><path d="m511.983 253.023c.964 84.802-39.318 160.253-102.033 207.527h-.01c-99.91 33.392-207.969 33.392-307.88 0h-.01c-61.98-46.72-102.05-120.96-102.05-204.55 0-141.273 114.447-255.827 255.68-256 139.941-.171 254.713 113.091 256.303 253.023z" fill="#4e689b"/><path d="m512 256c0 83.59-40.07 157.83-102.05 204.55h-.01c-99.91 33.392-207.969 33.392-307.88 0h-.01c-61.98-46.72-102.05-120.96-102.05-204.55 0-46.22 12.25-89.57 33.68-127 44.12 77.07 127.16 129 222.32 129s178.21-51.93 222.32-129c21.43 37.43 33.68 80.78 33.68 127z" fill="#374c81"/></g><g><g><path d="m409.95 162.19v298.36c-42.85 32.3-96.16 51.45-153.95 51.45s-111.1-19.15-153.95-51.45v-298.36c0-33.94 27.52-61.46 61.47-61.46h184.96c33.95 0 61.47 27.52 61.47 61.46z" fill="#ffc300"/><path d="m409.95 162.19v298.36c-42.85 32.3-96.16 51.45-153.95 51.45v-411.27h92.48c33.95 0 61.47 27.52 61.47 61.46z" fill="#ff9f00"/><path d="m362.31 142.33v106.08c0 7.35-5.96 13.31-13.31 13.31h-186c-7.35 0-13.31-5.96-13.31-13.31v-106.08c0-7.35 5.96-13.31 13.31-13.31h186c7.35 0 13.31 5.96 13.31 13.31z" fill="#fff"/><path d="m362.31 142.33v106.08c0 7.35-5.96 13.31-13.31 13.31h-93v-132.7h93c7.35 0 13.31 5.96 13.31 13.31z" fill="#d3edf7"/><g><g><g><g><g><g><path d="m339.03 282.87c0 44.84-36.33 83.02-83.03 83.23-.14.01-.27.01-.41.01-52.24 0-91.62-47.48-81.97-98.82l19.78-105.22c2.81-14.96 10.75-27.86 21.79-37.02s25.18-14.58 40.4-14.58c.14 0 .27 0 .41.01 30.28.19 56.2 21.8 61.79 51.59l19.78 105.22c.99 5.25 1.46 10.46 1.46 15.58z" fill="#374c81"/><path d="m339.03 282.87c0 44.84-36.33 83.02-83.03 83.23v-255.62c30.28.19 56.2 21.8 61.79 51.59l19.78 105.22c.99 5.25 1.46 10.46 1.46 15.58z" fill="#323b5a"/><path d="m360.69 341.768h-209.38c0-1.77.27-3.47.77-5.07l14.62-47.25c6.74-21.77 24.15-38.02 45.41-43.74 5.43-1.46 11.12-2.23 16.94-2.23h53.1c7.69 0 15.14 1.35 22.08 3.85 18.9 6.8 34.08 22.13 40.27 42.12z" fill="#ffc0a4"/><path d="m360.98 341.77h-209.96c0-1.77.27-3.47.77-5.07l14.91-47.25c6.74-21.77 24.15-38.02 45.41-43.74l43.89 33.23 43.89-33.23c21.26 5.72 38.67 21.97 45.41 43.74l14.91 47.25c.5 1.6.77 3.3.77 5.07z" fill="#d3edf7"/><path d="m360.98 341.77h-104.98v-62.83l43.89-33.23c21.26 5.72 38.67 21.97 45.41 43.74l14.91 47.25c.5 1.6.77 3.3.77 5.07z" fill="#bae4f1"/><path d="m198.212 184.885.017-4.951c.019-5.689-4.621-10.499-10.31-10.439-6.791.071-12.319 5.573-12.345 12.382-.047 12.512 10.06 22.691 22.571 22.733 4.6 0 8.33-3.729 8.33-8.33v-11.395z" fill="#ffa87a"/><path d="m312.967 184.885-.017-4.951c-.019-5.689 4.621-10.499 10.31-10.439 6.791.071 12.319 5.573 12.345 12.382.047 12.512-10.06 22.691-22.571 22.733-4.6 0-8.33-3.729-8.33-8.33v-11.395z" fill="#ffa87a"/><g><path d="m277.945 225.41v13.985c0 11.729-9.129 21.651-20.848 22.12-.366.015-.732.022-1.1.022h-.007c-.363 0-.724-.007-1.085-.021-11.721-.462-20.851-10.391-20.851-22.12v-13.986z" fill="#ffa87a"/><path d="m277.945 225.41v13.985c0 11.729-9.129 21.651-20.848 22.12-.366.015-.732.022-1.1.022v-36.127z" fill="#e3835a"/></g></g><path d="m312.95 184.964v.54c0 24.737-15.466 47.192-38.938 55.002-5.787 1.926-11.977 2.969-18.412 2.971 0 0 0 0-.01 0-7.86-.003-15.356-1.562-22.197-4.386-21.486-8.869-35.133-30.265-35.133-53.51v-.623c0-8.157 5.473-15.327 13.362-17.398 7.4-1.942 14.275-5.361 20.238-9.984 3.4-2.64 7.19-4.69 11.2-6.08 4-1.4 8.24-2.13 12.54-2.13 8.5 0 16.8 2.77 23.49 8.02 1.4 1.1 2.86 2.13 4.36 3.09 4.854 3.116 10.193 5.492 15.841 7.005 7.99 2.142 13.659 9.212 13.659 17.483z" fill="#ffc0a4"/><path d="m312.95 184.964v.54c0 24.737-15.466 47.192-38.938 55.002-5.787 1.926-11.977 2.969-18.412 2.971 0 0 0 0-.01 0v-94.11h.01c8.49 0 16.78 2.76 23.46 8 1.41 1.11 2.88 2.15 4.39 3.11 4.854 3.116 10.193 5.492 15.841 7.005 7.99 2.141 13.659 9.211 13.659 17.482z" fill="#ffa87a"/><g fill="#323b5a"><g><path d="m247.393 183.464c-1.664-3.934-5.559-6.694-10.099-6.694s-8.435 2.76-10.098 6.694z"/><path d="m283.977 183.464c-1.664-3.934-5.559-6.694-10.099-6.694s-8.435 2.76-10.099 6.694z"/></g><g><path d="m263.78 193.581c1.664 3.934 5.559 6.694 10.099 6.694s8.435-2.76 10.099-6.694z"/><path d="m227.196 193.581c1.664 3.934 5.559 6.694 10.098 6.694 4.54 0 8.435-2.76 10.099-6.694z"/></g></g></g></g></g></g></g><path d="m263.63 217.968c0 1.35-.35 2.62-.97 3.72-1.31 2.33-3.8 3.91-6.66 3.91s-5.35-1.58-6.66-3.91c-.62-1.1-.97-2.37-.97-3.72 0-4.21 3.42-7.63 7.63-7.63s7.63 3.42 7.63 7.63z" fill="#323b5a"/><path d="m262.66 221.688c-1.31 2.33-3.8 3.91-6.66 3.91s-5.35-1.58-6.66-3.91c1.31-2.33 3.8-3.91 6.66-3.91s5.35 1.58 6.66 3.91z" fill="#fe3345"/><path d="m326.33 411.68v90.54c-22.34 6.37-45.93 9.78-70.33 9.78s-47.99-3.41-70.33-9.78v-90.54c0-9.33.9-18.62 2.65-27.75 1.76-9.12 4.38-18.08 7.85-26.75 4.77-11.9 4.51-25.23-.69-36.96-.03-.06-.06-.13-.09-.2-.17-.38-.32-.76-.47-1.14-8.83-22.71 17.41-43.13 37.68-29.62l1.15.76c6.73 4.49 14.49 6.74 22.25 6.74s15.52-2.25 22.25-6.74l1.16-.76c20.26-13.5 46.48 6.89 37.69 29.59-.15.39-.31.77-.48 1.16-.03.07-.07.15-.1.23-5.2 11.71-5.45 25.04-.69 36.93l.01.01c6.93 17.34 10.49 35.83 10.49 54.5z" fill="#65b2fe"/><path d="m326.33 411.68v90.54c-22.34 6.37-45.93 9.78-70.33 9.78v-215.24c7.76 0 15.52-2.25 22.25-6.74l1.16-.76c20.26-13.5 46.48 6.89 37.69 29.59-.15.39-.31.77-.48 1.16-.03.07-.07.15-.1.23-5.2 11.71-5.45 25.04-.69 36.93l.01.01c6.93 17.34 10.49 35.83 10.49 54.5z" fill="#0e9ce7"/><g><path d="m409.95 399.14v61.41c-42.85 32.3-96.16 51.45-153.95 51.45s-111.1-19.15-153.95-51.45v-61.41c0-13.31 10.79-24.1 24.1-24.1h259.7c13.31 0 24.1 10.79 24.1 24.1z" fill="#fff"/><path d="m409.95 399.14v61.41c-42.85 32.3-96.16 51.45-153.95 51.45v-136.96h129.85c13.31 0 24.1 10.79 24.1 24.1z" fill="#d3edf7"/><path d="m409.95 420.14v40.41c-42.85 32.3-96.16 51.45-153.95 51.45s-111.1-19.15-153.95-51.45v-40.41z" fill="#ff9f00"/><path d="m409.95 420.14v40.41c-42.85 32.3-96.16 51.45-153.95 51.45v-91.86z" fill="#f4863d"/></g><g><g fill="#6cdc2d"><path d="m207.522 146.667c-.624-1.752-1.64-3.398-3.044-4.805-2.788-2.788-6.53-4.043-10.175-3.763-.28 3.648.975 7.387 3.763 10.175.395.395.81.76 1.24 1.095-.43.333-.845.698-1.24 1.092-2.788 2.788-4.042 6.53-3.763 10.175 3.645.28 7.387-.974 10.175-3.763 1.404-1.404 2.42-3.05 3.044-4.802.003-.009.006-.018.009-.026.614-1.726.614-3.626 0-5.353-.003-.008-.006-.016-.009-.025z"/><path d="m223.393 146.667c-.624-1.752-1.64-3.398-3.044-4.805-2.788-2.788-6.53-4.043-10.175-3.763-.28 3.648.975 7.387 3.763 10.175.395.395.81.76 1.24 1.095-.43.333-.845.698-1.24 1.092-2.788 2.788-4.043 6.53-3.763 10.175 3.645.28 7.387-.974 10.175-3.763 1.404-1.404 2.42-3.05 3.044-4.802.003-.009.006-.018.009-.026.614-1.726.614-3.626 0-5.353-.003-.008-.006-.016-.009-.025z"/><path d="m239.264 146.667c-.624-1.752-1.64-3.398-3.044-4.805-2.788-2.788-6.53-4.043-10.175-3.763-.28 3.648.975 7.387 3.763 10.175.395.395.81.76 1.24 1.095-.43.333-.845.698-1.24 1.092-2.788 2.788-4.042 6.53-3.763 10.175 3.645.28 7.387-.974 10.175-3.763 1.404-1.404 2.42-3.05 3.044-4.802.003-.009.006-.018.009-.026.613-1.726.613-3.626 0-5.353-.003-.008-.006-.016-.009-.025z"/><path d="m255.135 146.667c-.624-1.752-1.64-3.398-3.044-4.805-2.788-2.788-6.53-4.043-10.175-3.763-.28 3.648.975 7.387 3.763 10.175.395.395.81.76 1.24 1.095-.43.333-.845.698-1.24 1.092-2.788 2.788-4.042 6.53-3.763 10.175 3.645.28 7.387-.974 10.175-3.763 1.404-1.404 2.42-3.05 3.044-4.802.003-.009.006-.018.009-.026.614-1.726.614-3.626 0-5.353-.002-.008-.005-.016-.009-.025z"/></g><g fill="#53af17"><path d="m303.688 146.667c.624-1.752 1.64-3.398 3.044-4.805 2.788-2.788 6.53-4.043 10.175-3.763.28 3.648-.974 7.387-3.763 10.175-.395.395-.81.76-1.24 1.095.43.333.845.698 1.24 1.092 2.788 2.788 4.042 6.53 3.763 10.175-3.645.28-7.387-.974-10.175-3.763-1.404-1.404-2.42-3.05-3.044-4.802-.003-.009-.006-.018-.009-.026-.614-1.726-.614-3.626 0-5.353.003-.008.006-.016.009-.025z"/><path d="m287.817 146.667c.624-1.752 1.64-3.398 3.044-4.805 2.788-2.788 6.53-4.043 10.175-3.763.28 3.648-.975 7.387-3.763 10.175-.395.395-.81.76-1.24 1.095.43.333.845.698 1.24 1.092 2.788 2.788 4.043 6.53 3.763 10.175-3.645.28-7.387-.974-10.175-3.763-1.404-1.404-2.42-3.05-3.044-4.802-.003-.009-.006-.018-.009-.026-.613-1.726-.613-3.626 0-5.353.003-.008.006-.016.009-.025z"/><path d="m271.946 146.667c.624-1.752 1.64-3.398 3.044-4.805 2.788-2.788 6.53-4.043 10.175-3.763.28 3.648-.974 7.387-3.763 10.175-.395.395-.81.76-1.24 1.095.43.333.845.698 1.24 1.092 2.788 2.788 4.042 6.53 3.763 10.175-3.645.28-7.387-.974-10.175-3.763-1.404-1.404-2.42-3.05-3.044-4.802-.003-.009-.006-.018-.009-.026-.613-1.726-.613-3.626 0-5.353.003-.008.006-.016.009-.025z"/><path d="m256.075 146.667c.624-1.752 1.64-3.398 3.044-4.805 2.788-2.788 6.53-4.043 10.175-3.763.28 3.648-.974 7.387-3.763 10.175-.395.395-.81.76-1.24 1.095.43.333.845.698 1.24 1.092 2.788 2.788 4.042 6.53 3.763 10.175-3.645.28-7.387-.974-10.175-3.763-1.404-1.404-2.42-3.05-3.044-4.802-.003-.009-.006-.018-.009-.026-.614-1.726-.614-3.626 0-5.353.002-.008.005-.016.009-.025z"/></g></g><g><g><path d="m267.437 341.768c0 4.71-1.91 8.97-5 12.05-3.08 3.09-7.35 5-12.05 5h-82.32c-9.42 0-17.05-7.64-17.05-17.05 0-1.77.27-3.47.77-5.07.83-2.67 4.3-3.06 6.22-4.99 3.09-3.08 60.101-6.99 64.811-6.99h27.569c1.71 0 3.36.25 4.92.73 7.01 2.1 12.13 8.61 12.13 16.32z" fill="#ffc0a4"/><path d="m360.983 341.768c0 4.71-1.91 8.97-5 12.05-3.08 3.09-7.35 5-12.05 5h-82.32c-9.42 0-17.05-7.64-17.05-17.05 0-1.77.27-3.47.77-5.07.83-2.67 2.3-5.06 4.22-6.99 3.09-3.08 7.35-4.99 12.06-4.99h27.001c1.71 0 58.679 3.25 60.239 3.73 7.01 2.1 12.13 5.61 12.13 13.32z" fill="#ffa87a"/></g><path d="m225.187 324.718v34.1h-57.12c-9.42 0-17.05-7.64-17.05-17.05 0-1.77.27-3.47.77-5.07.83-2.67 2.3-5.06 4.22-6.99 3.09-3.08 7.35-4.99 12.06-4.99z" fill="#fff"/><path d="m286.813 324.718v34.1h57.12c9.42 0 17.05-7.64 17.05-17.05 0-1.77-.27-3.47-.77-5.07-.83-2.67-2.3-5.06-4.22-6.99-3.09-3.08-7.35-4.99-12.06-4.99z" fill="#d3edf7"/></g></g><g><g><path d="m326.459 107.04v.5c0 .739-.278 1.451-.778 1.995l-7.224 7.858h5.404c1.628 0 2.948 1.32 2.948 2.948 0 1.628-1.32 2.948-2.948 2.948h-12.423c-1.628 0-2.948-1.32-2.948-2.948v-.5c0-.739.278-1.451.778-1.995l7.224-7.858h-4.703c-1.628 0-2.948-1.32-2.948-2.948 0-1.628 1.32-2.948 2.948-2.948h11.722c1.628 0 2.948 1.32 2.948 2.948z" fill="#fff"/></g><g><path d="m351.121 84.311v.609c0 .9-.338 1.767-.947 2.429l-8.794 9.565h6.579c1.982 0 3.589 1.607 3.589 3.589 0 1.982-1.607 3.589-3.589 3.589h-15.124c-1.982 0-3.589-1.607-3.589-3.589v-.609c0-.9.338-1.767.947-2.429l8.794-9.566h-5.725c-1.982 0-3.589-1.607-3.589-3.589 0-1.982 1.607-3.589 3.589-3.589h14.27c1.982.001 3.589 1.608 3.589 3.59z" fill="#fff"/></g><g><path d="m382.509 54.793v.798c0 1.179-.443 2.316-1.241 3.184l-11.528 12.539h8.624c2.598 0 4.704 2.106 4.704 4.704 0 2.598-2.106 4.704-4.704 4.704h-19.825c-2.598 0-4.704-2.106-4.704-4.704v-.798c0-1.179.443-2.316 1.241-3.184l11.528-12.539h-7.505c-2.598 0-4.704-2.106-4.704-4.704 0-2.598 2.106-4.704 4.704-4.704h18.706c2.598-.001 4.704 2.106 4.704 4.704z" fill="#fff"/></g></g></g></g></svg>