<svg id="Capa_1" enable-background="new 0 0 512 512" height="512" viewBox="0 0 512 512" width="512" xmlns="http://www.w3.org/2000/svg"><g><g><circle cx="256" cy="256" fill="#9e68e0" r="256"/><path d="m512 256c0 87.11-43.52 164.07-110 210.31-41.41 28.8-91.73 45.69-146 45.69s-104.59-16.89-146-45.69c-66.48-46.24-110-123.2-110-210.31 0-46.22 12.25-89.57 33.68-127 44.12 77.07 127.16 129 222.32 129s178.21-51.93 222.32-129c21.43 37.43 33.68 80.78 33.68 127z" fill="#8e4dd3"/></g><g><g><path d="m440.46 433.5c-46.57 48.39-112 78.5-184.46 78.5s-137.89-30.11-184.46-78.5z" fill="#384c81"/><path d="m440.46 433.5c-46.57 48.39-112 78.5-184.46 78.5v-78.5z" fill="#224278"/></g><g><g><g><path d="m398.749 306.076c0 87.566-63.91 127.424-142.749 127.424s-142.749-39.858-142.749-127.424c0-87.563 63.91-221.049 142.749-221.049s142.749 133.486 142.749 221.049z" fill="#ffe400"/><path d="m398.749 306.076c0 87.566-63.91 127.424-142.749 127.424-39.421 0-71.376-39.858-71.376-127.424 0-87.563 31.955-221.049 71.376-221.049 78.839 0 142.749 133.486 142.749 221.049z" fill="#ffc300"/><path d="m398.749 306.076c0 87.566-63.91 127.424-142.749 127.424v-348.473c78.839 0 142.749 133.486 142.749 221.049z" fill="#ff9f00"/></g><ellipse cx="363.752" cy="325.59" fill="#ffc300" rx="24.345" ry="24.345" transform="matrix(.159 -.987 .987 .159 -15.526 632.954)"/></g><path d="m285.321 147.35c-.104 9.026 7.295 17.987 12.343 24.698 20.118 26.745 48.159 60.265 64.339 92.759 1.868 3.752 7.524 2.107 7.094-2.062-6.134-59.465-35.65-103.065-43.126-115.979-8.838-15.266-32.514-25.644-39.837-4.2-.541 1.589-.794 3.188-.813 4.784z" fill="#ffc300"/></g><g><g><path d="m238.653 50.781c7.174 0 12.989 5.815 12.989 12.989 0 .421.341.762.762.762h7.191c.421 0 .762-.341.762-.762 0-7.174 5.815-12.989 12.989-12.989.421 0 .762-.341.762-.762v-7.191c0-.421-.341-.762-.762-.762-7.174 0-12.989-5.815-12.989-12.989 0-.421-.341-.762-.762-.762h-7.191c-.421 0-.762.341-.762.762 0 7.174-5.815 12.989-12.989 12.989-.421 0-.762.341-.762.762v7.191c0 .421.341.762.762.762z" fill="#fff"/></g></g><g><g><g><g><path d="m96.683 107.571c7.174 0 12.989 5.815 12.989 12.989 0 .421.341.762.762.762h7.191c.421 0 .762-.341.762-.762 0-7.174 5.815-12.989 12.989-12.989.421 0 .762-.341.762-.762v-7.191c0-.421-.341-.762-.762-.762-7.174 0-12.989-5.815-12.989-12.989 0-.421-.341-.762-.762-.762h-7.191c-.421 0-.762.341-.762.762 0 7.174-5.815 12.989-12.989 12.989-.421 0-.762.341-.762.762v7.191c0 .42.341.762.762.762z" fill="#fff"/></g></g><g><g><path d="m380.623 107.571c7.174 0 12.989 5.815 12.989 12.989 0 .421.341.762.762.762h7.191c.421 0 .762-.341.762-.762 0-7.174 5.815-12.989 12.989-12.989.421 0 .762-.341.762-.762v-7.191c0-.421-.341-.762-.762-.762-7.174 0-12.989-5.815-12.989-12.989 0-.421-.341-.762-.762-.762h-7.191c-.421 0-.762.341-.762.762 0 7.174-5.815 12.989-12.989 12.989-.421 0-.762.341-.762.762v7.191c0 .42.341.762.762.762z" fill="#fff"/></g></g></g><g><g><g><path d="m441.354 260.357c7.174 0 12.989 5.815 12.989 12.989 0 .421.341.762.762.762h7.191c.421 0 .762-.341.762-.762 0-7.174 5.815-12.989 12.989-12.989.421 0 .762-.341.762-.762v-7.191c0-.421-.341-.762-.762-.762-7.174 0-12.989-5.815-12.989-12.989 0-.421-.341-.762-.762-.762h-7.191c-.421 0-.762.341-.762.762 0 7.174-5.815 12.989-12.989 12.989-.421 0-.762.341-.762.762v7.191c-.001.421.341.762.762.762z" fill="#fff"/></g></g><g><g><path d="m35.953 260.357c7.174 0 12.989 5.815 12.989 12.989 0 .421.341.762.762.762h7.191c.421 0 .762-.341.762-.762 0-7.174 5.815-12.989 12.989-12.989.421 0 .762-.341.762-.762v-7.191c0-.421-.341-.762-.762-.762-7.174 0-12.989-5.815-12.989-12.989 0-.421-.341-.762-.762-.762h-7.191c-.421 0-.762.341-.762.762 0 7.174-5.815 12.989-12.989 12.989-.421 0-.762.341-.762.762v7.191c0 .421.341.762.762.762z" fill="#fff"/></g></g></g></g></g></g></svg>