<svg id="Capa_1" enable-background="new 0 0 512 512" height="512" viewBox="0 0 512 512" width="512" xmlns="http://www.w3.org/2000/svg"><g><g><path d="m511.999 255.138c.233 70.601-28.131 134.593-74.139 181.042l-.01.01-62.101 25.889c-76.637 31.948-162.862 31.948-239.499 0l-62.1-25.889-.01-.01c-45.82-46.26-74.14-109.92-74.14-180.18 0-141.188 114.309-255.689 255.425-255.999 140.825-.31 256.11 114.313 256.574 255.137z" fill="#65b2fe"/><path d="m512 256c0 70.27-28.32 133.93-74.17 180.19l-62.07 25.879c-76.643 31.955-162.878 31.955-239.521 0l-62.069-25.879c-45.85-46.26-74.17-109.92-74.17-180.19 0-46.22 12.25-89.57 33.68-127 44.12 77.07 127.16 129 222.32 129s178.21-51.93 222.32-129c21.43 37.43 33.68 80.78 33.68 127z" fill="#159de4"/></g><g><g><g><g><g><path d="m321.906 163.538c0 9.786-2.135 19.074-5.961 27.425-5.133 11.201-7.13 23.495-6.549 35.803 1.015 21.526-13.659 43.976-41.293 43.976h-24.158c-26.792 0-41.298-20.845-41.298-41.643 0-.594.012-1.189.036-1.783.511-12.725-1.739-25.357-6.919-36.991-3.644-8.183-5.67-17.247-5.67-26.788v-15.914c0-36.424 29.243-66.5 65.676-66.624h.23c36.399 0 65.906 29.507 65.906 65.906z" fill="#fe3345"/><path d="m321.906 163.538c0 9.786-2.135 19.074-5.961 27.425-5.133 11.201-7.13 23.495-6.549 35.803 1.015 21.526-13.659 43.976-41.293 43.976h-12.103v-189.742c36.395 0 65.906 29.511 65.906 65.906z" fill="#de1263"/></g><path d="m430.623 257.261c0 9.432-7.641 17.073-17.073 17.073-5.745 0-11.145 2.231-15.215 6.301l-7.201 7.201c-9.422 9.422-21.937 15.158-35.227 16.144-1.379.105-2.758.153-4.127.153-11.883 0-23.498-3.801-33.111-10.916l-25.097-18.576-37.572 29.165-.01.01-37.564-29.176-25.097 18.576c-9.604 7.114-21.228 10.916-33.111 10.916-1.379 0-2.748-.048-4.127-.153-13.29-.986-25.805-6.722-35.227-16.144l-7.201-7.201c-4.07-4.069-9.47-6.301-15.215-6.301-9.432 0-17.073-7.641-17.073-17.073 0-9.422 7.641-17.073 17.073-17.073 14.861 0 28.84 5.793 39.354 16.307l7.201 7.201c7.478 7.469 19.514 8.369 28.017 2.078l44.64-33.035c.824-.603 1.676-1.111 2.557-1.551 7.421-6.186 16.967-9.91 27.385-9.91h16.795c10.418 0 19.964 3.725 27.385 9.91.881.441 1.733.948 2.557 1.551l44.64 33.035c8.493 6.291 20.539 5.4 28.017-2.078l7.201-7.201c10.514-10.514 24.493-16.307 39.354-16.307 9.431.001 17.072 7.652 17.072 17.074z" fill="#ffc0a4"/><path d="m430.623 257.261c0 9.432-7.641 17.073-17.073 17.073-5.745 0-11.145 2.231-15.215 6.301l-7.201 7.201c-9.422 9.422-21.937 15.158-35.227 16.144-1.379.105-2.758.153-4.127.153-11.883 0-23.498-3.801-33.111-10.916l-25.097-18.576-37.572 29.165v-82.529h8.397c10.418 0 19.964 3.725 27.385 9.91.881.441 1.733.948 2.557 1.551l44.64 33.035c8.493 6.291 20.539 5.4 28.017-2.078l7.201-7.201c10.514-10.514 24.493-16.307 39.354-16.307 9.431.001 17.072 7.652 17.072 17.074z" fill="#ffa87a"/><g><g><g><g><g><g><path d="m277.936 204.72v13.985c0 11.729-9.129 21.652-20.848 22.121-.366.015-.732.022-1.1.022h-.007c-.363 0-.724-.007-1.085-.021-11.721-.462-20.85-10.391-20.85-22.12v-13.987z" fill="#ffa87a"/><path d="m277.936 204.72v13.985c0 11.729-9.129 21.652-20.848 22.121-.366.015-.732.022-1.1.022v-36.128z" fill="#e3835a"/><path d="m195.669 163.599.018-5.205c.02-5.981-4.858-11.037-10.838-10.975-7.14.075-12.95 5.859-12.977 13.017-.05 13.154 10.576 23.854 23.728 23.898 4.836 0 8.757-3.921 8.757-8.757v-11.979h-8.688z" fill="#ffa87a"/><path d="m316.308 163.599-.018-5.205c-.02-5.981 4.858-11.037 10.838-10.975 7.14.075 12.951 5.859 12.978 13.017.05 13.154-10.576 23.854-23.728 23.898-4.836 0-8.757-3.921-8.757-8.757v-11.979h8.687z" fill="#ffa87a"/><path d="m316.29 163.682v.568c0 26.005-16.259 49.612-40.934 57.822-6.084 2.024-12.591 3.121-19.356 3.124 0 0 0 0-.01 0-8.263-.003-16.143-1.642-23.335-4.611-22.588-9.323-36.934-31.817-36.934-56.253v-.655c0-8.575 5.753-16.113 14.047-18.29 7.779-2.042 15.006-5.636 21.275-10.496 3.574-2.775 7.559-4.93 11.774-6.392 4.205-1.472 8.662-2.239 13.183-2.239 8.936 0 17.661 2.912 24.694 8.431 1.472 1.156 3.007 2.239 4.583 3.249 5.103 3.276 10.715 5.774 16.653 7.364 8.401 2.25 14.36 9.682 14.36 18.378z" fill="#ffc0a4"/><path d="m316.29 163.682v.568c0 26.005-16.259 49.612-40.934 57.822-6.084 2.024-12.591 3.121-19.356 3.124 0 0 0 0-.01 0v-98.935h.01c8.925 0 17.64 2.902 24.663 8.41 1.482 1.167 3.028 2.26 4.615 3.27 5.103 3.276 10.715 5.774 16.653 7.364 8.4 2.249 14.359 9.681 14.359 18.377z" fill="#ffa87a"/></g><g><g fill="#323b5a"><path d="m244.869 167.268c0 3.965-3.214 7.179-7.179 7.179s-7.179-3.214-7.179-7.179 3.214-7.179 7.179-7.179 7.179 3.214 7.179 7.179z"/><path d="m281.452 167.268c0 3.965-3.214 7.179-7.179 7.179s-7.179-3.214-7.179-7.179 3.214-7.179 7.179-7.179 7.179 3.214 7.179 7.179z"/></g></g><g><path d="m247.788 152.897c-1.664-3.934-5.559-6.694-10.098-6.694-4.54 0-8.435 2.76-10.098 6.694z" fill="#234177"/><path d="m284.372 152.897c-1.664-3.934-5.559-6.694-10.099-6.694s-8.435 2.76-10.099 6.694z" fill="#323b5a"/></g></g></g></g></g></g><g><path d="m273.172 186.991c5.074 0 7.776 6.088 4.286 9.772-2.187 2.309-4.742 4.263-7.57 5.77-4.137 2.216-8.865 3.468-13.887 3.468-5.023 0-9.75-1.252-13.887-3.468-2.829-1.507-5.383-3.462-7.57-5.77-3.49-3.684-.788-9.772 4.286-9.772z" fill="#323b5a"/><path d="m269.887 202.534c-4.137 2.216-8.865 3.468-13.887 3.468-5.023 0-9.75-1.252-13.887-3.468 3.454-3.742 8.397-6.087 13.887-6.087 5.49-.001 10.433 2.345 13.887 6.087z" fill="#e32644"/><path d="m269.879 202.536c-4.135 2.215-8.86 3.466-13.878 3.466v-9.556c5.487 0 10.425 2.349 13.878 6.09z" fill="#bc0e5c"/></g></g></g><path d="m415.13 368.13v34.51c0 28.29-10.74 54.07-28.36 73.48-30.11 17.93-64.2 29.85-100.64 34.12-51.02-9.24-89.73-53.9-89.73-107.6v-33.7c0-7.91.76-15.78 2.24-23.52.28-1.42.58-2.83.91-4.24 1.43-6.27 3.35-12.43 5.75-18.42 4.04-10.1 3.82-21.39-.58-31.33-2.58-5.79-3.84-11.96-3.84-18.11v-.77c0-7.2 2.92-13.73 7.64-18.45s11.25-7.64 18.45-7.64c9.31 0 17.93 4.97 22.6 13.04l6.43 11.15 6.43-11.15c2.34-4.03 5.65-7.29 9.55-9.55 3.91-2.25 8.39-3.49 13.05-3.49 14.41 0 26.09 11.68 26.09 26.09v.76c0 6.16-1.26 12.33-3.84 18.13-4.4 9.93-4.61 21.22-.58 31.31l.01.01c2.39 5.99 4.32 12.15 5.75 18.42 2.08 9.08 3.14 18.4 3.14 27.76v12.98l.11 12.46c.39 39.95 60.38 41.2 61.73 1.27.02-.7.03-1.4.03-2.11v-25.41z" fill="#b6e337"/><path d="m395.35 368.13v39.76c0 27.51-22.3 49.82-49.82 49.82h-25.16c-35.55 0-64.37-28.82-64.37-64.37v-122.69l6.43-11.15c2.34-4.03 5.65-7.29 9.55-9.55 3.91-2.25 8.39-3.49 13.05-3.49 14.41 0 26.09 11.68 26.09 26.09v.76c0 6.16-1.26 12.33-3.84 18.13-4.4 9.93-4.61 21.22-.58 31.31l.01.01c5.87 14.68 8.89 30.36 8.89 46.18v12.98l.11 12.46c.39 39.95 60.38 41.2 61.73 1.27.02-.7.03-1.4.03-2.11v-25.41z" fill="#6cdc2d"/><path d="m467.71 304.13c0 39.96-32.4 72.36-72.36 72.36s-72.36-32.4-72.36-72.36c32.01 0 59.15 20.8 68.69 49.62.53 1.58 2 2.65 3.67 2.65s3.15-1.07 3.67-2.65c9.54-28.82 36.68-49.62 68.69-49.62z" fill="#b6e337"/><path d="m312.46 341.18-56.46 23.1-56.45-23.1c1.43-6.27 3.35-12.43 5.75-18.42 2.8-7 3.55-14.58 2.28-21.88-.56-3.23-1.51-6.4-2.86-9.45-2.58-5.79-3.84-11.96-3.84-18.11v-.77c0-7.2 2.92-13.73 7.64-18.45s11.25-7.64 18.45-7.64c9.31 0 17.93 4.97 22.6 13.04l6.43 11.15 6.43-11.15c2.34-4.03 5.65-7.29 9.55-9.55 3.91-2.25 8.39-3.49 13.05-3.49 14.41 0 26.09 11.68 26.09 26.09v.76c0 6.16-1.26 12.33-3.84 18.13-1.35 3.04-2.3 6.22-2.86 9.44-1.27 7.3-.51 14.87 2.28 21.87l.01.01c2.39 5.99 4.32 12.15 5.75 18.42z" fill="#fe3345"/><path d="m312.46 341.18-56.46 23.1v-93.63l6.43-11.15c2.34-4.03 5.65-7.29 9.55-9.55 3.91-2.25 8.39-3.49 13.05-3.49 14.41 0 26.09 11.68 26.09 26.09v.76c0 6.16-1.26 12.33-3.84 18.13-4.4 9.93-4.61 21.22-.58 31.31l.01.01c2.39 5.99 4.32 12.15 5.75 18.42z" fill="#de1263"/><path d="m467.71 304.13c0 39.96-32.4 72.36-72.36 72.36v-20.09c1.67 0 3.15-1.07 3.67-2.65 9.54-28.82 36.68-49.62 68.69-49.62z" fill="#d2f279"/><path d="m315.11 347.66-49.34 20.18c-3.15 1.29-6.46 1.94-9.77 1.94s-6.62-.65-9.78-1.94l-49.32-20.18c-3.58-1.47-5.29-5.55-3.83-9.13 1.47-3.58 5.55-5.3 9.13-3.83l49.33 20.19c1.44.59 2.95.89 4.47.89s3.03-.3 4.47-.89l49.34-20.19c3.58-1.46 7.67.25 9.13 3.83s-.25 7.66-3.83 9.13z" fill="#de1263"/><path d="m315.11 347.66-49.34 20.18c-3.15 1.29-6.46 1.94-9.77 1.94v-14c1.52 0 3.03-.3 4.47-.89l49.34-20.19c3.58-1.46 7.67.25 9.13 3.83s-.25 7.66-3.83 9.13z" fill="#bc0e5c"/><g><path d="m311.12 273.129v.181c0 6.16-1.26 12.33-3.84 18.13-.014.031-.027.062-.041.093-2.477 5.617-7.91 9.347-14.049 9.347h-74.375c-6.143 0-11.581-3.734-14.054-9.358-.014-.031-.027-.061-.04-.092-2.58-5.79-3.84-11.96-3.84-18.11v-.77c0-7.2 2.92-13.73 7.64-18.45s11.25-7.64 18.45-7.64c9.31 0 17.93 4.97 22.6 13.04l6.43 11.15 6.43-11.15c2.34-4.03 5.65-7.29 9.55-9.55 4.649-2.676 10.105-3.923 15.71-3.355 13.419 1.358 23.429 13.046 23.429 26.534z" fill="#ff6477"/><path d="m311.12 273.129v.181c0 6.16-1.26 12.33-3.84 18.13-.014.031-.027.062-.041.093-2.477 5.617-7.91 9.347-14.049 9.347h-37.19v-30.23l6.43-11.15c2.34-4.03 5.65-7.29 9.55-9.55 4.649-2.676 10.105-3.923 15.71-3.355 13.42 1.358 23.43 13.046 23.43 26.534z" fill="#fe3345"/></g></g><g><path d="m437.86 436.18c-13.52 13.64-28.56 25.77-44.85 36.1-39.61 25.15-86.61 39.72-137.01 39.72s-97.4-14.57-137.02-39.72c-16.28-10.34-31.32-22.46-44.84-36.1 3.39.29 7.09.46 11.19.46 42.67 0 42.67-17.94 85.33-17.94 42.67 0 42.67 17.94 85.34 17.94 42.66 0 42.66-17.94 85.33-17.94s42.67 17.94 85.33 17.94c4.1 0 7.81-.17 11.2-.46z" fill="#b3f4ff"/><path d="m437.86 436.18c-13.52 13.64-28.56 25.77-44.85 36.1-39.61 25.15-86.61 39.72-137.01 39.72v-75.36c42.66 0 42.66-17.94 85.33-17.94s42.67 17.94 85.33 17.94c4.1 0 7.81-.17 11.2-.46z" fill="#8fc8f5"/><path d="m393.01 472.28c-39.61 25.15-86.61 39.72-137.01 39.72s-97.4-14.57-137.02-39.72c14.63-5.29 24.49-12.57 51.68-12.57 42.67 0 42.67 17.93 85.34 17.93 42.66 0 42.66-17.93 85.33-17.93 27.2 0 37.06 7.28 51.68 12.57z" fill="#fff"/><path d="m393.01 472.28c-39.61 25.15-86.61 39.72-137.01 39.72v-34.36c42.66 0 42.66-17.93 85.33-17.93 27.2 0 37.06 7.28 51.68 12.57z" fill="#d1f6ff"/></g></g></g></svg>