<svg id="Capa_1" enable-background="new 0 0 512 512" height="512" viewBox="0 0 512 512" width="512" xmlns="http://www.w3.org/2000/svg"><g><g><circle cx="256" cy="256" fill="#4e689b" r="256"/><path d="m512 256c0 87.11-43.52 164.07-110 210.31-41.41 28.8-91.73 45.69-146 45.69s-104.59-16.89-146-45.69c-66.48-46.24-110-123.2-110-210.31 0-46.22 12.25-89.57 33.68-127 44.12 77.07 127.16 129 222.32 129s178.21-51.93 222.32-129c21.43 37.43 33.68 80.78 33.68 127z" fill="#374c81"/></g><g><g><g><path d="m256 203.14c-85.16 0-154.43 69.28-154.43 154.42 0 85.16 69.27 154.44 154.43 154.44 85.15 0 154.43-69.28 154.43-154.44 0-85.14-69.28-154.42-154.43-154.42zm0 265.48c-61.24 0-111.05-49.82-111.05-111.06 0-61.23 49.81-111.04 111.05-111.04 61.23 0 111.05 49.81 111.05 111.04 0 61.24-49.82 111.06-111.05 111.06z" fill="#ffe400"/><path d="m410.43 357.56c0 85.16-69.28 154.44-154.43 154.44v-43.38c61.23 0 111.05-49.82 111.05-111.06 0-61.23-49.82-111.04-111.05-111.04v-43.38c85.15 0 154.43 69.28 154.43 154.42z" fill="#ffc300"/><path d="m256 224.83c-73.31 0-132.74 59.42-132.74 132.73 0 73.32 59.43 132.75 132.74 132.75s132.74-59.43 132.74-132.75c0-73.31-59.43-132.73-132.74-132.73zm0 243.79c-61.24 0-111.05-49.82-111.05-111.06 0-61.23 49.81-111.04 111.05-111.04 61.23 0 111.05 49.81 111.05 111.04 0 61.24-49.82 111.06-111.05 111.06z" fill="#ffc300"/><path d="m388.74 357.56c0 73.32-59.43 132.75-132.74 132.75v-21.69c61.23 0 111.05-49.82 111.05-111.06 0-61.23-49.82-111.04-111.05-111.04v-21.69c73.31 0 132.74 59.42 132.74 132.73z" fill="#ff9f00"/><g><path d="m323.687 98.935h-67.091-67.091l-33.545 58.102 100.636 58.102 100.637-58.102z" fill="#de1263"/><g><path d="m189.505 98.935-33.545 58.102h67.091z" fill="#fe3345"/><path d="m290.142 157.037 33.545-58.102h-67.091z" fill="#bc0e5c"/><path d="m256.596 98.935-33.545 58.102h67.091z" fill="#ff6477"/><path d="m256.596 215.139-33.545-58.102h67.091z" fill="#fe3345"/><path d="m256.596 215.139 33.546-58.102h67.091z" fill="#bc0e5c"/><path d="m323.687 98.935-33.545 58.102h67.091z" fill="#de1263"/></g></g><path d="m327.18 224.83h-141.17l11.74-32.83h117.69z" fill="#ffe400"/><path d="m327.18 224.83c0 16.43-13.32 29.75-29.75 29.75h-81.67c-16.43 0-29.75-13.32-29.75-29.75z" fill="#ffc300"/></g><path d="m327.18 224.83h-71.18v-32.83h59.44z" fill="#ffc300"/><path d="m327.18 224.83c0 16.43-13.32 29.75-29.75 29.75h-41.43v-29.75z" fill="#ff9f00"/></g><g><g><path d="m238.653 50.781c7.174 0 12.989 5.815 12.989 12.989 0 .421.341.762.762.762h7.191c.421 0 .762-.341.762-.762 0-7.174 5.815-12.989 12.989-12.989.421 0 .762-.341.762-.762v-7.191c0-.421-.341-.762-.762-.762-7.174 0-12.989-5.815-12.989-12.989 0-.421-.341-.762-.762-.762h-7.191c-.421 0-.762.341-.762.762 0 7.174-5.815 12.989-12.989 12.989-.421 0-.762.341-.762.762v7.191c0 .421.341.762.762.762z" fill="#fff"/></g></g><g><g><g><g><path d="m96.683 107.571c7.174 0 12.989 5.815 12.989 12.989 0 .421.341.762.762.762h7.191c.421 0 .762-.341.762-.762 0-7.174 5.815-12.989 12.989-12.989.421 0 .762-.341.762-.762v-7.191c0-.421-.341-.762-.762-.762-7.174 0-12.989-5.815-12.989-12.989 0-.421-.341-.762-.762-.762h-7.191c-.421 0-.762.341-.762.762 0 7.174-5.815 12.989-12.989 12.989-.421 0-.762.341-.762.762v7.191c0 .42.341.762.762.762z" fill="#fff"/></g></g><g><g><path d="m380.623 107.571c7.174 0 12.989 5.815 12.989 12.989 0 .421.341.762.762.762h7.191c.421 0 .762-.341.762-.762 0-7.174 5.815-12.989 12.989-12.989.421 0 .762-.341.762-.762v-7.191c0-.421-.341-.762-.762-.762-7.174 0-12.989-5.815-12.989-12.989 0-.421-.341-.762-.762-.762h-7.191c-.421 0-.762.341-.762.762 0 7.174-5.815 12.989-12.989 12.989-.421 0-.762.341-.762.762v7.191c0 .42.341.762.762.762z" fill="#fff"/></g></g></g><g><g><g><path d="m441.354 260.357c7.174 0 12.989 5.815 12.989 12.989 0 .421.341.762.762.762h7.191c.421 0 .762-.341.762-.762 0-7.174 5.815-12.989 12.989-12.989.421 0 .762-.341.762-.762v-7.191c0-.421-.341-.762-.762-.762-7.174 0-12.989-5.815-12.989-12.989 0-.421-.341-.762-.762-.762h-7.191c-.421 0-.762.341-.762.762 0 7.174-5.815 12.989-12.989 12.989-.421 0-.762.341-.762.762v7.191c-.001.421.341.762.762.762z" fill="#fff"/></g></g><g><g><path d="m35.953 260.357c7.174 0 12.989 5.815 12.989 12.989 0 .421.341.762.762.762h7.191c.421 0 .762-.341.762-.762 0-7.174 5.815-12.989 12.989-12.989.421 0 .762-.341.762-.762v-7.191c0-.421-.341-.762-.762-.762-7.174 0-12.989-5.815-12.989-12.989 0-.421-.341-.762-.762-.762h-7.191c-.421 0-.762.341-.762.762 0 7.174-5.815 12.989-12.989 12.989-.421 0-.762.341-.762.762v7.191c0 .421.341.762.762.762z" fill="#fff"/></g></g></g></g></g></g></svg>