<svg id="Capa_1" enable-background="new 0 0 512 512" height="512" viewBox="0 0 512 512" width="512" xmlns="http://www.w3.org/2000/svg"><g><g><circle cx="256" cy="256" fill="#9e68e0" r="256"/><path d="m512 256c0 87.11-43.52 164.07-110 210.31-41.41 28.8-91.73 45.69-146 45.69s-104.59-16.89-146-45.69c-66.48-46.24-110-123.2-110-210.31 0-46.22 12.25-89.57 33.68-127 44.12 77.07 127.16 129 222.32 129s178.21-51.93 222.32-129c21.43 37.43 33.68 80.78 33.68 127z" fill="#8e4dd3"/></g><g><g><g><path d="m253.644 479.085h1.524c6.753 0 12.227 5.474 12.227 12.227v1.524h8.716v-1.524c0-6.753 5.474-12.227 12.227-12.227h1.525v-8.716h-1.525c-6.753 0-12.227-5.474-12.227-12.227v-1.525h-8.716v1.525c0 6.753-5.474 12.227-12.227 12.227h-1.524z" fill="#fff"/></g></g><g><g><path d="m438.606 214.141h1.524c6.753 0 12.227 5.474 12.227 12.227v1.524h8.716v-1.524c0-6.753 5.474-12.227 12.227-12.227h1.525v-8.716h-1.525c-6.753 0-12.227-5.474-12.227-12.227v-1.525h-8.716v1.525c0 6.753-5.474 12.227-12.227 12.227h-1.524z" fill="#fff"/></g></g><g><g><path d="m304.642 71.491h1.524c6.753 0 12.227 5.474 12.227 12.227v1.524h8.716v-1.524c0-6.753 5.474-12.227 12.227-12.227h1.525v-8.716h-1.525c-6.753 0-12.227-5.474-12.227-12.227v-1.525h-8.716v1.525c0 6.753-5.474 12.227-12.227 12.227h-1.524z" fill="#fff"/></g></g><g><g><path d="m387.51 402.556h1.524c6.753 0 12.227 5.474 12.227 12.227v1.524h8.716v-1.524c0-6.753 5.474-12.227 12.227-12.227h1.525v-8.716h-1.525c-6.753 0-12.227-5.474-12.227-12.227v-1.525h-8.716v1.525c0 6.753-5.474 12.227-12.227 12.227h-1.524z" fill="#fff"/></g></g><g><g><path d="m47.137 259.211h1.524c6.753 0 12.227 5.474 12.227 12.227v1.524h8.716v-1.524c0-6.753 5.474-12.227 12.227-12.227h1.525v-8.716h-1.525c-6.753 0-12.227-5.474-12.227-12.227v-1.525h-8.716v1.525c0 6.753-5.474 12.227-12.227 12.227h-1.524z" fill="#fff"/></g></g><g><g><path d="m158.143 129.764h1.524c6.753 0 12.227 5.474 12.227 12.227v1.524h8.716v-1.524c0-6.753 5.474-12.227 12.227-12.227h1.525v-8.716h-1.525c-6.753 0-12.227-5.474-12.227-12.227v-1.525h-8.716v1.525c0 6.753-5.474 12.227-12.227 12.227h-1.524z" fill="#fff"/></g></g><g><path d="m434.324 129.621-227.254 227.254-31.292-31.292 227.254-227.254c8.641-8.641 22.651-8.641 31.292 0 8.641 8.641 8.641 22.651 0 31.292z" fill="#a63917"/><path d="m434.324 129.621-227.254 227.254-15.646-15.646 242.9-242.9c8.641 8.641 8.641 22.651 0 31.292z" fill="#83250d"/><g><g><path d="m211.092 431.282-38.472 66.828c-64.29-22.13-117-69.16-146.6-129.56l32.982-32.976 28.509-4.023-.971-23.51c.22-.23.44-.45.66-.66 38.28-37.58 100.02-38.02 138.04-.04l.03.03c38.13 38.129 23.952 85.781-14.178 123.911z" fill="#ffe400"/><path d="m203.487 423.677-30.867 74.433c-48.06-16.54-89.64-47-119.94-86.55l68.69-68.69c.23-.22.45-.44.67-.66 38.09-37.74 84.34-53.65 103.2-34.87l.03.03c38.13 38.13 16.347 78.177-21.783 116.307z" fill="#fed110"/><path d="m225.28 445.45-24.795-1.908-3.016 29.719-24.849 24.849c-32.47-11.17-61.98-28.7-87.05-51.1l139.67-139.67c38.16 38.12 38.18 99.97.04 138.11z" fill="#ff9f00"/><path d="m225.278 445.452-27.978 27.978-138.077-138.078 27.316-27.316c.223-.223.442-.442.665-.657z" fill="#c55732"/><path d="m225.278 445.452-27.978 27.978-103.242-103.243 27.316-27.316c.223-.223.442-.442.665-.657z" fill="#a63917"/><path d="m156.967 376.056h39.566v97.691h-39.566z" fill="#83250d" transform="matrix(.707 -.707 .707 .707 -248.682 249.431)"/></g><path d="m272.736 341.725-13.11 13.11c-2.877 2.877-7.543 2.873-10.42-.004l-71.384-71.384c-2.877-2.877-2.881-7.543-.004-10.42l13.111-13.11c2.877-2.877 7.543-2.872 10.42.004l71.384 71.384c2.876 2.877 2.88 7.544.003 10.42z" fill="#fed110"/><path d="m272.736 341.725-13.11 13.11c-2.877 2.877-7.543 2.873-10.42-.004l-50.954-50.954c-2.877-2.877-2.877-7.539 0-10.416l13.11-13.11c2.877-2.877 7.539-2.877 10.416 0l50.954 50.954c2.877 2.877 2.881 7.544.004 10.42z" fill="#ff9f00"/><path d="m272.736 341.725-13.11 13.11c-2.877 2.877-7.543 2.873-10.42-.004l-35.731-35.731 23.526-23.526 35.731 35.731c2.877 2.877 2.881 7.544.004 10.42z" fill="#ec781b"/></g></g></g></g></svg>