<svg id="Capa_1" enable-background="new 0 0 512 512" height="512" viewBox="0 0 512 512" width="512" xmlns="http://www.w3.org/2000/svg"><g><g><circle cx="256" cy="256" fill="#b6e337" r="256"/><path d="m512 256c0 87.11-43.52 164.07-110 210.31-41.41 28.8-91.73 45.69-146 45.69s-104.59-16.89-146-45.69c-66.48-46.24-110-123.2-110-210.31 0-46.22 12.25-89.57 33.68-127 44.12 77.07 127.16 129 222.32 129s178.21-51.93 222.32-129c21.43 37.43 33.68 80.78 33.68 127z" fill="#6cdc2d"/></g><g><g><g><path d="m111.116 108.509h64.687v210.044h-64.687z" fill="#f4863d"/><path d="m143.458 108.509h32.345v210.044h-32.345z" fill="#c55732"/><g><path d="m403.94 269.46v164.04h-295.87v-164.04l57.01-57.02 90.92-90.92z" fill="#ff9cad"/><path d="" fill="#a63917"/><path d="m403.94 269.46v164.04h-147.94v-311.98z" fill="#ff6477"/><g><path d="m165.079 212.443v221.057h-57.014v-164.044l28.507-28.507z" fill="#fff"/><path d="m165.079 212.443v221.057h-28.507v-192.551z" fill="#d3edf7"/><path d="m165.079 229.974v49.785l-57.014 57.013v-49.784l28.507-28.507z" fill="#ff6477"/><path d="m165.079 229.974v49.785l-28.507 28.507v-49.785z" fill="#fe3345"/><path d="m165.079 322.316v42.559l-28.507 28.507-28.507 28.507v-42.56l28.507-28.507z" fill="#ff6477"/><g fill="#fe3345"><path d="m136.572 350.822 28.507-28.506v42.559l-28.507 28.507z"/><path d="m165.079 407.432v26.069h-26.068z"/></g></g><g><path d="m346.922 212.443v221.057h57.013v-164.044l-28.507-28.507z" fill="#fff"/><path d="m346.922 212.443v221.057h28.506v-192.551z" fill="#d3edf7"/><path d="m346.922 229.974v49.785l57.013 57.013v-49.784l-28.507-28.507z" fill="#ff6477"/><path d="m346.922 229.974v49.785l28.506 28.507v-49.785z" fill="#fe3345"/><path d="m346.922 322.316v42.559l28.506 28.507 28.507 28.507v-42.56l-28.507-28.507z" fill="#ff6477"/><g fill="#fe3345"><path d="m375.428 350.822-28.506-28.506v42.559l28.506 28.507z"/><path d="m346.922 407.432v26.069h26.068z"/></g></g><path d="m421.57 281.52c-12.27 12.62-32.46 12.73-44.87.32-3.5-3.5-6-7.61-7.51-12-2.63-7.65-8.61-13.62-16.26-16.26-4.38-1.51-8.5-4.01-11.99-7.51-3.5-3.5-6.01-7.61-7.51-11.99-2.64-7.65-8.62-13.63-16.27-16.26-4.38-1.51-8.49-4.02-11.99-7.51-3.5-3.5-6-7.62-7.51-12-2.64-7.65-8.61-13.63-16.26-16.26-4.38-1.51-8.5-4.01-12-7.51s-6-7.62-7.51-12c-.01-.03-.02-.07-.04-.11-.96-2.75-3.41-4.13-5.85-4.13s-4.89 1.38-5.85 4.13c-.02.04-.03.08-.04.11-1.51 4.38-4.01 8.5-7.51 12s-7.61 6-12 7.51c-7.65 2.63-13.62 8.61-16.26 16.26-1.51 4.38-4.01 8.5-7.51 12-3.5 3.49-7.61 6-11.99 7.51-7.65 2.63-13.63 8.61-16.27 16.26-1.5 4.38-4.01 8.49-7.51 11.99-3.49 3.5-7.61 6-11.99 7.51-7.65 2.64-13.63 8.61-16.26 16.26-1.51 4.39-4.01 8.5-7.51 12-12.41 12.41-32.6 12.3-44.88-.32-11.8-12.14-11.83-31.68-.06-43.85 3.63-3.75 7.94-6.4 12.55-7.96 7.6-2.57 13.47-8.61 16.09-16.2 1.51-4.38 4.01-8.5 7.51-12 3.5-3.49 7.61-6 11.99-7.51 7.65-2.63 13.63-8.61 16.26-16.26 1.51-4.38 4.02-8.49 7.51-11.99 3.5-3.5 7.62-6 12-7.51 7.65-2.64 13.63-8.61 16.26-16.26 1.51-4.39 4.01-8.5 7.51-12s7.61-6 12-7.51c6.9-2.38 12.53-7.46 15.42-14.08 1.42-5.33 4.25-10.36 8.49-14.49 6.11-5.94 14.08-8.89 22.05-8.87 7.97-.02 15.94 2.93 22.05 8.87 4.24 4.13 7.07 9.16 8.49 14.49 2.89 6.62 8.52 11.7 15.42 14.08 4.39 1.51 8.5 4.01 12 7.51s6 7.61 7.51 12c2.63 7.65 8.61 13.62 16.26 16.26 4.38 1.51 8.5 4.01 12 7.51 3.49 3.5 6 7.61 7.51 11.99 2.63 7.65 8.61 13.63 16.26 16.26 4.38 1.51 8.49 4.02 11.99 7.51 3.5 3.5 6 7.62 7.51 12 2.62 7.59 8.49 13.63 16.09 16.2 4.61 1.56 8.93 4.21 12.55 7.96 11.77 12.17 11.74 31.71-.07 43.85z" fill="#fff"/><path d="m421.57 281.52c-12.27 12.62-32.46 12.73-44.87.32-3.5-3.5-6-7.61-7.51-12-2.63-7.65-8.61-13.62-16.26-16.26-4.38-1.51-8.5-4.01-11.99-7.51-3.5-3.5-6.01-7.61-7.51-11.99-2.64-7.65-8.62-13.63-16.27-16.26-4.38-1.51-8.49-4.02-11.99-7.51-3.5-3.5-6-7.62-7.51-12-2.64-7.65-8.61-13.63-16.26-16.26-4.38-1.51-8.5-4.01-12-7.51s-6-7.62-7.51-12c-.01-.03-.02-.07-.04-.11-.96-2.75-3.41-4.13-5.85-4.13v-73.27c7.97-.02 15.94 2.93 22.05 8.87 4.24 4.13 7.07 9.16 8.49 14.49 2.89 6.62 8.52 11.7 15.42 14.08 4.39 1.51 8.5 4.01 12 7.51s6 7.61 7.51 12c2.63 7.65 8.61 13.62 16.26 16.26 4.38 1.51 8.5 4.01 12 7.51 3.49 3.5 6 7.61 7.51 11.99 2.63 7.65 8.61 13.63 16.26 16.26 4.38 1.51 8.49 4.02 11.99 7.51 3.5 3.5 6 7.62 7.51 12 2.62 7.59 8.49 13.63 16.09 16.2 4.61 1.56 8.93 4.21 12.55 7.96 11.77 12.17 11.74 31.71-.07 43.85z" fill="#d3edf7"/><g><g><path d="m51.06 409.43s-.01 0 0-.01c0-4.71 1.42-9.53 4.57-13.88 11.76-16.22 30.87-26.77 52.44-26.77 21.56 0 40.67 10.55 52.43 26.77 11.46 15.81.06 37.96-19.47 37.96h-65.93c-1.32 0-2.6-.1-3.85-.3z" fill="#f4863d"/><path d="m141.032 433.501h-49.449c-9.764 0-15.468-22.147-9.735-37.957 5.882-16.22 15.432-26.769 26.217-26.769 21.569 0 40.677 10.549 52.437 26.769 11.462 15.81.058 37.957-19.47 37.957z" fill="#c55732"/><path d="m141.032 433.501h-32.967v-64.726c21.569 0 40.677 10.549 52.437 26.769 11.462 15.81.058 37.957-19.47 37.957z" fill="#a63917"/></g><g><path d="m74.67 433.5h-3.14c-11.11-11.54-21.15-24.13-29.95-37.59 4.03-1.38 8.36-2.13 12.86-2.13 13.24 0 24.96 6.48 32.18 16.43 7.03 9.7.04 23.29-11.95 23.29z" fill="#f4863d"/><path d="m74.67 433.5h-3.14c-10.08-10.47-19.27-21.8-27.46-33.86 3.01-3.72 6.57-5.86 10.37-5.86 13.24 0 24.96 6.48 32.18 16.43 7.03 9.7.04 23.29-11.95 23.29z" fill="#c55732"/><path d="m74.67 433.5h-3.14c-6.02-6.26-11.73-12.82-17.09-19.66v-20.06c13.24 0 24.96 6.48 32.18 16.43 7.03 9.7.04 23.29-11.95 23.29z" fill="#a63917"/></g></g><g><g><path d="m460.94 409.43v.01c-1.12 1.49-2.24 2.96-3.39 4.42-4.57 5.83-9.38 11.45-14.44 16.85-.79.84-1.57 1.67-2.37 2.49-1.24.2-2.52.3-3.84.3h-65.93c-19.53 0-30.93-22.15-19.47-37.96 11.76-16.22 30.87-26.77 52.43-26.77 21.57 0 40.68 10.55 52.44 26.77 3.15 4.35 4.57 9.18 4.57 13.89z" fill="#f4863d"/><path d="m460.94 409.43v.01c-1.12 1.49-2.24 2.96-3.39 4.42-4.57 5.83-9.38 11.45-14.44 16.85-.79.84-1.57 1.67-2.37 2.49-1.24.2-2.52.3-3.84.3h-49.45c-9.76 0-15.47-22.15-9.73-37.96 5.88-16.22 15.43-26.77 26.21-26.77 21.57 0 40.68 10.55 52.44 26.77 3.15 4.35 4.57 9.18 4.57 13.89z" fill="#c55732"/><path d="m460.94 409.43v.01c-1.12 1.49-2.24 2.96-3.39 4.42-4.57 5.83-9.38 11.45-14.44 16.85-.79.84-1.57 1.67-2.37 2.49-1.24.2-2.52.3-3.84.3h-32.97v-64.73c21.57 0 40.68 10.55 52.44 26.77 3.15 4.35 4.57 9.18 4.57 13.89z" fill="#a63917"/></g><g><path d="m470.42 395.91c-4.04 6.17-8.33 12.16-12.87 17.95-4.57 5.83-9.38 11.45-14.44 16.85-.88.94-1.76 1.87-2.65 2.79h-3.13c-11.98 0-18.98-13.59-11.95-23.29 7.22-9.95 18.94-16.43 32.17-16.43 4.51 0 8.84.75 12.87 2.13z" fill="#f4863d"/><path d="m470.42 395.91c-4.04 6.17-8.33 12.16-12.87 17.95-4.57 5.83-9.38 11.45-14.44 16.85-3.07-4.48-4.18-13.5-1.64-20.5 3.61-9.95 9.47-16.43 16.08-16.43 4.51 0 8.84.75 12.87 2.13z" fill="#c55732"/><path d="m470.42 395.91c-4.04 6.17-8.33 12.16-12.87 17.95v-20.08c4.51 0 8.84.75 12.87 2.13z" fill="#a63917"/></g></g></g><path d="m308.06 354.18v79.32h-104.12v-79.32c0-14.37 5.83-27.38 15.25-36.8s22.43-15.25 36.81-15.25c28.75 0 52.06 23.31 52.06 52.05z" fill="#c55732"/><g><circle cx="256" cy="243.745" fill="#fff" r="34.22"/><path d="m296.09 242.41c-.68-21.01-17.74-38.07-38.76-38.76-.45-.01-.89-.02-1.33-.02-22.56 0-40.83 18.73-40.09 41.45.68 21.01 17.74 38.07 38.76 38.76.45.01.89.02 1.33.02 22.56 0 40.83-18.73 40.09-41.45zm-45.98 23.95c0 2.68-2.74 4.5-5.21 3.45-6.71-2.87-12.09-8.26-14.96-14.97-1.06-2.46.77-5.2 3.45-5.2h12.97c2.07 0 3.75 1.67 3.75 3.74zm0-32.25c0 2.07-1.68 3.74-3.75 3.74h-12.97c-2.68 0-4.51-2.74-3.45-5.2 2.87-6.71 8.25-12.1 14.96-14.97 2.47-1.05 5.21.77 5.21 3.45zm31.95 20.73c-2.87 6.71-8.25 12.1-14.96 14.97-2.47 1.05-5.21-.77-5.21-3.45v-12.98c0-2.07 1.68-3.74 3.75-3.74h12.97c2.68 0 4.51 2.74 3.45 5.2zm-3.45-16.99h-12.97c-2.07 0-3.75-1.67-3.75-3.74v-12.98c0-2.68 2.74-4.5 5.21-3.45 6.71 2.87 12.09 8.26 14.96 14.97 1.06 2.46-.77 5.2-3.45 5.2z" fill="#c55732"/></g><path d="m228.564 396.486h-2.114c-4.047 0-7.327-3.28-7.327-7.327v-15.781c0-4.047 3.28-7.327 7.327-7.327h2.114c4.047 0 7.327 3.28 7.327 7.327v15.781c0 4.046-3.28 7.327-7.327 7.327z" fill="#ffe400"/><circle cx="227.507" cy="381.268" fill="#ff9f00" r="5.034"/><path d="m181.913 107.802v17.787c0 3.831-3.107 6.938-6.938 6.938h-62.623c-3.831 0-6.935-3.107-6.935-6.938v-17.787c0-3.831 3.104-6.934 6.935-6.934h62.623c3.831 0 6.938 3.103 6.938 6.934z" fill="#c55732"/><path d="m181.913 107.802v17.787c0 3.831-3.107 6.938-6.938 6.938h-31.517v-31.659h31.517c3.831 0 6.938 3.103 6.938 6.934z" fill="#a63917"/></g><g><path d="m440.46 433.5c-35.1 36.48-80.93 62.57-132.4 73.2-16.81 3.47-34.22 5.3-52.06 5.3s-35.25-1.83-52.06-5.3c-51.47-10.63-97.3-36.72-132.4-73.2z" fill="#ff6477"/><path d="m440.46 433.5c-46.57 48.39-112 78.5-184.46 78.5v-78.5z" fill="#fe3345"/></g><path d="m308.06 354.18v79.32h-52.06v-131.37c28.75 0 52.06 23.31 52.06 52.05z" fill="#a63917"/><path d="m296.09 242.41c-.68-21.01-17.74-38.07-38.76-38.76-.45-.01-.89-.02-1.33-.02v80.23c22.56 0 40.83-18.73 40.09-41.45zm-14.03 12.43c-2.87 6.71-8.25 12.1-14.96 14.97-2.47 1.05-5.21-.77-5.21-3.45v-12.98c0-2.07 1.68-3.74 3.75-3.74h12.97c2.68 0 4.51 2.74 3.45 5.2zm-3.45-16.99h-12.97c-2.07 0-3.75-1.67-3.75-3.74v-12.98c0-2.68 2.74-4.5 5.21-3.45 6.71 2.87 12.09 8.26 14.96 14.97 1.06 2.46-.77 5.2-3.45 5.2z" fill="#a63917"/><path d="m256 115.95v42.35c-2.44 0-4.89 1.38-5.85 4.13-.02.04-.03.08-.04.11-1.51 4.38-4.01 8.5-7.51 12s-7.61 6-12 7.51c-7.65 2.63-13.62 8.61-16.26 16.26-1.51 4.38-4.01 8.5-7.51 12-3.5 3.49-7.61 6-11.99 7.51-7.65 2.63-13.63 8.61-16.27 16.26-1.5 4.38-4.01 8.49-7.51 11.99-3.49 3.5-7.61 6-11.99 7.51-7.65 2.64-13.63 8.61-16.26 16.26-1.51 4.39-4.01 8.5-7.51 12-12.41 12.41-32.6 12.3-44.88-.32z" fill="#d3edf7"/><path d="m421.57 281.52c-12.27 12.62-32.46 12.73-44.87.32-3.5-3.5-6-7.61-7.51-12-2.63-7.65-8.61-13.62-16.26-16.26-4.38-1.51-8.5-4.01-11.99-7.51-3.5-3.5-6.01-7.61-7.51-11.99-2.64-7.65-8.62-13.63-16.27-16.26-4.38-1.51-8.49-4.02-11.99-7.51-3.5-3.5-6-7.62-7.51-12-2.64-7.65-8.61-13.63-16.26-16.26-4.38-1.51-8.5-4.01-12-7.51s-6-7.62-7.51-12c-.01-.03-.02-.07-.04-.11-.96-2.75-3.41-4.13-5.85-4.13v-42.35z" fill="#bae4f1"/><path d="m308.06 433.5v73.2c-16.81 3.47-34.22 5.3-52.06 5.3s-35.25-1.83-52.06-5.3v-73.2z" fill="#ffe400"/><path d="m308.06 433.5v73.2c-16.81 3.47-34.22 5.3-52.06 5.3v-78.5z" fill="#ffc300"/></g></g></g></svg>