<svg id="Capa_1" enable-background="new 0 0 512.003 512.003" height="512" viewBox="0 0 512.003 512.003" width="512" xmlns="http://www.w3.org/2000/svg"><g><g><path d="m512 255.171c.01 2.11-.01 4.21-.06 6.31v.05l-3.92 39.67c-3.84 21.52-10.36 42.1-19.21 61.4l-.03.05-20.93 37.09c-22.03 32.42-51.31 59.51-85.51 78.95-22.9 8.91-46.49 15.81-70.49 20.67s-48.42 7.67-72.99 8.38l-25.42.73c-121.12-20.26-213.44-125.589-213.44-252.47 0-141.22 114.35-255.73 255.51-256 140.79-.27 256.04 114.38 256.49 255.17z" fill="#65b2fe"/><path d="m512 256.001c0 1.83-.02 3.66-.06 5.48v.04l-3.91 39.62-.01.06c-3.83 21.51-10.36 42.1-19.21 61.4l-21 37.21-.01.02c-17.68 25.98-40.01 48.54-65.8 66.48-6.35 4.42-12.91 8.55-19.66 12.39h-.01c-45.83 17.81-94.37 27.63-143.51 29.04l-25.38.73.01.01c-37.97-6.35-73.1-21.06-103.45-42.17-66.48-46.24-110-123.2-110-210.31 0-46.22 12.25-89.57 33.68-127 44.12 77.07 127.16 129 222.32 129s178.21-51.93 222.32-129c21.43 37.43 33.68 80.78 33.68 127z" fill="#159de4"/></g><g><g><g><path d="m382.34 478.691c-21.36 12.15-44.63 21.31-69.26 26.92-13.3 3.03-26.99 5.02-40.99 5.89-5.32.33-10.69.5-16.09.5-14.5 0-28.72-1.21-42.56-3.53-.37-.31-.74-.64-1.08-.98-2.79-2.78-4.51-6.63-4.51-10.88 0-8.5 6.89-15.39 15.39-15.39h1.64c39.62 0 71.74-32.11 71.74-71.74v-52.86h32.92v52.86c0 33.07 22.37 60.91 52.8 69.21z" fill="#fed110"/><path d="m382.34 478.691c-21.36 12.15-44.63 21.31-69.26 26.92-13.3 3.03-26.99 5.02-40.99 5.89-2.3-.63-3.62-1.88-4.69-4.01-1.35-2.68-.81-6.63-.81-10.88 0-5.44 2.75-8.1 5.51-10.88 2.43-2.46 5.56-4.03 8.88-4.99 14.34-4.13 25.48-34.45 25.48-71.26v-52.86h23.08v52.86c0 33.07 22.37 60.91 52.8 69.21z" fill="#ff9f00"/><path d="m382.34 478.691c-21.36 12.15-44.63 21.31-69.26 26.92v-148.99h16.46v52.86c0 33.07 22.37 60.91 52.8 69.21z" fill="#ec781b"/><path d="m401.16 328.391c23.9-19.42 52.74-31.12 83.42-33.84 1.04-.09 2.08-.14 3.11-.14 7.61 0 14.65 2.53 20.33 6.79 2.31-12.93 3.64-26.2 3.92-39.72-7.59-2.77-15.76-4.27-24.25-4.27-2.11 0-4.24.09-6.39.28-38.82 3.43-74.65 18.49-103.6 42.02-28.96 23.53-51.03 55.51-62.34 92.81l-2.28 7.51h154.72c7.99-11.74 15.03-24.19 21.01-37.23-.4.01-.81.02-1.22.02h-117.57c8.52-12.82 18.98-24.36 31.14-34.23z" fill="#fed110"/><path d="m401.16 328.391c23.9-19.42 52.74-31.12 83.42-33.84 1.04-.09 2.08-.14 3.11-.14 7.61 0 14.65 2.53 20.33 6.79 1.11-6.21 1.99-12.5 2.64-18.86-6.92-3.47-14.72-5.43-22.97-5.43-1.54 0-3.11.07-4.65.21-34.17 3.02-66.3 16.05-92.92 37.68-13.47 10.95-25.13 23.78-34.68 38.14l-18.06 27.18h142.56c3.17-5.71 6.13-11.55 8.87-17.52-.4.01-.81.02-1.22.02h-117.57c8.52-12.82 18.98-24.36 31.14-34.23z" fill="#ff9f00"/><path d="m313.08 320.882v78.95h-106.9c-100.15 0-181.33-81.19-181.33-181.33h51.42v18.48c0 46.34 37.56 83.9 83.9 83.9z" fill="#ff9f00"/><path d="m313.08 320.882v41.74h-132.35c-72.15 0-130.64-58.49-130.64-130.65v-13.47h26.18v18.48c0 46.34 37.56 83.9 83.9 83.9z" fill="#fed110"/><path d="m336.4 161.031c-5.95 13.08-9.03 27.28-9.03 41.65v36.71h-28.58v-36.71c0-14.37-3.08-28.57-9.03-41.65z" fill="#ffe400"/><path d="m336.4 161.031c-5.95 13.08-9.03 27.28-9.03 41.65v36.71h-14.29v-78.36z" fill="#fed110"/><path d="m345.99 170.691c0 2.67-1.08 5.09-2.83 6.83-1.74 1.75-4.16 2.83-6.83 2.83h-46.5c-5.33 0-9.66-4.32-9.66-9.66 0-2.67 1.08-5.09 2.83-6.83 1.75-1.75 4.16-2.83 6.83-2.83h46.5c5.34 0 9.66 4.32 9.66 9.66z" fill="#ffc300"/><path d="m413.582 298.931c0 55.72-33.512 100.89-100.502 100.89s-121.29-45.17-121.29-100.89c0-.69 0-1.37.02-2.05.32-13.27 3.89-25.71 9.95-36.6 13.89-24.98 40.81-41.78 71.29-41.78h80.06c30.48 0 57.41 16.8 71.29 41.78 6.05 10.89-6.601 23.32-6.291 36.6.02.681-4.527 1.36-4.527 2.05z" fill="#ffe400"/><path d="m429.38 298.931c0 55.72-49.31 100.89-116.3 100.89-31.44 0-56.93-45.17-56.93-100.89 0-.69 0-1.37.01-2.05.15-13.27 1.83-25.71 4.67-36.6 6.52-24.98 19.16-41.78 33.46-41.78h58.82c30.48 0 57.41 16.8 71.29 41.78 6.05 10.89 4.64 23.32 4.95 36.6.02.681.03 1.36.03 2.05z" fill="#fed110"/><path d="m434.38 298.931c0 55.72-54.31 100.89-121.3 100.89v-181.32h40.03c30.48 0 57.41 16.8 71.29 41.78 6.05 10.89 9.64 23.32 9.95 36.6.02.681.03 1.36.03 2.05z" fill="#ff9f00"/><path d="m424.4 260.281h-222.64c13.89-24.98 40.81-41.78 71.29-41.78h80.06c30.48 0 57.41 16.8 71.29 41.78z" fill="#fed110"/><path d="m424.4 260.281h-163.57c6.52-24.98 19.16-41.78 33.46-41.78h58.82c30.48 0 57.41 16.8 71.29 41.78z" fill="#ff9f00"/><path d="m355.39 428.021c0 3.87-1.57 7.38-4.11 9.91-2.54 2.54-6.04 4.11-9.92 4.11h-56.2c-7.74 0-14.02-6.28-14.02-14.02 0-3.87 1.57-7.38 4.11-9.91 2.53-2.54 6.04-4.11 9.91-4.11h56.2c7.75 0 14.03 6.28 14.03 14.02z" fill="#ffc300"/></g><path d="m424.4 260.281h-111.32v-41.78h40.03c30.48 0 57.41 16.8 71.29 41.78z" fill="#ec781b"/><path d="m345.99 170.691c0 2.67-1.08 5.09-2.83 6.83-1.74 1.75-4.16 2.83-6.83 2.83h-23.25v-19.32h23.25c5.34 0 9.66 4.32 9.66 9.66z" fill="#ff9f00"/><path d="m90.899 222.311c0 3.311-1.339 6.312-3.509 8.469-2.158 2.17-5.158 3.509-8.469 3.509h-57.661c-6.609 0-11.979-5.357-11.979-11.979 0-3.311 1.339-6.312 3.509-8.469 2.17-2.17 5.158-3.509 8.469-3.509h57.66c6.623.001 11.98 5.358 11.98 11.979z" fill="#fed110"/><path d="m90.899 222.311c0 3.311-1.339 6.312-3.509 8.469-2.158 2.17-5.158 3.509-8.469 3.509h-28.831v-23.957h28.83c6.622.001 11.979 5.358 11.979 11.979z" fill="#ffe400"/><path d="m355.39 428.021c0 3.87-1.57 7.38-4.11 9.91-2.54 2.54-6.04 4.11-9.92 4.11h-28.28v-28.04h28.28c7.75 0 14.03 6.28 14.03 14.02z" fill="#ff9f00"/></g><path d="m177.402 74.537 11.361 2.444c9.462 2.035 15.483 11.356 13.448 20.819-4.413 20.518-24.624 33.573-45.142 29.159-9.972-2.145-19.796 4.2-21.941 14.173-3.735 17.363-20.839 28.412-38.202 24.677-15.448-3.323-31.338 3.268-39.899 16.548-2.267 3.517-7.721 1.261-6.841-2.83l3.249-15.106c3.363-15.637 15.909-26.936 30.77-29.461 9.048-1.538 16.228-8.468 18.158-17.441l2.941-13.674c2.145-9.972 11.968-16.318 21.941-14.173 8.742 1.881 17.401-.994 23.282-6.884 7.071-7.082 17.092-10.356 26.875-8.251z" fill="#fff"/><g><g><path d="m304.642 71.493h1.524c6.753 0 12.227 5.474 12.227 12.227v1.524h8.716v-1.524c0-6.753 5.474-12.227 12.227-12.227h1.525v-8.716h-1.525c-6.753 0-12.227-5.474-12.227-12.227v-1.525h-8.716v1.525c0 6.753-5.474 12.227-12.227 12.227h-1.524z" fill="#fff"/></g></g><g><g><path d="m153.646 208.589h1.524c6.753 0 12.227 5.474 12.227 12.227v1.524h8.716v-1.524c0-6.753 5.474-12.227 12.227-12.227h1.525v-8.716h-1.525c-6.753 0-12.227-5.474-12.227-12.227v-1.525h-8.716v1.525c0 6.753-5.474 12.227-12.227 12.227h-1.524z" fill="#fff"/></g></g><g><g><path d="m137.062 442.041h1.524c6.753 0 12.227 5.474 12.227 12.227v1.524h8.716v-1.524c0-6.753 5.474-12.227 12.227-12.227h1.525v-8.716h-1.525c-6.753 0-12.227-5.474-12.227-12.227v-1.525h-8.716v1.525c0 6.753-5.474 12.227-12.227 12.227h-1.524z" fill="#fff"/></g></g><g><g><path d="m442.603 202.811h1.524c6.753 0 12.227 5.474 12.227 12.227v1.524h8.716v-1.524c0-6.753 5.474-12.227 12.227-12.227h1.525v-8.716h-1.525c-6.753 0-12.227-5.474-12.227-12.227v-1.525h-8.716v1.525c0 6.753-5.474 12.227-12.227 12.227h-1.524z" fill="#fff"/></g></g></g></g></svg>