<svg id="Capa_1" enable-background="new 0 0 512 512" height="512" viewBox="0 0 512 512" width="512" xmlns="http://www.w3.org/2000/svg"><g><g><path d="m511.978 252.628c1.83 141.791-112.979 258.719-254.781 259.369-12.933.059-25.644-.842-38.068-2.637l-27.967-15.092c-68.848-37.153-126.612-91.902-167.399-158.662l-19.243-31.496-.01-.01c-2.96-15.58-4.51-31.66-4.51-48.1 0-141.024 115.165-256.102 256.189-256 140.168.101 253.985 112.865 255.789 252.628z" fill="#9e68e0"/><path d="m512 256c0 87.11-43.52 164.07-110 210.31-41.41 28.8-91.73 45.69-146 45.69-12.52 0-24.83-.9-36.87-2.64l-27.971-15.094c-68.846-37.152-126.608-91.897-167.396-158.654l-19.253-31.512c-2.96-15.58-4.51-31.66-4.51-48.1 0-46.22 12.25-89.57 33.68-127 44.12 77.07 127.16 129 222.32 129s178.21-51.93 222.32-129c21.43 37.43 33.68 80.78 33.68 127z" fill="#8e4dd3"/></g><g><path d="m245.572 200.214 67.451-87.46v20.01c0 37.251-30.199 67.45-67.451 67.45z" fill="#8fc8f5"/><g><path d="m284.67 162.63-22 34.55-143.935 197.297c-20.037 27.466-61.613 26.263-79.692-2.529-16.594-26.426-28.494-56.098-34.533-87.848l43.4-43.4c1.87-1.87 3.75-3.71 5.66-5.52 62.2-59.34 144.94-92.55 231.1-92.55z" fill="#ffe400"/><path d="m262.67 197.18-143.938 197.3c-20.019 27.441-61.581 26.292-79.652-2.469-7.877-12.537-14.695-25.805-20.331-39.681l61.54-61.54c1.87-1.87 3.75-3.7 5.65-5.51 48.961-46.71 110.661-77.24 176.731-88.1z" fill="#ffc300"/></g><g><g><path d="m346.907 212.923-42.279-42.279 24.821-15.961 24.826-15.955 24.825-15.965 24.821-15.961 7.499-4.817c1.076-.694 2.462-.193 3.4.746.944.944 1.445 2.33.751 3.405l-7.305 11.359-19.188 29.843-19.184 29.839-19.184 29.839z" fill="#ffe400"/><g fill="#ffc300"><path d="m350.709 207.017-11.605-28.57-9.655-23.763 24.826-15.956 7.09 17.458 8.528 20.992z"/><path d="m389.077 147.339-5.447-13.418-4.531-11.157 24.821-15.961 1.974 4.854 2.371 5.839z"/></g></g><path d="m346.907 212.923-21.139-21.139 89.051-89.051c.944.944 1.445 2.33.751 3.405l-7.305 11.359-19.188 29.843-19.184 29.839-19.184 29.839z" fill="#ffc300"/><g fill="#ff9f00"><path d="m389.077 147.339-5.447-13.418 22.264-22.264 2.371 5.839z"/><path d="m350.709 207.017-11.605-28.57 22.261-22.261 8.528 20.992z"/></g></g><path d="m456.87 272.01v16.15c0 2.35-.96 4.48-2.5 6.02s-3.68 2.5-6.01 2.5h-25.2c-1.59 0-3.04.64-4.08 1.68-1.15 1.13-1.8 2.74-1.68 4.5.21 3.05 2.87 5.36 5.93 5.36h18.16c3.83 0 5.55 4.77 2.62 7.25-.01.01-.01.02-.02.02-6.18 5.16-14.12 8.27-22.8 8.27h-112.61c-10.57 0-19.99 6.6-23.6 16.53-11.05 30.36-38.75 107.96-65.95 169.07-52.35-7.55-99.58-30.95-136.67-65.16-17.25-15.92-32.31-34.17-44.66-54.27 34.24-20.47 64.97-47.11 90.44-79.08l88.14-110.58 3.11-3.9c14.45-20.41 38.26-33.74 65.18-33.74 30 0 52.15 19.22 69.76 41.01 11.77 14.58 24.05 25.82 42.11 35.21 6.3 3.28 12.81 6.24 19.22 8.85.14.05.28.11.42.17 10.56 4.27 20.89 7.63 29.68 9.89 6.49 1.69 11.01 7.54 11.01 14.25z" fill="#fff"/><path d="m456.87 272.01v16.15c0 2.35-.96 4.48-2.5 6.02s-3.68 2.5-6.01 2.5h-25.2c-1.59 0-3.04.64-4.08 1.68-1.15 1.13-1.8 2.74-1.68 4.5.21 3.05 2.87 5.36 5.93 5.36h18.16c3.83 0 5.55 4.77 2.62 7.25-.01.01-.01.02-.02.02-6.18 5.16-14.12 8.27-22.8 8.27h-112.61c-10.57 0-19.99 6.6-23.6 16.53-11.05 30.36-38.75 107.96-65.95 169.07-.92-.13-1.84-.27-2.75-.42v-308.67l3.11-3.9c14.45-20.41 38.26-33.74 65.18-33.74 30 0 52.15 19.22 69.76 41.01 11.77 14.58 24.05 25.82 42.11 35.21 6.3 3.28 12.81 6.24 19.22 8.85.14.05.28.11.42.17 10.56 4.27 20.89 7.63 29.68 9.89 6.49 1.69 11.01 7.54 11.01 14.25z" fill="#d1f6ff"/><path d="m456.877 272.001v16.165c0 2.342-.96 4.467-2.505 6.007-1.545 1.546-3.676 2.5-6.012 2.5h-25.2c-1.598 0-3.038.649-4.082 1.693-1.139 1.134-1.798 2.732-1.677 4.488.206 3.054 2.869 5.364 5.933 5.364h18.148c3.84 0 5.554 4.773 2.637 7.247-.011.011-.016.021-.026.026-6.176 5.163-14.124 8.265-22.805 8.265h-2.062c-24.424 0-41.84-23.697-34.54-47.003l5.126-16.392c3.423-10.912 15.321-16.698 25.954-12.658.137.053.274.111.411.163 10.564 4.283 20.891 7.626 29.683 9.9 6.486 1.683 11.017 7.537 11.017 14.235z" fill="#8fc8f5"/><path d="m219.493 197.254 67.451-87.46v20.009c0 37.252-30.199 67.451-67.451 67.451z" fill="#d1f6ff"/><path d="m436.168 264.714c-5.312-2.573-10.58-1.693-14.293 1.127-5.098 3.872-12.259 3.435-16.822-1.056-.991-.975-1.624-1.599-1.624-1.599 0 14.434 11.701 26.135 26.135 26.135h.208c9.273 0 16.29-9.659 11.54-19.464-.92-1.899-3.245-4.224-5.144-5.143z" fill="#0e9ce7"/><path d="m356.905 234.645c-5.688 4.642-13.803 5.786-20.781 2.255-6.978-3.53-10.864-10.746-10.494-18.079 5.688-4.642 13.803-5.785 20.781-2.255 6.978 3.531 10.864 10.746 10.494 18.079z" fill="#323b5a"/><path d="" fill="#fff"/></g></g></svg>