<svg id="Capa_1" enable-background="new 0 0 512 512" height="512" viewBox="0 0 512 512" width="512" xmlns="http://www.w3.org/2000/svg"><g><g><path d="m512 256.361c-.119 86.432-43.071 162.823-108.77 209.089h-.01l-22.029 6.965c-81.473 25.761-168.91 25.761-250.382 0l-22.029-6.965h-.01c-65.79-46.33-108.77-122.87-108.77-209.45 0-141.38 114.619-255.999 255.999-256 141.172 0 256.196 115.189 256.001 256.361z" fill="#b6e337"/><path d="m512 256c0 86.58-42.99 163.13-108.79 209.46l-22.036 6.966c-81.462 25.754-168.886 25.754-250.349 0l-22.036-6.966c-65.799-46.33-108.789-122.88-108.789-209.46 0-46.22 12.25-89.57 33.68-127 44.12 77.07 127.16 129 222.32 129s178.21-51.93 222.32-129c21.43 37.43 33.68 80.78 33.68 127z" fill="#6cdc2d"/></g><g><path d="m403.83 226.63v32.29c0 26.78-5.82 53.7-16.84 77.84-8.38 18.38-19.59 35.03-33.32 49.46l-12.63 13.31h-170.08l-12.65-13.32c-13.67-14.38-24.85-30.96-33.22-49.28-1.3-2.81-2.57-5.8-3.87-9.06-8.66-22.01-13.05-45.19-13.05-68.95v-32.29c0-85.84 66.19-155.42 147.83-155.42h.01c81.64.01 147.82 69.58 147.82 155.42z" fill="#fe3345"/><path d="m403.83 226.63v32.29c0 26.78-5.82 53.7-16.84 77.84-8.38 18.38-19.59 35.03-33.32 49.46l-12.63 13.31h-85.03v-328.32c81.64.01 147.82 69.58 147.82 155.42z" fill="#de1263"/><g><g><g><path d="m403.23 465.45c-30.44 21.44-65.77 36.41-103.98 42.9-14.06 2.4-28.51 3.65-43.25 3.65-54.8 0-105.58-17.23-147.23-46.55 8.39-48.03 39.72-88.18 82.28-108.76 8.49-4.1 17.42-7.43 26.71-9.87 12.2-3.22 25.02-4.94 38.24-4.94 23.28 0 45.31 5.32 64.95 14.81 15.19 7.34 28.94 17.17 40.74 28.97 21.26 21.27 36.14 48.9 41.54 79.79z" fill="#fff"/><path d="m403.23 465.45c-30.44 21.44-65.77 36.41-103.98 42.9-14.06 2.4-28.51 3.65-43.25 3.65v-170.12c23.28 0 45.31 5.32 64.95 14.81 15.19 7.34 28.94 17.17 40.74 28.97 21.26 21.27 36.14 48.9 41.54 79.79z" fill="#d1f6ff"/><g><g><g><g><g><g><g><g><g><g><g><g><g><g><g><g><g><path d="m385.92 258.92c0 23.35-5.28 46.15-15.19 66.81-7.48 15.61-17.6 29.99-30.07 42.46l-5.83 5.84h-157.66l-5.83-5.84c-12.43-12.43-22.52-26.75-29.99-42.3-1.25-2.58-2.41-5.19-3.51-7.83-7.69-18.57-11.76-38.64-11.76-59.14 0-17.77 3.57-34.72 10.03-50.14 19.62-46.86 65.91-79.78 119.89-79.78 35.88 0 68.36 14.54 91.87 38.05 11.9 11.9 21.5 26.09 28.08 41.87 6.42 15.39 9.97 32.28 9.97 50z" fill="#bc0e5c"/><path d="m350.82 250.91v5.96c0 8.29 1 16.52 2.96 24.51s4.88 15.75 8.71 23.1c.04.07.07.14.11.2 6.49 12.54 5.5 27.66-2.29 39.44-5.68 8.6-12.25 16.67-19.65 24.07h-169.32c-7.57-7.57-14.27-15.84-20.04-24.66-7.56-11.55-8.27-26.21-1.96-38.48.06-.13.13-.26.2-.39 7.66-14.78 11.76-31.14 11.76-47.79v-5.96h-25.19v-42.13c19.62-46.86 65.91-79.78 119.89-79.78h.01c35.88 0 68.35 14.54 91.86 38.05 11.9 11.9 21.5 26.09 28.08 41.87v41.99z" fill="#c55732"/><path d="m350.82 250.91v5.96c0 8.29 1 16.52 2.96 24.51s4.88 15.75 8.71 23.1c.04.07.07.14.11.2 6.49 12.54 5.5 27.66-2.29 39.44-5.68 8.6-12.25 16.67-19.65 24.07h-84.65v-239.19c35.88 0 68.35 14.54 91.86 38.05 11.9 11.9 21.5 26.09 28.08 41.87v41.99z" fill="#a63917"/><g><path d="m321.02 359.69c0 35.91-29.1 65.01-65.01 65.02h-.01c-35.91 0-65.02-29.11-65.02-65.02 0-1 .02-2 .07-3 19.64-9.49 41.67-14.81 64.95-14.81h.01c23.28 0 45.3 5.32 64.94 14.81.05 1 .07 2 .07 3z" fill="#ffc0a4"/><path d="m321.02 359.69c0 35.91-29.1 65.01-65.01 65.02v-82.83c23.28 0 45.3 5.32 64.94 14.81.05 1 .07 2 .07 3z" fill="#ffa87a"/><path d="m294.27 311.608v48.755c0 20.445-15.913 37.742-36.341 38.559-.637.025-1.276.038-1.918.038h-.011c-.632 0-1.263-.013-1.891-.037-20.431-.806-36.346-18.112-36.346-38.559v-48.756z" fill="#ffa87a"/><path d="m294.27 311.608v48.755c0 20.445-15.913 37.742-36.341 38.559-.637.025-1.276.038-1.918.038v-87.353h38.259z" fill="#e3835a"/></g><g><path d="m168.636 239.24c-6.836-6.9-12.155-15.068-16.439-23.784-3.478-7.078-10.768-11.943-19.188-11.921-14.036 0-25.755 11.132-25.998 25.165-.459 26.544 20.92 48.206 47.359 48.206h17.084v-34.822z" fill="#ffa87a"/></g><g><path d="m343.404 239.24c6.836-6.9 12.155-15.068 16.439-23.784 3.478-7.078 10.768-11.943 19.188-11.921 14.036 0 25.755 11.132 25.998 25.165.459 26.544-20.92 48.206-47.359 48.206h-17.084v-34.822z" fill="#e3835a"/></g><g><g><path d="m308.285 203.535c27.275 0 49.385 22.11 49.385 49.385 0 56.11-45.5 101.64-101.64 101.65h-.02c-56.134 0-101.64-45.506-101.64-101.64v-.01c0-27.275 22.11-49.385 49.385-49.385h1.445c28.07 0 50.83-22.76 50.83-50.83 0 28.07 22.76 50.83 50.83 50.83z" fill="#ffc0a4"/></g><path d="m308.285 203.535c27.275 0 49.385 22.11 49.385 49.385 0 56.11-45.5 101.64-101.64 101.65v-201.865c0 28.07 22.76 50.83 50.83 50.83z" fill="#ffa87a"/></g></g></g></g></g></g></g></g></g></g></g></g></g></g></g></g></g></g><g><g fill="#323b5a"><path d="m236.628 257.796c0 6.911-5.603 12.514-12.514 12.514s-12.514-5.603-12.514-12.514 5.603-12.514 12.514-12.514c6.912 0 12.514 5.603 12.514 12.514z"/><path d="m300.399 257.796c0 6.911-5.603 12.514-12.514 12.514s-12.514-5.603-12.514-12.514 5.603-12.514 12.514-12.514c6.912 0 12.514 5.603 12.514 12.514z"/></g><path d="m285.933 308.746c8.845 0 13.555 10.613 7.471 17.034-3.812 4.024-8.266 7.432-13.196 10.059-7.212 3.863-15.453 6.046-24.208 6.046s-16.996-2.182-24.208-6.046c-4.931-2.627-9.384-6.034-13.196-10.059-6.083-6.421-1.374-17.034 7.471-17.034z" fill="#323b5a"/><path d="m280.208 335.839c-7.212 3.863-15.453 6.046-24.208 6.046s-16.996-2.182-24.208-6.046c6.021-6.522 14.637-10.611 24.208-10.611 9.57 0 18.187 4.089 24.208 10.611z" fill="#e32644"/></g><path d="m256 287.583c-4.265 0-7.723-3.458-7.723-7.723v-33.155c0-4.265 3.458-7.723 7.723-7.723 4.266 0 7.723 3.458 7.723 7.723v33.155c0 4.266-3.458 7.723-7.723 7.723z" fill="#e3835a"/><g fill="#c55732"><path d="m241.718 232.706c-2.9-6.857-9.69-11.668-17.603-11.668s-14.703 4.811-17.603 11.668z"/><path d="m305.489 232.706c-2.9-6.857-9.69-11.668-17.603-11.668s-14.703 4.811-17.603 11.668z"/></g></g><path d="m280.194 335.842c-7.209 3.861-15.444 6.042-24.192 6.042v-16.657c9.564.001 18.173 4.095 24.192 10.615z" fill="#bc0e5c"/></g></g><path d="m212.75 508.36c-38.21-6.5-73.53-21.48-103.98-42.91 8.39-48.03 39.72-88.18 82.28-108.76z" fill="#fe3345"/><path d="m403.23 465.45c-30.44 21.44-65.77 36.41-103.98 42.9l21.7-151.66c42.56 20.58 73.89 60.73 82.28 108.76z" fill="#de1263"/><g><g><path d="m327.74 389.84v3.73c0 19.16-7.46 37.18-21.01 50.73s-31.56 21.01-50.73 21.01c-39.55 0-71.73-32.18-71.73-71.73v-3.74c0-4.97 4.03-9 9-9s9 4.03 9 9v3.74c0 29.63 24.1 53.73 53.73 53.73 14.36 0 27.85-5.59 38-15.74s15.74-23.64 15.74-38v-3.73c0-4.97 4.03-9 9-9s9 4.03 9 9z" fill="#de1263"/><path d="m318.74 380.84v12.73c0 17.33-7.02 33.01-18.37 44.36-11.35 11.36-27.04 18.38-44.37 18.38-34.64 0-62.73-28.08-62.73-62.73v-12.74c4.97 0 9 4.03 9 9v3.74c0 29.63 24.1 53.73 53.73 53.73 14.36 0 27.85-5.59 38-15.74s15.74-23.64 15.74-38v-3.73c0-4.97 4.03-9 9-9z" fill="#bc0e5c"/><ellipse cx="318.74" cy="389.839" fill="#ffe400" rx="21.649" ry="21.649" transform="matrix(.159 -.987 .987 .159 -116.847 642.491)"/><path d="m318.74 368.19v43.297c11.956 0 21.649-9.693 21.649-21.649s-9.693-21.648-21.649-21.648z" fill="#ffc300"/><path d="m329.171 389.833c0 5.767-4.671 10.438-10.423 10.438-5.767 0-10.438-4.671-10.438-10.438 0-5.752 4.671-10.423 10.438-10.423 5.752 0 10.423 4.671 10.423 10.423z" fill="#ffc300"/><path d="m329.171 389.833c0 5.767-4.671 10.438-10.423 10.438v-20.861c5.752 0 10.423 4.671 10.423 10.423z" fill="#ff9f00"/></g></g><g><ellipse cx="193.26" cy="389.839" fill="#ffe400" rx="21.649" ry="21.649" transform="matrix(.159 -.987 .987 .159 -222.362 518.609)"/><path d="m193.26 368.19v43.297c11.956 0 21.649-9.693 21.649-21.649-.001-11.956-9.693-21.648-21.649-21.648z" fill="#ffc300"/><path d="m203.69 389.833c0 5.767-4.671 10.438-10.423 10.438-5.767 0-10.438-4.671-10.438-10.438 0-5.752 4.671-10.423 10.438-10.423 5.752 0 10.423 4.671 10.423 10.423z" fill="#ffc300"/><path d="m203.69 389.833c0 5.767-4.671 10.438-10.423 10.438v-20.861c5.752 0 10.423 4.671 10.423 10.423z" fill="#ff9f00"/></g></g></g></svg>