<svg id="Capa_1" enable-background="new 0 0 512 512" height="512" viewBox="0 0 512 512" width="512" xmlns="http://www.w3.org/2000/svg"><g><g><path d="m511.989 253.613c.775 85.024-39.908 160.585-103.049 207.697l-.019.006c-99.291 32.909-206.55 32.909-305.842 0l-.019-.006c-62.55-46.67-103.06-121.26-103.06-205.31 0-141.273 114.447-255.827 255.68-256 140.166-.171 255.032 113.453 256.309 253.613z" fill="#65b2fe"/><path d="m512 256c0 84.04-40.51 158.63-103.06 205.31h-.01c-99.297 32.913-206.563 32.913-305.86 0h-.01c-62.55-46.68-103.06-121.27-103.06-205.31 0-46.22 12.25-89.57 33.68-127 44.12 77.07 127.16 129 222.32 129s178.21-51.93 222.32-129c21.43 37.43 33.68 80.78 33.68 127z" fill="#159de4"/></g><g><g><g><g><path d="m408.94 454.95v6.36c-26.88 20.06-57.84 34.96-91.41 43.24l-29.95 5.52-.06.01c-10.33 1.27-20.85 1.92-31.52 1.92-10.71 0-21.27-.66-31.64-1.94l-29.89-5.51c-33.57-8.27-64.53-23.18-91.41-43.24v-6.36c0-55.44 44.94-100.38 100.39-100.38h105.1c55.45 0 100.39 44.94 100.39 100.38z" fill="#fe3345"/><path d="m408.94 454.95v6.36c-26.88 20.06-57.84 34.96-91.41 43.24l-29.95 5.52-.06.01c-10.33 1.27-20.85 1.92-31.52 1.92v-157.43h52.55c55.45 0 100.39 44.94 100.39 100.38z" fill="#de1263"/><path d="m263.73 381.8v130.09c-2.57.07-5.14.11-7.73.11s-5.16-.04-7.73-.11v-130.09c0-4.27 3.46-7.72 7.73-7.72s7.73 3.45 7.73 7.72z" fill="#bc0e5c"/><path d="m205.977 372.882h-87.138c-8.589 9.115-15.736 19.605-21.048 31.112-1.576 3.413.954 7.311 4.714 7.311h67.747c19.731 0 35.726-15.995 35.726-35.726v-2.697z" fill="#ffe400"/><path d="m306.023 372.882h87.138c8.59 9.115 15.736 19.605 21.048 31.112 1.576 3.413-.954 7.311-4.714 7.311h-67.747c-19.731 0-35.726-15.995-35.726-35.726v-2.697z" fill="#ffc300"/><g><path d="m205.98 372.88c0 5.06-2.05 9.64-5.36 12.96-3.32 3.31-7.9 5.36-12.96 5.36h-65.59c-10.12 0-18.32-8.2-18.32-18.32 0-5.06 2.05-9.63 5.37-12.95 3.31-3.31 7.89-5.36 12.95-5.36h65.59c10.12 0 18.32 8.2 18.32 18.31z" fill="#ffc300"/><path d="m408.25 372.88c0 5.06-2.05 9.64-5.37 12.96-3.31 3.31-7.89 5.36-12.95 5.36h-65.59c-10.12 0-18.32-8.2-18.32-18.32 0-5.06 2.05-9.63 5.36-12.95 3.32-3.31 7.9-5.36 12.96-5.36h65.59c10.12 0 18.32 8.2 18.32 18.31z" fill="#ff9f00"/></g><g><path d="m204.716 419.671c0-4.265 3.458-7.723 7.723-7.723h87.124c4.265 0 7.723 3.458 7.723 7.723 0 4.266-3.458 7.723-7.723 7.723h-87.124c-4.266 0-7.723-3.458-7.723-7.723z" fill="#bc0e5c"/><g><g><circle cx="210.309" cy="419.671" fill="#ffe400" r="15.94"/><path d="m210.309 403.732v31.879c8.803 0 15.94-7.137 15.94-15.94s-7.137-15.939-15.94-15.939z" fill="#ffc300"/><path d="m217.989 419.667c0 4.246-3.439 7.685-7.674 7.685-4.246 0-7.685-3.439-7.685-7.685 0-4.235 3.439-7.675 7.685-7.675 4.235 0 7.674 3.44 7.674 7.675z" fill="#ffc300"/><path d="m217.989 419.667c0 4.246-3.439 7.685-7.674 7.685v-15.36c4.235 0 7.674 3.44 7.674 7.675z" fill="#ff9f00"/></g><g><circle cx="301.691" cy="419.671" fill="#ffe400" r="15.94"/><path d="m301.691 403.732v31.879c8.803 0 15.94-7.137 15.94-15.94-.001-8.803-7.137-15.939-15.94-15.939z" fill="#ffc300"/><path d="m309.371 419.667c0 4.246-3.439 7.685-7.674 7.685-4.246 0-7.685-3.439-7.685-7.685 0-4.235 3.439-7.675 7.685-7.675 4.234 0 7.674 3.44 7.674 7.675z" fill="#ffc300"/><path d="m309.371 419.667c0 4.246-3.439 7.685-7.674 7.685v-15.36c4.234 0 7.674 3.44 7.674 7.675z" fill="#ff9f00"/></g></g></g><g><path d="m204.716 461.23c0-4.265 3.458-7.723 7.723-7.723h87.124c4.265 0 7.723 3.458 7.723 7.723 0 4.266-3.458 7.723-7.723 7.723h-87.124c-4.266 0-7.723-3.457-7.723-7.723z" fill="#bc0e5c"/><g><g><ellipse cx="210.309" cy="461.23" fill="#ffe400" rx="15.94" ry="15.94" transform="matrix(.707 -.707 .707 .707 -264.541 283.802)"/><path d="m210.309 445.291v31.879c8.803 0 15.94-7.136 15.94-15.94 0-8.803-7.137-15.939-15.94-15.939z" fill="#ffc300"/><path d="m217.989 461.226c0 4.246-3.439 7.685-7.674 7.685-4.246 0-7.685-3.439-7.685-7.685 0-4.235 3.439-7.675 7.685-7.675 4.235.001 7.674 3.44 7.674 7.675z" fill="#ffc300"/><path d="m217.989 461.226c0 4.246-3.439 7.685-7.674 7.685v-15.36c4.235.001 7.674 3.44 7.674 7.675z" fill="#ff9f00"/></g><g><ellipse cx="301.691" cy="461.23" fill="#ffe400" rx="15.94" ry="15.94" transform="matrix(.331 -.944 .944 .331 -233.403 593.234)"/><path d="m301.691 445.291v31.879c8.803 0 15.94-7.136 15.94-15.94-.001-8.803-7.137-15.939-15.94-15.939z" fill="#ffc300"/><path d="m309.371 461.226c0 4.246-3.439 7.685-7.674 7.685-4.246 0-7.685-3.439-7.685-7.685 0-4.235 3.439-7.675 7.685-7.675 4.234.001 7.674 3.44 7.674 7.675z" fill="#ffc300"/><path d="m309.371 461.226c0 4.246-3.439 7.685-7.674 7.685v-15.36c4.234.001 7.674 3.44 7.674 7.675z" fill="#ff9f00"/></g></g></g><g><path d="m307.28 502.79c0 1.42-.38 2.91-1.05 4.27-1.51.31-3.02.6-4.53.87h-.01c-1.61.29-3.22.57-4.84.82-3.09.51-6.2.95-9.33 1.33-7.83.96-15.76 1.57-23.79 1.81-2.57.07-5.14.11-7.73.11s-5.16-.04-7.73-.11c-8.03-.24-15.96-.85-23.79-1.81-3.13-.38-6.24-.82-9.33-1.33-1.62-.25-3.23-.53-4.84-.82-1.52-.27-3.03-.56-4.53-.86-.68-1.36-1.06-2.86-1.06-4.28 0-4.27 3.45-7.72 7.72-7.72h87.12c4.27 0 7.72 3.45 7.72 7.72z" fill="#bc0e5c"/><g><g><path d="m226.25 502.79c0 2.63-.64 5.11-1.77 7.29-10.2-1.25-20.22-3.11-30.01-5.53-.07-.58-.1-1.17-.1-1.76 0-8.8 7.14-15.94 15.94-15.94s15.94 7.14 15.94 15.94z" fill="#ffe400"/><path d="m226.25 502.79c0 2.63-.64 5.11-1.77 7.29-4.76-.58-9.49-1.3-14.17-2.15v-21.08c8.8 0 15.94 7.14 15.94 15.94z" fill="#ffc300"/><path d="m217.99 502.79c0 2.41-1.11 4.56-2.85 5.97-3.85-.62-7.68-1.32-11.47-2.11-.66-1.13-1.04-2.45-1.04-3.86 0-4.24 3.44-7.68 7.68-7.68s7.68 3.44 7.68 7.68z" fill="#ffc300"/><path d="m217.99 502.79c0 2.41-1.11 4.55-2.84 5.96-1.62-.25-3.23-.53-4.84-.82v-12.82c4.24 0 7.68 3.44 7.68 7.68z" fill="#ff9f00"/></g><g><path d="m317.63 502.79c0 .59-.03 1.18-.1 1.76-9.79 2.42-19.81 4.28-30.01 5.53-1.13-2.18-1.77-4.66-1.77-7.29 0-8.8 7.14-15.94 15.94-15.94s15.94 7.14 15.94 15.94z" fill="#ffe400"/><path d="m317.63 502.79c0 .59-.03 1.18-.1 1.76-5.22 1.29-10.5 2.42-15.84 3.38v-21.08c8.8 0 15.94 7.14 15.94 15.94z" fill="#ffc300"/><path d="m309.37 502.79c0 1.4-.37 2.71-1.03 3.84-2.2.47-4.42.9-6.64 1.3h-.01c-1.61.29-3.22.57-4.84.82-1.73-1.41-2.84-3.56-2.84-5.96 0-4.24 3.44-7.68 7.69-7.68 4.23 0 7.67 3.44 7.67 7.68z" fill="#ffc300"/><path d="m309.37 502.79c0 1.4-.37 2.71-1.03 3.84-2.2.47-4.42.9-6.64 1.3v-12.82c4.23 0 7.67 3.44 7.67 7.68z" fill="#ff9f00"/></g></g></g><g><path d="m294.27 308.031v48.755c0 20.445-15.912 37.742-36.341 38.559-.637.025-1.276.038-1.918.038h-.011c-.632 0-1.263-.013-1.891-.037-20.431-.806-36.346-18.112-36.346-38.559v-48.756z" fill="#ffe400"/><path d="m294.27 308.031v48.755c0 20.445-15.912 37.742-36.341 38.559-.637.025-1.276.038-1.918.038v-87.353h38.259z" fill="#ffc300"/></g><g><g><g><g><g><g><g><g><g><g><g><g><g><g><g><g><g><g><path d="m139.229 196.898c-14.362 0-26.005 11.643-26.005 26.005 0 26.16 21.206 47.366 47.366 47.366v-73.427z" fill="#ffa87a"/><path d="m372.771 196.898c14.362 0 26.005 11.643 26.005 26.005 0 26.16-21.207 47.366-47.366 47.366v-73.427z" fill="#e3835a"/></g><g><g><path d="m357.669 170.435v78.91c0 56.11-45.495 101.637-101.637 101.648h-.021c-56.131 0-101.637-45.506-101.637-101.637v-78.921z" fill="#ffc0a4"/></g><path d="m357.669 170.435v78.91c0 56.11-45.495 101.637-101.637 101.648v-180.558z" fill="#ffa87a"/></g></g></g></g></g></g></g></g></g></g></g></g></g></g></g></g></g></g><g><g fill="#323b5a"><path d="m236.628 254.219c0 6.911-5.603 12.514-12.514 12.514s-12.514-5.603-12.514-12.514 5.603-12.514 12.514-12.514c6.912 0 12.514 5.603 12.514 12.514z"/><path d="m300.399 254.219c0 6.911-5.603 12.514-12.514 12.514s-12.514-5.603-12.514-12.514 5.603-12.514 12.514-12.514c6.912 0 12.514 5.603 12.514 12.514z"/></g><path d="m285.933 305.169c8.845 0 13.555 10.613 7.471 17.034-3.812 4.024-8.266 7.432-13.196 10.059-7.212 3.863-15.453 6.046-24.208 6.046s-16.996-2.182-24.208-6.046c-4.931-2.627-9.384-6.035-13.196-10.059-6.083-6.421-1.374-17.034 7.471-17.034z" fill="#323b5a"/><path d="m280.208 332.262c-7.212 3.863-15.453 6.046-24.208 6.046s-16.996-2.182-24.208-6.046c6.021-6.522 14.637-10.611 24.208-10.611 9.57-.001 18.187 4.088 24.208 10.611z" fill="#e32644"/></g><path d="m256 284.006c-4.265 0-7.723-3.458-7.723-7.723v-33.155c0-4.265 3.458-7.723 7.723-7.723 4.266 0 7.723 3.458 7.723 7.723v33.155c0 4.265-3.458 7.723-7.723 7.723z" fill="#e3835a"/><g><path d="m241.718 229.169c-2.9-6.857-9.69-11.668-17.603-11.668s-14.703 4.811-17.603 11.668z" fill="#234177"/><path d="m305.489 229.169c-2.9-6.857-9.69-11.668-17.603-11.668s-14.703 4.811-17.603 11.668z" fill="#323b5a"/></g><g><path d="m192.958 170.435c0 10.61-4.215 20.784-11.716 28.286l-6.244 6.244c0 10.145-8.225 18.37-18.37 18.37h-2.255v-52.9z" fill="#234177"/><path d="m357.669 170.435v52.9h-2.297c-10.145 0-18.37-8.224-18.37-18.37l-6.244-6.244c-7.502-7.502-11.716-17.677-11.716-28.286z" fill="#323b5a"/></g></g><path d="m280.194 332.265c-7.209 3.861-15.444 6.042-24.192 6.042v-16.657c9.564 0 18.173 4.095 24.192 10.615z" fill="#bc0e5c"/><path d="m345.451 141.477c.817-.223 1.635-.478 2.431-.754-.796.287-1.603.541-2.431.754z" fill="#ffc300"/><path d="m172.514 142.613c-1.072-.106-2.123-.265-3.163-.478 1.04.202 2.091.361 3.163.478z" fill="#ffc300"/><path d="m365.598 104.388v75.429h-219.196v-75.429h7.781c0 12.451 10.095 22.535 22.535 22.535 12.451 0 22.535-10.084 22.535-22.535h7.781c0 12.451 10.095 22.535 22.535 22.535 12.451 0 22.535-10.084 22.535-22.535h7.791c0 12.451 10.084 22.535 22.535 22.535 12.441 0 22.535-10.084 22.535-22.535h7.781c0 12.451 10.084 22.535 22.535 22.535 12.441 0 22.535-10.084 22.535-22.535z" fill="#ffe400"/><path d="m365.598 104.388v75.429h-109.566v-75.429h3.864c0 12.451 10.084 22.535 22.535 22.535 12.441 0 22.535-10.084 22.535-22.535h7.781c0 12.451 10.084 22.535 22.535 22.535 12.441 0 22.535-10.084 22.535-22.535z" fill="#ffc300"/><g><g><path d="m320.208 154.28c0 5.83-4.7 10.54-10.53 10.56h-.03c-5.84 0-10.56-4.72-10.56-10.56 0-5.83 4.72-10.56 10.56-10.56h.03c5.83.02 10.53 4.74 10.53 10.56z" fill="#fe3345"/><path d="m320.208 154.28c0 5.83-4.7 10.54-10.53 10.56v-21.12c5.83.02 10.53 4.74 10.53 10.56z" fill="#de1263"/></g><g><path d="m212.912 154.28c0 5.83-4.7 10.54-10.53 10.56h-.03c-5.84 0-10.56-4.72-10.56-10.56 0-5.83 4.72-10.56 10.56-10.56h.03c5.83.02 10.53 4.74 10.53 10.56z" fill="#fe3345"/><path d="m212.912 154.28c0 5.83-4.7 10.54-10.53 10.56v-21.12c5.83.02 10.53 4.74 10.53 10.56z" fill="#de1263"/></g></g><path d="m146.402 170.435h219.197v26.409h-219.197z" fill="#ffc300"/><path d="m256.032 170.435h109.566v26.409h-109.566z" fill="#ff9f00"/><path d="m357.818 104.388c0 12.451-10.095 22.535-22.535 22.535-12.451 0-22.535-10.084-22.535-22.535h-7.781c0 12.451-10.095 22.535-22.535 22.535-12.451 0-22.535-10.084-22.535-22.535h-7.791c0 12.451-10.084 22.535-22.535 22.535-12.441 0-22.535-10.084-22.535-22.535h-7.781c0 12.451-10.084 22.535-22.535 22.535-12.441 0-22.535-10.084-22.535-22.535h-7.781v18.597c0 3.503 1.401 6.857 3.896 9.32 2.41 2.282 5.116 4.257 8.057 5.859 2.94 1.603 6.104 2.834 9.437 3.63.488.117.987.223 1.486.329.021 0 .043 0 .074.011 1.04.212 2.091.372 3.163.478 1.38.159 2.781.233 4.204.233 10.222 0 19.531-4.012 26.431-10.541 6.889 6.528 16.198 10.541 26.42 10.541 10.233 0 19.531-4.012 26.431-10.541l.032.032c6.9 6.507 16.177 10.509 26.399 10.509s19.531-4.012 26.42-10.541c6.9 6.528 16.209 10.541 26.431 10.541 3.068 0 6.061-.361 8.927-1.051.393-.096.786-.191 1.178-.297.021-.011.043-.011.064-.021.828-.212 1.635-.467 2.431-.754.042-.021.074-.032.106-.032.372-.138.733-.265 1.083-.403 4.734-1.826 9.023-4.564 12.632-7.982 1.253-1.231 2.218-2.685 2.887-4.267.658-1.592 1.008-3.301 1.008-5.053v-18.597z" fill="#ffc300"/><path d="m365.598 104.388v18.597c0 1.751-.35 3.46-1.008 5.053-.669 1.582-1.635 3.036-2.887 4.267-3.609 3.418-7.897 6.157-12.632 7.982-.35.138-.711.265-1.083.403-.032 0-.064.011-.106.032-.796.287-1.603.541-2.431.754-.021.011-.042.011-.064.021-.393.106-.785.202-1.178.297-2.866.69-5.859 1.051-8.927 1.051-10.222 0-19.531-4.012-26.431-10.541-6.889 6.528-16.198 10.541-26.42 10.541s-19.5-4.002-26.399-10.509v-27.949h3.864c0 12.451 10.084 22.535 22.535 22.535 12.441 0 22.535-10.084 22.535-22.535h7.781c0 12.451 10.084 22.535 22.535 22.535 12.441 0 22.535-10.084 22.535-22.535h7.781z" fill="#ff9f00"/></g><path d="m103.75 372.88h102.23c0 5.06-2.05 9.64-5.36 12.96-3.32 3.31-7.9 5.36-12.96 5.36h-65.59c-10.12 0-18.32-8.2-18.32-18.32z" fill="#ff9f00"/><path d="m408.25 372.88c0 5.06-2.05 9.64-5.37 12.96-3.31 3.31-7.89 5.36-12.95 5.36h-65.59c-10.12 0-18.32-8.2-18.32-18.32z" fill="#ec781b"/><g><path d="m266.56 154.28c0 5.83-4.7 10.54-10.53 10.56h-.03c-5.84 0-10.56-4.72-10.56-10.56 0-5.83 4.72-10.56 10.56-10.56h.03c5.83.02 10.53 4.74 10.53 10.56z" fill="#fe3345"/><path d="m266.56 154.28c0 5.83-4.7 10.54-10.53 10.56v-21.12c5.83.02 10.53 4.74 10.53 10.56z" fill="#de1263"/></g></g></g></g></svg>