<svg id="Capa_1" enable-background="new 0 0 512 512" height="512" viewBox="0 0 512 512" width="512" xmlns="http://www.w3.org/2000/svg"><g><g><path d="m511.976 252.457c1.068 78.964-33.628 149.859-88.916 197.523l-.01.01-8.596 3.232c-101.089 38.013-212.192 40.014-314.584 5.668h-.01c-60.73-46.81-99.86-120.28-99.86-202.89 0-141.18 114.286-255.676 255.4-255.999 140.698-.323 254.673 111.77 256.576 252.456z" fill="#4e689b"/><path d="m512 256c0 77.53-34.48 147.03-88.94 193.98l-.01.01-8.625 3.243c-101.077 38.006-212.165 40.007-314.545 5.667-60.74-46.81-99.88-120.29-99.88-202.9 0-46.22 12.25-89.57 33.68-127 44.12 77.07 127.16 129 222.32 129s178.21-51.93 222.32-129c21.43 37.43 33.68 80.78 33.68 127z" fill="#374c81"/></g><g><g><path d="m372.926 59.64c-.371 29.259-11.717 58.4-34.042 80.726s-51.467 33.671-80.726 34.042c.367-29.263 11.713-58.404 34.038-80.729s51.467-33.672 80.73-34.039z" fill="#6cdc2d"/><path d="m372.926 59.64c-.371 29.259-11.717 58.4-34.042 80.726s-51.467 33.671-80.726 34.042z" fill="#53af17"/></g><path d="m276.36 81.11c-6.1 36.3-9.47 76.26-9.47 118.22 0 16.27.51 32.23 1.49 47.8.37 5.9-4.32 10.87-10.22 10.87-5.91 0-10.6-4.97-10.23-10.87.98-15.57 1.5-31.53 1.5-47.8 0-41.96-3.38-81.92-9.47-118.22-.17-1.04-.26-2.06-.26-3.07 0-9.97 8.11-18.4 18.46-18.4 11.4 0 20.08 10.23 18.2 21.47z" fill="#c55732"/><path d="m276.36 81.11c-6.1 36.3-9.47 76.26-9.47 118.22 0 16.27.51 32.23 1.49 47.8.37 5.9-4.32 10.87-10.22 10.87v-198.36c11.4 0 20.08 10.23 18.2 21.47z" fill="#a63917"/><path d="m60.28 367.5c30.506-40.913 46.982-90.586 46.973-141.62l-.003-15.43 26.081 4.368c48.453 8.116 80.519 54.791 70.713 102.931-11.582 56.857-74.616 86.559-125.836 59.294z" fill="#fff"/><path d="m458.27 349.98c-.44 5.12-1.05 10.19-1.85 15.19-4.98 31.82-16.82 60.98-33.34 84.79l-.01.01-.01.01c-44.33 38.2-101.89 61.49-164.9 62.01-.72.01-1.44.01-2.16.01-13.81 0-27.36-1.09-40.57-3.2-43.04-6.85-82.5-24.43-115.57-49.91-12.59-15.95-22.96-34.79-30.31-55.56-4.05-11.42-7.18-23.42-9.27-35.83 4.08.62 15.709 13.436 19.969 13.436 45.69 0 110.288-33.795 110.288-79.485 3.788-56.529-54.787-77.94-83.287-91 15.17-13.07 33.02-21.63 52.47-24.37 10.98-1.54 22.06-1.17 32.99.93 3.28.63 6.57 1.22 9.87 1.75 18.42 3 37 4.5 55.58 4.5 21.91 0 43.82-2.08 65.45-6.25 10.93-2.1 22.01-2.47 32.99-.93 62.78 8.839 108.98 78.359 101.67 163.899z" fill="#fe3345"/><path d="m458.27 349.98c-3.23 37.71-16.08 72.43-35.19 99.98l-.01.01c-44.33 38.21-101.9 61.5-164.91 62.02-.72.01-1.44.01-2.16.01-13.81 0-27.36-1.09-40.57-3.2-29.8-14.92-53.97-80.42-57.32-158.82-2.15-50.22 4.92-94.92 17.49-125.06 9.01-21.62 31.03-34.72 54.38-32.81 9.38.77 18.78 1.15 28.18 1.15 21.91 0 43.82-2.08 65.45-6.25 10.93-2.1 22.01-2.47 32.99-.93 62.78 8.84 108.98 78.36 101.67 163.9z" fill="#de1263"/><path d="m458.27 349.98c-3.23 37.71-16.08 72.43-35.19 99.98-44.33 38.22-101.91 61.51-164.92 62.03v-318.73c21.91 0 43.82-2.08 65.45-6.25 10.93-2.1 22.01-2.47 32.99-.93 62.78 8.84 108.98 78.36 101.67 163.9z" fill="#bc0e5c"/><path d="m458.27 349.98c-.12 1.4-.25 2.79-.4 4.17-.12 1.22-.26 2.43-.41 3.63-.12.99-.25 1.97-.39 2.95-.03.3-.07.59-.12.89-.16 1.19-.34 2.37-.53 3.55-16.54 5.23-36.14 1.52-46.06-12.47-9.45-13.32-8.1-31.09-9.83-47.33-1.72-16.24-10.22-34.95-26.47-36.61-19.38-1.99-34.25 21.93-53.63 19.97-11.09-1.11-19.44-10.53-25.12-20.11-5.68-9.59-10.12-20.32-18.58-27.56-5.2-4.45-11.77-7.14-18.57-7.94-6.95-.83-14.13.32-20.32 3.59-12.25 6.45-19.87 20.77-18.38 34.54 1.72 15.87 14.17 31.25 8.67 46.24-3.44 9.38-13 15.03-22.4 18.41-9.39 3.38-19.49 5.37-27.78 10.93-8.09 5.43-13.47 13.53-18.62 21.94-3.91 6.4-7.69 12.97-12.42 18.67-18.15 21.9-51.91 27.7-77.36 15.89-4.05-11.42-7.18-23.42-9.27-35.83 4.08.62 8.26.94 12.52.94 45.69 0 82.74-37.05 82.74-82.74 0-33.4-19.79-62.19-48.29-75.25 15.17-13.07 33.02-21.63 52.47-24.37 10.98-1.54 22.06-1.17 32.99.93 3.28.63 6.57 1.22 9.87 1.75 9.07 1.48 18.17 2.59 27.3 3.34.03 0 .07.01.1.01 2.34.19 4.69.36 7.04.5.95.06 1.9.11 2.86.16 6.09.33 12.18.49 18.28.49 21.91 0 43.82-2.08 65.45-6.25 10.93-2.1 22.01-2.47 32.99-.93 62.78 8.84 108.98 78.36 101.67 163.9z" fill="#b6e337"/><path d="m458.27 349.98c-.12 1.4-.25 2.79-.4 4.17-.12 1.22-.26 2.43-.41 3.63-.12.99-.25 1.97-.39 2.95-.03.3-.07.59-.12.89-.16 1.19-.34 2.37-.53 3.55-16.54 5.23-36.14 1.52-46.06-12.47-9.45-13.32-8.1-31.09-9.83-47.33-1.72-16.24-10.22-34.95-26.47-36.61-19.38-1.99-34.25 21.93-53.63 19.97-11.09-1.11-19.44-10.53-25.12-20.11-5.68-9.59-10.12-20.32-18.58-27.56-5.2-4.45-11.77-7.14-18.57-7.94-6.95-.83-14.13.32-20.32 3.59-12.25 6.45-19.87 20.77-18.38 34.54 1.72 15.87 14.17 31.25 8.67 46.24-3.44 9.38-13 15.03-22.4 18.41-9.39 3.38-19.49 5.37-27.78 10.93-8.09 5.43-13.47 13.53-18.62 21.94-.54-6.17-.95-12.44-1.22-18.79-2.15-50.22 4.92-94.92 17.49-125.06 9-21.59 30.97-34.68 54.28-32.82.03 0 .07.01.1.01 2.34.19 4.69.36 7.04.5.95.06 1.91.12 2.86.16 6.09.33 12.18.49 18.28.49 21.91 0 43.82-2.08 65.45-6.25 10.93-2.1 22.01-2.47 32.99-.93 62.78 8.84 108.98 78.36 101.67 163.9z" fill="#6cdc2d"/><path d="m458.27 349.98c-.44 5.12-1.05 10.19-1.85 15.19-16.54 5.23-36.14 1.52-46.06-12.47-9.45-13.32-8.1-31.09-9.83-47.33-1.72-16.24-10.22-34.95-26.47-36.61-19.38-1.99-34.25 21.93-53.63 19.97-11.09-1.11-19.44-10.53-25.12-20.11-5.68-9.59-10.12-20.32-18.58-27.56-5.2-4.45-11.77-7.14-18.57-7.94v-39.86c21.91 0 43.82-2.08 65.45-6.25 10.93-2.1 22.01-2.47 32.99-.93 62.78 8.84 108.98 78.36 101.67 163.9z" fill="#53af17"/></g></g></svg>