<svg id="Capa_1" enable-background="new 0 0 512 512" height="512" viewBox="0 0 512 512" width="512" xmlns="http://www.w3.org/2000/svg"><g><g><circle cx="256" cy="256" fill="#b6e337" r="256"/><path d="m512 256c0 87.11-43.52 164.07-110 210.31-41.41 28.8-91.73 45.69-146 45.69s-104.59-16.89-146-45.69c-66.48-46.24-110-123.2-110-210.31 0-46.22 12.25-89.57 33.68-127 44.12 77.07 127.16 129 222.32 129s178.21-51.93 222.32-129c21.43 37.43 33.68 80.78 33.68 127z" fill="#6cdc2d"/></g><g><path d="m221.897 156.783h12.664v329.801h-12.664z" fill="#541c10" transform="matrix(.707 -.707 .707 .707 -160.618 255.604)"/><g><g><path d="m414.653 135.249c1.35 1.35 2.251 2.968 2.712 4.682.23.883.345 1.791.345 2.699 0 2.674-1.023 5.348-3.057 7.382l-220.771 220.772c-2.731 2.731-6.595 3.627-10.074 2.706-1.714-.46-3.333-1.363-4.682-2.712-2.034-2.034-3.058-4.708-3.051-7.375-.006-2.667 1.017-5.341 3.051-7.375l220.772-220.771c4.073-4.076 10.68-4.082 14.755-.008z" fill="#83250d"/><path d="m417.365 139.932c.23.883.345 1.791.345 2.699 0 2.674-1.023 5.348-3.057 7.382l-220.771 220.771c-2.731 2.731-6.595 3.627-10.074 2.706-.237-.889-.358-1.804-.358-2.712-.006-2.667 1.017-5.341 3.051-7.375l220.771-220.771c2.731-2.732 6.601-3.634 10.093-2.7z" fill="#541c10"/><path d="m440.118 109.785-20.271 75.677-55.401-55.4z" fill="#fff"/><path d="m230.361 319.541c7.644 25.401.704 52.938-18.051 71.693l-21.102 21.102-12.403-41.239-41.232-12.396 21.102-21.102c9.377-9.377 20.949-15.806 33.352-18.921 12.403-3.128 25.637-2.956 38.334.863z" fill="#de1263"/><path d="m178.805 371.097 51.556-51.556c7.644 25.401.704 52.938-18.051 71.693l-21.102 21.102z" fill="#bc0e5c"/><path d="m440.118 109.785-20.271 75.677-27.704-27.703z" fill="#b3f4ff"/><path d="m415.337 134.568-9.799 36.585-26.782-26.782z" fill="#b3f4ff"/><path d="m415.337 134.568-9.799 36.585-13.393-13.393z" fill="#8fc8f5"/></g><path d="m405.55 367.21c-3.37 17.03-9.33 33.33-17.52 48.44-8.19 15.12-18.61 29.05-30.88 41.32-4.37 4.37-6.56 10.1-6.56 15.83s2.19 11.47 6.56 15.84c.61.61 1.17 1.23 1.69 1.86-6.7 2.95-13.55 5.61-20.54 7.98-9.6 3.25-19.44 5.96-29.51 8.07-11.93-17.04-11.4-40.15 1.61-56.66 1.16-1.46 2.41-2.88 3.77-4.24 1.35-1.36 2.77-2.61 4.24-3.77l6.69-6.69c57.93-57.93 57.83-152.27-.31-210.07-57.8-58.14-152.14-58.24-210.07-.3l-6.69 6.69c-1.16 1.46-2.41 2.88-3.77 4.24-1.35 1.35-2.77 2.61-4.24 3.77-16.98 13.38-40.95 13.56-58.11.54-1.72-1.3-3.38-2.74-4.95-4.31-6.37-6.37-10.56-14.09-12.56-22.24-2.05-8.32.63-15.64 5.59-20.59.46-.46.94-.91 1.43-1.32 8.05-6.78 20.76-7.93 29.86 1.16 4.37 4.38 10.1 6.56 15.83 6.56s11.46-2.19 15.83-6.56c24.56-24.55 55.7-41.67 89.76-48.4 59.83-11.81 124.31 5.4 170.57 51.67l.61.61c46.27 46.27 63.49 110.74 51.67 170.57z" fill="#83250d"/><path d="m405.55 367.21c-3.37 17.03-9.33 33.33-17.52 48.44-8.19 15.12-18.61 29.05-30.88 41.32-4.37 4.37-6.56 10.1-6.56 15.83s2.19 11.47 6.56 15.84c.61.61 1.17 1.23 1.69 1.86-6.7 2.95-13.55 5.61-20.54 7.98l-.32-.32c-13.33-13.33-13.34-34.94-.01-48.28 64.58-64.57 66.48-172.08 2.91-237.65-65.7-67.79-173.93-68.43-240.44-1.92l-1.02 1.02c-13.33 13.33-34.94 13.33-48.27 0l-19.73-19.73c8.05-6.78 20.76-7.93 29.86 1.16 4.37 4.38 10.1 6.56 15.83 6.56s11.46-2.19 15.83-6.56c24.56-24.55 55.7-41.67 89.76-48.4 59.83-11.81 124.31 5.4 170.57 51.67l.61.61c46.27 46.27 63.49 110.74 51.67 170.57z" fill="#a63917"/><path d="m324.951 162.065c-11.533-7.209-26.552-5.354-36.166 4.26-2.149 2.149-3.889 4.542-5.232 7.075-6.934 13.113-3.121 30.128 10.234 38.495 8.949 5.61 17.328 12.288 24.96 19.97 7.669 7.618 14.335 15.985 19.938 24.927 8.156 13.004 24.518 16.97 37.484 10.746 2.904-1.395 5.648-3.307 8.085-5.744 4.804-4.804 7.676-10.964 8.437-17.367.768-6.396-.576-13.036-4.177-18.799-7.848-12.557-17.175-24.326-27.895-35.047l-.608-.608c-10.722-10.721-22.491-20.047-35.06-27.908z" fill="#ffc300"/><path d="m360.01 189.973.608.608c10.721 10.721 20.047 22.49 27.895 35.047 3.601 5.763 4.944 12.403 4.177 18.799-.761 6.403-3.633 12.563-8.437 17.367-2.437 2.437-5.181 4.35-8.085 5.744-7.753-20.149-19.497-39.019-35.283-55.304-16.797-17.335-36.377-30.275-57.332-38.834 1.343-2.533 3.083-4.925 5.232-7.075 9.614-9.614 24.633-11.469 36.166-4.26 12.569 7.861 24.338 17.187 35.059 27.908z" fill="#ff9f00"/></g></g></g></svg>