<?xml version="1.0" encoding="iso-8859-1"?>
<!-- Generator: Adobe Illustrator 23.0.6, SVG Export Plug-In . SVG Version: 6.00 Build 0)  -->
<svg version="1.1" id="Capa_1" xmlns="http://www.w3.org/2000/svg" xmlns:xlink="http://www.w3.org/1999/xlink" x="0px" y="0px"
	 viewBox="0 0 512 512" style="enable-background:new 0 0 512 512;" xml:space="preserve">
<g>
	<circle style="fill:#6EC17D;" cx="256" cy="256" r="256"/>
	<g>
		<path style="fill:#D9723E;" d="M258.201,118.512h-4.403c-105.787,0-191.544,85.757-191.544,191.544v34.365h387.49v-34.365
			C449.745,204.269,363.988,118.512,258.201,118.512z"/>
		<path style="fill:#BD5423;" d="M253.799,118.512c-49.764,0-90.108,85.753-90.108,191.541v34.367H61.086v-34.367
			c0-105.788,85.753-191.541,191.541-191.541H253.799z"/>
		<path style="fill:#FFBB16;" d="M279.571,105.056h-47.143c-8.723,0-15.795,7.072-15.795,15.795v171.514h78.732V120.851
			C295.366,112.127,288.294,105.056,279.571,105.056z"/>
		<path style="fill:#FFBB16;" d="M295.37,310.28v144.03c0,15.18-12.31,27.49-27.5,27.49h-23.74c-15.19,0-27.5-12.31-27.5-27.49
			V310.28c0-8.72,7.08-15.79,15.8-15.79h47.14C288.29,294.49,295.37,301.56,295.37,310.28z"/>
		<path style="fill:#FF931F;" d="M265.634,481.8h-21.51c-15.18,0-27.49-12.31-27.49-27.49V310.28c0-8.72,7.07-15.79,15.8-15.79h21.5
			c-8.72,0-15.8,7.07-15.8,15.79v144.03C238.134,469.49,250.444,481.8,265.634,481.8z"/>
		<path style="fill:#FF931F;" d="M256.729,105.052c-8.734,0-15.799,7.065-15.799,15.799v171.505h-24.296V120.851
			c0-8.734,7.077-15.799,15.799-15.799H256.729z"/>
		<path style="fill:#FF931F;" d="M295.37,310.28v86.26h-78.74v-86.26c0-8.72,7.08-15.79,15.8-15.79h47.14
			C288.29,294.49,295.37,301.56,295.37,310.28z"/>
		<path style="fill:#FFBB16;" d="M440.92,380.556H71.08c-17.567,0-31.808-14.241-31.808-31.808v-40.62
			c0-17.567,14.241-31.808,31.808-31.808H440.92c17.567,0,31.808,14.241,31.808,31.808v40.62
			C472.728,366.315,458.487,380.556,440.92,380.556z"/>
		<path style="fill:#FF931F;" d="M179.274,380.547H71.071c-17.562,0-31.799-14.237-31.799-31.799V308.12
			c0-17.562,14.237-31.811,31.799-31.811h108.203c-17.574,0-31.811,14.249-31.811,31.811v40.628
			C147.463,366.31,161.7,380.547,179.274,380.547z"/>
		<g>
			<path style="fill:#EA7F13;" d="M118.609,316.318h-0.406c-6.462,0-11.7-5.238-11.7-11.7v0c0-6.31-4.762-11.82-11.059-12.227
				c-6.9-0.447-12.636,5.018-12.636,11.821v0.406c0,6.462-5.238,11.7-11.7,11.7h-0.406c-6.543,0-11.847,5.304-11.847,11.847v0
				c0,6.543,5.304,11.847,11.847,11.847h0.406c6.462,0,11.7,5.238,11.7,11.7v0c0,6.31,4.762,11.82,11.059,12.227
				c6.9,0.447,12.636-5.018,12.636-11.822v-0.406c0-6.462,5.238-11.7,11.7-11.7h0.406c6.543,0,11.847-5.304,11.847-11.847l0,0
				C130.456,321.622,125.152,316.318,118.609,316.318z"/>
			<path style="fill:#FF931F;" d="M226.172,316.318h-0.406c-6.462,0-11.7-5.238-11.7-11.7v0c0-6.31-4.762-11.82-11.059-12.227
				c-6.9-0.447-12.636,5.018-12.636,11.821v0.406c0,6.462-5.238,11.7-11.7,11.7h-0.406c-6.543,0-11.847,5.304-11.847,11.847v0
				c0,6.543,5.304,11.847,11.847,11.847h0.406c6.462,0,11.7,5.238,11.7,11.7v0c0,6.31,4.762,11.82,11.059,12.227
				c6.9,0.447,12.636-5.018,12.636-11.822v-0.406c0-6.462,5.238-11.7,11.7-11.7h0.406c6.543,0,11.847-5.304,11.847-11.847l0,0
				C238.019,321.622,232.715,316.318,226.172,316.318z"/>
			<path style="fill:#FF931F;" d="M333.735,316.318h-0.406c-6.462,0-11.7-5.238-11.7-11.7v0c0-6.31-4.762-11.82-11.059-12.227
				c-6.9-0.447-12.636,5.018-12.636,11.821v0.406c0,6.462-5.238,11.7-11.7,11.7h-0.406c-6.543,0-11.847,5.304-11.847,11.847v0
				c0,6.543,5.304,11.847,11.847,11.847h0.406c6.462,0,11.7,5.238,11.7,11.7v0c0,6.31,4.762,11.82,11.059,12.227
				c6.9,0.447,12.636-5.018,12.636-11.822v-0.406c0-6.462,5.238-11.7,11.7-11.7h0.406c6.543,0,11.847-5.304,11.847-11.847l0,0
				C345.582,321.622,340.278,316.318,333.735,316.318z"/>
			<path style="fill:#FF931F;" d="M441.298,316.318h-0.406c-6.462,0-11.7-5.238-11.7-11.7v0c0-6.31-4.762-11.82-11.059-12.227
				c-6.9-0.447-12.636,5.018-12.636,11.821v0.406c0,6.462-5.238,11.7-11.7,11.7h-0.406c-6.543,0-11.847,5.304-11.847,11.847v0
				c0,6.543,5.304,11.847,11.847,11.847h0.406c6.462,0,11.7,5.238,11.7,11.7v0c0,6.31,4.762,11.82,11.059,12.227
				c6.9,0.447,12.636-5.018,12.636-11.822v-0.406c0-6.462,5.238-11.7,11.7-11.7h0.406c6.543,0,11.847-5.304,11.847-11.847l0,0
				C453.145,321.622,447.841,316.318,441.298,316.318z"/>
		</g>
		<g>
			<path style="fill:#F6F1F1;" d="M171.587,183.826c0,21.54-7.056,42.436-19.859,59.5c-8.679,11.572-19.996,21.384-33.562,28.44
				C19.378,246.453-30.017,61.464,19.378,41.546c7.545-3.049,14.25-2.736,20.485-0.02c33.464,14.484,53.577,97.831,117.241,103.617
				c4.359,0.391,8.073,3.362,9.441,7.525C169.965,162.97,171.587,173.466,171.587,183.826z"/>
			<path style="fill:#D0E2E7;" d="M151.728,243.326c-8.679,11.572-19.996,21.384-33.562,28.44
				C19.378,246.453-30.017,61.464,19.378,41.546c7.545-3.049,14.25-2.736,20.485-0.02C1.062,33.18,41.817,203.9,151.728,243.326z"/>
			<path style="fill:#F6F1F1;" d="M393.83,271.77c-13.56-7.06-24.88-16.87-33.56-28.44c-3.6-4.8-6.76-9.92-9.42-15.26
				c-6.8-13.63-10.44-28.77-10.44-44.24c0-10.36,1.63-20.86,5.05-31.16c1.36-4.16,5.08-7.14,9.44-7.53
				c63.66-5.78,83.77-89.13,117.24-103.61c6.23-2.72,12.94-3.03,20.48,0.02c5.88,2.37,10.36,7.08,13.52,13.58
				C529.56,103.24,480.86,249.46,393.83,271.77z"/>
			<path style="fill:#D0E2E7;" d="M506.14,55.13c-13.52-13.58-24,65.89-64.07,94.65c-40.07,28.76-91.22,35.94-91.22,78.29
				c-6.8-13.63-10.44-28.77-10.44-44.24c0-10.36,1.63-20.86,5.05-31.16c1.36-4.16,5.08-7.14,9.44-7.53
				c63.66-5.78,83.77-89.13,117.24-103.61c6.23-2.72,12.94-3.03,20.48,0.02C498.5,43.92,502.98,48.63,506.14,55.13z"/>
		</g>
	</g>
</g>
<g>
</g>
<g>
</g>
<g>
</g>
<g>
</g>
<g>
</g>
<g>
</g>
<g>
</g>
<g>
</g>
<g>
</g>
<g>
</g>
<g>
</g>
<g>
</g>
<g>
</g>
<g>
</g>
<g>
</g>
</svg>
