<?xml version="1.0" encoding="iso-8859-1"?>
<!-- Generator: Adobe Illustrator 23.0.6, SVG Export Plug-In . SVG Version: 6.00 Build 0)  -->
<svg version="1.1" id="Capa_1" xmlns="http://www.w3.org/2000/svg" xmlns:xlink="http://www.w3.org/1999/xlink" x="0px" y="0px"
	 viewBox="0 0 512 512" style="enable-background:new 0 0 512 512;" xml:space="preserve">
<g>
	<path style="fill:#E84D59;" d="M512,256c0,141.38-114.62,256-256,256c-55.47,0-106.82-17.65-148.74-47.62
		c-4.62-3.31-9.13-6.76-13.51-10.37c-8.19-6.71-15.95-13.92-23.24-21.59c-1.29-1.35-2.56-2.72-3.82-4.1
		c-2.99-3.28-5.89-6.64-8.7-10.07c-3.61-4.39-7.07-8.89-10.37-13.51C17.65,362.82,0,311.47,0,256C0,114.62,114.62,0,256,0
		S512,114.62,512,256z"/>
	<g>
		<path style="fill:#D0E2E7;" d="M258.208,194.146c-35.933,0-69.794,28.742-92.385,75.954c-61.784-61.784-61.792-161.967,0-223.759
			s161.975-61.784,223.759,0c-47.212,22.59-75.954,56.452-75.954,92.385l2.113,57.533L258.208,194.146z"/>
		<path style="fill:#F6F1F1;" d="M168.769,264.192c-1,1.93-1.985,3.907-2.946,5.908c-61.784-61.784-61.792-161.967,0-223.759
			c61.792-61.792,161.974-61.784,223.759,0c-2.001,0.961-3.978,1.945-5.908,2.946c-60.098-33.066-137.139-24.126-188.085,26.82
			C144.643,127.053,135.703,204.094,168.769,264.192z"/>
		<path style="fill:#D0E2E7;" d="M317.854,253.792c0,35.933-28.742,69.794-75.954,92.385c61.784,61.784,161.967,61.792,223.759,0
			s61.784-161.975,0-223.759c-22.59,47.212-56.452,75.954-92.385,75.954l-57.533-2.113L317.854,253.792z"/>
		<path style="fill:#F6F1F1;" d="M247.808,343.231c-1.93,1-3.907,1.985-5.908,2.946c61.784,61.784,161.967,61.792,223.759,0
			c61.792-61.792,61.784-161.974,0-223.759c-0.961,2.001-1.945,3.978-2.946,5.908c33.066,60.098,24.126,137.139-26.82,188.085
			C384.947,367.357,307.906,376.297,247.808,343.231z"/>
		<path style="fill:#D9723E;" d="M418.13,129.63L93.75,454.01c-8.19-6.71-15.95-13.92-23.24-21.59c-1.29-1.35-2.56-2.72-3.82-4.1
			c-2.99-3.28-5.89-6.64-8.7-10.07L382.37,93.87c5.24-5.24,13.75-5.24,18.99,0l16.77,16.77
			C423.37,115.88,423.37,124.39,418.13,129.63z"/>
		<path style="fill:#BD5423;" d="M414.7,107.22c-5.25-5.25-13.74-5.25-18.99,0l-325.2,325.2c-1.29-1.35-2.56-2.72-3.82-4.1
			c-2.99-3.28-5.89-6.64-8.7-10.07L382.37,93.87c5.25-5.24,13.74-5.24,18.98,0L414.7,107.22z"/>
		<path style="fill:#F6F1F1;" d="M255.894,283.142l-27.036-27.036c-9.005-9.005-9.005-23.605,0-32.611l114.12-114.12
			c9.005-9.005,23.605-9.005,32.611,0l27.036,27.036c9.005,9.005,9.005,23.605,0,32.611l-114.12,114.12
			C279.499,292.147,264.899,292.147,255.894,283.142z"/>
		<path style="fill:#D0E2E7;" d="M250.188,277.435l-21.33-21.33c-9.003-9.003-9.011-23.598,0-32.609l114.116-114.116
			c9.003-9.003,23.606-9.003,32.609,0l21.33,21.33c-9.003-9.003-23.606-9.003-32.609,0L250.188,244.825
			C241.177,253.836,241.185,268.432,250.188,277.435z"/>
		<path style="fill:#2F373B;" d="M160.52,411.12l-53.26,53.26c-23.01-16.46-43.18-36.63-59.64-59.64l53.26-53.26
			c9-9.01,23.6-9.01,32.61,0l27.03,27.03C169.53,387.52,169.53,402.12,160.52,411.12z"/>
		<path style="fill:#181E21;" d="M154.81,372.81c-9-9-23.61-9-32.61,0l-55.51,55.51c-6.81-7.47-13.18-15.35-19.07-23.58l53.25-53.26
			c9-9,23.61-9,32.61,0L154.81,372.81z"/>
	</g>
</g>
<g>
</g>
<g>
</g>
<g>
</g>
<g>
</g>
<g>
</g>
<g>
</g>
<g>
</g>
<g>
</g>
<g>
</g>
<g>
</g>
<g>
</g>
<g>
</g>
<g>
</g>
<g>
</g>
<g>
</g>
</svg>
