<?xml version="1.0" encoding="iso-8859-1"?>
<!-- Generator: Adobe Illustrator 23.0.6, SVG Export Plug-In . SVG Version: 6.00 Build 0)  -->
<svg version="1.1" id="Capa_1" xmlns="http://www.w3.org/2000/svg" xmlns:xlink="http://www.w3.org/1999/xlink" x="0px" y="0px"
	 viewBox="0 0 512 512" style="enable-background:new 0 0 512 512;" xml:space="preserve">
<g>
	<path style="fill:#FFBB16;" d="M512,256c0,124.51-88.89,228.26-206.67,251.25c-10.94,2.14-22.13,3.58-33.53,4.27
		c-5.22,0.32-10.49,0.48-15.8,0.48c-13.69,0-27.13-1.07-40.24-3.15c-11.85-1.87-23.44-4.56-34.69-8
		c-10.84-3.32-21.37-7.33-31.54-11.99c-7.1-3.24-14.01-6.8-20.73-10.66c-8.93-5.12-17.52-10.76-25.73-16.89
		c-4.01-2.99-7.92-6.09-11.74-9.31c-4.83-4.05-9.5-8.28-14-12.67c-3.84-3.74-7.56-7.6-11.14-11.57c-4.69-5.16-9.15-10.52-13.4-16.05
		c-3.29-4.29-6.45-8.68-9.47-13.18c-6.58-9.8-12.5-20.08-17.7-30.78c-8.13-16.72-14.49-34.46-18.83-52.97
		c-2.56-10.86-4.42-21.98-5.54-33.33C0.42,273.08,0,264.59,0,256C0,114.62,114.62,0,256,0S512,114.62,512,256z"/>
	<g>
		<circle style="fill:#F6F1F1;" cx="322.634" cy="189.366" r="189.366"/>
		<path style="fill:#D0E2E7;" d="M322.634,356.54c-44.654,0-86.635-17.389-118.21-48.964
			c-31.576-31.575-48.965-73.556-48.965-118.21s17.389-86.635,48.965-118.21c31.575-31.575,73.556-48.964,118.21-48.964
			s86.635,17.389,118.21,48.964c31.576,31.575,48.965,73.556,48.965,118.21s-17.389,86.635-48.965,118.21
			C409.269,339.151,367.288,356.54,322.634,356.54z"/>
		<circle style="fill:#F6F1F1;" cx="322.634" cy="189.366" r="131.979"/>
		<path style="fill:#B4D0D5;" d="M210.28,189.366c0,6.295,0.518,12.464,1.509,18.471c0.828,4.993,1.982,9.868,3.44,14.617
			c14.128,45.906,56.869,79.267,107.406,79.267c62.054,0,112.355-50.3,112.355-112.355s-50.3-112.355-112.355-112.355
			c-37.91,0-71.426,18.774-91.783,47.526c-2.877,4.076-5.496,8.351-7.819,12.804c-3.558,6.783-6.435,13.973-8.551,21.481
			c-1.332,4.719-2.36,9.572-3.07,14.528C210.664,178.581,210.28,183.929,210.28,189.366z"/>
		<g>
			<path style="fill:#D0E2E7;" d="M353.315,134.552l6.151,84.453h-73.664l6.151-84.453c10.491,0.986,20.838,3.543,30.681,7.636
				C332.471,138.089,342.819,135.538,353.315,134.552z"/>
			<path style="fill:#F6F1F1;" d="M376.823,130.16c1.087,6.936-4.78,12.997-11.744,12.103c-3.492-0.448-6.829-0.789-8.903-0.789
				c-2.726,0-5.452,0.128-8.169,0.384c-2.868,0.27-5.722,0.678-8.548,1.233c-5.741,1.114-11.378,2.811-16.825,5.082
				c-5.831-2.427-11.881-4.2-18.034-5.305c-2.432-0.441-4.878-0.778-7.339-1.01c-4.689-0.441-9.411-0.502-14.123-0.18
				c-0.705,0.049-1.675,0.161-2.796,0.315c-7.002,0.959-12.951-5.104-11.859-12.086l3.845-24.569
				c0.882-5.635,5.736-9.788,11.439-9.788h77.728c5.704,0,10.558,4.154,11.439,9.789l0.579,3.699L376.823,130.16z"/>
			<path style="fill:#F6F1F1;" d="M396.829,222.594v29.355c0,5.694-4.385,10.429-10.063,10.857
				c-20.757,1.566-40.913,7.958-58.836,18.722l-5.296,3.181l-4.509-2.712l-0.787-0.469c-7.296-4.381-14.962-8.036-22.889-10.937
				c-6.13-2.247-12.421-4.044-18.812-5.367c-5.608-1.166-11.293-1.972-17.025-2.413c-0.034-0.003-0.068-0.005-0.101-0.008
				c-5.664-0.425-10.073-5.081-10.073-10.761v-29.449c0-6.017,4.877-10.894,10.894-10.894h126.603
				C391.952,211.7,396.829,216.578,396.829,222.594z"/>
			<g>
				<path style="fill:#F6F1F1;" d="M314.171,201.917c-3.198,0-6.394-1.216-8.828-3.648c-4.25-4.254-4.249-11.168-0.001-15.414
					c1.772-1.773,4.647-1.772,6.419,0.001c1.772,1.773,1.772,4.647-0.001,6.419c-0.709,0.709-0.709,1.865,0.002,2.576
					c1.293,1.292,3.381,1.324,4.716,0.098c0.583-1.061,1.086-4.793,1.455-7.536c1.157-8.589,2.741-20.353,11.621-25.796
					c2.138-1.309,4.932-0.639,6.242,1.498c1.31,2.137,0.639,4.932-1.498,6.242c-5.203,3.189-6.404,12.104-7.368,19.267
					c-0.758,5.626-1.356,10.07-3.928,12.643C320.568,200.7,317.369,201.917,314.171,201.917z"/>
				<path style="fill:#F6F1F1;" d="M331.092,201.917c-3.197,0-6.394-1.216-8.827-3.647c-2.574-2.575-3.173-7.019-3.93-12.645
					c-0.965-7.163-2.165-16.078-7.368-19.267c-2.137-1.31-2.807-4.105-1.498-6.242c1.31-2.137,4.105-2.807,6.242-1.498
					c8.88,5.443,10.464,17.207,11.621,25.796c0.369,2.743,0.872,6.476,1.455,7.536c1.334,1.226,3.423,1.194,4.719-0.102
					c0.707-0.708,0.708-1.863-0.001-2.573c-1.773-1.772-1.773-4.646-0.001-6.419c1.771-1.773,4.645-1.774,6.419-0.001
					c4.248,4.247,4.249,11.16,0.002,15.411C337.489,200.7,334.29,201.917,331.092,201.917z"/>
			</g>
			<g>
				<path style="fill:#D0E2E7;" d="M384.134,231.672c-3.171-3.171-7.387-4.917-11.871-4.917c-4.401,0-8.545,1.683-11.695,4.744
					l-1.34,1.094c-0.539-0.725-1.135-1.42-1.792-2.078c-6.198-6.198-16.283-6.197-22.481,0c-2.573,2.574-3.991,5.995-3.991,9.634
					c0,3.639,1.417,7.061,3.991,9.634c1.771,1.772,4.645,1.773,6.419,0c1.772-1.773,1.772-4.647-0.001-6.419
					c-0.859-0.859-1.332-2-1.332-3.215s0.473-2.356,1.332-3.215c2.659-2.659,6.985-2.659,9.643,0c3.766,3.766,3.766,9.893,0,13.659
					c-5.149,5.15-13.528,5.15-18.677,0c-3.33-3.33-5.165-7.756-5.168-12.464c0-0.004,0-0.008,0-0.012c0-0.004,0-0.008,0-0.012
					c0.003-4.708,1.838-9.134,5.168-12.464c1.773-1.772,1.773-4.646,0.001-6.419c-1.772-1.773-4.647-1.773-6.419,0
					c-1.235,1.235-2.332,2.571-3.288,3.987c-0.956-1.416-2.053-2.752-3.288-3.987c-1.772-1.773-4.646-1.772-6.419,0
					c-1.772,1.773-1.772,4.647,0.001,6.419c3.329,3.33,5.164,7.756,5.168,12.464c0,0.004,0,0.008,0,0.012c0,0.004,0,0.008,0,0.012
					c-0.003,4.708-1.838,9.134-5.168,12.464c-5.149,5.15-13.528,5.15-18.677,0c-3.766-3.766-3.766-9.893-0.001-13.658
					c2.658-2.659,6.985-2.659,9.643,0c0.859,0.859,1.332,2.001,1.332,3.215s-0.473,2.356-1.332,3.215
					c-1.773,1.773-1.773,4.647-0.001,6.419c1.772,1.772,4.647,1.773,6.419,0c2.574-2.574,3.991-5.995,3.991-9.634
					c0-3.639-1.417-7.061-3.991-9.635c-6.198-6.198-16.283-6.197-22.481,0c-0.657,0.657-1.253,1.353-1.792,2.077l-1.34-1.094
					c-3.15-3.061-7.294-4.744-11.695-4.744c-4.484,0-8.7,1.746-11.87,4.917c-2.709,2.708-4.2,6.309-4.2,10.138
					c0,3.83,1.491,7.43,4.199,10.138c2.338,2.338,5.446,3.625,8.752,3.625c3.306,0,6.415-1.287,8.752-3.625
					c1.773-1.772,1.773-4.647,0.001-6.419c-1.772-1.772-4.647-1.773-6.419,0c-0.624,0.624-1.452,0.967-2.334,0.967
					c-0.881,0-1.71-0.343-2.333-0.967c-0.993-0.993-1.54-2.314-1.54-3.719s0.547-2.725,1.541-3.719
					c1.456-1.456,3.392-2.258,5.451-2.258c2.059,0,3.995,0.802,5.452,2.258c0.108,0.108,0.22,0.21,0.338,0.306l3.709,3.029
					c-0.692,5.544,1.081,11.34,5.328,15.587c4.209,4.209,9.806,6.527,15.758,6.527c5.953,0,11.549-2.318,15.758-6.527
					c1.235-1.235,2.332-2.571,3.288-3.987c0.956,1.416,2.053,2.752,3.288,3.987c4.345,4.345,10.051,6.517,15.758,6.517
					s11.414-2.172,15.758-6.517c4.247-4.247,6.02-10.043,5.328-15.587l3.709-3.029c0.118-0.096,0.23-0.198,0.338-0.306
					c1.456-1.456,3.392-2.258,5.452-2.258c2.059,0,3.995,0.802,5.452,2.258c0.993,0.993,1.54,2.314,1.54,3.719
					s-0.547,2.725-1.541,3.719c-0.623,0.623-1.452,0.966-2.333,0.966c-0.882,0-1.71-0.343-2.334-0.967
					c-1.772-1.772-4.646-1.772-6.419,0c-1.772,1.773-1.772,4.647,0.001,6.419c2.337,2.338,5.446,3.625,8.752,3.625
					c3.306,0,6.414-1.288,8.752-3.625c2.709-2.708,4.2-6.309,4.2-10.138C388.333,237.98,386.842,234.38,384.134,231.672z"/>
				<path style="fill:#D0E2E7;" d="M291.465,118.775l5.692-4.648c0.118-0.096,0.23-0.198,0.338-0.306
					c3.007-3.006,7.897-3.006,10.903,0c0.993,0.993,1.54,2.314,1.54,3.719s-0.547,2.725-1.541,3.719
					c-0.623,0.623-1.452,0.966-2.333,0.966c-0.882,0-1.71-0.343-2.333-0.967c-1.773-1.772-4.647-1.772-6.42,0
					c-1.772,1.772-1.772,4.647,0,6.419c2.338,2.338,5.447,3.626,8.753,3.626s6.415-1.288,8.752-3.625
					c2.709-2.708,4.2-6.309,4.2-10.138s-1.491-7.43-4.199-10.138c-6.488-6.487-17.007-6.545-23.566-0.173l-5.529,4.515
					c-1.941,1.586-2.23,4.445-0.644,6.387C286.663,120.071,289.522,120.361,291.465,118.775z"/>
				<path style="fill:#D0E2E7;" d="M339.2,131.303c3.306,0,6.415-1.288,8.753-3.626c1.772-1.772,1.772-4.647,0-6.419
					c-1.773-1.772-4.647-1.772-6.42,0c-0.623,0.623-1.452,0.967-2.333,0.967c-0.881,0-1.71-0.343-2.333-0.967
					c-0.993-0.993-1.54-2.314-1.54-3.719s0.547-2.725,1.541-3.719c3.004-3.005,7.896-3.006,10.902,0
					c0.108,0.108,0.22,0.21,0.338,0.306l5.692,4.648c1.943,1.586,4.801,1.296,6.387-0.645c1.586-1.942,1.297-4.801-0.644-6.387
					l-5.529-4.515c-6.56-6.372-17.079-6.313-23.565,0.173c-2.709,2.708-4.2,6.309-4.2,10.138s1.491,7.43,4.199,10.138
					C332.785,130.015,335.894,131.303,339.2,131.303z"/>
			</g>
		</g>
		<path style="fill:#D0E2E7;" d="M422.236,137.342l-30.202,26.193c-1.398,1.213-3.122,1.812-4.845,1.812
			c-2.064,0-4.128-0.865-5.592-2.552c-2.67-3.085-2.345-7.76,0.747-10.437l32.074-27.821
			C417.295,128.613,419.913,132.889,422.236,137.342z"/>
		<path style="fill:#D0E2E7;" d="M433.857,173.351l-40.359,12.176c-0.717,0.214-1.435,0.318-2.138,0.318
			c-3.181,0-6.117-2.064-7.079-5.267c-1.184-3.913,1.036-8.041,4.941-9.217l41.564-12.538
			C432.119,163.543,433.147,168.395,433.857,173.351z"/>
		<path style="fill:#D0E2E7;" d="M433.48,207.836c-0.828,4.993-1.982,9.868-3.44,14.617l-32.185-13.729
			c-3.758-1.605-5.503-5.955-3.898-9.712c1.598-3.758,5.947-5.503,9.705-3.898L433.48,207.836z"/>
		<path style="fill:#D0E2E7;" d="M223.032,137.342l30.202,26.193c1.398,1.213,3.122,1.812,4.845,1.812
			c2.064,0,4.128-0.865,5.592-2.552c2.67-3.085,2.345-7.76-0.747-10.437l-32.074-27.821
			C227.973,128.613,225.355,132.889,223.032,137.342z"/>
		<path style="fill:#D0E2E7;" d="M211.411,173.351l40.359,12.176c0.717,0.214,1.435,0.318,2.138,0.318
			c3.181,0,6.117-2.064,7.079-5.267c1.184-3.913-1.036-8.041-4.941-9.217l-41.564-12.538
			C213.15,163.543,212.121,168.395,211.411,173.351z"/>
		<path style="fill:#D0E2E7;" d="M211.789,207.836c0.828,4.993,1.982,9.868,3.44,14.617l32.185-13.729
			c3.758-1.605,5.503-5.955,3.898-9.712c-1.598-3.758-5.947-5.503-9.705-3.898L211.789,207.836z"/>
	</g>
	<g>
		<path style="fill:#F6F1F1;" d="M305.33,507.25c-10.94,2.14-22.13,3.58-33.53,4.27c-5.22,0.32-10.49,0.48-15.8,0.48
			c-13.69,0-27.13-1.07-40.24-3.15c-83.9-13.24-154.25-67.25-190.14-141.1c-8.13-16.72-14.49-34.46-18.83-52.97
			c-2.56-10.86-4.42-21.98-5.54-33.33c10.49-14.7,23.28-28.13,38.29-39.76c82.69-64.02,201.63-48.88,265.66,33.82
			C359.15,345.2,356.88,440.64,305.33,507.25z"/>
		<path style="fill:#D0E2E7;" d="M321.3,412.54c-4.85,38.12-22.24,72.66-49.5,98.98c-5.22,0.32-10.49,0.48-15.8,0.48
			c-13.69,0-27.13-1.07-40.24-3.15c-83.9-13.24-154.25-67.25-190.14-141.1c-8.13-16.72-14.49-34.46-18.83-52.97
			c11.03-21.42,26.71-40.35,46.33-55.54c35.31-27.34,79.15-39.28,123.45-33.65c44.29,5.64,83.74,28.19,111.08,63.5
			S326.93,368.24,321.3,412.54z"/>
		<path style="fill:#F6F1F1;" d="M236.25,495.79c-6.53,5.06-13.39,9.41-20.49,13.06c-83.9-13.24-154.25-67.25-190.14-141.1
			c5.62-30.91,22.25-59.93,49.05-80.68C132.3,242.45,215.2,253,259.82,310.64C304.44,368.27,293.89,451.17,236.25,495.79z"/>
		<path style="fill:#B4D0D5;" d="M224.24,480.27c-13.19,10.21-27.93,17.03-43.17,20.58c-56.86-17.37-105.31-54.02-137.75-102.32
			c-0.05-0.73-0.09-1.45-0.12-2.18c-1.51-35.19,13.5-70.56,43.48-93.76c49.07-37.99,119.63-29.01,157.62,20.06
			C282.29,371.72,273.31,442.28,224.24,480.27z"/>
		<g>
			<path style="fill:#D0E2E7;" d="M146.165,329.305l56.563,63.014l-58.248,45.094l-46.835-70.545
				c8.899-5.642,18.646-9.955,28.935-12.744C131.848,344.862,138.469,336.511,146.165,329.305z"/>
			<path style="fill:#F6F1F1;" d="M162.065,311.441c5.105,4.819,4.177,13.204-1.877,16.759c-3.036,1.783-5.884,3.556-7.524,4.826
				c-2.156,1.669-4.233,3.439-6.224,5.304c-2.103,1.97-4.11,4.039-6.004,6.207c-3.858,4.395-7.276,9.188-10.193,14.319
				c-6.097,1.65-11.966,3.952-17.508,6.845c-2.193,1.14-4.334,2.372-6.421,3.694c-3.977,2.522-7.749,5.364-11.278,8.503
				c-0.528,0.47-1.226,1.153-2.018,1.961c-4.949,5.045-13.366,3.892-16.776-2.298l-12-21.782
				c-2.752-4.996-1.456-11.251,3.053-14.743l61.462-47.582c4.51-3.492,10.891-3.179,15.038,0.738l2.722,2.57L162.065,311.441z"/>
			<path style="fill:#F6F1F1;" d="M251.13,410.24c-15.46,13.95-27.48,31.34-35.06,50.82l-2.24,5.76l-5.23,0.62l-0.91,0.11
				c-8.45,1-16.75,2.8-24.79,5.36c-6.23,1.98-12.3,4.41-18.16,7.27c-5.15,2.51-10.14,5.36-14.94,8.52
				c-0.03,0.02-0.06,0.03-0.09,0.05c-0.06,0.04-0.12,0.08-0.18,0.11c-7.1-3.24-14.01-6.8-20.73-10.66l-11.67-15.08
				c-3.68-4.75-2.81-11.6,1.95-15.28l100.11-77.5c4.75-3.68,11.6-2.81,15.28,1.94l17.97,23.22
				C255.93,400,255.36,406.43,251.13,410.24z"/>
			<g>
				<path style="fill:#F6F1F1;" d="M156.451,406.535c-2.529,1.958-5.8,2.953-9.214,2.52c-5.965-0.762-10.196-6.229-9.437-12.188
					c0.316-2.487,2.59-4.246,5.076-3.929c2.487,0.317,4.246,2.589,3.929,5.076c-0.127,0.995,0.581,1.908,1.578,2.036
					c1.813,0.23,3.484-1.022,3.79-2.809c-0.188-1.196-2.076-4.455-3.463-6.85c-4.343-7.5-10.292-17.771-6.603-27.511
					c0.889-2.344,3.508-3.525,5.853-2.637c2.344,0.888,3.525,3.508,2.637,5.853c-2.162,5.707,2.346,13.491,5.969,19.746
					c2.845,4.912,5.092,8.793,4.634,12.401C160.764,401.657,158.979,404.578,156.451,406.535z"/>
				<path style="fill:#F6F1F1;" d="M169.831,396.177c-2.528,1.957-5.8,2.953-9.213,2.52c-3.612-0.461-6.806-3.608-10.849-7.593
					c-5.148-5.074-11.554-11.388-17.621-10.725c-2.492,0.272-4.733-1.527-5.005-4.019c-0.272-2.492,1.527-4.733,4.019-5.006
					c10.354-1.132,18.807,7.2,24.98,13.284c1.971,1.943,4.654,4.587,5.764,5.068c1.806,0.153,3.437-1.151,3.669-2.969
					c0.126-0.993-0.581-1.907-1.576-2.034c-2.487-0.316-4.246-2.589-3.93-5.075c0.315-2.486,2.587-4.246,5.075-3.93
					c5.959,0.757,10.192,6.224,9.436,12.185C174.145,391.299,172.36,394.219,169.831,396.177z"/>
			</g>
			<g>
				<path style="fill:#D0E2E7;" d="M229.988,387.234c-4.448-0.566-8.851,0.634-12.396,3.379c-3.48,2.694-5.727,6.562-6.343,10.911
					l-0.39,1.686c-0.87-0.243-1.767-0.428-2.689-0.546c-8.695-1.107-16.669,5.067-17.776,13.762
					c-0.459,3.61,0.514,7.183,2.742,10.061c2.228,2.878,5.443,4.716,9.054,5.175c2.485,0.317,4.758-1.442,5.076-3.93
					c0.316-2.487-1.443-4.759-3.93-5.076c-1.205-0.153-2.277-0.767-3.021-1.727c-0.743-0.96-1.069-2.153-0.915-3.357
					c0.475-3.73,3.896-6.378,7.625-5.903c5.283,0.672,9.034,5.517,8.361,10.8c-0.919,7.224-7.545,12.353-14.769,11.434
					c-4.671-0.595-8.832-2.971-11.717-6.692c-0.002-0.003-0.005-0.007-0.007-0.01c-0.002-0.003-0.005-0.006-0.008-0.009
					c-2.88-3.725-4.138-8.348-3.544-13.019c0.317-2.487-1.442-4.759-3.929-5.076c-2.487-0.317-4.759,1.443-5.076,3.929
					c-0.221,1.732-0.27,3.46-0.16,5.165c-1.623-0.534-3.308-0.919-5.041-1.14c-2.486-0.317-4.759,1.443-5.076,3.93
					c-0.316,2.487,1.443,4.759,3.93,5.075c4.671,0.595,8.831,2.971,11.716,6.692c0.002,0.003,0.005,0.007,0.007,0.01
					c0.002,0.003,0.005,0.006,0.008,0.009c2.88,3.725,4.138,8.348,3.543,13.019c-0.919,7.224-7.545,12.353-14.769,11.434
					c-5.283-0.672-9.034-5.517-8.362-10.8c0.475-3.73,3.895-6.378,7.625-5.903c1.205,0.153,2.278,0.767,3.022,1.727
					c0.743,0.96,1.068,2.152,0.915,3.357c-0.317,2.487,1.442,4.76,3.929,5.076c2.486,0.316,4.759-1.443,5.076-3.929
					c0.46-3.611-0.514-7.184-2.742-10.061c-2.228-2.878-5.443-4.716-9.054-5.175c-8.695-1.107-16.669,5.067-17.776,13.762
					c-0.117,0.922-0.163,1.836-0.145,2.739l-1.73-0.045c-4.365-0.492-8.672,0.713-12.152,3.408
					c-3.546,2.745-5.81,6.706-6.376,11.154c-0.484,3.799,0.541,7.559,2.885,10.588s5.728,4.963,9.527,5.446
					c3.28,0.417,6.526-0.467,9.14-2.491c2.614-2.024,4.284-4.945,4.702-8.224c0.317-2.487-1.442-4.76-3.929-5.076
					c-2.486-0.316-4.759,1.443-5.076,3.929c-0.111,0.875-0.557,1.653-1.254,2.193c-0.697,0.539-1.562,0.775-2.437,0.664
					c-1.394-0.177-2.634-0.887-3.494-1.998c-0.86-1.111-1.236-2.49-1.058-3.884c0.26-2.043,1.3-3.862,2.928-5.122
					c1.628-1.26,3.65-1.812,5.693-1.552c0.151,0.019,0.303,0.031,0.455,0.035l4.787,0.125c2.847,4.807,7.797,8.305,13.755,9.064
					c5.905,0.752,11.749-0.841,16.456-4.485c4.707-3.644,7.713-8.903,8.465-14.808c0.22-1.732,0.27-3.46,0.159-5.165
					c1.623,0.534,3.308,0.919,5.04,1.14c6.095,0.776,11.937-1,16.45-4.494c4.513-3.493,7.695-8.705,8.471-14.8
					c0.758-5.959-1.388-11.627-5.329-15.587l1.079-4.666c0.034-0.148,0.061-0.298,0.08-0.449c0.26-2.043,1.3-3.862,2.928-5.123
					c1.628-1.261,3.65-1.812,5.693-1.552c1.394,0.177,2.634,0.887,3.494,1.998c0.86,1.111,1.236,2.49,1.058,3.884
					c-0.111,0.874-0.556,1.653-1.253,2.192c-0.697,0.54-1.562,0.776-2.437,0.664c-2.486-0.317-4.759,1.443-5.076,3.93
					c-0.316,2.487,1.443,4.759,3.93,5.076c3.279,0.418,6.526-0.468,9.14-2.491c2.614-2.024,4.284-4.945,4.701-8.224
					c0.484-3.799-0.541-7.559-2.885-10.588C237.17,389.652,233.787,387.718,229.988,387.234z"/>
				<path style="fill:#D0E2E7;" d="M87.6,354.692l1.655-7.16c0.034-0.148,0.061-0.298,0.08-0.449
					c0.538-4.218,4.404-7.211,8.621-6.674c1.394,0.177,2.634,0.887,3.494,1.998c0.86,1.111,1.236,2.49,1.058,3.884
					c-0.111,0.874-0.556,1.653-1.253,2.192c-0.697,0.54-1.563,0.776-2.437,0.664c-2.487-0.316-4.759,1.443-5.076,3.93
					c-0.317,2.487,1.443,4.759,3.929,5.076c3.28,0.417,6.526-0.467,9.141-2.491s4.284-4.945,4.701-8.224
					c0.484-3.799-0.541-7.559-2.885-10.588c-2.344-3.028-5.728-4.963-9.527-5.446c-9.101-1.158-17.454,5.235-18.74,14.289
					l-1.608,6.955c-0.564,2.442,0.958,4.88,3.4,5.445C84.596,358.657,87.035,357.135,87.6,354.692z"/>
				<path style="fill:#D0E2E7;" d="M133.015,335.377c2.614-2.024,4.284-4.945,4.702-8.225c0.316-2.487-1.443-4.759-3.93-5.076
					c-2.487-0.316-4.759,1.443-5.076,3.93c-0.111,0.874-0.556,1.653-1.253,2.193c-0.697,0.539-1.562,0.775-2.437,0.664
					c-1.394-0.177-2.634-0.887-3.494-1.998c-0.86-1.111-1.236-2.49-1.058-3.884c0.536-4.215,4.403-7.211,8.621-6.674
					c0.151,0.019,0.303,0.031,0.455,0.035l7.346,0.191c2.507,0.065,4.59-1.914,4.655-4.419c0.065-2.506-1.913-4.591-4.419-4.656
					l-7.136-0.186c-9.088-1.023-17.369,5.463-18.528,14.562c-0.484,3.799,0.541,7.559,2.885,10.588
					c2.344,3.028,5.728,4.963,9.526,5.446C127.154,338.285,130.401,337.401,133.015,335.377z"/>
			</g>
		</g>
		<path style="fill:#D0E2E7;" d="M202.371,289.32l-7.847,39.201c-0.363,1.815-1.359,3.344-2.722,4.399
			c-1.632,1.263-3.794,1.842-5.984,1.405c-4-0.804-6.604-4.7-5.799-8.71l8.331-41.633
			C193.12,285.443,197.808,287.221,202.371,289.32z"/>
		<path style="fill:#D0E2E7;" d="M233.603,310.68l-24.459,34.334c-0.436,0.609-0.94,1.13-1.496,1.56
			c-2.515,1.947-6.101,2.113-8.822,0.169c-3.331-2.37-4.103-6.992-1.735-10.313l25.191-35.358
			C226.224,303.988,230.008,307.196,233.603,310.68z"/>
		<path style="fill:#D0E2E7;" d="M254.416,338.18c2.401,4.455,4.473,9.016,6.228,13.664l-33.854,8.846
			c-3.954,1.031-7.997-1.34-9.028-5.293c-1.037-3.95,1.334-7.992,5.288-9.024L254.416,338.18z"/>
		<path style="fill:#D0E2E7;" d="M92.57,406.51c-0.12,2.23-1.23,4.18-2.86,5.45c-1.36,1.05-3.09,1.63-4.94,1.53l-31.98-1.78
			c-3.29-4.29-6.45-8.68-9.47-13.18c-0.05-0.73-0.09-1.45-0.12-2.18l42.39,2.37C89.67,398.94,92.79,402.44,92.57,406.51z"/>
		<path style="fill:#D0E2E7;" d="M98.96,430.72c-0.56,0.43-1.19,0.79-1.89,1.05l-19.74,7.56c-3.84-3.74-7.56-7.6-11.14-11.57
			l25.59-9.8c3.81-1.46,8.09,0.44,9.55,4.26C102.53,425.34,101.48,428.77,98.96,430.72z"/>
		<path style="fill:#D0E2E7;" d="M107.83,452.78l-4.76,8.53c-4.01-2.99-7.92-6.09-11.74-9.31l3.58-6.42
			c1.99-3.57,6.49-4.85,10.06-2.86C108.54,444.71,109.82,449.22,107.83,452.78z"/>
	</g>
</g>
<g>
</g>
<g>
</g>
<g>
</g>
<g>
</g>
<g>
</g>
<g>
</g>
<g>
</g>
<g>
</g>
<g>
</g>
<g>
</g>
<g>
</g>
<g>
</g>
<g>
</g>
<g>
</g>
<g>
</g>
</svg>
