<?xml version="1.0" encoding="iso-8859-1"?>
<!-- Generator: Adobe Illustrator 23.0.6, SVG Export Plug-In . SVG Version: 6.00 Build 0)  -->
<svg version="1.1" id="Capa_1" xmlns="http://www.w3.org/2000/svg" xmlns:xlink="http://www.w3.org/1999/xlink" x="0px" y="0px"
	 viewBox="0 0 512 512" style="enable-background:new 0 0 512 512;" xml:space="preserve">
<g>
	<circle style="fill:#78727C;" cx="256" cy="256" r="256"/>
	<circle style="fill:#D9723E;" cx="256" cy="256" r="256"/>
	<circle style="fill:#BD5423;" cx="256" cy="256" r="191.207"/>
	<path style="fill:#A0380E;" d="M420.9,256c0,78.57-54.96,144.31-128.53,160.88c-11.7,2.63-23.87,4.02-36.37,4.02
		s-24.67-1.39-36.37-4.02C146.06,400.31,91.1,334.57,91.1,256s54.96-144.31,128.53-160.88c11.7-2.63,23.87-4.02,36.37-4.02
		s24.67,1.39,36.37,4.02C365.94,111.69,420.9,177.43,420.9,256z"/>
	<path style="fill:#D9723E;" d="M292.37,95.12v321.76c-11.7,2.63-23.87,4.02-36.37,4.02s-24.67-1.39-36.37-4.02V95.12
		c11.7-2.63,23.87-4.02,36.37-4.02S280.67,92.49,292.37,95.12z"/>
	<path style="fill:#D9723E;" d="M416.88,292.37H95.12c-2.63-11.7-4.02-23.87-4.02-36.37s1.39-24.67,4.02-36.37h321.76
		c2.63,11.7,4.02,23.87,4.02,36.37S419.51,280.67,416.88,292.37z"/>
	<circle style="fill:#F6F1F1;" cx="256" cy="256" r="63.023"/>
	<path style="fill:#D0E2E7;" d="M273.317,316.61c-5.5,1.57-11.31,2.41-17.32,2.41c-34.8,0-63.02-28.21-63.02-63.02
		s28.22-63.02,63.02-63.02c6.01,0,11.82,0.84,17.32,2.41c-26.38,7.52-45.7,31.81-45.7,60.61S246.937,309.09,273.317,316.61z"/>
	<g>
		<circle style="fill:#F6F1F1;" cx="256" cy="144.805" r="20.343"/>
		<circle style="fill:#F6F1F1;" cx="256" cy="367.195" r="20.343"/>
	</g>
	<g>
		<circle style="fill:#F6F1F1;" cx="367.195" cy="256" r="20.343"/>
		<circle style="fill:#F6F1F1;" cx="144.805" cy="256" r="20.343"/>
	</g>
	<g>
		<circle style="fill:#D0E2E7;" cx="256" cy="33.939" r="20.343"/>
		<circle style="fill:#D0E2E7;" cx="256" cy="478.061" r="20.343"/>
	</g>
	<g>
		<circle style="fill:#D0E2E7;" cx="367.031" cy="63.689" r="20.343"/>
		<circle style="fill:#D0E2E7;" cx="144.969" cy="448.311" r="20.343"/>
	</g>
	<g>
		<circle style="fill:#D0E2E7;" cx="448.311" cy="144.969" r="20.343"/>
		<circle style="fill:#D0E2E7;" cx="63.689" cy="367.031" r="20.343"/>
	</g>
	<g>
		<circle style="fill:#D0E2E7;" cx="478.061" cy="256" r="20.343"/>
		<circle style="fill:#D0E2E7;" cx="33.939" cy="256" r="20.343"/>
	</g>
	<g>
		<circle style="fill:#D0E2E7;" cx="448.311" cy="367.031" r="20.343"/>
		<circle style="fill:#D0E2E7;" cx="63.689" cy="144.969" r="20.343"/>
	</g>
	<g>
		<circle style="fill:#D0E2E7;" cx="367.031" cy="448.311" r="20.343"/>
		<circle style="fill:#D0E2E7;" cx="144.969" cy="63.689" r="20.343"/>
	</g>
</g>
<g>
</g>
<g>
</g>
<g>
</g>
<g>
</g>
<g>
</g>
<g>
</g>
<g>
</g>
<g>
</g>
<g>
</g>
<g>
</g>
<g>
</g>
<g>
</g>
<g>
</g>
<g>
</g>
<g>
</g>
</svg>
