<?xml version="1.0" encoding="iso-8859-1"?>
<!-- Generator: Adobe Illustrator 23.0.6, SVG Export Plug-In . SVG Version: 6.00 Build 0)  -->
<svg version="1.1" id="Capa_1" xmlns="http://www.w3.org/2000/svg" xmlns:xlink="http://www.w3.org/1999/xlink" x="0px" y="0px"
	 viewBox="0 0 512 512" style="enable-background:new 0 0 512 512;" xml:space="preserve">
<g>
	<circle style="fill:#C9394A;" cx="256" cy="256" r="256"/>
	<path style="fill:#434D51;" d="M461.27,62.44v346.55C414.6,471.51,340.02,512,256,512S97.4,471.51,50.73,408.99V62.44H461.27z"/>
	<path style="fill:#2F373B;" d="M121.58,62.44V473.9c-27.52-17.01-51.57-39.08-70.85-64.91V62.44H121.58z"/>
	<path style="fill:#2F373B;" d="M461.268,106.79H95.08c-24.493,0-44.349-19.856-44.349-44.349v0
		c0-24.493,19.856-44.349,44.349-44.349h366.188V106.79z"/>
	<path style="fill:#F6F1F1;" d="M95.081,86.79c-13.426,0-24.349-10.923-24.349-24.349c0-13.426,10.923-24.349,24.349-24.349h366.188
		V86.79H95.081z"/>
	<polygon style="fill:#C9394A;" points="178.205,182.701 144.286,153.77 110.367,182.701 110.367,80.921 178.205,80.921 	"/>
	<rect x="110.367" y="75.274" style="fill:#E84D59;" width="67.838" height="31.516"/>
	<path style="fill:#2F373B;" d="M358.52,256h-45.307v-36.322c0-12.204-9.893-22.097-22.097-22.097h-48.876
		c-12.204,0-22.097,9.893-22.097,22.097V256h-45.307c-12.429,0-22.505,10.076-22.505,22.505v48.06
		c0,12.429,10.076,22.505,22.505,22.505h45.307v84.442c0,12.204,9.893,22.097,22.097,22.097h48.876
		c12.204,0,22.097-9.893,22.097-22.097v-84.442h45.307c12.429,0,22.505-10.076,22.505-22.505v-48.06
		C381.026,266.076,370.95,256,358.52,256z"/>
	<path style="fill:#FFBB16;" d="M242.241,433.608l-0.099-0.067l0.002-106.472h-67.307c-0.278,0-0.505-0.227-0.505-0.505v-48.06
		c0-0.278,0.227-0.505,0.505-0.505h67.307v-58.322l0.067-0.099l48.906,0.002l0.098,0.067L291.213,278h67.307
		c0.278,0,0.505,0.227,0.505,0.505v48.06c0,0.278-0.227,0.505-0.505,0.505h-67.307v106.442l-0.067,0.099L242.241,433.608z"/>
</g>
<g>
</g>
<g>
</g>
<g>
</g>
<g>
</g>
<g>
</g>
<g>
</g>
<g>
</g>
<g>
</g>
<g>
</g>
<g>
</g>
<g>
</g>
<g>
</g>
<g>
</g>
<g>
</g>
<g>
</g>
</svg>
