<?xml version="1.0" encoding="iso-8859-1"?>
<!-- Generator: Adobe Illustrator 23.0.6, SVG Export Plug-In . SVG Version: 6.00 Build 0)  -->
<svg version="1.1" id="Capa_1" xmlns="http://www.w3.org/2000/svg" xmlns:xlink="http://www.w3.org/1999/xlink" x="0px" y="0px"
	 viewBox="0 0 512 512" style="enable-background:new 0 0 512 512;" xml:space="preserve">
<g>
	<path style="fill:black;" d="M512,256c0,62.05-22.08,118.95-58.81,163.26C406.23,475.91,335.33,512,256,512
		c-59.94,0-115.07-20.6-158.69-55.12c-14.11-11.16-27.02-23.78-38.5-37.62C22.08,374.95,0,318.05,0,256
		C0,162.64,49.98,80.94,124.65,36.23c8.26-4.95,16.82-9.44,25.65-13.45c8.37-3.8,16.98-7.16,25.8-10.06C201.24,4.46,228.1,0,256,0
		s54.76,4.46,79.9,12.72c18.13,5.95,35.36,13.87,51.45,23.51C462.02,80.94,512,162.64,512,256z"/>
	<g>
		<path style="fill:#D9723E;" d="M453.19,160.67v258.59C406.23,475.91,335.33,512,256,512s-150.23-36.09-197.19-92.74V160.67
			c36.85-5.31,65.84-37,65.84-75.32V19.94C124.65,8.93,133.58,0,144.59,0h12.97c8.34,0,15.55,5.19,18.54,12.72
			c0.45,1.12,0.8,2.29,1.05,3.5C184.65,52.9,217.1,80.49,256,80.49s71.35-27.59,78.85-64.271c0.25-1.21,0.6-2.38,1.05-3.5
			C338.89,5.19,346.1,0,354.44,0h12.97c11.01,0,19.94,8.93,19.94,19.94v65.41C387.35,123.67,416.34,155.36,453.19,160.67z"/>
		<g>
			<path style="fill:#BD5423;" d="M150.3,0v85.35c0,27.56-12.07,51.68-29.87,65.04c-14.56,10.91-23.12,28.05-23.12,46.25v260.24
				c-14.11-11.16-27.02-23.78-38.5-37.62V160.67c36.85-5.31,65.84-37,65.84-75.32V19.94C124.65,8.93,133.58,0,144.59,0H150.3z"/>
		</g>
		<g>
			<path style="fill:#FFBB16;" d="M222.407,294.872h-74.913c-15.841,0-28.682-12.842-28.682-28.682v-74.913
				c0-15.841,12.842-28.682,28.682-28.682h74.913c15.841,0,28.682,12.842,28.682,28.682v74.913
				C251.089,282.031,238.248,294.872,222.407,294.872z"/>
			<path style="fill:#FF931F;" d="M173.049,294.867h-25.561c-15.832,0-28.677-12.845-28.677-28.677v-74.923
				c0-15.832,12.844-28.677,28.677-28.677h25.561c-15.832,0-28.677,12.845-28.677,28.677v74.923
				C144.372,282.022,157.217,294.867,173.049,294.867z"/>
		</g>
		<g>
			<path style="fill:#FFBB16;" d="M373.664,294.872h-74.913c-15.841,0-28.682-12.842-28.682-28.682v-74.913
				c0-15.841,12.842-28.682,28.682-28.682h74.913c15.841,0,28.682,12.842,28.682,28.682v74.913
				C402.347,282.031,389.505,294.872,373.664,294.872z"/>
			<path style="fill:#FF931F;" d="M324.307,294.867h-25.561c-15.832,0-28.677-12.845-28.677-28.677v-74.923
				c0-15.832,12.844-28.677,28.677-28.677h25.561c-15.832,0-28.677,12.845-28.677,28.677v74.923
				C295.63,282.022,308.475,294.867,324.307,294.867z"/>
		</g>
		<g>
			<path style="fill:#FFBB16;" d="M219.065,478.386h-68.229c-17.687,0-32.024-14.338-32.024-32.024V345.511
				c0-17.687,14.338-32.024,32.024-32.024h68.229c17.687,0,32.024,14.338,32.024,32.024v100.851
				C251.089,464.048,236.751,478.386,219.065,478.386z"/>
		</g>
		<g>
			<path style="fill:#FF931F;" d="M177.951,478.391h-27.11c-17.69,0-32.03-14.34-32.03-32.02v-100.86
				c0-17.68,14.34-32.02,32.03-32.02h27.11c-17.68,0-32.02,14.34-32.02,32.02v100.86
				C145.931,464.051,160.271,478.391,177.951,478.391z"/>
		</g>
		<g>
			<path style="fill:#FFBB16;" d="M370.322,478.386h-68.229c-17.687,0-32.024-14.338-32.024-32.024V345.511
				c0-17.687,14.338-32.024,32.024-32.024h68.229c17.687,0,32.024,14.338,32.024,32.024v100.851
				C402.347,464.048,388.009,478.386,370.322,478.386z"/>
		</g>
		<g>
			<path style="fill:#FF931F;" d="M329.209,478.391h-27.11c-17.69,0-32.03-14.34-32.03-32.02v-100.86
				c0-17.68,14.34-32.02,32.03-32.02h27.11c-17.68,0-32.02,14.34-32.02,32.02v100.86
				C297.189,464.051,311.529,478.391,329.209,478.391z"/>
		</g>
		<g>
			<g>
				<g>
					<path style="fill:#FFBB16;" d="M63.892,204.993h-18.57c-8.097,0-14.661-6.564-14.661-14.661v0
						c0-8.097,6.564-14.661,14.661-14.661h18.57c8.097,0,14.661,6.564,14.661,14.661v0
						C78.552,198.429,71.988,204.993,63.892,204.993z"/>
					<path style="fill:#FF931F;" d="M61.391,204.993h-16.06c-8.1,0-14.67-6.56-14.67-14.66c0-4.04,1.64-7.71,4.3-10.36
						c2.65-2.66,6.32-4.3,10.37-4.3h16.06c-4.05,0-7.71,1.64-10.37,4.3c-2.65,2.65-4.29,6.32-4.29,10.36
						C46.731,198.433,53.291,204.993,61.391,204.993z"/>
				</g>
				<g>
					<path style="fill:#FFBB16;" d="M63.892,260.287h-18.57c-8.097,0-14.661-6.564-14.661-14.661v0
						c0-8.097,6.564-14.661,14.661-14.661h18.57c8.097,0,14.661,6.564,14.661,14.661v0
						C78.552,253.724,71.988,260.287,63.892,260.287z"/>
					<path style="fill:#FF931F;" d="M61.391,260.287h-16.06c-8.1,0-14.67-6.56-14.67-14.66c0-4.04,1.64-7.71,4.3-10.36
						c2.65-2.66,6.32-4.3,10.37-4.3h16.06c-4.05,0-7.71,1.64-10.37,4.3c-2.65,2.65-4.29,6.32-4.29,10.36
						C46.731,253.727,53.291,260.287,61.391,260.287z"/>
				</g>
				<g>
					<path style="fill:#FFBB16;" d="M63.892,315.582h-18.57c-8.097,0-14.661-6.564-14.661-14.661v0
						c0-8.097,6.564-14.661,14.661-14.661h18.57c8.097,0,14.661,6.564,14.661,14.661v0
						C78.552,309.018,71.988,315.582,63.892,315.582z"/>
					<path style="fill:#FF931F;" d="M61.391,315.581h-16.06c-8.1,0-14.67-6.56-14.67-14.66c0-4.04,1.64-7.71,4.3-10.36
						c2.65-2.66,6.32-4.3,10.37-4.3h16.06c-4.05,0-7.71,1.64-10.37,4.3c-2.65,2.65-4.29,6.32-4.29,10.36
						C46.731,309.021,53.291,315.581,61.391,315.581z"/>
				</g>
				<g>
					<path style="fill:#FFBB16;" d="M63.892,370.876h-18.57c-8.097,0-14.661-6.564-14.661-14.661v0
						c0-8.097,6.564-14.661,14.661-14.661h18.57c8.097,0,14.661,6.564,14.661,14.661v0
						C78.552,364.312,71.988,370.876,63.892,370.876z"/>
					<path style="fill:#FF931F;" d="M61.391,370.876h-16.06c-8.1,0-14.67-6.56-14.67-14.66c0-4.04,1.64-7.71,4.3-10.36
						c2.65-2.66,6.32-4.3,10.37-4.3h16.06c-4.05,0-7.71,1.64-10.37,4.3c-2.65,2.65-4.29,6.32-4.29,10.36
						C46.731,364.316,53.291,370.876,61.391,370.876z"/>
				</g>
			</g>
			<g>
				<g>
					<path style="fill:#FFBB16;" d="M466.679,204.993h-18.57c-8.097,0-14.661-6.564-14.661-14.661v0
						c0-8.097,6.564-14.661,14.661-14.661h18.57c8.097,0,14.661,6.564,14.661,14.661v0
						C481.339,198.429,474.775,204.993,466.679,204.993z"/>
					<path style="fill:#FF931F;" d="M464.178,204.993h-16.06c-8.1,0-14.67-6.56-14.67-14.66c0-4.04,1.64-7.71,4.3-10.36
						c2.65-2.66,6.32-4.3,10.37-4.3h16.06c-4.05,0-7.71,1.64-10.37,4.3c-2.65,2.65-4.29,6.32-4.29,10.36
						C449.518,198.433,456.078,204.993,464.178,204.993z"/>
				</g>
				<g>
					<path style="fill:#FFBB16;" d="M466.679,260.287h-18.57c-8.097,0-14.661-6.564-14.661-14.661v0
						c0-8.097,6.564-14.661,14.661-14.661h18.57c8.097,0,14.661,6.564,14.661,14.661v0
						C481.339,253.724,474.775,260.287,466.679,260.287z"/>
					<path style="fill:#FF931F;" d="M464.178,260.287h-16.06c-8.1,0-14.67-6.56-14.67-14.66c0-4.04,1.64-7.71,4.3-10.36
						c2.65-2.66,6.32-4.3,10.37-4.3h16.06c-4.05,0-7.71,1.64-10.37,4.3c-2.65,2.65-4.29,6.32-4.29,10.36
						C449.518,253.727,456.078,260.287,464.178,260.287z"/>
				</g>
				<g>
					<path style="fill:#FFBB16;" d="M466.679,315.582h-18.57c-8.097,0-14.661-6.564-14.661-14.661v0
						c0-8.097,6.564-14.661,14.661-14.661h18.57c8.097,0,14.661,6.564,14.661,14.661v0
						C481.339,309.018,474.775,315.582,466.679,315.582z"/>
					<path style="fill:#FF931F;" d="M464.178,315.581h-16.06c-8.1,0-14.67-6.56-14.67-14.66c0-4.04,1.64-7.71,4.3-10.36
						c2.65-2.66,6.32-4.3,10.37-4.3h16.06c-4.05,0-7.71,1.64-10.37,4.3c-2.65,2.65-4.29,6.32-4.29,10.36
						C449.518,309.021,456.078,315.581,464.178,315.581z"/>
				</g>
				<g>
					<path style="fill:#FFBB16;" d="M466.679,370.876h-18.57c-8.097,0-14.661-6.564-14.661-14.661v0
						c0-8.097,6.564-14.661,14.661-14.661h18.57c8.097,0,14.661,6.564,14.661,14.661v0
						C481.339,364.312,474.775,370.876,466.679,370.876z"/>
					<path style="fill:#FF931F;" d="M464.178,370.876h-16.06c-8.1,0-14.67-6.56-14.67-14.66c0-4.04,1.64-7.71,4.3-10.36
						c2.65-2.66,6.32-4.3,10.37-4.3h16.06c-4.05,0-7.71,1.64-10.37,4.3c-2.65,2.65-4.29,6.32-4.29,10.36
						C449.518,364.316,456.078,370.876,464.178,370.876z"/>
				</g>
			</g>
		</g>
	</g>
</g>
<g>
</g>
<g>
</g>
<g>
</g>
<g>
</g>
<g>
</g>
<g>
</g>
<g>
</g>
<g>
</g>
<g>
</g>
<g>
</g>
<g>
</g>
<g>
</g>
<g>
</g>
<g>
</g>
<g>
</g>
</svg>
