<svg id="Capa_1" enable-background="new 0 0 512 512" height="512" viewBox="0 0 512 512" width="512" xmlns="http://www.w3.org/2000/svg"><g><path d="m512 256c0 101.092-58.597 188.498-143.678 230.107-3.872 1.894-76.63-15.107-112.322-15.107s-108.45 17-112.322 15.107c-85.081-41.608-143.678-129.015-143.678-230.107 0-80.807 37.44-152.87 95.92-199.787 2.857-2.292 319.926-.188 320.161 0 58.479 46.917 95.919 118.98 95.919 199.787z" fill="#f44545"/><path d="m428.009 332.964-59.687 153.143c-2.927 1.726-12.358 5.648-14.102 6.373-30.245 12.577-63.422 19.52-98.22 19.52-36.805 0-71.796-7.767-103.423-21.751-3.005-1.593-5.972-3.254-8.899-4.98l-59.687-152.305c-29.231-74.589-24.304-203.69 11.929-276.751 43.839-35.172 99.502-56.213 160.08-56.213s116.241 21.041 160.08 56.213c36.233 73.061 41.16 202.162 11.929 276.751z" fill="#faa68e"/><path d="m115.849 348.597 53.413 148.334c-5.656-2.037-15.985-5.602-25.584-10.825l-59.687-153.142c-19.548-49.881-23.82-124.14-13.669-189.715 1.48-9.562 3.267-18.94 5.358-28.03 1.766-7.676 3.748-15.147 5.946-22.352 2.202-7.219 4.62-14.171 7.253-20.793 2.198-5.529 4.545-10.828 7.042-15.861 7.558-6.064 15.468-11.707 23.693-16.896-31.283 90.037-33.344 227.135-3.765 309.28zm140.151-104.597c-6.443 0-11.665 67.683-11.665 116.818 0 36.506 2.883 113.813 7.007 151.14 1.549.028 3.102.042 4.658.042s3.109-.014 4.658-.042c4.124-37.328 7.007-114.634 7.007-151.14 0-49.135-5.222-116.818-11.665-116.818z" fill="#e09380"/><path d="m129.998 131.579c0 6.206-3.641 11.848-9.315 14.36-19.07 8.44-37.203 18.61-54.201 30.31.845-10.626 2.05-21.173 3.613-31.51.041-.074.078-.142.119-.216 11.159-9.637 23.075-18.422 35.647-26.252 10.517-6.552 24.137.917 24.137 13.308z" fill="#07a9f0"/><path d="m445.519 176.248c-53.88-37.086-119.164-58.795-189.519-58.795-51.681 0-100.626 11.715-144.324 32.634-9.923 4.75-21.399-2.552-21.399-13.554 0-4.949 2.425-9.604 6.523-12.378 45.427-30.745 100.216-48.702 159.2-48.702 71.015 0 135.951 26.03 185.786 69.069.041.075.079.142.12.217 1.563 10.337 2.768 20.883 3.613 31.509z" fill="#40c1fa"/><path d="m57.122 186.886c.409-.978.826-1.941 1.253-2.891 2.816-6.258 7.046-11.766 12.248-16.242 49.782-42.828 114.556-68.715 185.377-68.715 72.973 0 139.526 27.485 189.873 72.667 1.843 1.654 3.386 3.615 4.558 5.795 1.59 2.96 3.071 6.093 4.447 9.386 49.401 118.213-101.364 217.891-191.959 127.296l-6.919-6.92-6.919 6.919c-90.595 90.595-241.36-9.082-191.959-127.295z" fill="#2476ed"/><path d="m181.093 348.476c-80.764 10.067-162.152-70.225-123.971-161.59.509-1.219 1.033-2.416 1.571-3.591 2.56-5.586 6.236-10.599 10.874-14.629 9.312-8.091 19.156-15.586 29.471-22.426-.484 1.326-.956 2.674-1.417 4.044-31.714 94.413 19.072 179.321 83.472 198.192zm67.988-34.294c3.821-3.821 10.017-3.821 13.838 0 1.201 1.201 2.414 2.369 3.635 3.504-.933-19.111 9.268-60.042 7.445-73.686-1.822-13.644-14.668 9-17 9-2.202 0-15.243-21.374-17-9-1.964 13.828 6.431 53.514 5.445 73.686 1.223-1.135 2.435-2.303 3.637-3.504z" fill="#0a66ea"/><path d="m512 244c0 2.761-2.239 5-5 5h-28c-2.761 0-5-2.239-5-5s2.239-5 5-5h28c2.761 0 5 2.239 5 5zm-32.536 19.393c-1.953-1.953-5.118-1.953-7.071 0-1.952 1.953-1.952 5.118 0 7.071l14.142 14.142c1.953 1.953 5.118 1.953 7.071 0 1.952-1.952 1.952-5.118 0-7.071zm0-38.787 14.142-14.142c1.952-1.953 1.952-5.118 0-7.071-1.953-1.953-5.118-1.953-7.071 0l-14.142 14.142c-1.952 1.953-1.952 5.118 0 7.071 1.953 1.953 5.119 1.953 7.071 0zm-441.464 19.394c0-2.761-2.239-5-5-5h-28c-2.761 0-5 2.239-5 5s2.239 5 5 5h28c2.761 0 5-2.239 5-5zm-12.536-40.607c-1.953-1.953-5.119-1.953-7.071 0-1.953 1.953-1.953 5.118 0 7.071l14.142 14.142c1.953 1.953 5.119 1.953 7.071 0 1.953-1.952 1.953-5.118 0-7.071zm7.072 60-14.142 14.142c-1.953 1.953-1.953 5.118 0 7.071s5.119 1.953 7.071 0l14.142-14.142c1.953-1.953 1.953-5.118 0-7.071-1.953-1.952-5.119-1.952-7.071 0z" fill="#fff5f5"/></g></svg>