<svg viewBox="0 0 512 512" xmlns="http://www.w3.org/2000/svg"><path d="m512 256c0 141.386719-114.613281 256-256 256s-256-114.613281-256-256 114.613281-256 256-256 256 114.613281 256 256zm0 0" fill="#fe3745"/><g fill="#ea2a3d"><path d="m203.472656 83c0 8.46875-6.863281 15.335938-15.332031 15.335938h-62.332031c-8.46875 0-15.332032 6.863281-15.332032 15.332031s6.863282 15.332031 15.332032 15.332031h165.332031c8.46875 0 15.332031-6.863281 15.332031-15.332031s6.867188-15.332031 15.335938-15.332031h39.332031c8.46875 0 15.332031-6.867188 15.332031-15.335938s-6.863281-15.332031-15.332031-15.332031h-91.332031c-8.46875 0-15.335938-6.863281-15.335938-15.332031s-6.863281-15.332032-15.332031-15.332032h-75.332031c-8.46875 0-15.332032 6.863282-15.332032 15.332032s6.863282 15.332031 15.332032 15.332031h24.332031c8.46875-.003907 15.332031 6.863281 15.332031 15.332031zm0 0"/><path d="m475.894531 387.132812h-3.179687c-8.46875 0-15.332032-6.867187-15.332032-15.335937s-6.863281-15.332031-15.332031-15.332031h-175.335937c-8.46875 0-15.332032 6.863281-15.332032 15.332031s6.863282 15.335937 15.332032 15.335937h62.335937c8.464844 0 15.332031 6.863282 15.332031 15.332032s-6.867187 15.332031-15.332031 15.332031h-24.335937c-8.46875 0-15.332032 6.863281-15.332032 15.332031s6.863282 15.335938 15.332032 15.335938h75.335937c8.464844 0 15.332031-6.867188 15.332031-15.335938s6.863282-15.332031 15.332032-15.332031h43.667968c7.886719-9.660156 15.082032-19.90625 21.511719-30.664063zm0 0"/><path d="m213.421875 212.058594h-39.332031c-8.46875 0-15.335938-6.863282-15.335938-15.332032s-6.863281-15.332031-15.332031-15.332031h-132.363281c-7.183594 23.605469-11.058594 48.652344-11.058594 74.605469 0 5.847656.214844 11.644531.601562 17.394531h80.820313c8.46875 0 15.332031-6.867187 15.332031-15.332031 0-8.46875 6.867188-15.335938 15.335938-15.335938h101.332031c8.46875 0 15.332031-6.863281 15.332031-15.332031s-6.863281-15.335937-15.332031-15.335937zm0 0"/></g><path d="m375.214844 101.128906c.535156 2.40625 1.207031 4.792969 1.910156 7.160156.707031 2.375 1.476562 4.734376 2.304688 7.070313.273437.773437.554687 1.542969.839843 2.308594.140625.382812.285157.765625.433594 1.148437.070313.1875.140625.371094.210937.558594.058594.148438.214844.394531.214844.554688 2.070313 5.1875 4.699219 10.953124 8.125 16.96875 3.421875 6.015624 7.5625 12.316406 12.574219 18.5625 1.28125 1.554687 2.597656 3.1875 3.910156 4.648437l.992188 1.132813.5.570312.550781.609375c.679688.75 1.363281 1.503906 2.050781 2.261719 2.746094 3.039062 5.554688 6.140625 8.410157 9.296875 11.421874 12.621093 23.605468 26.085937 35.785156 39.546875l4.570312 5.046875c.179688.203125.398438.433593.546875.617187l.425781.542969.851563 1.074219c.273437.363281.601563.683594.828125 1.078125l.730469 1.144531c1.945312 3.035156 3.328125 6.347656 4.117187 9.742188 1.515625 6.835937.527344 13.859374-2.191406 19.582031-.378906.695312-.757812 1.386719-1.136719 2.074219-.09375.171874-.175781.347656-.277343.511718l-.339844.480469-.660156.957031c-.214844.308594-.425782.652344-.640626.9375l-.625.703125-.585937.714844c-.105469.125-.175781.230469-.296875.371094l-.542969.546875c-.726562.722656-1.445312 1.445312-2.160156 2.160156l-.066406.066406c-.355469.375.410156-.429687.304687-.324218l-.140625.125-.84375.761718-1.117187 1.011719c-1.480469 1.34375-2.949219 2.667969-4.394532 3.976563-5.785156 5.234374-11.253906 10.183593-16.304687 14.753906-20.191406 18.273437-33.65625 30.457031-33.65625 30.457031l20.484375 20.484375s12.183594-13.464844 30.457031-33.660156c4.570313-5.046875 9.519531-10.515625 14.753907-16.300782 1.308593-1.445312 2.632812-2.914062 3.976562-4.398437.792969-.871094 1.589844-1.75 2.394531-2.632813.640625-.785156 1.285157-1.574218 1.933594-2.367187l.484375-.597656.625-.863281c.414062-.589844.828125-1.183594 1.242188-1.777344.40625-.597656.808593-1.199219 1.214843-1.800782.351563-.585937.644531-1.15625.964844-1.738281l.9375-1.746093.464844-.878907c.140625-.296875.265625-.605469.398437-.910156.515625-1.226563 1.03125-2.449219 1.519532-3.691406 3.5625-10.070313 3.796874-21.472657.316406-31.824219-1.769532-5.15625-4.4375-10.015625-7.824219-14.257812l-1.28125-1.585938c-.414063-.535156-.925781-.988281-1.386719-1.484375l-1.421875-1.445313-.714843-.71875c-.234376-.230468-.425782-.390624-.644532-.589843l-5.046875-4.570313c-13.460937-12.179687-26.925781-24.363281-39.546875-35.785156-3.15625-2.855469-6.257812-5.664062-9.292968-8.410156-.761719-.6875-1.515626-1.371094-2.265626-2.050782l-.519531-.464843-1.652343-1.546875c-1.503907-1.371094-2.800782-2.703125-4.144532-4.027344-5.320312-5.421875-9.898437-11.058594-13.769531-16.519531-3.875-5.460938-6.988281-10.796875-9.515625-15.65625-1.152344-2.21875-2.214844-4.480469-3.21875-6.773438-1.007812-2.296875-1.957031-4.621093-2.898438-6.949219-.574218-1.425781-1.148437-2.855468-1.726562-4.28125-.03125-.078124-.0625-.15625-.121094-.21875s-.144531-.105468-.226562-.085937c-.054688.015625-.101563.054687-.132813.101563-.09375.140624-.066406.324218-.023437.511718zm0 0" fill="#d9eafc"/><path d="m175.847656 300.492188c2.410156.539062 4.792969 1.207031 7.160156 1.914062 2.375.707031 4.734376 1.476562 7.070313 2.304688.773437.273437 1.542969.550781 2.308594.839843.382812.140625.765625.285157 1.148437.429688.1875.074219.371094.144531.558594.214843.148438.058594.394531.214844.554688.214844 5.1875 2.070313 10.953124 4.699219 16.96875 8.121094 6.015624 3.421875 12.316406 7.5625 18.5625 12.578125 1.554687 1.28125 3.1875 2.59375 4.648437 3.910156l1.136719.992188.566406.5.609375.550781c.75.675781 1.503906 1.363281 2.261719 2.046875 3.039062 2.75 6.140625 5.558594 9.296875 8.414063 12.621093 11.417968 26.085937 23.601562 39.546875 35.785156l5.046875 4.566406c.203125.179688.433593.402344.617187.550781l.542969.425781 1.074219.851563c.363281.269531.683594.597656 1.078125.828125l1.144531.730469c3.035156 1.941406 6.347656 3.328125 9.742188 4.117187 6.835937 1.511719 13.859374.527344 19.582031-2.191406.695312-.378906 1.386719-.757812 2.074219-1.136719.171874-.09375.347656-.179687.511718-.28125l.480469-.335937.957031-.660156c.308594-.21875.652344-.429688.9375-.640626l.703125-.625.714844-.589843c.125-.101563.230469-.171875.371094-.296875l.546875-.542969c.722656-.722656 1.445312-1.441406 2.160156-2.15625l.066406-.066406c.375-.355469-.429687.40625-.324218.300781l.125-.140625.253906-.28125.507812-.558594 1.011719-1.117187c1.34375-1.484375 2.667969-2.949219 3.976563-4.394532 5.234374-5.785156 10.183593-11.253906 14.753906-16.304687 18.273437-20.195313 30.457031-33.65625 30.457031-33.65625l20.484375 20.484375s-13.464844 12.179688-33.660156 30.457031c-5.046875 4.566407-10.515625 9.515625-16.300782 14.75-1.445312 1.308594-2.914062 2.636719-4.398437 3.980469-.871094.792969-1.75 1.589844-2.632813 2.390625-.785156.640625-1.574218 1.285156-2.367187 1.933594l-.597656.488281-.863281.621094c-.589844.414062-1.179688.828125-1.777344 1.246094-.597656.402343-1.195313.808593-1.800782 1.214843-.585937.351563-1.15625.644531-1.738281.964844l-1.746093.9375-.875.464844c-.300782.140625-.609376.261719-.914063.394531-1.226563.515625-2.449219 1.035156-3.691406 1.523438-10.070313 3.558593-21.472657 3.796874-31.824219.3125-5.15625-1.765626-10.015625-4.433594-14.257812-7.824219l-1.585938-1.277344c-.535156-.414063-.988281-.925781-1.484375-1.386719l-1.445313-1.425781-.71875-.710937c-.230468-.234376-.390624-.429688-.589843-.644532l-4.566407-5.046875c-12.183593-13.460937-24.367187-26.925781-35.789062-39.546875-2.855469-3.15625-5.664062-6.257812-8.410156-9.296875-.6875-.757812-1.371094-1.511719-2.050782-2.265625l-.464843-.515625-.515625-.554687-1.03125-1.097656c-1.371094-1.503907-2.703125-2.800782-4.027344-4.144532-5.421875-5.320312-11.058594-9.898437-16.519531-13.769531-5.460938-3.875-10.796875-6.988281-15.65625-9.515625-2.21875-1.152344-4.480469-2.214844-6.773438-3.21875-2.296875-1.007812-4.621093-1.960938-6.949219-2.898438-1.425781-.578124-2.855468-1.152343-4.28125-1.726562-.078124-.03125-.15625-.066406-.21875-.121094-.0625-.058594-.105468-.148437-.085937-.226562.015625-.054688.054687-.101563.105469-.132813.136718-.09375.320312-.066406.507812-.027343zm0 0" fill="#c3ddf4"/><path d="m426.960938 322.3125-29.925782 29.925781-37.5-37.496093-283.152344-304.3125c-2.277343-2.445313-2.207031-6.25.152344-8.613282 2.363282-2.359375 6.167969-2.429687 8.613282-.15625l304.316406 283.15625zm0 0" fill="#d9eafc"/><path d="m76.535156 1.816406c-2.359375 2.363282-2.429687 6.167969-.152344 8.613282l283.152344 304.3125 37.496094 37.496093 14.964844-14.960937zm0 0" fill="#c3ddf4"/><path d="m484.082031 372.371094-35.25-35.25c-7.378906-7.378906-7.378906-19.34375 0-26.726563 1.949219-1.949219 1.949219-5.113281 0-7.0625l-18.515625-18.515625c-1.949218-1.953125-5.113281-1.953125-7.0625 0-7.382812 7.378906-19.347656 7.378906-26.726562 0-1.953125-1.953125-5.113282-1.953125-7.066406 0l-29.925782 29.925782c-1.949218 1.949218-1.949218 5.113281 0 7.066406 7.378906 7.378906 7.378906 19.34375 0 26.722656-1.949218 1.953125-1.949218 5.113281 0 7.066406l18.515625 18.515625c1.953125 1.949219 5.113281 1.949219 7.066407 0 7.378906-7.382812 19.34375-7.382812 26.722656 0l3.53125 3.53125 39.519531 39.515625c11.210937-13.8125 21.019531-28.8125 29.191406-44.789062zm0 0" fill="#232323"/><path d="m445.238281 315.414062c-2.363281 4.785157-2.570312 10.371094-.621093 15.300782l-35.164063 4.023437-4.023437 35.160157c-4.925782-1.945313-10.511719-1.738282-15.296876.621093l9.515626-83.175781c4.484374 2.902344 9.933593 3.699219 14.957031 2.417969l-3.382813 29.539062zm0 0"/><path d="m484.078125 372.371094-7.542969-7.542969-51.617187 22.359375 11.503906 11.503906 43.707031-18.921875c1.351563-2.445312 2.675782-4.90625 3.949219-7.398437zm0 0"/><path d="m336.152344 300.492188c-2.410156.539062-4.792969 1.207031-7.160156 1.914062-2.375.707031-4.734376 1.476562-7.070313 2.304688-.773437.273437-1.542969.550781-2.308594.839843-.382812.140625-.765625.285157-1.148437.429688-.1875.074219-.371094.144531-.558594.214843-.148438.058594-.394531.214844-.554688.214844-5.1875 2.070313-10.953124 4.699219-16.96875 8.121094-6.015624 3.421875-12.316406 7.5625-18.5625 12.578125-1.554687 1.28125-3.1875 2.59375-4.648437 3.910156l-1.136719.992188-.566406.5-.609375.550781c-.75.675781-1.503906 1.363281-2.261719 2.046875-3.039062 2.75-6.140625 5.558594-9.296875 8.414063-12.621093 11.417968-26.085937 23.601562-39.546875 35.785156l-5.046875 4.566406c-.203125.179688-.433593.402344-.617187.550781l-.542969.425781-1.074219.851563c-.363281.269531-.683594.597656-1.078125.828125l-1.144531.730469c-3.035156 1.941406-6.347656 3.328125-9.742188 4.117187-6.835937 1.511719-13.859374.527344-19.582031-2.191406-.695312-.378906-1.386719-.757812-2.074219-1.136719-.171874-.09375-.347656-.179687-.511718-.28125l-.480469-.335937-.957031-.660156c-.308594-.21875-.652344-.429688-.9375-.640626l-.703125-.625-.714844-.589843c-.125-.101563-.230469-.171875-.371094-.296875l-.546875-.542969c-.722656-.722656-1.445312-1.441406-2.160156-2.15625l-.066406-.066406c-.375-.355469.429687.40625.324218.300781l-.125-.140625-.253906-.28125-.507812-.558594-1.011719-1.117187c-1.34375-1.484375-2.667969-2.949219-3.976563-4.394532-5.234374-5.785156-10.183593-11.253906-14.753906-16.304687-18.273437-20.195313-30.457031-33.65625-30.457031-33.65625l-20.484375 20.484375s13.464844 12.179688 33.660156 30.457031c5.046875 4.566407 10.515625 9.515625 16.300782 14.75 1.445312 1.308594 2.914062 2.636719 4.398437 3.980469.871094.792969 1.75 1.589844 2.632813 2.390625.785156.640625 1.574218 1.285156 2.367187 1.933594l.597656.488281.863281.621094c.589844.414062 1.179688.828125 1.777344 1.246094.597656.402343 1.195313.808593 1.800782 1.214843.585937.351563 1.15625.644531 1.738281.964844l1.746093.9375.875.464844c.300782.140625.609376.261719.914063.394531 1.226563.515625 2.449219 1.035156 3.691406 1.523438 10.070313 3.558593 21.472657 3.796874 31.824219.3125 5.15625-1.765626 10.015625-4.433594 14.257812-7.824219l1.585938-1.277344c.535156-.414063.988281-.925781 1.484375-1.386719l1.445313-1.425781.71875-.710937c.230468-.234376.390624-.429688.589843-.644532l4.566407-5.046875c12.183593-13.460937 24.367187-26.925781 35.789062-39.546875 2.855469-3.15625 5.664062-6.257812 8.410156-9.296875.6875-.757812 1.371094-1.511719 2.050782-2.265625l.464843-.515625.515625-.554687 1.03125-1.097656c1.371094-1.503907 2.703125-2.800782 4.027344-4.144532 5.421875-5.320312 11.058594-9.898437 16.519531-13.769531 5.460938-3.875 10.796875-6.988281 15.65625-9.515625 2.21875-1.152344 4.480469-2.214844 6.773438-3.21875 2.296875-1.007812 4.621093-1.960938 6.949219-2.898438 1.425781-.578124 2.855468-1.152343 4.28125-1.726562.078124-.03125.15625-.066406.21875-.121094.0625-.058594.105468-.148437.085937-.226562-.015625-.054688-.054687-.101563-.105469-.132813-.136718-.09375-.320312-.066406-.507812-.027343zm0 0" fill="#d9eafc"/><path d="m136.785156 101.128906c-.535156 2.40625-1.207031 4.792969-1.910156 7.160156-.707031 2.375-1.476562 4.734376-2.304688 7.070313-.273437.773437-.554687 1.542969-.839843 2.308594-.140625.382812-.285157.765625-.433594 1.148437-.070313.1875-.140625.371094-.210937.558594-.058594.148438-.214844.394531-.214844.554688-2.070313 5.1875-4.699219 10.953124-8.125 16.96875-3.421875 6.015624-7.5625 12.316406-12.574219 18.5625-1.28125 1.554687-2.597656 3.1875-3.910156 4.648437l-.992188 1.132813-.5.570312-.550781.609375c-.679688.75-1.363281 1.503906-2.050781 2.261719-2.746094 3.039062-5.554688 6.140625-8.410157 9.296875-11.421874 12.621093-23.605468 26.085937-35.785156 39.546875l-4.570312 5.046875c-.179688.203125-.398438.433593-.546875.617187l-.425781.542969-.851563 1.074219c-.273437.363281-.601563.683594-.828125 1.078125l-.730469 1.144531c-1.945312 3.035156-3.328125 6.347656-4.117187 9.742188-1.515625 6.835937-.527344 13.859374 2.191406 19.582031.378906.695312.757812 1.386719 1.136719 2.074219.09375.171874.175781.347656.277343.511718l.339844.480469.660156.957031c.214844.308594.425782.652344.640626.9375l.625.703125.585937.714844c.105469.125.175781.230469.296875.371094l.542969.546875c.726562.722656 1.445312 1.445312 2.160156 2.160156l.066406.066406c.355469.375-.410156-.429687-.304687-.324218l.140625.125.84375.761718 1.117187 1.011719c1.480469 1.34375 2.949219 2.667969 4.394532 3.976563 5.785156 5.234374 11.253906 10.183593 16.304687 14.753906 20.191406 18.273437 33.65625 30.457031 33.65625 30.457031l-20.484375 20.484375s-12.183594-13.464844-30.457031-33.660156c-4.570313-5.046875-9.519531-10.515625-14.753907-16.300782-1.308593-1.445312-2.632812-2.914062-3.976562-4.398437-.792969-.871094-1.589844-1.75-2.394531-2.632813-.640625-.785156-1.285157-1.574218-1.933594-2.367187l-.484375-.597656-.625-.863281c-.414062-.589844-.828125-1.183594-1.242188-1.777344-.40625-.597656-.808593-1.199219-1.214843-1.800782-.351563-.585937-.644531-1.15625-.964844-1.738281l-.9375-1.746093-.464844-.878907c-.140625-.296875-.261719-.605469-.394531-.910156-.515625-1.226563-1.035156-2.449219-1.523438-3.691406-3.558593-10.070313-3.796874-21.472657-.316406-31.824219 1.769532-5.15625 4.4375-10.015625 7.828125-14.257812l1.277344-1.585938c.414063-.535156.925781-.988281 1.386719-1.484375l1.421875-1.445313.714843-.71875c.234376-.230468.429688-.390624.644532-.589843l5.046875-4.570313c13.460937-12.179687 26.925781-24.363281 39.546875-35.785156 3.15625-2.855469 6.257812-5.664062 9.296875-8.410156.757812-.6875 1.511719-1.371094 2.265625-2.050782l.515625-.464843 1.652343-1.546875c1.503907-1.371094 2.800782-2.703125 4.144532-4.027344 5.320312-5.421875 9.898437-11.058594 13.769531-16.519531 3.875-5.460938 6.988281-10.796875 9.515625-15.65625 1.152344-2.21875 2.214844-4.480469 3.21875-6.773438 1.007812-2.296875 1.957031-4.621093 2.898438-6.949219.578124-1.425781 1.148437-2.855468 1.726562-4.28125.03125-.078124.0625-.15625.121094-.21875s.144531-.105468.226562-.085937c.054688.015625.101563.054687.132813.101563.09375.140624.066406.324218.023437.511718zm0 0" fill="#c3ddf4"/><path d="m114.96875 352.238281-29.929688-29.925781 37.496094-37.496094 304.316406-283.15625c2.445313-2.273437 6.25-2.203125 8.613282.15625 2.359375 2.363282 2.429687 6.167969.152344 8.613282l-283.152344 304.3125zm0 0" fill="#d9eafc"/><path d="m435.464844 1.816406c-2.363282-2.359375-6.167969-2.429687-8.613282-.15625l-304.316406 283.15625-37.496094 37.496094 14.964844 14.964844zm0 0" fill="#c3ddf4"/><path d="m152.464844 321.808594c1.949218-1.949219 1.949218-5.113282 0-7.066406l-29.929688-29.925782c-1.949218-1.949218-5.113281-1.949218-7.0625 0-7.378906 7.382813-19.34375 7.382813-26.726562 0-1.949219-1.949218-5.113282-1.949218-7.0625 0l-18.515625 18.515625c-1.953125 1.953125-1.953125 5.113281 0 7.066407 7.378906 7.378906 7.378906 19.34375 0 26.722656l-3.53125 3.535156-31.71875 31.714844c8.171875 15.976562 17.980469 30.976562 29.191406 44.792968l39.515625-39.519531 3.535156-3.53125c7.378906-7.378906 19.34375-7.378906 26.722656 0 1.953126 1.953125 5.113282 1.953125 7.066407 0l18.515625-18.515625c1.949218-1.949218 1.949218-5.113281 0-7.0625-7.382813-7.382812-7.382813-19.347656 0-26.726562zm0 0" fill="#232323"/><path d="m121.867188 370.519531c-4.789063-2.363281-10.371094-2.570312-15.300782-.621093l-4.023437-35.164063-35.160157-4.023437c1.945313-4.929688 1.738282-10.511719-.621093-15.296876l83.175781 9.515626c-2.902344 4.484374-3.699219 9.933593-2.417969 14.957031l-29.539062-3.382813zm0 0"/><path d="m72.453125 401.816406-11.511719 11.511719-22.351562-51.625 11.503906-11.503906zm0 0"/></svg>