<svg id="Capa_1" enable-background="new 0 0 512 512" height="512" viewBox="0 0 512 512" width="512" xmlns="http://www.w3.org/2000/svg"><g><g><path d="m437.014 74.981c-99.974-99.974-262.064-99.974-362.039 0-86.538 86.538-98.151 219.61-34.874 318.658h45.541v53.444c100.523 89.777 254.877 86.431 351.371-10.063 99.975-99.975 99.975-262.065.001-362.039z" fill="#6eba3b"/></g><g><circle cx="285.995" cy="226" fill="#67ad31" r="200"/></g><g><g><path d="m334.913 28.117c-7.81-7.811-20.474-7.811-28.284 0l-172.422 172.422c-20.629 20.629-32.218 48.608-32.218 77.782v36.863c0 10.609-4.214 20.783-11.716 28.284l-50.171 50.171c9.825 15.379 21.438 29.945 34.874 43.381 3.48 3.48 7.042 6.826 10.668 10.063l54.14-54.185c20.621-20.628 32.206-48.602 32.206-77.769v-36.808c0-10.609 4.214-20.783 11.716-28.284l172.42-172.423c7.81-7.81 7.81-20.474 0-28.284z" fill="#ba6831"/></g><g><path d="m323.213 106.254c-8.018-8.018-16.144-15.753-24.343-23.229l-95.269 95.269c19.866 16.301 39.463 34.02 58.543 53.1 137.299 137.299 166.678 240.147 172.957 276.754.769 4.481 6.857 5.289 8.786 1.172 21.71-46.34 74.594-207.798-120.674-403.066z" fill="#fff"/></g><g><path d="m342.794 241.278c20.813-20.813 52.297-24.42 76.83-10.858-21.946-39.13-53.059-80.813-96.411-124.166-8.018-8.018-16.144-15.753-24.343-23.229l-95.269 95.269c19.866 16.301 39.463 34.02 58.543 53.1 24.345 24.345 45.282 47.6 63.314 69.602-4.638-20.831 1.129-43.511 17.336-59.718z" fill="#ddd"/></g><g><path d="m323.213 106.254c-8.018-8.018-16.143-15.753-24.343-23.229l-47.542 47.542s90.713 81.66 143.225 167.348c55.568 90.676 48.581 183.046 44.13 213.965 1.959.42 4.174-.361 5.205-2.561 21.709-46.339 74.593-207.797-120.675-403.065z" fill="#647892"/></g><g><path d="m419.624 230.42c-21.946-39.13-53.059-80.813-96.411-124.166-8.018-8.018-16.143-15.753-24.343-23.23l-47.542 47.542s50.824 45.754 98.409 104.701c20.455-15.364 47.947-16.976 69.887-4.847z" fill="#4f6984"/></g><g><path d="m334.913 28.117c-7.81-7.811-20.474-7.811-28.284 0l-172.422 172.421c-20.629 20.629-32.218 48.608-32.218 77.782v36.863c0 10.609-4.214 20.783-11.716 28.284l-50.171 50.171c6.286 9.839 13.299 19.346 21.063 28.434l53.857-53.857c7.501-7.501 11.716-17.676 11.716-28.284v-36.863c0-15.223 3.156-30.121 9.105-43.819 8.293-19.095 33.141-23.935 47.862-9.214l172.421-172.421c7.81-7.81 7.81-20.474 0-28.284z" fill="#a85822"/></g><g><path d="m345.519 95.292-56.569-56.569c-7.81-7.81-20.474-7.81-28.284 0l-103.158 103.159c-7.81 7.81-7.81 20.474 0 28.284l56.569 56.569c7.81 7.81 20.474 7.81 28.284 0l103.158-103.158c7.811-7.811 7.811-20.474 0-28.285z" fill="#647892"/></g><g><path d="m199.935 184.308 103.158-103.158c7.811-7.811 20.474-7.811 28.284 0l-42.427-42.426c-7.81-7.811-20.474-7.811-28.284 0l-103.158 103.158c-7.811 7.811-7.811 20.474 0 28.284l42.426 42.426c-7.81-7.81-7.81-20.474.001-28.284z" fill="#4f6984"/></g></g></g></svg>