<?xml version="1.0" encoding="iso-8859-1"?>
<!-- Generator: Adobe Illustrator 23.0.6, SVG Export Plug-In . SVG Version: 6.00 Build 0)  -->
<svg version="1.1" id="Capa_1" xmlns="http://www.w3.org/2000/svg" xmlns:xlink="http://www.w3.org/1999/xlink" x="0px" y="0px"
	 viewBox="0 0 512 512" style="enable-background:new 0 0 512 512;" xml:space="preserve">
<g>
	<path style="fill:#2F373B;" d="M512,256c0,37.79-8.19,73.67-22.9,105.95c-6,13.21-13.11,25.82-21.19,37.71
		c-0.31,0.47-0.63,0.93-0.96,1.4c-18.93,27.49-43.1,51.09-71.07,69.37c-1.06,0.7-2.12,1.38-3.19,2.06
		c-9.41,5.95-19.24,11.31-29.43,16.02c-8.68,4.01-17.62,7.55-26.8,10.58c-9.16,3.04-18.56,5.57-28.15,7.56
		C291.42,510.16,273.92,512,256,512c-18.16,0-35.88-1.89-52.97-5.49c-18.54-3.9-36.34-9.8-53.16-17.49
		c-10.59-4.82-20.8-10.36-30.56-16.53c-47.8-30.25-84.89-75.88-104.3-129.94C5.29,315.52,0,286.38,0,256C0,114.62,114.62,0,256,0
		S512,114.62,512,256z"/>
	<path style="fill:#E84D59;" d="M81.009,205.131c0,0-53.482-73.805-31.153-160.683c1.803-7.014,11.36-7.993,14.592-1.513
		c12.706,25.475,38.799,68.191,69.131,63.588c0,0-22.13-46.68-23.346-84.258c-0.208-6.419,8.529-8.555,11.368-2.794
		c13.336,27.064,40.626,74.475,74.434,89.984c0,0-8.98-16.992-4.462-42.138c1.143-6.363,9.662-7.737,12.749-2.057
		c11.024,20.283,32.562,54.338,55.98,61.136c0,0-37.121-56.746-37.199-113.758c-0.011-7.751,10.47-10.114,13.72-3.076
		c14.727,31.89,44.862,83.784,88.156,93.004c21.106,4.495,34.228-10.66,34.928-28.294c0.21-5.291,6.054-8.358,10.447-5.401
		c22.528,15.163,67.756,51.118,60.641,91.456c-9.416,53.382-144.804,78.297-144.804,78.297"/>
	<path style="fill:#E84D59;" d="M338.8,433.69c-7.96,45.13-122.42,66.19-122.42,66.19l-30.5-4.98l-36.01-5.88
		c-10.59-4.82-20.8-10.36-30.56-16.53c-6.82-4.31-13.41-8.94-19.77-13.87c-38.25-29.56-67.89-69.72-84.53-116.07
		c0.47-2.26,0.99-4.53,1.58-6.82c1.52-5.93,9.6-6.76,12.33-1.28c10.74,21.53,32.8,57.65,58.44,53.75c0,0-18.7-39.46-19.73-71.23
		c-0.18-5.42,7.21-7.23,9.61-2.36c11.27,22.88,34.34,62.96,62.92,76.07c0,0-7.59-14.36-3.77-35.62c0.97-5.38,8.17-6.54,10.78-1.74
		c9.32,17.15,27.53,45.94,47.32,51.69c0,0-31.38-47.98-31.44-96.17c-0.01-6.56,8.85-8.55,11.6-2.61
		c12.45,26.96,37.92,70.83,74.52,78.63c17.84,3.8,28.94-9.01,29.53-23.92c0.18-4.47,5.12-7.07,8.83-4.57
		C306.58,369.19,344.81,399.59,338.8,433.69z"/>
	<path style="fill:#E84D59;" d="M466.95,401.06c-6.69,9.7-14.02,18.92-21.94,27.59c-8.16,8.93-16.95,17.28-26.3,24.99
		c-7.28,6-14.9,11.61-22.83,16.79c-0.6-0.36-1.19-0.73-1.78-1.1c-47.8-30.25-84.89-75.88-104.3-129.94
		c0.47-2.26,0.99-4.53,1.58-6.82c1.52-5.93,9.6-6.76,12.33-1.28c10.74,21.53,32.8,57.65,58.44,53.75c0,0-18.7-39.46-19.73-71.23
		c-0.18-5.42,7.21-7.23,9.61-2.36c11.27,22.88,34.34,62.96,62.92,76.07c0,0-7.59-14.36-3.77-35.62c0.97-5.38,8.17-6.54,10.78-1.74
		C430.91,366.63,448.07,393.85,466.95,401.06z"/>
	<path style="fill:#E84D59;" d="M489.1,361.95c-6,13.21-13.11,25.82-21.19,37.71c-6.05-9.92-30.02-51.87-30.07-93.98
		c-0.01-6.56,8.85-8.55,11.6-2.61C457.44,320.4,470.83,344.73,489.1,361.95z"/>
	<path style="fill:#FFBB16;" d="M106.864,175.303c0,0-15.705-19.992-17.355-42.501c-0.367-5.004,5.836-7.604,9.095-3.788
		c11.496,13.464,34.4,35.174,62.566,35.174c27.747,0,24.234-22.273,19.135-36.543c-1.372-3.839,2.869-7.251,6.333-5.1
		c14.866,9.233,39.139,27.08,41.399,46.316c3.279,27.906,80.94,16.091,59.376-46.864c-4.229-10.451-7.979-19-11.004-25.586
		c-2.245-4.885,3.188-9.72,7.786-6.934c30.147,18.268,93.075,58.359,93.075,74.711c0,21.502-9.774,70.085-9.774,70.085
		l-218.932-3.285"/>
	<path style="fill:#FFBB16;" d="M445.01,428.65c-8.16,8.93-16.95,17.28-26.3,24.99c-0.57-4.1-1.63-8.48-3.22-13.14
		c-4.23-10.45-7.98-19-11.01-25.58c-2.24-4.89,3.19-9.72,7.79-6.94C421.15,413.37,432.88,420.64,445.01,428.65z"/>
	<path style="fill:#FFBB16;" d="M186.16,487.58c0,2.19-0.1,4.65-0.28,7.32l-36.01-5.88c-10.59-4.82-20.8-10.36-30.56-16.53
		c-6.82-4.31-13.41-8.94-19.77-13.87c-0.58-4.13-1.63-8.53-3.24-13.23c-4.23-10.45-7.98-19-11.01-25.59
		c-2.24-4.88,3.19-9.72,7.79-6.93C123.23,431.14,186.16,471.23,186.16,487.58z"/>
	<path style="fill:#F6F1F1;" d="M392.69,282.4v190.09C353.14,497.51,306.26,512,256,512s-97.14-14.49-136.69-39.51V282.4H392.69z"/>
	<rect x="119.312" y="282.402" style="fill:#D0E2E7;" width="273.375" height="57.897"/>
	<path style="fill:#D0E2E7;" d="M203.03,282.4v224.11c-30.21-6.35-58.46-18.04-83.72-34.02V282.4H203.03z"/>
	<path style="fill:#F6F1F1;" d="M430.994,160.326V301.65c0,7.717-6.261,13.977-13.985,13.977H94.991
		c-7.725,0-13.985-6.261-13.985-13.977V160.326c0-7.717,6.261-13.977,13.985-13.977h38.568c7.717,0,13.977,6.26,13.977,13.977
		v30.828c0,3.854,1.567,7.353,4.092,9.885c2.533,2.525,6.023,4.092,9.885,4.092c7.725,0,13.977-6.261,13.977-13.977v-30.828
		c0-7.717,6.26-13.977,13.985-13.977h38.56c7.725,0,13.985,6.26,13.985,13.977v30.828c0,3.854,1.567,7.353,4.092,9.885
		c2.533,2.525,6.023,4.092,9.885,4.092c7.717,0,13.977-6.261,13.977-13.977v-30.828c0-7.717,6.261-13.977,13.985-13.977h38.56
		c7.725,0,13.985,6.26,13.985,13.977v30.828c0,3.854,1.567,7.353,4.092,9.885c2.525,2.525,6.023,4.092,9.885,4.092
		c7.717,0,13.977-6.261,13.977-13.977v-30.828c0-7.717,6.26-13.977,13.977-13.977h38.568
		C424.733,146.348,430.994,152.609,430.994,160.326z"/>
	<g>
		<path style="fill:#D0E2E7;" d="M161.168,301.651v-78.262v-18.258v-0.017c-7.559-0.186-13.633-6.358-13.633-13.962v-30.824
			c0-7.721-6.259-13.979-13.98-13.979H94.988c-7.721,0-13.98,6.259-13.98,13.979v44.804v18.258v78.262
			c0,7.721,6.259,13.98,13.98,13.98h80.159C167.427,315.63,161.168,309.371,161.168,301.651z"/>
	</g>
	<path style="fill:#D0E2E7;" d="M209.978,468.057v-77.79c0-25.376,20.645-46.022,46.022-46.022
		c25.377,0,46.022,20.645,46.022,46.022v77.79H209.978z"/>
	<path style="fill:#D0E2E7;" d="M222.697,256.717h-29.48c-6.314,0-11.432-5.118-11.432-11.432v-2.863
		c0-6.314,5.118-11.432,11.432-11.432h29.48c6.314,0,11.432,5.118,11.432,11.432v2.863
		C234.129,251.598,229.011,256.717,222.697,256.717z"/>
	<path style="fill:#D0E2E7;" d="M248.869,291.242h-29.48c-6.314,0-11.432-5.118-11.432-11.432v-2.863
		c0-6.314,5.118-11.432,11.432-11.432h29.48c6.314,0,11.432,5.118,11.432,11.432v2.863
		C260.302,286.124,255.183,291.242,248.869,291.242z"/>
	<path style="fill:#D0E2E7;" d="M369.761,385.803h-29.48c-6.314,0-11.432-5.118-11.432-11.432v-2.863
		c0-6.314,5.118-11.432,11.432-11.432h29.48c6.314,0,11.432,5.118,11.432,11.432v2.863
		C381.193,380.684,376.074,385.803,369.761,385.803z"/>
	<path style="fill:#D0E2E7;" d="M350.024,419.016h-29.48c-6.314,0-11.432-5.118-11.432-11.432v-2.863
		c0-6.314,5.118-11.432,11.432-11.432h29.48c6.314,0,11.432,5.118,11.432,11.432v2.863
		C361.456,413.898,356.338,419.016,350.024,419.016z"/>
	<path style="fill:#D0E2E7;" d="M337.13,492.36v2.86c0,1.36-0.24,2.66-0.67,3.87c-9.16,3.04-18.56,5.57-28.15,7.56h-12.1
		c-6.31,0-11.43-5.12-11.43-11.43v-2.86c0-6.32,5.12-11.44,11.43-11.44h29.48C332.01,480.92,337.13,486.04,337.13,492.36z"/>
	<path style="fill:#D0E2E7;" d="M392.69,468.06v4.43c-9.41,5.95-19.24,11.31-29.43,16.02c-1.14-1.78-1.8-3.89-1.8-6.16v-2.86
		c0-6.31,5.12-11.43,11.42-11.43H392.69z"/>
	<path style="fill:#D0E2E7;" d="M372.897,259.998h-29.48c-6.314,0-11.432-5.118-11.432-11.432v-2.863
		c0-6.314,5.118-11.432,11.432-11.432h29.48c6.314,0,11.432,5.118,11.432,11.432v2.863
		C384.329,254.88,379.211,259.998,372.897,259.998z"/>
	<path style="fill:#D0E2E7;" d="M430.994,234.273v25.723h-26.87c-6.316,0-11.437-5.113-11.437-11.429v-2.865
		c0-6.316,5.121-11.429,11.437-11.429H430.994z"/>
	<path style="fill:#D0E2E7;" d="M402.368,291.242h-29.48c-6.314,0-11.432-5.118-11.432-11.432v-2.863
		c0-6.314,5.118-11.432,11.432-11.432h29.48c6.314,0,11.432,5.118,11.432,11.432v2.863
		C413.8,286.124,408.682,291.242,402.368,291.242z"/>
	<path style="fill:#E84D59;" d="M286.19,390.26v61.97h-60.38c-30.34-30.34-37.39-59.22-44.02-97.91
		c-3.503-20.411-1.495-39.562,1.184-53.101c1.011-5.109,8.211-5.495,9.735-0.515c4.968,16.233,14.855,37.21,33.101,39.596
		c0,0-24.072-40.778-7.742-79.417c1.953-4.621,8.756-3.802,9.587,1.146c2.983,17.773,10.46,46.038,28.345,53.601
		C282.65,326.9,289.74,356.36,286.19,390.26z"/>
	<path style="fill:#FFBB16;" d="M286.19,390.26v61.97h-46.11c-9.9-20.55-26.1-58.12-10.5-85.62c0,0-0.44,11.02,15.64,19.19
		c16.07,8.18,19.54-32.79,10.78-41.55C256,344.25,282.43,352.67,286.19,390.26z"/>
	<path style="fill:#E84D59;" d="M288.052,31.172c6.371,12.215,20.684,27.115,30.542,36.589c3.841,3.691,10.147,0.219,9.084-5.001
		c-2.579-12.661-10.297-30.379-32.83-39.18C290.161,21.75,285.725,26.711,288.052,31.172z"/>
	<path style="fill:#E84D59;" d="M179.291,65.822c-3.003-15.408-22.446-39.859-31.649-50.755c-1.876-2.221-5.485-0.959-5.582,1.946
		c-0.433,12.867,2.712,39.037,32.838,52.298C177.229,70.337,179.778,68.321,179.291,65.822z"/>
</g>
<g>
</g>
<g>
</g>
<g>
</g>
<g>
</g>
<g>
</g>
<g>
</g>
<g>
</g>
<g>
</g>
<g>
</g>
<g>
</g>
<g>
</g>
<g>
</g>
<g>
</g>
<g>
</g>
<g>
</g>
</svg>
