<?xml version="1.0" encoding="iso-8859-1"?>
<!-- Generator: Adobe Illustrator 23.0.6, SVG Export Plug-In . SVG Version: 6.00 Build 0)  -->
<svg version="1.1" id="Capa_1" xmlns="http://www.w3.org/2000/svg" xmlns:xlink="http://www.w3.org/1999/xlink" x="0px" y="0px"
	 viewBox="0 0 512 512" style="enable-background:new 0 0 512 512;" xml:space="preserve">
<g>
	<path style="fill:#6EC17D;" d="M512,256c0,84.32-40.77,159.12-103.67,205.76c-13.61,10.1-28.27,18.88-43.77,26.14
		C331.6,503.36,294.81,512,256,512c-17.52,0-34.64-1.76-51.17-5.12c-16.58-3.36-32.58-8.32-47.82-14.72
		C102.33,469.21,57.3,427.82,29.7,375.77c-3.56-6.69-6.82-13.55-9.77-20.58C12.33,337.12,6.74,318,3.45,298.1
		c-1.53-9.2-2.56-18.57-3.07-28.07C0.13,265.39,0,260.71,0,256C0,114.62,114.62,0,256,0S512,114.62,512,256z"/>
	<path style="fill:#2F373B;" d="M496.95,304.99l7.562-20.242c0.989-2.648-0.041-5.625-2.454-7.096l-13.478-8.214l-6.147,22.476"/>
	<path style="fill:#BD5423;" d="M489.69,289.41l3.389-9.288c1.529-4.19-0.434-8.85-4.499-10.684l-114.635-51.709l6.516,51.705"/>
	<g>
		<path style="fill:#D9723E;" d="M250.12,379.45l-10.99,30.92l-13.93,39.21l-20.37,57.3c-10.39-2.11-20.56-4.84-30.45-8.17
			c-5.89-1.97-11.68-4.16-17.37-6.55l40.28-113.36l5.72-16.09L250.12,379.45z"/>
		<path style="fill:#D9723E;" d="M408.33,461.76c-8.79,6.52-18.02,12.5-27.63,17.86c-5.27,2.95-10.65,5.71-16.14,8.28l-33.63-94.63
			l-4.91-13.82l45.52-16.18l1.59-0.56l25.43,71.54L408.33,461.76z"/>
	</g>
	<path style="fill:#BD5423;" d="M370.12,447.86l10.58,31.76c-5.27,2.95-10.65,5.71-16.14,8.28l-33.63-94.63l40.61-30l1.59-0.56
		l25.43,71.54L370.12,447.86z"/>
	<path style="fill:#BD5423;" d="M241.17,385.92l-2.04,24.45l-13.93,39.21l-30.77-13.72l-20.05,62.85
		c-5.89-1.97-11.68-4.16-17.37-6.55l40.28-113.36L241.17,385.92z"/>
	<g>
		<path style="fill:#2F373B;" d="M512,223.93c0,4.01-0.11,8.01-0.31,11.99c-0.36,6.77-6.21,11.92-12.96,11.31l-43.13-3.88
			l-43.15-3.88l-28.99-2.61l27.16,13.44l39.71,19.64l39.36,19.47l1.41,0.7c5.49,2.71,8.06,9.17,5.85,14.88
			c-11.11,28.64-28.17,54.91-50.54,77.28c-42.29,42.3-98.53,65.59-158.34,65.59c-39.881,0-78.17-10.351-111.8-29.792
			c-6.045-3.495-8.407-11.031-5.333-17.301l0.072-0.147l19.33-39.41l4.42-9.02l-8.64,5.9l-37.38,25.54l-1.435,0.98
			c-5.209,3.558-12.226,2.957-16.71-1.48c-0.289-0.286-0.577-0.573-0.865-0.86c-42.3-42.29-65.59-98.53-65.59-158.34
			c0-47.13,14.46-92.04,41.28-129.66c3.97-5.57,11.71-6.88,17.27-2.89l35.29,25.36l4.14,2.98c0.03,0.02,0.05,0.04,0.08,0.05
			l15.14,10.88l-6.7-17.5l-2.81-7.34l-16.71-43.62l-1.28-3.34c-1.97-5.15-0.29-10.98,4.12-14.3C192.46,15.63,239.06,0,288.07,0
			c59.81,0,116.05,23.29,158.34,65.59C488.71,107.88,512,164.12,512,223.93z"/>
		<path style="fill:#D9723E;" d="M412.45,239.47l-28.99-2.61l27.16,13.44l39.71,19.64l39.36,19.47
			c-27.58,85-107.42,146.45-201.62,146.45c-43.28,0-83.52-12.97-117.06-35.24l19.33-39.41l4.42-9.02l-8.64,5.9l-37.38,25.54
			c-44.49-38.85-72.6-95.99-72.6-159.7c0-50.17,17.43-96.25,46.55-132.55l35.29,25.36l4.14,2.98c0.03,0.02,0.05,0.04,0.08,0.05
			l15.14,10.88l-6.7-17.5l-2.81-7.34l-16.71-43.62C188.05,30.88,235.85,12,288.07,12C405.12,12,500,106.88,500,223.93
			c0,7.87-0.43,15.65-1.27,23.3l-43.13-3.88L412.45,239.47z"/>
		<path style="fill:#F6F1F1;" d="M412.45,239.47l-28.99-2.61l27.16,13.44l39.71,19.64c-20.27,71.42-86.54,123.68-164.61,122.61
			c-35.43-0.48-68.35-12.03-95.38-31.34l0.822-1.677c0.975-1.99-1.324-3.982-3.155-2.732l-1.887,1.288
			c-39.24-29.9-65.12-76.59-66.62-129.25c-1.22-42.57,13.43-81.77,38.48-112.1l4.14,2.98c0.03,0.02,0.05,0.04,0.08,0.05
			c4.52,3.15,10.42-1.45,8.44-6.62l-2.81-7.34c30.97-31.54,74.22-50.98,121.91-50.51c91.23,0.89,165.71,75.06,166.95,166.29
			c0.1,7.37-0.27,14.63-1.09,21.76L412.45,239.47z"/>
		<path style="fill:#D9723E;" d="M412.45,239.47l-9.57-0.862c-4.021-0.362-5.562,5.109-1.944,6.9l9.684,4.792
			c-12.062,56.08-61.752,98.353-121.244,98.963c-69.05,0.709-126.104-55.288-126.642-124.339
			C162.191,155.36,218.629,98.59,288.07,98.59c69.11,0,125.34,56.23,125.34,125.34C413.41,229.19,413.08,234.38,412.45,239.47z"/>
		<circle style="fill:#F6F1F1;" cx="288.07" cy="223.93" r="82.046"/>
		<circle style="fill:#E84D59;" cx="288.07" cy="223.93" r="38.752"/>
	</g>
	<g>
		<path style="fill:#D0E2E7;" d="M91.25,274.83l-23.66,21.48l-55.09,7.07l-9.05-5.28c-1.53-9.2-2.56-18.57-3.07-28.07l47.94-17.37
			c1.93-0.7,4.07-0.51,5.85,0.53L91.25,274.83z"/>
		<path style="fill:#F6F1F1;" d="M104.35,310.97l-14.6,40.38c-0.7,1.93-2.22,3.46-4.15,4.16l-55.9,20.26
			c-3.56-6.69-6.82-13.55-9.77-20.58l5.67-15.67l43.69-29.83L104.35,310.97z"/>
		<path style="fill:#FFBB16;" d="M276.551,248.549l-250.955,90.97l-13.099-36.135l250.955-90.97c9.979-3.617,21,1.54,24.617,11.518
			v0C291.686,233.91,286.53,244.932,276.551,248.549z"/>
		<path style="fill:#FF931F;" d="M288.07,223.93c1.811,4.996,1.428,10.24-0.658,14.697c-2.085,4.456-5.866,8.111-10.862,9.922
			L25.6,339.517l-4.832-13.329l250.951-90.968c4.996-1.811,8.776-5.466,10.861-9.922c1.1-2.351,1.731-4.929,1.794-7.568
			C285.954,219.484,287.218,221.579,288.07,223.93z"/>
	</g>
</g>
<g>
</g>
<g>
</g>
<g>
</g>
<g>
</g>
<g>
</g>
<g>
</g>
<g>
</g>
<g>
</g>
<g>
</g>
<g>
</g>
<g>
</g>
<g>
</g>
<g>
</g>
<g>
</g>
<g>
</g>
</svg>
