<?xml version="1.0" encoding="iso-8859-1"?>
<!-- Generator: Adobe Illustrator 23.0.6, SVG Export Plug-In . SVG Version: 6.00 Build 0)  -->
<svg version="1.1" id="Capa_1" xmlns="http://www.w3.org/2000/svg" xmlns:xlink="http://www.w3.org/1999/xlink" x="0px" y="0px"
	 viewBox="0 0 512 512" style="enable-background:new 0 0 512 512;" xml:space="preserve">
<g>
	<path style="fill:#B1E4F9;" d="M512,256c0,18.53-1.97,36.59-5.71,54C481.5,425.45,378.85,512,256,512
		C129.32,512,24.12,419.97,3.62,299.12C1.24,285.1,0,270.7,0,256c0-12.01,0.83-23.82,2.43-35.39C19.66,95.98,126.63,0,256,0
		c134.76,0,245.2,104.13,255.25,236.31C511.75,242.81,512,249.38,512,256z"/>
	<path style="fill:#5EA5EC;" d="M512,256c0,141.38-114.62,256-256,256S0,397.38,0,256c0-12.01,0.83-23.82,2.43-35.39
		c11.51,10.97,21.62,23.32,44.35,23.32c40.91,0,40.91-40,81.82-40c40.92,0,40.92,40,81.83,40c40.91,0,40.91-40,81.82-40
		c40.92,0,40.92,40,81.83,40c40.92,0,40.92-40,81.83-40c29.49,0,37.73,20.77,55.34,32.38C511.75,242.81,512,249.38,512,256z"/>
	<g>
		<path style="fill:#E84D59;" d="M336.41,73.96c0,0-14.684-16.307-40.026-13.419c-5.51,0.628-8.108,7.121-4.478,11.313
			l26.345,30.422"/>
		<path style="fill:#E84D59;" d="M309.539,108.849c0,0-19.303-10.436-42.208,0.785c-4.98,2.44-5.25,9.429-0.423,12.16l35.023,19.822
			"/>
		<path style="fill:#E84D59;" d="M228.184,111.668c0,0,17.395-13.377,16.479-38.866c-0.199-5.542-6.472-8.635-10.933-5.341
			L201.36,91.37"/>
		<path style="fill:#E84D59;" d="M179.574,83.356c0,0,11.075-18.944,0.624-42.211c-2.272-5.059-9.248-5.561-12.139-0.829
			l-20.98,34.342"/>
		<path style="fill:#E84D59;" d="M127.748,78.288c0,0-1.213-21.91-22.765-35.552c-4.686-2.966-10.782,0.463-10.582,6.005
			l1.446,40.218"/>
		<path style="fill:#E84D59;" d="M284.389,258.365c-0.6,44.358-9.896,87.314-26.163,120.941l-48.899-23.657l-18.581-8.985
			c24.342-50.324,24.985-132.015,1.381-174.81c-13.547-24.557-29.665-26.377-34.966-26.977c-23.004-2.592-41.767,5.44-54.265,23.218
			c-19.363,27.545-26.506,84.444,11.491,161.584L84.23,344.532l-27.877,13.73l-9.21,4.541c-0.482-0.985-0.964-1.981-1.435-2.967
			C2.528,270.391,0.932,182.788,41.564,124.99c27.598-39.25,71.057-59.159,119.763-55.025h0.032
			c1.403,0.118,2.806,0.257,4.209,0.418c39.218,4.423,71.1,26.998,92.208,65.263C275.564,167.913,285.021,211.5,284.389,258.365z"/>
		<path style="fill:#C9394A;" d="M209.327,355.649l-18.581-8.985c24.342-50.324,24.985-132.015,1.381-174.81
			c-13.547-24.557-29.665-26.377-34.966-26.977C200.738,144.877,275.618,166.821,209.327,355.649z"/>
		<path style="fill:#C9394A;" d="M45.89,195.693c-2.688,77.954,25.392,129.423,38.34,148.839c3.823,5.74,6.329,8.685,6.329,8.685
			l-34.206,5.044l-10.645,1.574C2.528,270.391,0.932,182.788,41.564,124.99c27.598-39.25,71.057-59.159,119.763-55.025
			C128.449,68.412,49.232,99.137,45.89,195.693z"/>
		<path style="fill:#E84D59;" d="M506.099,189.515c-0.685,1.335-1.537,2.603-2.581,3.792c-4.656,5.318-10.109,9.919-15.876,13.89
			c-2.984,2.053-6.99,1.761-9.627-0.741l-31.573-29.913l-3.658-3.467c-3.445-3.265-5.868-7.394-7.057-11.893
			c-0.561-2.098-0.853-4.275-0.853-6.485v-1.694c0-5.789-3.074-11.13-8.09-14.036l-2.962-1.728c-1.784-1.032-3.624-1.1-5.184-0.527
			c-3.557,1.29-5.756,5.812-3.007,9.604l46.496,64.078c2.94,4.05,1.257,9.829-3.433,11.613c-0.022,0.011-0.056,0.022-0.09,0.034
			c-0.965,0.359-1.93,0.64-2.895,0.83c-9.571,1.952-19.265-4.017-21.722-13.846c-1.56-6.194-3.703-12.477-6.261-18.457
			c-3.905,1.425-8.213,2.008-12.712,1.537c-12.286-1.302-22.451-10.704-24.707-22.855c-0.785-4.185-0.595-8.224,0.325-11.983
			c-1.975,1.806-3.725,4.611-5.172,8.606c-13.217,36.353,42.502,82.614,42.502,158.001c0,54.406-19.938,104.167-52.925,142.338
			l-13.06-78.069l-5.991-35.792c25.885-63.887-108.072-175.426-44.88-269.282c16.056-23.843,40.056-32.505,60.588-35.568
			c20.589-3.074,41.626-0.236,60.914,7.574l28.847,11.669c19.882,9.111,25.638,31.214,26.435,50.973
			c0.808,19.669-3.299,37.037-3.299,37.037l15.663,11.085c0.886,0.617,1.694,1.302,2.424,2.042
			C508.41,173.593,509.746,182.39,506.099,189.515z"/>
		<path style="fill:#C9394A;" d="M471.474,136.343c-9.738,9.738-30.276,9.165-39.383-2.411c-7.731-9.827-10.15-27.539-0.324-36.835
			c2.532-2.395,6.557-2.165,8.735,0.556L471.474,136.343z"/>
		<path style="fill:#F6F1F1;" d="M435.603,145.206l-10.962,13.52l-6.317-8.707l-2.693-3.703l17.088-5.352
			c1.021-0.314,1.952-0.022,2.592,0.572C436.277,142.413,436.602,143.972,435.603,145.206z"/>
		<path style="fill:#FFFFFF;" d="M471.474,136.343c-8.931,4.14-19.871,2.525-27.242-4.836c-7.36-7.36-8.976-18.3-4.836-27.231
			c1.818-3.905,6.99-4.769,10.031-1.728l7.641,7.641l16.123,16.134c0.426,0.426,0.774,0.886,1.032,1.38
			C475.928,130.733,474.829,134.783,471.474,136.343z"/>
		<path style="fill:#2F373B;" d="M474.223,127.703c-1.885,5.251-6.912,9.01-12.813,9.01c-7.529,0-13.621-6.104-13.621-13.621
			c0-6.003,3.882-11.097,9.279-12.903l16.123,16.134C473.617,126.749,473.965,127.209,474.223,127.703z"/>
		<path style="fill:#C9394A;" d="M338.954,136.713c0,93.587,118.417,159.774,23.024,251.431l-5.991-35.792
			c25.885-63.887-108.072-175.426-44.88-269.282c16.056-23.843,40.056-32.505,60.588-35.568c20.589-3.074,41.626-0.236,60.914,7.574
			l28.847,11.669C432.608,55.075,338.954,41.41,338.954,136.713z"/>
		<path style="fill:#F6F1F1;" d="M432.091,81.342c-4.185,3.175-9.717,4.634-15.618,3.198c-16.875-4.073-18.311-21.789-44.622-26.883
			c-33.997-6.575-62.642-50.58-56.392-56.818c3.59-3.59,11.153,5.038,25.649,13.026v0.011c10.771,5.947,25.369,11.546,44.992,11.546
			c28.735,0,46.518,17.38,52.465,33.828C441.685,67.866,438.42,76.562,432.091,81.342z"/>
		<path style="fill:#D0E2E7;" d="M432.091,81.342c-4.185,3.175-9.717,4.634-15.618,3.198c-16.875-4.073-18.311-21.789-44.622-26.883
			c-33.997-6.575-62.642-50.58-56.392-56.818c3.59-3.59,11.153,5.038,25.649,13.026v0.011c-6.149,6.171,6.317,27.13,30.586,33.627
			c24.28,6.496,43.108-0.651,43.938,18.199C416.249,79.603,423.654,84.394,432.091,81.342z"/>
		<path style="fill:#C9394A;" d="M427.727,190.569c-3.905,1.425-8.213,2.008-12.712,1.537
			c-12.286-1.302-22.451-10.704-24.707-22.855c-0.785-4.185-0.595-8.224,0.325-11.983c2.412-8.595,10.423-12.252,10.423-12.252
			s-7.033,17.672,4.05,31.91C414.72,189.275,427.727,190.569,427.727,190.569z"/>
		<path style="fill:#C9394A;" d="M458.694,222.008c-0.022,0.011-0.056,0.022-0.09,0.034c-0.965,0.359-1.93,0.64-2.895,0.83
			c-0.965-1.481-0.886-4.241-0.886-9.01c0-10.233-32.448-49.312-39.192-56.044c-6.732-6.743-7.473-18.042,3.007-21.105
			c-3.557,1.29-5.756,5.812-3.007,9.604l46.496,64.078C465.067,214.445,463.384,220.224,458.694,222.008z"/>
		<path style="fill:#F6F1F1;" d="M469.667,198.547l-18.491,8.303c-1.346,0.606-2.648,0.191-3.467-0.684
			c-0.965-1.021-1.257-2.67-0.168-4.017l11.198-13.958l4.14,3.927L469.667,198.547z"/>
		<path style="fill:#F6F1F1;" d="M454.823,184.477l-10.199,6.44c-1.111,0.707-2.356,0.292-2.996-0.583
			c-0.449-0.606-0.595-1.447-0.191-2.278l5.408-11.13l3.332,3.153L454.823,184.477z"/>
		<path style="fill:#D0E2E7;" d="M462.879,192.118l-15.169,14.047c-0.965-1.021-1.257-2.67-0.168-4.017l11.198-13.958
			L462.879,192.118z"/>
		<path style="fill:#D0E2E7;" d="M450.178,180.078l-8.55,10.255c-0.449-0.606-0.595-1.447-0.191-2.278l5.408-11.13L450.178,180.078z
			"/>
		<path style="fill:#D0E2E7;" d="M435.312,141.537l-16.987,8.482l-2.693-3.703l17.088-5.352
			C433.741,140.651,434.672,140.943,435.312,141.537z"/>
		<path style="fill:#C9394A;" d="M396.833,129.355c1.272,0.848,0.7,2.859-0.828,2.881c-0.084,0.001-0.168,0.002-0.253,0.002
			c-9.802,0-17.698-8.227-17.151-18.16c0.496-9.021,8.203-16.251,17.238-16.207c0.058,0,0.116,0.001,0.174,0.002
			c1.525,0.023,2.09,2.034,0.82,2.879c-4.618,3.074-7.656,8.33-7.656,14.297C389.177,121.016,392.215,126.278,396.833,129.355z"/>
		<path style="fill:#C9394A;" d="M382.123,116.578c1.272,0.848,0.7,2.859-0.828,2.881c-0.084,0.001-0.168,0.002-0.253,0.002
			c-9.802,0-17.698-8.227-17.151-18.16c0.496-9.021,8.203-16.251,17.238-16.207c0.058,0,0.116,0.001,0.174,0.002
			c1.525,0.023,2.09,2.034,0.82,2.879c-4.618,3.074-7.656,8.33-7.656,14.297C374.467,108.238,377.506,113.5,382.123,116.578z"/>
		<path style="fill:#C9394A;" d="M372.643,168.197c1.272,0.848,0.7,2.859-0.828,2.881c-0.084,0.001-0.168,0.002-0.253,0.002
			c-9.802,0-17.698-8.227-17.151-18.16c0.496-9.021,8.203-16.251,17.238-16.207c0.058,0,0.116,0.001,0.174,0.002
			c1.525,0.023,2.09,2.034,0.82,2.879c-4.618,3.074-7.656,8.33-7.656,14.297C364.988,159.858,368.026,165.12,372.643,168.197z"/>
		<path style="fill:#C9394A;" d="M241.288,302.854c1.272,0.848,0.7,2.859-0.828,2.881c-0.084,0.001-0.168,0.002-0.253,0.002
			c-9.802,0-17.698-8.227-17.151-18.16c0.496-9.021,8.203-16.251,17.238-16.207c0.058,0,0.116,0.001,0.174,0.002
			c1.525,0.023,2.09,2.034,0.82,2.879c-4.618,3.074-7.656,8.33-7.656,14.297C233.632,294.514,236.67,299.777,241.288,302.854z"/>
		<path style="fill:#C9394A;" d="M268.93,264.564c1.272,0.848,0.7,2.859-0.828,2.881c-0.084,0.001-0.168,0.002-0.253,0.002
			c-9.802,0-17.698-8.227-17.151-18.16c0.496-9.021,8.203-16.251,17.238-16.207c0.058,0,0.116,0.001,0.174,0.002
			c1.525,0.023,2.09,2.034,0.82,2.879c-4.618,3.074-7.656,8.33-7.656,14.297C261.275,256.224,264.313,261.487,268.93,264.564z"/>
		<path style="fill:#C9394A;" d="M385.958,246.117c1.272,0.848,0.7,2.859-0.828,2.881c-0.084,0.001-0.168,0.002-0.253,0.002
			c-9.802,0-17.697-8.227-17.151-18.16c0.496-9.021,8.203-16.251,17.238-16.207c0.058,0,0.116,0.001,0.174,0.002
			c1.525,0.023,2.09,2.034,0.82,2.879c-4.618,3.074-7.656,8.33-7.656,14.297C378.303,237.777,381.341,243.04,385.958,246.117z"/>
		<path style="fill:#C9394A;" d="M256.119,241.449c1.272,0.848,0.7,2.859-0.828,2.881c-0.084,0.001-0.168,0.002-0.253,0.002
			c-9.802,0-17.697-8.227-17.151-18.16c0.496-9.021,8.203-16.251,17.238-16.207c0.058,0,0.116,0.001,0.174,0.002
			c1.525,0.023,2.09,2.034,0.82,2.879c-4.618,3.074-7.656,8.33-7.656,14.297C248.463,233.109,251.501,238.371,256.119,241.449z"/>
		<path style="fill:#C9394A;" d="M244.378,182.942c1.272,0.848,0.7,2.859-0.828,2.881c-0.084,0.001-0.168,0.002-0.253,0.002
			c-9.802,0-17.697-8.227-17.151-18.16c0.496-9.021,8.203-16.251,17.238-16.207c0.058,0,0.116,0.001,0.174,0.002
			c1.525,0.023,2.09,2.034,0.82,2.879c-4.618,3.074-7.656,8.33-7.656,14.297C236.722,174.603,239.76,179.865,244.378,182.942z"/>
		<path style="fill:#C9394A;" d="M165.94,129.355c1.272,0.848,0.7,2.859-0.828,2.881c-0.084,0.001-0.168,0.002-0.253,0.002
			c-9.802,0-17.697-8.227-17.151-18.16c0.496-9.021,8.203-16.251,17.238-16.207c0.058,0,0.116,0.001,0.174,0.002
			c1.525,0.023,2.09,2.034,0.82,2.879c-4.618,3.074-7.656,8.33-7.656,14.297C158.284,121.016,161.322,126.278,165.94,129.355z"/>
		<path style="fill:#C9394A;" d="M150.546,109.745c1.272,0.848,0.7,2.859-0.828,2.881c-0.084,0.001-0.168,0.002-0.253,0.002
			c-9.802,0-17.697-8.227-17.151-18.16c0.496-9.021,8.203-16.251,17.238-16.207c0.058,0,0.116,0.001,0.174,0.002
			c1.525,0.023,2.09,2.034,0.82,2.879c-4.618,3.074-7.656,8.33-7.656,14.297C142.89,101.406,145.928,106.668,150.546,109.745z"/>
		<path style="fill:#C9394A;" d="M93.105,152.878c1.272,0.848,0.7,2.859-0.828,2.881c-0.084,0.001-0.168,0.002-0.253,0.002
			c-9.802,0-17.698-8.227-17.151-18.16c0.496-9.021,8.203-16.251,17.238-16.207c0.058,0,0.116,0.001,0.174,0.002
			c1.525,0.023,2.09,2.034,0.82,2.879c-4.618,3.074-7.656,8.33-7.656,14.297C85.45,144.538,88.488,149.8,93.105,152.878z"/>
		<path style="fill:#C9394A;" d="M61.361,211.964c1.272,0.848,0.7,2.859-0.828,2.881c-0.084,0.001-0.168,0.002-0.253,0.002
			c-9.802,0-17.698-8.227-17.151-18.16c0.496-9.021,8.203-16.251,17.238-16.207c0.058,0,0.116,0.001,0.174,0.002
			c1.525,0.023,2.09,2.034,0.82,2.879c-4.618,3.074-7.656,8.33-7.656,14.297C53.705,203.625,56.743,208.887,61.361,211.964z"/>
		<path style="fill:#C9394A;" d="M80.32,228.933c1.272,0.848,0.7,2.859-0.828,2.881c-0.084,0.001-0.168,0.002-0.253,0.002
			c-9.802,0-17.698-8.227-17.151-18.16c0.496-9.021,8.203-16.251,17.238-16.207c0.058,0,0.116,0.001,0.174,0.002
			c1.525,0.023,2.09,2.034,0.82,2.879c-4.618,3.074-7.656,8.33-7.656,14.297C72.664,220.594,75.703,225.856,80.32,228.933z"/>
		<path style="fill:#C9394A;" d="M70.84,292.662c1.272,0.848,0.7,2.859-0.828,2.881c-0.084,0.001-0.168,0.002-0.253,0.002
			c-9.802,0-17.698-8.227-17.151-18.16c0.496-9.021,8.203-16.251,17.238-16.207c0.058,0,0.116,0.001,0.174,0.002
			c1.525,0.023,2.09,2.034,0.82,2.879c-4.618,3.074-7.656,8.33-7.656,14.297C63.185,284.322,66.223,289.584,70.84,292.662z"/>
		<path style="fill:#C9394A;" d="M478.591,193.807c0.453,1.079-0.763,2.121-1.748,1.488c-0.054-0.035-0.108-0.07-0.162-0.106
			c-6.257-4.15-7.813-12.744-3.259-18.853c4.136-5.548,12.116-6.9,17.864-3.047c0.037,0.025,0.074,0.05,0.111,0.075
			c0.964,0.66,0.473,2.183-0.695,2.185c-4.249,0.007-8.413,2.076-10.939,5.884C477.235,185.243,476.947,189.888,478.591,193.807z"/>
		
			<ellipse transform="matrix(0.5527 -0.8334 0.8334 0.5527 62.413 489.5436)" style="fill:#2F373B;" cx="487.276" cy="186.626" rx="9.82" ry="6.308"/>
	</g>
	<path style="fill:#80B4FB;" d="M506.29,310c-4.43,20.62-11.34,40.32-20.41,58.77C444.18,453.61,356.91,512,256,512
		c-88.6,0-166.7-45.02-212.65-113.44c-19.75-29.4-33.57-63.12-39.73-99.44c11.03,10.66,21.21,22.17,43.16,22.17
		c40.91,0,40.91-40,81.82-40c40.92,0,40.92,40,81.83,40c40.91,0,40.91-40,81.82-40c40.92,0,40.92,40,81.83,40
		c40.92,0,40.92-40,81.83-40C482.49,281.29,491.81,298.17,506.29,310z"/>
	<path style="fill:#5EA5EC;" d="M485.88,368.77c-13.62,27.71-32.1,52.6-54.33,73.54c-6.33,5.98-12.96,11.62-19.87,16.93
		c-6.26,4.8-12.75,9.32-19.46,13.54C352.77,497.62,306.07,512,256,512c-62.58,0-119.92-22.46-164.39-59.77
		c-18.5-15.5-34.77-33.57-48.26-53.67c1.11,0.07,2.25,0.1,3.43,0.1c40.91,0,40.91-40,81.82-40c40.92,0,40.92,40,81.83,40
		c40.91,0,40.91-40,81.82-40c40.92,0,40.92,40,81.83,40c40.92,0,40.92-40,81.83-40C469.35,358.66,478.37,362.97,485.88,368.77z"/>
	<path style="fill:#80B4FB;" d="M374.08,476.02c7.15,0,13.05-1.22,18.14-3.24C352.77,497.62,306.07,512,256,512
		c-62.58,0-119.92-22.46-164.39-59.77c9.07-8.59,19.13-16.21,36.99-16.21c40.92,0,40.92,40,81.83,40c40.91,0,40.91-40,81.82-40
		C333.17,436.02,333.17,476.02,374.08,476.02z"/>
	<path style="fill:#80B4FB;" d="M431.55,442.31c-6.33,5.98-12.96,11.62-19.87,16.93C417.95,453.25,423.82,446.87,431.55,442.31z"/>
</g>
<g>
</g>
<g>
</g>
<g>
</g>
<g>
</g>
<g>
</g>
<g>
</g>
<g>
</g>
<g>
</g>
<g>
</g>
<g>
</g>
<g>
</g>
<g>
</g>
<g>
</g>
<g>
</g>
<g>
</g>
</svg>
