<?xml version="1.0" encoding="iso-8859-1"?>
<!-- Generator: Adobe Illustrator 23.0.6, SVG Export Plug-In . SVG Version: 6.00 Build 0)  -->
<svg version="1.1" id="Capa_1" xmlns="http://www.w3.org/2000/svg" xmlns:xlink="http://www.w3.org/1999/xlink" x="0px" y="0px"
	 viewBox="0 0 512 512" style="enable-background:new 0 0 512 512;" xml:space="preserve">
<g>
	<path style="fill:#80B4FB;" d="M512,256c0,55.21-17.48,106.35-47.21,148.16c-7.25,10.2-15.23,19.84-23.87,28.86
		c-2.78,2.91-5.64,5.76-8.56,8.54c-4.1,3.89-8.32,7.65-12.67,11.27c-7.39,6.15-15.12,11.89-23.18,17.19
		C356.17,496.56,307.89,512,256,512c-48.88,0-94.56-13.7-133.42-37.48c-4.25-2.6-8.43-5.33-12.51-8.16
		c-6.51-4.53-12.8-9.35-18.85-14.44c-15.89-13.38-30.13-28.65-42.37-45.48c-3.16-4.35-6.19-8.8-9.08-13.35
		c-3.59-5.65-6.97-11.45-10.11-17.39C10.73,339.98,0,299.24,0,256c0-44.07,11.14-85.54,30.75-121.74
		c5.04-9.32,10.65-18.29,16.78-26.86C93.95,42.39,170.03,0,256,0C397.38,0,512,114.62,512,256z"/>
	<g>
		<path style="fill:#D9723E;" d="M22.902,36.242C15.918,23.115,35.324,12.407,43.021,25.13c8.298,13.717,18.858,20.489,38.73,15.379
			c35.137-9.035,120.97-36.642,165.142,7.529s42.666,67.763,42.666,67.763l-42.164,42.164c0,0-8.031-56.218-47.183-79.308
			S76.23,94.217,37.579,55.567C30.936,48.924,26.197,42.435,22.902,36.242z"/>
		<path style="fill:#BD5423;" d="M266.968,138.388l-19.575,19.575c0,0-8.027-56.22-47.184-79.308
			C161.06,55.559,76.228,94.216,37.579,55.567c-6.64-6.64-11.378-13.135-14.675-19.328c-4.175-7.858,1.094-14.853,7.665-16.463
			c-1.209,3.058-1.364,6.094,0.054,8.744c3.29,6.201,8.035,12.688,14.675,19.328c38.649,38.649,135.336-11.863,174.493,11.224
			C258.941,82.167,266.968,138.388,266.968,138.388z"/>
		<path style="fill:#D9723E;" d="M464.79,404.16c-9.6,13.5-20.47,26.02-32.43,37.4c-14.43-42.91,9.55-107.75-9.78-140.54
			c-23.09-39.15-79.31-47.18-79.31-47.18l42.16-42.17c0,0,23.59-1.5,67.76,42.67C491.87,293.01,475.53,363.6,464.79,404.16z"/>
		<path style="fill:#D0E2E7;" d="M179.08,418.03l-56.5,56.49c-4.25-2.6-8.43-5.33-12.51-8.16L97.3,434.05l49.42-65.48l27.98-11.92
			L179.08,418.03z"/>
		<path style="fill:#BD5423;" d="M440.92,433.02c-2.78,2.91-5.64,5.76-8.56,8.54c-14.42-42.9,9.56-107.75-9.78-140.54
			c-23.09-39.15-79.31-47.18-79.31-47.18l19.57-19.58c0,0,56.22,8.03,79.32,47.18C461.5,314.24,429.2,387.41,440.92,433.02z"/>
		<path style="fill:#2F373B;" d="M248.702,170.818l81.712,81.712c6.267,6.267,16.427,6.267,22.694,0l31.015-31.015
			c6.267-6.267,6.267-16.427,0-22.694l-81.712-81.712c-6.267-6.267-16.427-6.267-22.694,0l-31.015,31.015
			C242.436,154.391,242.436,164.551,248.702,170.818z"/>
		<path style="fill:#181E21;" d="M371.929,233.71l-18.82,18.82c-6.271,6.271-16.424,6.271-22.695,0l-81.712-81.712
			c-6.263-6.263-6.271-16.424,0-22.695l18.82-18.82c-6.263,6.263-6.263,16.432,0,22.695l81.712,81.712
			C355.505,239.981,365.666,239.973,371.929,233.71z"/>
		
			<rect x="7.215" y="253.372" transform="matrix(0.7071 -0.7071 0.7071 0.7071 -127.8609 240.6532)" style="fill:#D9723E;" width="438.696" height="42.592"/>
		
			<rect x="-0.314" y="256.491" transform="matrix(0.7071 -0.7071 0.7071 0.7071 -124.7422 233.1239)" style="fill:#BD5423;" width="438.696" height="21.296"/>
		<path style="fill:#F6F1F1;" d="M465.333,35.903c3.451,3.451,4.961,8.859,2.45,14.159L415.46,160.438
			c-4.568,9.637-18.18,9.938-23.165,0.501l-17.972-34.027l-34.034-17.98c-9.429-4.976-9.129-18.589,0.508-23.157l110.377-52.323
			C456.466,30.934,461.874,32.444,465.333,35.903z"/>
		<path style="fill:#D0E2E7;" d="M465.333,35.903l-91.01,91.01l-34.034-17.98c-9.429-4.976-9.129-18.589,0.508-23.157
			l110.377-52.323C456.466,30.934,461.874,32.444,465.333,35.903z"/>
		<path style="fill:#FFBB16;" d="M419.69,452.83c-7.39,6.15-15.12,11.89-23.18,17.19l-305.29-18.1
			c-15.89-13.38-30.13-28.65-42.37-45.48l-18.1-272.18l-5.39-81.05c-0.17-2.67,0.81-5.28,2.7-7.17l16.92-16.92
			c3.61-3.61,9.48-3.61,13.09,0c3.62,3.62,3.62,9.48,0,13.1L44.12,56.17l3.41,51.23l20.38,306.53c0.69,10.33,9,18.58,19.33,19.2
			L419.69,452.83z"/>
		<path style="fill:#F6F1F1;" d="M144.58,326.53l-77.39,77.4l-27.42-10.84c-3.59-5.65-6.97-11.45-10.11-17.39l53.54-53.54
			L144.58,326.53z"/>
	</g>
</g>
<g>
</g>
<g>
</g>
<g>
</g>
<g>
</g>
<g>
</g>
<g>
</g>
<g>
</g>
<g>
</g>
<g>
</g>
<g>
</g>
<g>
</g>
<g>
</g>
<g>
</g>
<g>
</g>
<g>
</g>
</svg>
