<?xml version="1.0" encoding="iso-8859-1"?>
<!-- Generator: Adobe Illustrator 23.0.6, SVG Export Plug-In . SVG Version: 6.00 Build 0)  -->
<svg version="1.1" id="Capa_1" xmlns="http://www.w3.org/2000/svg" xmlns:xlink="http://www.w3.org/1999/xlink" x="0px" y="0px"
	 viewBox="0 0 512 512" style="enable-background:new 0 0 512 512;" xml:space="preserve">
<g>
	<circle style="fill:#FF931F;" cx="256" cy="256" r="256"/>
	<g>
		<path style="fill:#D9723E;" d="M398.41,468.76c-12.34,8.28-25.44,15.52-39.18,21.57c-9.59,4.23-19.49,7.9-29.65,10.93
			c-1.12,0.34-2.25,0.67-3.38,0.99C303.9,508.6,280.35,512,256,512c-24.34,0-47.89-3.4-70.2-9.74c-7.24-2.06-14.36-4.44-21.33-7.12
			c-0.43-0.16-0.86-0.32-1.29-0.49c-3.51-1.36-6.98-2.81-10.41-4.32c-13.74-6.06-26.84-13.29-39.19-21.58
			c10.39-14.37,23.76-26.43,39.19-35.32c10.2-5.87,21.3-10.34,33.03-13.15c1.81-0.44,3.64-0.84,5.48-1.19
			c3.47-0.68,7-1.2,10.57-1.57c1.03-0.11,2.05-0.21,3.09-0.29c3.38-0.28,6.8-0.42,10.26-0.42h81.59c4.52,0,8.97,0.24,13.35,0.7
			c3.57,0.37,7.09,0.9,10.57,1.56c1.39,0.27,2.77,0.56,4.14,0.87c0.45,0.12,0.91,0.21,1.35,0.33c3.48,0.84,6.9,1.82,10.26,2.94
			c7.98,2.65,15.59,6.09,22.77,10.22C374.66,442.33,388.02,454.39,398.41,468.76z"/>
		<path style="fill:#BD5423;" d="M215.2,416.81c-29.36,0-49.26,42.43-50.73,78.33c-0.43-0.16-0.86-0.32-1.29-0.49
			c-3.51-1.36-6.98-2.81-10.41-4.32c-13.74-6.06-26.84-13.29-39.19-21.58c10.39-14.37,23.76-26.43,39.19-35.32
			c10.2-5.87,21.3-10.34,33.03-13.15c1.81-0.44,3.64-0.84,5.48-1.19c3.47-0.68,7-1.2,10.57-1.57c1.03-0.11,2.05-0.21,3.09-0.29
			C208.32,416.95,211.74,416.81,215.2,416.81z"/>
		<path style="fill:#F9C5AC;" d="M320.71,419.07v4.34c0,28.54-18.32,53.38-45.59,61.81c-6.17,1.92-12.61,2.89-19.13,2.89
			c-35.68,0-64.71-29.03-64.71-64.7v-4.32c3.47-0.68,7-1.2,10.57-1.57c1.03-0.11,2.05-0.21,3.09-0.29c3.38-0.28,6.8-0.42,10.26-0.42
			h81.59c4.52,0,8.97,0.24,13.35,0.7C313.71,417.88,317.23,418.41,320.71,419.07z"/>
		<path style="fill:#EFB29A;" d="M204.94,417.23c-1.04,0.08-2.06,0.18-3.09,0.29c-3.57,0.37-7.1,0.89-10.57,1.57v4.32
			c0,1.245,0.044,2.479,0.114,3.706c6.904-6.415,14.921-10.306,23.806-10.306C211.74,416.81,208.32,416.95,204.94,417.23z"/>
		<path style="fill:#EFB29A;" d="M300.706,368.538v54.869c0,20.088-13.245,37.067-31.489,42.707
			c-4.176,1.296-8.627,1.997-13.23,1.997c-24.691,0-44.703-20.012-44.703-44.703v-54.869H300.706z"/>
		<path style="fill:#F9C5AC;" d="M300.706,419.932v3.475c0,20.088-13.245,37.067-31.489,42.707
			c-16.461-5.06-28.837-19.372-31.123-36.884c2.987,0.183,5.99,0.274,9.008,0.274c8.459,0,16.75-0.671,24.828-1.997
			C281.883,425.907,291.5,423.346,300.706,419.932z"/>
		<g>
			<path style="fill:#F9C5AC;" d="M132.54,278.153c0,20.497-14.973,37.492-34.579,40.646c-2.143,0.347-4.347,0.528-6.596,0.528
				c-22.746,0-41.175-18.429-41.175-41.175s18.429-41.175,41.175-41.175c2.249,0,4.453,0.181,6.596,0.528
				C117.567,240.661,132.54,257.657,132.54,278.153z"/>
			<path style="fill:#EFB29A;" d="M132.54,278.153c0,20.497-14.973,37.492-34.579,40.646c-3.562-12.95-5.464-26.579-5.464-40.646
				c0-14.067,1.902-27.696,5.464-40.646C117.567,240.661,132.54,257.657,132.54,278.153z"/>
			<circle style="fill:#EFB29A;" cx="91.365" cy="278.153" r="14.716"/>
			<path style="fill:#F9C5AC;" d="M379.449,278.153c0,20.497,14.973,37.492,34.579,40.646c2.143,0.347,4.347,0.528,6.596,0.528
				c22.746,0,41.175-18.429,41.175-41.175s-18.429-41.175-41.175-41.175c-2.249,0-4.453,0.181-6.596,0.528
				C394.422,240.661,379.449,257.657,379.449,278.153z"/>
			<path style="fill:#EFB29A;" d="M379.449,278.153c0,20.497,14.973,37.492,34.579,40.646c3.562-12.95,5.464-26.579,5.464-40.646
				c0-14.067-1.902-27.696-5.464-40.646C394.422,240.661,379.449,257.657,379.449,278.153z"/>
			<circle style="fill:#EFB29A;" cx="420.624" cy="278.153" r="14.716"/>
		</g>
		<path style="fill:#F9C5AC;" d="M410.7,217.53v37.59c0,85.45-69.92,156.45-155.37,156.09c-8.23-0.03-16.3-0.7-24.16-1.99
			c-73.64-11.86-129.88-75.72-129.88-152.71v-38.98c0-6.1,0.35-12.13,1.04-18.04c1.08-9.33,2.99-18.4,5.67-27.15
			c1.18-3.9,2.52-7.72,4.01-11.48c2.51-6.39,5.44-12.58,8.76-18.52c7.01-12.58,15.73-24.09,25.84-34.2
			c27.84-27.85,66.25-45.12,108.7-45.31H256c0.18,0,0.35,0,0.53,0.01c65.2,0.21,120.9,40.77,143.46,98.02
			c1.48,3.75,2.82,7.58,4,11.48C408.35,186.63,410.7,201.81,410.7,217.53z"/>
		<path style="fill:#EFB29A;" d="M284.1,408.4c-1.53,0.3-3.07,0.57-4.61,0.82c-7.87,1.29-15.93,1.96-24.16,1.99
			c-8.23-0.03-16.3-0.7-24.16-1.99c-73.64-11.86-129.88-75.72-129.88-152.71v-38.98c0-6.1,0.35-12.13,1.04-18.04
			c1.08-9.33,2.99-18.4,5.67-27.15c1.18-3.9,2.52-7.72,4.01-11.48c2.51-6.39,5.44-12.58,8.76-18.52
			c7.01-12.58,15.73-24.09,25.84-34.2c27.84-27.85,66.25-45.12,108.7-45.31c0.41,0,0.82,0.01,1.22,0.01
			c9.36,0.11,18.51,1.05,27.4,2.76c-71.45,13.67-125.44,76.5-125.44,151.93v37.59C158.49,330.4,212.75,394.47,284.1,408.4z"/>
		<path style="fill:#EFB29A;" d="M273.544,291.694h-35.098c-4.181,0-7.57-3.389-7.57-7.57v0c0-4.181,3.389-7.57,7.57-7.57h35.098
			c4.181,0,7.57,3.389,7.57,7.57v0C281.114,288.304,277.725,291.694,273.544,291.694z"/>
		<g>
			<path style="fill:#EFB29A;" d="M281.34,249.161c0,17.165,13.915,31.08,31.08,31.08s31.08-13.915,31.08-31.08"/>
			<circle style="fill:#2F373B;" cx="312.42" cy="249.161" r="22.287"/>
			<circle style="fill:#FFFFFF;" cx="321.708" cy="245.228" r="9.55"/>
			<path style="fill:#EFB29A;" d="M168.49,249.161c0,17.165,13.915,31.08,31.08,31.08s31.08-13.915,31.08-31.08"/>
			<circle style="fill:#2F373B;" cx="199.57" cy="249.161" r="22.287"/>
			<path style="fill:#181E21;" d="M204.782,270.831c-1.67,0.41-3.42,0.62-5.21,0.62c-12.31,0-22.29-9.98-22.29-22.29
				c0-12.31,9.98-22.29,22.29-22.29c1.79,0,3.54,0.21,5.21,0.62c-9.8,2.34-17.07,11.16-17.07,21.67
				C187.712,259.671,194.982,268.491,204.782,270.831z"/>
			<path style="fill:#181E21;" d="M317.632,270.831c-1.67,0.41-3.42,0.62-5.21,0.62c-12.31,0-22.29-9.98-22.29-22.29
				c0-12.31,9.98-22.29,22.29-22.29c1.79,0,3.54,0.21,5.21,0.62c-9.8,2.34-17.07,11.16-17.07,21.67
				C300.562,259.671,307.832,268.491,317.632,270.831z"/>
			<circle style="fill:#FFFFFF;" cx="208.858" cy="245.228" r="9.55"/>
		</g>
		<path style="fill:#DD9F8A;" d="M255.999,345.352c-12.828,0-25.656-3.214-37.349-9.642c-3.298-1.813-4.502-5.957-2.689-9.255
			c1.814-3.299,5.958-4.501,9.255-2.689c19.276,10.597,42.292,10.596,61.566,0c3.296-1.813,7.441-0.61,9.255,2.689
			c1.814,3.298,0.61,7.442-2.689,9.255C281.655,342.138,268.827,345.352,255.999,345.352z"/>
	</g>
	<circle style="fill:#181E21;" cx="255.995" cy="398.885" r="26.697"/>
	<circle style="fill:#181E21;" cx="255.995" cy="432.59" r="19.87"/>
	<circle style="fill:#181E21;" cx="255.995" cy="459.757" r="13.513"/>
	<g>
		<path style="fill:#2F373B;" d="M324.547,7.974c-9.024,51.768-18.062,103.536-27.1,155.304
			c-22.534-3.928-45.502-4.635-68.186-2.093c-4.92,0.544-9.826,1.237-14.719,2.093c-9.038-51.768-18.076-103.536-27.1-155.304
			c12.925-2.256,25.931-3.874,38.979-4.838c19.49-1.454,39.06-1.468,58.55-0.04l4.322,31.822l10.139-30.504
			C307.831,5.324,316.203,6.52,324.547,7.974z"/>
		<path style="fill:#181E21;" d="M229.261,161.185c-4.92,0.544-9.826,1.237-14.719,2.093c-9.038-51.768-18.076-103.536-27.1-155.304
			c12.925-2.256,25.931-3.874,38.979-4.838L229.261,161.185z"/>
	</g>
	<g>
		<path style="fill:#E84D59;" d="M401.49,198.5l-32.74,18.4c-0.93,0.52-1.94,0.77-2.93,0.77c-2.1,0-4.14-1.11-5.24-3.07
			c-1.62-2.89-0.6-6.54,2.29-8.17l20.16-11.32l-15.92-4.52c-2.35-0.66-4.06-2.68-4.33-5.1s0.94-4.76,3.08-5.93l34.13-18.7
			c1.48,3.75,2.82,7.58,4,11.48l-19.52,10.7l15.72,4.46c2.33,0.66,4.04,2.66,4.32,5.06C404.79,194.97,403.6,197.31,401.49,198.5z"/>
		<path style="fill:#E84D59;" d="M151.41,214.6c-1.1,1.96-3.14,3.07-5.24,3.07c-0.99,0-2-0.25-2.93-0.77l-32.74-18.4
			c-2.11-1.19-3.31-3.53-3.02-5.94c0.28-2.4,1.99-4.4,4.32-5.06l15.72-4.46L108,172.34c1.18-3.9,2.52-7.72,4.01-11.48l34.12,18.7
			c2.14,1.17,3.35,3.51,3.08,5.93s-1.98,4.44-4.33,5.1l-15.92,4.52l20.16,11.32C152.01,208.06,153.03,211.71,151.41,214.6z"/>
	</g>
	<g>
		<path style="fill:#E84D59;" d="M193.408,284.124h-28.98c-4.041,0-7.316,3.276-7.316,7.316v0c0,4.041,3.276,7.316,7.316,7.316
			h28.98c4.041,0,7.316-3.276,7.316-7.316v0C200.724,287.399,197.448,284.124,193.408,284.124z"/>
		<path style="fill:#E84D59;" d="M347.561,284.124h-28.98c-4.041,0-7.316,3.276-7.316,7.316v0c0,4.041,3.276,7.316,7.316,7.316
			h28.98c4.041,0,7.316-3.276,7.316-7.316v0C354.878,287.399,351.602,284.124,347.561,284.124z"/>
	</g>
</g>
<g>
</g>
<g>
</g>
<g>
</g>
<g>
</g>
<g>
</g>
<g>
</g>
<g>
</g>
<g>
</g>
<g>
</g>
<g>
</g>
<g>
</g>
<g>
</g>
<g>
</g>
<g>
</g>
<g>
</g>
</svg>
