<?xml version="1.0" encoding="iso-8859-1"?>
<!-- Generator: Adobe Illustrator 23.0.6, SVG Export Plug-In . SVG Version: 6.00 Build 0)  -->
<svg version="1.1" id="Capa_1" xmlns="http://www.w3.org/2000/svg" xmlns:xlink="http://www.w3.org/1999/xlink" x="0px" y="0px"
	 viewBox="0 0 512 512" style="enable-background:new 0 0 512 512;" xml:space="preserve">
<g>
	<circle style="fill:#B1E4F9;" cx="256" cy="256" r="256"/>
	<path style="fill:#80B4FB;" d="M506.29,310c-4.43,20.62-11.34,40.32-20.41,58.77C444.18,453.61,356.91,512,256,512
		c-88.6,0-166.7-45.02-212.65-113.44c-19.75-29.4-33.57-63.12-39.73-99.44c11.03,10.66,21.21,22.17,43.16,22.17
		c40.91,0,40.91-40,81.82-40c40.92,0,40.92,40,81.83,40c40.91,0,40.91-40,81.82-40c40.92,0,40.92,40,81.83,40
		c40.92,0,40.92-40,81.83-40C482.49,281.29,491.81,298.17,506.29,310z"/>
	<path style="fill:#5EA5EC;" d="M462.76,406.97c-18.84,25.77-42.39,47.88-69.38,65.07c-11.85,7.55-24.36,14.16-37.43,19.7
		c-5.42,2.31-10.92,4.42-16.52,6.35C313.28,507.11,285.21,512,256,512c-47.24,0-91.5-12.8-129.49-35.12
		c-15.54-9.13-30.03-19.85-43.25-31.94c1.72,0.22,3.54,0.33,5.45,0.33c36.21,0,36.21-40,72.42-40c36.21,0,36.21,40,72.41,40
		c36.21,0,36.21-40,72.42-40s36.21,40,72.42,40c36.21,0,36.21-40,72.42-40C455.3,405.27,459.24,405.89,462.76,406.97z"/>
	<g>
		<path style="fill:#C9394A;" d="M174.948,237.534c0,0-53.484-73.808-31.152-160.689c1.802-7.012,11.357-7.991,14.589-1.512
			c9.683,19.415,27.142,48.846,48.328,59.713c8.185,4.198,17.221-3.932,13.882-12.503c-6.604-16.955-15.659-44.223-16.423-67.881
			c-0.207-6.418,8.527-8.553,11.365-2.793c13.335,27.063,40.627,74.48,74.437,89.99c0,0-8.981-16.995-4.461-42.143
			c1.143-6.361,9.659-7.734,12.745-2.056c4.109,7.561,9.68,17.037,16.265,26.301c6.846,9.632,21.849,1.557,17.5-9.43
			c-7.93-20.031-14.947-44.734-14.981-69.488c-0.011-7.751,10.47-10.114,13.72-3.076c14.727,31.89,46.921,76.909,88.156,93.004
			c44.614,17.414-33.04,45.543-33.04,45.543l-120.393,92.677"/>
		<path style="fill:#434D51;" d="M510.19,225.43c-0.61,1.19-1.37,2.32-2.3,3.38c-11.09,12.67-27.32,20.79-40.03,25.61
			c-9.3,3.52-19.53-1.95-21.94-11.6c-1.39-5.52-3.3-11.12-5.58-16.45c-3.48,1.27-7.32,1.79-11.33,1.37
			c-10.95-1.16-20.01-9.54-22.02-20.37c-0.7-3.73-0.53-7.33,0.29-10.68c-1.76,1.61-3.32,4.11-4.61,7.67
			c-11.78,32.4,37.88,73.63,37.88,140.82c0,48.49-17.77,92.84-47.17,126.86c-16.76,10.68-34.84,19.47-53.95,26.05
			C313.28,507.11,285.21,512,256,512c-70.37,0-134.12-28.41-180.4-74.36l-0.01-0.01c-12.97-23.93-21.07-50.89-22.95-79.54
			c-0.29-4.27-0.43-8.57-0.43-12.91c0-67.19,49.67-108.42,37.89-140.82c-9.89-27.18-50.22-14.72-37.89,13.25
			c12.33,27.98,9.38,48.6-17.86,58.17c0,0,9.55-30.25-8.1-47.9c-6.67-6.67-14.6-16.28-19.99-28.35c-6.21-13.93-9.04-31.13-2.62-50.9
			c2.74-8.46,7.18-17.39,13.77-26.73c9.93-14.07,23.95-22.56,39.34-26.64c39.38-10.47,87.73,7.87,99.61,35.3
			c7,16.16,9.83,31.93,9.83,47.1c0,63.71-49.83,116.91-49.83,144.26c42.56,11.64,86.29,17.47,130.02,17.47
			c19.77,0,39.54-1.19,59.19-3.58c23.83-2.88,47.51-7.51,70.83-13.89c0-33.87-80.58-135.23-40-191.36
			c33.63-46.5,95.72-30.04,95.72-30.04l15.45-14.33l5.91-5.48c4.62-4.28,12.15-1.56,12.96,4.69l3.96,30.61
			c17.72,8.12,22.85,27.82,23.56,45.43c0.72,17.53-2.94,33.01-2.94,33.01l13.96,9.88c0.79,0.55,1.51,1.16,2.16,1.82
			C512.25,211.24,513.44,219.08,510.19,225.43z"/>
		<path style="fill:#2F373B;" d="M108.82,465.48c-8.96-6.3-17.5-13.17-25.56-20.54c-2.6-2.38-5.16-4.82-7.66-7.3l-0.01-0.01
			c-14.91-27.49-23.38-58.99-23.38-92.45c0-67.19,49.67-108.42,37.89-140.82c-9.89-27.18-50.22-14.72-37.89,13.25
			c12.33,27.98,9.38,48.6-17.86,58.17c0,0,9.55-30.25-8.1-47.9c-6.67-6.67-14.6-16.28-19.99-28.35c-6.21-13.93-9.04-31.13-2.62-50.9
			c-0.26,12.27,1.62,24.56,7.41,32.78c4.27,6.05,10.66,9.9,19.9,9.9c41.05,0,36.17-44.41,91.88-37.17
			c55.71,7.23,0,96.37-30.3,154.85C71.03,350.49,78.07,414.87,108.82,465.48z"/>
		<path style="fill:#2F373B;" d="M339.43,498.09C313.28,507.11,285.21,512,256,512c-70.38,0-134.13-28.41-180.41-74.37
			c-12.97-23.93-21.07-50.89-22.95-79.54l27.84-3.03C76.14,393.11,141.28,523.09,339.43,498.09z"/>
		<path style="fill:#2F373B;" d="M388.16,282.76c13.18,29.32,14.2,64.5-15.48,103.84l-67.11-50.79
			c23.83-2.88,47.51-7.51,70.83-13.89c0-33.87-80.58-135.23-40-191.36c33.63-46.5,95.72-30.04,95.72-30.04
			C287.9,109.85,374.99,253.44,388.16,282.76z"/>
		<path style="fill:#E84D59;" d="M119.176,336.565c0,0-66.582-98.83-44.254-185.709c1.803-7.014,11.36-7.993,14.592-1.513
			c12.706,25.475,38.799,68.191,69.131,63.588c0,0-22.13-46.68-23.346-84.258c-0.208-6.419,8.529-8.555,11.368-2.794
			c13.336,27.064,40.626,74.475,74.434,89.984c0,0-8.98-16.992-4.462-42.138c1.143-6.363,9.662-7.737,12.749-2.057
			c11.024,20.283,32.563,54.338,55.98,61.136c0,0-37.121-56.746-37.199-113.758c-0.011-7.751,10.47-10.114,13.72-3.076
			c14.727,31.89,46.921,76.909,88.156,93.004c44.614,17.414,34.95,138.22,34.95,138.22H196.612"/>
		<path style="fill:#FFBB16;" d="M311.73,313.328c11.294-3.434,13.568-34.71,1.571-51.651c-5.149-7.271-9.288-13.822-12.164-19.755
			c-2.012-4.152,3.24-8.046,6.645-4.933c5.583,5.106,13.619,9.484,24.76,9.484c26.725,0,52.6,61.249,24.365,78.624"/>
		<path style="fill:#FFBB16;" d="M282.506,307.055c-16.124,5.147-27.89-18.916-29.402-31.786
			c-2.26-19.235-26.533-37.082-41.399-46.316c-3.463-2.151-7.705,1.26-6.333,5.1c5.098,14.27,8.612,36.543-19.135,36.543
			c-28.166,0-51.07-21.71-62.566-35.174c-3.258-3.816-9.462-1.216-9.095,3.788c1.65,22.509,17.355,42.501,17.355,42.501
			l45.442,73.348l119.175-7.866"/>
		<g>
			<circle style="fill:#F6F1F1;" cx="315.787" cy="347.194" r="69.208"/>
			<circle style="fill:#BD5423;" cx="315.787" cy="347.194" r="49.128"/>
			<circle style="fill:#F6F1F1;" cx="315.787" cy="347.194" r="19.24"/>
		</g>
		<path style="fill:#2F373B;" d="M439.218,149.25c-10.055,10.055-10.055,26.358,0,36.413c10.055,10.055,26.358,10.055,36.413,0"/>
		<circle style="fill:#434D51;" cx="486.845" cy="229.112" r="19.222"/>
		<circle style="fill:#2F373B;" cx="486.845" cy="229.112" r="8.796"/>
		<g>
			<circle style="fill:#F6F1F1;" cx="177.372" cy="347.194" r="69.208"/>
			<circle style="fill:#BD5423;" cx="177.372" cy="347.194" r="49.128"/>
			<circle style="fill:#F6F1F1;" cx="177.372" cy="347.194" r="19.24"/>
		</g>
		<path style="fill:#C9394A;" d="M154.196,45.754c6.371,12.215,20.684,27.115,30.542,36.589c3.841,3.691,10.147,0.219,9.084-5.001
			c-2.579-12.661-10.297-30.379-32.83-39.18C156.306,36.332,151.869,41.293,154.196,45.754z"/>
		<path style="fill:#C9394A;" d="M392.822,72.67c-5.613-18.046-21.291-41.659-32.281-56.858c-4.282-5.922-13.643-2.777-13.485,4.529
			c0.385,17.721,6.471,43.526,34.736,60.915C387.67,84.873,394.872,79.261,392.822,72.67z"/>
		<path style="fill:#C9394A;" d="M301.391,72.692c-3.673-11.808-13.93-27.257-21.121-37.201c-2.802-3.875-8.927-1.817-8.823,2.963
			c0.252,11.594,4.234,28.478,22.727,39.856C298.02,80.677,302.732,77.005,301.391,72.692z"/>
		<path style="fill:#E84D59;" d="M205.457,151.894c-3.673-11.808-13.93-27.257-21.121-37.201c-2.802-3.875-8.927-1.817-8.823,2.963
			c0.252,11.594,4.234,28.478,22.727,39.856C202.086,159.879,206.798,156.207,205.457,151.894z"/>
		<path style="fill:#80B4FB;" d="M355.95,491.74c-5.42,2.31-10.92,4.42-16.52,6.35C313.28,507.11,285.21,512,256,512
			c-47.24,0-91.5-12.8-129.49-35.12c8.55-9.39,17.57-18.25,34.62-18.25c36.21,0,36.21,40,72.41,40c36.21,0,36.21-40,72.42-40
			C332.62,458.63,339.65,480.31,355.95,491.74z"/>
	</g>
</g>
<g>
</g>
<g>
</g>
<g>
</g>
<g>
</g>
<g>
</g>
<g>
</g>
<g>
</g>
<g>
</g>
<g>
</g>
<g>
</g>
<g>
</g>
<g>
</g>
<g>
</g>
<g>
</g>
<g>
</g>
</svg>
