<?xml version="1.0" encoding="iso-8859-1"?>
<!-- Generator: Adobe Illustrator 23.0.6, SVG Export Plug-In . SVG Version: 6.00 Build 0)  -->
<svg version="1.1" id="Capa_1" xmlns="http://www.w3.org/2000/svg" xmlns:xlink="http://www.w3.org/1999/xlink" x="0px" y="0px"
	 viewBox="0 0 512 512" style="enable-background:new 0 0 512 512;" xml:space="preserve">
<g>
	<path style="fill:#80B4FB;" d="M512,256c0,141.38-114.62,256-256,256c-58.78,0-112.94-19.82-156.15-53.13
		c-9.72-7.49-18.89-15.66-27.43-24.45c-6.84-7.05-13.28-14.48-19.29-22.27C19.82,368.94,0,314.78,0,256C0,114.62,114.62,0,256,0
		S512,114.62,512,256z"/>
	<g>
		<path style="fill:#FFBB16;" d="M120.55,447.88c-5.87,5.88-13.12,9.54-20.7,10.99c-17.51-13.49-33.23-29.21-46.72-46.72
			c1.45-7.58,5.11-14.83,10.98-20.71L120.55,447.88z"/>
		<path style="fill:#FF931F;" d="M83.8,411.13c-6.53,6.53-10.32,14.78-11.38,23.29c-6.84-7.05-13.28-14.48-19.29-22.27
			c1.44-7.59,5.1-14.85,10.97-20.72L83.8,411.13z"/>
		<polygon style="fill:#D9723E;" points="204.966,351.126 139.932,416.16 95.844,372.072 160.866,307.038 		"/>
		<polygon style="fill:#BD5423;" points="177.708,323.869 112.675,388.903 95.844,372.072 160.866,307.038 		"/>
		<path style="fill:#F6F1F1;" d="M483.355,54.765l-9.775,55.784c-1.153,6.578-4.305,12.641-9.027,17.363l-80.497,80.487
			l-11.074,11.084l-33.643,33.633l-88.635,88.645l-80.473-80.473L384.079,47.441c4.723-4.723,10.787-7.875,17.367-9.027
			l55.905-9.786c7.66-1.302,14.817,1.374,19.739,6.286C482.022,39.855,484.698,47.064,483.355,54.765z"/>
		<polygon style="fill:#FFFFFF;" points="372.982,219.48 339.343,253.119 178.404,253.119 212.043,219.48 		"/>
		<polygon style="fill:#FFFFFF;" points="433.931,158.531 384.061,208.401 223.121,208.401 272.992,158.531 		"/>
		<path style="fill:#D0E2E7;" d="M477.09,34.913L210.477,301.526l-40.247-40.236L384.079,47.441
			c4.723-4.723,10.787-7.875,17.367-9.027l55.905-9.786C465.011,27.325,472.168,30.001,477.09,34.913z"/>
		<path style="fill:#2F373B;" d="M230.668,392.469L119.53,281.332c-6.3-6.3-6.3-16.515,0-22.815l12.559-12.559
			c6.3-6.3,16.515-6.3,22.815,0l111.134,111.134c6.299,6.299,6.3,16.512,0.003,22.812l-12.555,12.562
			C247.186,398.77,236.969,398.771,230.668,392.469z"/>
		<path style="fill:#181E21;" d="M139.228,301.035l-19.697-19.697c-6.297-6.297-6.297-16.524,0-22.821l12.561-12.561
			c6.297-6.297,16.515-6.289,22.812,0.008l19.697,19.697c-6.306-6.306-16.515-6.306-22.812-0.009l-12.561,12.561
			C132.93,284.511,132.922,294.729,139.228,301.035z"/>
		<path style="fill:#2F373B;" d="M149.993,442.469l-11.306,11.306c-5.316,5.316-13.935,5.314-19.248-0.005l-10.053-10.063
			l-51.162-51.162c-5.314-5.314-5.314-13.93,0-19.244l11.302-11.302c5.314-5.314,13.93-5.314,19.244,0l61.224,61.224
			C155.307,428.539,155.307,437.155,149.993,442.469z"/>
		<path style="fill:#181E21;" d="M88.743,381.221l-11.301,11.301c-5.315,5.315-5.315,13.929,0,19.244l-19.219-19.219
			c-5.306-5.306-5.315-13.929,0-19.244l11.301-11.301c5.306-5.306,13.938-5.306,19.244,0l19.219,19.219
			C102.673,375.906,94.05,375.914,88.743,381.221z"/>
		<g>
			<path style="fill:#BD5423;" d="M173.1,382.993l-44.094-44.094c-4.637-4.637-4.637-12.155,0-16.792
				c4.637-4.637,12.155-4.637,16.792,0l44.094,44.094c4.637,4.637,4.637,12.155,0,16.792S177.737,387.629,173.1,382.993z"/>
			<path style="fill:#BD5423;" d="M146.936,409.157l-44.094-44.094c-4.637-4.637-4.637-12.155,0-16.792
				c4.637-4.637,12.155-4.637,16.792,0l44.094,44.094c4.637,4.637,4.637,12.155,0,16.792S151.572,413.794,146.936,409.157z"/>
		</g>
	</g>
</g>
<g>
</g>
<g>
</g>
<g>
</g>
<g>
</g>
<g>
</g>
<g>
</g>
<g>
</g>
<g>
</g>
<g>
</g>
<g>
</g>
<g>
</g>
<g>
</g>
<g>
</g>
<g>
</g>
<g>
</g>
</svg>
