<?xml version="1.0" encoding="iso-8859-1"?>
<!-- Generator: Adobe Illustrator 23.0.6, SVG Export Plug-In . SVG Version: 6.00 Build 0)  -->
<svg version="1.1" id="Capa_1" xmlns="http://www.w3.org/2000/svg" xmlns:xlink="http://www.w3.org/1999/xlink" x="0px" y="0px"
	 viewBox="0 0 512 512" style="enable-background:new 0 0 512 512;" xml:space="preserve">
<g>
	<path style="fill:#80B4FB;" d="M512,256c0,40.33-9.33,78.48-25.95,112.41C460,421.64,416.01,464.5,361.95,489.1l-0.01,0.01
		c-14.2,6.47-29.1,11.68-44.55,15.48C297.72,509.43,277.16,512,256,512C114.62,512,0,397.38,0,256S114.62,0,256,0
		S512,114.62,512,256z"/>
	<g>
		<g>
			<path style="fill:#DB740E;" d="M145.794,118.744C121.846,49.607,61.977-10.101,46.318,30.752s17.5,69.137,17.5,69.137
				s-46.975-18.855-46.975,18.855s34.08,46.732,34.08,46.732s-25.953-1.521-21.304,36.343s65.758,47.342,65.758,47.342"/>
			<path style="fill:#FF931F;" d="M366.206,118.744c23.948-69.137,83.818-128.845,99.476-87.992s-17.5,69.137-17.5,69.137
				s46.975-18.855,46.975,18.855s-34.08,46.732-34.08,46.732s25.953-1.521,21.304,36.343c-4.649,37.864-65.758,47.342-65.758,47.342
				"/>
		</g>
		<path style="fill:#FFBB16;" d="M410.71,99.01H101.29c2.55-13.27,7.91-26.78,16.46-39.38C140.02,26.73,183.93,0,256,0
			s115.98,26.73,138.25,59.63C402.8,72.23,408.16,85.74,410.71,99.01z"/>
		<path style="fill:#FF931F;" d="M256,0c-49.75,0-72.61,51.12-77.22,99.01H101.3C110.52,51.12,156.32,0,256,0z"/>
		<path style="fill:#FFBB16;" d="M450.05,422.97c-24.08,27.96-54.1,50.66-88.1,66.13C329.66,503.81,293.79,512,256,512
			s-73.67-8.19-105.96-22.9c-34-15.47-64.02-38.18-88.1-66.14l-0.01-0.01c10.73-9.99,22.6-18.79,35.4-26.16
			c15.68-9.02,32.74-15.89,50.77-20.21c2.78-0.68,5.59-1.29,8.42-1.83c5.34-1.04,10.76-1.84,16.25-2.41
			c1.58-0.17,3.15-0.32,4.75-0.45c5.19-0.43,10.45-0.64,15.77-0.64H318.7c6.95,0,13.79,0.37,20.52,1.07
			c5.49,0.57,10.9,1.39,16.25,2.4c2.13,0.42,4.26,0.86,6.36,1.34c0.69,0.18,1.4,0.32,2.08,0.51c4.18,0.99,8.31,2.13,12.37,3.42
			c13.5,4.21,26.35,9.87,38.4,16.8C427.47,404.17,439.33,412.96,450.05,422.97z"/>
		<path style="fill:#181E21;" d="M450.05,422.97c-24.08,27.96-54.1,50.66-88.1,66.13c-2.8-29.65,2.3-92.48,14.33-109.11
			c13.5,4.21,26.35,9.87,38.4,16.8C427.47,404.17,439.33,412.96,450.05,422.97z"/>
		<path style="fill:#DB740E;" d="M150.04,489.1c-34-15.47-64.02-38.18-88.1-66.14c10.72-10,22.58-18.79,35.37-26.17
			c12.05-6.93,24.9-12.59,38.4-16.8C147.74,396.62,152.84,459.45,150.04,489.1z"/>
		<g>
			<path style="fill:#EFB29A;" d="M132.54,278.153c0,20.497-14.973,37.492-34.579,40.646c-3.562-12.95-5.464-26.579-5.464-40.646
				c0-14.067,1.902-27.696,5.464-40.646C117.567,240.661,132.54,257.657,132.54,278.153z"/>
			<path style="fill:#EFB29A;" d="M379.449,278.153c0,20.497,14.973,37.492,34.579,40.646c3.562-12.95,5.464-26.579,5.464-40.646
				c0-14.067-1.902-27.696-5.464-40.646C394.422,240.661,379.449,257.657,379.449,278.153z"/>
		</g>
		<path style="fill:#F9C5AC;" d="M410.696,256.511c0,76.985-56.241,140.847-129.873,152.705c-8.078,1.326-16.369,1.997-24.828,1.997
			c-85.444,0-154.701-69.257-154.701-154.701V99.012h309.403V256.511z"/>
		<g>
			<path style="fill:#F6F1F1;" d="M232.662,228.577c-14.78,0-25.884-7.129-35.681-13.418c-10.071-6.466-16.631-10.331-24.235-8.394
				c-5.352,1.365-10.796-1.869-12.16-7.221c-1.364-5.352,1.869-10.796,7.221-12.16c16.416-4.184,28.935,3.853,39.979,10.944
				c8.21,5.27,15.964,10.249,24.876,10.249c5.523,0,10,4.477,10,10S238.185,228.577,232.662,228.577z"/>
			<path style="fill:#F6F1F1;" d="M279.327,228.577c-5.523,0-10-4.477-10-10s4.477-10,10-10c8.913,0,16.667-4.978,24.876-10.249
				c11.045-7.09,23.564-15.127,39.979-10.944c5.352,1.364,8.585,6.808,7.221,12.16c-1.364,5.352-6.811,8.584-12.16,7.221
				c-7.605-1.937-14.163,1.927-24.235,8.394C305.211,221.448,294.107,228.577,279.327,228.577z"/>
		</g>
		<path style="fill:#EFB29A;" d="M283.243,408.81c-0.8,0.14-1.61,0.28-2.42,0.41c-8.08,1.32-16.37,1.99-24.83,1.99
			c-85.44,0-154.7-69.25-154.7-154.7V99.01h54.55v157.5C155.843,332.65,210.823,395.92,283.243,408.81z"/>
		<path style="fill:#F6F1F1;" d="M486.05,368.41c-13.81,28.22-32.67,53.53-55.4,74.75c-20.13,18.8-43.3,34.38-68.7,45.94l-0.01,0.01
			c-8.41,8.4-25.29,13.71-44.55,15.48c-32.36,2.97-71.45-4.1-88.34-23.42c-26.94-30.84-71.08-10.44-88.02-27.37
			c-16.18-16.18-2.03-49.26-14.06-71.87c-0.63-1.04-1.26-2.08-1.87-3.14c-15.35-26.77-23.81-57.5-23.81-89.42v-62.52
			c6,0,31.89-40.79,31.89-40.79s-1.51,76.88,0,86.75c4.94,32.34,18.2,53.18,30.42,61.79c10.51,7.41,20.25,5.78,23.28-5.35
			c3.17-11.64,9.13-18.88,17.9-23.36c11.89-6.08,28.94-7.07,51.21-7.07c38.68,0,61.63,2.99,69.11,30.43
			c3.03,11.13,12.77,12.76,23.28,5.35c12.22-8.61,25.48-29.45,30.42-61.79c1.51-9.87,0-86.75,0-86.75s25.89-8.86,31.89-8.86v112.17
			c0,20.1-3.36,39.73-9.68,58.19l0.75-0.08c0,0,17.67,6.38,23.77,23.77C431.12,387.18,469.52,379.88,486.05,368.41z"/>
		<path style="fill:#D0E2E7;" d="M430.65,443.16c-20.13,18.8-43.3,34.38-68.7,45.94l-0.01,0.01c-8.41,8.4-25.29,13.71-44.55,15.48
			c-32.36,2.97-71.45-4.1-88.34-23.42c-26.94-30.84-71.08-10.44-88.02-27.37c-16.18-16.18-2.03-49.26-14.06-71.87
			c-0.63-1.04-1.26-2.08-1.87-3.14c-15.35-26.77-23.81-57.5-23.81-89.42v-62.52c6,0,31.89-40.79,31.89-40.79s-1.51,76.88,0,86.75
			c4.94,32.34,18.2,53.18,30.42,61.79c10.51,7.41,20.25,5.78,23.28-5.35c3.17-11.64,9.13-18.88,17.9-23.36
			c-13.81,13.15-8.95,69.72,17.08,82.42c26.02,12.71,22,67.15,47.47,73.65C294.48,468.38,389.29,420.77,430.65,443.16z"/>
		<path style="fill:#DD9F8A;" d="M255.995,315.279c12.954,0,25.908,3.246,37.716,9.737c3.331,1.831,4.547,6.015,2.715,9.346
			c-1.831,3.331-6.016,4.545-9.346,2.715c-19.465-10.701-42.707-10.7-62.17,0c-3.329,1.831-7.514,0.616-9.346-2.715
			c-1.831-3.331-0.616-7.515,2.715-9.346C230.087,318.525,243.041,315.279,255.995,315.279z"/>
		<path style="fill:#EFB29A;" d="M273.544,291.694h-35.098c-4.181,0-7.57-3.389-7.57-7.57v0c0-4.181,3.389-7.57,7.57-7.57h35.098
			c4.181,0,7.57,3.389,7.57,7.57v0C281.114,288.304,277.725,291.694,273.544,291.694z"/>
		<g>
			<circle style="fill:#2F373B;" cx="312.42" cy="249.161" r="37.334"/>
			<path style="fill:#EFB29A;" d="M168.49,249.161c0,17.165,13.915,31.08,31.08,31.08s31.08-13.915,31.08-31.08"/>
			<circle style="fill:#2F373B;" cx="199.57" cy="249.161" r="22.287"/>
			<path style="fill:#181E21;" d="M204.782,270.831c-1.67,0.41-3.42,0.62-5.21,0.62c-12.31,0-22.29-9.98-22.29-22.29
				c0-12.31,9.98-22.29,22.29-22.29c1.79,0,3.54,0.21,5.21,0.62c-9.8,2.34-17.07,11.16-17.07,21.67
				C187.712,259.671,194.982,268.491,204.782,270.831z"/>
			<circle style="fill:#FFFFFF;" cx="208.858" cy="245.228" r="9.55"/>
			
				<rect x="290.643" y="151.744" transform="matrix(0.7071 -0.7071 0.7071 0.7071 -79.7996 282.1158)" style="fill:#2F373B;" width="20" height="171.28"/>
		</g>
		<g>
			<path style="fill:#FF931F;" d="M123.092,146.903H92.068v175.343c0,11.442,7.314,21.602,18.165,25.233l31.203,10.441
				c11.632,3.892,23.657-4.764,23.657-17.03v-47.324c0-5.911-2.909-11.443-7.778-14.794l-34.222-23.548V146.903z"/>
			<path style="fill:#FFBB16;" d="M388.897,146.903v108.319l-34.222,23.548c-4.869,3.351-7.778,8.883-7.778,14.794v47.324
				c0,12.266,12.024,20.922,23.657,17.03l31.203-10.441c10.85-3.631,18.165-13.791,18.165-25.233V146.903H388.897z"/>
		</g>
		<path style="fill:#FF931F;" d="M410.71,99.01H101.29c2.55-13.27,7.91-26.78,16.46-39.38h276.5
			C402.8,72.23,408.16,85.74,410.71,99.01z"/>
		<path style="fill:#FFBB16;" d="M432.16,94.85v74.5c0,11.89-9.64,21.54-21.54,21.54H101.36c-11.89,0-21.53-9.65-21.53-21.54v-74.5
			c0-11.89,9.64-21.53,21.53-21.53h309.26C422.52,73.32,432.16,82.96,432.16,94.85z"/>
		<path style="fill:#FF931F;" d="M192.26,190.89h-90.9c-11.89,0-21.53-9.65-21.53-21.54v-74.5c0-11.89,9.64-21.53,21.53-21.53h90.9
			c-11.89,0-21.53,9.64-21.53,21.53v74.5C170.73,181.24,180.37,190.89,192.26,190.89z"/>
		<rect x="79.83" y="94.85" style="fill:#2F373B;" width="352.33" height="74.5"/>
		<rect x="79.83" y="94.85" style="fill:#181E21;" width="90.9" height="74.5"/>
		<path style="fill:#FFBB16;" d="M281.471,206.715l20.574-35.636h-92.102l20.574,35.636
			C241.841,226.327,270.149,226.327,281.471,206.715z"/>
	</g>
</g>
<g>
</g>
<g>
</g>
<g>
</g>
<g>
</g>
<g>
</g>
<g>
</g>
<g>
</g>
<g>
</g>
<g>
</g>
<g>
</g>
<g>
</g>
<g>
</g>
<g>
</g>
<g>
</g>
<g>
</g>
</svg>
