<?xml version="1.0" encoding="iso-8859-1"?>
<!-- Generator: Adobe Illustrator 23.0.6, SVG Export Plug-In . SVG Version: 6.00 Build 0)  -->
<svg version="1.1" id="Capa_1" xmlns="http://www.w3.org/2000/svg" xmlns:xlink="http://www.w3.org/1999/xlink" x="0px" y="0px"
	 viewBox="0 0 512 512" style="enable-background:new 0 0 512 512;" xml:space="preserve">
<g>
	<path style="fill:#6EC17D;" d="M512,256c0,141.38-114.62,256-256,256c-53.09,0-102.4-16.16-143.29-43.83
		c-14.61-9.89-28.16-21.26-40.41-33.87c-0.73-0.75-1.45-1.5-2.17-2.26C26.67,386.15,0,324.19,0,256C0,114.62,114.62,0,256,0
		S512,114.62,512,256z"/>
	<g>
		<circle style="fill:#FFBB16;" cx="201.703" cy="97.888" r="23.559"/>
		<path style="fill:#F6F1F1;" d="M440.12,156.97c0,172.09-139.52,311.6-311.62,311.6c-5.29,0-10.56-0.13-15.79-0.4
			c-15.48-10.48-29.76-22.61-42.58-36.13c1.36-6.89,5.29-13.43,12.14-18.15c81.68-56.18,135.24-150.29,135.24-256.92H440.12z"/>
		<path style="fill:#D0E2E7;" d="M341.372,146.963c0,0-2.465,46.529-17.272,94.036c-1.931,6.194,6.443,10.127,9.987,4.692
			c12.175-18.671,26.143-49.966,30.628-98.729"/>
		<path style="fill:#FF931F;" d="M209.194,120.228c-2.35,0.79-4.87,1.22-7.49,1.22c-13.01,0-23.56-10.55-23.56-23.56
			c0-13.01,10.55-23.56,23.56-23.56c2.62,0,5.14,0.43,7.49,1.22c-9.34,3.13-16.07,11.95-16.07,22.34
			S199.853,117.098,209.194,120.228z"/>
		<path style="fill:#D0E2E7;" d="M394.188,145.22c0,0-9.632,66.075-37.004,131.923c-3.569,8.586,7.864,15.299,13.636,8.009
			c19.828-25.044,43.872-67.867,56.681-136.864"/>
		<path style="fill:#D0E2E7;" d="M306.46,156.97C293.17,260.01,241.98,399.42,72.3,434.3c-0.73-0.75-1.45-1.5-2.17-2.26
			c1.36-6.89,5.29-13.43,12.14-18.15c81.68-56.18,135.24-150.29,135.24-256.92H306.46z"/>
		<path style="fill:#D9723E;" d="M434.176,33.463H222.451c-12.088,0-21.887,9.799-21.887,21.887v85.076
			c0,12.088,9.799,21.887,21.887,21.887h211.725c12.088,0,21.887-9.799,21.887-21.887V55.35
			C456.063,43.262,446.264,33.463,434.176,33.463z"/>
		<path style="fill:#BD5423;" d="M295.922,162.313h-73.47c-12.081,0-21.884-9.788-21.884-21.884V55.355
			c0-12.081,9.803-21.884,21.884-21.884h73.47c-12.081,0-21.884,9.803-21.884,21.884v85.074
			C274.037,152.526,283.841,162.313,295.922,162.313z"/>
		<circle style="fill:#FFBB16;" cx="445.207" cy="97.888" r="23.559"/>
		<path style="fill:#FF931F;" d="M452.698,120.228c-2.35,0.79-4.87,1.22-7.49,1.22c-13.01,0-23.56-10.55-23.56-23.56
			c0-13.01,10.55-23.56,23.56-23.56c2.62,0,5.14,0.43,7.49,1.22c-9.34,3.13-16.07,11.95-16.07,22.34
			S443.358,117.098,452.698,120.228z"/>
		<circle style="fill:#FFBB16;" cx="360.42" cy="97.888" r="23.559"/>
		<circle style="fill:#FFBB16;" cx="275.633" cy="97.888" r="23.559"/>
		<path style="fill:#FF931F;" d="M367.911,120.228c-2.35,0.79-4.87,1.22-7.49,1.22c-13.01,0-23.56-10.55-23.56-23.56
			c0-13.01,10.55-23.56,23.56-23.56c2.62,0,5.14,0.43,7.49,1.22c-9.34,3.13-16.07,11.95-16.07,22.34
			S358.571,117.098,367.911,120.228z"/>
		<path style="fill:#FF931F;" d="M283.124,120.228c-2.35,0.79-4.87,1.22-7.49,1.22c-13.01,0-23.56-10.55-23.56-23.56
			c0-13.01,10.55-23.56,23.56-23.56c2.62,0,5.14,0.43,7.49,1.22c-9.34,3.13-16.07,11.95-16.07,22.34
			S273.784,117.098,283.124,120.228z"/>
	</g>
</g>
<g>
</g>
<g>
</g>
<g>
</g>
<g>
</g>
<g>
</g>
<g>
</g>
<g>
</g>
<g>
</g>
<g>
</g>
<g>
</g>
<g>
</g>
<g>
</g>
<g>
</g>
<g>
</g>
<g>
</g>
</svg>
