<?xml version="1.0" encoding="iso-8859-1"?>
<!-- Generator: Adobe Illustrator 23.0.6, SVG Export Plug-In . SVG Version: 6.00 Build 0)  -->
<svg version="1.1" id="Capa_1" xmlns="http://www.w3.org/2000/svg" xmlns:xlink="http://www.w3.org/1999/xlink" x="0px" y="0px"
	 viewBox="0 0 512 512" style="enable-background:new 0 0 512 512;" xml:space="preserve">
<g>
	<path style="fill:#434D51;" d="M512,256c0,26.84-4.14,52.71-11.8,77.02c-9.91,31.45-25.73,60.28-46.15,85.19
		c-14.09,17.19-30.38,32.51-48.43,45.53c-13.68,9.87-28.38,18.43-43.9,25.47C329.49,503.85,293.7,512,256,512
		s-73.49-8.15-105.72-22.79c-7.14-3.23-14.1-6.79-20.86-10.64c-3.36-1.92-6.68-3.91-9.94-5.98c-0.83-0.51-1.65-1.04-2.47-1.57
		c-3.61-2.34-7.15-4.76-10.62-7.28c-1.4-1-2.78-2.02-4.15-3.06c-1.66-1.24-3.31-2.51-4.94-3.8c-14.72-11.64-28.13-24.86-39.96-39.42
		c-6.8-8.34-13.07-17.12-18.78-26.29c-4.26-6.85-8.21-13.91-11.83-21.17C9.62,335.67,0,296.96,0,256C0,114.62,114.62,0,256,0
		S512,114.62,512,256z"/>
	<path style="fill:#E84D59;" d="M57.141,324.659c-36.155-2.49-54.795-85.916-18.611-122.1S88.211,56.402,107.449,56.402
		s-2.816,138.384,33.622,138.384S146.638,0,185.531,0s4.938,124.166,54.494,130.682c49.557,6.516,46.084-88.748,84.96-88.748
		s4.737,180.716,38.748,180.716s43.785-151.745,74.409-137.247c64.341,30.459,7.38,236.766,7.38,236.766"/>
	<path style="fill:#FFBB16;" d="M113.02,342.058C80.468,283.76,89.075,230.875,97.3,222.65s18.084,42.865,43.771,42.865
		s13.756-90.866,39.269-90.866s4.886,96.431,25.513,96.431s41.29-103.357,68.048-103.357s-8.428,95.846,16.006,103.357
		c24.434,7.512,27.176-33.538,40.954-33.538s-4.364,68.674,24.53,66.594c28.893-2.079,34.622-101.577,66.668-101.577
		s-7.36,139.499-7.36,139.499"/>
	<g>
		<path style="fill:#BD5423;" d="M317.92,292.709l-63.741-70.264c-8.213-9.053-22.329-9.397-30.972-0.753l0,0
			c-5.601,5.601-7.649,13.839-5.322,21.411l21.204,69.01"/>
		<path style="fill:#D9723E;" d="M500.2,333.02c-9.91,31.45-25.73,60.28-46.15,85.19c-24.77,30.21-56.32,54.66-92.33,71H150.28
			c-19.02-8.63-36.79-19.52-52.98-32.33V287.59h342.93C465.31,287.59,487.38,305.65,500.2,333.02z"/>
		<path style="fill:#BD5423;" d="M454.05,418.21c-24.77,30.21-56.32,54.66-92.33,71H150.28c-19.02-8.63-36.79-19.52-52.98-32.33
			v-38.67H454.05z"/>
		<path style="fill:#BD5423;" d="M169.07,388.4c0,39.46-16.14,73.62-39.65,90.17c-11.27-6.43-22-13.69-32.12-21.69
			c-29.47-23.3-53.67-52.95-70.57-86.88c6.15-46.88,35.4-82.41,70.57-82.41C136.94,287.59,169.07,332.73,169.07,388.4z"/>
		<path style="fill:#F9C5AC;" d="M156.07,388.4c0,24.25-6.61,46.89-18.61,63.75c-6.01,8.44-12.96,14.81-20.45,18.87
			c-6.8-4.41-13.37-9.13-19.71-14.14c-23.16-18.31-43.07-40.55-58.74-65.71c-0.02-0.92-0.03-1.84-0.03-2.77
			c0-24.25,6.61-46.88,18.61-63.74c11.05-15.52,25.31-24.07,40.16-24.07c14.85,0,29.11,8.55,40.16,24.07
			C149.46,341.52,156.07,364.15,156.07,388.4z"/>
		<path style="fill:#EFB29A;" d="M141.07,388.4c0,21.16-5.62,40.71-15.83,55.05c-6.8,9.54-14.81,15.51-23,17.23
			c-1.66-1.24-3.31-2.51-4.94-3.8c-14.72-11.64-28.13-24.86-39.96-39.42c-2.5-9.04-3.81-18.86-3.81-29.06
			c0-21.15,5.62-40.7,15.83-55.04c8.16-11.46,18.08-17.77,27.94-17.77s19.78,6.31,27.94,17.77
			C135.45,347.7,141.07,367.25,141.07,388.4z"/>
		<path style="fill:#F9C5AC;" d="M97.301,446.212c-4.732,0-10.608-4.286-15.72-11.466c-8.416-11.821-13.051-28.279-13.051-46.344
			s4.635-34.524,13.051-46.345c5.111-7.179,10.988-11.465,15.72-11.465s10.608,4.286,15.72,11.466
			c8.416,11.821,13.051,28.279,13.051,46.344s-4.635,34.524-13.051,46.345C107.909,441.926,102.032,446.212,97.301,446.212z"/>
		<path style="fill:#EFB29A;" d="M97.301,430.126c-0.94-0.869-2.152-2.185-3.5-4.078c-6.623-9.303-10.271-22.672-10.271-37.645
			c0-14.974,3.647-28.343,10.27-37.645c1.348-1.893,2.56-3.209,3.5-4.078c0.94,0.869,2.152,2.185,3.5,4.078
			c6.623,9.303,10.271,22.672,10.271,37.645c0,14.974-3.647,28.343-10.27,37.645C99.453,427.941,98.241,429.257,97.301,430.126z"/>
		<path style="fill:#BD5423;" d="M284.205,337.438h-93.809c-5.554,0-10.056-4.502-10.056-10.056v0
			c0-5.554,4.502-10.056,10.056-10.056h93.809c5.554,0,10.056,4.502,10.056,10.056v0
			C294.261,332.935,289.759,337.438,284.205,337.438z"/>
		<path style="fill:#BD5423;" d="M320.806,408.154h-93.809c-5.554,0-10.056-4.502-10.056-10.056l0,0
			c0-5.554,4.502-10.056,10.056-10.056h93.809c5.554,0,10.056,4.502,10.056,10.056l0,0
			C330.862,403.652,326.359,408.154,320.806,408.154z"/>
		<path style="fill:#BD5423;" d="M355.604,370.66h-61.238c-5.554,0-10.056-4.502-10.056-10.056v0
			c0-5.554,4.502-10.056,10.056-10.056h61.238c5.554,0,10.056,4.502,10.056,10.056v0C365.66,366.158,361.158,370.66,355.604,370.66z
			"/>
		<path style="fill:#BD5423;" d="M445.523,322.169h-61.238c-5.554,0-10.056-4.502-10.056-10.056l0,0
			c0-5.554,4.502-10.056,10.056-10.056h61.238c5.554,0,10.056,4.502,10.056,10.056l0,0
			C455.579,317.666,451.076,322.169,445.523,322.169z"/>
	</g>
	<path style="fill:#E84D59;" d="M396.193,112.879c9.547-25.197,12.681-65.483,13.688-92.204
		c0.392-10.411-12.883-15.102-19.121-6.758c-15.132,20.238-30.963,54.563-14.495,98.917
		C379.69,122.059,392.707,122.081,396.193,112.879z"/>
	<path style="fill:#E84D59;" d="M37.464,137.293c-1.171-19.268,5.255-47.496,10.25-65.991c1.946-7.206,12.026-7.591,14.519-0.556
		c6.047,17.065,9.575,43.914-11.126,70.755C46.802,147.084,37.892,144.33,37.464,137.293z"/>
	<path style="fill:#E84D59;" d="M468.926,277.205c-1.171-19.268,5.255-47.496,10.25-65.991c1.946-7.206,12.026-7.591,14.519-0.556
		c6.047,17.064,9.575,43.914-11.126,70.755C478.263,286.996,469.353,284.242,468.926,277.205z"/>
</g>
<g>
</g>
<g>
</g>
<g>
</g>
<g>
</g>
<g>
</g>
<g>
</g>
<g>
</g>
<g>
</g>
<g>
</g>
<g>
</g>
<g>
</g>
<g>
</g>
<g>
</g>
<g>
</g>
<g>
</g>
</svg>
