<?xml version="1.0" encoding="iso-8859-1"?>
<!-- Generator: Adobe Illustrator 23.0.6, SVG Export Plug-In . SVG Version: 6.00 Build 0)  -->
<svg version="1.1" id="Capa_1" xmlns="http://www.w3.org/2000/svg" xmlns:xlink="http://www.w3.org/1999/xlink" x="0px" y="0px"
	 viewBox="0 0 512 512" style="enable-background:new 0 0 512 512;" xml:space="preserve">
<g>
	<path style="fill:#FFBB16;" d="M512,256c0,39.4-8.9,76.72-24.81,110.06c-3.21,6.74-6.71,13.31-10.49,19.7
		c-16.77,28.5-38.92,53.46-65.04,73.49c-7.1,5.45-14.49,10.53-22.16,15.21c-0.39,0.25-0.78,0.49-1.18,0.73
		c-35.94,21.74-77.67,34.9-122.32,36.61c-3.32,0.14-6.65,0.2-10,0.2s-6.68-0.06-10-0.2c-44.65-1.71-86.38-14.87-122.32-36.61
		c-0.4-0.24-0.79-0.48-1.18-0.73c-7.67-4.68-15.06-9.76-22.16-15.21c-26.12-20.03-48.27-44.99-65.04-73.49
		c-3.78-6.39-7.28-12.96-10.49-19.7C8.9,332.72,0,295.4,0,256c0-52.23,15.64-100.8,42.49-141.3c17.1-25.78,38.75-48.28,63.79-66.36
		c7.26-5.25,14.81-10.12,22.61-14.6c4.86-2.78,9.82-5.41,14.88-7.88C177.66,9.29,215.74,0,256,0s78.34,9.29,112.23,25.86
		c5.06,2.47,10.02,5.1,14.88,7.88c7.8,4.48,15.35,9.35,22.61,14.6c25.04,18.08,46.69,40.58,63.79,66.36
		C496.36,155.2,512,203.77,512,256z"/>
	<g>
		<path style="fill:#D9723E;" d="M476.7,385.76c-21.57,36.65-52.02,67.44-88.38,89.43C349.71,498.55,304.42,512,256,512
			s-93.71-13.45-132.32-36.81c-36.36-21.99-66.81-52.78-88.38-89.43c-10.65-90.14-8.25-181.44,7.19-271.06
			c3.02-17.49,6.53-34.92,10.54-52.27c4.95-21.43,24.1-36.57,46.1-36.57h313.74c22,0,41.15,15.14,46.1,36.57
			c4.01,17.35,7.52,34.78,10.54,52.27C484.95,204.32,487.35,295.62,476.7,385.76z"/>
		<path style="fill:#BD5423;" d="M164.7,25.86c-12.8,0-23.95,15.14-26.83,36.57c-2.33,17.35-4.38,34.78-6.14,52.27
			c-8.59,85.77-10.25,267.85-4.93,362.34c-1.05-0.61-2.09-1.22-3.12-1.85c-36.36-21.99-66.81-52.78-88.38-89.43
			c-10.65-90.14-8.25-181.44,7.19-271.06c3.02-17.49,6.53-34.92,10.54-52.27c4.95-21.43,24.1-36.57,46.1-36.57H164.7z"/>
		<path style="fill:#A0380E;" d="M128.89,33.74c-24.27,144.35-26.41,295.22-6.39,440.72c-7.67-4.68-15.06-9.76-22.16-15.21
			c-16.97-135.9-14.99-275.98,5.94-410.91c1.16-7.51,2.39-15,3.67-22.48h20.29C129.78,28.48,129.33,31.11,128.89,33.74z"/>
		<path style="fill:#A0380E;" d="M411.66,459.25c-7.1,5.45-14.49,10.53-22.16,15.21c20.01-145.5,17.87-296.37-6.39-440.72
			c-0.44-2.63-0.89-5.26-1.35-7.88h20.29c1.28,7.48,2.51,14.97,3.67,22.48C426.65,183.27,428.63,323.35,411.66,459.25z"/>
		<path style="fill:#A0380E;" d="M266,25.86V511.8c-3.32,0.14-6.65,0.2-10,0.2s-6.68-0.06-10-0.2V25.86H266z"/>
		<path style="fill:#F6F1F1;" d="M31.239,197.182h449.522c10.421,0,18.562-9.008,17.511-19.376
			c-2.601-25.665-6.226-51.226-10.871-76.595c-1.526-8.338-8.825-14.376-17.302-14.376H41.9c-8.476,0-15.775,6.038-17.302,14.376
			c-4.645,25.369-8.27,50.93-10.87,76.595C12.677,188.174,20.818,197.182,31.239,197.182z"/>
		<path style="fill:#D0E2E7;" d="M142.308,177.805c-0.5,10.37,3.32,19.38,8.21,19.38H31.238c-10.42,0-18.56-9.01-17.51-19.38
			c2.6-25.67,6.22-51.23,10.87-76.6c1.53-8.33,8.82-14.37,17.3-14.37h113.63c-3.98,0-7.41,6.04-8.12,14.37
			C145.228,126.575,143.527,152.135,142.308,177.805z"/>
		<path style="fill:#F6F1F1;" d="M487.19,366.06c-7.65,16.04-16.93,31.17-27.62,45.16c-6.32,8.3-13.15,16.19-20.43,23.65
			c-15.12,15.48-32.19,29.06-50.82,40.32H123.68c-18.63-11.26-35.7-24.84-50.82-40.32c-7.28-7.46-14.11-15.35-20.43-23.65
			c-10.69-13.99-19.97-29.12-27.62-45.16c1.99-0.79,4.15-1.22,6.43-1.22h449.52C483.04,364.84,485.2,365.27,487.19,366.06z"/>
		<path style="fill:#D0E2E7;" d="M155.53,475.19h-31.85c-42.71-25.83-77.26-63.8-98.87-109.13c1.99-0.79,4.15-1.22,6.43-1.22h119.28
			c-4.89,0-8.71,9.01-8.21,19.38c1.22,25.67,2.92,51.23,5.1,76.6C148.12,469.15,151.55,475.19,155.53,475.19z"/>
		<g>
			<circle style="fill:#2F373B;" cx="66.154" cy="142.008" r="16.3"/>
			<circle style="fill:#2F373B;" cx="142.093" cy="142.008" r="16.3"/>
			<circle style="fill:#2F373B;" cx="218.031" cy="142.008" r="16.3"/>
			<circle style="fill:#2F373B;" cx="293.969" cy="142.008" r="16.3"/>
			<circle style="fill:#2F373B;" cx="369.907" cy="142.008" r="16.3"/>
			<circle style="fill:#2F373B;" cx="445.846" cy="142.008" r="16.3"/>
		</g>
		<g>
			<path style="fill:#2F373B;" d="M82.45,420.01c0,6.62-3.93,12.31-9.59,14.86c-7.28-7.46-14.11-15.35-20.43-23.65
				c2.89-4.51,7.96-7.5,13.72-7.5C75.16,403.72,82.45,411.01,82.45,420.01z"/>
			<circle style="fill:#2F373B;" cx="142.093" cy="420.015" r="16.3"/>
			<circle style="fill:#2F373B;" cx="218.031" cy="420.015" r="16.3"/>
			<circle style="fill:#2F373B;" cx="293.969" cy="420.015" r="16.3"/>
			<circle style="fill:#2F373B;" cx="369.907" cy="420.015" r="16.3"/>
			<path style="fill:#2F373B;" d="M459.57,411.22c-6.32,8.3-13.15,16.19-20.43,23.65c-5.66-2.55-9.59-8.24-9.59-14.86
				c0-9,7.29-16.29,16.3-16.29C451.61,403.72,456.68,406.71,459.57,411.22z"/>
		</g>
		<path style="fill:#BD5423;" d="M339.102,342.058c-15.924,0-28.833-12.909-28.833-28.833s12.909-28.833,28.833-28.833h24.289
			v57.667H339.102z"/>
		<circle style="fill:#A0380E;" cx="363.391" cy="313.225" r="28.833"/>
	</g>
</g>
<g>
</g>
<g>
</g>
<g>
</g>
<g>
</g>
<g>
</g>
<g>
</g>
<g>
</g>
<g>
</g>
<g>
</g>
<g>
</g>
<g>
</g>
<g>
</g>
<g>
</g>
<g>
</g>
<g>
</g>
</svg>
