<?xml version="1.0" encoding="iso-8859-1"?>
<!-- Generator: Adobe Illustrator 23.0.6, SVG Export Plug-In . SVG Version: 6.00 Build 0)  -->
<svg version="1.1" id="Capa_1" xmlns="http://www.w3.org/2000/svg" xmlns:xlink="http://www.w3.org/1999/xlink" x="0px" y="0px"
	 viewBox="0 0 512 512" style="enable-background:new 0 0 512 512;" xml:space="preserve">
<g>
	<path style="fill:#B1E4F9;" d="M512,256c0,2.6-0.04,5.19-0.12,7.77c-1.82,61.14-25.08,116.89-62.52,160
		c-28.8,33.17-66,58.86-108.28,73.75c-9.96,3.51-20.21,6.42-30.7,8.69C292.85,510,274.66,512,256,512s-36.85-2-54.38-5.79
		c-10.49-2.27-20.74-5.18-30.7-8.69c-42.28-14.89-79.48-40.58-108.28-73.75c-37.44-43.11-60.7-98.86-62.52-160
		C0.04,261.19,0,258.6,0,256C0,114.62,114.62,0,256,0S512,114.62,512,256z"/>
	<path style="fill:#6EC17D;" d="M511.88,263.77c-1.82,61.14-25.08,116.89-62.52,160c-28.8,33.17-66,58.86-108.28,73.75
		c-9.96,3.51-20.21,6.42-30.7,8.69C292.85,510,274.66,512,256,512s-36.85-2-54.38-5.79c-10.49-2.27-20.74-5.18-30.7-8.69
		c-42.28-14.89-79.48-40.58-108.28-73.75c-37.44-43.11-60.7-98.86-62.52-160H511.88z"/>
	<g>
		<rect x="155.083" y="90.913" style="fill:#D9723E;" width="201.834" height="201.834"/>
		<rect x="155.083" y="90.913" style="fill:#BD5423;" width="24.79" height="201.834"/>
		<path style="fill:#2F373B;" d="M242.885,5.096l-103.153,94.42c-5.301,4.852-1.868,13.687,5.318,13.687H366.95
			c7.186,0,10.619-8.835,5.318-13.687L269.115,5.096C261.692-1.699,250.308-1.699,242.885,5.096z"/>
		<path style="fill:#181E21;" d="M256,0.003c-2.8,0-5.59,1.69-7.8,5.09l-61.35,94.42c-3.16,4.86-1.11,13.69,3.16,13.69h-44.96
			c-7.19,0-10.62-8.83-5.32-13.69l103.15-94.42C246.59,1.694,251.3,0.003,256,0.003z"/>
	</g>
	<path style="fill:#BD5423;" d="M449.36,293.58v130.19c-28.8,33.17-66,58.86-108.28,73.75c-9.96,3.51-20.21,6.42-30.7,8.69
		C292.85,510,274.66,512,256,512s-36.85-2-54.38-5.79c-4.71-1.02-9.37-2.17-13.98-3.45c-5.66-1.55-11.23-3.31-16.72-5.24
		c-6.73-2.37-13.34-5.02-19.8-7.93c-34.12-15.33-64.27-37.93-88.48-65.82V293.58H449.36z"/>
	<path style="fill:#A0380E;" d="M187.64,334.92v167.84c-5.66-1.55-11.23-3.31-16.72-5.24c-6.73-2.37-13.34-5.02-19.8-7.93V334.92
		H187.64z"/>
	<rect x="62.64" y="293.58" style="fill:#A0380E;" width="386.72" height="55.38"/>
	<path style="fill:#181E21;" d="M417.547,183.674H94.453c-14.087,0-26.425,9.445-30.101,23.043l-22.249,82.287
		c-5.359,19.821,9.569,39.321,30.101,39.321h367.592c20.533,0,35.461-19.5,30.101-39.321l-22.249-82.287
		C443.971,193.119,431.634,183.674,417.547,183.674z"/>
	<path style="fill:#2F373B;" d="M417.031,220.6H94.969c-4.145,0-7.505-3.36-7.505-7.505v0c0-4.145,3.36-7.505,7.505-7.505h322.063
		c4.145,0,7.505,3.36,7.505,7.505v0C424.536,217.24,421.176,220.6,417.031,220.6z"/>
	<path style="fill:#2F373B;" d="M427.041,255.345H84.959c-4.145,0-7.505-3.36-7.505-7.505v0c0-4.145,3.36-7.505,7.505-7.505h342.082
		c4.145,0,7.505,3.36,7.505,7.505v0C434.546,251.985,431.186,255.345,427.041,255.345z"/>
	<path style="fill:#2F373B;" d="M437.839,291.897H74.161c-4.145,0-7.505-3.36-7.505-7.505l0,0c0-4.145,3.36-7.505,7.505-7.505
		h363.678c4.145,0,7.505,3.36,7.505,7.505l0,0C445.344,288.536,441.984,291.897,437.839,291.897z"/>
	<path style="fill:#D9723E;" d="M341.08,328.33v169.19c-9.96,3.51-20.21,6.42-30.7,8.69C292.85,510,274.66,512,256,512
		s-36.85-2-54.38-5.79c-10.49-2.27-20.74-5.18-30.7-8.69V328.33H341.08z"/>
	<rect x="170.92" y="328.33" style="fill:#BD5423;" width="170.16" height="27.148"/>
	<path style="fill:#FFBB16;" d="M294.455,165.249h-20.029v-21.942c0-5.533-4.485-10.018-10.018-10.018h-16.816
		c-5.533,0-10.018,4.485-10.018,10.018v21.942h-20.029c-5.533,0-10.018,4.485-10.018,10.018v16.816
		c0,5.533,4.485,10.018,10.018,10.018h20.029v48.06h36.852V202.1h20.029c5.533,0,10.018-4.485,10.018-10.018v-16.816
		C304.472,169.734,299.987,165.249,294.455,165.249z"/>
	<path style="fill:#2F373B;" d="M242.885,232.886l-103.153,94.42c-5.301,4.852-1.868,13.687,5.318,13.687H366.95
		c7.186,0,10.619-8.835,5.318-13.687l-103.153-94.42C261.692,226.091,250.308,226.091,242.885,232.886z"/>
	<path style="fill:#181E21;" d="M310.38,401.11v105.1C292.85,510,274.66,512,256,512s-36.85-2-54.38-5.79v-105.1
		c0-14.76,11.97-26.74,26.74-26.74h55.28C298.41,374.37,310.38,386.35,310.38,401.11z"/>
</g>
<g>
</g>
<g>
</g>
<g>
</g>
<g>
</g>
<g>
</g>
<g>
</g>
<g>
</g>
<g>
</g>
<g>
</g>
<g>
</g>
<g>
</g>
<g>
</g>
<g>
</g>
<g>
</g>
<g>
</g>
</svg>
