<?xml version="1.0" encoding="iso-8859-1"?>
<!-- Generator: Adobe Illustrator 23.0.6, SVG Export Plug-In . SVG Version: 6.00 Build 0)  -->
<svg version="1.1" id="Capa_1" xmlns="http://www.w3.org/2000/svg" xmlns:xlink="http://www.w3.org/1999/xlink" x="0px" y="0px"
	 viewBox="0 0 512 512" style="enable-background:new 0 0 512 512;" xml:space="preserve">
<g>
	<circle style="fill:#2F373B;" cx="256" cy="256" r="256"/>
	<path style="fill:#5EA5EC;" d="M512,256c0,141.38-114.62,256-256,256S0,397.38,0,256c0-12.01,0.83-23.82,2.43-35.39
		c11.51,10.97,21.62,23.32,44.35,23.32c40.91,0,40.91-40,81.82-40c40.92,0,40.92,40,81.83,40c40.91,0,40.91-40,81.82-40
		c40.92,0,40.92,40,81.83,40c40.92,0,40.92-40,81.83-40c29.49,0,37.73,20.77,55.34,32.38C511.75,242.81,512,249.38,512,256z"/>
	<path style="fill:#80B4FB;" d="M506.29,310c-4.43,20.62-11.34,40.32-20.41,58.77C444.18,453.61,356.91,512,256,512
		c-88.6,0-166.7-45.02-212.65-113.44c-19.75-29.4-33.57-63.12-39.73-99.44c11.03,10.66,21.21,22.17,43.16,22.17
		c40.91,0,40.91-40,81.82-40c40.92,0,40.92,40,81.83,40c40.91,0,40.91-40,81.82-40c40.92,0,40.92,40,81.83,40
		c40.92,0,40.92-40,81.83-40C482.49,281.29,491.81,298.17,506.29,310z"/>
	<path style="fill:#E84D59;" d="M58.406,289.885c-18.962-59.312,0.78-119.884,25.457-144.562s21.537,37.515,39.035,37.515
		S143.089,65.01,176.74,65.01s-2.692,74.481,28.267,80.314s45.092-105.216,88.839-100.505c43.746,4.711-3.006,115.76,32.148,115.76
		s32.462-74.032,64.767-74.032s1.531,80.861,28.36,90.907s51.823-13.962,32.596,78.805"/>
	<path style="fill:#FFBB16;" d="M86.705,243.513c-8.974-29.99-7.478-45.861,4.188-50.339c11.666-4.478,3.655,16.68,23.93,14.366
		c20.274-2.314,28.716-67.003,43.073-62.217s-18.546,42.3,14.358,48.968s37.689-38.2,52.047-38.2s-3.484,38.416,14.358,38.2
		c17.842-0.216,31.109-40.593,53.243-34.611s5.384,41.877,30.51,41.877c25.126,0,22.733-40.68,42.475-38.287
		c19.742,2.393,16.153,93.326,16.153,93.326"/>
	<path style="fill:#BD5423;" d="M451.72,256.26v163.91H58.41V256.26c0-18.46,14.96-33.42,33.41-33.42H418.3
		C436.76,222.84,451.72,237.8,451.72,256.26z"/>
	<path style="fill:#A0380E;" d="M451.72,377.94v42.23H58.41v-42.23c0-18.46,14.96-33.42,33.41-33.42H418.3
		C436.76,344.52,451.72,359.48,451.72,377.94z"/>
	<path style="fill:#5EA5EC;" d="M485.88,368.77c-13.62,27.71-32.1,52.6-54.33,73.54c-6.33,5.98-12.96,11.62-19.87,16.93
		c-6.26,4.8-12.75,9.32-19.46,13.54C352.77,497.62,306.07,512,256,512c-62.58,0-119.92-22.46-164.39-59.77
		c-18.5-15.5-34.77-33.57-48.26-53.67c1.11,0.07,2.25,0.1,3.43,0.1c40.91,0,40.91-40,81.82-40c40.92,0,40.92,40,81.83,40
		c40.91,0,40.91-40,81.82-40c40.92,0,40.92,40,81.83,40c40.92,0,40.92-40,81.83-40C469.35,358.66,478.37,362.97,485.88,368.77z"/>
	<path style="fill:#80B4FB;" d="M374.08,476.02c7.15,0,13.05-1.22,18.14-3.24C352.77,497.62,306.07,512,256,512
		c-62.58,0-119.92-22.46-164.39-59.77c9.07-8.59,19.13-16.21,36.99-16.21c40.92,0,40.92,40,81.83,40c40.91,0,40.91-40,81.82-40
		C333.17,436.02,333.17,476.02,374.08,476.02z"/>
	<path style="fill:#F6F1F1;" d="M410.62,249.28v37.29c0,24.58-19.92,44.51-44.5,44.51H141.38c-24.58,0-44.51-19.93-44.51-44.51
		v-37.29c0-24.58,19.93-44.5,44.51-44.5h224.74C390.7,204.78,410.62,224.7,410.62,249.28z"/>
	<path style="fill:#D0E2E7;" d="M410.619,249.272v37.294c0,24.583-19.928,44.511-44.498,44.511H141.375
		c-24.583,0-44.498-19.928-44.498-44.511v-37.294c0-0.193,0-0.386,0.014-0.579c0.606,24.06,20.286,43.355,44.484,43.355h224.746
		c24.184,0,43.878-19.295,44.484-43.355C410.619,248.886,410.619,249.079,410.619,249.272z"/>
	<path style="fill:#D0E2E7;" d="M212.03,305.96l-9.65-2.61c9.68-35.77,7.57-62.94-6.27-80.75c-7.15-9.2-16.5-14.63-25.11-17.82
		h21.05c4.26,3.16,8.33,7.01,11.96,11.68C219.88,236.88,222.58,267,212.03,305.96z"/>
	<path style="fill:#D0E2E7;" d="M287.74,305.96l-9.65-2.61c9.66-35.73,7.57-62.87-6.21-80.68c-7.15-9.24-16.59-14.68-25.25-17.89
		h21.13c4.25,3.16,8.33,7.01,11.96,11.68C295.58,236.88,298.28,267,287.74,305.96z"/>
	<path style="fill:#D0E2E7;" d="M373.38,305.96l-9.65-2.61c9.67-35.73,7.58-62.87-6.21-80.68c-7.15-9.24-16.59-14.68-25.25-17.89
		h21.13c4.26,3.16,8.33,7.01,11.96,11.68C381.23,236.88,383.93,267,373.38,305.96z"/>
	<path style="fill:#E84D59;" d="M271.574,229.55c17.544,0,46.704,24.828,28.53,43.003c-18.175,18.175-51.986,3.916-51.986-9.77
		S254.632,229.55,271.574,229.55z"/>
	<g>
		<path style="fill:#FFBB16;" d="M265.841,124.028c-0.002-2.32,0.707-4.474,1.917-6.258c6.121-0.794,12.329-0.794,18.451,0
			c1.21,1.783,1.919,3.937,1.921,6.258H265.841z"/>
		<path style="fill:#FF931F;" d="M280.354,124.028c0-2.579-0.881-4.956-2.352-6.846c2.743,0.041,5.482,0.237,8.206,0.588
			c1.214,1.783,1.925,3.939,1.925,6.258H280.354z"/>
		<rect x="268.277" y="134.118" style="fill:#D9723E;" width="17.413" height="25.682"/>
		<rect x="279.041" y="134.118" style="fill:#BD5423;" width="6.648" height="25.682"/>
		<polygon style="fill:#F6F1F1;" points="292.88,170.686 292.88,254.316 261.09,254.316 261.1,223.346 261.09,218.976 
			261.1,205.686 261.09,170.686 		"/>
		<polygon style="fill:#FFFFFF;" points="261.095,218.973 261.095,205.689 292.875,173.909 292.875,187.194 		"/>
		<polygon style="fill:#FFFFFF;" points="261.095,243.043 261.095,223.348 292.875,191.569 292.875,211.264 		"/>
		<rect x="276.98" y="170.686" style="fill:#D0E2E7;" width="15.9" height="83.63"/>
		<path style="fill:#2F373B;" d="M255.038,156.713h43.891c2.488,0,4.505,2.017,4.505,4.505v4.96c0,2.488-2.017,4.505-4.505,4.505
			h-43.889c-2.488,0-4.504-2.016-4.505-4.504l-0.001-4.96C250.532,158.731,252.549,156.713,255.038,156.713z"/>
		<path style="fill:#181E21;" d="M291.149,156.712h7.779c2.487,0,4.506,2.019,4.506,4.506v4.961c0,2.487-2.019,4.503-4.506,4.503
			h-7.779c2.49,0,4.506-2.016,4.506-4.503v-4.961C295.655,158.731,293.639,156.712,291.149,156.712z"/>
		<path style="fill:#2F373B;" d="M261.095,130.91v-4.465c0-2.099,1.702-3.801,3.802-3.8l3.972,0.002h20.205
			c2.099,0,3.8,1.701,3.8,3.8v4.463c0,2.099-1.701,3.8-3.8,3.8h-24.179C262.796,134.71,261.095,133.008,261.095,130.91z"/>
		<path style="fill:#181E21;" d="M285.284,130.91v-4.463c0-2.099-1.701-3.8-3.8-3.8h7.59c2.096,0,3.8,1.701,3.8,3.8v4.463
			c0,2.096-1.704,3.8-3.8,3.8h-7.59C283.583,134.71,285.284,133.005,285.284,130.91z"/>
	</g>
</g>
<g>
</g>
<g>
</g>
<g>
</g>
<g>
</g>
<g>
</g>
<g>
</g>
<g>
</g>
<g>
</g>
<g>
</g>
<g>
</g>
<g>
</g>
<g>
</g>
<g>
</g>
<g>
</g>
<g>
</g>
</svg>
