<?xml version="1.0" encoding="iso-8859-1"?>
<!-- Generator: Adobe Illustrator 23.0.6, SVG Export Plug-In . SVG Version: 6.00 Build 0)  -->
<svg version="1.1" id="Capa_1" xmlns="http://www.w3.org/2000/svg" xmlns:xlink="http://www.w3.org/1999/xlink" x="0px" y="0px"
	 viewBox="0 0 512 512" style="enable-background:new 0 0 512 512;" xml:space="preserve">
<g>
	<circle style="fill:#6EC17D;" cx="256" cy="256" r="256"/>
	<g>
		<path style="fill:#D9723E;" d="M398.41,468.76c-12.34,8.28-25.44,15.52-39.18,21.57c-9.59,4.23-19.49,7.9-29.65,10.93
			c-1.12,0.34-2.25,0.67-3.38,0.99C303.9,508.6,280.35,512,256,512c-24.34,0-47.89-3.4-70.2-9.74c-7.24-2.06-14.36-4.44-21.33-7.12
			c-0.43-0.16-0.86-0.32-1.29-0.49c-3.51-1.36-6.98-2.81-10.41-4.32c-13.74-6.06-26.84-13.29-39.19-21.58
			c10.39-14.37,23.76-26.43,39.19-35.32c10.2-5.87,21.3-10.34,33.03-13.15c1.81-0.44,3.64-0.84,5.48-1.19
			c3.47-0.68,7-1.2,10.57-1.57c1.03-0.11,2.05-0.21,3.09-0.29c3.38-0.28,6.8-0.42,10.26-0.42h81.59c4.52,0,8.97,0.24,13.35,0.7
			c3.57,0.37,7.09,0.9,10.57,1.56c1.39,0.27,2.77,0.56,4.14,0.87c0.45,0.12,0.91,0.21,1.35,0.33c3.48,0.84,6.9,1.82,10.26,2.94
			c7.98,2.65,15.59,6.09,22.77,10.22C374.66,442.33,388.02,454.39,398.41,468.76z"/>
		<path style="fill:#BD5423;" d="M215.2,416.81c-29.36,0-49.26,42.43-50.73,78.33c-0.43-0.16-0.86-0.32-1.29-0.49
			c-3.51-1.36-6.98-2.81-10.41-4.32c-13.74-6.06-26.84-13.29-39.19-21.58c10.39-14.37,23.76-26.43,39.19-35.32
			c10.2-5.87,21.3-10.34,33.03-13.15c1.81-0.44,3.64-0.84,5.48-1.19c3.47-0.68,7-1.2,10.57-1.57c1.03-0.11,2.05-0.21,3.09-0.29
			C208.32,416.95,211.74,416.81,215.2,416.81z"/>
		<path style="fill:#434D51;" d="M320.71,419.07v4.34c0,11.79-3.12,22.94-8.71,32.57c-6.57,11.32-16.55,20.54-28.87,26.18
			c-2.57,1.18-5.24,2.2-8.01,3.06c-6.17,1.92-12.61,2.89-19.13,2.89c-9.68,0-18.87-2.14-27.13-5.97
			c-12.05-5.58-22.1-14.77-28.76-26.16c-5.61-9.57-8.82-20.71-8.82-32.57v-4.32c3.47-0.68,7-1.2,10.57-1.57
			c1.03-0.11,2.05-0.21,3.09-0.29c3.38-0.28,6.8-0.42,10.26-0.42h81.59c4.52,0,8.97,0.24,13.35,0.7
			C313.71,417.88,317.23,418.41,320.71,419.07z"/>
	</g>
	<path style="fill:#D0E2E7;" d="M312,455.98c-6.57,11.32-16.55,20.54-28.87,26.18c-2.57,1.18-5.24,2.2-8.01,3.06
		c-6.17,1.92-12.61,2.89-19.13,2.89c-9.68,0-18.87-2.14-27.13-5.97c-12.05-5.58-22.1-14.77-28.76-26.16H312z"/>
	<path style="fill:#F6F1F1;" d="M283.13,362.34v119.82c-2.57,1.18-5.24,2.2-8.01,3.06c-6.17,1.92-12.61,2.89-19.13,2.89
		c-9.68,0-18.87-2.14-27.13-5.97v-119.8H283.13z"/>
	<path style="fill:#D0E2E7;" d="M283.13,362.34v50.43h-33.02v75.07c-7.53-0.68-14.68-2.65-21.25-5.7v-119.8H283.13z"/>
	<path style="fill:#F6F1F1;" d="M345.68,314.12v60.56c0,13.18-10.68,23.86-23.86,23.86H190.17c-13.18,0-23.86-10.68-23.86-23.86
		v-60.56H345.68z"/>
	<path style="fill:#D0E2E7;" d="M239.04,398.54h-48.87c-13.18,0-23.86-10.68-23.86-23.86v-60.56h48.87v60.56
		C215.18,387.86,225.86,398.54,239.04,398.54z"/>
	<path style="fill:#D0E2E7;" d="M345.68,314.12v41.57c-0.82,0.03-1.65,0.05-2.48,0.05H166.31v-41.62H345.68z"/>
	<path style="fill:#F6F1F1;" d="M410.7,128.45v144.78c0,36.63-29.7,66.33-66.33,66.33H167.62c-36.63,0-66.33-29.7-66.33-66.33
		V128.45H410.7z"/>
	<path style="fill:#D0E2E7;" d="M234.39,339.561h-66.78c-36.63,0-66.32-29.7-66.32-66.33v-144.78h66.78v144.78
		C168.07,309.861,197.76,339.561,234.39,339.561z"/>
	<rect x="101.29" y="148.36" style="fill:#D0E2E7;" width="309.41" height="88.08"/>
	<path style="fill:#2F373B;" d="M194.53,197.16h-18.174c-14.074,0-25.482,11.409-25.482,25.482V252.8
		c0,14.074,11.409,25.482,25.482,25.482h18.174c14.074,0,25.482-11.409,25.482-25.482v-30.157
		C220.013,208.569,208.604,197.16,194.53,197.16z"/>
	<path style="fill:#2F373B;" d="M335.633,197.16h-18.174c-14.074,0-25.482,11.409-25.482,25.482V252.8
		c0,14.074,11.409,25.482,25.482,25.482h18.174c14.074,0,25.482-11.409,25.482-25.482v-30.157
		C361.116,208.569,349.707,197.16,335.633,197.16z"/>
	<path style="fill:#D9723E;" d="M258.07,0h-3.72C164.961,0,92.497,72.464,92.497,161.852v29.038h327.425v-29.038
		C419.922,72.464,347.458,0,258.07,0z"/>
	<path style="fill:#BD5423;" d="M255.337,0.002c-42.05,0-76.14,72.46-76.14,161.85v29.04h-86.7v-29.04
		c0-89.39,72.46-161.85,161.85-161.85H255.337z"/>
	<rect x="222.946" style="fill:#FFBB16;" width="66.528" height="146.903"/>
	<rect x="222.946" style="fill:#FF931F;" width="11.239" height="146.903"/>
	<path style="fill:#FFBB16;" d="M412.465,221.424H99.955c-14.844,0-26.878-12.034-26.878-26.878v-34.324
		c0-14.844,12.034-26.878,26.878-26.878h312.51c14.844,0,26.878,12.034,26.878,26.878v34.324
		C439.342,209.39,427.309,221.424,412.465,221.424z"/>
	<path style="fill:#FF931F;" d="M191.377,221.416h-91.43c-14.84,0-26.87-12.03-26.87-26.87v-34.33c0-14.84,12.03-26.88,26.87-26.88
		h91.43c-14.85,0-26.88,12.04-26.88,26.88v34.33C164.497,209.386,176.527,221.416,191.377,221.416z"/>
	<g>
		<path style="fill:#F6F1F1;" d="M161.11,73.902c0,11.02-3.61,21.71-10.16,30.44c-4.44,5.92-10.23,10.94-17.17,14.55
			c-50.54-12.95-75.81-107.59-50.54-117.78c3.86-1.56,7.29-1.4,10.48-0.01c17.12,7.41,27.41,50.05,59.98,53.01
			c2.23,0.2,4.13,1.72,4.83,3.85C160.28,63.232,161.11,68.602,161.11,73.902z"/>
		<path style="fill:#F6F1F1;" d="M378.64,118.892c-15.24-7.92-24.95-22.65-26.94-38.79c-0.26-2.05-0.39-4.12-0.39-6.2
			c0-5.3,0.83-10.67,2.58-15.94c0.7-2.13,2.6-3.65,4.83-3.85c38.64-3.51,45.93-62.89,70.46-53c2.21,0.89,4.03,2.42,5.47,4.49
			c0.23,0.31,0.44,0.63,0.64,0.97c0.03,0.05,0.06,0.09,0.08,0.14C449.02,29.812,424.01,107.262,378.64,118.892z"/>
		<path style="fill:#D0E2E7;" d="M150.95,104.342c-4.44,5.92-10.23,10.94-17.17,14.55c-50.54-12.95-75.81-107.59-50.54-117.78
			c3.86-1.56,7.29-1.4,10.48-0.01C73.87-3.168,94.72,84.172,150.95,104.342z"/>
		<path style="fill:#D0E2E7;" d="M434.65,5.602c-6.43-7.04-19.16,54.65-42.11,66.16c-13.58,6.82-29.6,8.31-40.84,8.34
			c-0.26-2.05-0.39-4.12-0.39-6.2c0-5.3,0.83-10.67,2.58-15.94c0.7-2.13,2.6-3.65,4.83-3.85c38.64-3.51,45.93-62.89,70.46-53
			C431.39,2.002,433.21,3.532,434.65,5.602z"/>
	</g>
	<path style="fill:#2F373B;" d="M273.835,289.407c0.144-0.92,0.241-1.856,0.241-2.817v-12.509c0-9.986-8.095-18.081-18.081-18.081h0
		c-9.986,0-18.081,8.095-18.081,18.081v12.509c0,0.961,0.097,1.897,0.241,2.817c-8.227,1.695-14.413,8.979-14.413,17.708v0
		c0,9.986,8.095,18.081,18.081,18.081h28.344c9.986,0,18.081-8.095,18.081-18.081v0
		C288.248,298.386,282.062,291.103,273.835,289.407z"/>
	<rect x="234.185" y="339.558" style="fill:#D0E2E7;" width="12.873" height="58.982"/>
	<rect x="308.947" y="339.558" style="fill:#D0E2E7;" width="12.873" height="58.982"/>
	<rect x="271.566" y="339.558" style="fill:#D0E2E7;" width="12.873" height="58.982"/>
</g>
<g>
</g>
<g>
</g>
<g>
</g>
<g>
</g>
<g>
</g>
<g>
</g>
<g>
</g>
<g>
</g>
<g>
</g>
<g>
</g>
<g>
</g>
<g>
</g>
<g>
</g>
<g>
</g>
<g>
</g>
</svg>
