<?xml version="1.0" encoding="iso-8859-1"?>
<!-- Generator: Adobe Illustrator 23.0.6, SVG Export Plug-In . SVG Version: 6.00 Build 0)  -->
<svg version="1.1" id="Capa_1" xmlns="http://www.w3.org/2000/svg" xmlns:xlink="http://www.w3.org/1999/xlink" x="0px" y="0px"
	 viewBox="0 0 512 512" style="enable-background:new 0 0 512 512;" xml:space="preserve">
<g>
	<path style="fill:#FFBB16;" d="M512,256c0,52.69-15.92,101.66-43.21,142.37C422.85,466.89,344.69,512,256,512
		c-88.7,0-166.87-45.12-212.8-113.65C15.92,357.65,0,308.68,0,256C0,114.62,114.62,0,256,0S512,114.62,512,256z"/>
	<g>
		<circle style="fill:#BD5423;" cx="87.978" cy="74.964" r="74.963"/>
		<circle style="fill:#F9C5AC;" cx="87.978" cy="74.964" r="35.01"/>
		<circle style="fill:#BD5423;" cx="424.012" cy="74.964" r="74.963"/>
		<circle style="fill:#F9C5AC;" cx="424.012" cy="74.964" r="35.01"/>
	</g>
	<g>
		<path style="fill:#D9723E;" d="M468.79,206.31v192.06C422.85,466.89,344.69,512,256,512c-88.7,0-166.87-45.12-212.8-113.65V206.31
			c0-88.68,71.89-160.56,160.57-160.56h104.45C396.9,45.75,468.79,117.63,468.79,206.31z"/>
		<path style="fill:#BD5423;" d="M274.15,45.75c-88.68,0-160.57,71.88-160.57,160.56v262.44c-27.8-18.64-51.74-42.59-70.38-70.4
			V206.31c0-88.68,71.89-160.56,160.57-160.56H274.15z"/>
		<path style="fill:#A0380E;" d="M442.65,271.52c0,59.06-20.98,113.14-54.81,152.46c-5.27,6.12-10.85,11.88-16.71,17.25
			c-31.96,29.29-72.27,46.82-115.94,46.61c-9.93-0.04-19.66-0.97-29.15-2.76c-19.88-3.68-38.71-10.97-55.97-21.27
			c-10.56-6.3-20.53-13.72-29.79-22.14c-43.21-39.25-70.94-100.02-70.94-168.23v-1.92c0-26.82,10.33-50.87,26.65-67.18
			c13.61-13.61,31.38-21.84,50.85-21.84h218.31c19.45,0,37.24,8.23,50.85,21.84C432.33,220.67,442.65,244.7,442.65,271.52z"/>
		<path style="fill:#F9C5AC;" d="M371.13,441.23c-31.96,29.29-72.27,46.82-115.94,46.61c-9.93-0.04-19.66-0.97-29.15-2.76
			c-32.05-5.93-61.37-21.24-85.76-43.41c3.99-2.99,8.16-5.74,12.49-8.24c10.2-5.87,21.3-10.34,33.03-13.15
			c1.81-0.44,3.64-0.84,5.48-1.19c3.47-0.68,7-1.2,10.57-1.57c1.03-0.11,2.05-0.21,3.09-0.29c3.38-0.28,6.8-0.42,10.26-0.42h81.59
			c4.52,0,8.97,0.24,13.35,0.7c3.57,0.37,7.09,0.9,10.57,1.56c1.39,0.27,2.77,0.56,4.14,0.87c0.45,0.12,0.91,0.21,1.35,0.33
			c3.48,0.84,6.9,1.82,10.26,2.94c7.98,2.65,15.59,6.09,22.77,10.22C363.35,435.81,367.32,438.41,371.13,441.23z"/>
		<path style="fill:#F9C5AC;" d="M215.2,416.81c-20.94,0-37.07,21.59-45.13,47c-10.56-6.3-20.53-13.72-29.79-22.14
			c3.99-2.99,8.16-5.74,12.49-8.24c10.2-5.87,21.3-10.34,33.03-13.15c1.81-0.44,3.64-0.84,5.48-1.19c3.47-0.68,7-1.2,10.57-1.57
			c1.03-0.11,2.05-0.21,3.09-0.29C208.32,416.95,211.74,416.81,215.2,416.81z"/>
		<path style="fill:#EFB29A;" d="M371.13,441.23c-31.96,29.29-72.27,46.82-115.94,46.61c-9.93-0.04-19.66-0.97-29.15-2.76
			c-32.05-5.93-61.37-21.24-85.76-43.41c3.99-2.99,8.16-5.74,12.49-8.24c4.65-2.67,9.49-5.06,14.48-7.12
			c18.02,11.2,37.82,19.1,58.79,22.98c9.49,1.79,19.22,2.72,29.15,2.76c32.14,0.15,62.46-9.3,88.97-25.98
			c5.21,2.11,10.24,4.58,15.07,7.36C363.35,435.81,367.32,438.41,371.13,441.23z"/>
		<path style="fill:#EFB29A;" d="M300.706,368.538v54.869c0,20.088-13.245,37.067-31.489,42.707
			c-4.176,1.296-8.627,1.997-13.23,1.997c-24.691,0-44.703-20.012-44.703-44.703v-54.869H300.706z"/>
		<path style="fill:#F9C5AC;" d="M300.706,419.932v3.475c0,20.088-13.245,37.067-31.489,42.707
			c-16.461-5.06-28.837-19.372-31.123-36.884c2.987,0.183,5.99,0.274,9.008,0.274c8.459,0,16.75-0.671,24.828-1.997
			C281.883,425.907,291.5,423.346,300.706,419.932z"/>
		<path style="fill:#F9C5AC;" d="M410.7,255.12c0,42.62-17.39,81.64-45.43,110.01c-28.18,28.51-67.11,46.26-109.94,46.08
			c-8.23-0.03-16.3-0.7-24.16-1.99c-73.64-11.86-129.88-75.72-129.88-152.71v-1.39c0-19.35,8.56-36.7,22.09-48.47
			c11.28-9.82,26.01-15.76,42.14-15.76h180.95c16.12,0,30.86,5.94,42.14,15.76C402.15,218.43,410.7,235.77,410.7,255.12z"/>
		<path style="fill:#EFB29A;" d="M283.58,408.68c-9.17,1.7-18.61,2.57-28.25,2.53c-8.23-0.03-16.3-0.7-24.16-1.99
			c-73.64-11.86-129.88-75.72-129.88-152.71v-1.39c0-35.47,28.76-64.23,64.23-64.23h55.54c-35.48,0-64.23,28.76-64.23,64.23v1.39
			C156.83,332.41,211.48,395.54,283.58,408.68z"/>
		<path style="fill:#EFB29A;" d="M410.7,255.12c0,8.61-0.71,17.08-2.08,25.34c-7.2-27.6-32.3-47.96-62.15-47.96H165.52
			c-30.05,0-55.28,20.64-62.3,48.52c-1.27-7.98-1.93-16.17-1.93-24.51v-1.39c0-35.47,28.76-64.23,64.23-64.23h180.95
			C381.94,190.89,410.7,219.65,410.7,255.12z"/>
		<path style="fill:#EFB29A;" d="M273.544,291.694h-35.098c-4.181,0-7.57-3.389-7.57-7.57v0c0-4.181,3.389-7.57,7.57-7.57h35.098
			c4.181,0,7.57,3.389,7.57,7.57v0C281.114,288.304,277.725,291.694,273.544,291.694z"/>
		<g>
			<path style="fill:#E84D59;" d="M185.655,286.349h-46.597c-8.109,0-14.683,6.574-14.683,14.683v1.902
				c0,8.109,6.574,14.683,14.683,14.683h46.597c8.109,0,14.683-6.574,14.683-14.683v-1.902
				C200.338,292.923,193.764,286.349,185.655,286.349z"/>
			<path style="fill:#E84D59;" d="M372.932,286.349h-46.597c-8.109,0-14.683,6.574-14.683,14.683v1.902
				c0,8.109,6.574,14.683,14.683,14.683h46.597c8.109,0,14.683-6.574,14.683-14.683v-1.902
				C387.616,292.923,381.042,286.349,372.932,286.349z"/>
		</g>
		<path style="fill:#181E21;" d="M227.96,352.59v-22.57c0-15.49,12.55-28.04,28.03-28.04H256c15.48,0,28.03,12.55,28.03,28.04v22.57
			c0,6.53-2.23,12.54-5.99,17.3c-5.12,6.54-13.09,10.74-22.04,10.74h-0.01c-8.95,0-16.92-4.2-22.05-10.74
			C230.19,365.13,227.96,359.12,227.96,352.59z"/>
		<path style="fill:#E84D59;" d="M233.94,369.89c5.13-6.53,13.1-10.73,22.05-10.73H256c8.95,0,16.92,4.2,22.04,10.73
			c-5.12,6.54-13.09,10.74-22.04,10.74h-0.01C247.04,380.63,239.07,376.43,233.94,369.89z"/>
		<path style="fill:#181E21;" d="M277.789,239.02h5.384c6.051,9.39,16.589,15.608,28.577,15.608
			c11.998,0,22.536-6.218,28.577-15.608h5.384c0,18.759-15.201,33.961-33.96,33.961C293.001,272.98,277.789,257.779,277.789,239.02z
			"/>
		<path style="fill:#181E21;" d="M166.279,239.02h5.384c6.051,9.39,16.589,15.608,28.577,15.608
			c11.998,0,22.536-6.218,28.577-15.608h5.384c0,18.759-15.201,33.961-33.96,33.961C181.491,272.98,166.279,257.779,166.279,239.02z
			"/>
		<path style="fill:#F6F1F1;" d="M175.24,190.89c-11.72,15.6-18.85,38.55-23.2,59.91c-1.29,6.34-6.14,9.69-11.27,10.13
			c-6.14,0.55-12.66-3.08-13.87-10.74c-2.42-15.39-3.33-30.55-3.52-43.54c6.5-5.66,14.15-10.03,22.55-12.71
			c6.18-1.98,12.76-3.05,19.59-3.05H175.24z"/>
		<path style="fill:#F6F1F1;" d="M215.67,190.89c-6.24,10.82-10.31,24.64-12.96,37.65c-1.01,4.99-5.08,7.44-9.13,7.41
			c-4.19-0.03-8.36-2.67-9.18-7.86c-2.11-13.46-2.65-26.67-2.59-37.2H215.67z"/>
		<path style="fill:#F6F1F1;" d="M242.41,190.89c-3.04,6.86-5.18,14.66-6.69,22.11c-0.74,3.65-3.69,5.46-6.66,5.48H229
			c-3.11,0-6.22-1.96-6.83-5.82c-1.2-7.63-1.71-15.16-1.86-21.77H242.41z"/>
		<path style="fill:#F6F1F1;" d="M327.59,228.09c-0.81,5.15-4.93,7.8-9.09,7.85c-4.08,0.07-8.2-2.37-9.22-7.4
			c-2.65-13.01-6.72-26.83-12.97-37.65h33.87C330.24,201.42,329.7,214.63,327.59,228.09z"/>
		<path style="fill:#F6F1F1;" d="M291.68,190.89c-0.15,6.61-0.66,14.14-1.86,21.77c-0.28,1.8-1.11,3.19-2.23,4.15
			c-0.06,0.06-0.11,0.1-0.17,0.15c-3.61,2.92-10,1.67-11.15-3.96c-1.51-7.45-3.65-15.25-6.69-22.11H291.68z"/>
		<path style="fill:#F6F1F1;" d="M388.61,206.65c-0.19,12.99-1.1,28.15-3.52,43.54c-0.95,6-5.16,9.53-9.9,10.51
			c-6.34,1.32-13.62-1.93-15.24-9.9c-4.35-21.36-11.48-44.31-23.2-59.91h9.72c1.59,0,3.17,0.06,4.73,0.18
			C365.46,192.1,378.44,197.8,388.61,206.65z"/>
		<path style="fill:#D0E2E7;" d="M140.77,260.93c-6.14,0.55-12.66-3.08-13.87-10.74c-2.42-15.39-3.33-30.55-3.52-43.54
			c6.5-5.66,14.15-10.03,22.55-12.71C140.44,215.64,131.15,257.76,140.77,260.93z"/>
		<path style="fill:#D0E2E7;" d="M193.58,235.95c-4.19-0.03-8.36-2.67-9.18-7.86c-2.11-13.46-2.65-26.67-2.59-37.2h14.73
			C192.62,207.46,187.74,232.76,193.58,235.95z"/>
		<path style="fill:#D0E2E7;" d="M229,218.48c-3.11,0-6.22-1.96-6.83-5.82c-1.2-7.63-1.71-15.16-1.86-21.77h8.11
			C227.14,199.86,225,218.29,229,218.48z"/>
		<path style="fill:#D0E2E7;" d="M287.42,216.96c-3.61,2.92-10,1.67-11.15-3.96c-1.51-7.45-3.65-15.25-6.69-22.11h7.76
			C279.3,199.05,284.45,218.99,287.42,216.96z"/>
		<path style="fill:#D0E2E7;" d="M318.5,235.94c-4.08,0.07-8.2-2.37-9.22-7.4c-2.65-13.01-6.72-26.83-12.97-37.65h10.16
			C317.77,205.08,311.65,235.65,318.5,235.94z"/>
		<path style="fill:#D0E2E7;" d="M375.2,260.69l-0.01,0.01c-6.34,1.32-13.62-1.93-15.24-9.9c-4.35-21.36-11.48-44.31-23.2-59.91
			h9.72c1.59,0,3.17,0.06,4.73,0.18c4.24,5.06,8.99,12.21,11.48,20.97C367.8,230.07,367.34,262.43,375.2,260.69z"/>
	</g>
	<path style="fill:#2F373B;" d="M270.026,152.263l14.281-24.735c6.236-10.801-1.559-24.303-14.031-24.303h-28.561
		c-12.472,0-20.267,13.502-14.031,24.303l14.281,24.735C248.2,163.064,263.79,163.064,270.026,152.263z"/>
	<path style="fill:#181E21;" d="M255.993,160.358c-5.46,0-10.91-2.7-14.03-8.1l-14.28-24.73c-6.24-10.8,1.56-24.3,14.03-24.3h9.03
		c-4.59,0-7.45,13.5-5.16,24.3l5.25,24.73C251.983,157.658,253.983,160.358,255.993,160.358z"/>
	<g>
		<g>
			<path style="fill:#181E21;" d="M315.531,123.016c-2.048,0-4.095-0.781-5.657-2.343c-3.125-3.124-3.125-8.189,0-11.313
				l36.398-36.398c3.125-3.124,8.19-3.125,11.313,0c3.125,3.124,3.125,8.189,0,11.313l-36.398,36.398
				C319.626,122.234,317.579,123.016,315.531,123.016z"/>
			<path style="fill:#181E21;" d="M351.93,123.016c-2.047,0-4.095-0.781-5.657-2.343l-36.398-36.398
				c-3.125-3.124-3.125-8.189,0-11.313c3.124-3.124,8.189-3.124,11.313,0l36.398,36.398c3.125,3.124,3.125,8.189,0,11.313
				C356.024,122.234,353.977,123.016,351.93,123.016z"/>
		</g>
		<g>
			<path style="fill:#181E21;" d="M160.061,123.016c-2.048,0-4.095-0.781-5.657-2.343c-3.125-3.124-3.125-8.189,0-11.313
				l36.398-36.398c3.125-3.124,8.19-3.125,11.313,0c3.125,3.124,3.125,8.189,0,11.313l-36.398,36.398
				C164.155,122.234,162.108,123.016,160.061,123.016z"/>
			<path style="fill:#181E21;" d="M196.459,123.016c-2.047,0-4.095-0.781-5.657-2.343l-36.398-36.398
				c-3.125-3.124-3.125-8.189,0-11.313c3.124-3.124,8.189-3.124,11.313,0l36.398,36.398c3.125,3.124,3.125,8.189,0,11.313
				C200.554,122.234,198.506,123.016,196.459,123.016z"/>
		</g>
	</g>
</g>
<g>
</g>
<g>
</g>
<g>
</g>
<g>
</g>
<g>
</g>
<g>
</g>
<g>
</g>
<g>
</g>
<g>
</g>
<g>
</g>
<g>
</g>
<g>
</g>
<g>
</g>
<g>
</g>
<g>
</g>
</svg>
