<?xml version="1.0" encoding="iso-8859-1"?>
<!-- Generator: Adobe Illustrator 23.0.6, SVG Export Plug-In . SVG Version: 6.00 Build 0)  -->
<svg version="1.1" id="Capa_1" xmlns="http://www.w3.org/2000/svg" xmlns:xlink="http://www.w3.org/1999/xlink" x="0px" y="0px"
	 viewBox="0 0 512 512" style="enable-background:new 0 0 512 512;" xml:space="preserve">
<g>
	<path style="fill:#181E21;" d="M512,256c0,141.38-114.62,256-256,256c-51.92,0-100.23-15.46-140.59-42.02
		c-10.65-7.02-20.75-14.81-30.22-23.29c-5.57-4.99-10.92-10.22-16.03-15.68C26.27,385.23,0,323.68,0,256C0,114.62,114.62,0,256,0
		S512,114.62,512,256z"/>
	<path style="fill:#434D51;" d="M482.46,216c0,108.498-87.962,196.46-196.46,196.46c-39.844,0-76.919-11.864-107.892-32.247
		c-8.173-5.387-15.924-11.366-23.191-17.873c-4.275-3.829-8.38-7.843-12.302-12.033C109.7,315.174,89.54,267.939,89.54,216
		c0-108.498,87.962-196.46,196.46-196.46S482.46,107.502,482.46,216z"/>
	<g>
		<path style="fill:#E84D59;" d="M414.747,284.033c32.674-32.674,56.68-69.287,32.674-130.974
			c-24.005-61.687-77.295-57.278-103.22-98.735s-74.91-65.313-102.494-49.306c-25.321,14.694,48.789,42.616,30.079,61.325
			c-18.709,18.709-122.971-78.917-137.073-47.271c-14.102,31.646,79.695,57.85,61.535,89.608S111.132,61.26,99.75,91.897
			s95.161,66.765,88.151,94.803c-7.009,28.037-49.401-3.292-57.662,18.92c-14.033,37.732,126.353,144.709,157.195,151.913
			S382.073,316.708,414.747,284.033z"/>
		<path style="fill:#FFBB16;" d="M374.316,128.98c-18.216-18.21-71.056-66.86-85.479-52.436
			c-14.424,14.424,8.682,17.358-8.277,34.317s-38.356-16.698-61.333-9.439s12.477,36.273,7.928,61.46s-25.935,9.8-32.944,22.767
			c-7.009,12.967,21.028,56.075,21.028,56.075"/>
		<path style="fill:#D9723E;" d="M304.58,304.18l-48.05,42.11L115.41,469.98c-16.92-11.15-32.44-24.24-46.25-38.97l127.09-144.99
			l42.11-48.06L304.58,304.18z"/>
		<path style="fill:#BD5423;" d="M263.15,262.75L85.19,446.69c-5.57-4.99-10.92-10.22-16.03-15.68l169.2-193.05L263.15,262.75z"/>
		<path style="fill:#BD5423;" d="M304.582,304.179l-48.057,42.114c-4.168-2.584-8.104-5.693-11.73-9.319l-39.238-39.238
			c-3.617-3.617-6.726-7.553-9.31-11.721l42.114-48.057L304.582,304.179z"/>
		<path style="fill:#F6F1F1;" d="M413.562,260.842l-59.089,59.089c-25.578,25.578-67.055,25.578-92.634,0l-39.238-39.238
			c-25.578-25.578-25.57-67.047,0.009-92.625l59.089-59.089c25.578-25.578,67.038-25.578,92.616,0l39.238,39.238
			c20.687,20.687,24.657,51.768,11.868,76.425C422.407,250.481,418.454,255.95,413.562,260.842z"/>
		<path style="fill:#D0E2E7;" d="M261.843,319.94l-39.238-39.238c-25.578-25.578-25.578-67.055,0-92.634l59.089-59.089
			c25.578-25.578,67.046-25.57,92.625,0.009l39.238,39.238c-25.596-25.441-66.952-25.406-92.487,0.129l-59.089,59.089
			C236.445,252.979,236.402,294.344,261.843,319.94z"/>
		<path style="fill:#D0E2E7;" d="M413.562,260.842l-3.118,3.118l-138.658-90.498l13.306-20.402l140.329,91.583
			C422.407,250.481,418.454,255.95,413.562,260.842z"/>
		<polygon style="fill:#D0E2E7;" points="375.487,298.917 357.884,316.521 219.226,226.023 232.532,205.62 		"/>
	</g>
	<path style="fill:#E84D59;" d="M146.145,161.256c-18.271-19.804-52.907-40.616-76.359-53.463
		c-9.138-5.005-19.268,4.773-14.593,14.083c11.339,22.583,34.966,52.088,82.003,57.185
		C146.979,180.122,152.818,168.488,146.145,161.256z"/>
	<path style="fill:#E84D59;" d="M146.549,59.283c-12.881-13.962-37.301-28.635-53.835-37.692
		c-6.442-3.529-13.584,3.365-10.288,9.929c7.994,15.922,24.652,36.723,57.813,40.316C147.136,72.583,151.253,64.381,146.549,59.283z
		"/>
</g>
<g>
</g>
<g>
</g>
<g>
</g>
<g>
</g>
<g>
</g>
<g>
</g>
<g>
</g>
<g>
</g>
<g>
</g>
<g>
</g>
<g>
</g>
<g>
</g>
<g>
</g>
<g>
</g>
<g>
</g>
</svg>
