<?xml version="1.0" encoding="iso-8859-1"?>
<!-- Generator: Adobe Illustrator 23.0.6, SVG Export Plug-In . SVG Version: 6.00 Build 0)  -->
<svg version="1.1" id="Capa_1" xmlns="http://www.w3.org/2000/svg" xmlns:xlink="http://www.w3.org/1999/xlink" x="0px" y="0px"
	 viewBox="0 0 512 512" style="enable-background:new 0 0 512 512;" xml:space="preserve">
<g>
	<path style="fill:#B1E4F9;" d="M512,256c0,36.89-7.81,71.96-21.87,103.64c-0.7,1.61-1.43,3.22-2.18,4.81
		c-2.78,5.94-5.78,11.75-9.01,17.43c-5.79,10.26-12.28,20.09-19.4,29.4c-3.81,4.99-7.8,9.83-11.97,14.51
		c-15.95,18-34.4,33.74-54.82,46.65c-15.26,9.67-31.61,17.76-48.83,24.06c-5.22,1.91-10.52,3.65-15.9,5.23
		C305.18,508.41,281.01,512,256,512c-7.81,0-15.55-0.35-23.18-1.04c-16.81-1.51-33.14-4.64-48.84-9.23
		c-5.38-1.58-10.68-3.32-15.9-5.23c-36.29-13.27-68.73-34.52-95.2-61.62c-2.89-2.96-5.72-5.99-8.47-9.08
		c-4.15-4.69-8.14-9.53-11.95-14.52c-7.12-9.31-13.61-19.13-19.42-29.4c-3.21-5.67-6.21-11.49-8.99-17.43
		c-0.75-1.59-1.48-3.2-2.18-4.81C7.81,327.96,0,292.89,0,256c0-38.77,8.62-75.52,24.05-108.45c13.77-29.42,32.99-55.8,56.35-77.83
		c10.79-10.18,22.47-19.43,34.9-27.62C155.68,15.49,204.03,0,256,0s100.32,15.49,140.7,42.1c3.57,2.36,7.09,4.8,10.53,7.33
		c34.49,25.29,62.41,59.01,80.72,98.12C503.38,180.48,512,217.23,512,256z"/>
	<g>
		<g>
			<path style="fill:#D9723E;" d="M168.08,91.66V496.5c-63.67-23.28-115.5-71.12-144.03-132.05V91.66l72.01-67.62L115.3,42.1
				L168.08,91.66z"/>
			<path style="fill:#BD5423;" d="M96.06,24.04L80.4,69.72l-7.52,21.94v343.22c-19.99-20.44-36.56-44.22-48.83-70.43V91.66
				L96.06,24.04z"/>
			<path style="fill:#F9C5AC;" d="M168.082,91.657c-17.454,31.348-52.005,15.522-52.005,15.522
				c-19.481,12.035-37.765,4.148-43.194,1.26c-1.061-0.557-1.628-0.924-1.628-0.924c-35.234,15.742-47.206-15.858-47.206-15.858
				L96.06,24.036L168.082,91.657z"/>
			<path style="fill:#EFB29A;" d="M96.06,24.036L72.882,91.657v16.782c-1.061-0.557-1.628-0.924-1.628-0.924
				c-35.234,15.742-47.206-15.858-47.206-15.858L96.06,24.036z"/>
		</g>
		<g>
			<path style="fill:#D9723E;" d="M328.02,91.66v410.07C305.18,508.41,281.01,512,256,512s-49.18-3.59-72.02-10.27V91.66
				l72.01-67.62L328.02,91.66z"/>
			<path style="fill:#BD5423;" d="M255.99,24.04l-23.17,67.62v419.3c-16.81-1.51-33.14-4.64-48.84-9.23V91.66L255.99,24.04z"/>
			<path style="fill:#F9C5AC;" d="M328.016,91.657c-17.454,31.348-52.005,15.522-52.005,15.522
				c-19.481,12.035-37.765,4.148-43.194,1.26c-1.061-0.557-1.628-0.924-1.628-0.924c-35.234,15.742-47.206-15.858-47.206-15.858
				l72.011-67.622L328.016,91.657z"/>
			<path style="fill:#EFB29A;" d="M255.995,24.036l-23.178,67.622v16.782c-1.061-0.557-1.628-0.924-1.628-0.924
				c-35.234,15.742-47.206-15.858-47.206-15.858L255.995,24.036z"/>
		</g>
		<path style="fill:#BD5423;" d="M252.849,434.686L252.849,434.686c-4.764,0-8.626-3.862-8.626-8.626v-59.635
			c0-4.764,3.862-8.626,8.626-8.626h0c4.764,0,8.626,3.862,8.626,8.626v59.635C261.474,430.824,257.612,434.686,252.849,434.686z"/>
		<path style="fill:#BD5423;" d="M142.494,400.63L142.494,400.63c-4.764,0-8.626-3.862-8.626-8.626v-59.635
			c0-4.764,3.862-8.626,8.626-8.626h0c4.764,0,8.626,3.862,8.626,8.626v59.635C151.12,396.768,147.258,400.63,142.494,400.63z"/>
		<path style="fill:#BD5423;" d="M109.263,362.187L109.263,362.187c-4.764,0-8.626-3.862-8.626-8.626v-59.635
			c0-4.764,3.862-8.626,8.626-8.626h0c4.764,0,8.626,3.862,8.626,8.626v59.635C117.889,358.325,114.027,362.187,109.263,362.187z"/>
		<path style="fill:#BD5423;" d="M296.84,267.903L296.84,267.903c-4.764,0-8.626-3.862-8.626-8.626v-59.635
			c0-4.764,3.862-8.626,8.626-8.626l0,0c4.764,0,8.626,3.862,8.626,8.626v59.635C305.466,264.041,301.604,267.903,296.84,267.903z"
			/>
		<g>
			<path style="fill:#D9723E;" d="M487.95,91.66v272.79c-28.53,60.93-80.36,108.77-144.03,132.05V91.66L396.7,42.1l19.23-18.06
				L487.95,91.66z"/>
			<path style="fill:#BD5423;" d="M415.93,24.04l-8.7,25.39l-14.48,42.23v380.78c-15.26,9.67-31.61,17.76-48.83,24.06V91.66
				L396.7,42.1L415.93,24.04z"/>
			<path style="fill:#F9C5AC;" d="M487.951,91.657c-17.454,31.348-52.005,15.522-52.005,15.522
				c-19.481,12.035-37.765,4.148-43.194,1.26c-1.061-0.557-1.628-0.924-1.628-0.924c-35.234,15.742-47.206-15.858-47.206-15.858
				l72.011-67.622L487.951,91.657z"/>
			<path style="fill:#EFB29A;" d="M415.93,24.036l-23.178,67.622v16.782c-1.061-0.557-1.628-0.924-1.628-0.924
				c-35.234,15.742-47.206-15.858-47.206-15.858L415.93,24.036z"/>
		</g>
		<path style="fill:#FF931F;" d="M24.053,237.439c-3.523,0-6.869-2.083-8.311-5.538c-1.913-4.587,0.254-9.857,4.842-11.771
			l154.634-64.507c2.217-0.925,4.713-0.925,6.93,0l151.17,63.061l151.169-63.061c4.588-1.916,9.857,0.254,11.771,4.841
			c1.913,4.587-0.254,9.857-4.842,11.771l-154.634,64.507c-2.217,0.925-4.713,0.925-6.93,0l-151.17-63.061L27.514,236.743
			C26.382,237.215,25.207,237.439,24.053,237.439z"/>
		<path style="fill:#FFBB16;" d="M487.947,237.439c-1.155,0-2.328-0.224-3.461-0.696l-151.169-63.061l-151.17,63.061
			c-2.217,0.925-4.713,0.925-6.93,0L20.584,172.236c-4.588-1.914-6.755-7.184-4.842-11.771c1.914-4.588,7.185-6.755,11.771-4.841
			l151.169,63.061l151.17-63.061c2.217-0.925,4.713-0.925,6.93,0l154.634,64.507c4.588,1.914,6.755,7.184,4.842,11.771
			C494.816,235.356,491.471,237.439,487.947,237.439z"/>
		<path style="fill:#FFBB16;" d="M459.54,411.28c-3.81,4.99-7.8,9.83-11.97,14.51l-36.94-15.41l-23.37-9.75l-53.94-22.5l-53.94,22.5
			L256,410.38l-73.85,30.81c-2.22,0.92-4.72,0.92-6.93,0l-73.85-30.81l-23.38-9.75l-44.95-18.75c-3.21-5.67-6.21-11.49-8.99-17.43
			c-0.75-1.59-1.48-3.2-2.18-4.81c1.81-0.45,3.78-0.34,5.64,0.43l73.86,30.81l23.37,9.75l53.94,22.5l53.94-22.5l23.38-9.75
			l73.85-30.81c2.22-0.92,4.72-0.92,6.93,0l73.85,30.81l23.38,9.75L459.54,411.28z"/>
		<path style="fill:#FF931F;" d="M490.13,359.64c-0.7,1.61-1.43,3.22-2.18,4.81c-2.78,5.94-5.78,11.75-9.01,17.43l-44.93,18.75
			l-23.38,9.75l-73.85,30.81c-2.21,0.92-4.71,0.92-6.93,0L256,410.38l-23.38-9.75l-53.94-22.5l-53.94,22.5l-23.37,9.75L64.41,425.8
			c-4.15-4.69-8.14-9.53-11.95-14.52l25.53-10.65l23.38-9.75l73.85-30.81c2.21-0.92,4.71-0.92,6.93,0L256,390.88l23.38,9.75
			l53.94,22.5l53.94-22.5l23.37-9.75l73.86-30.81C486.35,359.3,488.32,359.19,490.13,359.64z"/>
		<path style="fill:#FF931F;" d="M232.023,195.933l41.017,17.111c4.231-4.277,6.861-10.138,6.926-16.614l-41.014-17.109
			C234.72,183.596,232.09,189.457,232.023,195.933z"/>
		<path style="fill:#FFBB16;" d="M230.717,420.928l57.497-23.985c-0.708-6.248-3.189-11.956-6.932-16.611l-57.498,23.985
			C224.493,410.565,226.975,416.273,230.717,420.928z"/>
		<path style="fill:#BD5423;" d="M424.555,300.219L424.555,300.219c-4.764,0-8.626-3.862-8.626-8.626v-59.635
			c0-4.764,3.862-8.626,8.626-8.626l0,0c4.764,0,8.626,3.862,8.626,8.626v59.635C433.181,296.357,429.319,300.219,424.555,300.219z"
			/>
		<path style="fill:#BD5423;" d="M449.36,332.887L449.36,332.887c-4.764,0-8.626-3.862-8.626-8.626v-59.635
			c0-4.764,3.862-8.626,8.626-8.626l0,0c4.764,0,8.626,3.862,8.626,8.626v59.635C457.986,329.025,454.124,332.887,449.36,332.887z"
			/>
	</g>
</g>
<g>
</g>
<g>
</g>
<g>
</g>
<g>
</g>
<g>
</g>
<g>
</g>
<g>
</g>
<g>
</g>
<g>
</g>
<g>
</g>
<g>
</g>
<g>
</g>
<g>
</g>
<g>
</g>
<g>
</g>
</svg>
