<?xml version="1.0" encoding="iso-8859-1"?>
<!-- Generator: Adobe Illustrator 23.0.6, SVG Export Plug-In . SVG Version: 6.00 Build 0)  -->
<svg version="1.1" id="Capa_1" xmlns="http://www.w3.org/2000/svg" xmlns:xlink="http://www.w3.org/1999/xlink" x="0px" y="0px"
	 viewBox="0 0 512 512" style="enable-background:new 0 0 512 512;" xml:space="preserve">
<g>
	<path style="fill:#FFBB16;" d="M512,256c0,5-0.14,9.97-0.43,14.9c-0.25,4.46-0.62,8.89-1.11,13.28C496.44,412.3,387.86,512,256,512
		c-46.22,0-89.58-12.25-127.01-33.69c-6.28-3.6-12.4-7.46-18.34-11.57c-14.68-10.13-28.25-21.76-40.48-34.68
		c-5.67-5.98-11.05-12.23-16.12-18.73c-3.05-3.9-5.98-7.89-8.79-11.97c-4.11-5.94-7.97-12.06-11.57-18.35
		C12.25,345.58,0,302.22,0,256C0,114.62,114.62,0,256,0S512,114.62,512,256z"/>
	<g>
		<path style="fill:#D9723E;" d="M429.91,157.95L128.82,459.03c-5.03,5.04-11.58,7.6-18.17,7.71
			c-14.68-10.13-28.25-21.76-40.48-34.68c-5.67-5.98-11.05-12.23-16.12-18.73c-3.05-3.9-5.98-7.89-8.79-11.97
			c0.1-6.59,2.67-13.15,7.71-18.18L354.05,82.09c10.29-10.28,26.97-10.28,37.26,0l38.6,38.6
			C440.19,130.98,440.19,147.66,429.91,157.95z"/>
		<path style="fill:#BD5423;" d="M415.53,106.32c-10.29-10.29-26.97-10.29-37.26,0L77.19,407.4c-6.69,6.69-9.03,16.08-7.02,24.66
			c-5.67-5.98-11.05-12.23-16.12-18.73c-3.05-3.9-5.98-7.89-8.79-11.97c0.1-6.59,2.67-13.15,7.71-18.18L354.05,82.09
			c10.29-10.29,26.97-10.29,37.26,0L415.53,106.32z"/>
		<g>
			<path style="fill:#BD5423;" d="M174.542,261.581c-4.565-4.565-5.522-11.837-1.913-17.51c4.175-6.562,12.879-8.498,19.442-4.323
				l92.728,58.988c6.56,4.174,8.498,12.879,4.323,19.441c-4.175,6.562-12.879,8.498-19.442,4.323l-92.728-58.988
				C176.063,262.947,175.258,262.297,174.542,261.581z"/>
			<path style="fill:#BD5423;" d="M128.957,307.167c-4.565-4.565-5.522-11.837-1.913-17.51c4.175-6.562,12.879-8.498,19.442-4.323
				l92.728,58.988c6.56,4.173,8.498,12.879,4.323,19.441s-12.879,8.498-19.442,4.323l-92.728-58.988
				C130.478,308.532,129.673,307.883,128.957,307.167z"/>
			<path style="fill:#BD5423;" d="M83.371,352.753c-4.565-4.565-5.522-11.837-1.913-17.51c4.175-6.562,12.879-8.498,19.442-4.323
				l92.728,58.988c6.56,4.173,8.498,12.879,4.323,19.441c-4.175,6.562-12.879,8.498-19.442,4.323l-92.728-58.988
				C84.892,354.118,84.087,353.468,83.371,352.753z"/>
		</g>
		<polygon style="fill:#F6F1F1;" points="328.183,353.322 158.678,183.817 210.362,100.995 310.282,32.214 479.786,201.718 
			433.107,306.642 		"/>
		<path style="fill:#D0E2E7;" d="M219.852,162.475l69.087-69.087c11.787-11.787,30.897-11.787,42.684,0l86.989,86.989
			c11.787,11.787,11.787,30.897,0,42.684l-69.087,69.087c-11.787,11.787-30.897,11.787-42.684,0l-86.989-86.989
			C208.066,193.372,208.066,174.262,219.852,162.475z"/>
		<path style="fill:#D0E2E7;" d="M158.678,183.817l-29.781-62.958c-4.574-9.67-2.579-21.17,4.985-28.734l84.707-84.707
			c7.564-7.564,19.065-9.559,28.734-4.985l62.958,29.781L158.678,183.817z"/>
		<path style="fill:#D0E2E7;" d="M511.57,270.9c-0.25,4.46-0.62,8.89-1.11,13.28c-1.23,3.4-3.21,6.56-5.88,9.23l-84.7,84.71
			c-7.57,7.56-19.07,9.56-28.74,4.98l-62.96-29.78l151.61-151.6l29.78,62.96C510.52,266.69,511.19,268.78,511.57,270.9z"/>
		<path style="fill:#F6F1F1;" d="M148.72,458.58l-19.73,19.73c-39.63-22.68-72.62-55.67-95.3-95.3l19.73-19.73c6-6,15.71-6,21.71,0
			l73.59,73.59C154.72,442.87,154.72,452.58,148.72,458.58z"/>
		<path style="fill:#D0E2E7;" d="M100.46,388.61c-5.99-5.99-15.7-5.99-21.7,0.01l-24.71,24.71c-7.48-9.58-14.29-19.71-20.36-30.32
			l19.73-19.73c6-6,15.72-6,21.71,0L100.46,388.61z"/>
	</g>
</g>
<g>
</g>
<g>
</g>
<g>
</g>
<g>
</g>
<g>
</g>
<g>
</g>
<g>
</g>
<g>
</g>
<g>
</g>
<g>
</g>
<g>
</g>
<g>
</g>
<g>
</g>
<g>
</g>
<g>
</g>
</svg>
