<?xml version="1.0" encoding="iso-8859-1"?>
<!-- Generator: Adobe Illustrator 23.0.6, SVG Export Plug-In . SVG Version: 6.00 Build 0)  -->
<svg version="1.1" id="Capa_1" xmlns="http://www.w3.org/2000/svg" xmlns:xlink="http://www.w3.org/1999/xlink" x="0px" y="0px"
	 viewBox="0 0 512 512" style="enable-background:new 0 0 512 512;" xml:space="preserve">
<g>
	<path style="fill:#6EC17D;" d="M512,256c0,130.61-97.82,238.38-224.2,254.04c-10.42,1.29-21.03,1.96-31.8,1.96
		c-3.45,0-6.88-0.07-10.3-0.21c-7.25-0.28-14.42-0.87-21.5-1.75C97.82,494.38,0,386.61,0,256C0,122.46,102.25,12.8,232.73,1.04
		c0,0,0,0,0.01,0C240.4,0.35,248.16,0,256,0c0.93,0,1.87,0,2.8,0.02c0.05,0,0.09-0.01,0.14,0c6.84,0.07,13.63,0.42,20.33,1.02
		C409.75,12.8,512,122.46,512,256z"/>
	<path style="fill:#D9723E;" d="M287.8,13.81v496.23c-10.42,1.29-21.03,1.96-31.8,1.96s-21.38-0.67-31.8-1.96V13.81
		c0-5.76,3.52-10.69,8.53-12.77c1.63-0.67,3.41-1.04,5.28-1.04h35.98c1.87,0,3.65,0.37,5.28,1.04
		C284.28,3.12,287.8,8.05,287.8,13.81z"/>
	<path style="fill:#BD5423;" d="M259.51,0c-0.19,0-0.38,0-0.57,0.02c-0.05-0.01-0.09,0-0.14,0c-7.3,0.37-13.1,6.4-13.1,13.79v497.98
		c-7.25-0.28-14.42-0.87-21.5-1.75V13.81c0-5.76,3.52-10.69,8.53-12.77c0,0,0,0,0.01,0C234.36,0.37,236.14,0,238,0H259.51z"/>
	<rect x="224.2" y="86.27" style="fill:#BD5423;" width="63.6" height="21.51"/>
	<path style="fill:#D9723E;" d="M469.563,96.491H42.437c-6.204,0-11.233-5.029-11.233-11.233V56.9
		c0-6.204,5.029-11.233,11.233-11.233h427.126c6.204,0,11.233,5.029,11.233,11.233v28.358
		C480.796,91.462,475.767,96.491,469.563,96.491z"/>
	<path style="fill:#BD5423;" d="M480.803,63.751v21.5c0,6.21-5.03,11.24-11.24,11.24H42.443c-6.21,0-11.24-5.03-11.24-11.24v-21.5
		c0,6.21,5.03,11.23,11.24,11.23h427.12C475.773,74.981,480.803,69.961,480.803,63.751z"/>
	<path style="fill:#F6F1F1;" d="M399.858,440.861l-116.388-62.475c-17.156-9.209-37.785-9.209-54.941,0l-116.388,62.475
		c-24.535,13.17-54.248-4.603-54.248-32.45V45.667h396.212v362.743C454.106,436.257,424.394,454.031,399.858,440.861z"/>
	<g>
		<path style="fill:#80B4FB;" d="M399.399,79.67c11.438,0,20.71,9.272,20.71,20.71v308.03c0,2.67-2.84,2.88-2.87,2.88
			c-0.25,0-0.65-0.04-1.3-0.39l-116.39-62.47c-13.34-7.17-28.4-10.95-43.55-10.95s-30.21,3.78-43.55,10.95L96.06,410.9
			c-0.65,0.35-1.06,0.39-1.31,0.39c-0.69,0-1.51-0.36-2.09-0.91c-0.55-0.53-0.77-1.08-0.77-1.97V100.38
			c0-11.438,9.272-20.71,20.71-20.71H399.399z"/>
		<g>
			<path style="fill:#FFBB16;" d="M256,229.46v108.02c-15.15,0-30.21,3.78-43.55,10.95L96.06,410.9c-0.65,0.35-1.06,0.39-1.31,0.39
				c-0.69,0-1.51-0.36-2.09-0.91c-0.55-0.53-0.77-1.08-0.77-1.97V229.46H256z"/>
			<path style="fill:#FFBB16;" d="M420.11,100.38v129.08H256V79.67h143.399C410.837,79.67,420.11,88.942,420.11,100.38z"/>
		</g>
	</g>
</g>
<g>
</g>
<g>
</g>
<g>
</g>
<g>
</g>
<g>
</g>
<g>
</g>
<g>
</g>
<g>
</g>
<g>
</g>
<g>
</g>
<g>
</g>
<g>
</g>
<g>
</g>
<g>
</g>
<g>
</g>
</svg>
