<?xml version="1.0" encoding="iso-8859-1"?>
<!-- Generator: Adobe Illustrator 23.0.6, SVG Export Plug-In . SVG Version: 6.00 Build 0)  -->
<svg version="1.1" id="Capa_1" xmlns="http://www.w3.org/2000/svg" xmlns:xlink="http://www.w3.org/1999/xlink" x="0px" y="0px"
	 viewBox="0 0 512 512" style="enable-background:new 0 0 512 512;" xml:space="preserve">
<g>
	<path style="fill:#80B4FB;" d="M512,256c0,136.24-106.44,247.63-240.69,255.55c-5.06,0.3-10.17,0.45-15.31,0.45
		c-0.76,0-1.52,0-2.27-0.02c-4.2-0.03-8.37-0.16-12.51-0.4C106.72,503.92,0,392.42,0,256C0,114.62,114.62,0,256,0
		S512,114.62,512,256z"/>
	<g>
		<path style="fill:#F6F1F1;" d="M472.33,337.62c0,0-7.29,14.23-23.41,34.38c-22.01,27.51-60.47,66.03-119.29,94.38
			c-15.06,7.27-28.93,16.62-41.28,27.66c-6.06,5.44-11.77,11.29-17.04,17.51c-5.06,0.3-10.17,0.45-15.31,0.45
			c-4.96,0-9.89-0.14-14.78-0.42c-16.06-18.94-35.91-34.45-58.42-45.33c-69.99-33.83-111.11-82.04-129.94-108.81
			c-8.09-11.5-12.07-19.03-12.44-19.77c0-0.01-0.02-0.04-0.03-0.05l27.95-27.95c0,0,10.27,13.26,25.57,28.08
			c14.64,14.22,33.92,29.88,53.2,36.72c7.97,2.82,15.93,4.15,23.56,3.99c28.42-0.6,52.3-21.6,54.94-61.38V163.57h61.24v146.1
			c0,55.91,39.39,78.78,78.76,64.8c18.2-6.45,36.4-20.78,50.71-34.33c16.66-15.75,28.06-30.47,28.06-30.47L472.33,337.62z"/>
		<path style="fill:#D0E2E7;" d="M253.73,511.98c-4.2-0.03-8.37-0.16-12.51-0.4c-16.06-18.94-35.91-34.45-58.42-45.33
			c-99.31-48-140.48-124.94-142.34-128.51C91.97,415.36,233.38,432.51,253.73,511.98z"/>
		<path style="fill:#F6F1F1;" d="M256.23,0c-47.275,0-85.595,38.332-85.595,85.608c0,47.275,38.319,85.595,85.595,85.595
			s85.595-38.319,85.595-85.595C341.825,38.332,303.505,0,256.23,0z M256.23,129.269c-24.125,0-43.675-19.55-43.675-43.662
			c0-24.125,19.55-43.675,43.675-43.675c24.112,0,43.675,19.549,43.675,43.675C299.905,109.72,280.342,129.269,256.23,129.269z"/>
		<g>
			<path style="fill:#D0E2E7;" d="M264.324,128.508c2.625,0.493,5.329,0.761,8.097,0.761c24.112,0,43.675-19.55,43.675-43.662
				c0-24.125-19.563-43.675-43.675-43.675c-2.768,0-5.472,0.269-8.097,0.761c20.246,3.797,35.581,21.556,35.581,42.913
				C299.905,106.953,284.57,124.711,264.324,128.508z"/>
			<path style="fill:#D0E2E7;" d="M186.827,85.608c0-44.543,34.023-81.134,77.499-85.215C261.66,0.142,258.962,0,256.23,0
				c-47.275,0-85.595,38.332-85.595,85.608c0,47.275,38.319,85.595,85.595,85.595c2.732,0,5.43-0.142,8.096-0.392
				C220.85,166.73,186.827,130.151,186.827,85.608z"/>
		</g>
		<path style="fill:#D0E2E7;" d="M170.674,378.462c28.415-0.598,52.293-21.603,54.931-61.379V202.944l6.616-11.062l10.165,41.569
			C242.387,317.071,247.417,404.316,170.674,378.462z"/>
		<path style="fill:#D9723E;" d="M347.425,163.577H165.028c-14.534,0-26.317,11.782-26.317,26.317v36.297
			c0,14.534,11.782,26.317,26.317,26.317h182.396c14.534,0,26.317-11.782,26.317-26.317v-36.297
			C373.742,175.359,361.959,163.577,347.425,163.577z"/>
		<rect x="225.61" y="236.72" style="fill:#D0E2E7;" width="61.24" height="34.3"/>
		<path style="fill:#BD5423;" d="M373.747,191.882v34.303c0,14.545-11.79,26.322-26.322,26.322H165.031
			c-14.532,0-26.322-11.777-26.322-26.322v-34.303c0,14.532,11.79,26.322,26.322,26.322h182.394
			C361.957,218.204,373.747,206.414,373.747,191.882z"/>
		<g>
			<path style="fill:#D0E2E7;" d="M472.329,337.621c0,0-7.292,14.233-23.41,34.381l-15.117-29.233l-17.483-2.626
				c16.664-15.754,28.064-30.468,28.064-30.468L472.329,337.621z"/>
		</g>
		<g>
			<path style="fill:#F6F1F1;" d="M120.371,326.04l-50.824,7.63l-29.22,56.53c-52.085-84.477-12.699-164.521-12.699-164.521
				C49.217,298.093,120.371,326.04,120.371,326.04z"/>
			<path style="fill:#F6F1F1;" d="M472.121,390.2l-29.22-56.53l-50.811-7.63c0,0,71.14-27.947,92.744-100.361
				C484.834,225.679,524.219,305.723,472.121,390.2z"/>
		</g>
		<path style="fill:#D0E2E7;" d="M69.547,333.67l-29.22,56.53c-52.085-84.477-12.699-164.521-12.699-164.521
			S12.977,303.448,69.547,333.67z"/>
		<path style="fill:#D0E2E7;" d="M442.901,333.67l-50.811-7.63c0,0,71.14-27.947,92.744-100.361
			C484.834,225.679,489.669,286.901,442.901,333.67z"/>
	</g>
</g>
<g>
</g>
<g>
</g>
<g>
</g>
<g>
</g>
<g>
</g>
<g>
</g>
<g>
</g>
<g>
</g>
<g>
</g>
<g>
</g>
<g>
</g>
<g>
</g>
<g>
</g>
<g>
</g>
<g>
</g>
</svg>
