<?xml version="1.0" encoding="iso-8859-1"?>
<!-- Generator: Adobe Illustrator 23.0.6, SVG Export Plug-In . SVG Version: 6.00 Build 0)  -->
<svg version="1.1" id="Capa_1" xmlns="http://www.w3.org/2000/svg" xmlns:xlink="http://www.w3.org/1999/xlink" x="0px" y="0px"
	 viewBox="0 0 512 512" style="enable-background:new 0 0 512 512;" xml:space="preserve">
<g>
	<path style="fill:#6EC17D;" d="M512,256c0,141.38-114.62,256-256,256c-17.98,0-35.53-1.85-52.46-5.38
		c-15.02-3.13-29.56-7.57-43.48-13.22c-8.14-3.28-16.07-6.99-23.77-11.07h-0.01C55.22,439.37,0,354.13,0,256
		C0,114.62,114.62,0,256,0c102.42,0,190.81,60.16,231.72,147.07l0.01,0.02c0,0.01,0.01,0.02,0.02,0.03
		c8.28,17.57,14.61,36.24,18.72,55.73C510.1,220,512,237.78,512,256z"/>
	<g>
		<path style="fill:#D9723E;" d="M506.47,202.85c-1.14,1.69-2.45,3.29-3.95,4.79L385.19,324.96l-140.2,140.21l-41.45,41.45
			c-23.8-4.96-46.39-13.22-67.26-24.29l56.32-56.32c4.32-4.32,7.33-9.77,8.68-15.73l14.41-63.56c1.35-5.96,4.36-11.42,8.68-15.74
			l200.74-200.74c12.64-12.64,33.13-12.64,45.77,0l16.85,16.85l14.79,14.78C513.66,173.01,514.98,190.26,506.47,202.85z"/>
		<path style="fill:#BD5423;" d="M488.31,147.66c-0.19-0.19-0.37-0.37-0.56-0.54c-12.68-12.1-32.76-11.91-45.21,0.54L241.79,348.41
			c-4.32,4.32-7.33,9.77-8.68,15.73l-14.4,63.56c-1.35,5.96-4.36,11.41-8.68,15.73l-49.97,49.97c-8.14-3.28-16.07-6.99-23.77-11.07
			l56.32-56.32c4.31-4.32,7.32-9.77,8.67-15.73l14.41-63.56c1.35-5.96,4.36-11.42,8.68-15.74l200.75-200.74
			c12.64-12.64,33.13-12.64,45.77,0l16.83,16.83l0.01,0.02L488.31,147.66z"/>
		<path style="fill:#D0E2E7;" d="M486.815,267.574l-72.506,72.506c-9.815,9.815-26.448,6.816-32.142-5.843
			c-23.034-51.207-89.58-150.489-245.706-94.542c-17.591,6.303-33.773-12.246-25.247-28.873
			c36.18-70.551,114.263-193.047,227.022-210.57c12.594-1.957,23.822,7.91,23.762,20.654
			c-0.158,33.872,16.451,105.937,125.054,218.812C494.568,247.53,494.48,259.909,486.815,267.574z"/>
		<path style="fill:#F6F1F1;" d="M136.62,239.639c7.657-2.739,15.097-5.105,22.327-7.121
			c37.611-68.596,107.544-168.412,204.806-191.004c-1.32-8.006-1.779-14.888-1.751-20.659c0.063-12.715-11.137-22.556-23.702-20.609
			C225.513,17.729,147.406,140.255,111.217,210.819C102.652,227.519,118.949,245.961,136.62,239.639z"/>
	</g>
</g>
<g>
</g>
<g>
</g>
<g>
</g>
<g>
</g>
<g>
</g>
<g>
</g>
<g>
</g>
<g>
</g>
<g>
</g>
<g>
</g>
<g>
</g>
<g>
</g>
<g>
</g>
<g>
</g>
<g>
</g>
</svg>
