<?xml version="1.0" encoding="iso-8859-1"?>
<!-- Generator: Adobe Illustrator 23.0.6, SVG Export Plug-In . SVG Version: 6.00 Build 0)  -->
<svg version="1.1" id="Capa_1" xmlns="http://www.w3.org/2000/svg" xmlns:xlink="http://www.w3.org/1999/xlink" x="0px" y="0px"
	 viewBox="0 0 512 512" style="enable-background:new 0 0 512 512;" xml:space="preserve">
<g>
	<path style="fill:#B1E4F9;" d="M512,256c0,34.42-6.79,67.25-19.11,97.22c-17.98,43.77-47.75,81.46-85.34,109.12
		c-2.21,1.63-4.45,3.22-6.72,4.78c-14.65,10.07-30.4,18.65-47.04,25.53c-2.22,0.92-4.46,1.81-6.72,2.66
		c-8.87,3.39-17.97,6.29-27.28,8.68c-2.23,0.57-4.47,1.11-6.72,1.62C294.72,509.79,275.61,512,256,512
		c-17.23,0-34.07-1.7-50.35-4.95c-2.25-0.45-4.49-0.93-6.72-1.45c-9.3-2.1-18.4-4.72-27.28-7.83c-2.25-0.79-4.49-1.6-6.72-2.45
		c-16.57-6.31-32.32-14.29-47.04-23.73c-2.26-1.45-4.5-2.94-6.72-4.48c-40.77-28.02-73.02-67.55-92.06-113.89
		C6.79,323.24,0,290.41,0,256C0,114.62,114.62,0,256,0S512,114.62,512,256z"/>
	<path style="fill:#BD5423;" d="M492.89,181.21v172.01c-17.98,43.77-47.75,81.46-85.34,109.12c-16.52,12.15-34.55,22.37-53.76,30.31
		c-10.97,4.54-22.33,8.34-34,11.34C299.4,509.22,278.02,512,256,512c-17.23,0-34.07-1.7-50.35-4.95c-11.64-2.32-22.99-5.43-34-9.28
		c-19.05-6.64-37.07-15.47-53.76-26.18c-43.95-28.22-78.71-69.51-98.78-118.37V181.21H492.89z"/>
	<rect x="19.114" y="181.214" style="fill:#A0380E;" width="473.773" height="56.615"/>
	<path style="fill:#434D51;" d="M448.357,45.012H63.643c-16.774,0-31.464,11.246-35.842,27.438L1.308,170.431
		c-6.381,23.601,11.394,46.821,35.842,46.821h437.7c24.449,0,42.224-23.22,35.842-46.821L484.2,72.45
		C479.822,56.258,465.131,45.012,448.357,45.012z"/>
	<path style="fill:#2F373B;" d="M444.847,87.451H67.153c-4.861,0-8.801-3.94-8.801-8.801v0c0-4.861,3.94-8.801,8.801-8.801h377.693
		c4.861,0,8.801,3.94,8.801,8.801v0C453.648,83.511,449.707,87.451,444.847,87.451z"/>
	<path style="fill:#2F373B;" d="M456.585,128.197H55.415c-4.861,0-8.801-3.94-8.801-8.801v0c0-4.861,3.94-8.801,8.801-8.801h401.17
		c4.861,0,8.801,3.94,8.801,8.801v0C465.386,124.257,461.446,128.197,456.585,128.197z"/>
	<path style="fill:#2F373B;" d="M469.248,171.062H42.752c-4.861,0-8.801-3.94-8.801-8.801v0c0-4.861,3.94-8.801,8.801-8.801h426.497
		c4.861,0,8.801,3.94,8.801,8.801v0C478.05,167.122,474.109,171.062,469.248,171.062z"/>
	<path style="fill:#D9723E;" d="M400.83,186.1v281.02c-14.65,10.07-30.4,18.65-47.04,25.53c-2.22,0.92-4.46,1.81-6.72,2.66
		c-8.87,3.39-17.97,6.29-27.28,8.68c-2.23,0.57-4.47,1.11-6.72,1.62C294.72,509.79,275.61,512,256,512
		c-17.23,0-34.07-1.7-50.35-4.95c-2.25-0.45-4.49-0.93-6.72-1.45c-9.3-2.1-18.4-4.72-27.28-7.83c-2.25-0.79-4.49-1.6-6.72-2.45
		c-16.57-6.31-32.32-14.29-47.04-23.73c-2.26-1.45-4.5-2.94-6.72-4.48V186.1L246.13,57.09L400.83,186.1z"/>
	<path style="fill:#BD5423;" d="M400.83,186.1v69.16c-0.08-0.07-0.16-0.15-0.23-0.22L256,110.44l-144.6,144.6
		c-0.07,0.07-0.15,0.15-0.23,0.22V186.1L246.13,57.09L400.83,186.1z"/>
	<g>
		<path style="fill:#181E21;" d="M304.586,17.352L291.917,4.683c-5.915-5.915-15.391-6.271-21.733-0.816L62.484,182.53
			c-7.053,6.067-7.457,16.85-0.879,23.428l27.188,27.188c6.244,6.244,16.368,6.244,22.612,0L304.586,39.964
			C310.83,33.72,310.83,23.596,304.586,17.352z"/>
		<path style="fill:#2F373B;" d="M207.414,17.352l12.669-12.669c5.915-5.915,15.391-6.271,21.733-0.816L449.516,182.53
			c7.052,6.067,7.457,16.85,0.879,23.428l-27.188,27.188c-6.244,6.244-16.368,6.244-22.612,0L207.414,39.964
			C201.17,33.72,201.17,23.596,207.414,17.352z"/>
	</g>
	<path style="fill:#BD5423;" d="M347.07,316.72v178.59c-8.87,3.39-17.97,6.29-27.28,8.68c-2.23,0.57-4.47,1.11-6.72,1.62
		C294.72,509.79,275.61,512,256,512c-17.23,0-34.07-1.7-50.35-4.95c-2.25-0.45-4.49-0.93-6.72-1.45c-9.3-2.1-18.4-4.72-27.28-7.83
		c-2.25-0.79-4.49-1.6-6.72-2.45v-178.6c0-20.44,16.57-37,37.01-37h108.12C330.5,279.72,347.07,296.28,347.07,316.72z"/>
	<path style="fill:#2F373B;" d="M313.07,316.72v188.89C294.72,509.79,275.61,512,256,512c-17.23,0-34.07-1.7-50.35-4.95
		c-2.25-0.45-4.49-0.93-6.72-1.45V316.72c0-1.66,1.35-3,3.01-3h108.12C311.72,313.72,313.07,315.06,313.07,316.72z"/>
	<circle style="fill:#D9723E;" cx="256" cy="51.44" r="17.81"/>
	<g>
		<path style="fill:#BD5423;" d="M274.157,178.506l3.64,49.98h-43.595l3.64-49.98c6.208,0.584,12.332,2.097,18.157,4.519
			C261.822,180.599,267.945,179.089,274.157,178.506z"/>
		<path style="fill:#A0380E;" d="M288.069,175.906c0.643,4.105-2.829,7.692-6.95,7.163c-2.067-0.265-4.042-0.467-5.269-0.467
			c-1.613,0-3.227,0.076-4.834,0.227c-1.697,0.16-3.387,0.401-5.059,0.73c-3.398,0.659-6.734,1.664-9.957,3.008
			c-3.451-1.437-7.031-2.486-10.673-3.14c-1.439-0.261-2.887-0.46-4.343-0.598c-2.775-0.261-5.569-0.297-8.358-0.107
			c-0.418,0.029-0.991,0.096-1.655,0.186c-4.144,0.568-7.665-3.021-7.018-7.153l2.276-14.54c0.522-3.335,3.395-5.793,6.77-5.793h46
			c3.376,0,6.248,2.458,6.77,5.793l0.342,2.189L288.069,175.906z"/>
		<path style="fill:#A0380E;" d="M299.909,230.61v17.373c0,3.37-2.595,6.172-5.956,6.426c-12.284,0.927-24.213,4.71-34.82,11.08
			L256,267.37l-2.668-1.605l-0.466-0.278c-4.318-2.592-8.855-4.756-13.546-6.473c-3.628-1.33-7.351-2.393-11.133-3.176
			c-3.319-0.69-6.683-1.167-10.075-1.428c-0.02-0.002-0.04-0.003-0.06-0.005c-3.352-0.251-5.961-3.007-5.961-6.368V230.61
			c0-3.561,2.886-6.447,6.447-6.447h74.925C297.023,224.163,299.909,227.049,299.909,230.61z"/>
	</g>
</g>
<g>
</g>
<g>
</g>
<g>
</g>
<g>
</g>
<g>
</g>
<g>
</g>
<g>
</g>
<g>
</g>
<g>
</g>
<g>
</g>
<g>
</g>
<g>
</g>
<g>
</g>
<g>
</g>
<g>
</g>
</svg>
