<?xml version="1.0" encoding="iso-8859-1"?>
<!-- Generator: Adobe Illustrator 23.0.6, SVG Export Plug-In . SVG Version: 6.00 Build 0)  -->
<svg version="1.1" id="Capa_1" xmlns="http://www.w3.org/2000/svg" xmlns:xlink="http://www.w3.org/1999/xlink" x="0px" y="0px"
	 viewBox="0 0 512 512" style="enable-background:new 0 0 512 512;" xml:space="preserve">
<g>
	<circle style="fill:#FFBB16;" cx="256" cy="256" r="256"/>
	<path style="fill:#6EC17D;" d="M179.08,418.03l-56.5,56.49c-4.25-2.6-8.43-5.33-12.51-8.16L97.3,434.05l49.42-65.48l27.98-11.92
		L179.08,418.03z"/>
	
		<rect x="7.215" y="253.372" transform="matrix(0.7071 -0.7071 0.7071 0.7071 -127.8609 240.6532)" style="fill:#D9723E;" width="438.696" height="42.592"/>
	
		<rect x="-0.314" y="256.491" transform="matrix(0.7071 -0.7071 0.7071 0.7071 -124.7422 233.1239)" style="fill:#BD5423;" width="438.696" height="21.296"/>
	<path style="fill:#F6F1F1;" d="M465.333,35.903c3.451,3.451,4.961,8.859,2.45,14.159L415.46,160.438
		c-4.568,9.637-18.18,9.938-23.165,0.501l-17.972-34.027l-34.034-17.98c-9.429-4.976-9.129-18.589,0.508-23.157l110.377-52.323
		C456.466,30.934,461.874,32.444,465.333,35.903z"/>
	<path style="fill:#D0E2E7;" d="M465.333,35.903l-91.01,91.01l-34.034-17.98c-9.429-4.976-9.129-18.589,0.508-23.157l110.377-52.323
		C456.466,30.934,461.874,32.444,465.333,35.903z"/>
	<path style="fill:#57988B;" d="M144.58,326.53l-77.39,77.4l-27.42-10.84c-3.59-5.65-6.97-11.45-10.11-17.39l53.54-53.54
		L144.58,326.53z"/>
	<path style="fill:#C9394A;" d="M332.92,418.03l56.5,56.49c4.25-2.6,8.43-5.33,12.51-8.16l12.77-32.31l-49.42-65.48l-27.98-11.92
		L332.92,418.03z"/>
	
		<rect x="66.088" y="253.372" transform="matrix(-0.7071 -0.7071 0.7071 -0.7071 293.0505 670.7221)" style="fill:#BD5423;" width="438.696" height="42.592"/>
	
		<rect x="73.617" y="256.491" transform="matrix(-0.7071 -0.7071 0.7071 -0.7071 311.2277 663.1929)" style="fill:#D9723E;" width="438.696" height="21.296"/>
	<path style="fill:#D0E2E7;" d="M46.667,35.903c-3.451,3.451-4.961,8.859-2.45,14.159L96.54,160.438
		c4.568,9.637,18.18,9.938,23.165,0.501l17.972-34.027l34.034-17.98c9.429-4.976,9.129-18.589-0.508-23.157L60.826,33.453
		C55.534,30.934,50.126,32.444,46.667,35.903z"/>
	<path style="fill:#F6F1F1;" d="M46.667,35.903l91.01,91.01l34.034-17.98c9.429-4.976,9.129-18.589-0.508-23.157L60.826,33.453
		C55.534,30.934,50.126,32.444,46.667,35.903z"/>
	<path style="fill:#E84D59;" d="M367.42,326.53l77.39,77.4l27.42-10.84c3.59-5.65,6.97-11.45,10.11-17.39l-53.54-53.54
		L367.42,326.53z"/>
</g>
<g>
</g>
<g>
</g>
<g>
</g>
<g>
</g>
<g>
</g>
<g>
</g>
<g>
</g>
<g>
</g>
<g>
</g>
<g>
</g>
<g>
</g>
<g>
</g>
<g>
</g>
<g>
</g>
<g>
</g>
</svg>
