<?xml version="1.0" encoding="iso-8859-1"?>
<!-- Generator: Adobe Illustrator 23.0.6, SVG Export Plug-In . SVG Version: 6.00 Build 0)  -->
<svg version="1.1" id="Capa_1" xmlns="http://www.w3.org/2000/svg" xmlns:xlink="http://www.w3.org/1999/xlink" x="0px" y="0px"
	 viewBox="0 0 512 512" style="enable-background:new 0 0 512 512;" xml:space="preserve">
<g>
	<path style="fill:#80B4FB;" d="M512,256c0,54.12-16.8,104.32-45.46,145.67c-6.37,9.19-13.32,17.94-20.81,26.2
		c-5.86,6.47-12.05,12.63-18.55,18.47c-7.78,7.02-16,13.55-24.61,19.56c-2.17,1.53-4.36,3.01-6.57,4.46
		c-5.85,3.82-11.86,7.42-18.03,10.76c-2.3,1.25-4.61,2.46-6.95,3.64C336.45,502.19,297.36,512,256,512c-4.92,0-9.8-0.14-14.65-0.41
		c-32.17-1.81-62.75-9.57-90.66-22.21c-9.05-4.07-17.82-8.67-26.27-13.76c-5.85-3.49-11.54-7.23-17.07-11.18
		C42.36,418.01,0,341.95,0,256C0,114.62,114.62,0,256,0S512,114.62,512,256z"/>
	<g>
		<path style="fill:#F6F1F1;" d="M460.585,95.026c0,14.498-11.749,26.247-26.247,26.247H183.294
			c-14.498,0-26.257-11.749-26.257-26.247c0-14.116,11.138-25.625,25.101-26.225c-2.422-4.92-3.796-10.451-3.796-16.309
			c0-20.367,16.505-36.872,36.872-36.872c10.745,0,20.399,4.593,27.141,11.912c3.36-10.636,13.298-18.349,25.036-18.349
			c4.996,0,9.665,1.396,13.636,3.818c6.316-7.56,15.643-12.491,26.126-12.97c0.055,0.011,0.098,0,0.142,0
			C307.796,0.011,308.298,0,308.811,0c11.171,0,21.152,5.051,27.785,13.003c3.971-2.422,8.64-3.818,13.636-3.818
			c11.749,0,21.687,7.713,25.036,18.349c6.742-7.32,16.407-11.912,27.141-11.912c20.367,0,36.883,16.505,36.883,36.872
			c0,5.858-1.374,11.389-3.807,16.309C449.447,69.402,460.585,80.91,460.585,95.026z"/>
		<path style="fill:#D0E2E7;" d="M293.56,46.068c0,0-26.203-4.276-34.734,14.563c-8.531,18.85,8.858,32.356,22.549,32.356
			c0,0-27.959,1.287-25.45,28.286h-72.631c-14.498,0-26.257-11.749-26.257-26.247c0-14.116,11.138-25.625,25.101-26.225
			c-2.422-4.92-3.796-10.451-3.796-16.309c0-20.367,16.505-36.872,36.872-36.872c10.745,0,20.399,4.593,27.141,11.912
			c3.36-10.636,13.298-18.349,25.036-18.349c4.996,0,9.665,1.396,13.636,3.818c6.316-7.56,15.643-12.491,26.126-12.97
			C279.434,1.429,279.521,37.701,293.56,46.068z"/>
		<path style="fill:#FFBB16;" d="M126.922,198.823c-36.317,0-65.85,29.543-65.85,65.85v78.876c0,33.871,25.696,61.857,58.637,65.453
			c2.363,0.261,4.777,0.397,7.213,0.397h83.141l8.499-210.576H126.922z M181.147,370.625h-54.225c-1.202,0-2.383-0.084-3.544-0.24
			c-13.266-1.735-23.532-13.109-23.532-26.835v-78.876c0-14.928,12.148-27.076,27.076-27.076h54.225V370.625z"/>
		<path style="fill:#FF931F;" d="M77.775,343.55v-78.876c0-36.307,29.543-65.85,65.861-65.85h-16.716
			c-36.307,0-65.85,29.543-65.85,65.85v78.876c0,36.307,29.543,65.85,65.85,65.85h16.716
			C107.318,409.4,77.775,379.857,77.775,343.55z"/>
		<path style="fill:#D9723E;" d="M466.54,401.67c-6.37,9.19-13.32,17.94-20.81,26.2c-14.67,16.18-31.38,30.48-49.73,42.49H135.42
			l25.95-267.71l3.09-38.21h279.71l3.08,38.21L466.54,401.67z"/>
		<polygon style="fill:#BD5423;" points="447.249,202.649 161.373,202.649 164.456,164.436 444.166,164.436 		"/>
		<rect x="293.557" y="148.702" style="fill:#A0380E;" width="21.508" height="321.661"/>
		<path style="fill:#FF931F;" d="M218.563,198.823l-8.499,210.576h-83.141c-2.436,0-4.851-0.136-7.213-0.397l3.669-38.617
			c1.16,0.157,2.342,0.24,3.544,0.24h54.225V237.597h-45.172l3.68-38.774H218.563z"/>
		<polygon style="fill:#BD5423;" points="244.866,164.436 232.525,470.363 135.42,470.363 164.456,164.436 		"/>
		<path style="fill:#A0380E;" d="M408.66,153.68h-208.7l-20.72,327.44h198.73c6.17-3.34,12.18-6.94,18.03-10.76
			c11.02-7.21,21.44-15.24,31.18-24.02L408.66,153.68z M201.95,459.61l18.38-284.42h167.96l18.39,284.42H201.95z"/>
		<path style="fill:#FFBB16;" d="M445.73,427.87C398.89,479.54,331.23,512,256,512c-55.43,0-106.74-17.62-148.65-47.56v-6.99
			c0-16.34,13.24-29.58,29.58-29.58H445.73z"/>
		<path style="fill:#FF931F;" d="M241.35,511.59c-49.81-2.81-95.81-19.87-134-47.15v-6.99c0-16.34,13.24-29.58,29.58-29.58h121.45
			c-16.33,0-29.57,13.24-29.57,29.58v29.96C228.81,497.41,233.76,506.24,241.35,511.59z"/>
		<path style="fill:#FFBB16;" d="M447.834,110.487H160.788c-14.01,0-25.368,11.358-25.368,25.368v25.692
			c0,14.01,11.358,25.368,25.368,25.368h287.046c14.01,0,25.368-11.358,25.368-25.368v-25.692
			C473.202,121.845,461.845,110.487,447.834,110.487z"/>
		<path style="fill:#FF931F;" d="M264.931,186.911H160.792c-14.016,0-25.372-11.356-25.372-25.363v-25.697
			c0-14.008,11.355-25.363,25.372-25.363h104.139c-14.008,0-25.363,11.355-25.363,25.363v25.697
			C239.568,175.555,250.923,186.911,264.931,186.911z"/>
		<g>
			<circle style="fill:#F6F1F1;" cx="447.249" cy="148.702" r="18.687"/>
			<circle style="fill:#F6F1F1;" cx="354.97" cy="148.702" r="18.687"/>
			<circle style="fill:#F6F1F1;" cx="262.69" cy="148.702" r="18.687"/>
			<circle style="fill:#F6F1F1;" cx="170.411" cy="148.702" r="18.687"/>
		</g>
		<g>
			<path style="fill:#F6F1F1;" d="M402.57,465.9c-2.17,1.53-4.36,3.01-6.57,4.46c-5.85,3.82-11.86,7.42-18.03,10.76
				c-2.3,1.25-4.61,2.46-6.95,3.64c-2.9-3.29-4.65-7.6-4.65-12.33c0-10.32,8.36-18.69,18.69-18.69
				C393.08,453.74,399.92,458.8,402.57,465.9z"/>
			<circle style="fill:#F6F1F1;" cx="304.311" cy="472.431" r="18.687"/>
			<circle style="fill:#F6F1F1;" cx="223.567" cy="472.431" r="18.687"/>
			<path style="fill:#F6F1F1;" d="M161.51,472.43c0,7.51-4.43,13.98-10.82,16.95c-9.05-4.07-17.82-8.67-26.27-13.76
				c-0.19-1.04-0.28-2.1-0.28-3.19c0-10.32,8.36-18.69,18.68-18.69S161.51,462.11,161.51,472.43z"/>
		</g>
	</g>
</g>
<g>
</g>
<g>
</g>
<g>
</g>
<g>
</g>
<g>
</g>
<g>
</g>
<g>
</g>
<g>
</g>
<g>
</g>
<g>
</g>
<g>
</g>
<g>
</g>
<g>
</g>
<g>
</g>
<g>
</g>
</svg>
