<?xml version="1.0" encoding="iso-8859-1"?>
<!-- Generator: Adobe Illustrator 23.0.6, SVG Export Plug-In . SVG Version: 6.00 Build 0)  -->
<svg version="1.1" id="Capa_1" xmlns="http://www.w3.org/2000/svg" xmlns:xlink="http://www.w3.org/1999/xlink" x="0px" y="0px"
	 viewBox="0 0 512 512" style="enable-background:new 0 0 512 512;" xml:space="preserve">
<g>
	<path style="fill:#6EC17D;" d="M512,256c0,49.29-13.94,95.34-38.08,134.4c-32.78,53.04-84.37,93.22-145.48,111.21h-0.01
		C305.47,508.37,281.16,512,256,512s-49.47-3.63-72.44-10.4c-61.1-17.99-112.7-58.16-145.48-111.2C13.94,351.34,0,305.29,0,256
		C0,114.62,114.62,0,256,0S512,114.62,512,256z"/>
	<g>
		<rect x="117.626" y="326.239" style="fill:#BD5423;" width="269.076" height="116.784"/>
		<path style="fill:#F9C5AC;" d="M398.41,468.76c-12.34,8.28-25.44,15.52-39.18,21.57c-10.65,4.7-21.68,8.7-33.03,11.92
			C303.9,508.6,280.35,512,256,512c-24.34,0-47.89-3.4-70.2-9.74c-7.24-2.06-14.36-4.44-21.33-7.12c-0.43-0.16-0.86-0.32-1.29-0.49
			c-3.51-1.36-6.98-2.81-10.41-4.32c-13.74-6.06-26.84-13.29-39.19-21.58c10.39-14.37,23.76-26.43,39.19-35.32
			c10.2-5.87,21.3-10.34,33.03-13.15c1.81-0.44,3.64-0.84,5.48-1.19c3.47-0.68,7-1.2,10.57-1.57c1.03-0.11,2.05-0.21,3.09-0.29
			c3.38-0.28,6.8-0.42,10.26-0.42h81.59c4.52,0,8.97,0.24,13.35,0.7c3.57,0.37,7.09,0.9,10.57,1.56c1.39,0.27,2.77,0.56,4.14,0.87
			c0.45,0.12,0.91,0.21,1.35,0.33c11.74,2.82,22.83,7.29,33.03,13.16C374.66,442.33,388.02,454.39,398.41,468.76z"/>
		<path style="fill:#EFB29A;" d="M215.2,416.81c-29.36,0-49.26,42.43-50.73,78.33c-0.43-0.16-0.86-0.32-1.29-0.49
			c-3.51-1.36-6.98-2.81-10.41-4.32c-13.74-6.06-26.84-13.29-39.19-21.58c10.39-14.37,23.76-26.43,39.19-35.32
			c10.2-5.87,21.3-10.34,33.03-13.15c1.81-0.44,3.64-0.84,5.48-1.19c3.47-0.68,7-1.2,10.57-1.57c1.03-0.11,2.05-0.21,3.09-0.29
			C208.32,416.95,211.74,416.81,215.2,416.81z"/>
		<g>
			<path style="fill:#D0E2E7;" d="M205.2,470.79c-6.27,10.19-13.57,20.93-21.64,30.81c-61.1-17.99-112.7-58.16-145.48-111.2
				c42.2-0.23,100.61,14.11,144.54,25.04C206.95,421.49,218.34,449.44,205.2,470.79z"/>
			<path style="fill:#F6F1F1;" d="M473.92,390.4c-32.78,53.04-84.37,93.22-145.48,111.21h-0.01c-8.06-9.89-15.37-20.63-21.64-30.82
				c-13.14-21.35-1.75-49.3,22.58-55.35C373.3,404.51,431.72,390.17,473.92,390.4z"/>
		</g>
		<path style="fill:#EFB29A;" d="M300.706,368.538v54.869c0,20.088-13.245,37.067-31.489,42.707
			c-4.176,1.296-8.627,1.997-13.23,1.997c-24.691,0-44.703-20.012-44.703-44.703v-54.869H300.706z"/>
		<path style="fill:#F9C5AC;" d="M300.706,419.932v3.475c0,20.088-13.245,37.067-31.489,42.707
			c-16.461-5.06-28.837-19.372-31.123-36.884c2.987,0.183,5.99,0.274,9.008,0.274c8.459,0,16.75-0.671,24.828-1.997
			C281.883,425.907,291.5,423.346,300.706,419.932z"/>
		<g>
			<path style="fill:#F9C5AC;" d="M132.54,278.153c0,20.497-14.973,37.492-34.579,40.646c-2.143,0.347-4.347,0.528-6.596,0.528
				c-22.746,0-41.175-18.429-41.175-41.175s18.429-41.175,41.175-41.175c2.249,0,4.453,0.181,6.596,0.528
				C117.567,240.661,132.54,257.657,132.54,278.153z"/>
			<path style="fill:#EFB29A;" d="M132.54,278.153c0,20.497-14.973,37.492-34.579,40.646c-3.562-12.95-5.464-26.579-5.464-40.646
				c0-14.067,1.902-27.696,5.464-40.646C117.567,240.661,132.54,257.657,132.54,278.153z"/>
			<circle style="fill:#EFB29A;" cx="91.365" cy="278.153" r="14.716"/>
			<path style="fill:#F9C5AC;" d="M379.449,278.153c0,20.497,14.973,37.492,34.579,40.646c2.143,0.347,4.347,0.528,6.596,0.528
				c22.746,0,41.175-18.429,41.175-41.175s-18.429-41.175-41.175-41.175c-2.249,0-4.453,0.181-6.596,0.528
				C394.422,240.661,379.449,257.657,379.449,278.153z"/>
			<path style="fill:#EFB29A;" d="M379.449,278.153c0,20.497,14.973,37.492,34.579,40.646c3.562-12.95,5.464-26.579,5.464-40.646
				c0-14.067-1.902-27.696-5.464-40.646C394.422,240.661,379.449,257.657,379.449,278.153z"/>
			<circle style="fill:#EFB29A;" cx="420.624" cy="278.153" r="14.716"/>
		</g>
		<path style="fill:#F9C5AC;" d="M410.696,256.511c0,76.985-56.241,140.847-129.873,152.705c-8.078,1.326-16.369,1.997-24.828,1.997
			c-85.444,0-154.701-69.257-154.701-154.701V99.012h309.403V256.511z"/>
		<path style="fill:#EFB29A;" d="M283.243,408.81c-0.8,0.14-1.61,0.28-2.42,0.41c-8.08,1.32-16.37,1.99-24.83,1.99
			c-85.44,0-154.7-69.25-154.7-154.7V99.01h54.55v157.5C155.843,332.65,210.823,395.92,283.243,408.81z"/>
		<g>
			<circle style="fill:#EFB29A;" cx="341.181" cy="296.496" r="19.082"/>
			<circle style="fill:#EFB29A;" cx="170.805" cy="296.496" r="19.082"/>
		</g>
		<path style="fill:#EFB29A;" d="M273.377,297.923h-34.757c-4.14,0-7.497-3.356-7.497-7.496l0,0c0-4.14,3.356-7.497,7.497-7.497
			h34.757c4.14,0,7.497,3.356,7.497,7.497l0,0C280.874,294.567,277.517,297.923,273.377,297.923z"/>
		<path style="fill:#DD9F8A;" d="M255.999,345.352c-12.828,0-25.656-3.214-37.349-9.642c-3.298-1.813-4.502-5.957-2.689-9.255
			c1.814-3.299,5.958-4.501,9.255-2.689c19.276,10.597,42.292,10.596,61.566,0c3.296-1.813,7.441-0.61,9.255,2.689
			c1.814,3.298,0.61,7.442-2.689,9.255C281.655,342.138,268.827,345.352,255.999,345.352z"/>
		<g>
			<path style="fill:#EFB29A;" d="M343.992,244.327c0-17.807-14.435-32.243-32.243-32.243c-17.807,0-32.243,14.435-32.243,32.243"/>
			<circle style="fill:#2F373B;" cx="311.75" cy="258.054" r="22.023"/>
			<circle style="fill:#FFFFFF;" cx="320.928" cy="254.168" r="9.437"/>
			<path style="fill:#EFB29A;" d="M232.482,244.327c0-17.807-14.435-32.243-32.243-32.243s-32.243,14.435-32.243,32.243"/>
			<circle style="fill:#2F373B;" cx="200.24" cy="258.054" r="22.023"/>
			<path style="fill:#181E21;" d="M205.207,279.51c-1.6,0.38-3.26,0.57-4.97,0.57c-12.16,0-22.02-9.86-22.02-22.03
				c0-12.16,9.86-22.02,22.02-22.02c1.71,0,3.37,0.2,4.97,0.57c-9.78,2.25-17.06,11-17.06,21.45
				C188.147,268.51,195.427,277.26,205.207,279.51z"/>
			<path style="fill:#181E21;" d="M316.717,279.51c-1.6,0.38-3.26,0.57-4.97,0.57c-12.16,0-22.02-9.86-22.02-22.03
				c0-12.16,9.86-22.02,22.02-22.02c1.71,0,3.37,0.2,4.97,0.57c-9.78,2.25-17.06,11-17.06,21.45
				C299.657,268.51,306.937,277.26,316.717,279.51z"/>
			<circle style="fill:#FFFFFF;" cx="209.417" cy="254.168" r="9.437"/>
		</g>
		<path style="fill:#BD5423;" d="M255.99,99.01c0,5.99-1.63,11.87-4.54,17.7c-24.14,48.62-136.05,93.28-118.91,161.44
			c17.62,70.09,53.15,160.57,37.41,219.02c-8.26-2.95-16.32-6.31-24.16-10.05c-23.5-11.22-45.02-25.92-63.89-43.43V141
			c0-56.39,56.85-136.79,169.63-140.83c1.48-0.06,2.97-0.1,4.47-0.13C256.8,0.03,255.99,99.01,255.99,99.01z"/>
		<path style="fill:#D9723E;" d="M132.54,278.15c17.62,70.09,53.15,160.57,37.41,219.02c-8.26-2.95-16.32-6.31-24.16-10.05
			c17.67-33.69,3.87-98.4-20.99-176.53c-11.787-37.036-7.592-66.615,2.097-91.808c20.378-52.984,67.319-91.222,123.093-101.795
			l1.459-0.277C227.31,165.33,115.4,209.99,132.54,278.15z"/>
		<path style="fill:#D9723E;" d="M430.09,141v302.7c-25.17,23.35-55.05,41.7-88.05,53.47c-15.74-58.45,19.79-148.93,37.41-219.02
			c19.19-76.33-123.46-123.19-123.46-179.14c0,0-7.763-41.072-7.82-70.299c-0.031-16.147,7.43-28.678,7.7-28.671H256
			c1.5,0.03,2.99,0.07,4.46,0.13C373.24,4.21,430.09,84.61,430.09,141z"/>
		<path style="fill:#434D51;" d="M426.588,170.749c-113.425-11.757-227.761-11.757-341.186,0
			c-5.864,0.608-10.974-3.967-10.974-9.862v0c0-5.07,3.822-9.341,8.865-9.87c114.82-12.05,230.586-12.05,345.406,0
			c5.043,0.529,8.865,4.8,8.865,9.87v0C437.562,166.783,432.452,171.357,426.588,170.749z"/>
	</g>
</g>
<g>
</g>
<g>
</g>
<g>
</g>
<g>
</g>
<g>
</g>
<g>
</g>
<g>
</g>
<g>
</g>
<g>
</g>
<g>
</g>
<g>
</g>
<g>
</g>
<g>
</g>
<g>
</g>
<g>
</g>
</svg>
