<?xml version="1.0" encoding="iso-8859-1"?>
<!-- Generator: Adobe Illustrator 23.0.6, SVG Export Plug-In . SVG Version: 6.00 Build 0)  -->
<svg version="1.1" id="Capa_1" xmlns="http://www.w3.org/2000/svg" xmlns:xlink="http://www.w3.org/1999/xlink" x="0px" y="0px"
	 viewBox="0 0 512 512" style="enable-background:new 0 0 512 512;" xml:space="preserve">
<g>
	<path style="fill:#6EC17D;" d="M512,256c0,141.38-114.62,256-256,256c-50.17,0-96.96-14.43-136.46-39.37
		c-2.89-1.82-5.74-3.7-8.55-5.63c-17.35-11.95-33.15-25.97-47.03-41.73c-0.77-0.86-1.53-1.73-2.28-2.61
		c-5.94-6.91-11.5-14.14-16.67-21.66c-1.94-2.81-3.82-5.65-5.64-8.54C14.43,352.96,0,306.17,0,256C0,114.62,114.62,0,256,0
		S512,114.62,512,256z"/>
	<path style="fill:#F6F1F1;" d="M213.4,364.59L110.99,467c-18.3-12.61-34.88-27.52-49.31-44.34c-5.94-6.91-11.5-14.14-16.67-21.66
		l102.4-102.4L213.4,364.59z"/>
	<path style="fill:#D0E2E7;" d="M169.02,320.21L63.96,425.27c-0.77-0.86-1.53-1.73-2.28-2.61c-5.94-6.91-11.5-14.14-16.67-21.66
		l102.4-102.4L169.02,320.21z"/>
	<path style="fill:#D0E2E7;" d="M213.401,364.593l-67.773,67.773c-16.134-4.633-30.336-12.607-41.861-24.132
		s-19.498-25.726-24.132-41.861l67.773-67.773L213.401,364.593z"/>
	<path style="fill:#D9723E;" d="M213.962,32.42C90.28,156.102,49.477,315.827,122.825,389.175s233.073,32.545,356.755-91.137"/>
	<path style="fill:#BD5423;" d="M291.763,110.222l-77.805-77.805C90.276,156.1,49.482,315.826,122.831,389.175
		C108.527,374.871,168.08,233.905,291.763,110.222z"/>
	
		<ellipse transform="matrix(0.7071 -0.7071 0.7071 0.7071 -15.2679 293.5985)" style="fill:#FF931F;" cx="346.771" cy="165.229" rx="138.989" ry="187.82"/>
	<path style="fill:#C9394A;" d="M232.816,51.274c-20.123,20.123-28.32,50.523-23.079,85.599
		c5.684,38.039,26.142,76.317,57.607,107.782s69.743,51.924,107.782,57.607c35.075,5.241,65.476-2.955,85.599-23.079
		c20.123-20.123,28.32-50.523,23.079-85.599c-5.684-38.039-26.142-76.317-57.607-107.782s-69.743-51.924-107.782-57.607
		C283.34,22.954,252.939,31.151,232.816,51.274z"/>
	<circle style="fill:#BD5423;" cx="210.938" cy="399.717" r="10.589"/>
	<circle style="fill:#BD5423;" cx="228.367" cy="372.524" r="10.589"/>
	<circle style="fill:#BD5423;" cx="202.812" cy="248.057" r="10.589"/>
	<circle style="fill:#BD5423;" cx="185.815" cy="270.56" r="10.589"/>
	<circle style="fill:#BD5423;" cx="245.411" cy="399.717" r="10.589"/>
	<g>
		<path style="fill:#E84D59;" d="M372.513,100.232c-1.17,2.244-2.344,4.5-3.482,6.753c6.181-0.849,13.669-0.641,21.665-0.419
			c7.348,0.204,15.626,0.434,22.592-0.397c5.199-0.62,7.468-6.938,3.773-10.647c-0.097-0.097-0.194-0.195-0.292-0.292
			c-7.65-7.65-15.717-14.603-24.084-20.797c-3.559-2.634-8.721-0.966-10.011,3.27C380.459,84.981,376.457,92.663,372.513,100.232z"
			/>
		<path style="fill:#E84D59;" d="M422.246,248.921c-8.967-3.88-18.534-8.021-27.599-12.647c0.135,7.623,2.193,16.727,4.201,25.605
			c1.598,7.063,3.276,14.499,3.692,21.128c0.252,4.015,3.829,6.963,7.807,6.363c16.417-2.475,30.446-9.109,40.951-19.614
			c0.012-0.012,0.023-0.023,0.035-0.035c1.995-1.999,1.672-5.36-0.665-6.946C444.341,258.483,432.791,253.484,422.246,248.921z"/>
		<path style="fill:#E84D59;" d="M263.096,113.125c10.181,2.592,20.79,5.297,30.543,8.58c-1.116-6.579-1.269-15.156-1.448-25.383
			c-0.262-14.864-0.579-32.458-4.39-47.751c-1.138-4.566-5.712-7.434-10.309-6.432c-13.971,3.045-25.982,9.296-35.248,18.562
			c-9.22,9.22-15.455,21.158-18.517,35.04c-0.4,1.815,0.284,3.712,1.803,4.784C232.251,105.269,248.497,109.407,263.096,113.125z"/>
		<path style="fill:#E84D59;" d="M392.736,286.249c0.052-5.838-1.742-13.768-3.642-22.164c-2.58-11.405-5.229-23.151-4.227-33.144
			c-19.423-11.404-34.133-25.75-31.133-45.687l9.889,1.488c-3.662,24.333,33.075,40.229,62.594,53.001
			c10.047,4.347,18.725,8.104,25.344,11.871c5.533,3.149,12.539,0.535,14.823-5.408c5.553-14.451,7.065-31.71,4.235-50.652
			c-4.008-26.822-16.053-53.869-34.569-78.252c-2.648-3.487-7.24-4.876-11.363-3.403c-9.384,3.351-21.966,3.005-34.269,2.663
			c-10.686-0.297-25.312-0.703-27.181,3.224c-3.032,8.025-4.391,15.614-1.859,22.02l-9.299,3.676
			c-3.722-9.414-1.834-19.685,2.067-29.845l-0.009-0.004c0.015-0.032,0.033-0.062,0.048-0.094c2.617-6.791,6.126-13.531,9.46-19.929
			c6.448-12.375,10.901-21.602,10.789-28.309c-0.052-3.147-1.894-6.015-4.658-7.521c-17.3-9.423-35.366-15.716-53.331-18.401
			c-3.829-0.572-7.589-0.965-11.27-1.183c-4.585-0.271-8.098,3.965-7.091,8.446c3.531,15.713,3.848,32.866,4.105,47.502
			c0.159,9.047,0.297,16.86,1.14,22.687c0.967,6.681,2.474,7.536,2.489,7.541l-0.002,0.006c14.875,6.592,25.643,15.447,25.94,28.883
			l-9.998,0.221c-0.327-14.798-25.299-23.211-49.503-29.661c-3.385,1.103-12.979,4.477-22.521,10.132
			c-7.269,4.308-12.351,8.633-15.865,12.744c-3.97,4.644-5.073,11.106-2.939,16.831c9.236,24.776,24.935,48.79,45.842,69.697
			c0.019,0.019,0.037,0.037,0.056,0.056c2.214,2.213,5.946,1.126,6.78-1.891c3.881-14.037,15.77-20.984,25.953-26.922
			c12.813-7.471,20.666-12.677,20.666-25.033h10c0,18.728-13.615,26.667-25.629,33.672c-12.785,7.455-23.257,13.576-22.257,30.388
			c0.16,2.683,1.538,5.142,3.65,6.804c25.117,19.767,53.234,32.611,81.107,36.776c3.858,0.577,7.645,0.969,11.353,1.186
			c2.291,0.134,4.261-1.665,4.286-3.96C392.736,286.285,392.736,286.267,392.736,286.249z"/>
		<path style="fill:#E84D59;" d="M255.72,121.562c-10.838-2.781-20.381-5.375-27.727-8.503c-3.059-1.303-6.479,0.907-6.463,4.232
			c0.027,5.674,0.488,11.557,1.393,17.612c0.005,0.031,0.009,0.062,0.014,0.093c0.547,3.645,5.002,5.173,7.697,2.658
			C238.336,130.465,247.869,125.149,255.72,121.562z"/>
	</g>
	
		<ellipse transform="matrix(0.7071 -0.7071 0.7071 0.7071 -15.2679 293.5985)" style="fill:#F6F1F1;" cx="346.771" cy="165.229" rx="27.103" ry="36.625"/>
</g>
<g>
</g>
<g>
</g>
<g>
</g>
<g>
</g>
<g>
</g>
<g>
</g>
<g>
</g>
<g>
</g>
<g>
</g>
<g>
</g>
<g>
</g>
<g>
</g>
<g>
</g>
<g>
</g>
<g>
</g>
</svg>
