<?xml version="1.0" encoding="iso-8859-1"?>
<!-- Generator: Adobe Illustrator 23.0.6, SVG Export Plug-In . SVG Version: 6.00 Build 0)  -->
<svg version="1.1" id="Capa_1" xmlns="http://www.w3.org/2000/svg" xmlns:xlink="http://www.w3.org/1999/xlink" x="0px" y="0px"
	 viewBox="0 0 512 512" style="enable-background:new 0 0 512 512;" xml:space="preserve">
<g>
	<path style="fill:#B1E4F9;" d="M512,256c0,141.38-114.62,256-256,256c-51.33,0-99.13-15.11-139.2-41.13
		c-8-5.19-15.69-10.81-23.04-16.84c-4.65-3.81-9.16-7.78-13.53-11.91c-6.17-5.83-12.04-11.96-17.61-18.37
		c-4.56-5.25-8.9-10.68-13.03-16.3l-0.01-0.01c-6.06-8.24-11.63-16.86-16.68-25.81C11.96,344.52,0,301.66,0,256
		C0,114.62,114.62,0,256,0c39.57,0,77.05,8.98,110.5,25.01c9.29,4.45,18.26,9.44,26.88,14.94c11.55,7.36,22.47,15.61,32.65,24.67
		c21.11,18.78,39.1,40.99,53.07,65.76C500.05,167.5,512,210.35,512,256z"/>
	<g>
		<path style="fill:#FF931F;" d="M472.94,56.24l-0.15-0.9l-0.09-0.28c-2.73-12.17-12.21-21.49-24.48-23.99l-1.34-0.34h-0.43
			l-0.2-0.04h-0.02c-26.35-4.95-53.05-6.84-79.73-5.68c-11.61,0.51-23.21,1.6-34.78,3.26c-29.63,4.26-56.48,17.71-77.67,38.9
			c-26.15,26.15-40.54,60.91-40.54,97.89v40.32l-40.33,0.01c-36.97-0.01-71.74,14.39-97.89,40.54
			c-21.18,21.18-34.63,48.04-38.9,77.67c-2.78,19.33-3.94,38.71-3.49,58.03c5.05,8.95,10.62,17.57,16.68,25.81l0.01,0.01
			c4.13,5.62,8.47,11.05,13.03,16.3c5.57,6.41,11.44,12.54,17.61,18.37c4.37,4.13,8.88,8.1,13.53,11.91
			c7.35,6.03,15.04,11.65,23.04,16.84c76.86,3.07,152.77-19.29,216.07-64.53l12.93,8.53c13.92,9.19,32.59,7.3,44.38-4.49
			l28.32-28.32c11.8-11.8,13.69-30.47,4.5-44.4l-8.53-12.92c2.12-2.98,4.21-6,6.24-9.05c11.45-17.14,21.43-35.42,29.63-54.33
			c2.59-5.93,5.06-12.1,7.36-18.33c8.78-23.85,14.96-48.73,18.34-73.92c0.89-6.49,1.59-13.09,2.09-19.57
			c0.5-6.38,0.83-12.77,0.97-19.16C479.69,105.53,477.63,80.68,472.94,56.24z M122.66,381.32c-0.17-5.7-0.16-11.38,0.04-17.01
			c0.65-18.19,8.09-35.3,20.96-48.17c13.56-13.56,31.59-21.03,50.77-21.02c19.17-0.01,37.19,7.45,50.74,21l24.61,24.61
			C226,368.77,174.73,382.94,122.66,381.32z M388.75,143.22c-0.46,5.87-1.14,11.81-2.02,17.69c-2.26,15.12-5.9,30.14-10.84,44.65
			c-1.83,5.44-3.97,11.06-6.33,16.7c-5.72,13.64-12.67,26.87-20.71,39.38l-24.6-24.6c-13.56-13.56-21.02-31.57-21.01-50.74
			c-0.01-19.17,7.46-37.2,21.02-50.76c12.87-12.87,29.98-20.32,48.19-20.96c5.59-0.2,11.3-0.22,17-0.04
			C389.74,124.13,389.51,133.77,388.75,143.22z"/>
		<path style="fill:#FFBB16;" d="M171.958,404.151l2.382,35.941c0.465,7.024,6.92,12.107,13.855,10.894
			c15.057-2.634,29.969-6.298,44.624-11.004c6.952-2.232,10.221-10.195,6.885-16.689l-16.611-32.337
			c-2.594-5.051-8.42-7.602-13.858-5.969c-9.112,2.737-18.367,4.995-27.73,6.762C175.645,392.854,171.563,398.202,171.958,404.151z"
			/>
		<path style="fill:#FFBB16;" d="M241.908,386.425l16.404,31.951c2.93,5.706,9.866,8.038,15.656,5.28
			c10.075-4.799,19.958-10.136,29.609-16.004c6.216-3.779,7.526-12.247,2.804-17.781c-6.678-7.827-14.393-17.591-20.716-27.564
			c-3.42-5.394-10.507-7.089-16.002-3.834c-7.265,4.304-14.703,8.257-22.289,11.85C241.331,373.186,238.853,380.475,241.908,386.425
			z"/>
		<path style="fill:#FFBB16;" d="M144.3,455.74c-16.85,0.71-33.75,0.13-50.54-1.71c-4.65-3.81-9.16-7.78-13.53-11.91
			c-0.08-3.02,1-6.11,3.47-8.58l37.22-37.22c-0.22-0.01-0.44-0.02-0.67-0.04c6.95,0.28,13.89,0.28,20.8,0.02
			c6.4-0.24,11.83,4.64,12.26,11.04l2.38,35.77C156.14,449.78,150.98,455.46,144.3,455.74z"/>
		<path style="fill:#FFBB16;" d="M399.872,173.38c-1.767,9.364-4.025,18.618-6.762,27.73c-1.634,5.438,0.918,11.263,5.969,13.858
			l32.344,16.615c6.492,3.335,14.452,0.069,16.687-6.879c4.715-14.655,8.391-29.573,11.023-44.635
			c1.212-6.934-3.872-13.387-10.895-13.853l-35.964-2.383C406.325,163.441,400.977,167.523,399.872,173.38z"/>
		<path style="fill:#FFBB16;" d="M428.41,62.24l-2.38,2.38L394.7,95.95c-2.24,2.24-5.3,3.52-8.47,3.47
			c-4.78-0.09-9.55-0.04-14.33,0.13c-46.71,1.65-83.71,40.02-83.7,86.76c-0.01,23.01,9.13,45.08,25.42,61.37l37.36,37.37
			c0,0,12.69,10.75,26.58,22.83c12.1,10.54,22.71,22.66,31.56,36.05l1.33,2.02c5.29,8.02,4.22,18.66-2.59,25.47l-28.32,28.32
			c-6.79,6.79-17.43,7.87-25.45,2.59l-1.99-1.31c-13.42-8.87-25.57-19.5-36.12-31.62c-12.08-13.87-22.81-26.54-22.81-26.54
			l0.01-0.01l-37.37-37.37c-16.28-16.28-38.36-25.42-61.38-25.41c-46.74-0.01-85.11,37-86.76,83.71c-0.17,4.77-0.21,9.55-0.13,14.33
			c0.05,3.17-1.22,6.22-3.47,8.47l-33.7,33.7c-2.25,2.25-5,3.34-7.75,3.47c-4.56-5.25-8.9-10.68-13.03-16.3l-0.01-0.01
			c-2.76-27.18-2.19-54.64,1.7-81.7c8.72-60.51,60.77-105.32,121.9-105.31l36.6-0.01c10.37,0,18.77-8.4,18.77-18.78v-36.58
			c-0.01-61.13,44.81-113.2,105.31-121.9c19.72-2.84,39.64-3.91,59.52-3.21c9.35,0.32,18.7,1.03,28.01,2.14
			C431.23,43.27,435.41,55.24,428.41,62.24z"/>
		<path style="fill:#FFBB16;" d="M415.46,145.188l35.778,2.382c6.665,0.444,12.349-4.711,12.629-11.385
			c0.75-17.875,0.067-35.796-2.048-53.586c-1.17-9.844-13.141-14.037-20.15-7.027l-33.634,33.634
			c-2.252,2.252-3.522,5.318-3.466,8.503c0.089,5.085,0.04,10.156-0.149,15.209C404.181,139.325,409.063,144.762,415.46,145.188z"/>
		<path style="fill:#FFBB16;" d="M378.446,239.252c-3.593,7.584-7.546,15.02-11.851,22.28c-3.258,5.495-1.564,12.584,3.831,16.005
			c9.975,6.325,19.743,14.044,27.571,20.724c5.533,4.722,14,3.413,17.78-2.802c5.87-9.651,11.204-19.538,16.002-29.615
			c2.757-5.79,0.425-12.725-5.28-15.654l-31.952-16.405C388.597,230.731,381.309,233.208,378.446,239.252z"/>
	</g>
</g>
<g>
</g>
<g>
</g>
<g>
</g>
<g>
</g>
<g>
</g>
<g>
</g>
<g>
</g>
<g>
</g>
<g>
</g>
<g>
</g>
<g>
</g>
<g>
</g>
<g>
</g>
<g>
</g>
<g>
</g>
</svg>
