<?xml version="1.0" encoding="iso-8859-1"?>
<!-- Generator: Adobe Illustrator 23.0.6, SVG Export Plug-In . SVG Version: 6.00 Build 0)  -->
<svg version="1.1" id="Capa_1" xmlns="http://www.w3.org/2000/svg" xmlns:xlink="http://www.w3.org/1999/xlink" x="0px" y="0px"
	 viewBox="0 0 512 512" style="enable-background:new 0 0 512 512;" xml:space="preserve">
<g>
	<path style="fill:#B1E4F9;" d="M512,256c0,141.38-114.62,256-256,256c-41.63,0-80.93-9.94-115.68-27.58
		c-9.44-4.78-18.54-10.14-27.26-16.01c-9.56-6.45-18.67-13.53-27.25-21.17C33.16,400.35,0,332.04,0,256S33.16,111.65,85.81,64.76
		c8.58-7.64,17.69-14.72,27.25-21.17c8.72-5.87,17.82-11.23,27.26-16.01C175.07,9.94,214.37,0,256,0C397.38,0,512,114.62,512,256z"
		/>
	<g>
		<rect x="120.3" y="132.947" style="fill:#C9394A;" width="64.741" height="64.741"/>
		
			<rect x="161.833" y="82.152" transform="matrix(-1.836970e-16 1 -1 -1.836970e-16 308.7259 -79.6814)" style="fill:#C9394A;" width="64.741" height="64.741"/>
		
			<rect x="264.847" y="82.152" transform="matrix(-1.836970e-16 1 -1 -1.836970e-16 411.7393 -182.6948)" style="fill:#C9394A;" width="64.741" height="64.741"/>
		<polygon style="fill:#C9394A;" points="367.86,82.152 367.86,146.893 432.601,132.947 432.601,82.152 		"/>
		<rect x="120.3" y="239.879" style="fill:#C9394A;" width="64.741" height="64.741"/>
		<rect x="120.3" y="346.811" style="fill:#C9394A;" width="64.741" height="64.741"/>
		<path style="fill:#D9723E;" d="M140.32,0v484.42c-9.44-4.78-18.54-10.14-27.26-16.01c-9.56-6.45-18.67-13.53-27.25-21.17V0H140.32
			z"/>
		<path style="fill:#BD5423;" d="M113.06,0v468.41c-9.56-6.45-18.67-13.53-27.25-21.17V0H113.06z"/>
		
			<rect x="226.792" y="-133.143" transform="matrix(-1.836970e-16 1 -1 -1.836970e-16 338.2309 -169.8725)" style="fill:#D9723E;" width="54.519" height="434.644"/>
		
			<rect x="244.723" y="-115.211" transform="matrix(-1.836970e-16 1 -1 -1.836970e-16 356.1623 -151.9411)" style="fill:#BD5423;" width="18.657" height="434.644"/>
		<path style="fill:#F6F1F1;" d="M466.778,132.947H161.833v304.945c0,17.705,15.812,31.347,33.29,28.522
			C348.968,441.552,470.438,320.083,495.3,166.237C498.125,148.759,484.483,132.947,466.778,132.947z"/>
		<path style="fill:#E84D59;" d="M450.774,132.947H161.833v288.941C316.561,411.324,440.209,287.676,450.774,132.947z"/>
		<path style="fill:#2F373B;" d="M354.826,189.332c-22.152-3.217-46.204,21.85-56.395,33.985c-2.289-1.943-4.88-3.541-7.686-4.685
			c10.342-4.232,17.64-14.38,17.64-26.255c0-2.007-0.216-3.972-0.605-5.872c4.059-1.663,8.528-1.922,12.825-0.951
			c4.167,0.951,9.91,1.619,12.458-0.907c4.21-4.232-6.11-23.447-24.398-23.447c-5.722,0-11.012,2.526-15.61,5.981
			c-3.908-2.029-8.334-3.173-13.041-3.173c-15.653,0-28.371,12.695-28.371,28.37c0,11.875,7.298,22.023,17.662,26.255
			c-2.829,1.144-5.398,2.742-7.686,4.685c-10.191-12.134-34.243-37.201-56.396-33.985c-29.083,4.211-21.094,104.091-10.774,104.091
			c9.306,0,13.257-44.65,13.948-53.373c-0.453,7.6-2.137,42.123,6.197,42.123c9.392,0,9.392-43.138,9.392-43.138
			s0.928,33.767,10.774,33.767c9.867,0,8.442-34.243,8.442-34.243l8.572,4.102c-0.065,0.734-0.13,1.469-0.13,2.224
			c0,9.91,5.096,28.932,12.782,41.605c-15.567,3.024-40.915,9.781-40.915,21.483c0,16.863,39.857-5.161,39.857-5.161
			s7.276,19.691,16.647,19.691c9.392,0,16.647-19.691,16.647-19.691s39.878,22.023,39.878,5.161
			c0-11.702-25.348-18.46-40.936-21.483c7.708-12.673,12.782-31.695,12.782-41.605c0-0.756-0.043-1.491-0.108-2.224l8.55-4.102
			c0,0-1.404,34.243,8.442,34.243c9.846,0,10.795-33.767,10.795-33.767s0,43.138,9.371,43.138c8.377,0,6.671-34.717,6.196-42.188
			c0.691,8.528,4.642,53.438,13.969,53.438C375.92,293.423,383.887,193.543,354.826,189.332z M271.421,281.461
			c-2.656,0-4.815-7.082-4.815-15.826c0-8.723,2.159-15.826,4.815-15.826c2.677,0,4.836,7.104,4.836,15.826
			C276.257,274.379,274.098,281.461,271.421,281.461z M271.377,189.031c0-4.772,3.865-8.636,8.636-8.636
			c4.793,0,8.658,3.865,8.658,8.636c0,4.793-3.865,8.657-8.658,8.657C275.242,197.688,271.377,193.823,271.377,189.031z
			 M288.607,281.461c-2.656,0-4.815-7.082-4.815-15.826c0-8.723,2.159-15.826,4.815-15.826c2.677,0,4.836,7.104,4.836,15.826
			C293.443,274.379,291.284,281.461,288.607,281.461z"/>
	</g>
</g>
<g>
</g>
<g>
</g>
<g>
</g>
<g>
</g>
<g>
</g>
<g>
</g>
<g>
</g>
<g>
</g>
<g>
</g>
<g>
</g>
<g>
</g>
<g>
</g>
<g>
</g>
<g>
</g>
<g>
</g>
</svg>
