<?xml version="1.0" encoding="iso-8859-1"?>
<!-- Generator: Adobe Illustrator 23.0.6, SVG Export Plug-In . SVG Version: 6.00 Build 0)  -->
<svg version="1.1" id="Capa_1" xmlns="http://www.w3.org/2000/svg" xmlns:xlink="http://www.w3.org/1999/xlink" x="0px" y="0px"
	 viewBox="0 0 512 512" style="enable-background:new 0 0 512 512;" xml:space="preserve">
<g>
	<path style="fill:#80B4FB;" d="M512,256c0,141.38-114.62,256-256,256c-28.14,0-55.23-4.54-80.56-12.94
		c-46.03-15.24-86.27-43.2-116.56-79.72c-11.01-13.27-20.7-27.67-28.88-42.99C10.85,340.47,0,299.5,0,256C0,114.62,114.62,0,256,0
		S512,114.62,512,256z"/>
	<g>
		<path style="fill:#D0E2E7;" d="M289.261,355.479L184.946,251.165L429.401,6.71c12.155-12.155,32.901-7.061,38.003,9.354
			c23.222,74.714,3.78,157.49-52.923,214.194L289.261,355.479z"/>
		<path style="fill:#F6F1F1;" d="M414.482,230.257L289.261,355.479l-32.032-32.032l125.222-125.222
			c52.51-52.51,73.072-127.378,57.36-197.495c11.186-2.899,23.773,3.041,27.598,15.337
			C490.631,90.781,471.185,173.555,414.482,230.257z"/>
		<path style="fill:#D9723E;" d="M280.44,394.06l-105,105C112.68,478.28,60.69,433.86,30,376.35l116.37-116.37
			c20.67-20.67,54.2-20.67,74.87,0l59.2,59.2C301.12,339.86,301.12,373.38,280.44,394.06z"/>
		<path style="fill:#BD5423;" d="M257.18,295.92c-20.68-20.67-54.2-20.68-74.88,0L58.88,419.34c-11.01-13.27-20.7-27.67-28.88-42.99
			l116.37-116.37c20.68-20.67,54.19-20.67,74.87,0L257.18,295.92z"/>
		<g>
			<path style="fill:#A0380E;" d="M293.457,375.988l-83.765-45.254l-45.254-83.765c-3.28-6.079-10.866-8.338-16.939-5.056
				c-6.074,3.281-8.338,10.865-5.056,16.938l27.123,50.205l-50.205-27.123c-6.073-3.282-13.657-1.018-16.939,5.056
				c-2.69,4.979-1.654,10.972,2.153,14.779c0.837,0.837,1.808,1.568,2.903,2.16l83.765,45.253l45.254,83.765
				c0.591,1.095,1.323,2.066,2.16,2.903c3.806,3.806,9.801,4.843,14.779,2.153c6.074-3.282,8.338-10.865,5.056-16.939L231.37,370.86
				l50.205,27.123c6.073,3.282,13.657,1.018,16.939-5.056C301.795,386.854,299.53,379.27,293.457,375.988z"/>
			<path style="fill:#A0380E;" d="M231.877,437.568l-83.765-45.253l-45.254-83.765c-3.28-6.08-10.865-8.338-16.939-5.056
				c-6.074,3.281-8.338,10.865-5.056,16.938l27.123,50.205l-50.205-27.123c-6.073-3.282-13.657-1.018-16.939,5.056
				c-2.69,4.979-1.654,10.972,2.153,14.779c0.837,0.837,1.808,1.568,2.903,2.16l83.765,45.253l45.254,83.765
				c0.591,1.095,1.323,2.066,2.16,2.903c3.806,3.806,9.801,4.843,14.779,2.153c6.074-3.282,8.338-10.865,5.056-16.939L169.79,432.44
				l50.204,27.123c6.074,3.282,13.657,1.018,16.939-5.056C240.215,448.434,237.951,440.849,231.877,437.568z"/>
		</g>
	</g>
</g>
<g>
</g>
<g>
</g>
<g>
</g>
<g>
</g>
<g>
</g>
<g>
</g>
<g>
</g>
<g>
</g>
<g>
</g>
<g>
</g>
<g>
</g>
<g>
</g>
<g>
</g>
<g>
</g>
<g>
</g>
</svg>
