<?xml version="1.0" encoding="iso-8859-1"?>
<!-- Generator: Adobe Illustrator 23.0.6, SVG Export Plug-In . SVG Version: 6.00 Build 0)  -->
<svg version="1.1" id="Capa_1" xmlns="http://www.w3.org/2000/svg" xmlns:xlink="http://www.w3.org/1999/xlink" x="0px" y="0px"
	 viewBox="0 0 512 512" style="enable-background:new 0 0 512 512;" xml:space="preserve">
<g>
	<path style="fill:#6EC17D;" d="M512,256c0,10.24-0.6,20.34-1.77,30.26c-0.57,4.83-1.27,9.62-2.11,14.36
		c-2.67,15.2-6.68,29.93-11.91,44.07C460.14,442.36,366.2,512,256,512c-72.33,0-137.65-30-184.21-78.23
		c-12.91-13.37-24.37-28.15-34.14-44.07c-13.68-22.29-24.04-46.83-30.39-72.95c-3.1-12.7-5.25-25.78-6.35-39.16v-0.02
		C0.3,270.46,0,263.26,0,256C0,114.62,114.62,0,256,0c138.51,0,251.33,110.01,255.85,247.42C511.95,250.27,512,253.13,512,256z"/>
	<g>
		<path style="fill:#F6F1F1;" d="M322.524,31.56l0.261,60.747l-61.357-5.919L218.904,32.77l87.852-14.506
			C314.982,16.906,322.473,23.223,322.524,31.56z"/>
		<path style="fill:#D0E2E7;" d="M322.786,85.791v11.294l-103.882,15.747L173.99,89.266l4.267-72.395
			c0.609-8.201,9.665-12.867,16.696-8.602L322.786,85.791z"/>
		<path style="fill:#D9723E;" d="M512,256c0,15.22-1.33,30.13-3.88,44.62H166.04c-15.64,0-27.66-13.85-25.46-29.33l17.62-124.12
			l7.37-51.94c2.33-16.42,16.38-28.62,32.96-28.62h99.3c14.3,0,27.01,9.14,31.56,22.7l23.53,70.1
			c3.75,11.16,12.31,20.05,23.33,24.19l91.16,34.3c15.15,5.7,28.81,14.37,40.28,25.33c1.42,1.36,2.81,2.76,4.16,4.19
			C511.95,250.27,512,253.13,512,256z"/>
		<path style="fill:#BD5423;" d="M186.58,271.289l29.047-204.677h-17.1c-16.579,0-30.631,12.199-32.96,28.613L140.58,271.289
			c-2.198,15.485,9.821,29.33,25.461,29.33h46C196.401,300.619,184.382,286.774,186.58,271.289z"/>
		<path style="fill:#2F373B;" d="M508.12,300.62c-2.67,15.2-6.68,29.93-11.91,44.07H151.94c-6.27,0-11.36-5.08-11.36-11.35v-54.77
			c1.75,12.29,12.33,22.05,25.46,22.05H508.12z"/>
		<path style="fill:#BD5423;" d="M510.23,286.26c-0.57,4.83-1.27,9.62-2.11,14.36H166.04c-15.64,0-27.66-13.85-25.46-29.33
			l17.62-124.12l45.76,1.66c-4.48,31.57,42.63,137.43,199.99,137.43H510.23z"/>
	</g>
	<g>
		<path style="fill:#F6F1F1;" d="M171.105,120.641l0.261,60.747l-61.357-5.919l-42.525-53.618l87.852-14.506
			C163.562,105.987,171.054,112.304,171.105,120.641z"/>
		<path style="fill:#D0E2E7;" d="M171.366,174.873v11.294L67.484,201.913L22.57,178.348l4.267-72.395
			c0.609-8.201,9.665-12.867,16.696-8.602L171.366,174.873z"/>
		<path style="fill:#D9723E;" d="M371.33,389.7H37.65c-13.68-22.29-24.04-46.83-30.39-72.95c-3.1-12.7-5.25-25.78-6.35-39.16v-0.02
			l13.24-93.26c2.33-16.42,16.38-28.62,32.96-28.62h99.3c14.3,0,27.01,9.14,31.56,22.7l23.53,70.11
			c3.75,11.16,12.31,20.04,23.33,24.18l91.16,34.3c15.15,5.7,28.81,14.37,40.28,25.33c11.33,10.83,20.52,23.9,26.88,38.57
			c0.09,0.17,0.16,0.35,0.24,0.53C387.1,380.07,380.75,389.7,371.33,389.7z"/>
		<path style="fill:#BD5423;" d="M60.62,389.7H37.65c-13.68-22.29-24.04-46.83-30.39-72.95c-3.1-12.7-5.25-25.78-6.35-39.16
			l13.24-93.28c2.33-16.42,16.38-28.62,32.96-28.62h17.1L35.16,360.37C32.96,375.86,44.98,389.7,60.62,389.7z"/>
		<path style="fill:#2F373B;" d="M384.34,378.34l-0.32,44.15c-0.08,6.22-5.14,11.21-11.36,11.21l-300.87,0.07
			c-12.91-13.37-24.37-28.15-34.14-44.07h333.68C378.24,389.7,383.49,384.52,384.34,378.34L384.34,378.34z"/>
		<path style="fill:#A0380E;" d="M254.628,283.893l-93.733,35.124c-10.705,4.011-22.766,1.397-30.849-6.686l-22.88-22.88
			c-12.388-12.388-11.132-32.827,2.68-43.605l71.922-56.123l19.73,58.77c3.75,11.16,12.32,20.05,23.33,24.19L254.628,283.893z"/>
		<path style="fill:#F6F1F1;" d="M92.852,333.738l-18-24l49.784-37.338c6.627-4.971,16.029-3.627,21,3l0,0
			c4.971,6.627,3.627,16.029-3,21L92.852,333.738z"/>
		<path style="fill:#BD5423;" d="M371.33,389.7H37.65c-13.68-22.29-24.04-46.83-30.39-72.95l31.68,16.99
			c-3.78,26.63,17.12,37.14,72.8,37.14h271.41c0.09,0.17,0.16,0.35,0.24,0.53C387.1,380.07,380.75,389.7,371.33,389.7z"/>
	</g>
</g>
<g>
</g>
<g>
</g>
<g>
</g>
<g>
</g>
<g>
</g>
<g>
</g>
<g>
</g>
<g>
</g>
<g>
</g>
<g>
</g>
<g>
</g>
<g>
</g>
<g>
</g>
<g>
</g>
<g>
</g>
</svg>
