<?xml version="1.0" encoding="iso-8859-1"?>
<!-- Generator: Adobe Illustrator 23.0.6, SVG Export Plug-In . SVG Version: 6.00 Build 0)  -->
<svg version="1.1" id="Capa_1" xmlns="http://www.w3.org/2000/svg" xmlns:xlink="http://www.w3.org/1999/xlink" x="0px" y="0px"
	 viewBox="0 0 512 512" style="enable-background:new 0 0 512 512;" xml:space="preserve">
<g>
	<path style="fill:#FFBB16;" d="M512,256c0,141.38-114.62,256-256,256c-9.38,0-18.63-0.5-27.75-1.49
		c-50.63-5.46-96.85-25.69-134.25-56.29c-2.73-2.229-5.41-4.52-8.04-6.86c-0.11-0.09-0.21-0.19-0.31-0.28
		c-2.33-2.07-4.62-4.19-6.87-6.36c-0.22-0.2-0.44-0.42-0.66-0.63c-2.11-2.03-4.18-4.1-6.21-6.21c-0.21-0.21-0.42-0.43-0.63-0.65
		c-2.16-2.25-4.28-4.54-6.36-6.87c-0.09-0.11-0.19-0.21-0.28-0.32c-2.34-2.63-4.63-5.31-6.85-8.04
		c-22.98-28.07-40.11-61.11-49.53-97.27c-3.13-12-5.41-24.35-6.77-36.97c-0.01-0.01-0.01-0.01,0-0.01C0.5,274.63,0,265.38,0,256
		C0,114.62,114.62,0,256,0c16.2,0,32.04,1.51,47.4,4.39c0,0,0,0,0.01,0c13.45,2.52,26.52,6.08,39.14,10.62
		c84.38,30.3,148.23,103.67,165.06,193.59C510.5,223.96,512,239.8,512,256z"/>
	<g>
		<path style="fill:#D9723E;" d="M455.33,56.68C411.36,12.71,357.7-10.19,303.41,4.39C278.2,11.16,252.87,26,228.3,50.57
			c-25.93,25.93-44.37,56.05-55.02,87.07c-9.16,26.68-30.21,47.74-56.89,56.9c-31.03,10.65-61.15,29.09-87.08,55.02
			c-11.27,11.27-20.49,22.69-27.82,34.2c12.85,119.21,107.55,213.9,226.76,226.75c11.5-7.33,22.93-16.55,34.2-27.82
			c25.92-25.93,44.36-56.05,55.01-87.07c9.16-26.69,30.22-47.74,56.9-56.9c31.02-10.65,61.15-29.09,87.07-55.01
			c24.57-24.57,39.42-49.91,46.18-75.11C522.2,154.31,499.29,100.65,455.33,56.68z M410.6,256.24
			c-27.27,27.27-61.33,44.04-95.93,47.24c-31.95,2.95-60.41-6.29-80.14-26.01c-19.72-19.729-28.96-48.19-26-80.14
			c3.19-34.59,19.97-68.66,47.24-95.92c24.56-24.57,50.14-35.96,76.01-33.86c24.24,1.96,49.6,15.56,73.36,39.32
			c23.75,23.75,37.35,49.12,39.31,73.35C446.55,206.09,435.17,231.67,410.6,256.24z"/>
		<path style="fill:#BD5423;" d="M303.41,4.39c-0.01,0-0.01,0-0.01,0c-25.2,6.77-50.54,21.62-75.1,46.18
			c-25.93,25.92-44.36,56.05-55.02,87.07c-9.16,26.68-30.21,47.74-56.89,56.9c-31.03,10.65-61.15,29.09-87.08,55.01
			c-11.27,11.27-20.49,22.69-27.82,34.2c-0.01,0-0.01,0,0,0.01c1.36,12.62,3.64,24.97,6.77,36.97c9.02-17.3,22.08-34.89,39.71-52.52
			c25.92-25.93,55.11-45.3,84.51-57.58c25.27-10.56,46.33-31.62,56.89-56.9c12.28-29.39,31.65-58.58,57.58-84.51
			c32.53-32.53,64.94-49.49,95.6-54.21c41.25-6.36,79.32,9.42,110.25,39.19C409.31,11.85,356.66-9.92,303.41,4.39z"/>
		<path style="fill:#A0380E;" d="M201.475,413.467l-102.94-102.94c-6.1-6.1-15.991-6.1-22.091,0l-7.515,7.515
			c-6.1,6.1-6.1,15.991,0,22.091l102.94,102.94c6.1,6.1,15.991,6.1,22.091,0l7.515-7.515
			C207.576,429.458,207.576,419.568,201.475,413.467z"/>
		<circle style="fill:#A0380E;" cx="324.538" cy="34.418" r="18.952"/>
		<circle style="fill:#A0380E;" cx="380.816" cy="49.231" r="18.952"/>
		<circle style="fill:#A0380E;" cx="426.791" cy="85.212" r="18.952"/>
		<path style="fill:#F6F1F1;" d="M328.92,37.39L67.53,422.52l-2.61,3.84c-0.09-0.11-0.19-0.21-0.28-0.32
			c-2.34-2.63-4.63-5.31-6.85-8.04L320.15,31.44c1.65-2.42,4.94-3.05,7.36-1.41C329.94,31.67,330.57,34.97,328.92,37.39z"/>
		<path style="fill:#F6F1F1;" d="M384.91,52.59L77.81,426.7l-5.9,7.18c-0.21-0.21-0.42-0.43-0.63-0.65
			c-2.16-2.25-4.28-4.54-6.36-6.87c-0.09-0.11-0.19-0.21-0.28-0.32l2.89-3.52L376.72,45.87c1.86-2.27,5.2-2.59,7.46-0.74
			C386.45,47,386.77,50.33,384.91,52.59z"/>
		<path style="fill:#F6F1F1;" d="M430.54,88.96L85.31,434.19l-6.53,6.53c-0.22-0.2-0.44-0.42-0.66-0.63
			c-2.11-2.03-4.18-4.1-6.21-6.21c-0.21-0.21-0.42-0.43-0.63-0.65l6.53-6.53L423.04,81.46c2.07-2.07,5.43-2.07,7.5,0
			C432.61,83.53,432.61,86.89,430.54,88.96z"/>
		<circle style="fill:#A0380E;" cx="477.585" cy="187.464" r="18.952"/>
		<circle style="fill:#A0380E;" cx="462.772" cy="131.187" r="18.952"/>
		<path style="fill:#F6F1F1;" d="M480.56,191.85L94,454.22c-2.73-2.229-5.41-4.52-8.04-6.86c-0.11-0.09-0.21-0.19-0.31-0.28
			l3.76-2.55l385.2-261.45c2.42-1.65,5.72-1.02,7.36,1.41C483.61,186.91,482.98,190.21,480.56,191.85z"/>
		<path style="fill:#F6F1F1;" d="M466.14,135.28L89.41,444.53l-3.45,2.83c-0.11-0.09-0.21-0.19-0.31-0.28
			c-2.33-2.07-4.62-4.19-6.87-6.36c-0.22-0.2-0.44-0.42-0.66-0.63l7.19-5.9l374.1-307.1c2.26-1.86,5.61-1.53,7.46,0.73
			C468.73,130.09,468.4,133.43,466.14,135.28z"/>
	</g>
</g>
<g>
</g>
<g>
</g>
<g>
</g>
<g>
</g>
<g>
</g>
<g>
</g>
<g>
</g>
<g>
</g>
<g>
</g>
<g>
</g>
<g>
</g>
<g>
</g>
<g>
</g>
<g>
</g>
<g>
</g>
</svg>
