<?xml version="1.0" encoding="iso-8859-1"?>
<!-- Generator: Adobe Illustrator 23.0.6, SVG Export Plug-In . SVG Version: 6.00 Build 0)  -->
<svg version="1.1" id="Capa_1" xmlns="http://www.w3.org/2000/svg" xmlns:xlink="http://www.w3.org/1999/xlink" x="0px" y="0px"
	 viewBox="0 0 512 512" style="enable-background:new 0 0 512 512;" xml:space="preserve">
<g>
	<path style="fill:#80B4FB;" d="M512,256c0,68.46-26.88,130.65-70.66,176.58c-43.82,45.99-104.59,75.69-172.29,79.09
		c-4.32,0.22-8.67,0.33-13.05,0.33c-5.76,0-11.47-0.19-17.13-0.56c-6.38-0.43-12.7-1.08-18.95-1.97
		c-10.48-1.47-20.75-3.58-30.77-6.29c-11.33-3.06-22.36-6.87-33.01-11.4c-8.85-3.75-17.45-7.99-25.76-12.68
		c-14.8-8.35-28.69-18.13-41.47-29.16c-13.46-11.6-25.7-24.58-36.49-38.73c-6.92-9.05-13.24-18.58-18.92-28.53
		c-3.02-5.29-5.86-10.7-8.5-16.22C10.48,336.17,1.76,302.6,0.23,267.15c0-0.01,0-0.01,0-0.01C0.08,263.45,0,259.73,0,256
		C0,114.62,114.62,0,256,0S512,114.62,512,256z"/>
	<path style="fill:#181E21;" d="M269.05,511.67c-4.32,0.22-8.67,0.33-13.05,0.33c-5.76,0-11.47-0.19-17.13-0.56l-12.63-126.83
		l29.86-2.98L269.05,511.67z"/>
	<path style="fill:#181E21;" d="M219.92,509.47c-10.48-1.47-20.75-3.58-30.77-6.29l-11.81-118.57l29.85-2.98L219.92,509.47z"/>
	<path style="fill:#2F373B;" d="M512,115.87H372.35l-0.57-2.35l-5.76-23.58l-9.08-37.24c14.01,0,27.96,0.84,41.41,2.42
		C460.38,62.41,512,85.56,512,115.87z"/>
	<path style="fill:#2F373B;" d="M383.46,106.03c0,0.157-0.152,0.308-0.431,0.454c-13.015,6.806-19.816,21.598-18.551,36.231
		l9.392,108.605c-4.57,68.04-52.59,125.31-118.79,141.69c-35.82,8.87-68.1,26.64-94.29,50.97c-11.35,10.54-21.56,22.31-30.41,35.12
		C84.71,453.34,47.75,413.96,25,366.46l57.52-143.43c23.79-59.31,63.84-110.7,115.55-148.24l51.19-37.16
		c24.09-17.49,55.57-20.99,82.87-9.33c0.66,0.28,1.32,0.57,1.98,0.87C364.32,43.01,383.46,73.15,383.46,106.03z"/>
	<circle style="fill:#181E21;" cx="336.741" cy="71.127" r="18.424"/>
	<path style="fill:#434D51;" d="M512,115.87H399.47l-27.69-2.35l-15.605-1.323c-5.245-0.445-9.275-4.831-9.275-10.095v0
		c0-4.819,3.394-8.97,8.116-9.929l11.004-2.233l4.386-0.891c14.072-2.86,24.876-14.178,27.08-28.368l0.864-5.561
		C460.38,62.41,512,85.56,512,115.87z"/>
	<path style="fill:#181E21;" d="M332.13,28.3C288.73,14.59,99.79,276.72,88.91,449.94C62.25,426.96,40.38,398.57,25,366.46
		l57.52-143.43c23.79-59.31,63.84-110.7,115.55-148.24l51.19-37.16C273.35,20.14,304.83,16.64,332.13,28.3z"/>
	<path style="fill:#434D51;" d="M241.17,157.9c0,33.27-11.58,65.48-32.76,91.14c-48.06,58.2-134.33,159.31-155.99,162.17
		c-6.92-9.05-13.24-18.58-18.92-28.53c-3.02-5.29-5.86-10.7-8.5-16.22C10.48,336.17,1.76,302.6,0.23,267.15c0-0.01,0-0.01,0-0.01
		c45.71-72.81,103.89-123.46,151.63-156.3c23.58-16.23,52.48-11.76,70.9,5.02c0,0.01,0.01,0.01,0.01,0.01
		C233.88,126.01,241.17,140.63,241.17,157.9z"/>
	<path style="fill:#2F373B;" d="M222.76,115.86C190.03,93.77,40.68,256.42,33.5,382.68c-3.02-5.29-5.86-10.7-8.5-16.22
		c-14.52-30.29-23.24-63.87-24.77-99.32c45.71-72.81,103.89-123.46,151.63-156.3C175.44,94.61,204.34,99.08,222.76,115.86z"/>
	<path style="fill:#F6F1F1;" d="M441.34,432.58c-43.82,45.99-104.59,75.69-172.29,79.09c-4.32,0.22-8.67,0.33-13.05,0.33
		c-5.76,0-11.47-0.19-17.13-0.56c-6.38-0.43-12.7-1.08-18.95-1.97c-10.48-1.47-20.75-3.58-30.77-6.29
		c-11.33-3.06-22.36-6.87-33.01-11.4l231.478-94.07c11.027-4.481,23.082,3.632,23.082,15.535v0c0,8.188,5.914,15.179,13.989,16.536
		L441.34,432.58z"/>
</g>
<g>
</g>
<g>
</g>
<g>
</g>
<g>
</g>
<g>
</g>
<g>
</g>
<g>
</g>
<g>
</g>
<g>
</g>
<g>
</g>
<g>
</g>
<g>
</g>
<g>
</g>
<g>
</g>
<g>
</g>
</svg>
