<?xml version="1.0" encoding="iso-8859-1"?>
<!-- Generator: Adobe Illustrator 23.0.6, SVG Export Plug-In . SVG Version: 6.00 Build 0)  -->
<svg version="1.1" id="Capa_1" xmlns="http://www.w3.org/2000/svg" xmlns:xlink="http://www.w3.org/1999/xlink" x="0px" y="0px"
	 viewBox="0 0 512 512" style="enable-background:new 0 0 512 512;" xml:space="preserve">
<g>
	<path style="fill:#B1E4F9;" d="M512,256c0,9.05-0.47,17.99-1.39,26.79c-10.1,97.14-74.53,178.15-162.37,212.08
		C319.62,505.93,288.52,512,256,512c-68.18,0-130.13-26.66-176.01-70.1c-43.17-40.89-72.11-96.67-78.6-159.11
		C0.47,273.99,0,265.05,0,256c0-40.22,9.28-78.27,25.81-112.13c13.33-27.33,31.39-51.93,53.1-72.74C124.9,27.08,187.29,0,256,0
		c35.15,0,68.64,7.08,99.13,19.91c15.46,6.49,30.14,14.46,43.88,23.73C467.17,89.64,512,167.59,512,256z"/>
	<path style="fill:#80B4FB;" d="M510.61,282.79c-10.1,97.14-74.53,178.15-162.37,212.08C319.62,505.93,288.52,512,256,512
		c-68.18,0-130.13-26.66-176.01-70.1c-43.17-40.89-72.11-96.67-78.6-159.11H510.61z"/>
	<g>
		<path style="fill:#D9723E;" d="M469.36,249.98c-1.04,2.03-2.34,3.95-3.92,5.76c-16.88,19.28-40.74,32.37-61.07,40.79
			c-2.42,1.01-4.8,1.95-7.1,2.82c-15.84,5.99-33.26-3.32-37.36-19.75c-2.37-9.4-5.62-18.94-9.5-28.02
			c-5.93,2.17-12.47,3.05-19.3,2.34c-18.64-1.98-34.07-16.25-37.5-34.69c-1.19-6.36-0.9-12.49,0.5-18.19c-3,2.74-5.66,7-7.85,13.06
			c-20.06,55.18,64.5,125.39,64.5,239.81c0,13.87-0.85,27.54-2.52,40.96C319.62,505.93,288.52,512,256,512
			c-3.95,0-7.87-0.09-11.78-0.27c-63.52-2.87-121.01-28.91-164.23-69.83c13.66-0.98,27.3-2.3,40.91-3.95
			c40.58-4.9,80.91-12.79,120.62-23.65c0-57.68-137.22-230.29-68.12-325.88c57.27-79.18,163.01-51.15,163.01-51.15l18.72-17.36
			l7.59-7.04l10.06-9.34c7.87-7.28,20.69-2.65,22.07,7.99l4.16,32.12l2.59,20.01c30.17,13.83,38.91,47.37,40.12,77.36
			c1.22,29.85-5.01,56.22-5.01,56.22l23.77,16.82c1.35,0.94,2.58,1.98,3.68,3.1C472.86,225.82,474.89,239.17,469.36,249.98z"/>
		<path style="fill:#BD5423;" d="M261.55,347.61c21.01,46.75,23.87,102.25-17.33,164.12c-63.52-2.87-121.01-28.91-164.23-69.83
			c13.66-0.98,27.3-2.3,40.91-3.95c40.58-4.9,80.91-12.79,120.62-23.65c0-57.68-137.22-230.29-68.12-325.88
			c57.27-79.18,163.01-51.15,163.01-51.15C90.81,53.16,239.12,297.68,261.55,347.61z"/>
		<path style="fill:#BD5423;" d="M357.914,129.67c-5.519-5.519-14.916-3.95-18.2,3.131c-7.521,16.217-4.593,36.084,8.782,49.46
			s33.243,16.303,49.46,8.782c7.081-3.284,8.65-12.68,3.131-18.2L357.914,129.67z"/>
		<circle style="fill:#BD5423;" cx="429.602" cy="256.251" r="14.98"/>
	</g>
	<path style="fill:#BD5423;" d="M355.788,45.104l17.869-15.266c3.496-2.987,8.844-0.153,8.336,4.417l-2.285,20.562
		c-0.446,4.01-4.43,6.624-8.286,5.437l-13.349-4.111C353.227,54.649,351.933,48.398,355.788,45.104z"/>
	<circle style="fill:#D9723E;" cx="380.032" cy="164.074" r="11.994"/>
	<path style="fill:#BD5423;" d="M404.37,296.53c-2.42,1.01-4.8,1.95-7.1,2.82c-15.84,5.99-33.26-3.32-37.36-19.75
		c-2.37-9.4-5.62-18.94-9.5-28.02c-5.93,2.17-12.47,3.05-19.3,2.34c-18.64-1.98-34.07-16.25-37.5-34.69
		c-1.19-6.36-0.9-12.49,0.5-18.19c5.51-15.93,24.14-24.97,24.14-24.97s-12.22,28.68,4.89,45.78c17.1,17.11,38.06,9.78,38.06,9.78
		S368.87,284.27,404.37,296.53z"/>
	<g>
		<path style="fill:#F6F1F1;" d="M244.35,423.32c0,33.62-15.27,63.68-39.25,83.62c-47.9-9.67-90.96-32.7-125.11-65.04
			c-17.86-16.92-33.29-36.38-45.69-57.82c15.73-40.63,55.19-69.44,101.37-69.44C195.69,314.64,244.35,363.3,244.35,423.32z"/>
		<path style="fill:#BD5423;" d="M212.82,423.32c0,32.54-20.14,60.37-48.63,71.71c-31.55-12.12-60.1-30.3-84.2-53.13
			c-7.57-7.17-14.7-14.8-21.35-22.85c2.21-40.62,35.85-72.88,77.03-72.88C178.28,346.17,212.82,380.71,212.82,423.32z"/>
		<circle style="fill:#F6F1F1;" cx="135.668" cy="423.32" r="30.214"/>
	</g>
	<path style="fill:#F6F1F1;" d="M139.33,89.31c0,10.05-8.15,18.19-18.19,18.19H86.85c10.04,0,18.19,8.14,18.19,18.19
		c0,10.04-8.15,18.18-18.19,18.18H25.81c13.33-27.33,31.39-51.93,53.1-72.74h42.23c5.02,0,9.57,2.03,12.86,5.33
		C137.29,79.74,139.33,84.29,139.33,89.31z"/>
</g>
<g>
</g>
<g>
</g>
<g>
</g>
<g>
</g>
<g>
</g>
<g>
</g>
<g>
</g>
<g>
</g>
<g>
</g>
<g>
</g>
<g>
</g>
<g>
</g>
<g>
</g>
<g>
</g>
<g>
</g>
</svg>
