<?xml version="1.0" encoding="iso-8859-1"?>
<!-- Generator: Adobe Illustrator 23.0.6, SVG Export Plug-In . SVG Version: 6.00 Build 0)  -->
<svg version="1.1" id="Capa_1" xmlns="http://www.w3.org/2000/svg" xmlns:xlink="http://www.w3.org/1999/xlink" x="0px" y="0px"
	 viewBox="0 0 512 512" style="enable-background:new 0 0 512 512;" xml:space="preserve">
<g>
	<circle style="fill:#E84D59;" cx="256" cy="256" r="256"/>
	<g>
		<path style="fill:#2F373B;" d="M410.689,256.51l-154.694-12.18l-154.694,12.18c0,53.632-110.206,141.648,42.186,197.024
			c73.853,26.836,102.547,31.085,112.508,28.336c9.961,2.749,38.655-1.5,112.508-28.336
			C520.895,398.158,410.689,310.142,410.689,256.51z"/>
		<g>
			<path style="fill:#FFBB16;" d="M143.864,294.777C70.526,277.279,29.353,209.817,34.96,188.881
				c5.523-20.581,26.877-12.582,27.603-12.302l-0.373-0.27c-4.377-3.232-43.929-33.536-32.083-65.609
				c12.312-33.331,31.757-11.874,32.455-11.092c0.009,0.009,0.019,0.019,0.019,0.019c0-0.009-0.009-0.009-0.009-0.019
				c-0.559-1.164-28.488-60.301,4.6-74.158c25.219-10.561,39.477,98.772,49.88,170.928c2.608,18.113,4.973,33.88,7.208,44.813
				c0.661,3.232,1.304,6.035,1.946,8.363L143.864,294.777z"/>
			<path style="fill:#FFBB16;" d="M385.797,249.55c11.442-41.596,25.614-238.097,59.033-224.099s4.592,74.175,4.592,74.175
				s19.931-22.858,32.469,11.074c12.538,33.932-32.469,65.888-32.469,65.888s22.003-8.639,27.614,12.293
				S441.472,277.28,368.14,294.782"/>
		</g>
		<path style="fill:#FF931F;" d="M151.203,269.791c-0.447-0.475-12.069-12.842-26.942-28.6
			c-22.071-23.375-51.286-54.201-61.679-64.603l-0.019-0.009l-0.373-0.27c-4.377-3.232-43.929-33.536-32.083-65.609
			c12.312-33.331,31.757-11.874,32.455-11.092h0.009c0,0.009,0.009,0.009,0.009,0.019c17.443,24.465,37.717,62.703,54.471,96.751
			C136.367,235.641,150.998,269.307,151.203,269.791z"/>
		<path style="fill:#FF931F;" d="M360.792,269.791c0.447-0.475,12.069-12.842,26.942-28.6
			c22.071-23.375,51.286-54.201,61.679-64.603l0.019-0.009l0.373-0.27c4.377-3.232,43.929-33.536,32.083-65.609
			c-12.312-33.331-31.757-11.874-32.455-11.092h-0.009c0,0.009-0.009,0.009-0.009,0.019c-17.443,24.465-37.717,62.703-54.471,96.751
			C375.627,235.641,360.997,269.307,360.792,269.791z"/>
		<path style="fill:#F6F1F1;" d="M398.41,468.76c-12.34,8.28-25.44,15.52-39.18,21.57c-10.65,4.7-21.68,8.7-33.03,11.92
			C303.9,508.6,280.35,512,256,512c-24.34,0-47.89-3.4-70.2-9.74c-7.24-2.06-14.36-4.44-21.33-7.12c-0.43-0.16-0.86-0.32-1.29-0.49
			c-3.51-1.36-6.98-2.81-10.41-4.32c-13.74-6.06-26.84-13.29-39.19-21.58c10.39-14.37,23.76-26.43,39.19-35.32
			c10.2-5.87,21.3-10.34,33.03-13.15c1.81-0.44,3.64-0.84,5.48-1.19c3.47-0.68,7-1.2,10.57-1.57c1.03-0.11,2.05-0.21,3.09-0.29
			c3.38-0.28,6.8-0.42,10.26-0.42h81.59c4.52,0,8.97,0.24,13.35,0.7c3.57,0.37,7.09,0.9,10.57,1.56c1.39,0.27,2.77,0.56,4.14,0.87
			c0.45,0.12,0.91,0.21,1.35,0.33c11.74,2.82,22.83,7.29,33.03,13.16C374.66,442.33,388.02,454.39,398.41,468.76z"/>
		<path style="fill:#D0E2E7;" d="M215.2,416.81c-29.36,0-49.26,42.43-50.73,78.33c-0.43-0.16-0.86-0.32-1.29-0.49
			c-3.51-1.36-6.98-2.81-10.41-4.32c-13.74-6.06-26.84-13.29-39.19-21.58c10.39-14.37,23.76-26.43,39.19-35.32
			c10.2-5.87,21.3-10.34,33.03-13.15c1.81-0.44,3.64-0.84,5.48-1.19c3.47-0.68,7-1.2,10.57-1.57c1.03-0.11,2.05-0.21,3.09-0.29
			C208.32,416.95,211.74,416.81,215.2,416.81z"/>
		<path style="fill:#EFB29A;" d="M300.706,368.538v54.869c0,20.088-13.245,37.067-31.489,42.707
			c-4.176,1.296-8.627,1.997-13.23,1.997c-24.691,0-44.703-20.012-44.703-44.703v-54.869H300.706z"/>
		<path style="fill:#F9C5AC;" d="M300.706,419.932v3.475c0,20.088-13.245,37.067-31.489,42.707
			c-16.461-5.06-28.837-19.372-31.123-36.884c2.987,0.183,5.99,0.274,9.008,0.274c8.459,0,16.75-0.671,24.828-1.997
			C281.883,425.907,291.5,423.346,300.706,419.932z"/>
		<path style="fill:#F9C5AC;" d="M410.7,199.66v56.85c0,76.99-56.24,140.85-129.88,152.71c-1.97,0.32-3.96,0.61-5.96,0.85
			c-5.97,0.74-12.04,1.12-18.2,1.14c-85.45,0.36-155.37-70.64-155.37-156.09v-55.46c0-0.75,0.01-1.5,0.02-2.25
			c1.2-81.63,67.74-147.43,149.66-147.43h10.05c35.55,0,68.2,12.39,93.88,33.09C388.93,110.51,410.7,152.54,410.7,199.66z"/>
		<path style="fill:#EFB29A;" d="M274.86,410.07c-5.97,0.74-12.04,1.12-18.2,1.14c-85.45,0.36-155.37-70.64-155.37-156.09v-55.46
			c0-0.75,0.01-1.5,0.02-2.25l53.9-98.4v159.11C155.21,331.83,206.22,393.6,274.86,410.07z"/>
		<g>
			<circle style="fill:#EFB29A;" cx="341.181" cy="296.496" r="19.082"/>
			<circle style="fill:#EFB29A;" cx="170.805" cy="296.496" r="19.082"/>
		</g>
		<path style="fill:#EFB29A;" d="M273.377,297.923h-34.757c-4.14,0-7.497-3.356-7.497-7.496l0,0c0-4.14,3.356-7.497,7.497-7.497
			h34.757c4.14,0,7.497,3.356,7.497,7.497l0,0C280.874,294.567,277.517,297.923,273.377,297.923z"/>
		<path style="fill:#FFBB16;" d="M410.7,152.08c0-73.922-69.262-133.847-154.7-133.847S101.3,78.158,101.3,152.08"/>
		<path style="fill:#FF931F;" d="M256,18.23c-36.94,0-66.89,59.93-66.89,133.85H101.3C101.3,78.16,170.56,18.23,256,18.23z"/>
		<path style="fill:#DD9F8A;" d="M255.999,345.352c-12.828,0-25.656-3.214-37.349-9.642c-3.298-1.813-4.502-5.957-2.689-9.255
			c1.814-3.299,5.958-4.501,9.255-2.689c19.276,10.597,42.292,10.596,61.566,0c3.296-1.813,7.441-0.61,9.255,2.689
			c1.814,3.298,0.61,7.442-2.689,9.255C281.655,342.138,268.827,345.352,255.999,345.352z"/>
		<g>
			<path style="fill:#EFB29A;" d="M343.992,244.327c0-17.807-14.435-32.243-32.243-32.243c-17.807,0-32.243,14.435-32.243,32.243
				H343.992z"/>
			<circle style="fill:#2F373B;" cx="311.75" cy="258.054" r="22.023"/>
			<circle style="fill:#FFFFFF;" cx="320.928" cy="254.168" r="9.437"/>
			<path style="fill:#EFB29A;" d="M232.482,244.327c0-17.807-14.435-32.243-32.243-32.243s-32.243,14.435-32.243,32.243H232.482z"/>
			<circle style="fill:#2F373B;" cx="200.24" cy="258.054" r="22.023"/>
			<path style="fill:#181E21;" d="M205.207,279.51c-1.6,0.38-3.26,0.57-4.97,0.57c-12.16,0-22.02-9.86-22.02-22.03
				c0-12.16,9.86-22.02,22.02-22.02c1.71,0,3.37,0.2,4.97,0.57c-9.78,2.25-17.06,11-17.06,21.45
				C188.147,268.51,195.427,277.26,205.207,279.51z"/>
			<path style="fill:#181E21;" d="M316.717,279.51c-1.6,0.38-3.26,0.57-4.97,0.57c-12.16,0-22.02-9.86-22.02-22.03
				c0-12.16,9.86-22.02,22.02-22.02c1.71,0,3.37,0.2,4.97,0.57c-9.78,2.25-17.06,11-17.06,21.45
				C299.657,268.51,306.937,277.26,316.717,279.51z"/>
			<circle style="fill:#FFFFFF;" cx="209.417" cy="254.168" r="9.437"/>
		</g>
		<path style="fill:#F6F1F1;" d="M420.62,140.2v122.83c0,7.95-6.43,14.38-14.38,14.38h-6.15c-7.94,0-14.38-6.43-14.38-14.38v-18.7
			c0-29.33-23.78-53.1-53.1-53.1c-11.93,0-22.95,3.94-31.82,10.59c-8.87,6.64-15.59,16-18.93,26.84
			c-2.85,9.24-11.24,15.67-20.92,15.67h-9.89c-9.68,0-18.07-6.43-20.92-15.67c-6.68-21.68-26.88-37.43-50.75-37.43
			c-10.13,0-19.61,2.84-27.66,7.77c-3.6,2.2-6.92,4.81-9.88,7.78c-9.62,9.61-15.56,22.88-15.56,37.55v18.7
			c0,7.95-6.44,14.38-14.38,14.38h-6.15c-7.95,0-14.38-6.43-14.38-14.38V140.2c0-13.44,10.89-24.33,24.33-24.33h280.59
			C409.73,115.87,420.62,126.76,420.62,140.2z"/>
		<path style="fill:#D0E2E7;" d="M174.5,115.87c-12.58,0-22.78,10.2-22.78,22.78V199c-3.6,2.2-6.92,4.81-9.88,7.78
			c-9.62,9.61-15.56,22.88-15.56,37.55v18.7c0,7.95-6.44,14.38-14.38,14.38h-6.15c-7.95,0-14.38-6.43-14.38-14.38V140.2
			c0-13.44,10.89-24.33,24.33-24.33H174.5z"/>
		<g>
			<circle style="fill:#FF931F;" cx="126.655" cy="157.013" r="16.824"/>
			<circle style="fill:#FFBB16;" cx="191.325" cy="157.013" r="16.824"/>
			<circle style="fill:#FFBB16;" cx="255.995" cy="157.013" r="16.824"/>
			<circle style="fill:#FFBB16;" cx="320.665" cy="157.013" r="16.824"/>
			<circle style="fill:#FFBB16;" cx="385.335" cy="157.013" r="16.824"/>
		</g>
	</g>
</g>
<g>
</g>
<g>
</g>
<g>
</g>
<g>
</g>
<g>
</g>
<g>
</g>
<g>
</g>
<g>
</g>
<g>
</g>
<g>
</g>
<g>
</g>
<g>
</g>
<g>
</g>
<g>
</g>
<g>
</g>
</svg>
