<?xml version="1.0" encoding="iso-8859-1"?>
<!-- Generator: Adobe Illustrator 23.0.6, SVG Export Plug-In . SVG Version: 6.00 Build 0)  -->
<svg version="1.1" id="Capa_1" xmlns="http://www.w3.org/2000/svg" xmlns:xlink="http://www.w3.org/1999/xlink" x="0px" y="0px"
	 viewBox="0 0 512 512" style="enable-background:new 0 0 512 512;" xml:space="preserve">
<g>
	<path style="fill:#80B4FB;" d="M512,256c0,74.83-32.11,142.16-83.3,188.98c-7.3,6.68-15,12.94-23.04,18.74
		C363.57,494.1,311.87,512,256,512c-23.16,0-45.6-3.08-66.93-8.84c-39.98-10.8-76.08-31.04-105.77-58.18
		C32.11,398.16,0,330.83,0,256C0,114.62,114.62,0,256,0S512,114.62,512,256z"/>
	<path style="fill:#F6F1F1;" d="M428.7,196.64v248.34C383.17,486.6,322.55,512,256,512s-127.17-25.4-172.7-67.02V196.64H428.7z"/>
	<rect x="83.299" y="196.64" style="fill:#D0E2E7;" width="345.402" height="73.151"/>
	<path style="fill:#D0E2E7;" d="M189.07,196.64v306.52c-39.98-10.8-76.08-31.04-105.77-58.18V196.64H189.07z"/>
	<path style="fill:#F6F1F1;" d="M477.1,42.4v178.56c0,9.75-7.91,17.66-17.67,17.66H52.57c-9.76,0-17.67-7.91-17.67-17.66V42.4
		c0-9.75,7.91-17.66,17.67-17.66h48.73c9.75,0,17.66,7.91,17.66,17.66v38.95c0,4.87,1.98,9.29,5.17,12.49
		c3.2,3.19,7.61,5.17,12.49,5.17c9.76,0,17.66-7.91,17.66-17.66V42.4c0-9.75,7.91-17.66,17.67-17.66h48.72
		c9.76,0,17.67,7.91,17.67,17.66v38.95c0,4.87,1.98,9.29,5.17,12.49c3.2,3.19,7.61,5.17,12.49,5.17c9.75,0,17.66-7.91,17.66-17.66
		V42.4c0-9.75,7.91-17.66,17.67-17.66h48.72c9.76,0,17.67,7.91,17.67,17.66v38.95c0,4.87,1.98,9.29,5.17,12.49
		c3.19,3.19,7.61,5.17,12.49,5.17c9.75,0,17.66-7.91,17.66-17.66V42.4c0-9.75,7.91-17.66,17.66-17.66h48.73
		C469.19,24.74,477.1,32.65,477.1,42.4z"/>
	<g>
		<path style="fill:#D0E2E7;" d="M136.182,220.96v-98.882V99.01v-0.022c-9.551-0.235-17.225-8.034-17.225-17.641V42.402
			c0-9.755-7.908-17.663-17.663-17.663H52.566c-9.755,0-17.663,7.908-17.663,17.663V99.01v23.068v98.882
			c0,9.755,7.908,17.663,17.663,17.663h101.279C144.09,238.623,136.182,230.715,136.182,220.96z"/>
	</g>
	<path style="fill:#D0E2E7;" d="M197.853,431.21v-98.285c0-32.062,26.085-58.147,58.147-58.147s58.147,26.085,58.147,58.147v98.285
		H197.853z"/>
	<path style="fill:#181E21;" d="M294.15,332.92v78.29h-76.3v-78.29c0-21.06,17.08-38.14,38.15-38.14S294.15,311.86,294.15,332.92z"
		/>
	<path style="fill:#2F373B;" d="M294.15,351.9v59.31h-76.3V351.9c9.14-10.86,22.84-17.76,38.15-17.76S285.01,341.04,294.15,351.9z"
		/>
	<path style="fill:#D0E2E7;" d="M213.923,164.187h-37.247c-7.977,0-14.444-6.467-14.444-14.444v-3.618
		c0-7.977,6.467-14.444,14.444-14.444h37.247c7.977,0,14.444,6.467,14.444,14.444v3.618
		C228.367,157.72,221.9,164.187,213.923,164.187z"/>
	<path style="fill:#D0E2E7;" d="M246.991,207.81h-37.247c-7.977,0-14.444-6.467-14.444-14.444v-3.618
		c0-7.977,6.467-14.444,14.444-14.444h37.247c7.977,0,14.444,6.467,14.444,14.444v3.618
		C261.435,201.343,254.968,207.81,246.991,207.81z"/>
	<path style="fill:#D0E2E7;" d="M399.733,327.284h-37.247c-7.977,0-14.444-6.467-14.444-14.444v-3.618
		c0-7.977,6.467-14.444,14.444-14.444h37.247c7.977,0,14.444,6.467,14.444,14.444v3.618
		C414.178,320.817,407.711,327.284,399.733,327.284z"/>
	<path style="fill:#D0E2E7;" d="M374.796,369.248h-37.247c-7.977,0-14.444-6.467-14.444-14.444v-3.618
		c0-7.977,6.467-14.444,14.444-14.444h37.247c7.977,0,14.444,6.467,14.444,14.444v3.618
		C389.241,362.781,382.774,369.248,374.796,369.248z"/>
	<path style="fill:#D0E2E7;" d="M344.056,479.973h-37.247c-7.977,0-14.444-6.467-14.444-14.444v-3.618
		c0-7.977,6.467-14.444,14.444-14.444h37.247c7.977,0,14.444,6.467,14.444,14.444v3.618
		C358.5,473.506,352.034,479.973,344.056,479.973z"/>
	<path style="fill:#D0E2E7;" d="M428.7,431.21v13.77c-7.3,6.68-15,12.94-23.04,18.74h-1.98c-7.97,0-14.44-6.47-14.44-14.45v-3.62
		c0-7.97,6.47-14.44,14.44-14.44H428.7z"/>
	<path style="fill:#D0E2E7;" d="M403.696,168.333h-37.247c-7.977,0-14.444-6.467-14.444-14.444v-3.618
		c0-7.977,6.467-14.444,14.444-14.444h37.247c7.977,0,14.444,6.467,14.444,14.444v3.618
		C418.14,161.867,411.674,168.333,403.696,168.333z"/>
	<path style="fill:#D0E2E7;" d="M477.1,135.83v32.5h-33.95c-7.98,0-14.45-6.46-14.45-14.44v-3.62c0-7.98,6.47-14.44,14.45-14.44
		H477.1z"/>
	<path style="fill:#D0E2E7;" d="M440.932,207.81h-37.247c-7.977,0-14.444-6.467-14.444-14.444v-3.618
		c0-7.977,6.467-14.444,14.444-14.444h37.247c7.977,0,14.444,6.467,14.444,14.444v3.618
		C455.376,201.343,448.909,207.81,440.932,207.81z"/>
</g>
<g>
</g>
<g>
</g>
<g>
</g>
<g>
</g>
<g>
</g>
<g>
</g>
<g>
</g>
<g>
</g>
<g>
</g>
<g>
</g>
<g>
</g>
<g>
</g>
<g>
</g>
<g>
</g>
<g>
</g>
</svg>
