<svg id="Filled" height="512" viewBox="0 0 512 512" width="512" xmlns="http://www.w3.org/2000/svg"><path d="m24 288s216-38.628 352 40v136l-352-16z" fill="#6a7073"/><path d="m184 400h64v-128a64 64 0 0 0 -64-64h-40v192z" fill="#464c4f"/><path d="m136 208h16a64 64 0 0 1 64 64v128a0 0 0 0 1 0 0h-144a0 0 0 0 1 0 0v-128a64 64 0 0 1 64-64z" fill="#606669"/><path d="m376 336-56-160-48 16-16-48 48-16-16-48 56-16 16 48 48-16 16 48-48 16 56 160z" fill="#464c4f"/><path d="m24 488v-120s128-16 216 24c0 0 96-96 248-96v192z" fill="#7e8589"/><path d="m112 120a40.4 40.4 0 0 0 7.99-.8 56 56 0 1 1 0-78.4 40 40 0 1 0 -7.99 79.2z" fill="#f7b030"/><path d="m120 296h48a8 8 0 0 0 0-16h-48a8 8 0 0 0 0 16z"/><path d="m104 328h80a8 8 0 0 0 0-16h-80a8 8 0 0 0 0 16z"/><path d="m80 144a63.5 63.5 0 0 0 45.705-19.2 8 8 0 0 0 -7.294-13.442 32.5 32.5 0 0 1 -6.411.642 32 32 0 0 1 0-64 32.5 32.5 0 0 1 6.411.643 8 8 0 0 0 7.294-13.443 64 64 0 1 0 -45.705 108.8zm0-112a48.075 48.075 0 0 1 16.041 2.728 48 48 0 0 0 0 90.544 48.013 48.013 0 1 1 -16.041-93.272z"/><path d="m488 288a364.38 364.38 0 0 0 -57.142 4.52l-44.625-127.5 40.3-13.431a8 8 0 0 0 5.059-10.12l-16-48a8 8 0 0 0 -10.119-5.06l-40.41 13.471-13.474-40.41a8 8 0 0 0 -9.787-5.162l-56 16a8 8 0 0 0 -5.391 10.222l13.47 40.41-40.411 13.47a8 8 0 0 0 -5.059 10.12l16 48a8 8 0 0 0 10.119 5.06l40.523-13.508 43.3 123.725c-29.483-13.838-63.86-24.16-102.353-30.716v-7.091a72.081 72.081 0 0 0 -72-72h-48a72.081 72.081 0 0 0 -72 72v2.721c-25.246 2.539-40.7 5.277-41.408 5.4a8 8 0 0 0 -6.592 7.879v200a8 8 0 0 0 8 8h464a8 8 0 0 0 8-8v-192a8 8 0 0 0 -8-8zm-170.53-119.59-40.41 13.471-10.941-32.821 40.411-13.47a8 8 0 0 0 5.059-10.12l-13.358-40.07 40.6-11.6 13.578 40.733a8 8 0 0 0 10.119 5.06l40.41-13.471 10.941 32.821-40.409 13.467a8 8 0 0 0 -5.021 10.233l46.472 132.777a381.114 381.114 0 0 0 -40.894 10.727l-46.476-132.79a8 8 0 0 0 -10.081-4.947zm22.215 150.625a394.519 394.519 0 0 0 -36.584 17.98 386.419 386.419 0 0 0 -47.101 30.894v-72.577c30.916 5.438 58.957 13.386 83.685 23.703zm-99.685-47.035v109.087c-.584.519-1.136 1.015-1.63 1.464q-6.949-2.959-14.37-5.582v-104.969a71.831 71.831 0 0 0 -24.087-53.684 56.092 56.092 0 0 1 40.087 53.684zm-104-56h16a56.063 56.063 0 0 1 56 56v99.865c-31.077-8.914-67.506-13.9-108.814-14.863-6.693-.155-13.112-.192-19.186-.144v-84.858a56.063 56.063 0 0 1 56-56zm-72 74.806v66.385c-13.783.463-24.849 1.289-32 1.939v-64.315c6.518-.988 17.6-2.529 32-4.009zm416 189.194h-448v-104.782c27.661-2.546 131.359-9.267 204.689 24.065.113.051.226.1.34.145.381.152 38.563 15.779 76.825 61.693a8 8 0 1 0 12.292-10.242c-28.483-34.179-56.866-52.6-72.011-60.853a357.538 357.538 0 0 1 57.26-39.317c36.966-20.561 95.749-44.932 168.605-46.616z"/></svg>