<svg id="Layer_1" enable-background="new 0 0 511.994 511.994" height="512" viewBox="0 0 511.994 511.994" width="512" xmlns="http://www.w3.org/2000/svg"><path d="m0 190.465v317.639l18.697-4.755c99.968-25.426 171.074-61.187 217.384-109.325 46.338-48.168 69.197-109.803 69.885-188.427l.133-15.131h-306.099z" fill="#c7eb4b"/><path d="m360.161 190.465 7.068 19.999c15.75 44.56 25.609 98.19 28.514 155.094 2.362 46.3-.026 93.206-6.553 128.691l-3.258 17.713h126.062v-321.497z" fill="#c7eb4b"/><path d="m360.161 190.465 7.068 19.999c15.75 44.56 25.609 98.19 28.514 155.094 2.362 46.3-.026 93.206-6.553 128.691l-3.258 17.713h126.062v-321.497z" fill="#a7d22a"/><path d="m395.515 200.466-3.535-10.001h-115.882l-.13 14.869c-.313 35.659-5.372 66.472-15.469 94.199-10.186 27.972-25.244 52.077-46.038 73.691-42.317 43.99-108.771 77.043-203.158 101.05l-11.303 2.874v34.813h416.437l2.26-12.287c13.611-74.009 12.162-199.209-23.182-299.208z" fill="#b2f1fa"/><path d="m395.515 200.466-3.535-10.001h-57.941v321.497h82.398l2.26-12.287c13.611-74.01 12.162-199.21-23.182-299.209z" fill="#76e2f8"/><path d="m439.5 148.967h30v56.498h-30z" fill="#99503d"/><path d="m454.5 148.967h15v56.498h-15z" fill="#804231"/><path d="m509.32 89.527-19.794-63.7c-4.869-15.669-18.617-25.794-35.026-25.794s-30.157 10.125-35.026 25.794l-19.794 63.701c-5.472 17.61-2.339 36.226 8.597 51.075 10.935 14.849 27.783 23.365 46.224 23.365s35.289-8.516 46.224-23.365c10.934-14.85 14.067-33.465 8.595-51.076z" fill="#00cc71"/><path d="m509.32 89.527-19.794-63.7c-4.869-15.669-18.617-25.794-35.026-25.794v163.935c18.44 0 35.289-8.516 46.224-23.365 10.935-14.85 14.068-33.465 8.596-51.076z" fill="#009985"/><path d="m156.558 301.82h30v55.661h-30z" fill="#99503d"/><path d="m171.558 301.82h15v55.661h-15z" fill="#804231"/><path d="m226.377 242.379-19.793-63.7c-4.869-15.669-18.617-25.794-35.026-25.794-16.408 0-30.157 10.125-35.027 25.794l-19.793 63.7c-5.472 17.61-2.339 36.227 8.597 51.075 10.935 14.849 27.783 23.365 46.224 23.365s35.289-8.516 46.224-23.365c10.934-14.849 14.067-33.465 8.594-51.075z" fill="#00cc71"/><path d="m226.377 242.379-19.793-63.7c-4.869-15.669-18.617-25.794-35.026-25.794v163.935c18.441 0 35.289-8.516 46.224-23.365 10.935-14.85 14.068-33.466 8.595-51.076z" fill="#009985"/><path d="m55.99 148.967h30v56.498h-30z" fill="#99503d"/><path d="m70.991 148.967h14.999v56.498h-14.999z" fill="#804231"/><path d="m125.811 89.528-19.793-63.701c-4.87-15.669-18.619-25.794-35.027-25.794-16.409 0-30.158 10.125-35.027 25.795l-19.793 63.699c-5.473 17.61-2.34 36.226 8.595 51.075 10.936 14.849 27.783 23.365 46.225 23.365 18.44 0 35.289-8.516 46.224-23.365 10.934-14.849 14.067-33.464 8.596-51.074z" fill="#00cc71"/><path d="m125.811 89.528-19.793-63.701c-4.87-15.669-18.619-25.794-35.027-25.794v163.935c18.44 0 35.288-8.516 46.223-23.365 10.935-14.85 14.068-33.465 8.597-51.075z" fill="#009985"/><g fill="#76e2f8"><path d="m321.664 250.214h-48.966c-1.511 10.42-3.556 20.396-6.131 30h55.097z"/><path d="m354.26 342.481v30h71.822c-.398-9.879-1.007-19.9-1.841-30z"/><path d="m269.33 419.551h-115.196c-18.814 10.933-40.01 20.917-63.71 30h178.906z"/></g><path d="m354.26 342.481v30h71.822c-.398-9.879-1.007-19.9-1.841-30z" fill="#00c0f1"/></svg>