<svg enable-background="new 0 0 140 140" height="512" viewBox="0 0 140 140" width="512" xmlns="http://www.w3.org/2000/svg"><circle cx="70" cy="70" fill="#fb7833" r="64"/><path d="m105.064949 27.0225849c-.460022-.4699707-1.0300293-.8499756-1.710022-1.1099854-1.7299805-.6599731-3.7399902-.1699829-4.9899902 1.1900024-.8999634.9799805-1.289978 2.1799927-1.2399902 3.3399658.039978 1.2200317-.1900024 2.4400043-.8400269 3.4800434l-5.6499634 9.1499634-4.5599976-2.8199463c-.7700195-.4700317-1.7700195-.2300415-2.25.539978-.4700317.7600098-.2300415 1.7600098.5299683 2.2399902l3.0100098 3.0100098-3.9899902 5.9799805-13.7199707-3.5599976c-.3600464-.0999756-.7400513-.0999756-1.1000366 0l-3.7399903.9700319-8.6400108-8.6400146c-.3499756-.5700073-.9899902-.8500366-1.6099854-.7600098l-12.9299926-12.9299946c-1.25-1.3599854-3.2600098-1.8499756-4.9899902-1.1900024-2.8300171 1.0700073-3.8600464 4.3599854-2.3500366 6.7999897.3900146.6099854.8900146 1.1000366 1.4700317 1.4700317l4.3900146 4.3899536 4.5599976 7.3800049-4.1400146 2.5500488c-.7700195.4699707-1 1.4799805-.5300293 2.2399902.1400146.2199707.3200073.3899536.5200195.5199585l3.5499878 3.5500488-1.8499756.4799805c-.9700317.25-1.6500244 1.1199951-1.6500244 2.1199951v4.289978s.5900269 20.590023 13.1500244 34.590023l-5.5700073 8.3200073 1.9899902 9.7699585 19.6123009 19.6123047c.0679321.0001833.1347656.0051271.2027587.0051271 35.3463135 0 64.0000076-28.6538086 64.0000076-64 0-5.5546875-.7097168-10.9432335-2.0397339-16.0820885l-26.8153152-26.8153095c-.0200195-.0200195-.0500488-.0499878-.0800171-.0800171z" opacity=".1"/><path d="m103.3531265 25.9102116c-1.7302856-.6534081-3.7427368-.1715317-4.9924622 1.1919632-.8958588.9774284-1.2871628 2.1771088-1.2400513 3.3432884.0492401 1.2220821-.1891251 2.4382305-.831604 3.4788113l-6.185028 10.0174674 4.6498108 2.870903 6.0896301-9.8629723c.6882095-1.1146393 1.731781-1.9320946 2.9150467-2.4945335.7770767-.3693886 1.4601059-.9585266 1.9460526-1.7455826 1.5065689-2.4400863.4807281-5.7297973-2.3513947-6.7993449z" fill="#feda6f"/><path d="m88.4037018 44.7386017 6.6692352 4.1177406-35.2635383 62.9289971-9.6195794 2.5928497-1.9915199-9.7618179z" fill="#ededed"/><path d="m94.5858612 49.343399-3.33461-2.0588645-41.0613975 67.0936317 9.6195717-2.5928574z" fill="#dbd8dd"/><path d="m99.4267502 48.503624-13.3555374-8.2460289c-.7654572-.4726105-1.7691498-.2351379-2.2417145.5302429-.4726562.7655296-.2352142 1.769104.5302429 2.2417145l13.3555374 8.2460289c.7654953.4726334 1.7690964.2353096 2.2417526-.53022.4725647-.7653809.2352143-1.7691041-.530281-2.2417374z" fill="#dbd8dd"/><path d="m36.6468506 25.9102116c1.7302895-.6534081 3.742733-.1715317 4.992466 1.1919632.8958511.9774284 1.287159 2.1771088 1.2400436 3.3432884-.0492325 1.2220821.1891289 2.4382305.8316078 3.4788113l6.1850243 10.0174675-4.649807 2.870903-6.0896339-9.8629723c-.6882019-1.1146393-1.7317734-1.9320946-2.9150429-2.4945335-.7770767-.3693886-1.4601059-.9585266-1.9460526-1.7455826-1.5065651-2.4400864-.4807319-5.7297974 2.3513947-6.799345z" fill="#feda6f"/><path d="m51.4592667 44.4043541-6.6692315 4.1177406 35.4005471 63.2632447 9.6195755 2.5928497 1.9915161-9.7618179z" fill="#ededed"/><path d="m45.4141197 49.343399 3.3346062-2.0588645 41.0613937 67.0936317-9.6195678-2.5928574z" fill="#dbd8dd"/><path d="m40.5732231 48.503624 13.3555412-8.2460289c.7654533-.4726105 1.7691498-.2351379 2.2417145.5302429.4726562.7655296.2352104 1.769104-.5302429 2.2417145l-13.3555412 8.2460289c-.7654915.4726334-1.7690926.2353096-2.2417488-.53022-.4725647-.7653809-.2352143-1.7691041.5302772-2.2417374z" fill="#dbd8dd"/><path d="m95.9522324 55.2913857-26.2941284-6.8306694c-.3619843-.093914-.741951-.093914-1.1039429 0l-26.2940788 6.8306694c-.9677353.2514915-1.6433868 1.1250229-1.6433868 2.1248779v4.2831612s.9707947 34.5944824 27.7237129 44.5910568c.490509.1833649 1.040947.1833649 1.5314484 0 26.7529678-9.9965744 27.7237625-44.5910568 27.7237625-44.5910568v-4.2831612c-.0000001-.9998551-.6756516-1.8733864-1.6433869-2.1248779z" fill="#344d5b"/><path d="m69.1060562 101.5008621c-22.1916084-9.0464935-23.690979-38.4631157-23.7485199-39.8831215v-2.2328491l23.749176-6.169445 23.7478561 6.169445v2.2288818c-.0595245 1.3664322-1.6402434 30.867054-23.7485122 39.8870888z" fill="#4abba4"/></svg>