<?xml version="1.0" encoding="iso-8859-1"?>
<!-- Generator: Adobe Illustrator 23.0.6, SVG Export Plug-In . SVG Version: 6.00 Build 0)  -->
<svg version="1.1" id="Capa_1" xmlns="http://www.w3.org/2000/svg" xmlns:xlink="http://www.w3.org/1999/xlink" x="0px" y="0px"
	 viewBox="0 0 512 512" style="enable-background:new 0 0 512 512;" xml:space="preserve">
<g>
	<path style="fill:#FFBB16;" d="M512,256c0,141.38-114.62,256-256,256c-55.86,0-107.53-17.89-149.62-48.26
		c-3.7-2.67-7.32-5.43-10.86-8.29c-9.36-7.54-18.19-15.73-26.4-24.5c-2.06-2.19-4.08-4.42-6.05-6.68c-2.22-2.55-4.4-5.14-6.53-7.78
		c-0.42-0.53-0.85-1.06-1.27-1.59c-2.4-3.04-4.74-6.13-7.01-9.28C17.89,363.53,0,311.86,0,256C0,114.62,114.62,0,256,0
		S512,114.62,512,256z"/>
	<g>
		<path style="fill:#D9723E;" d="M281.48,260.1c0,7.56-2.89,15.14-8.66,20.91L104.54,449.29c-2.68,2.68-5.75,4.73-9.02,6.16
			c-9.36-7.54-18.19-15.73-26.4-24.5c-2.06-2.19-4.08-4.42-6.05-6.68c-2.22-2.55-4.4-5.14-6.53-7.78c1.43-3.28,3.49-6.35,6.17-9.03
			l168.28-168.28c11.55-11.54,30.28-11.54,41.83,0C278.59,244.96,281.48,252.52,281.48,260.1z"/>
		<path style="fill:#BD5423;" d="M262.47,233.22c0,2.7-1.03,5.4-3.09,7.47L69.12,430.95c-2.06-2.19-4.08-4.42-6.05-6.68
			c-2.67-3.06-5.27-6.18-7.8-9.37l189.16-189.16c4.13-4.12,10.82-4.12,14.95,0C261.44,227.8,262.47,230.51,262.47,233.22z"/>
		<path style="fill:#D0E2E7;" d="M215.036,321.516l-24.551-24.551c-9.27-9.27-9.27-24.301,0-33.571l53.878-53.878
			c9.27-9.27,24.301-9.27,33.571,0l24.551,24.551c9.27,9.27,9.27,24.301,0,33.571l-53.878,53.878
			C239.336,330.786,224.306,330.786,215.036,321.516z"/>
		<path style="fill:#B4D0D5;" d="M207.214,313.69l-16.729-16.729c-9.267-9.267-9.267-24.3,0-33.567l53.884-53.884
			c9.267-9.267,24.3-9.267,33.567,0l16.729,16.729c-9.267-9.267-24.3-9.267-33.567,0l-53.884,53.884
			C197.946,289.39,197.946,304.423,207.214,313.69z"/>
		<path style="fill:#2F373B;" d="M140.39,429.73l-34.01,34.01c-22.35-16.12-42-35.77-58.12-58.12l34.01-34.01
			c9.27-9.27,24.3-9.27,33.57,0l24.55,24.55C149.66,405.43,149.66,420.46,140.39,429.73z"/>
		<path style="fill:#181E21;" d="M132.57,388.33c-9.27-9.27-24.3-9.27-33.57,0l-35.93,35.94c-5.22-5.97-10.16-12.2-14.81-18.65
			l34.02-34.02c9.26-9.26,24.3-9.26,33.56,0L132.57,388.33z"/>
		<g>
			<path style="fill:#D0E2E7;" d="M398.042,280.193c-9.595-9.596-11.224-24.143-4.864-35.411c1.287-2.3,2.905-4.457,4.864-6.415
				c11.554-11.554,30.272-11.554,41.826,0c11.455,11.444,31.725,50.101,20.82,62.041c-0.088,0.11-0.187,0.22-0.286,0.319
				C448.848,312.27,409.597,291.736,398.042,280.193z"/>
			<path style="fill:#D0E2E7;" d="M273.637,72.131c-11.55-11.55-50.811-32.084-62.361-20.533
				c-11.55,11.55,8.983,50.811,20.533,62.361c11.55,11.55,30.277,11.55,41.827,0S285.188,83.681,273.637,72.131z"/>
		</g>
		<path style="fill:#D0E2E7;" d="M398.042,113.955c-2.014-2.014-3.675-4.248-4.985-6.624c-6.217-11.235-4.556-25.661,4.985-35.202
			c11.554-11.543,50.806-32.077,62.36-20.534c3.213,3.213,3.951,8.572,3.07,14.889c0,0.011,0,0.011,0,0.022
			c-0.077,0.594-0.176,1.199-0.286,1.816c-0.011,0.022-0.011,0.044-0.011,0.066c-2.938,16.187-15.284,37.557-23.306,45.568
			C428.315,125.509,409.597,125.509,398.042,113.955z"/>
		<path style="fill:#B4D0D5;" d="M393.058,107.33c-6.217-11.235-4.556-25.661,4.985-35.202
			c11.554-11.543,50.806-32.077,62.36-20.534c3.213,3.213,3.951,8.572,3.07,14.889C463.406,53.51,411.082,74.175,393.058,107.33z"/>
		<path style="fill:#B4D0D5;" d="M267.012,118.942c-11.235,6.217-25.661,4.556-35.202-4.985
			c-11.543-11.554-32.077-50.806-20.534-62.36c3.213-3.213,8.572-3.951,14.889-3.07C213.191,48.594,233.857,100.918,267.012,118.942
			z"/>
		<path style="fill:#B4D0D5;" d="M393.058,244.991c-6.217,11.235-4.556,25.661,4.985,35.202
			c11.554,11.543,50.806,32.077,62.36,20.534c3.213-3.213,3.951-8.572,3.07-14.889C463.406,298.812,411.082,278.146,393.058,244.991
			z"/>
		<circle style="fill:#F6F1F1;" cx="335.839" cy="176.161" r="134.23"/>
		<path style="fill:#D0E2E7;" d="M240.932,271.08c-52.421-52.421-52.429-137.413-0.008-189.834
			c52.421-52.421,137.413-52.413,189.834,0.008c-25.226-25.226-88.167-3.183-140.588,49.238
			C237.75,182.913,215.706,245.853,240.932,271.08z"/>
		<circle style="fill:#D0E2E7;" cx="335.839" cy="176.161" r="36.592"/>
		<path style="fill:#B4D0D5;" d="M321.278,209.733c-4.108-1.774-7.96-4.35-11.314-7.703c-14.286-14.286-14.286-37.458,0-51.744
			c14.294-14.294,37.466-14.294,51.752-0.008c3.354,3.354,5.929,7.205,7.703,11.314c-13.383-5.805-29.514-3.229-40.446,7.703
			C318.041,180.227,315.474,196.349,321.278,209.733z"/>
		<path style="fill:#D0E2E7;" d="M349.672,9.928c-0.008-0.023-0.031-0.046-0.039-0.07c0.008,0.023,0.023,0.039,0.039,0.054
			L349.672,9.928z"/>
		<g>
			<path style="fill:#D0E2E7;" d="M453.386,205.738c-13.57,0-25.008-9.135-28.479-21.6c-0.716-2.537-1.097-5.205-1.097-7.975
				c0-16.34,13.236-29.576,29.576-29.576c16.192-0.008,57.86,12.994,58.591,29.148c0.015,0.14,0.023,0.288,0.023,0.428
				C511.992,192.495,469.718,205.731,453.386,205.738z"/>
			<path style="fill:#D0E2E7;" d="M218.296,146.584c-16.335,0-58.615,13.242-58.615,29.576s42.281,29.576,58.615,29.576
				s29.576-13.242,29.576-29.576S234.63,146.584,218.296,146.584z"/>
		</g>
		<g>
			<path style="fill:#D0E2E7;" d="M306.263,293.704c0,16.335,13.242,58.615,29.576,58.615c16.335,0,29.576-42.281,29.576-58.615
				c0-16.335-13.242-29.576-29.576-29.576C319.505,264.128,306.263,277.37,306.263,293.704z"/>
			<path style="fill:#D0E2E7;" d="M335.837,88.19c-2.848,0-5.602-0.405-8.209-1.159c-12.341-3.548-21.367-14.924-21.367-28.416
				C306.269,42.282,319.505,0.008,335.837,0c4.544,0,8.855,3.268,12.699,8.357c0.008,0.008,0.008,0.008,0.016,0.016
				c0.366,0.474,0.724,0.973,1.082,1.486c0.008,0.023,0.023,0.039,0.039,0.054c9.368,13.523,15.749,37.364,15.741,48.701
				C365.413,74.955,352.178,88.19,335.837,88.19z"/>
		</g>
		<path style="fill:#B4D0D5;" d="M327.628,87.031c-12.341-3.548-21.367-14.924-21.367-28.416
			C306.269,42.282,319.505,0.008,335.837,0c4.544,0,8.855,3.268,12.699,8.357C339.315-0.77,316.93,50.841,327.628,87.031z"/>
		<path style="fill:#B4D0D5;" d="M246.712,167.952c-3.548-12.341-14.924-21.367-28.416-21.367
			c-16.332,0.008-58.607,13.243-58.615,29.576c0,4.544,3.268,8.855,8.357,12.699C158.91,179.639,210.522,157.253,246.712,167.952z"
			/>
		<path style="fill:#B4D0D5;" d="M511.977,175.735c-1.564-12.426-70.426-21.203-87.07,8.404c-0.716-2.537-1.097-5.205-1.097-7.975
			c0-16.34,13.236-29.576,29.576-29.576C469.578,146.579,511.245,159.581,511.977,175.735z"/>
		<path style="fill:#B4D0D5;" d="M335.411,352.296c-12.426-1.564-21.203-70.426,8.404-87.07c-2.537-0.716-5.205-1.097-7.975-1.097
			c-16.34,0-29.576,13.236-29.576,29.576C306.255,309.896,319.257,351.564,335.411,352.296z"/>
	</g>
</g>
<g>
</g>
<g>
</g>
<g>
</g>
<g>
</g>
<g>
</g>
<g>
</g>
<g>
</g>
<g>
</g>
<g>
</g>
<g>
</g>
<g>
</g>
<g>
</g>
<g>
</g>
<g>
</g>
<g>
</g>
</svg>
