<?xml version="1.0" encoding="iso-8859-1"?>
<!-- Generator: Adobe Illustrator 23.0.6, SVG Export Plug-In . SVG Version: 6.00 Build 0)  -->
<svg version="1.1" id="Capa_1" xmlns="http://www.w3.org/2000/svg" xmlns:xlink="http://www.w3.org/1999/xlink" x="0px" y="0px"
	 viewBox="0 0 512 512" style="enable-background:new 0 0 512 512;" xml:space="preserve">
<g>
	<path style="fill:#D9723E;" d="M512,256c0,48.77-13.64,94.35-37.31,133.14c-31.33,51.36-80.25,90.82-138.39,110.01
		C311.04,507.49,284.05,512,256,512C114.62,512,0,397.38,0,256S114.62,0,256,0S512,114.62,512,256z"/>
	<g>
		<path style="fill:#F6F1F1;" d="M36.831,90.721l19.885,97.768c1.131,5.559,0.925,11.306-0.6,16.77l-18.935,67.849
			c-2.485,8.904-1.432,18.423,2.939,26.569l29.12,54.27c6.24,11.63,18.37,18.887,31.568,18.887h123.936
			c13.57,0,25.975-7.667,32.043-19.804l26.808-53.616c3.36-6.72,4.522-14.326,3.322-21.743l-20.728-128.136
			c-0.306-1.892-0.46-3.805-0.46-5.721V56.942c0-18.097-13.497-33.353-31.459-35.558l-82.059-10.077
			c-3.864-0.474-7.779-0.316-11.591,0.469L87.05,22.804c-7.694,1.584-14.655,5.654-19.81,11.582L44.903,60.073
			C37.594,68.478,34.611,79.806,36.831,90.721z"/>
		<path style="fill:#D0E2E7;" d="M97.962,372.704c-12.083-0.943-22.923-7.969-28.729-18.767l-29.115-54.266
			c-4.37-8.141-5.42-17.654-2.935-26.565l18.939-67.849c1.521-5.464,1.735-11.205,0.6-16.775L36.84,90.726
			c-2.228-10.926,0.75-22.239,8.055-30.657L67.24,34.381c5.163-5.912,12.104-9.984,19.817-11.569l5.592-1.157
			c-3.149,1.928-5.999,4.371-8.484,7.198L61.049,55.441c-7.562,8.698-10.669,20.438-8.355,31.729L73.26,188.374
			c1.178,5.742,0.964,11.697-0.621,17.353l-19.581,70.227c-2.571,9.212-1.5,19.067,3.042,27.508l30.143,56.173
			C89.092,364.97,93.141,369.404,97.962,372.704z"/>
		<path style="fill:#434D51;" d="M193.204,143.352l-53.702,53.703v-26.756l73.395-73.396c5.439-5.439,5.439-14.255,0-19.693
			c-5.438-5.438-14.256-5.438-19.693,0l-53.702,53.703V87.056c0-7.691-6.235-13.925-13.925-13.925
			c-7.691,0-13.925,6.235-13.925,13.925v216.157c0,7.691,6.235,13.925,13.925,13.925c7.691,0,13.925-6.235,13.925-13.925v-66.771
			l73.395-73.396c5.439-5.439,5.439-14.255,0-19.693C207.46,137.915,198.641,137.915,193.204,143.352z"/>
		<circle style="fill:#D0E2E7;" cx="202.682" cy="318.781" r="12.563"/>
		<circle style="fill:#D0E2E7;" cx="229.539" cy="343.908" r="12.563"/>
		<circle style="fill:#D0E2E7;" cx="238.511" cy="306.218" r="12.563"/>
		<circle style="fill:#D0E2E7;" cx="111.769" cy="46.361" r="12.563"/>
	</g>
	<g>
		<path style="fill:#F6F1F1;" d="M463.2,301.49l11.49,87.65c-31.33,51.36-80.25,90.82-138.39,110.01l-19.47,1.66
			c-12.2,1.04-24.24-3.36-32.9-12.01l-19.28-19.29c-11.24-11.23-15.08-27.89-9.9-42.91l9.48-27.49c1.97-5.72,2.67-11.8,2.05-17.81
			L255.2,274.21c-0.36-3.47-1.15-6.88-2.36-10.15l-8.7-23.49c-6.22-16.79-0.98-35.67,13-46.86l40.71-32.56
			c12.07-9.66,28.5-11.81,42.65-5.6l7.19,3.16c8.89,3.91,18.87,4.57,28.2,1.88l19.95-5.75c18.98-5.47,39.18,3.19,48.32,20.7
			l26.4,50.6c5.21,9.98,6.14,21.66,2.58,32.34l-8.16,24.47C462.99,288.92,462.38,295.25,463.2,301.49z"/>
		<path style="fill:#D0E2E7;" d="M259.619,236.407l9.127,24.615c1.264,3.428,2.099,7.006,2.485,10.648l11.612,112.303
			c0.643,6.298-0.086,12.683-2.142,18.682l-9.941,28.814c-5.442,15.769-1.414,33.229,10.369,45.012l20.224,20.224
			c1.264,1.264,2.592,2.443,3.985,3.492c-8.034-1.564-15.489-5.485-21.402-11.397l-19.281-19.281
			c-11.247-11.227-15.082-27.894-9.898-42.912l9.469-27.487c1.971-5.72,2.678-11.804,2.057-17.824L255.206,274.22
			c-0.364-3.471-1.157-6.877-2.357-10.154l-8.698-23.481c-6.234-16.796-0.985-35.67,12.983-46.875l40.726-32.563
			c5.506-4.413,11.933-7.263,18.639-8.441c-0.193,0.107-0.364,0.256-0.557,0.407l-42.676,34.149
			C258.591,198.98,253.106,218.796,259.619,236.407z"/>
		<path style="fill:#434D51;" d="M333.584,448.506c-7.691,0-13.925-6.235-13.925-13.925v-61.179c0-0.019,0-0.038,0-0.056v-154.92
			c0-5.632,3.392-10.71,8.597-12.866c5.199-2.155,11.191-0.963,15.175,3.019l77.475,77.474c2.611,2.611,4.079,6.153,4.079,9.847
			c0,3.694-1.467,7.236-4.079,9.847l-73.396,73.396v55.439C347.51,442.271,341.275,448.506,333.584,448.506z M347.51,252.044v87.711
			l43.856-43.856L347.51,252.044z"/>
		<circle style="fill:#D0E2E7;" cx="389.475" cy="456.037" r="12.563"/>
		<circle style="fill:#D0E2E7;" cx="414.984" cy="431.007" r="12.563"/>
		<circle style="fill:#D0E2E7;" cx="403.929" cy="191.936" r="12.563"/>
	</g>
</g>
<g>
</g>
<g>
</g>
<g>
</g>
<g>
</g>
<g>
</g>
<g>
</g>
<g>
</g>
<g>
</g>
<g>
</g>
<g>
</g>
<g>
</g>
<g>
</g>
<g>
</g>
<g>
</g>
<g>
</g>
</svg>
