<?xml version="1.0" encoding="iso-8859-1"?>
<!-- Generator: Adobe Illustrator 23.0.6, SVG Export Plug-In . SVG Version: 6.00 Build 0)  -->
<svg version="1.1" id="Capa_1" xmlns="http://www.w3.org/2000/svg" xmlns:xlink="http://www.w3.org/1999/xlink" x="0px" y="0px"
	 viewBox="0 0 512 512" style="enable-background:new 0 0 512 512;" xml:space="preserve">
<g>
	<path style="fill:#FFBB16;" d="M512,256c0,33.19-6.32,64.91-17.82,94.02c-1.31,3.32-2.69,6.61-4.14,9.86
		c-0.01,0.03-0.02,0.05-0.03,0.08c-8.14,18.29-18.36,35.45-30.36,51.18c-5.73,7.51-11.86,14.69-18.37,21.5
		c-16.13,16.92-34.55,31.63-54.77,43.63c-2.84,1.68-5.71,3.31-8.61,4.88C341.65,500.83,300.13,512,256,512s-85.65-11.17-121.9-30.85
		c-2.9-1.57-5.77-3.2-8.61-4.88c-15.36-9.11-29.68-19.79-42.74-31.81c-4.14-3.81-8.15-7.75-12.03-11.82
		c-20.14-21.11-36.71-45.67-48.73-72.68c-1.46-3.28-2.85-6.59-4.17-9.94C6.32,320.91,0,289.19,0,256s6.32-64.91,17.82-94.02
		c2.48-6.29,5.21-12.46,8.18-18.49C67.63,58.51,154.99,0,256,0s188.37,58.51,230,143.49c2.97,6.03,5.7,12.2,8.18,18.49
		C505.68,191.09,512,222.81,512,256z"/>
	<path style="fill:#2F373B;" d="M441.28,432.64c-16.13,16.92-34.55,31.63-54.77,43.63c-2.84,1.68-5.71,3.31-8.61,4.88
		C341.65,500.83,300.13,512,256,512s-85.65-11.17-121.9-30.85c-2.9-1.57-5.77-3.2-8.61-4.88c-15.36-9.11-29.68-19.79-42.74-31.81
		c-4.14-3.81-8.15-7.75-12.03-11.82H441.28z"/>
	<path style="fill:#D9723E;" d="M494.182,165.318H17.818v-62.426c0-25.39,20.583-45.972,45.972-45.972h384.418
		c25.39,0,45.972,20.583,45.972,45.972V165.318z"/>
	<path style="fill:#BD5423;" d="M128.718,56.922c-25.39,0-45.97,20.58-45.97,45.97v62.43h-64.93v-62.43
		c0-25.39,20.58-45.97,45.97-45.97H128.718z"/>
	<path style="fill:#D9723E;" d="M494.18,143.49v206.53c-20.96,53.06-59.15,97.45-107.67,126.25H125.49
		c-48.52-28.8-86.71-73.19-107.67-126.25V143.49H494.18z"/>
	<rect x="73.268" y="265.635" style="fill:#BD5423;" width="420.913" height="21.495"/>
	<rect x="73.268" y="102.892" style="fill:#BD5423;" width="420.913" height="21.495"/>
	<path style="fill:#BD5423;" d="M494.18,338.39v11.63c-1.31,3.32-2.69,6.61-4.14,9.86H73.27v-21.49H494.18z"/>
	<path style="fill:#BD5423;" d="M459.65,411.14c-5.73,7.51-11.86,14.69-18.37,21.5H73.27v-21.5H459.65z"/>
	<rect x="17.818" y="143.489" style="fill:#BD5423;" width="476.363" height="76.614"/>
	<path style="fill:#BD5423;" d="M82.75,143.49v300.97c-25.62-23.56-46.42-52.28-60.76-84.5c-1.46-3.28-2.85-6.59-4.17-9.94V143.49
		H82.75z"/>
	<path style="fill:#BD5423;" d="M255.402,332.695l43.407-31.537c11.586-8.417,16.434-23.338,12.008-36.958l-16.58-51.028
		c-4.425-13.62-17.117-22.841-31.438-22.841h-53.654c-14.321,0-27.013,9.221-31.438,22.841l-16.58,51.028
		c-4.425,13.62,0.423,28.54,12.008,36.958l43.407,31.537C228.128,341.112,243.817,341.112,255.402,332.695z"/>
	<path style="fill:#F6F1F1;" d="M493.181,204.079H18.819C8.425,204.079,0,195.653,0,185.26v-33.494
		c0-10.393,8.425-18.818,18.819-18.818h474.363c10.393,0,18.819,8.425,18.819,18.818v33.494
		C512,195.653,503.575,204.079,493.181,204.079z"/>
	<path style="fill:#D0E2E7;" d="M74.31,204.08H18.82C8.43,204.08,0,195.65,0,185.26v-33.5c0-10.39,8.43-18.81,18.82-18.81h55.49
		c-10.39,0-18.82,8.42-18.82,18.81v33.5C55.49,195.65,63.92,204.08,74.31,204.08z"/>
	<rect y="156.483" style="fill:#D0E2E7;" width="512" height="24.06"/>
	<path style="fill:#F6F1F1;" d="M275.43,332.695l43.407-31.537c11.586-8.417,16.434-23.338,12.008-36.958l-16.58-51.028
		c-4.425-13.62-17.117-22.841-31.438-22.841h-53.654c-14.321,0-27.013,9.221-31.438,22.841l-16.58,51.028
		c-4.425,13.62,0.423,28.54,12.008,36.958l43.407,31.537C248.156,341.112,263.844,341.112,275.43,332.695z"/>
	<path style="fill:#2F373B;" d="M275.922,269.194c7.115-5.792,11.663-14.616,11.663-24.506c0-17.444-14.141-31.585-31.585-31.585
		c-17.444,0-31.585,14.141-31.585,31.585c0,9.89,4.548,18.714,11.663,24.506l-9.419,16.313c-3.801,6.583,0.95,14.813,8.552,14.813
		h41.578c7.602,0,12.353-8.229,8.552-14.813L275.922,269.194z"/>
	<path style="fill:#F6F1F1;" d="M490.01,359.96c-21.65,48.66-58.04,89.33-103.5,116.31c-2.84,1.68-5.71,3.31-8.61,4.88
		c-0.08-1.62-0.11-3.24-0.11-4.88C377.79,413.39,427.66,362.15,490.01,359.96z"/>
	<path style="fill:#F6F1F1;" d="M134.21,476.27c0,1.64-0.03,3.26-0.11,4.88c-2.9-1.57-5.77-3.2-8.61-4.88
		c-45.46-26.98-81.85-67.65-103.5-116.31C84.34,362.15,134.21,413.39,134.21,476.27z"/>
</g>
<g>
</g>
<g>
</g>
<g>
</g>
<g>
</g>
<g>
</g>
<g>
</g>
<g>
</g>
<g>
</g>
<g>
</g>
<g>
</g>
<g>
</g>
<g>
</g>
<g>
</g>
<g>
</g>
<g>
</g>
</svg>
